/* XPM */
static char *dde2bac108184043a709d898773367e5qTFI9FlfQj7EpPyf[] = {
/* columns rows colors chars-per-pixel */
"48 48 216 2 ",
"   c #050406",
".  c #17090A",
"X  c #0A1218",
"o  c #141012",
"O  c #151214",
"+  c #1C1314",
"@  c #1B191B",
"#  c #2A0B08",
"$  c #330501",
"%  c #28140A",
"&  c #3B190A",
"*  c #3C0F12",
"=  c #281916",
"-  c #231C1C",
";  c #2A1D1B",
":  c #371816",
">  c #19241F",
",  c #2C2314",
"<  c #34251A",
"1  c #32351D",
"2  c #161B23",
"3  c #1D2023",
"4  c #262222",
"5  c #272627",
"6  c #2C2A23",
"7  c #2C2A29",
"8  c #362C2A",
"9  c #283223",
"0  c #363924",
"q  c #353328",
"w  c #262F36",
"e  c #302F31",
"r  c #28343B",
"t  c #373736",
"y  c #481809",
"u  c #53110E",
"i  c #441615",
"p  c #581A1A",
"a  c #5B1C1B",
"s  c #691415",
"d  c #731B1E",
"f  c #46200B",
"g  c #5A2F06",
"h  c #4C251C",
"j  c #4E311C",
"k  c #59371B",
"l  c #683011",
"z  c #7E1B21",
"x  c #5D2621",
"c  c #4A3B26",
"v  c #52332A",
"b  c #483B3B",
"n  c #642525",
"m  c #712326",
"M  c #743731",
"N  c #37421E",
"B  c #3A4624",
"V  c #3E403D",
"C  c #704715",
"Z  c #4A4B2B",
"A  c #534639",
"S  c #455936",
"D  c #74532D",
"F  c #6E5231",
"G  c #486235",
"H  c #4E6A3A",
"J  c #576D3C",
"K  c #56733E",
"L  c #62743B",
"P  c #6E7139",
"I  c #69783E",
"U  c #6C7D3F",
"Y  c #2A3A45",
"T  c #383D43",
"R  c #38444A",
"E  c #2E4550",
"W  c #3A4953",
"Q  c #3C4D58",
"!  c #3E5655",
"~  c #3B5463",
"^  c #395665",
"/  c #3E606E",
"(  c #474847",
")  c #4B5449",
"_  c #525749",
"`  c #464D53",
"'  c #5A4C54",
"]  c #47545A",
"[  c #57595B",
"{  c #6F5853",
"}  c #695B57",
"|  c #586849",
" . c #5B7B43",
".. c #556254",
"X. c #736B4F",
"o. c #6B7E42",
"O. c #646556",
"+. c #6C6C56",
"@. c #746259",
"#. c #495963",
"$. c #425C6B",
"%. c #515D65",
"&. c #4A616E",
"*. c #55636C",
"=. c #5B646A",
"-. c #466373",
";. c #4B6876",
":. c #576B77",
">. c #5B727D",
",. c #6A6365",
"<. c #786766",
"1. c #7A716F",
"2. c #6D6F72",
"3. c #62767E",
"4. c #813B1E",
"5. c #882E32",
"6. c #8F3738",
"7. c #825218",
"8. c #904E32",
"9. c #9B563B",
"0. c #83602F",
"q. c #8B6232",
"w. c #936633",
"e. c #925652",
"r. c #A05F44",
"t. c #8C7151",
"y. c #A76F47",
"u. c #837A76",
"i. c #A56B65",
"p. c #6D8141",
"a. c #65874A",
"s. c #6A874A",
"d. c #6A8D4D",
"f. c #728543",
"g. c #758A45",
"h. c #778A4A",
"j. c #6C914E",
"k. c #7C924B",
"l. c #6D9251",
"z. c #769E57",
"x. c #789F57",
"c. c #77A057",
"v. c #77A058",
"b. c #78A158",
"n. c #808D4A",
"m. c #85924C",
"M. c #8AA453",
"N. c #8CA655",
"B. c #91AC57",
"V. c #99AB5A",
"C. c #96B25B",
"Z. c #9AB65D",
"A. c #9DBA5F",
"S. c #A4B55F",
"D. c #878378",
"F. c #95907D",
"G. c #BE8F60",
"H. c #9FBC60",
"J. c #A1BE61",
"K. c #ABBD64",
"L. c #A4C263",
"P. c #B6C96A",
"I. c #BED26F",
"U. c #BFD370",
"Y. c #C0D470",
"T. c #5A7786",
"R. c #5F7F90",
"E. c #637985",
"W. c #667B87",
"Q. c #727D85",
"!. c #5F808C",
"~. c #6B838E",
"^. c #76838C",
"/. c #688694",
"(. c #788B95",
"). c #77919C",
"_. c #7894A2",
"`. c #7EA0AD",
"'. c #978786",
"]. c #90928E",
"[. c #83939C",
"{. c #A79490",
"}. c #8499A3",
"|. c #869AA4",
" X c #929CA4",
".X c #95A2AA",
"XX c #93AAB6",
"oX c #98AAB4",
"OX c #A9A8A9",
"+X c #B5A8A7",
"@X c #ADB4B1",
"#X c #B9B4B3",
"$X c #C9A49D",
"%X c #C8AEA5",
"&X c #C8B8B6",
"*X c #E5BEB4",
"=X c #B1E0BE",
"-X c #CEC3BD",
";X c #EEC9BE",
":X c #A9B8C1",
">X c #B1BDC4",
",X c #9BD4C3",
"<X c #B7C3CA",
"1X c #A1C5D1",
"2X c #B5CAD2",
"3X c #C5D1D7",
"4X c #CBD6DB",
"5X c #D1D0D0",
"6X c #E8D8D1",
"7X c #EBE3DE",
"8X c #FFE5DA",
"9X c #D5DEE2",
"0X c #DCE6EA",
"qX c #FFEDE5",
"wX c #FFF1E8",
"eX c #FFFEFA",
/* pixels */
"b.b.b.b.b.b.b.b.L.L.L.L.Y.Y.Y.Y.Y.Y.Y.Y.Y.Y.Y.Y.Y.Y.Y.Y.Y.Y.Y.Y.L.L.L.L.L.L.L.L.L.L.L.L.b.b.b.b.",
"b.b.b.b.b.b.b.b.L.L.L.L.Y.Y.Y.Y.Y.Y.Y.Y.Y.Y.Y.Y.Y.Y.Y.Y.Y.Y.Y.Y.L.L.L.L.L.L.L.L.L.L.L.L.b.b.b.b.",
"b.b.b.b.b.b.b.b.L.L.L.L.Y.Y.Y.Y.Y.Y.Y.Y.Y.Y.Y.Y.Y.Y.Y.Y.Y.Y.Y.Y.L.L.L.L.L.L.L.L.L.L.L.L.b.b.b.b.",
"b.b.b.b.b.b.b.b.L.L.L.L.Y.Y.Y.Y.Y.Y.Y.Y.Y.Y.Y.U.I.I.I.I.U.Y.Y.Y.L.L.L.L.L.L.L.L.L.L.L.L.b.b.b.b.",
"b.b.b.b.b.b.b.b.L.L.L.L.Y.Y.Y.Y.Y.Y.Y.Y.L.L.L.L.I.I.I.I.I.Y.Y.Y.L.L.L.L.L.L.L.L.L.L.L.L.b.b.b.b.",
"b.b.b.b.b.b.b.b.L.L.L.L.Y.Y.Y.Y.Y.Y.Y.Y.L.L.L.L.Y.Y.Y.Y.Y.Y.U.Y.L.L.L.L.L.L.L.L.L.L.L.L.b.b.b.b.",
"b.b.b.b.b.b.b.b.L.L.L.L.Y.Y.Y.Y.Y.Y.Y.Y.L.L.L.L.Y.Y.Y.Y.Y.I.I.Y.L.L.L.L.L.L.L.L.L.L.L.L.b.b.b.b.",
"b.b.b.b.b.b.b.b.L.L.L.L.Y.Y.Y.Y.Y.Y.Y.I.L.L.L.N.V.V.V.V.K.Y.Y.I.L.L.L.L.L.L.L.L.L.L.L.L.b.b.b.b.",
"b.b.b.b.L.L.L.L.L.L.L.L.L.L.L.L.Y.Y.Y.I.Y.Y.P.I 0 0 0 0 o.J.L.L.J.L.L.L.L.L.L.L.L.L.L.L.b.b.b.b.",
"b.b.b.b.L.L.L.L.L.L.L.L.L.L.L.L.Y.I.U.Y.Y.S.m.t R ` T 7 B g.B.L.L.L.L.L.L.L.L.L.L.L.L.L.b.b.b.b.",
"b.b.b.b.L.L.L.L.L.L.L.L.L.L.L.L.Y.I.Y.Y.P.U 7 W T.W.%.q + - o.J.L.L.J.L.L.L.L.L.L.L.L.L.b.b.b.b.",
"b.b.b.b.L.L.L.L.L.L.L.L.L.L.L.J.I.Y.Y.S.m.O.Q.:.>.!.] 1 @ ` ..g.B.L.L.L.L.L.L.L.L.L.L.L.b.b.b.b.",
"b.b.b.b.L.L.L.L.L.L.L.L.L.L.L.L.Y.Y.P.U t OX4X}.;.-.E @ t 3.*.5 p.J.L.L.L.L.L.L.b.b.b.b.b.b.b.b.",
"b.b.b.b.L.L.L.L.L.L.L.L.L.L.L.L.Y.S.n._ ^.3X0X<X(.;.&.=.=.) ` ` _ g.N.L.L.L.L.L.b.b.b.b.b.b.b.b.",
"b.b.b.b.L.L.L.L.L.L.L.L.L.L.L.L.P.f.e ^.2X3X4X9X:XW.(.:X^.4 t E.*.4 f.L.L.L.L.L.b.b.b.b.b.b.b.b.",
"b.b.b.b.L.L.L.L.L.L.L.L.L.J.J.M.h._ =..X2X3X4X0X<X(.}.2X XW ] ~.*.4 p.L.L.L.L.L.b.b.b.b.b.b.b.b.",
"b.b.b.b.b.b.b.b.L.L.L.L.L.L.L.U 4 *.}.XXoX<X4X4X>X|.}.oX).&.;.E.] 6 g.L.L.L.L.L.b.b.b.b.b.b.b.b.",
"b.b.b.b.b.b.b.b.L.L.J.L.L.L.L.p.5 =.|.}.[.oX<X<X@X X(.~.#.Y ] E.%.6 g.J.L.L.L.L.b.b.b.b.b.b.b.b.",
"b.b.b.b.b.b.b.b.L.L.L.J.A.A.Z.U q =.(.~.~.|.oXXX.X[.~.-.r + V 3.%.- g.L.L.L.L.L.b.b.b.b.b.b.b.b.",
"b.b.b.b.b.b.b.z.J.L.L.N.L L L Z 7 %.~.~.Q.(.)./.R.T.T.-.Y + ( E.%.@ k.L.L.L.L.L.b.b.b.b.b.b.b.b.",
"b.b.b.b.b.b.b.b.L.J.Z.p.+ e b ; @ W E.~.~.~.>.Q Y E $.-.Y O t >.*.7 p.Z.H.L.L.L.b.b.b.b.b.b.b.b.",
"b.b.b.b.b.c.c.b.L.B.L N   1.+X} . w :.E.W./.#.+ . = T ^ Y   5 ;.T.Q S L M.L.L.L.c.b.b.b.b.b.b.b.",
"b.b.b.b.b.c.c.z.Z.f.O - ( {.+X,.5 Y ;.T.:.~ R b h $ : =.:.( e Y / ;.Q ; f.L.L.L.z.b.b.b.b.b.b.b.",
"b.b.b.b.v.b.b.d.L B   ,.#XD.t r $.$.-.T.~ X t @X+Xp u {.9X-X@.O r ;.#.4 f.L.L.L.z.b.b.b.b.b.b.b.",
",X,X,X,Xz.b.b. .- 7 _ ].OX<.6 r ^ ~ Q ~ Y = <.eXeXi.e.;XeXeX%X{ T Q ) J a.b.b.b.c.b.b.b.,X,X,X,X",
",X,X,X,Xz.b.b. .+ 1.#Xu.e } '.[ 2 2 5 3 8 @.$XqXwX;X*X8XqX8X8X6X'.e L C.z.b.c.b.b.b.b.b.,X,X,X,X",
",X,X,X,Xv.b.b.d.L D.+X1.t } '.@.< % o   6 '.&X&X&X7X6X&X&X5X7X5XF.L M.L.b.b.v.b.b.b.b.b.,X,X,X,X",
",X,X,X,Xb.c.c.z.Z.h.t u.{.,.7 F q.c X   5 2.[.Q.[.:XoXQ.[.<X.X( p.A.L.L.v.b.b.b.b.b.b.b.,X,X,X,X",
",X,X,X,Xb.c.c.b.b.d.G O.'.} , k D j # * 8 R ^ ;.R._._././.~.` # L B.A.L.b.b.b.b.b.b.b.b.,X,X,X,X",
",X,X,X,Xb.b.b.b.b.x.z.K 8 F 0.Z = * s d a = w ;.W.T._.XX/.r : a k Z k.L.b.b.c.b.b.b.b.b.,X,X,X,X",
",X,X,X,Xb.b.b.z.z.b.b.d.I P D A r ' e.M i # ; ( [ ' ,.'.<.h y x b T | M.l.b.v.b.b.b.b.b.,X,X,X,X",
",X,X,X,Xb.b.b.b.b.b.b.c.A.f.6 ( E.XX X( . # y f h n n n M 6.n = R :.[ B  .b.b.c.c.b.b.b.,X,X,X,X",
",X,X,X,Xb.b.b.b.b.z.z.b.L.g.@ ] }.1X`.E   # y y u d d s z 5.a O ! ).=.4 H b.b.c.z.b.b.b.,X,X,X,X",
",X,X,X,Xb.b.b.b.b.c.b.b.L.f.- ] ~.).>.r o # y a m 5.6.6.5.m i + ! W.%.- K b.b.c.c.b.b.b.,X,X,X,X",
",X,X,X,Xb.b.b.b.b.b.b.z.J.N.g._ ` Q ( c g g g l 4.9.r.r.9.8.k ; w ` | h.d.b.b.b.b.b.b.b.,X,X,X,X",
",X,X,X,Xb.b.b.b.b.b.b.z.L.L.J.p.- @ 1 C 7.7.C C 7.w.w.w.y.G.t.6 o @ h.L.b.b.c.b.b.b.b.b.,X,X,X,X",
",X,X,X,X,X,X,X,Xb.b.b.v.b.v.v.d.g.B ; A X.X.O.+.X.D l l t.#X].7 B K j.b.b.b.b.b.,X,X,X,X,X,X,X,X",
",X,X,X,X,X,X,X,Xb.b.b.b.b.z.b.b.J.U 6 W -.$.-.T.=.v $ $ { oX(.7 H c.b.b.z.b.b.b.,X,X,X,X,X,X,X,X",
",X,X,X,X,X,X,X,Xb.b.b.b.b.z.v.b.L.B.k.| R R ( _ b < . . A <.} q K b.b.c.z.b.b.b.,X,X,X,X,X,X,X,X",
",X,X,X,X,X,X,X,Xb.b.b.b.b.b.b.z.L.L.H.L = & f y & 0 9 @ : s a ; H z.b.b.z.b.b.b.,X,X,X,X,X,X,X,X",
",X,X,X,X,X,X,X,X,X,X,X,Xb.b.b.z.c.b.z.S = y y & 1  . .> i s a ; G z.b.b.,X,X,X,X,X,X,X,X=X=X=X=X",
",X,X,X,X,X,X,X,X,X,X,X,Xb.b.b.z.b.c.z.H 0 c j 0 H v.z.S c M v 0 K z.b.b.,X,X,X,X,X,X,X,X=X=X=X=X",
",X,X,X,X,X,X,X,X,X,X,X,Xb.b.b.b.b.b.z.d.a.s.s.a.l.b.b.d.s.h.s.a.l.c.b.b.,X,X,X,X,X,X,X,X=X=X=X=X",
",X,X,X,X,X,X,X,X,X,X,X,Xb.b.b.b.b.b.b.b.b.b.b.b.b.c.b.b.b.b.b.b.b.b.b.b.,X,X,X,X,X,X,X,X=X=X=X=X",
",X,X,X,X,X,X,X,X,X,X,X,X,X,X,X,Xb.b.b.b.b.b.b.b.b.b.b.b.b.b.b.b.,X,X,X,X,X,X,X,X,X,X,X,X,X,X,X,X",
",X,X,X,X,X,X,X,X,X,X,X,X,X,X,X,Xb.b.b.c.z.z.z.z.c.b.b.c.z.x.z.z.,X,X,X,X,X,X,X,X,X,X,X,X,X,X,X,X",
",X,X,X,X,X,X,X,X,X,X,X,X,X,X,X,Xb.b.b.b.b.b.b.b.b.b.b.b.b.b.b.b.,X,X,X,X,X,X,X,X,X,X,X,X,X,X,X,X",
",X,X,X,X,X,X,X,X,X,X,X,X,X,X,X,Xb.b.b.b.b.b.b.b.b.b.b.b.b.b.b.b.,X,X,X,X,X,X,X,X,X,X,X,X,X,X,X,X"
};
