/* XPM */
static char *_2684982262e44ccdaa5c7fd3c1cca61nThV6qadlMLwHUb0[] = {
/* columns rows colors chars-per-pixel */
"48 48 208 2 ",
"   c #070406",
".  c #180808",
"X  c #131013",
"o  c #1C1514",
"O  c #1B191A",
"+  c #2B0500",
"@  c #340705",
"#  c #291607",
"$  c #37190B",
"%  c #2C0913",
"&  c #231D1C",
"*  c #281918",
"=  c #351C1A",
"-  c #30220D",
";  c #26231A",
":  c #2A231C",
">  c #352517",
",  c #2D351D",
"<  c #101A25",
"1  c #231F20",
"2  c #1B2229",
"3  c #1F343F",
"4  c #272221",
"5  c #292424",
"6  c #282A25",
"7  c #2C2A29",
"8  c #322823",
"9  c #322D2C",
"0  c #2C3427",
"q  c #353724",
"w  c #2C2E33",
"e  c #28353B",
"r  c #383636",
"t  c #353A3B",
"y  c #4D0F0B",
"u  c #461707",
"i  c #461914",
"p  c #591A19",
"a  c #6B1A15",
"s  c #681918",
"d  c #5A2C03",
"f  c #4D2F12",
"g  c #552318",
"h  c #63360B",
"j  c #6B2B15",
"k  c #681E22",
"l  c #4A2623",
"z  c #513325",
"x  c #443B3A",
"c  c #642526",
"v  c #762527",
"b  c #67352B",
"n  c #733333",
"m  c #64441A",
"M  c #754716",
"N  c #464929",
"B  c #554927",
"V  c #45433E",
"C  c #4D5032",
"Z  c #475937",
"A  c #63482D",
"S  c #774529",
"D  c #70562F",
"F  c #7D5C34",
"G  c #4D643A",
"H  c #596738",
"J  c #58723B",
"K  c #616939",
"L  c #66773C",
"P  c #2A3943",
"I  c #343E45",
"U  c #39424A",
"Y  c #38474D",
"T  c #344855",
"R  c #364A56",
"E  c #3D4C54",
"W  c #3B5767",
"Q  c #454847",
"!  c #4F5148",
"~  c #535A47",
"^  c #434C53",
"/  c #4B5659",
"(  c #575859",
")  c #695B58",
"_  c #735757",
"`  c #566941",
"'  c #5B7843",
"]  c #5A6253",
"[  c #656C4E",
"{  c #6C7A41",
"}  c #696358",
"|  c #766C51",
" . c #737952",
".. c #455B67",
"X. c #535D64",
"o. c #585E64",
"O. c #4D606B",
"+. c #57636C",
"@. c #466373",
"#. c #4B6674",
"$. c #4B6979",
"%. c #556B77",
"&. c #54707C",
"*. c #5E737D",
"=. c #6C6568",
"-. c #776B6A",
";. c #68757C",
":. c #737373",
">. c #852523",
",. c #832F36",
"<. c #893232",
"1. c #943938",
"2. c #835319",
"3. c #864B2E",
"4. c #885C26",
"5. c #964F34",
"6. c #93662B",
"7. c #926633",
"8. c #A37334",
"9. c #8D514E",
"0. c #946D56",
"q. c #AB7B48",
"w. c #847B77",
"e. c #6C803F",
"r. c #6E8141",
"t. c #648648",
"y. c #698C4C",
"u. c #728544",
"i. c #7A8646",
"p. c #748945",
"a. c #7C8B4B",
"s. c #7B914A",
"d. c #6E9451",
"f. c #739B55",
"g. c #769E56",
"h. c #77A057",
"j. c #77A058",
"k. c #78A158",
"l. c #818F4A",
"z. c #87954D",
"x. c #889750",
"c. c #8D9C52",
"v. c #8BA553",
"b. c #8FA956",
"n. c #94A958",
"m. c #9FB05D",
"M. c #9DBA5F",
"N. c #A2B15E",
"B. c #A8B15F",
"V. c #90827F",
"C. c #BE8F60",
"Z. c #9FBC60",
"A. c #A1BF61",
"S. c #ABBD64",
"D. c #A4C263",
"F. c #AEC066",
"G. c #B6C96A",
"H. c #B7CA6B",
"J. c #BED26F",
"K. c #BFD370",
"L. c #C0D470",
"P. c #5C7584",
"I. c #5B7988",
"U. c #677A85",
"Y. c #647A86",
"T. c #737E86",
"R. c #5F818F",
"E. c #6C838E",
"W. c #75828A",
"Q. c #6D8491",
"!. c #698794",
"~. c #778A94",
"^. c #7C939E",
"/. c #7A97A4",
"(. c #7FA0AD",
"). c #948F88",
"_. c #998C89",
"`. c #85939C",
"'. c #A3918E",
"]. c #B39798",
"[. c #8699A3",
"{. c #929CA4",
"}. c #95A4AD",
"|. c #99AAB4",
" X c #9BB1BC",
".X c #A8A7A8",
"XX c #B5ADAB",
"oX c #BAB4AA",
"OX c #A7B4BB",
"+X c #C49F98",
"@X c #CABAB6",
"#X c #E1B7AE",
"$X c #B1E0BE",
"%X c #CFC2BE",
"&X c #EAC4BA",
"*X c #B2BEC4",
"=X c #9DC2CF",
"-X c #9BD4C3",
";X c #B8C5CB",
":X c #B4C9D1",
">X c #C8D3D8",
",X c #E5D4CD",
"<X c #EDE4DE",
"1X c #FFE6DB",
"2X c #D3DCE0",
"3X c #DDE8EB",
"4X c #FFF4EB",
"5X c #FEFDF9",
/* pixels */
"-X-X-X-X-X-X-X-X-X-X-X-X-X-X-X-X-X-X-X-X-X-X-X-Xk.k.k.k.k.k.k.k.k.k.k.k.k.k.k.k.k.k.k.k.k.k.k.k.",
"-X-X-X-X-X-X-X-X-X-X-X-X-X-X-X-X-X-X-X-X-X-X-X-Xk.k.k.k.k.k.k.k.k.k.k.k.k.k.k.k.k.k.k.k.k.k.k.k.",
"-X-X-X-X-X-X-X-X-X-X-X-X-X-X-X-X-X-X-X-X-X-X-X-Xg.g.g.g.h.k.k.k.k.k.k.k.k.k.k.k.k.k.k.k.k.k.k.k.",
"-X-X-X-X-X-X-X-X-X-X-X-X-X-X-X-X-X-X-X-X-X-X-X-Xk.k.k.k.k.k.k.k.k.k.k.k.k.k.k.k.k.k.k.k.k.k.k.k.",
"-X-X-X-X-X-X-X-X-X-X-X-Xk.k.k.k.k.k.k.k.k.h.k.k.k.k.k.k.k.h.h.k.k.k.k.k.D.D.D.D.D.D.D.D.D.D.D.D.",
"-X-X-X-X-X-X-X-X-X-X-X-Xk.k.k.k.k.k.k.g.k.k.k.y.t.t.t.t.d.k.k.k.h.k.k.k.D.D.D.D.D.D.D.D.D.D.D.D.",
"-X-X-X-X-X-X-X-X-X-X-X-Xk.k.k.k.k.k.k.g.k.k.f.Z 0 , 0 0 G g.k.j.g.k.k.k.D.D.D.D.D.D.D.D.D.D.D.D.",
"-X-X-X-X-X-X-X-X-X-X-X-Xk.k.k.k.k.g.k.k.k.y.J 0 U Q t 7 q ' d.k.k.j.g.k.D.D.D.D.D.D.D.D.D.D.D.D.",
"$X$X$X$X$X$X$X$Xk.k.k.k.k.k.k.k.D.A.D.D.M.L 0 T &.Y.X.9 o , r.D.D.D.A.D.D.D.D.D.D.D.D.D.D.D.D.D.",
"$X$X$X$X$X$X$X$Xk.k.k.k.k.k.k.g.D.D.D.b.p.] ;.%.P.R./ , O ^ ] s.n.D.D.D.D.D.D.D.D.D.D.D.D.D.D.D.",
"$X$X$X$X$X$X$X$Xk.k.k.k.k.k.k.g.D.D.M.L r .X>X`.#.@.Y o t *.+.6 u.D.D.D.D.D.D.D.D.D.D.D.D.D.D.D.",
"$X$X$X$X$X$X$X$Xk.k.k.k.k.j.k.k.D.b.p.! W.>X3X;X~.#...o.( / ^ ^ ~ a.b.D.D.D.D.D.D.D.D.D.D.D.D.D.",
"-X-X-X-Xk.k.k.k.k.k.k.k.D.D.D.D.M.L 7 T.;X>X>X2XOXY.Q. XW.4 r *.+.1 p.D.D.D.D.D.D.D.D.D.D.D.D.D.",
"-X-X-X-Xk.k.k.k.k.k.k.g.D.A.A.v.u.Z +.}.:X>X>X3X;X~.[.:X{.U E E.+.4 r.D.D.D.D.D.D.D.D.D.D.D.D.D.",
"-X-X-X-Xk.k.k.k.k.k.k.h.D.D.D.r.4 o.^.}. X;X>X>X*X[.[.|.^.@.#.Y./ 4 p.D.D.D.D.D.D.D.D.D.D.D.D.D.",
"-X-X-X-Xk.k.k.k.k.h.g.k.D.D.D.r.5 +.[.[.`.OX;X;XOX{.^.Q.O.I / Y.X.6 p.A.D.D.D.D.D.D.D.D.D.D.D.D.",
"-X-X-X-Xk.k.k.k.D.D.D.A.Z.Z.M.e.6 +.~.Q.E.[. X|.}.`.Q.#.e X t ;.X.& x.L.D.D.D.D.L.L.L.L.L.L.L.L.",
"-X-X-X-Xk.k.k.g.A.D.D.n.{ L L C 7 X.E.E.T.~.^.!.!.Y.P.@.P o Q Y.X.o c.L.D.D.D.D.L.L.L.L.L.L.L.L.",
"-X-X-X-Xk.k.k.k.D.D.M.r.o 9 9 * & ^ Y.Q.E.Q.P.W T T ..@.I o t *.+.5 l.H.A.D.D.D.L.L.L.L.L.L.L.L.",
"-X-X-X-Xk.h.h.k.D.n.{ N   -..X) . e &.Y.Y.!...o . * I W 3   6 %.I.E ` i.v.D.D.D.J.L.L.L.L.L.L.L.",
"-X-X-X-Xk.j.h.g.f.J o o V '.oX=.2 P $.P.&.W Y x i + = +.+.x 9 T @.$.E & z.L.L.J.J.L.L.L.D.D.D.D.",
"-X-X-X-Xj.k.k.y.G ,   ) XX).x I ....#.I.W < t .X].y y '.>X@X) X e &...4 l.L.L.J.J.L.L.L.D.D.D.D.",
"-X-X-X-Xg.k.j.' & 4 V ).XX-.4 e W W T W I * } 5X5X0.9.&X5X5X+X! t E ! K m.L.L.K.J.L.L.L.D.D.D.D.",
"-X-X-X-Xg.k.j.' o -.oXw.r ) _.( < < 2 2 9 _ +X4X4X&X#X1X4X1X1X,XV.w { S.H.K.J.L.L.L.L.L.D.D.D.D.",
"k.k.k.k.j.k.k.y.Z :.XX-.9 ) _.) * $ $ . 7 ).@X@X%X<X<X%X@X,X<X,X_.{ N.L.L.K.J.L.L.L.L.L.L.L.L.L.",
"k.k.k.k.k.h.h.g.d.' V w._.=.9 z F 2.h # 2 *.`.W.`.*XOXW.`.;X}.( a.H.J.L.L.L.L.L.L.L.L.L.L.L.L.L.",
"k.k.k.k.k.h.h.k.k.y.Z } '.) - m 8.6.h > 8 U ..$.Y././.!.!.Q./ . i.F.H.J.J.L.L.L.L.L.L.L.L.L.L.L.",
"k.k.k.k.k.k.k.k.k.g.d.` r A 4.6.2.z : l p = e #.!.Y./. XQ.e = g A H n.J.J.K.J.L.L.L.L.L.L.L.L.L.",
"k.k.k.k.k.k.k.g.A.D.D.b.J K F D f # % k s % O Q o.( =.).-.l i c l * l.L.L.K.J.L.L.L.L.L.L.L.L.L.",
"k.k.k.k.k.k.k.k.D.D.D.A.M.u.: ; ; i s v k = o > g c c b n <.b > o o x.L.L.K.J.L.L.L.L.L.L.L.L.L.",
"k.k.k.k.k.k.k.k.D.A.A.D.D.s.O 2 I _ 9.b i * = u a v v a >.1.b ; 0 V a.m.F.L.K.L.K.L.L.L.L.L.L.L.",
"k.k.k.k.k.k.k.k.D.D.D.D.D.p.; U Y.|.{.! . # i p v <.1.1.<.v i o Y *.( N n.L.L.J.J.L.L.L.L.L.L.L.",
"k.k.k.k.k.k.k.k.D.D.D.D.A.e.4 / /.=X(.T   + i p c v ,.,.v p @ o / ~.+.4 l.L.L.J.J.L.L.L.L.L.L.L.",
"k.k.k.k.k.k.k.k.D.D.D.D.D.u.& / E.^.*.e o $ u u i s k k c k i o ^ Y.X.& c.L.L.J.J.L.L.L.L.L.L.L.",
"k.k.k.k.k.k.k.k.D.D.D.D.D.b.p.~ ^ E Q z d d d d h S 3.S 3.5.b ; w ^ [ c.S.L.K.K.J.L.L.L.L.L.L.L.",
"k.k.k.k.k.k.k.k.D.D.D.D.D.D.A.r.& O , m 2.2.M M 2.7.7.7.q.C.0.8 X O x.L.L.K.J.L.L.L.L.L.L.L.L.L.",
"k.k.k.k.D.D.D.D.D.D.D.D.D.D.D.n.x.N * C | [ }  .| F M j 0.oX).9 H c.S.L.L.L.K.L.L.L.L.L.L.L.L.L.",
"k.k.k.k.D.D.D.D.D.D.D.D.D.A.D.D.J.a.0 E #...@.I.+.z @ @ ) |.~.7 l.J.L.K.J.L.L.L.L.L.L.L.L.L.L.L.",
"k.k.k.k.D.D.D.D.D.D.D.D.D.D.D.D.L.S.c.[ Y Q ! ! x = . . C -.) q x.L.L.J.J.L.L.L.L.L.L.L.L.L.L.L.",
"k.k.k.k.D.D.D.D.D.D.D.D.D.D.D.A.K.L.J.{ * $ u u $ q 0 O = k p & a.J.K.L.J.L.L.L.L.L.L.L.L.L.L.L.",
"k.k.k.k.D.D.D.D.D.D.D.D.D.D.D.A.J.L.J.L * u u $ N n.c.6 i a p & u.J.K.L.J.L.L.L.L.L.L.L.D.D.D.D.",
"k.k.k.k.D.D.D.D.D.D.D.D.D.D.D.D.L.J.H.a.N B B N a.K.H.L B S A N x.J.L.L.J.L.L.L.L.L.L.L.D.D.D.D.",
"k.k.k.k.D.D.D.D.D.D.D.D.D.D.D.D.L.K.J.S.N.N.N.N.S.L.L.S.B.B.B.N.F.J.L.L.K.L.L.L.L.L.L.L.D.D.D.D.",
"k.k.k.k.D.D.D.D.D.D.D.D.D.D.D.D.L.L.L.L.L.L.L.L.L.J.L.L.L.L.L.L.L.L.L.L.L.L.L.L.L.L.L.L.D.D.D.D.",
"k.k.k.k.D.D.D.D.D.D.D.D.D.D.D.D.L.L.L.L.D.D.D.D.L.L.L.L.L.L.L.L.L.L.L.L.L.L.L.L.L.L.L.L.L.L.L.L.",
"k.k.k.k.D.D.D.D.D.D.D.D.D.D.D.D.L.L.L.J.D.D.D.D.J.L.L.J.J.J.J.J.J.L.L.L.L.L.L.L.L.L.L.L.L.L.L.L.",
"k.k.k.k.D.D.D.D.D.D.D.D.D.D.D.D.L.L.L.L.D.D.D.D.K.L.L.K.L.L.L.K.L.L.L.L.L.L.L.L.L.L.L.L.L.L.L.L.",
"k.k.k.k.D.D.D.D.D.D.D.D.D.D.D.D.L.L.L.L.D.D.D.D.L.L.L.L.L.L.L.L.L.L.L.L.L.L.L.L.L.L.L.L.L.L.L.L."
};
