/* XPM */
static char *_14b56d3239242c39a3344a454f3e6f21ztTdBKCIyYkkOsf[] = {
/* columns rows colors chars-per-pixel */
"48 48 215 2 ",
"   c #070406",
".  c #180808",
"X  c #131013",
"o  c #1C1514",
"O  c #1B191A",
"+  c #2B0500",
"@  c #340705",
"#  c #291607",
"$  c #37190B",
"%  c #2C0913",
"&  c #231D1C",
"*  c #281918",
"=  c #351C1A",
"-  c #1D211C",
";  c #29231B",
":  c #362617",
">  c #302D18",
",  c #091720",
"<  c #131C28",
"1  c #231F20",
"2  c #1D2124",
"3  c #1B222A",
"4  c #1F343F",
"5  c #272221",
"6  c #232726",
"7  c #292424",
"8  c #2C2C24",
"9  c #2D2A29",
"0  c #342524",
"q  c #322D2C",
"w  c #283328",
"e  c #343427",
"r  c #2C2E33",
"t  c #27353B",
"y  c #373837",
"u  c #4D0F0B",
"i  c #461707",
"p  c #461915",
"a  c #591A19",
"s  c #6B1A15",
"d  c #681918",
"f  c #4B2709",
"g  c #5A2C03",
"h  c #452314",
"j  c #552318",
"k  c #523D1A",
"l  c #63360B",
"z  c #6B2B15",
"x  c #681E22",
"c  c #4A2623",
"v  c #5E2522",
"b  c #4B3A26",
"n  c #443B3B",
"m  c #642526",
"M  c #762527",
"N  c #67352B",
"B  c #733333",
"V  c #3D4327",
"C  c #3E423F",
"Z  c #64451A",
"A  c #754716",
"S  c #464826",
"D  c #58462B",
"F  c #4E5A2B",
"G  c #49453E",
"H  c #554839",
"J  c #525D35",
"K  c #774529",
"L  c #7D5728",
"P  c #654C34",
"I  c #7D5D34",
"U  c #596736",
"Y  c #5E703B",
"T  c #6D713B",
"R  c #6A773E",
"E  c #2A3943",
"W  c #333E45",
"Q  c #39434A",
"!  c #38454B",
"~  c #2F4350",
"^  c #364A56",
"/  c #3D4C54",
"(  c #3F5158",
")  c #3B5767",
"_  c #464947",
"`  c #504F4A",
"'  c #515A43",
"]  c #57524D",
"[  c #434C53",
"{  c #4C575A",
"}  c #575859",
"|  c #685A55",
" . c #6B5D5B",
".. c #735857",
"X. c #5B6549",
"o. c #556350",
"O. c #666B4E",
"+. c #727E42",
"@. c #676357",
"#. c #756D55",
"$. c #6F7856",
"%. c #455B67",
"&. c #535D64",
"*. c #585E64",
"=. c #4D606B",
"-. c #57636C",
";. c #456373",
":. c #4B6674",
">. c #4B6A79",
",. c #556B77",
"<. c #5C727D",
"1. c #6C6668",
"2. c #776B6A",
"3. c #6D6E74",
"4. c #65747C",
"5. c #852523",
"6. c #832F36",
"7. c #893232",
"8. c #943938",
"9. c #835319",
"0. c #864B2E",
"q. c #91542A",
"w. c #8A632C",
"e. c #96672B",
"r. c #926633",
"t. c #A37334",
"y. c #8D514E",
"u. c #946D56",
"i. c #AB7B48",
"p. c #857773",
"a. c #6E8242",
"s. c #728343",
"d. c #788545",
"f. c #758A45",
"g. c #798948",
"h. c #7D8B49",
"j. c #7C934A",
"k. c #78A158",
"l. c #828F4D",
"z. c #86934D",
"x. c #88994F",
"c. c #8B9952",
"v. c #909F54",
"b. c #8AA252",
"n. c #8FAA56",
"m. c #93A255",
"M. c #92AD58",
"N. c #9AB65D",
"B. c #A2B15D",
"V. c #A8B15F",
"C. c #8E877C",
"Z. c #BE8F60",
"A. c #9DBA61",
"S. c #A5B660",
"D. c #A2BD61",
"F. c #AABC63",
"G. c #A4C263",
"H. c #AEC066",
"J. c #B3C668",
"K. c #B6C96A",
"L. c #BACD6C",
"P. c #BED26F",
"I. c #BFD370",
"U. c #C0D470",
"Y. c #5C7584",
"T. c #5B7988",
"R. c #677A85",
"E. c #647A86",
"W. c #737E86",
"Q. c #61828F",
"!. c #6C838E",
"~. c #75828A",
"^. c #648392",
"/. c #6D8491",
"(. c #6D8B96",
"). c #778A94",
"_. c #7B929E",
"`. c #7B97A4",
"'. c #7FA0AD",
"]. c #928E8A",
"[. c #9B8A88",
"{. c #9A908A",
"}. c #83949E",
"|. c #88929A",
" X c #A3918E",
".X c #B39798",
"XX c #8497A0",
"oX c #889CA6",
"OX c #929CA4",
"+X c #95A4AD",
"@X c #96AAB4",
"#X c #9AABB4",
"$X c #9BB1BC",
"%X c #A8A7A8",
"&X c #B5ADAB",
"*X c #BBB5AA",
"=X c #A7B4BB",
"-X c #C49F98",
";X c #CABAB6",
":X c #E1B7AE",
">X c #CFC2BE",
",X c #EAC4BA",
"<X c #B2BEC4",
"1X c #9EC2CF",
"2X c #B5C3CA",
"3X c #B9C5CC",
"4X c #B4C9D1",
"5X c #C8D3D8",
"6X c #E5D4CD",
"7X c #EDE4DE",
"8X c #FFE6DB",
"9X c #D3DCE0",
"0X c #DDE8EB",
"qX c #FFF4EB",
"wX c #FEFDF9",
/* pixels */
"U.U.U.U.U.U.U.U.U.U.U.U.U.U.U.U.U.U.U.U.U.U.U.U.U.U.U.U.G.G.G.G.G.G.G.G.G.G.G.G.k.k.k.k.k.k.k.k.",
"U.U.U.U.U.U.U.U.U.U.U.U.U.U.U.U.U.U.U.U.U.U.U.I.I.I.I.I.G.G.G.G.G.G.G.G.G.G.G.G.k.k.k.k.k.k.k.k.",
"U.U.U.U.U.U.U.U.U.U.U.U.U.U.U.U.U.U.U.U.U.U.U.P.P.P.P.P.G.G.G.G.G.G.G.G.G.G.G.G.k.k.k.k.k.k.k.k.",
"U.U.U.U.U.U.U.U.U.U.U.U.U.U.U.U.U.U.U.U.U.I.U.U.U.U.U.U.G.G.G.G.G.G.G.G.G.G.G.G.k.k.k.k.k.k.k.k.",
"U.U.U.U.U.U.U.U.U.U.U.U.U.U.U.U.U.U.U.U.U.P.U.U.U.U.U.U.U.P.P.U.G.G.G.G.G.G.G.G.k.k.k.k.k.k.k.k.",
"U.U.U.U.U.U.U.U.U.U.U.U.U.U.U.U.U.U.U.P.U.U.U.F.B.B.B.B.H.U.U.I.G.G.G.G.G.G.G.G.k.k.k.k.k.k.k.k.",
"U.U.U.U.U.U.U.U.U.U.U.U.U.U.U.U.U.U.U.P.U.U.K.+.S S S S h.P.U.P.D.G.G.G.G.G.G.G.k.k.k.k.k.k.k.k.",
"U.U.U.U.U.U.U.U.U.U.U.U.U.U.U.U.U.P.U.U.U.F.x.y Q _ y 9 S m.F.U.G.G.G.G.G.G.G.G.k.k.k.k.k.k.k.k.",
"U.U.U.U.U.U.U.U.U.U.U.U.U.U.U.U.U.P.U.U.K.+.e ~ ,.E.&.q o > a.G.G.G.D.G.G.G.G.G.k.k.k.k.k.k.k.k.",
"U.U.U.U.U.U.U.U.U.U.U.U.U.U.U.P.I.U.U.S.x.@.3.,.Y.Q.{ e O [ o.j.M.G.G.G.G.G.G.G.k.k.k.k.k.k.k.k.",
"U.U.U.U.U.U.U.U.U.U.U.U.U.U.U.P.U.I.L.s.y %X5X}.:.;.~ o y <.-.8 s.G.G.G.G.G.G.G.k.k.k.k.k.k.k.k.",
"U.U.U.U.U.U.U.U.U.U.U.U.U.P.U.U.U.S.z.' ~.5X0X2X).:.%.*.} { [ [ ' g.n.G.G.G.G.G.k.k.k.k.k.k.k.k.",
"U.U.U.U.U.U.U.U.U.U.U.U.U.P.U.U.L.d.9 W.2X5X5X9X=XE.(.$X~.7 y <.-.1 f.G.G.G.G.G.G.G.G.G.k.k.k.k.",
"U.U.U.U.U.U.U.U.U.U.U.P.P.P.P.B.z.' -.+X4X5X5X0X3X).XX4XoXQ / !.-.5 a.G.G.G.G.G.G.G.G.G.k.k.k.k.",
"U.U.U.U.U.U.U.U.U.U.U.P.U.U.P.h.5 *.}.+X$X3X5X5X<XXXXX@X_.;.:.E.{ 5 f.G.G.G.G.G.G.G.G.G.k.k.k.k.",
"U.U.U.U.U.U.U.U.U.P.P.U.U.U.U.h.7 -.oXXX}.=X3X3X=XOX_./.=.W { E.&.8 f.D.G.G.G.G.G.G.G.G.k.k.k.k.",
"U.U.U.U.U.U.U.U.U.U.U.P.L.L.K.h.8 -.)./.!.oX$X#X+XXX/.:.t o C 4.&.& f.G.G.G.G.G.G.G.G.G.k.k.k.k.",
"U.U.U.U.U.U.U.P.P.U.U.F.h.d.d.J 9 &.!.!.W.)._.(.^.E.Y.;.E o _ E.&.O j.G.G.G.G.G.G.G.G.G.k.k.k.k.",
"U.U.U.U.U.U.U.I.U.P.K.z.o q q * & [ E./.!./.Y.( ~ ^ %.;.W o y 4.=.6 a.N.D.G.G.G.G.G.G.G.k.k.k.k.",
"U.U.U.U.U.P.P.U.U.F.d.S   2.%X| . t ,.E.E.^.%.o . * W ) 4   6 ,.T./ J R b.G.G.G.G.G.G.G.k.k.k.k.",
"U.U.U.U.I.P.P.L.K.z.o o G  X*X1.2 E >.Y.<.) ! n p + = -.-.y q ~ ;.>./ & f.G.G.G.G.G.G.G.k.k.k.k.",
"U.U.U.I.P.U.I.F.d.F    .&X].n W %.%.:.T.) , y %X.Xu u  X5X;X .X t >.%.5 s.G.G.G.G.G.G.G.k.k.k.k.",
"U.U.U.P.P.U.U.m.& 7 G ].&X2.5 t ) ) ^ ) W * @.wXwXu.y.,XwXwX-X] y ( [ U x.G.G.G.G.G.G.G.k.k.k.k.",
"U.U.U.P.P.U.U.m.o 2.*XC.y  .[.} < < 3 3 q ..-XqXqX,X:X8XqX8X8X6XC.r Y M.N.G.G.G.G.G.G.G.k.k.k.k.",
"U.U.U.I.P.U.U.V.R C.&X2.q  .{.| # $ $ . 9 [.;X;X>X7X7X>X;X6X7X6XC.Y b.G.G.G.G.G.G.G.G.G.k.k.k.k.",
"U.U.U.U.U.P.P.L.J.z.G p.{.1.q b L 9.l # 3 <.|.~.|.<X=X~.|.3X+X] a.N.G.G.G.G.G.G.G.G.G.G.k.k.k.k.",
"U.U.U.U.U.P.P.U.U.F.R #. X| : Z t.w.k : 0 Q %.>.T.`.`.^.(.(.{ . R N.A.D.D.G.G.G.G.G.G.G.k.k.k.k.",
"U.U.U.U.U.U.U.U.U.P.J.l.y P w.e.9.b ; c a = t :.^.E.`.$X(.t = j D J j.D.G.G.G.G.G.G.G.G.k.k.k.k.",
"U.U.U.U.U.U.U.P.P.U.U.S.R T I L f # % x d % O _ *.} 1.].2.c h m c * a.G.G.G.G.G.G.G.G.G.k.k.k.k.",
"U.U.U.U.U.U.U.U.U.U.U.P.K.z.; ; ; h d M x = o : j v m N B 7.N 0 o o f.G.G.G.G.G.G.G.G.G.k.k.k.k.",
"U.U.U.U.U.U.U.U.U.P.P.U.U.v.- 3 Q ..y.B p = = i s M M s 5.8.N ; w C $.b.N.G.G.G.G.G.G.G.k.k.k.k.",
"U.U.U.U.U.U.U.U.U.P.I.U.U.c.7 Q E.#XOX` . # p a M 7.8.8.7.M p o ! <.} V j.G.G.G.G.G.G.G.k.k.k.k.",
"U.U.U.U.U.U.U.U.G.G.G.G.P.h.7 { `.1X'.~   + p a m M 6.6.M a @ o { (.-.7 a.G.G.G.G.G.G.G.k.k.k.k.",
"U.U.U.U.U.U.U.U.G.G.G.G.I.z.& { !._.<.t o $ i i p d x x m x p o / E.&.& f.G.G.G.G.G.G.G.k.k.k.k.",
"U.U.U.U.U.U.U.U.G.G.G.G.U.S.z.X.[ / _ b g l g g l K 0.K 0.q.N ; r [ X.g.n.G.G.G.G.G.G.G.k.k.k.k.",
"U.U.U.U.U.U.U.U.G.G.G.G.U.U.P.l.& O > Z 9.9.A A 9.r.r.r.i.Z.u.8 X O g.G.G.G.G.G.G.G.G.G.k.k.k.k.",
"U.U.U.U.U.U.U.U.U.U.U.P.U.U.U.F.x.S * H #.O.@.$.#.I A z u.*X].q F f.M.G.G.G.G.G.k.k.k.k.k.k.k.k.",
"U.U.U.U.U.U.U.U.U.U.U.U.U.P.U.U.P.h.8 / :.%.;.T.-.c @ @ | #X).9 a.G.G.G.G.G.G.G.k.k.k.k.k.k.k.k.",
"U.U.U.U.U.U.U.U.U.U.U.U.U.P.P.U.U.F.v.O.! _ ` ] n = . . H 2. .e f.G.G.G.D.G.G.G.k.k.k.k.k.k.k.k.",
"U.U.U.U.U.U.U.U.U.U.U.U.U.U.U.P.I.U.L.+.* $ f i $ e e O = x a & a.D.G.G.G.G.G.G.k.k.k.k.k.k.k.k.",
"U.U.U.U.U.U.U.U.U.U.U.U.U.U.U.P.P.U.P.R * i i $ S m.v.6 p s a & d.L.I.U.G.G.G.G.k.k.k.k.k.k.k.k.",
"U.U.U.U.U.U.U.U.U.U.U.U.U.U.U.P.U.P.K.g.V S S S g.I.K.R D K P S z.P.U.U.G.G.G.G.k.k.k.k.k.k.k.k.",
"U.U.U.U.U.U.U.U.U.U.U.U.U.U.U.I.U.I.P.F.b.b.b.b.F.U.U.F.V.V.V.B.H.P.U.U.G.G.G.G.k.k.k.k.k.k.k.k.",
"U.U.U.U.U.U.U.U.U.U.U.U.U.U.U.U.U.U.U.U.G.G.G.G.U.P.U.U.U.U.U.U.U.U.U.U.G.G.G.G.k.k.k.k.k.k.k.k.",
"U.U.U.U.U.U.U.U.U.U.U.U.U.U.U.U.U.U.U.U.U.U.U.U.U.U.U.U.U.U.U.U.U.U.U.U.G.G.G.G.G.G.G.G.k.k.k.k.",
"U.U.U.U.U.U.U.U.U.U.U.U.U.U.U.U.U.U.U.P.P.P.P.P.P.U.U.P.P.P.P.P.P.U.U.U.G.G.G.G.G.G.G.G.k.k.k.k.",
"U.U.U.U.U.U.U.U.U.U.U.U.U.U.U.U.U.U.U.U.I.U.U.I.I.U.U.I.U.U.U.I.U.U.U.U.G.G.G.G.G.G.G.G.k.k.k.k.",
"U.U.U.U.U.U.U.U.U.U.U.U.U.U.U.U.U.U.U.U.U.U.U.U.U.U.U.U.U.U.U.U.U.U.U.U.G.G.G.G.G.G.G.G.k.k.k.k."
};
