/* XPM */
static char *c376fb23cd534d76fa36a50c6b21b296HvqVPkas8YTJsVdF[] = {
/* columns rows colors chars-per-pixel */
"48 48 213 2 ",
"   c #070406",
".  c #180808",
"X  c #131013",
"o  c #1C1514",
"O  c #1B191A",
"+  c #2B0500",
"@  c #340705",
"#  c #291607",
"$  c #37190B",
"%  c #2C0913",
"&  c #231D1C",
"*  c #281918",
"=  c #351C19",
"-  c #1D211C",
";  c #31220E",
":  c #29241B",
">  c #362617",
",  c #2C331D",
"<  c #101A25",
"1  c #231F20",
"2  c #1B2229",
"3  c #1F343F",
"4  c #272221",
"5  c #232726",
"6  c #292424",
"7  c #2B2B24",
"8  c #2C2A29",
"9  c #322823",
"0  c #322D2C",
"q  c #2C3427",
"w  c #353724",
"e  c #2C2E33",
"r  c #27353B",
"t  c #373738",
"y  c #4D0F0B",
"u  c #461707",
"i  c #461915",
"p  c #591817",
"a  c #5A1D1A",
"s  c #6B1A15",
"d  c #681918",
"f  c #5A2C03",
"g  c #452314",
"h  c #4E2F12",
"j  c #63360B",
"k  c #6B2B15",
"l  c #681E22",
"z  c #4A2623",
"x  c #513325",
"c  c #443B3B",
"v  c #642526",
"b  c #762527",
"n  c #67352B",
"m  c #733333",
"M  c #3B4524",
"N  c #3D423F",
"B  c #64451A",
"V  c #754716",
"C  c #474928",
"Z  c #564728",
"A  c #4C582A",
"S  c #49453E",
"D  c #534E37",
"F  c #4B5A3B",
"G  c #774529",
"H  c #71512E",
"J  c #7D5D34",
"K  c #546A39",
"L  c #58713C",
"P  c #6D713B",
"I  c #68763C",
"U  c #66793C",
"Y  c #2A3943",
"T  c #333E45",
"R  c #39434A",
"E  c #38444A",
"W  c #2F4350",
"Q  c #364A56",
"!  c #3D4C54",
"~  c #3F5158",
"^  c #3B5767",
"/  c #464948",
"(  c #584E49",
")  c #475548",
"_  c #434C53",
"`  c #4B565A",
"'  c #565759",
"]  c #695B58",
"[  c #735857",
"{  c #5C634D",
"}  c #5A7841",
"|  c #666B4E",
" . c #6A7B45",
".. c #696358",
"X. c #776E57",
"o. c #455B67",
"O. c #535D64",
"+. c #585E64",
"@. c #4D606B",
"#. c #57636C",
"$. c #466373",
"%. c #4B6674",
"&. c #4B6A79",
"*. c #556B77",
"=. c #5C727D",
"-. c #6C6668",
";. c #776B6A",
":. c #6D6E74",
">. c #68757C",
",. c #852523",
"<. c #832F36",
"1. c #893232",
"2. c #943938",
"3. c #835319",
"4. c #864B2E",
"5. c #91542A",
"6. c #8A632C",
"7. c #96672B",
"8. c #926633",
"9. c #A37334",
"0. c #8D514E",
"q. c #946D56",
"w. c #98795E",
"e. c #6C803F",
"r. c #6D8241",
"t. c #648648",
"y. c #678A4B",
"u. c #758A45",
"i. c #788847",
"p. c #6C904E",
"a. c #7C934A",
"s. c #6D9250",
"d. c #769E56",
"f. c #769F58",
"g. c #77A057",
"h. c #78A057",
"j. c #77A058",
"k. c #78A158",
"l. c #828F4D",
"z. c #86944E",
"x. c #89974E",
"c. c #8B9952",
"v. c #909F54",
"b. c #8BA553",
"n. c #93A958",
"m. c #97B35B",
"M. c #9DBA5E",
"N. c #A3B25E",
"B. c #A8B15F",
"V. c #8E877C",
"C. c #BE8F60",
"Z. c #9EBB60",
"A. c #A5B660",
"S. c #A1BE61",
"D. c #AABC63",
"F. c #A4C263",
"G. c #AEC066",
"H. c #B5C769",
"J. c #BACE6D",
"K. c #BED26F",
"L. c #BFD370",
"P. c #C0D470",
"I. c #5C7584",
"U. c #5B7988",
"Y. c #677A85",
"T. c #647A86",
"R. c #737E86",
"E. c #907F81",
"W. c #5F818F",
"Q. c #6C838E",
"!. c #75828A",
"~. c #6D8491",
"^. c #688694",
"/. c #778A94",
"(. c #7C939E",
"). c #7B97A4",
"_. c #7FA0AD",
"`. c #928E8A",
"'. c #9B8A88",
"]. c #9A908A",
"[. c #85939C",
"{. c #A3918E",
"}. c #B39798",
"|. c #8699A3",
" X c #929CA4",
".X c #95A4AD",
"XX c #98AAB4",
"oX c #9BB1BC",
"OX c #A8A7A8",
"+X c #B5ADAB",
"@X c #BBB5AA",
"#X c #A7B4BB",
"$X c #C49F98",
"%X c #CABAB6",
"&X c #E1B7AE",
"*X c #AFDDBC",
"=X c #B0DFBD",
"-X c #B1E0BE",
";X c #CFC2BE",
":X c #EAC4BA",
">X c #B2BEC4",
",X c #9EC2CF",
"<X c #9BD4C3",
"1X c #B8C5CB",
"2X c #B4C9D1",
"3X c #C8D3D8",
"4X c #E5D4CD",
"5X c #EDE4DE",
"6X c #FFE6DB",
"7X c #D3DCE0",
"8X c #DDE8EB",
"9X c #FFF4EB",
"0X c #FEFDF9",
/* pixels */
"k.k.k.k.k.k.k.k.k.k.k.k.k.k.k.k.k.k.k.k.k.k.k.k.-X-X-X-X-X-X-X-X<X<X<X<X<X<X<X<X<X<X<X<X<X<X<X<X",
"k.k.k.k.k.k.k.k.k.k.k.k.k.k.k.k.k.k.k.k.k.k.k.k.=X=X=X=X-X-X-X-X<X<X<X<X<X<X<X<X<X<X<X<X<X<X<X<X",
"k.k.k.k.k.k.k.k.k.k.k.k.k.k.k.k.k.k.k.k.k.k.k.g.*X*X*X*X=X-X-X-X<X<X<X<X<X<X<X<X<X<X<X<X<X<X<X<X",
"k.k.k.k.k.k.k.k.k.k.k.k.k.k.k.k.k.k.k.k.k.k.k.k.-X-X-X-X-X-X=X-X<X<X<X<X<X<X<X<X<X<X<X<X<X<X<X<X",
"F.F.F.F.F.F.F.F.F.F.F.F.k.k.k.k.k.k.k.k.k.g.k.k.k.k.k.k.k.g.g.k.k.k.k.k.<X<X<X<X<X<X<X<X<X<X<X<X",
"F.F.F.F.F.F.F.F.F.F.F.F.k.k.k.k.k.k.k.f.k.k.k.y.t.t.t.t.s.k.k.k.g.k.k.k.<X<X<X<X<X<X<X<X<X<X<X<X",
"F.F.F.F.F.F.F.F.F.F.F.F.k.k.k.k.k.k.k.f.k.k.d.F q , q q K f.k.j.f.k.k.k.<X<X<X<X<X<X<X<X<X<X<X<X",
"F.F.F.F.F.F.F.F.F.F.F.F.k.k.k.k.k.f.k.k.k.y.L q R / t 8 w } p.k.k.j.f.k.<X<X<X<X<X<X<X<X<X<X<X<X",
"F.F.F.F.F.F.F.F.F.F.F.F.F.F.F.F.F.S.F.F.M.I q W *.T.O.0 o : K j.k.g.f.k.k.k.k.k.<X<X<X<X<X<X<X<X",
"F.F.F.F.F.F.F.F.F.F.F.F.F.F.F.F.F.F.F.n.u.{ >.*.I.W.` , O _ ) } p.k.k.k.k.k.k.k.<X<X<X<X<X<X<X<X",
"F.F.F.F.F.F.F.F.F.F.F.F.F.F.F.S.F.F.M.U t OX3X[.%.$.W o t =.#.7 K g.k.k.f.k.k.k.<X<X<X<X<X<X<X<X",
"F.F.F.F.F.F.F.F.F.F.F.F.F.F.F.F.F.n.u.) !.3X8X1X/.%.o.+.' ` _ _ ) } y.k.j.k.k.k.<X<X<X<X<X<X<X<X",
"F.F.F.F.F.F.F.F.F.F.F.F.F.F.F.F.M.U 8 R.1X3X3X7X#XT.~.oX!.6 t =.#.1 u.F.k.k.g.k.k.k.k.k.<X<X<X<X",
"F.F.F.F.F.F.F.F.F.F.F.F.F.S.S.b.r.F #..X2X3X3X8X1X/.|.2X XR ! Q.#.4 r.F.k.k.f.k.k.k.k.k.<X<X<X<X",
"F.F.F.F.F.F.F.F.F.F.F.F.F.F.F.r.4 +.(..XoX1X3X3X>X|.|.XX(.$.%.T.` 4 u.F.k.k.g.k.k.k.k.k.<X<X<X<X",
"F.F.F.F.F.F.F.F.F.F.F.F.F.F.F.r.6 #.|.|.[.#X1X1X#X X(.~.@.T ` T.O.7 u.S.g.k.g.k.k.k.k.k.<X<X<X<X",
"F.F.F.F.P.P.P.P.F.F.F.S.Z.Z.M.e.7 #./.~.Q.|.oXXX.X[.~.&.r X t >.O.& u.F.k.k.g.k.k.k.k.k.<X<X<X<X",
"F.F.F.F.P.P.P.K.S.F.F.n. .U U A 8 O.Q.Q.R./.(.^.^.T.I.$.Y o / T.O.O a.F.k.k.f.k.k.k.k.k.<X<X<X<X",
"F.F.F.F.P.P.P.L.F.F.M.r.o 0 0 * & _ T.~.Q.~.I.~ W Q o.$.T o t =.#.5 r.M.f.k.g.k.k.k.k.k.<X<X<X<X",
"F.F.F.F.P.K.K.P.F.m. .M   ;.OX] . r *.T.T.^.o.o . * T ^ 3   5 *.U.! F U t.k.k.k.h.k.k.k.<X<X<X<X",
"P.P.P.P.P.K.K.J.H.z.o o S {.@X-.2 Y &.I.=.^ E c i + = #.*.c 0 W $.&.! & L k.k.g.f.k.k.k.<X<X<X<X",
"P.P.P.L.K.P.L.D.i.A   ] +X`.c T o.o.%.U.^ < t OX}.p y {.3X%X] X r &.o.4 K k.k.g.f.k.k.k.<X<X<X<X",
"P.P.P.K.K.P.P.n.& 4 S `.+X;.4 r ^ ^ Q ^ T * ..0X0Xq.0.:X0X0X$X( t ~ ) K t.k.k.k.g.k.k.k.<X<X<X<X",
"P.P.P.K.K.P.P.b.o ;.@XV.t ] '.' < < 2 2 0 [ $X9X9X:X&X6X9X6X6X4XV.e L n.d.k.g.k.k.k.k.k.<X<X<X<X",
"P.P.P.L.K.P.P.N.I V.+X;.0 ] {.] * $ $ . 8 E.%X%X;X5X5X;X%X4X5X4XV.L b.F.F.F.F.F.k.k.k.k.k.k.k.k.",
"P.P.P.P.P.K.K.J.H.z.S w.].-.e x J 3.j # 2 =.[.!.[.>X#X!.[.1X.X' r.M.F.F.F.F.F.F.k.k.k.k.k.k.k.k.",
"P.P.P.P.P.K.K.P.P.D.I X.{.] ; B 9.6.j > 9 R o.&.U.).).^.^.~.` . U m.Z.S.S.F.F.F.k.k.k.k.k.k.k.k.",
"P.P.P.P.P.P.P.P.P.K.H.l.t D 6.7.3.x : z a = r %.T.U.).oX~.r = a Z A a.S.F.F.F.F.k.k.k.k.k.k.k.k.",
"P.P.P.P.P.P.P.K.K.P.P.A.U P J H h # % l d % O / +.' :.`.;.z g v z * r.F.F.F.F.F.k.k.k.k.k.k.k.k.",
"P.P.P.P.P.P.P.P.P.P.P.K.H.z.: : : g d b v = o ; a v v v m 1.n > o o u.F.F.F.F.F.k.k.k.k.k.k.k.k.",
"P.P.P.P.P.P.P.P.P.K.K.P.P.v.- 2 R [ 0.m i = = u p b b s ,.2.n : 5 N  .b.m.F.F.F.k.k.k.k.k.k.k.k.",
"P.P.P.P.P.P.P.P.P.K.L.P.P.c.6 R T.XX X/ . # i a b 1.2.2.1.b i o E =.' M a.F.F.F.g.k.k.k.k.k.k.k.",
"F.F.F.F.P.P.P.P.P.K.L.K.K.a.4 ` ).,X_.W   + i p v b <.<.b a @ o ` /.*.4 r.F.F.F.F.F.F.F.k.k.k.k.",
"F.F.F.F.P.P.P.P.P.K.L.P.L.z.& ` Q.(.=.r o $ u u i d l l v l i o ! T.O.& u.F.F.F.F.F.F.F.k.k.k.k.",
"F.F.F.F.P.P.P.P.P.L.P.L.P.A.z.{ _ ! / x f j f f j G 4.G 4.5.n : e _ { i.n.F.F.F.F.F.F.F.k.k.k.k.",
"F.F.F.F.P.P.P.P.P.P.P.K.P.P.K.l.& O , B 3.3.V V 3.8.8.8.9.C.q.9 X O i.F.F.F.F.F.F.F.F.F.k.k.k.k.",
"P.P.P.P.P.P.P.P.P.P.P.K.P.P.P.D.x.C * D X.| | X.X.J V k w.@X`.0 A u.n.F.F.F.F.F.F.F.F.F.k.k.k.k.",
"P.P.P.P.P.P.P.P.P.P.P.P.P.K.P.P.K.i.q ! $.o.$.U.#.z @ @ ] XX/.8 r.F.F.F.F.F.F.F.F.F.F.F.k.k.k.k.",
"P.P.P.P.P.P.P.P.P.P.P.P.P.K.K.P.P.D.c.| E R / ( c = . . D ;.] w u.F.F.F.S.F.F.F.F.F.F.F.k.k.k.k.",
"P.P.P.P.P.P.P.P.P.P.P.P.P.P.P.K.L.P.J. .* $ u u $ w q O = l a & r.S.F.F.F.F.F.F.F.F.F.F.k.k.k.k.",
"P.P.P.P.P.P.P.P.P.P.P.P.P.P.P.K.K.P.K.I * u u $ C n.c.5 i s p & i.J.L.P.F.F.F.F.k.k.k.k.k.k.k.k.",
"P.P.P.P.P.P.P.P.P.P.P.P.P.P.P.K.P.K.H.i.C Z Z C i.L.H.I Z H H C z.K.P.P.F.F.F.F.k.k.k.k.k.k.k.k.",
"P.P.P.P.P.P.P.P.P.P.P.P.P.P.P.L.P.L.K.D.N.N.N.N.D.P.P.D.B.B.B.N.G.K.P.P.F.F.F.F.k.k.k.k.k.k.k.k.",
"P.P.P.P.P.P.P.P.P.P.P.P.P.P.P.P.P.P.P.P.P.P.P.P.P.K.P.P.P.P.P.P.P.P.P.P.F.F.F.F.k.k.k.k.k.k.k.k.",
"P.P.P.P.P.P.P.P.P.P.P.P.P.P.P.P.P.P.P.P.P.P.P.P.P.P.P.P.P.P.P.P.F.F.F.F.F.F.F.F.k.k.k.k.k.k.k.k.",
"P.P.P.P.P.P.P.P.P.P.P.P.P.P.P.P.P.P.P.K.K.K.K.K.K.P.P.K.K.K.K.K.F.F.F.F.F.F.F.F.k.k.k.k.k.k.k.k.",
"P.P.P.P.P.P.P.P.P.P.P.P.P.P.P.P.P.P.P.P.L.P.P.L.L.P.P.L.P.P.P.L.F.F.F.F.F.F.F.F.k.k.k.k.k.k.k.k.",
"P.P.P.P.P.P.P.P.P.P.P.P.P.P.P.P.P.P.P.P.P.P.P.P.P.P.P.P.P.P.P.P.F.F.F.F.F.F.F.F.k.k.k.k.k.k.k.k."
};
