/* XPM */
static char *_5da15d610684f39c14660f34138bf675ymSLZDSi6K8Ce5P[] = {
/* columns rows colors chars-per-pixel */
"48 48 216 2 ",
"   c #080405",
".  c #160706",
"X  c #101412",
"o  c #171616",
"O  c #1B1414",
"+  c #1C1C1B",
"@  c #280F07",
"#  c #340200",
"$  c #3E0E0A",
"%  c #261506",
"&  c #38160C",
"*  c #2F0812",
"=  c #271816",
"-  c #231C1C",
";  c #321B16",
":  c #3A1919",
">  c #36220D",
",  c #23221B",
"<  c #2A251B",
"1  c #372117",
"2  c #30331C",
"3  c #171C24",
"4  c #1C242C",
"5  c #262222",
"6  c #2A2525",
"7  c #272925",
"8  c #2C2A29",
"9  c #332B28",
"0  c #2B362A",
"q  c #373923",
"w  c #363529",
"e  c #252F38",
"r  c #302F31",
"t  c #283539",
"y  c #373736",
"u  c #481802",
"i  c #56110D",
"p  c #451915",
"a  c #591714",
"s  c #5B1C1A",
"d  c #6B1818",
"f  c #771B1E",
"g  c #4A2609",
"h  c #4A2219",
"j  c #572417",
"k  c #533916",
"l  c #75330A",
"z  c #683B17",
"x  c #6F3318",
"c  c #4D1F22",
"v  c #671A21",
"b  c #492724",
"n  c #5F2C27",
"m  c #553D29",
"M  c #483B3B",
"N  c #632424",
"B  c #712326",
"V  c #703432",
"C  c #37421E",
"Z  c #3D4424",
"A  c #3E403D",
"S  c #784D18",
"D  c #484829",
"F  c #554824",
"G  c #4D4D30",
"H  c #67452C",
"J  c #775931",
"K  c #5A6B37",
"L  c #63733B",
"P  c #69763E",
"I  c #6C7D3F",
"U  c #273A46",
"Y  c #2E3A42",
"T  c #353C45",
"R  c #393E44",
"E  c #3A464B",
"W  c #3A4B55",
"Q  c #3A5363",
"!  c #3B5768",
"~  c #454849",
"^  c #544D4C",
"/  c #4D564A",
"(  c #54564A",
")  c #474D53",
"_  c #49555A",
"`  c #5A5A5B",
"'  c #74594C",
"]  c #695A57",
"[  c #586246",
"{  c #5C6756",
"}  c #677747",
"|  c #727E43",
" . c #6A6958",
".. c #706D57",
"X. c #445965",
"o. c #515D63",
"O. c #515F68",
"+. c #46616E",
"@. c #5A6164",
"#. c #55636C",
"$. c #5C656E",
"%. c #456172",
"&. c #4A6575",
"*. c #4B6978",
"=. c #586A75",
"-. c #546D7A",
";. c #5C737E",
":. c #6B6465",
">. c #786565",
",. c #7A716F",
"<. c #62767E",
"1. c #767070",
"2. c #882D31",
"3. c #8E3737",
"4. c #923739",
"5. c #825419",
"6. c #895D29",
"7. c #945137",
"8. c #A05A3E",
"9. c #89642C",
"0. c #97672B",
"q. c #926633",
"w. c #A27233",
"e. c #925955",
"r. c #A05F44",
"t. c #937856",
"y. c #A86F47",
"u. c #837A76",
"i. c #A56B65",
"p. c #6D8141",
"a. c #738444",
"s. c #758A46",
"d. c #7C8B4A",
"f. c #7D944B",
"g. c #798452",
"h. c #77A057",
"j. c #78A158",
"k. c #808D49",
"l. c #85934D",
"z. c #89974E",
"x. c #8C9B51",
"c. c #909F54",
"v. c #8CA454",
"b. c #8DA755",
"n. c #93A255",
"m. c #92AC58",
"M. c #9BAB5A",
"N. c #9AB65D",
"B. c #9DB95E",
"V. c #A3B35E",
"C. c #88867A",
"Z. c #99937D",
"A. c #BF9163",
"S. c #A6B760",
"D. c #A1BF61",
"F. c #ABBD63",
"G. c #A4C263",
"H. c #AEC165",
"J. c #B6C96B",
"K. c #BACD6C",
"L. c #BED26F",
"P. c #BFD370",
"I. c #C0D470",
"U. c #5A7786",
"Y. c #5F7F90",
"T. c #637681",
"R. c #637A87",
"E. c #6A7E89",
"W. c #727E85",
"Q. c #5F808C",
"!. c #6B828D",
"~. c #76838C",
"^. c #688694",
"/. c #778B96",
"(. c #7B909B",
"). c #7A98A5",
"_. c #988887",
"`. c #968E8A",
"'. c #818E97",
"]. c #83939D",
"[. c #A89490",
"{. c #8499A3",
"}. c #8899A3",
"|. c #929EA6",
" X c #8DA1AD",
".X c #96A3AC",
"XX c #98AAB4",
"oX c #9BB2BD",
"OX c #A9A8A9",
"+X c #B5A8A7",
"@X c #ADB4B2",
"#X c #B9B4B3",
"$X c #C9A39D",
"%X c #C8AEA5",
"&X c #C8B9B6",
"*X c #E5BEB4",
"=X c #CEC3BD",
"-X c #EEC9BE",
";X c #A9B8C1",
":X c #B1BDC4",
">X c #B6C3CA",
",X c #B8C4CB",
"<X c #A0C4D1",
"1X c #B5CAD2",
"2X c #D9CCC7",
"3X c #C5D1D7",
"4X c #CAD4DA",
"5X c #CBD6DB",
"6X c #E8D8D1",
"7X c #EBE3DE",
"8X c #FFE5DA",
"9X c #D5DEE2",
"0X c #DCE6EA",
"qX c #FFEDE5",
"wX c #FFF1E8",
"eX c #FFFEFA",
/* pixels */
"j.j.j.j.G.G.G.G.G.G.G.G.I.I.I.I.I.I.I.I.I.I.I.I.I.I.I.I.I.I.I.I.I.I.I.I.I.I.I.I.I.I.I.I.I.I.I.I.",
"j.j.j.j.G.G.G.G.G.G.G.G.I.I.I.I.I.I.I.I.I.I.I.I.I.I.I.I.I.I.I.I.I.I.I.I.I.I.I.I.I.I.I.I.I.I.I.I.",
"j.j.j.j.G.G.G.G.G.G.G.G.I.I.I.I.I.I.I.I.I.I.I.I.I.I.I.I.I.I.I.I.I.I.I.I.I.I.I.I.I.I.I.I.I.I.I.I.",
"j.j.j.j.G.G.G.G.G.G.G.G.I.I.I.I.I.I.I.I.I.I.I.P.L.L.L.L.P.I.I.I.I.I.I.I.I.I.I.I.I.I.I.I.I.I.I.I.",
"j.j.j.j.j.j.j.j.G.G.G.G.G.G.G.G.I.I.I.I.I.I.I.L.L.L.L.L.L.I.I.I.I.I.I.I.G.G.G.G.I.I.I.I.I.I.I.I.",
"j.j.j.j.j.j.j.j.G.G.G.G.G.G.G.G.I.I.I.I.I.L.I.I.I.I.I.I.I.I.P.I.I.I.I.I.G.G.G.G.I.I.I.I.I.I.I.I.",
"j.j.j.j.j.j.j.j.G.G.G.G.G.G.G.G.I.I.I.I.I.L.I.I.I.I.I.I.I.L.L.I.I.I.I.I.G.G.G.G.I.I.I.I.I.I.I.I.",
"j.j.j.j.j.j.j.j.G.G.G.G.G.G.G.G.I.I.I.L.I.I.I.S.M.M.M.M.F.I.I.L.L.I.I.I.G.G.G.G.I.I.I.I.I.I.I.I.",
"j.j.j.j.j.j.j.j.G.G.G.G.G.G.G.G.G.G.G.D.I.I.J.P q q q q d.K.P.P.L.I.I.I.I.I.I.I.I.I.I.I.I.I.I.I.",
"j.j.j.j.j.j.j.j.G.G.G.G.G.G.G.G.G.D.G.G.I.V.l.y E ) R 8 D x.F.I.I.L.L.I.I.I.I.I.I.I.I.I.I.I.I.I.",
"j.j.j.j.j.j.j.j.G.G.G.G.G.G.G.G.G.D.G.G.J.I 8 W U.R.o.w O < d.L.I.I.L.I.I.I.I.I.I.I.I.I.I.I.I.I.",
"j.j.j.j.j.j.j.j.G.G.G.G.G.G.G.D.G.G.G.v.l. .W.-.;.Q._ 2 + ) { x.F.I.I.I.L.I.I.I.I.I.I.I.I.I.I.I.",
"j.j.j.j.j.j.j.j.G.G.G.G.G.G.G.G.I.I.J.I y OX4X}.&.%.E + y <.#.6 k.L.I.I.L.I.I.I.I.I.I.I.I.I.I.I.",
"j.j.j.j.j.j.j.j.G.G.G.G.G.G.G.G.I.V.k./ ~.3X0X>X/.*.+.$.@./ ~ ) [ l.V.I.P.I.P.I.I.I.I.I.I.I.I.I.",
"j.j.j.j.j.j.j.j.G.G.G.G.G.G.G.G.J.a.r ~.1X3X4X9X;XE./.oX~.5 y T.#.5 l.P.I.P.L.I.I.I.I.I.I.I.I.I.",
"j.j.j.j.j.j.j.j.G.G.G.G.G.D.D.v.d./ $..X1X3X4X0X,X/.{.1X|.E _ !.#.5 k.P.I.P.L.I.I.I.I.I.I.I.I.I.",
"j.j.j.j.G.G.G.G.G.G.G.G.G.G.G.I 5 #.{. XXX,X4X4X:X}.{.XX(.%.&.T._ 7 z.P.I.P.L.I.I.I.I.I.I.I.I.I.",
"j.j.j.j.G.G.G.G.G.G.D.G.G.G.G.p.6 $.{.{.].oX>X,X@X|.(.!.X.Y _ T.o.8 z.L.L.P.L.I.I.I.I.I.I.I.I.I.",
"j.j.j.j.G.G.G.G.G.G.G.D.B.B.N.I 9 @./.!.!.}.XXXX X].!.&.t O A <.O.- z.I.I.P.L.I.I.I.I.I.I.I.I.I.",
"j.j.j.j.G.G.G.G.D.G.G.m.L L L D 8 o.!.!.E./.(.^.Y.U.U.&.Y O ~ T.o.+ x.I.I.P.L.I.I.I.I.I.I.I.I.I.",
"j.j.j.j.G.G.G.G.G.D.N.p.O r M - + W T.!.!.!.;.W U E X.%.Y o y ;.#.8 k.J.K.P.L.I.I.I.I.I.I.I.I.I.",
"j.j.j.j.G.G.G.G.G.m.L C   1.+X] . e -.T.E.^.X.O . = T Q U   7 *.U.W [ | V.I.I.P.L.I.I.I.I.I.I.I.",
"j.j.j.j.G.G.G.D.N.a.O - ^ [.+X:.7 U *.U.-.Q E M h # : $.=.~ r U +.*.W - l.I.I.L.L.I.I.I.I.I.I.I.",
"j.j.j.j.G.G.G.v.L Z   :.#XC.y Y X.+.&.U.Q X y @X+Xa i [.9X=X>.X t -.X.5 l.I.I.L.L.I.I.I.I.I.I.I.",
"j.j.j.h.G.G.G.f.- 8 ^ `.OX>.8 t Q Q W Q T = >.eXeXi.e.-XeXeX%X] R W / P M.I.P.P.L.I.I.I.I.I.I.I.",
"j.j.j.h.G.G.G.f.O ,.#Xu.r ] _.` 3 3 3 3 r ' $XqXwX-X*X8XqX8X8X6X_.r | H.K.P.L.I.I.I.I.I.I.I.I.I.",
"j.j.j.j.G.G.G.v.L C.+X,.w ] _.] > > > . 6 _.&X&X&X7X6X&X&X2X7X2XZ.a.V.I.I.P.L.I.I.I.I.I.I.I.I.I.",
"j.j.j.j.G.G.G.D.N.s.y u.[.:.8 m 6.6.z % 4 =.'.W.'.;XXXW.].>X.X~ d.J.L.I.I.I.I.I.I.I.I.I.I.I.I.I.",
"j.j.j.j.G.G.G.G.G.m.L .._.] > S w.9.k 1 9 T X.*.Y.).).^.^.!.) @ a.F.J.L.L.I.I.I.I.I.I.I.I.I.I.I.",
"j.j.j.j.G.G.G.G.G.G.B.a.r H 9.0.5.k , c s ; e &.R.U.).oX/.t ; j m G c.L.L.P.L.I.I.I.I.I.I.I.I.I.",
"j.j.j.j.G.G.G.G.G.G.G.m.P K J S g % * v d * + ~ ` ^ :._.>.b h n b = l.I.I.P.L.I.I.I.I.I.I.I.I.I.",
"j.j.j.j.G.G.G.G.G.G.G.G.B.s.< , < h d f N ; o ; j N N N V 3.V 9 O O x.I.I.P.L.I.I.I.I.I.I.I.I.I.",
"j.j.j.j.j.j.j.j.G.D.D.G.G.f.+ 4 E >.e.V : = = $ i f f d f 2.n , 0 ~ g.M.H.I.P.I.P.I.I.I.I.I.I.I.",
"j.j.j.j.j.j.j.j.G.G.G.G.G.s., E E.oX|.) . @ p s B 2.4.3.2.B p O W <.` q n.I.I.L.L.I.I.I.I.I.I.I.",
"j.j.j.j.j.j.j.j.G.G.G.G.D.I 5 _ ).<X).E . u l l x 7.r.r.8.7.j = _ /.$.5 k.I.I.L.L.I.I.I.I.I.I.I.",
"j.j.j.j.j.j.j.j.G.G.G.G.G.s.- ) !./.=.e = z 5.S S q.q.q.y.A.' - E T.o.- x.I.I.L.L.I.I.I.I.I.I.I.",
"j.j.j.j.j.j.j.j.G.G.G.G.G.v.d.( ~ ~ T T E (  .....J S z t.#XC.8 3 E } n.F.I.P.I.P.I.I.I.I.I.I.I.",
"j.j.j.j.j.j.j.j.G.G.G.G.G.G.G.a.< < w W %.! %.U.$.b # # ] .X/.9 O < x.I.I.L.L.I.I.I.I.I.I.I.I.I.",
"j.j.j.j.j.j.j.j.G.G.G.G.G.G.G.m.n.n.n.} E ~ ^ ^ M 1 . . G >.] w L n.H.I.I.I.P.I.I.I.I.I.I.I.I.I.",
"j.j.j.j.j.j.j.j.G.G.G.G.G.G.G.G.I.I.K.| = & g u & q 0 + : v s - l.P.I.L.L.I.I.I.I.I.I.I.I.I.I.I.",
"j.j.j.j.G.G.G.G.G.G.G.G.G.G.G.G.G.G.G.K = u u & D n.x.7 p d s - d.I.I.L.L.I.I.I.I.I.I.I.I.I.I.I.",
"j.j.j.j.G.G.G.G.G.G.G.G.G.G.G.D.G.G.B.} D F F D d.P.J.P D H H Z l.K.L.I.L.I.I.I.I.I.I.I.I.I.I.I.",
"j.j.j.j.G.G.G.G.G.G.G.G.G.G.G.G.G.G.D.m.V.V.V.V.F.I.I.F.v.n.n.v.H.L.P.I.P.I.I.I.I.I.I.I.I.I.I.I.",
"j.j.j.j.G.G.G.G.G.G.G.G.G.G.G.G.G.G.G.G.I.I.I.I.I.L.I.I.G.G.G.G.I.I.I.I.I.I.I.I.I.I.I.I.I.I.I.I.",
"j.j.j.j.G.G.G.G.G.G.G.G.G.G.G.G.I.I.I.I.I.I.I.I.I.I.I.I.I.I.I.I.I.I.I.I.I.I.I.I.I.I.I.I.I.I.I.I.",
"j.j.j.j.G.G.G.G.G.G.G.G.G.G.G.G.I.I.I.L.L.L.L.L.L.I.I.L.L.L.L.L.L.I.I.I.I.I.I.I.I.I.I.I.I.I.I.I.",
"j.j.j.j.G.G.G.G.G.G.G.G.G.G.G.G.I.I.I.I.P.I.I.P.P.I.I.P.I.I.I.P.I.I.I.I.I.I.I.I.I.I.I.I.I.I.I.I.",
"j.j.j.j.G.G.G.G.G.G.G.G.G.G.G.G.I.I.I.I.I.I.I.I.I.I.I.I.I.I.I.I.I.I.I.I.I.I.I.I.I.I.I.I.I.I.I.I."
};
