/* XPM */
static char *c2dc6d1764b64743bfa4be3713e691a5bcn4HRd1zcxJFrVw[] = {
/* columns rows colors chars-per-pixel */
"48 48 211 2 ",
"   c #070406",
".  c #180808",
"X  c #131013",
"o  c #1C1514",
"O  c #1B191A",
"+  c #2B0500",
"@  c #340705",
"#  c #291607",
"$  c #37190B",
"%  c #2C0913",
"&  c #231D1C",
"*  c #281918",
"=  c #351C19",
"-  c #30220D",
";  c #26251A",
":  c #2A231C",
">  c #362617",
",  c #2C371E",
"<  c #101A25",
"1  c #231F20",
"2  c #1B2229",
"3  c #1F343F",
"4  c #272221",
"5  c #292424",
"6  c #282A25",
"7  c #2C2A29",
"8  c #322823",
"9  c #322D2C",
"0  c #2C3427",
"q  c #353724",
"w  c #2C2E33",
"e  c #27353B",
"r  c #373738",
"t  c #4D0F0B",
"y  c #461707",
"u  c #461915",
"i  c #591817",
"p  c #5A1D1A",
"a  c #6B1A15",
"s  c #681918",
"d  c #5A2C03",
"f  c #452314",
"g  c #4F2F13",
"h  c #63360B",
"j  c #6B2B15",
"k  c #681E22",
"l  c #4A2623",
"z  c #513325",
"x  c #443B3A",
"c  c #642526",
"v  c #762527",
"b  c #67352B",
"n  c #733333",
"m  c #3C4425",
"M  c #3D423F",
"N  c #64441A",
"B  c #754716",
"V  c #484625",
"C  c #485A2C",
"Z  c #46423D",
"A  c #554A32",
"S  c #495A39",
"D  c #774529",
"F  c #7C5728",
"G  c #645233",
"H  c #7D5C34",
"J  c #4D643A",
"K  c #546A39",
"L  c #58713B",
"P  c #66753B",
"I  c #66793C",
"U  c #2A3943",
"Y  c #333E45",
"T  c #39424A",
"R  c #38454B",
"E  c #2F4350",
"W  c #364A56",
"Q  c #3D4C54",
"!  c #3F5158",
"~  c #3B5767",
"^  c #464947",
"/  c #5A4B46",
"(  c #475548",
")  c #545748",
"_  c #434C53",
"`  c #4B565A",
"'  c #565759",
"]  c #695B58",
"[  c #735857",
"{  c #576A46",
"}  c #5A7842",
"|  c #5F6055",
" . c #666B4E",
".. c #6A7B45",
"X. c #696358",
"o. c #766C51",
"O. c #455B67",
"+. c #535D64",
"@. c #585E64",
"#. c #4D606B",
"$. c #57636C",
"%. c #456373",
"&. c #4B6674",
"*. c #4B6A79",
"=. c #556B77",
"-. c #57707D",
";. c #5E737D",
":. c #6C6568",
">. c #776B6A",
",. c #68757C",
"<. c #737373",
"1. c #852523",
"2. c #832F36",
"3. c #893232",
"4. c #943938",
"5. c #835319",
"6. c #864B2E",
"7. c #885C26",
"8. c #964F34",
"9. c #93662B",
"0. c #926633",
"q. c #A37334",
"w. c #8D514E",
"e. c #946D56",
"r. c #AB7B48",
"t. c #847B77",
"y. c #6C803F",
"u. c #6E8242",
"i. c #648648",
"p. c #698D4D",
"a. c #728544",
"s. c #758A46",
"d. c #7A8A49",
"f. c #6C904E",
"g. c #7C934A",
"h. c #6E9451",
"j. c #739B55",
"k. c #769E56",
"l. c #77A057",
"z. c #78A057",
"x. c #77A058",
"c. c #78A158",
"v. c #89974E",
"b. c #8C9B53",
"n. c #8AA353",
"m. c #8EA955",
"M. c #92A956",
"N. c #93AD59",
"B. c #97B35B",
"V. c #9DB95E",
"C. c #A5B15E",
"Z. c #94897F",
"A. c #BE8F60",
"S. c #9EBB60",
"D. c #A1BF61",
"F. c #AABD64",
"G. c #A4C263",
"H. c #AEC066",
"J. c #B9CC6C",
"K. c #BED26F",
"L. c #BFD370",
"P. c #C0D470",
"I. c #5C7584",
"U. c #5B7988",
"Y. c #677A85",
"T. c #647A86",
"R. c #737E86",
"E. c #907F81",
"W. c #5F818F",
"Q. c #6C838E",
"!. c #75828A",
"~. c #6D8491",
"^. c #688694",
"/. c #778A94",
"(. c #7C939E",
"). c #7B97A4",
"_. c #7FA0AD",
"`. c #928E8A",
"'. c #998C89",
"]. c #85939C",
"[. c #A3918E",
"{. c #B39798",
"}. c #8699A3",
"|. c #929CA4",
" X c #95A4AD",
".X c #98AAB4",
"XX c #9BB1BC",
"oX c #A8A7A8",
"OX c #B5ADAB",
"+X c #BAB4AA",
"@X c #A7B4BB",
"#X c #C49F98",
"$X c #CABAB6",
"%X c #E1B7AE",
"&X c #B0DFBD",
"*X c #B1E0BE",
"=X c #CFC2BE",
"-X c #EAC4BA",
";X c #B2BEC4",
":X c #9EC2CF",
">X c #9BD4C3",
",X c #B8C5CB",
"<X c #B4C9D1",
"1X c #C8D3D8",
"2X c #E5D4CD",
"3X c #EDE4DE",
"4X c #FFE6DB",
"5X c #D3DCE0",
"6X c #DDE8EB",
"7X c #FFF4EB",
"8X c #FEFDF9",
/* pixels */
">X>X>X>X>X>X>X>X>X>X>X>X>X>X>X>Xc.c.c.c.c.c.c.c.c.c.c.c.*X*X*X*X>X>X>X>X>X>X>X>X>X>X>X>X>X>X>X>X",
">X>X>X>X>X>X>X>X>X>X>X>X>X>X>X>Xc.c.c.c.c.c.c.c.c.c.c.c.*X*X*X*X>X>X>X>X>X>X>X>X>X>X>X>X>X>X>X>X",
">X>X>X>X>X>X>X>X>X>X>X>X>X>X>X>Xc.c.c.c.c.c.c.l.k.k.k.k.&X*X*X*X>X>X>X>X>X>X>X>X>X>X>X>X>X>X>X>X",
">X>X>X>X>X>X>X>X>X>X>X>X>X>X>X>Xc.c.c.c.c.c.c.c.c.c.c.c.*X*X&X*X>X>X>X>X>X>X>X>X>X>X>X>X>X>X>X>X",
">X>X>X>X>X>X>X>X>X>X>X>Xc.c.c.c.c.c.c.c.c.l.c.c.c.c.c.c.c.l.l.c.c.c.c.c.>X>X>X>X>X>X>X>X>X>X>X>X",
">X>X>X>X>X>X>X>X>X>X>X>Xc.c.c.c.c.c.c.k.c.c.c.p.i.i.i.i.h.c.c.c.l.c.c.c.>X>X>X>X>X>X>X>X>X>X>X>X",
">X>X>X>X>X>X>X>X>X>X>X>Xc.c.c.c.c.c.c.k.c.c.j.S 0 , 0 0 K k.c.x.k.c.c.c.>X>X>X>X>X>X>X>X>X>X>X>X",
">X>X>X>X>X>X>X>X>X>X>X>Xc.c.c.c.c.k.c.c.c.p.L 0 T ^ r 7 q } f.c.c.x.k.c.>X>X>X>X>X>X>X>X>X>X>X>X",
">X>X>X>X>X>X>X>Xc.c.c.c.c.c.c.c.G.D.G.G.V.P 0 E -.T.+.9 o ; K x.c.l.k.c.c.c.c.c.>X>X>X>X>X>X>X>X",
">X>X>X>X>X>X>X>Xc.c.c.c.c.c.c.k.G.G.G.m.s.| ,.=.I.W.` , O _ ( } f.c.c.c.c.c.c.c.>X>X>X>X>X>X>X>X",
">X>X>X>X>X>X>X>Xc.c.c.c.c.c.c.k.G.G.V.P r oX1X].&.%.E o r ;.$.6 K l.c.c.k.c.c.c.>X>X>X>X>X>X>X>X",
">X>X>X>X>X>X>X>Xc.c.c.c.c.x.c.c.G.m.a.( !.1X6X,X/.&.O.@.' ` _ _ ( } p.c.x.c.c.c.>X>X>X>X>X>X>X>X",
"*X*X*X*Xc.c.c.c.c.c.c.c.G.G.G.G.V.I 7 R.,X1X1X5X@XT.~.XX!.5 r ;.$.1 a.G.c.c.l.c.c.c.c.c.>X>X>X>X",
"*X*X*X*Xc.c.c.c.c.c.c.k.G.D.D.n.a.S $. X<X1X1X6X,X/.}.<X|.T Q Q.$.4 u.G.c.c.k.c.c.c.c.c.>X>X>X>X",
"*X*X*X*Xc.c.c.c.c.c.c.l.G.G.G.u.4 @.(. XXX,X1X1X;X}.}..X(.%.&.T.` 4 s.G.c.c.l.c.c.c.c.c.>X>X>X>X",
"*X*X*X*Xc.c.c.c.c.l.k.c.G.G.G.u.5 $.}.}.].@X,X,X@X|.(.~.#.Y ` T.+.6 s.D.l.c.l.c.c.c.c.c.>X>X>X>X",
">X>X>X>Xc.c.c.c.G.G.G.D.S.S.V.y.7 $./.~.Q.}.XX.X X].~.*.e X r ,.+.& s.G.c.c.l.c.c.c.c.c.>X>X>X>X",
">X>X>X>Xc.c.c.k.D.G.G.N...I I C 7 +.Q.Q.R./.(.^.^.T.I.%.U o ^ T.+.o g.G.c.c.k.c.c.c.c.c.>X>X>X>X",
">X>X>X>Xc.c.c.c.G.G.V.a.o 9 9 * & _ T.~.Q.~.I.! E W O.%.Y o r ;.$.5 u.V.k.c.l.c.c.c.c.c.>X>X>X>X",
">X>X>X>Xc.l.l.c.G.N...m   >.oX] . e =.T.T.^.O.o . * Y ~ 3   6 =.I.Q S I i.x.c.c.z.c.c.c.>X>X>X>X",
">X>X>X>Xc.l.l.k.j.L o o Z [.+X:.2 U *.I.-.~ R x u + = $.=.x 9 E %.*.Q & L c.c.l.k.c.c.c.>X>X>X>X",
">X>X>X>Xx.c.c.p.J ,   ] OX`.x Y O.O.&.U.~ < r oX{.i t [.1X$X] X e *.O.4 K c.c.l.k.c.c.c.>X>X>X>X",
">X>X>X>Xk.c.x.} & 5 Z `.OX>.4 e ~ ~ W ~ Y * X.8X8Xe.w.-X8X8X#X/ r ! ( J i.c.c.c.l.c.c.c.>X>X>X>X",
">X>X>X>Xk.c.x.} o >.+Xt.r ] '.' < < 2 2 9 [ #X7X7X-X%X4X7X4X4X2XZ.w L N.j.c.l.c.c.c.c.c.>X>X>X>X",
"c.c.c.c.x.c.c.i.C <.OX>.9 ] '.] * $ $ . 7 E.$X$X=X3X3X=X$X2X3X2XZ.L n.G.G.G.G.G.c.c.c.c.c.c.c.c.",
"c.c.c.c.c.l.l.k.h.} Z t.'.:.9 z F 7.h # 2 ;.].!.].;X@X!.].,X X' u.V.G.G.G.G.G.G.c.c.c.c.c.c.c.c.",
"c.c.c.c.c.l.l.c.c.p.C X.[.] - N q.9.h > 8 T O.*.U.).).^.^.~.` . I B.S.D.D.G.G.G.c.c.c.c.c.c.c.c.",
"c.c.c.c.c.c.c.c.c.k.h.{ r G 7.9.5.z : l p = e &.T.U.).XX~.e = p A S g.D.D.G.G.G.c.c.c.c.c.c.c.c.",
"c.c.c.c.c.c.c.k.D.G.G.m.L G H F g # % k s % O ^ @.' :.`.>.l f c l * u.G.G.G.G.G.c.c.c.c.c.c.c.c.",
"c.c.c.c.c.c.c.c.G.G.G.D.V.a.: ; : f s v c = o - p c c c n 3.b > o o s.G.G.G.G.G.c.c.c.c.c.c.c.c.",
"c.c.c.c.c.c.c.c.G.G.G.G.G.g.O 2 T [ w.n u = = y i v v a 1.4.b ; 6 M ..n.B.G.G.G.c.c.c.c.c.c.c.c.",
"c.c.c.c.c.c.c.c.G.G.G.G.G.s.; T T..X|.^ . # u p v 3.4.4.3.v u o R ;.' m g.G.G.G.l.c.c.c.c.c.c.c.",
"c.c.c.c.c.c.c.c.G.G.G.G.D.y.5 ` ).:X_.E   + u i c v 2.2.v p @ o ` /.$.5 u.G.G.G.G.G.G.G.c.c.c.c.",
"c.c.c.c.c.c.c.c.G.G.G.G.G.a.& ` Q.(.;.e o $ y y u s k k c k u o Q T.+.& s.G.G.G.G.G.G.G.c.c.c.c.",
"c.c.c.c.c.c.c.c.G.G.G.G.G.m.s.) _ Q ^ z d h d d h D 6.D 6.8.b : w _ { d.M.G.G.G.G.G.G.G.c.c.c.c.",
"c.c.c.c.c.c.c.c.G.G.G.G.G.G.D.u.& O , N 5.5.B B 5.0.0.0.r.A.e.8 X O s.G.G.G.G.G.G.G.G.G.c.c.c.c.",
"c.c.c.c.G.G.G.G.G.G.G.G.G.G.G.N.v.V * A o. . .>.o.H B j e.+X`.9 C s.N.G.G.G.G.G.G.G.G.G.c.c.c.c.",
"c.c.c.c.G.G.G.G.G.G.G.G.G.D.G.G.K.d.0 Q &.O.%.U.$.l @ @ ] .X/.7 u.G.G.G.G.G.G.G.G.G.G.G.c.c.c.c.",
"c.c.c.c.G.G.G.G.G.G.G.G.G.G.G.G.P.F.b. .R ^ / ) x = . . A >.] q s.G.G.G.D.G.G.G.G.G.G.G.c.c.c.c.",
"c.c.c.c.G.G.G.G.G.G.G.G.G.G.G.D.L.P.J...* $ y y $ q 0 O = k p & u.D.G.G.G.G.G.G.G.G.G.G.c.c.c.c.",
"c.c.c.c.G.G.G.G.G.G.G.G.G.G.G.D.K.P.K.P * y y $ V M.b.6 u a i & a.J.L.P.G.G.G.G.c.c.c.c.c.c.c.c.",
"c.c.c.c.G.G.G.G.G.G.G.G.G.G.G.G.P.K.J.d.m V V V d.L.J.P A D G V v.K.P.P.G.G.G.G.c.c.c.c.c.c.c.c.",
"c.c.c.c.G.G.G.G.G.G.G.G.G.G.G.G.P.L.K.F.n.n.n.n.F.P.P.F.C.C.C.C.H.K.P.P.G.G.G.G.c.c.c.c.c.c.c.c.",
"c.c.c.c.G.G.G.G.G.G.G.G.G.G.G.G.P.P.P.P.G.G.G.G.P.K.P.P.P.P.P.P.P.P.P.P.G.G.G.G.c.c.c.c.c.c.c.c.",
"c.c.c.c.G.G.G.G.G.G.G.G.G.G.G.G.P.P.P.P.P.P.P.P.P.P.P.P.P.P.P.P.P.P.P.P.G.G.G.G.c.c.c.c.c.c.c.c.",
"c.c.c.c.G.G.G.G.G.G.G.G.G.G.G.G.P.P.P.K.K.K.K.K.K.P.P.K.K.K.K.K.K.P.P.P.G.G.G.G.c.c.c.c.c.c.c.c.",
"c.c.c.c.G.G.G.G.G.G.G.G.G.G.G.G.P.P.P.P.L.P.P.L.L.P.P.L.P.P.P.L.P.P.P.P.G.G.G.G.c.c.c.c.c.c.c.c.",
"c.c.c.c.G.G.G.G.G.G.G.G.G.G.G.G.P.P.P.P.P.P.P.P.P.P.P.P.P.P.P.P.P.P.P.P.G.G.G.G.c.c.c.c.c.c.c.c."
};
