/* XPM */
static char *_a76038911754696d358e9423dee9638lyg1zBmzksIfG69R[] = {
/* columns rows colors chars-per-pixel */
"48 48 214 2 ",
"   c #070406",
".  c #180808",
"X  c #131013",
"o  c #1C1514",
"O  c #1B191A",
"+  c #2B0500",
"@  c #340705",
"#  c #291607",
"$  c #37190B",
"%  c #2C0913",
"&  c #231D1C",
"*  c #281918",
"=  c #351C1A",
"-  c #1E241E",
";  c #31220E",
":  c #29231B",
">  c #362617",
",  c #33351E",
"<  c #091720",
"1  c #131C28",
"2  c #231F20",
"3  c #1D2124",
"4  c #1B222A",
"5  c #1F343F",
"6  c #272121",
"7  c #292423",
"8  c #2D2C24",
"9  c #252729",
"0  c #2D2B29",
"q  c #342524",
"w  c #332D2D",
"e  c #253127",
"r  c #323227",
"t  c #2C2E33",
"y  c #28353B",
"u  c #383837",
"i  c #4D0F0B",
"p  c #461707",
"a  c #461915",
"s  c #591A19",
"d  c #6B1A15",
"f  c #681918",
"g  c #4B2609",
"h  c #5A2C03",
"j  c #452314",
"k  c #552318",
"l  c #523D1A",
"z  c #63360B",
"x  c #6A2B15",
"c  c #681E22",
"v  c #4A2623",
"b  c #5E2522",
"n  c #4B3A26",
"m  c #443B3B",
"M  c #642526",
"N  c #762527",
"B  c #67352B",
"V  c #733333",
"C  c #3D4324",
"Z  c #3F4228",
"A  c #3E423F",
"S  c #64451A",
"D  c #754716",
"F  c #474727",
"G  c #4E5A2B",
"H  c #4B443C",
"J  c #575535",
"K  c #64452C",
"L  c #72462C",
"P  c #7D5728",
"I  c #7D5C33",
"U  c #4F6B3C",
"Y  c #5B6837",
"T  c #696E3A",
"R  c #6A793E",
"E  c #2A3943",
"W  c #333E45",
"Q  c #39434A",
"!  c #38444A",
"~  c #2F4350",
"^  c #394A55",
"/  c #3F5157",
"(  c #3B5767",
")  c #464948",
"_  c #525745",
"`  c #53514A",
"'  c #434C53",
"]  c #4C575B",
"[  c #565858",
"{  c #695B58",
"}  c #735857",
"|  c #596648",
" . c #5E6852",
".. c #6C7B42",
"X. c #6C7C4D",
"o. c #727D41",
"O. c #676357",
"+. c #706C54",
"@. c #766E57",
"#. c #445B68",
"$. c #525D64",
"%. c #585E64",
"&. c #4D606B",
"*. c #57636C",
"=. c #466373",
"-. c #4B6674",
";. c #4B6978",
":. c #556B77",
">. c #56707C",
",. c #6C6668",
"<. c #766A6A",
"1. c #6D6E74",
"2. c #61747E",
"3. c #6D7479",
"4. c #852523",
"5. c #832F36",
"6. c #893232",
"7. c #943938",
"8. c #835319",
"9. c #864B2E",
"0. c #91542A",
"q. c #8A632C",
"w. c #96672B",
"e. c #926633",
"r. c #A37334",
"t. c #8D514E",
"y. c #946D56",
"u. c #AB7B48",
"i. c #857773",
"p. c #6C803F",
"a. c #6E8242",
"s. c #758746",
"d. c #788445",
"f. c #768B46",
"g. c #7F8C4A",
"h. c #7B924C",
"j. c #6C9250",
"k. c #779F57",
"l. c #789F57",
"z. c #77A057",
"x. c #78A158",
"c. c #818E4B",
"v. c #85934D",
"b. c #89974E",
"n. c #8A984F",
"m. c #8C9A52",
"M. c #909F54",
"N. c #8BA353",
"B. c #92A255",
"V. c #91AB57",
"C. c #95AD59",
"Z. c #9DB95F",
"A. c #A1B25D",
"S. c #8A847A",
"D. c #BE8F60",
"F. c #9FBC60",
"G. c #A2BD61",
"H. c #AABC63",
"J. c #A4C263",
"K. c #AEC066",
"L. c #B2C468",
"P. c #B7CA6B",
"I. c #BACD6C",
"U. c #BED26F",
"Y. c #BFD370",
"T. c #C0D470",
"R. c #5C7584",
"E. c #5B7988",
"W. c #677A85",
"Q. c #647A86",
"!. c #737E86",
"~. c #6A838E",
"^. c #75828A",
"/. c #6D8491",
"(. c #698794",
"). c #778A94",
"_. c #7B929E",
"`. c #7B97A4",
"'. c #7FA0AD",
"]. c #928E8A",
"[. c #9B8A88",
"{. c #9B9186",
"}. c #83949E",
"|. c #88929A",
" X c #A3918E",
".X c #B39798",
"XX c #869AA3",
"oX c #929CA4",
"OX c #95A4AD",
"+X c #96AAB4",
"@X c #99ABB4",
"#X c #9BB1BC",
"$X c #A8A7A8",
"%X c #B5ADAB",
"&X c #BBB5AA",
"*X c #A7B4BB",
"=X c #C49F98",
"-X c #CABAB6",
";X c #E1B7AE",
":X c #CFC2BE",
">X c #EAC4BA",
",X c #B2BEC4",
"<X c #9EC2CF",
"1X c #B5C3CA",
"2X c #B9C5CC",
"3X c #B4C9D1",
"4X c #C8D3D8",
"5X c #E5D4CD",
"6X c #EDE4DE",
"7X c #FFE6DB",
"8X c #D3DCE0",
"9X c #DDE8EB",
"0X c #FFF4EB",
"qX c #FEFDF9",
/* pixels */
"T.T.T.T.T.T.T.T.T.T.T.T.T.T.T.T.T.T.T.T.T.T.T.T.T.T.T.T.T.T.T.T.T.T.T.T.T.T.T.T.T.T.T.T.T.T.T.T.",
"T.T.T.T.T.T.T.T.T.T.T.T.T.T.T.T.T.T.T.T.T.T.T.Y.Y.Y.Y.Y.T.T.T.T.T.T.T.T.T.T.T.T.T.T.T.T.T.T.T.T.",
"T.T.T.T.T.T.T.T.T.T.T.T.T.T.T.T.T.T.T.T.T.T.T.U.U.U.U.U.U.T.T.T.T.T.T.T.T.T.T.T.T.T.T.T.T.T.T.T.",
"T.T.T.T.T.T.T.T.T.T.T.T.T.T.T.T.T.T.T.T.T.Y.T.T.T.T.T.T.T.T.Y.T.T.T.T.T.T.T.T.T.T.T.T.T.T.T.T.T.",
"T.T.T.T.T.T.T.T.T.T.T.T.T.T.T.T.T.T.T.T.T.U.T.T.T.T.T.T.T.U.U.T.T.T.T.T.T.T.T.T.T.T.T.T.T.T.T.T.",
"T.T.T.T.T.T.T.T.T.T.T.T.T.T.T.T.T.T.T.U.T.T.T.H.A.A.A.A.K.T.T.Y.U.T.T.T.T.T.T.T.T.T.T.T.T.T.T.T.",
"T.T.T.T.T.T.T.T.T.T.T.T.T.T.T.T.T.T.T.U.T.T.P.o.F F F F g.U.T.U.U.T.T.T.T.T.T.T.T.T.T.T.T.T.T.T.",
"T.T.T.T.T.T.T.T.T.T.T.T.T.T.T.T.T.U.T.T.T.H.n.u Q ) u 0 F B.H.T.T.U.U.T.T.T.T.T.T.T.T.T.T.T.T.T.",
"T.T.T.T.T.T.T.T.T.T.T.T.T.T.T.T.T.U.T.T.P.o.r ~ >.Q.$.w o , c.U.T.U.U.T.T.T.T.T.T.T.T.T.T.T.T.T.",
"T.T.T.T.T.T.T.T.T.T.T.T.T.T.T.U.Y.T.T.H.b.O.3.:.R.~.] , O '  .M.H.T.T.T.Y.T.T.T.T.T.T.T.T.T.T.T.",
"T.T.T.T.T.T.T.T.T.T.T.T.T.T.T.U.T.Y.I.d.u $X4X}.-.=.~ o u 2.*.8 v.U.T.T.U.T.T.T.T.T.T.T.T.T.T.T.",
"T.T.T.T.T.T.T.T.T.T.T.T.T.U.T.T.T.H.v._ ^.4X9X1X).-.#.%.[ [ ' ' | m.H.T.U.T.Y.T.T.T.T.T.T.T.T.T.",
"T.T.T.T.T.T.T.T.T.T.T.T.T.U.T.T.I.d.0 !.1X4X4X8X*XQ./.#X^.7 u 2.*.2 v.Y.T.Y.U.T.T.T.T.T.T.T.T.T.",
"T.T.T.T.T.T.T.T.T.T.T.U.U.U.U.A.v._ *.OX3X4X4X9X2X).XX3XoXQ / ~.*.6 c.Y.T.Y.U.T.T.T.T.T.T.T.T.T.",
"T.T.T.T.T.T.T.T.T.T.T.U.T.T.U.g.6 %.}.OX#X2X4X4X,XXXXX+X_.=.-.Q.] 7 b.Y.T.Y.U.T.T.T.T.T.T.T.T.T.",
"T.T.T.T.T.T.T.T.T.U.U.T.T.T.T.g.7 *.XXXX}.*X2X2X*XoX_./.&.W ] Q.$.8 b.U.U.Y.U.T.T.T.T.T.T.T.T.T.",
"J.J.J.J.T.T.T.T.T.T.T.U.I.I.P.g.8 *.)././.XX#X@XOX}./.-.y X A 2.$.& b.T.T.Y.U.T.J.J.J.J.T.T.T.T.",
"J.J.J.J.T.T.T.U.U.T.T.H.g.d.d.G 0 $././.!.)._.(.(.Q.R.=.E o ) Q.$.o M.T.T.Y.U.T.J.J.J.J.T.T.T.T.",
"J.J.J.J.T.T.T.Y.T.U.I.v.o w w * & ' Q./././.R./ ~ ^ #.=.W o u 2.*.9 c.P.U.Y.U.T.J.J.J.J.T.T.T.T.",
"J.J.J.J.T.U.U.T.T.H.d.F   <.$X{ . y >.Q.Q.(.#.o . * W ( 5   9 :.E.^ | d.A.T.Y.Y.J.J.J.J.T.T.T.T.",
"T.T.T.T.T.U.U.I.P.v.o o H  X&X,.3 E ;.R.>.( ! m a + = *.*.m w ~ =.;.^ & v.T.T.U.U.T.T.T.T.T.T.T.",
"T.T.T.Y.U.T.Y.H.d.G   { %X].m W #.#.-.E.( < u $X.Xi i  X4X-X{ X y >.#.6 v.T.T.U.U.T.T.T.T.T.T.T.",
"T.T.T.U.Y.T.T.B.& 7 H ].%X<.6 y ( ( ^ ( W * O.qXqXy.t.>XqXqX=X` u / ` Y C.T.T.Y.U.T.T.T.T.T.T.T.",
"T.T.T.U.Y.T.T.B.o <.&XS.u { [.[ 1 1 4 4 w } =X0X0X>X;X7X0X7X7X5XS.t ..H.P.Y.U.T.T.T.T.T.T.T.T.T.",
"T.T.T.Y.U.T.T.A.R S.%X<.w { {.{ * $ $ . 0 [.-X-X:X6X6X:X-X5X6X5X{...A.T.T.Y.U.T.T.T.T.T.T.T.T.T.",
"T.T.T.T.T.U.U.I.L.b.H i.{.,.w n P 8.z # 4 2.|.^.|.,X*X^.|.2XOX[ g.P.U.T.T.T.T.T.T.T.T.T.T.T.T.T.",
"T.T.T.T.T.U.U.T.T.H.R @. X{ ; S r.q.l > q Q #.;.Q.`.`.(.(./.] . d.L.P.U.U.T.T.T.T.T.T.T.T.T.T.T.",
"T.T.T.T.T.T.T.T.T.U.L.c.u K q.w.8.n : v s = y -.(.Q.`.#X/.y = k K Y B.U.U.Y.U.T.T.T.T.T.T.T.T.T.",
"T.T.T.T.J.J.J.J.U.T.T.H.R T I P g # % c f % O ) %.[ 1.].<.v j M v * a.J.T.Y.U.T.T.T.T.T.J.J.J.J.",
"T.T.T.T.J.J.J.J.T.T.T.U.P.v.: : : j f N c = o ; k b M B V 6.B > o o f.J.T.Y.U.T.T.T.T.T.J.J.J.J.",
"T.T.T.T.J.J.J.J.T.U.U.T.T.M.- 4 Q } t.V a = = p d N N d 4.7.B : e A X.N.L.T.Y.T.Y.T.T.T.J.J.J.J.",
"T.T.T.T.J.J.J.J.T.U.Y.T.T.n.7 Q Q.@XoX` . # a s N 6.7.7.6.N a o ! >.[ Z B.T.T.U.U.T.T.T.J.J.J.J.",
"J.J.J.J.J.J.J.J.J.J.J.J.G.p.7 ] `.<X'.~   + a s M N 5.5.N s @ o ] ).*.7 a.J.J.J.J.J.J.J.J.J.J.J.",
"J.J.J.J.J.J.J.J.J.J.J.J.J.s.& ] ~._.>.y o $ p p a f M c M c a o / Q.$.& f.J.J.J.J.J.J.J.J.J.J.J.",
"J.J.J.J.J.J.J.J.J.J.J.J.J.N.s._ ' / ) n h h h h z L 9.L 9.0.B : t ' | f.V.J.J.J.J.J.J.J.J.J.J.J.",
"J.J.J.J.J.J.J.J.J.J.J.J.J.J.G.a.& O , S 8.8.D D 8.e.e.e.u.D.y.8 X O f.J.J.J.J.J.J.J.J.J.J.J.J.J.",
"J.J.J.J.J.J.J.J.J.J.J.J.J.J.J.V.s.C * J +.+.O.@.@.I D x y.&X].w G f.C.J.J.J.J.J.J.J.J.J.J.J.J.J.",
"J.J.J.J.J.J.J.J.J.J.J.J.J.G.J.J.G.R 8 ^ =.#.=.E.*.v @ @ { @X).0 a.J.J.J.J.J.J.J.J.J.J.J.J.J.J.J.",
"J.J.J.J.J.J.J.J.J.J.J.J.J.J.J.J.J.V.h.| Q Q ) ` m = . . H <.{ r s.J.J.J.G.J.J.J.J.J.J.J.J.J.J.J.",
"J.J.J.J.J.J.J.J.J.J.J.J.J.J.J.G.J.J.F.T * $ g p $ , e O = f s & a.G.J.J.J.J.J.J.J.J.J.J.J.J.J.J.",
"x.x.x.x.x.x.x.x.x.x.x.x.J.J.J.G.J.J.J.Y * p p $ C h.h.- a d s & U k.x.x.k.x.x.x.x.x.x.x.J.J.J.J.",
"x.x.x.x.x.x.x.x.x.x.x.x.J.J.J.J.J.J.Z...Z F F F ..J.Z.Y F L K Z U k.x.x.k.x.x.x.x.x.x.x.J.J.J.J.",
"x.x.x.x.x.x.x.x.x.x.x.x.J.J.J.J.J.J.G.C.N.N.N.N.C.J.J.V.N.B.B.N.j.z.x.x.x.x.x.x.x.x.x.x.J.J.J.J.",
"x.x.x.x.x.x.x.x.x.x.x.x.J.J.J.J.J.J.J.J.J.J.J.J.J.J.J.J.J.J.J.J.x.x.x.x.x.x.x.x.x.x.x.x.J.J.J.J.",
"x.x.x.x.x.x.x.x.x.x.x.x.x.x.x.x.x.x.x.x.x.x.x.x.x.x.x.x.x.x.x.x.x.x.x.x.x.x.x.x.x.x.x.x.x.x.x.x.",
"x.x.x.x.x.x.x.x.x.x.x.x.x.x.x.x.x.x.x.z.k.k.k.k.z.x.x.z.k.l.k.k.z.x.x.x.x.x.x.x.x.x.x.x.x.x.x.x.",
"x.x.x.x.x.x.x.x.x.x.x.x.x.x.x.x.x.x.x.x.x.x.x.x.x.x.x.x.x.x.x.x.x.x.x.x.x.x.x.x.x.x.x.x.x.x.x.x.",
"x.x.x.x.x.x.x.x.x.x.x.x.x.x.x.x.x.x.x.x.x.x.x.x.x.x.x.x.x.x.x.x.x.x.x.x.x.x.x.x.x.x.x.x.x.x.x.x."
};
