/* XPM */
static char *e9147205c5b34f42c8d7f7ddb4d89386dmxJuRuKSDFt8jDM[] = {
/* columns rows colors chars-per-pixel */
"48 48 217 2 ",
"   c #080405",
".  c #160706",
"X  c #0F1312",
"o  c #171616",
"O  c #1B1414",
"+  c #1C1C1B",
"@  c #280F07",
"#  c #340200",
"$  c #3E0E0A",
"%  c #261506",
"&  c #38160B",
"*  c #2F0812",
"=  c #271816",
"-  c #231C1C",
";  c #351A17",
":  c #1E271F",
">  c #36220D",
",  c #24231B",
"<  c #29251A",
"1  c #372117",
"2  c #30351F",
"3  c #171C24",
"4  c #1C242C",
"5  c #262222",
"6  c #2A2525",
"7  c #2B2B25",
"8  c #22262A",
"9  c #2C2A2A",
"0  c #332B28",
"q  c #283429",
"w  c #323423",
"e  c #36352A",
"r  c #252F38",
"t  c #302F31",
"y  c #293537",
"u  c #383737",
"i  c #481802",
"p  c #56110D",
"a  c #451915",
"s  c #591714",
"d  c #5B1C1A",
"f  c #6B1818",
"g  c #771B1E",
"h  c #492509",
"j  c #4A2219",
"k  c #572417",
"l  c #533916",
"z  c #75330A",
"x  c #673A16",
"c  c #6F3318",
"v  c #4D1F22",
"b  c #671A21",
"n  c #492724",
"m  c #5F2C27",
"M  c #553D29",
"N  c #493C3A",
"B  c #632424",
"V  c #712326",
"C  c #703432",
"Z  c #3E4325",
"A  c #784D18",
"S  c #494625",
"D  c #4C5830",
"F  c #67452C",
"G  c #745428",
"H  c #6E5334",
"J  c #5B6B36",
"K  c #566D39",
"L  c #646234",
"P  c #67773D",
"I  c #273A46",
"U  c #2E3A42",
"Y  c #353C45",
"T  c #393E44",
"R  c #3A454B",
"E  c #3A4B55",
"W  c #3A5363",
"Q  c #3B5768",
"!  c #454849",
"~  c #544D4C",
"^  c #4B5449",
"/  c #55564A",
"(  c #474D53",
")  c #48555A",
"_  c #5A5A5B",
"`  c #74594C",
"'  c #685A56",
"]  c #596648",
"[  c #556254",
"{  c #6B7E42",
"}  c #727D42",
"|  c #676757",
" . c #736757",
".. c #72735C",
"X. c #445965",
"o. c #515D63",
"O. c #515F68",
"+. c #46616E",
"@. c #5A6164",
"#. c #55636C",
"$. c #5C656E",
"%. c #456172",
"&. c #4A6575",
"*. c #4B6978",
"=. c #586A75",
"-. c #546D7A",
";. c #59727E",
":. c #6B6465",
">. c #776565",
",. c #7A716F",
"<. c #62767E",
"1. c #767070",
"2. c #882D31",
"3. c #8E3737",
"4. c #923739",
"5. c #825419",
"6. c #895D29",
"7. c #945137",
"8. c #A05A3E",
"9. c #89642C",
"0. c #97672B",
"q. c #926633",
"w. c #A27233",
"e. c #925955",
"r. c #A05F44",
"t. c #937856",
"y. c #A86F47",
"u. c #847672",
"i. c #A56B65",
"p. c #6D813F",
"a. c #6B8647",
"s. c #748344",
"d. c #758A45",
"f. c #7B8D49",
"g. c #7C934B",
"h. c #798452",
"j. c #769E57",
"k. c #789F57",
"l. c #77A057",
"z. c #77A058",
"x. c #78A158",
"c. c #808D49",
"v. c #85934D",
"b. c #869A4E",
"n. c #899B51",
"m. c #909F55",
"M. c #8BA353",
"N. c #8BA554",
"B. c #93A756",
"V. c #93AE59",
"C. c #98B45C",
"Z. c #9DBA5F",
"A. c #A3B45E",
"S. c #88857A",
"D. c #99937D",
"F. c #BF9163",
"G. c #9FBC60",
"H. c #A6B761",
"J. c #A2BE61",
"K. c #ABBC64",
"L. c #A4C263",
"P. c #B0C267",
"I. c #B4C669",
"U. c #B6C96B",
"Y. c #BBCE6D",
"T. c #BED26F",
"R. c #BFD370",
"E. c #C0D470",
"W. c #5B7888",
"Q. c #5F7F90",
"!. c #637681",
"~. c #667C88",
"^. c #727E85",
"/. c #6B828D",
"(. c #76838C",
"). c #688694",
"_. c #778B96",
"`. c #7B909B",
"'. c #7A98A5",
"]. c #988887",
"[. c #978E8A",
"{. c #818E97",
"}. c #83939D",
"|. c #A89490",
" X c #8699A3",
".X c #929EA6",
"XX c #96A3AC",
"oX c #93AAB6",
"OX c #98ABB5",
"+X c #A9A8A9",
"@X c #B5A8A7",
"#X c #ADB4B2",
"$X c #B7B3B3",
"%X c #C9A39D",
"&X c #C8AEA5",
"*X c #C7B9B6",
"=X c #E5BEB4",
"-X c #CEC3BD",
";X c #EEC9BE",
":X c #A9B8C1",
">X c #B1BDC4",
",X c #9EC3D1",
"<X c #B6C3CA",
"1X c #B6C5CC",
"2X c #B6CBD4",
"3X c #D9CCC7",
"4X c #C5D1D7",
"5X c #CAD4DA",
"6X c #CBD6DB",
"7X c #E8D8D1",
"8X c #EBE3DE",
"9X c #FFE5DA",
"0X c #D5DEE2",
"qX c #DBE6EA",
"wX c #FFEDE5",
"eX c #FFF1E8",
"rX c #FFFEFA",
/* pixels */
"x.x.x.x.x.x.x.x.x.x.x.x.x.x.x.x.x.x.x.x.x.x.x.x.x.x.x.x.x.x.x.x.x.x.x.x.x.x.x.x.x.x.x.x.x.x.x.x.",
"x.x.x.x.x.x.x.x.x.x.x.x.x.x.x.x.x.x.x.x.x.x.x.x.x.x.x.x.x.x.x.x.x.x.x.x.x.x.x.x.x.x.x.x.x.x.x.x.",
"x.x.x.x.x.x.x.x.x.x.x.x.x.x.x.x.x.x.x.x.x.x.x.x.x.x.x.x.x.x.x.x.x.x.x.x.x.x.x.x.x.x.x.x.x.x.x.x.",
"x.x.x.x.x.x.x.x.x.x.x.x.x.x.x.x.x.x.x.x.x.x.x.x.l.l.l.l.x.x.x.x.x.x.x.x.x.x.x.x.x.x.x.x.x.x.x.x.",
"L.L.L.L.L.L.L.L.L.L.L.L.x.x.x.x.x.x.x.x.x.x.x.l.L.L.L.L.L.L.L.L.L.L.L.L.L.L.L.L.L.L.L.L.x.x.x.x.",
"L.L.L.L.L.L.L.L.L.L.L.L.x.x.x.x.x.x.x.x.x.l.x.x.L.L.L.L.L.L.L.L.L.L.L.L.L.L.L.L.L.L.L.L.x.x.x.x.",
"L.L.L.L.L.L.L.L.L.L.L.L.x.x.x.x.x.x.x.x.x.l.x.x.L.L.L.L.L.L.L.L.L.L.L.L.L.L.L.L.L.L.L.L.x.x.x.x.",
"L.L.L.L.L.L.L.L.L.L.L.L.x.x.x.x.x.x.x.j.x.x.x.a.b.b.b.b.V.L.L.L.L.L.L.L.L.L.L.L.L.L.L.L.x.x.x.x.",
"L.L.L.L.L.L.L.L.L.L.L.L.L.L.L.L.L.L.L.J.L.L.Z.J w 2 w w { J.L.L.J.L.L.L.L.L.L.L.L.L.L.L.L.L.L.L.",
"L.L.L.L.L.L.L.L.L.L.L.L.L.L.L.L.L.J.L.L.L.N.s.t R ( T 9 Z d.V.L.L.L.L.L.L.L.L.L.L.L.L.L.L.L.L.L.",
"L.L.L.L.L.L.L.L.L.L.L.L.L.L.L.L.L.J.L.L.Z.J 7 E -.~.o.t O , a.J.L.L.J.L.L.L.L.L.L.L.L.L.L.L.L.L.",
"L.L.L.L.L.L.L.L.L.L.L.L.L.L.L.J.L.L.L.N.s.| ^.-.-.Q.) < + ( [ d.V.L.L.L.L.L.L.L.L.L.L.L.L.L.L.L.",
"E.E.E.E.L.L.L.L.L.L.L.L.L.L.L.L.L.L.Z.J u +X5X X&.%.R + u <.#.6 c.T.E.E.L.L.L.L.E.E.E.E.E.E.E.E.",
"E.E.E.E.L.L.L.L.L.L.L.L.L.L.L.L.L.N.a.^ (.4XqX<X_.*.+.$.@.^ ! ( ] v.A.E.L.L.L.L.E.E.E.E.E.E.E.E.",
"E.E.E.E.L.L.L.L.L.L.L.L.L.L.L.L.Z.P t (.1X4X5X0X:X~._.:X(.5 u !.#.5 v.R.L.L.L.L.E.E.E.E.E.E.E.E.",
"E.E.E.E.L.L.L.L.L.L.L.L.L.J.J.M.{ ^ $.XX2X4X5XqX<X_. X2X.XE ) /.#.5 c.R.L.L.L.L.E.E.E.E.E.E.E.E.",
"E.E.E.E.E.E.E.E.E.E.E.T.E.E.T.f.5 #. XoXOX<X5X5X>X X XOX`.%.&.!.) 7 b.R.E.R.T.E.E.E.E.E.E.E.E.E.",
"E.E.E.E.E.E.E.E.E.T.T.E.E.E.E.c.6 $. X X}.OX1X1X#X.X`./.X.U ) !.o.7 b.T.T.R.T.E.E.E.E.E.E.E.E.E.",
"E.E.E.E.E.E.E.E.E.E.E.Y.U.U.I.f.0 @._././. XOXoXXX}./.&.r O u <.O.- n.E.E.R.T.E.E.E.E.E.E.E.E.E.",
"E.E.E.E.E.E.E.T.T.E.E.H.s.} } D 9 o././.^._.`.).Q.W.W.&.U O ! !.o.+ m.E.E.R.T.E.E.E.E.E.E.E.E.E.",
"E.E.E.E.E.E.E.E.E.T.I.c.O t N - + E !./././.;.E I E X.%.U o u ;.#.9 c.I.Y.R.T.E.E.E.E.E.E.E.E.E.",
"E.E.E.E.E.T.T.E.E.K.} S   1.@X' . r -.!.~.).X.O . = Y W I   8 *.W.E ] } A.E.E.R.T.E.E.E.E.E.E.E.",
"E.E.E.E.R.T.T.Y.P.v.O - ~ |.@X:.4 I *.W.-.W R N a # ; $.;.! t I +.*.E - v.E.E.T.T.E.E.E.E.E.E.E.",
"E.E.E.R.T.E.R.H.} S   :.$XS.u U X.+.&.W.W X u $X@Xs p |.0X-X>.X y -.X.5 v.E.E.T.T.E.E.E.E.E.E.E.",
"E.E.E.T.T.E.E.B.- 9 / [.+X>.6 r W W E W Y = >.rXrXi.e.;XrXrX&X' T E ^ P b.L.L.L.T.E.E.E.E.E.E.E.",
"E.E.E.T.T.E.E.B.O ,.*XS.t ' ]._ 3 3 3 3 t ` %XwXeX;X=X9XwX9X9X7X].t } P.Z.L.L.L.E.E.E.E.E.E.E.E.",
"E.E.E.R.T.E.E.H.s.S.@X,.e ' ].' > > > . 6 ].*X*X*X8X7X*X*X3X8X3XD.s.A.E.L.L.L.L.E.E.E.E.E.E.E.E.",
"E.E.E.E.E.T.T.Y.U.n.u u.|.:.9 M 6.6.x % 4 =.`.(.{.:XOX^.}.<XXX! f.U.T.E.L.L.L.L.E.E.E.E.E.E.E.E.",
"E.E.E.E.E.T.T.E.E.K.s...[.' > A w.9.l 1 0 Y X.*.Q.'.'.).)./.( @ s.K.U.T.T.E.E.E.E.E.E.E.E.E.E.E.",
"E.E.E.E.E.E.E.E.E.T.U.v.t F 9.0.5.l , v d ; r &.~.W.'.OX_.y ; k M D m.T.T.R.T.E.E.E.E.E.E.E.E.E.",
"E.E.E.E.E.E.E.T.T.E.E.K.P L H G h % * b f * + ! _ ~ :.].>.n j m n = v.E.E.R.T.E.E.E.E.E.E.E.E.E.",
"E.E.E.E.E.E.E.E.R.E.E.T.Z.d.< , < j f g B ; o ; k B B B C 3.C 0 O O n.E.E.R.T.E.E.E.E.E.E.E.E.E.",
"E.E.E.E.E.E.E.E.L.J.J.L.L.g.+ 4 R >.e.C ; = = $ p g g f g 2.m , q ! h.V.C.L.L.L.L.L.L.L.L.L.L.L.",
"E.E.E.E.E.E.E.E.L.L.L.L.L.d., R ~.OX.X( . @ a d V 2.4.3.2.V a O E <._ w g.L.L.L.L.L.L.L.L.L.L.L.",
"E.E.E.E.E.E.E.E.L.L.L.L.J.P 5 ) '.,X'.R . i z z c 7.r.r.8.7.k = ) _.$.5 p.L.L.L.L.L.L.L.L.L.L.L.",
"E.E.E.E.E.E.E.E.L.L.L.L.L.d.- ( /._.=.r = x 5.A A q.q.q.y.F.` - R !.o.- f.L.L.L.L.L.L.L.L.L.L.L.",
"L.L.L.L.L.L.L.L.L.L.L.L.L.B.f./ ! ! T Y R / | .. .G x x t.$XS.7 3 R ] g.V.L.L.L.L.L.L.L.L.L.L.L.",
"L.L.L.L.L.L.L.L.L.L.L.L.L.L.L.s.< < w E %.Q %.W.$.n # # ' XX_.9 . < f.L.L.L.L.L.L.L.L.L.L.L.L.L.",
"L.L.L.L.L.L.L.L.L.L.L.L.L.L.L.V.g.g.g.] R R ! ~ N 1 . . N >.' e J g.C.L.L.L.L.L.L.L.L.L.L.L.L.L.",
"L.L.L.L.L.L.L.L.L.L.L.L.L.L.L.L.L.L.G.P = & h i & w q + ; b d - s.L.L.L.J.L.L.L.L.L.L.L.L.L.L.L.",
"L.L.L.L.L.L.L.L.x.x.x.x.x.x.l.x.x.x.j.D = i i & Z g.g.: a f d - a.L.L.L.J.L.L.L.x.x.x.x.x.x.x.x.",
"L.L.L.L.L.L.L.L.x.x.x.x.x.x.x.j.l.l.j.K Z S S S { L.Z.J S F F Z d.J.L.L.L.L.L.L.x.x.x.x.x.x.x.x.",
"L.L.L.L.L.L.L.L.x.x.x.x.x.x.x.z.l.l.j.a.M.M.M.M.V.L.L.B.M.B.B.M.V.L.L.L.L.L.L.L.x.x.x.x.x.x.x.x.",
"L.L.L.L.L.L.L.L.x.x.x.x.x.x.x.x.x.x.x.x.L.L.L.L.L.L.L.L.L.L.L.L.L.L.L.L.L.L.L.L.x.x.x.x.x.x.x.x.",
"x.x.x.x.x.x.x.x.x.x.x.x.x.x.x.x.x.x.x.x.x.x.x.x.x.x.x.x.x.x.x.x.x.x.x.x.x.x.x.x.x.x.x.x.x.x.x.x.",
"x.x.x.x.x.x.x.x.x.x.x.x.x.x.x.x.x.x.x.l.j.j.j.j.l.x.x.l.j.k.j.j.l.x.x.x.x.x.x.x.x.x.x.x.x.x.x.x.",
"x.x.x.x.x.x.x.x.x.x.x.x.x.x.x.x.x.x.x.x.x.x.x.x.x.x.x.x.x.x.x.x.x.x.x.x.x.x.x.x.x.x.x.x.x.x.x.x.",
"x.x.x.x.x.x.x.x.x.x.x.x.x.x.x.x.x.x.x.x.x.x.x.x.x.x.x.x.x.x.x.x.x.x.x.x.x.x.x.x.x.x.x.x.x.x.x.x."
};
