/* XPM */
static char *ae0d3be501534ba880f52b0e087c776fjtEpMXhw6zlXZy8d[] = {
/* columns rows colors chars-per-pixel */
"48 48 215 2 ",
"   c #050406",
".  c #17090A",
"X  c #0A1218",
"o  c #141012",
"O  c #151214",
"+  c #1C1314",
"@  c #1F1A1B",
"#  c #18181C",
"$  c #2A0C08",
"%  c #330501",
"&  c #28140A",
"*  c #3B190A",
"=  c #3C0F12",
"-  c #281916",
";  c #231C1C",
":  c #2A1D1B",
">  c #381617",
",  c #1E271F",
"<  c #2C2C1B",
"1  c #352517",
"2  c #161B23",
"3  c #1D2023",
"4  c #262222",
"5  c #272627",
"6  c #2D2B24",
"7  c #2C2A29",
"8  c #352D29",
"9  c #283223",
"0  c #373923",
"q  c #353328",
"w  c #262F36",
"e  c #302F31",
"r  c #29353B",
"t  c #373736",
"y  c #491809",
"u  c #53110E",
"i  c #441615",
"p  c #581A1A",
"a  c #5B1C1B",
"s  c #691415",
"d  c #731B1E",
"f  c #46200B",
"g  c #5A2F06",
"h  c #4C251C",
"j  c #5F251B",
"k  c #59371B",
"l  c #683011",
"z  c #7E1B21",
"x  c #5E2621",
"c  c #4C3C25",
"v  c #50312A",
"b  c #483B3B",
"n  c #642525",
"m  c #712326",
"M  c #7A3635",
"N  c #3D4324",
"B  c #3F4228",
"V  c #3E403D",
"C  c #704715",
"Z  c #484725",
"A  c #51522E",
"S  c #534639",
"D  c #65452B",
"F  c #74532D",
"G  c #755936",
"H  c #546B3A",
"J  c #69773D",
"K  c #72743B",
"L  c #2A3A45",
"P  c #383D43",
"I  c #38444A",
"U  c #2E4550",
"Y  c #3A4953",
"T  c #3C4D58",
"R  c #3E5655",
"E  c #3B5463",
"W  c #395665",
"Q  c #474848",
"!  c #504D45",
"~  c #4D564A",
"^  c #535649",
"/  c #454D54",
"(  c #4C4C50",
")  c #5B4C54",
"_  c #48545A",
"`  c #57595B",
"'  c #6F5853",
"]  c #695B57",
"[  c #586648",
"{  c #5C6756",
"}  c #736B4F",
"|  c #697D42",
" . c #727D42",
".. c #656657",
"X. c #6E6D57",
"o. c #746259",
"O. c #475864",
"+. c #425C6B",
"@. c #515C63",
"#. c #515F68",
"$. c #47616E",
"%. c #55636C",
"&. c #5B646A",
"*. c #466373",
"=. c #4A6574",
"-. c #4B6978",
";. c #586A75",
":. c #546D7A",
">. c #5B727D",
",. c #6B6465",
"<. c #786766",
"1. c #7A716F",
"2. c #6D6F72",
"3. c #62767E",
"4. c #813B1E",
"5. c #882E32",
"6. c #8E3838",
"7. c #923739",
"8. c #825218",
"9. c #904E32",
"0. c #9B563B",
"q. c #84612F",
"w. c #936633",
"e. c #925652",
"r. c #A05F44",
"t. c #8C7151",
"y. c #A76F47",
"u. c #847672",
"i. c #A56B65",
"p. c #6E8242",
"a. c #758243",
"s. c #758B46",
"d. c #7B8A48",
"f. c #7C934C",
"g. c #6C9250",
"h. c #779F57",
"j. c #789F57",
"k. c #77A057",
"l. c #78A158",
"z. c #808D4A",
"x. c #85934D",
"c. c #89974E",
"v. c #8C9A51",
"b. c #8BA253",
"n. c #92A255",
"m. c #91AC57",
"M. c #93AE59",
"N. c #9CAC5A",
"B. c #9DBA5F",
"V. c #A3B45E",
"C. c #888479",
"Z. c #99947E",
"A. c #BE8F60",
"S. c #9FBC60",
"D. c #A6B761",
"F. c #A2BE61",
"G. c #AABC63",
"H. c #A4C263",
"J. c #B1C367",
"K. c #B4C669",
"L. c #B6C96A",
"P. c #BACE6D",
"I. c #BED26F",
"U. c #BFD370",
"Y. c #C0D470",
"T. c #5A7786",
"R. c #5F7F90",
"E. c #637985",
"W. c #667B87",
"Q. c #727D85",
"!. c #5F808C",
"~. c #6C838E",
"^. c #76838C",
"/. c #688694",
"(. c #788B95",
"). c #77929C",
"_. c #7894A2",
"`. c #7EA0AD",
"'. c #978786",
"]. c #91928E",
"[. c #83939D",
"{. c #A89490",
"}. c #8499A3",
"|. c #879AA4",
" X c #929CA4",
".X c #95A2AA",
"XX c #96A9B3",
"oX c #9AABB4",
"OX c #A9A8A9",
"+X c #B5A8A7",
"@X c #ADB4B1",
"#X c #B7B3B3",
"$X c #C9A49D",
"%X c #C8AEA5",
"&X c #C7B8B6",
"*X c #E5BEB4",
"=X c #CEC3BD",
"-X c #EEC9BE",
";X c #A9B8C1",
":X c #B1BDC4",
">X c #B6C3CA",
",X c #B8C4CB",
"<X c #A2C5D1",
"1X c #B5CAD2",
"2X c #C5D1D7",
"3X c #CBD6DB",
"4X c #D1D0D0",
"5X c #E8D8D1",
"6X c #EBE3DE",
"7X c #FFE5DA",
"8X c #D5DEE2",
"9X c #DCE6EA",
"0X c #FFEDE5",
"qX c #FFF1E8",
"wX c #FFFEFA",
/* pixels */
"Y.Y.Y.Y.Y.Y.Y.Y.Y.Y.Y.Y.Y.Y.Y.Y.Y.Y.Y.Y.Y.Y.Y.Y.Y.Y.Y.Y.Y.Y.Y.Y.Y.Y.Y.Y.Y.Y.Y.Y.Y.Y.Y.Y.Y.Y.Y.Y.",
"Y.Y.Y.Y.Y.Y.Y.Y.Y.Y.Y.Y.Y.Y.Y.Y.Y.Y.Y.Y.Y.Y.Y.Y.Y.Y.Y.Y.Y.Y.Y.Y.Y.Y.Y.Y.Y.Y.Y.Y.Y.Y.Y.Y.Y.Y.Y.Y.",
"Y.Y.Y.Y.Y.Y.Y.Y.Y.Y.Y.Y.Y.Y.Y.Y.Y.Y.Y.Y.Y.Y.Y.Y.Y.Y.Y.Y.Y.Y.Y.Y.Y.Y.Y.Y.Y.Y.Y.Y.Y.Y.Y.Y.Y.Y.Y.Y.",
"Y.Y.Y.Y.Y.Y.Y.Y.Y.Y.Y.Y.Y.Y.Y.Y.Y.Y.Y.Y.Y.Y.Y.U.I.I.I.I.U.Y.Y.Y.Y.Y.Y.Y.Y.Y.Y.Y.Y.Y.Y.Y.Y.Y.Y.Y.",
"Y.Y.Y.Y.Y.Y.Y.Y.Y.Y.Y.Y.Y.Y.Y.Y.Y.Y.Y.Y.Y.Y.Y.I.I.I.I.I.I.Y.Y.Y.Y.Y.Y.Y.Y.Y.Y.Y.Y.Y.Y.Y.Y.Y.Y.Y.",
"Y.Y.Y.Y.Y.Y.Y.Y.Y.Y.Y.Y.Y.Y.Y.Y.Y.Y.Y.Y.Y.I.Y.Y.Y.Y.Y.Y.Y.Y.U.Y.Y.Y.Y.Y.Y.Y.Y.Y.Y.Y.Y.Y.Y.Y.Y.Y.",
"Y.Y.Y.Y.Y.Y.Y.Y.Y.Y.Y.Y.Y.Y.Y.Y.Y.Y.Y.Y.Y.I.Y.Y.Y.Y.Y.Y.Y.I.I.Y.Y.Y.Y.Y.Y.Y.Y.Y.Y.Y.Y.Y.Y.Y.Y.Y.",
"Y.Y.Y.Y.Y.Y.Y.Y.Y.Y.Y.Y.Y.Y.Y.Y.Y.Y.Y.I.Y.Y.Y.D.N.N.N.N.G.Y.Y.I.I.Y.Y.Y.Y.Y.Y.Y.Y.Y.Y.Y.Y.Y.Y.Y.",
"Y.Y.Y.Y.Y.Y.Y.Y.Y.Y.Y.Y.Y.Y.Y.Y.Y.Y.Y.I.Y.Y.K.J 0 0 0 0 d.P.U.U.I.Y.Y.Y.Y.Y.Y.Y.Y.Y.Y.Y.Y.Y.Y.Y.",
"Y.Y.Y.Y.Y.Y.Y.Y.Y.Y.Y.Y.Y.Y.Y.Y.Y.I.U.Y.Y.V.x.t I / P 7 Z v.G.Y.Y.I.I.Y.Y.Y.Y.Y.Y.Y.Y.Y.Y.Y.Y.Y.",
"Y.Y.Y.Y.Y.Y.Y.Y.Y.Y.Y.Y.Y.Y.Y.Y.Y.I.Y.Y.L.J 7 Y T.W.@.q + < d.I.Y.Y.I.Y.Y.Y.Y.Y.Y.Y.Y.Y.Y.Y.Y.Y.",
"Y.Y.Y.Y.Y.Y.Y.Y.Y.Y.Y.Y.Y.Y.Y.I.I.Y.Y.V.x...Q.:.>.!._ < @ / { v.G.Y.Y.Y.I.Y.Y.Y.Y.Y.Y.Y.Y.Y.Y.Y.",
"Y.Y.Y.Y.Y.Y.Y.Y.Y.Y.Y.Y.Y.Y.Y.I.Y.Y.L.K t OX3X|.=.*.U @ t 3.%.5 z.I.Y.Y.I.Y.Y.Y.Y.Y.Y.Y.Y.Y.Y.Y.",
"Y.Y.Y.Y.Y.Y.Y.Y.Y.Y.Y.Y.Y.I.Y.Y.Y.V.z.~ ^.2X9X>X(.-.$.&.&.~ / / [ x.V.Y.U.Y.U.Y.Y.Y.Y.Y.Y.Y.Y.Y.",
"Y.Y.Y.Y.Y.Y.Y.Y.Y.Y.Y.Y.Y.I.Y.I.L.a.e ^.1X2X2X8X;XW.(.;X^.4 t E.%.4 x.U.Y.U.I.Y.Y.Y.Y.Y.Y.Y.Y.Y.",
"Y.Y.Y.Y.Y.Y.Y.Y.Y.Y.Y.I.I.I.I.N.d.~ ;..X1X2X3X9X>X(.}.1X XY _ ~.%.4 z.U.Y.U.I.Y.Y.Y.Y.Y.Y.Y.Y.Y.",
"H.H.H.H.Y.Y.Y.Y.Y.Y.Y.I.Y.Y.I.d.4 %.}.XXoX,X3X3X:X|.}.XX).*.=.E._ 6 c.U.Y.U.I.Y.H.H.H.H.Y.Y.Y.Y.",
"H.H.H.H.Y.Y.Y.Y.Y.I.I.Y.Y.Y.Y.z.5 &.}.}.[.oX>X,X@X X(.~.O.L _ E.@.6 c.I.I.U.I.Y.H.H.H.H.Y.Y.Y.Y.",
"H.H.H.H.Y.Y.Y.Y.Y.Y.Y.P.L.L.K.d.8 &.(.~.~.|.oXXX.X[.~.=.r + V 3.#.; c.U.Y.U.I.Y.H.H.H.H.Y.Y.Y.Y.",
"H.H.H.H.Y.Y.Y.I.I.Y.Y.D.a. . .A 7 @.~.~.Q.(.)./.R.T.T.=.L + Q E.@.@ v.U.Y.U.I.Y.H.H.H.H.Y.Y.Y.Y.",
"Y.Y.Y.Y.Y.Y.Y.Y.Y.I.K.z.+ e b : @ Y E.~.~.~.>.T L U +.*.L O t >.%.7 z.J.P.U.I.Y.Y.Y.Y.Y.Y.Y.Y.Y.",
"Y.Y.Y.Y.Y.I.I.Y.Y.G. .Z   1.+X] . w :.E.W./.O.+ . - P W L   5 -.T.T [  .V.Y.Y.U.I.Y.Y.Y.Y.Y.Y.Y.",
"Y.Y.Y.Y.Y.I.I.P.J.x.O ; ! {.+X,.3 L -.T.:.E I b h % > &.;.Q e L $.-.T : x.Y.Y.I.I.Y.Y.Y.Y.Y.Y.Y.",
"Y.Y.Y.U.I.Y.U.D. .Z   ,.#XC.t r +.+.*.T.E X t #X+Xp u {.8X=Xo.O r :.O.4 x.Y.Y.I.I.Y.Y.Y.Y.Y.Y.Y.",
"Y.Y.Y.I.I.Y.Y.n.; 7 ^ ].OX<.6 r W E T E L - <.wXwXi.e.-XwXwX%X' P T ~ J N.Y.U.U.I.Y.Y.Y.Y.Y.Y.Y.",
"Y.Y.Y.I.I.Y.Y.n.+ 1.&XC.e ] '.` 2 2 5 3 e o.$X0XqX-X*X7X0X7X7X5X'.e  .J.P.U.I.Y.Y.Y.Y.Y.Y.Y.Y.Y.",
"Y.Y.Y.U.I.Y.Y.D.a.C.+X1.t ] '.o.1 & o   6 '.&X&X&X6X5X&X&X4X6X4XZ.a.V.Y.Y.U.I.Y.Y.Y.Y.Y.Y.Y.Y.Y.",
"Y.Y.Y.Y.Y.I.I.P.L.v.t u.{.,.7 D q.c X   5 2.[.Q.[.;XoXQ.[.>X.XQ z.P.I.Y.I.Y.Y.Y.Y.Y.Y.Y.Y.Y.Y.Y.",
"Y.Y.Y.Y.H.H.H.H.Y.G.a.X.'.] 1 k F h $ = 8 I W -.R._._././.~.( $ J m.B.H.Y.Y.Y.Y.Y.Y.Y.Y.H.H.H.H.",
"Y.Y.Y.Y.H.H.H.H.Y.I.L.x.8 G q.Z - = s d a - w =.W.T._.oX~.r 1 j k Z f.H.Y.U.I.Y.Y.Y.Y.Y.H.H.H.H.",
"Y.Y.Y.Y.H.H.H.H.I.Y.Y.G.a.K G S r ) e.M i $ : Q ` ) ,.'.<.h y x b P [ b.J.U.I.Y.U.Y.Y.Y.H.H.H.H.",
"Y.Y.Y.Y.H.H.H.H.Y.Y.Y.I.P.x.6 Q E.oX X( . $ y f h x n n M 6.n - I ;.` B n.Y.Y.I.I.Y.Y.Y.H.H.H.H.",
"H.H.H.H.H.H.H.H.H.F.F.H.H.s.# _ }.<X`.U   $ y y u d d s z 5.a O R ).;.4 p.H.H.H.H.H.H.H.H.H.H.H.",
"H.H.H.H.H.H.H.H.H.H.H.H.H.s.; _ ~.).>.r + & y a m 5.7.6.5.m i + R W.@.; s.H.H.H.H.H.H.H.H.H.H.H.",
"H.H.H.H.H.H.H.H.H.H.H.H.F.b.s.^ / T Q c g g l l 4.0.r.r.0.9.k : w / [ s.m.H.H.H.H.H.H.H.H.H.H.H.",
"H.H.H.H.H.H.H.H.H.H.H.H.H.H.F.p.; # < C 8.8.C C 8.w.w.w.y.A.t.6 o @ s.H.H.H.H.H.H.H.H.H.H.H.H.H.",
"H.H.H.H.H.H.H.H.H.H.H.H.H.H.H.m.s.N : S } } ..X.} F l l t.#X].7 A s.M.H.H.H.H.H.H.H.H.H.H.H.H.H.",
"H.H.H.H.H.H.H.H.H.H.H.H.H.F.H.H.F.J 6 Y *.+.*.T.&.v % % ' oX(.7 p.H.H.H.H.H.H.H.H.H.H.H.H.H.H.H.",
"H.H.H.H.H.H.H.H.H.H.H.H.H.H.H.H.H.m.f.[ I I ! ^ b 1 . . S <.] q s.H.H.H.F.H.H.H.H.H.H.H.H.H.H.H.",
"H.H.H.H.H.H.H.H.H.H.H.H.H.H.H.F.H.H.S.J - * f y * 0 9 # > j a : p.F.H.H.H.H.H.H.H.H.H.H.H.H.H.H.",
"l.l.l.l.l.l.l.l.l.l.l.l.H.H.H.F.H.H.H.H - y y * N x.f., i s a : H h.l.l.h.l.l.l.l.l.l.l.H.H.H.H.",
"l.l.l.l.l.l.l.l.l.l.l.l.H.H.H.H.H.H.B.| B Z c Z | H.B.H Z D D B H h.l.l.h.l.l.l.l.l.l.l.H.H.H.H.",
"l.l.l.l.l.l.l.l.l.l.l.l.H.H.H.H.H.H.F.M.b.b.b.b.M.H.H.m.b.n.n.b.g.k.l.l.l.l.l.l.l.l.l.l.H.H.H.H.",
"l.l.l.l.l.l.l.l.l.l.l.l.H.H.H.H.H.H.H.H.H.H.H.H.H.H.H.H.H.H.H.H.l.l.l.l.l.l.l.l.l.l.l.l.H.H.H.H.",
"l.l.l.l.l.l.l.l.l.l.l.l.l.l.l.l.l.l.l.l.l.l.l.l.l.l.l.l.l.l.l.l.l.l.l.l.l.l.l.l.l.l.l.l.l.l.l.l.",
"l.l.l.l.l.l.l.l.l.l.l.l.l.l.l.l.l.l.l.k.h.h.h.h.k.l.l.k.h.j.h.h.k.l.l.l.l.l.l.l.l.l.l.l.l.l.l.l.",
"l.l.l.l.l.l.l.l.l.l.l.l.l.l.l.l.l.l.l.l.l.l.l.l.l.l.l.l.l.l.l.l.l.l.l.l.l.l.l.l.l.l.l.l.l.l.l.l.",
"l.l.l.l.l.l.l.l.l.l.l.l.l.l.l.l.l.l.l.l.l.l.l.l.l.l.l.l.l.l.l.l.l.l.l.l.l.l.l.l.l.l.l.l.l.l.l.l."
};
