/* XPM */
static char *_a09598449a44206c3e8c1679a2e07603DoIj03LOuRKeCzT[] = {
/* columns rows colors chars-per-pixel */
"48 48 218 2 ",
"   c #050406",
".  c #17090A",
"X  c #0A1218",
"o  c #141012",
"O  c #151214",
"+  c #1C1314",
"@  c #1F1A1B",
"#  c #18181C",
"$  c #2A0C08",
"%  c #330501",
"&  c #28140A",
"*  c #3B190B",
"=  c #3C0F12",
"-  c #231C1C",
";  c #291A18",
":  c #381617",
">  c #28231A",
",  c #322C16",
"<  c #352519",
"1  c #161B23",
"2  c #1D2023",
"3  c #262222",
"4  c #262626",
"5  c #2D2B24",
"6  c #2C2A29",
"7  c #342D29",
"8  c #2E3625",
"9  c #373923",
"0  c #373529",
"q  c #262F36",
"w  c #302F31",
"e  c #29353B",
"r  c #373736",
"t  c #491809",
"y  c #53110E",
"u  c #441615",
"i  c #581A1A",
"p  c #5B1C1B",
"a  c #691415",
"s  c #731B1E",
"d  c #47210C",
"f  c #5A2F06",
"g  c #4C251C",
"h  c #5A3119",
"j  c #69290F",
"k  c #683B17",
"l  c #7E1B21",
"z  c #492A25",
"x  c #5E2621",
"c  c #4C3C25",
"v  c #5C3823",
"b  c #483B3B",
"n  c #57383A",
"m  c #642525",
"M  c #712326",
"N  c #7A3635",
"B  c #37421E",
"V  c #3D4424",
"C  c #3E403D",
"Z  c #704715",
"A  c #474828",
"S  c #544724",
"D  c #495329",
"F  c #514839",
"G  c #65452B",
"H  c #73502A",
"J  c #755834",
"K  c #5C6936",
"L  c #62733B",
"P  c #6E7139",
"I  c #6A793E",
"U  c #2A3A45",
"Y  c #383D43",
"T  c #38444B",
"R  c #2E4550",
"E  c #364752",
"W  c #3E4B54",
"Q  c #3C4D58",
"!  c #3B5463",
"~  c #395665",
"^  c #464848",
"/  c #504D46",
"(  c #4D564A",
")  c #535649",
"_  c #454D54",
"`  c #4C4C50",
"'  c #5B4C54",
"]  c #465559",
"[  c #58595C",
"{  c #6F5853",
"}  c #695B57",
"|  c #586246",
" . c #5C6756",
".. c #656C4E",
"X. c #687946",
"o. c #727E43",
"O. c #676757",
"+. c #746556",
"@. c #706F56",
"#. c #475864",
"$. c #425C6B",
"%. c #515C63",
"&. c #515F68",
"*. c #47616E",
"=. c #5A6164",
"-. c #55636C",
";. c #5C656E",
":. c #466374",
">. c #4A6574",
",. c #4B6978",
"<. c #586A75",
"1. c #546D7A",
"2. c #5B727D",
"3. c #6B6465",
"4. c #796766",
"5. c #7A716F",
"6. c #6D6F72",
"7. c #62767E",
"8. c #813B1E",
"9. c #882E32",
"0. c #8E3838",
"q. c #923739",
"w. c #825218",
"e. c #904E32",
"r. c #9B563B",
"t. c #83602F",
"y. c #8B6232",
"u. c #936633",
"i. c #925652",
"p. c #A05F44",
"a. c #8C7251",
"s. c #A76F47",
"d. c #837A76",
"f. c #A56B65",
"g. c #6E8241",
"h. c #738344",
"j. c #778947",
"k. c #7D8A4A",
"l. c #7E954C",
"z. c #77A057",
"x. c #78A158",
"c. c #808E4A",
"v. c #85934C",
"b. c #89974E",
"n. c #889750",
"m. c #8D9B52",
"M. c #8CA554",
"N. c #8CA655",
"B. c #93A355",
"V. c #92AC58",
"C. c #9CAC5A",
"Z. c #9AB65D",
"A. c #9DB95E",
"S. c #A3B35E",
"D. c #888478",
"F. c #99947E",
"G. c #BE8F60",
"H. c #A6B760",
"J. c #A1BF61",
"K. c #AABC63",
"L. c #A4C263",
"P. c #AEC066",
"I. c #B4C769",
"U. c #BACD6D",
"Y. c #BED26F",
"T. c #BFD370",
"R. c #C0D470",
"E. c #5A7786",
"W. c #5F7F90",
"Q. c #637985",
"!. c #667B87",
"~. c #727D85",
"^. c #5F808C",
"/. c #6C838E",
"(. c #76838C",
"). c #688694",
"_. c #788B95",
"`. c #78929D",
"'. c #7894A2",
"]. c #7EA0AD",
"[. c #978786",
"{. c #90928E",
"}. c #83939D",
"|. c #A89490",
" X c #8499A3",
".X c #879AA4",
"XX c #929CA4",
"oX c #95A2AA",
"OX c #96A9B3",
"+X c #9BABB4",
"@X c #A9A8A9",
"#X c #B5A8A7",
"$X c #ADB4B1",
"%X c #B9B4B3",
"&X c #C9A49D",
"*X c #C8AEA5",
"=X c #C8B8B6",
"-X c #E5BEB4",
";X c #CEC3BD",
":X c #EEC9BE",
">X c #A9B8C1",
",X c #B1BDC4",
"<X c #B6C3CA",
"1X c #B8C4CB",
"2X c #A2C5D1",
"3X c #B5CAD2",
"4X c #D9CCC7",
"5X c #C5D1D7",
"6X c #CAD4DA",
"7X c #CBD6DB",
"8X c #E8D8D1",
"9X c #EBE3DE",
"0X c #FFE5DA",
"qX c #D5DEE2",
"wX c #DCE6EA",
"eX c #FFEDE5",
"rX c #FFF1E8",
"tX c #FFFEFA",
/* pixels */
"x.x.x.x.L.L.L.L.L.L.L.L.R.R.R.R.R.R.R.R.R.R.R.R.R.R.R.R.R.R.R.R.R.R.R.R.R.R.R.R.R.R.R.R.R.R.R.R.",
"x.x.x.x.L.L.L.L.L.L.L.L.R.R.R.R.R.R.R.R.R.R.R.R.R.R.R.R.R.R.R.R.R.R.R.R.R.R.R.R.R.R.R.R.R.R.R.R.",
"x.x.x.x.L.L.L.L.L.L.L.L.R.R.R.R.R.R.R.R.R.R.R.R.R.R.R.R.R.R.R.R.R.R.R.R.R.R.R.R.R.R.R.R.R.R.R.R.",
"x.x.x.x.L.L.L.L.L.L.L.L.R.R.R.R.R.R.R.R.R.R.R.T.Y.Y.Y.Y.T.R.R.R.R.R.R.R.R.R.R.R.R.R.R.R.R.R.R.R.",
"x.x.x.x.x.x.x.x.L.L.L.L.L.L.L.L.R.R.R.R.R.R.R.Y.Y.Y.Y.Y.Y.R.R.R.R.R.R.R.L.L.L.L.R.R.R.R.R.R.R.R.",
"x.x.x.x.x.x.x.x.L.L.L.L.L.L.L.L.R.R.R.R.R.Y.R.R.R.R.R.R.R.R.T.R.R.R.R.R.L.L.L.L.R.R.R.R.R.R.R.R.",
"x.x.x.x.x.x.x.x.L.L.L.L.L.L.L.L.R.R.R.R.R.Y.R.R.R.R.R.R.R.Y.Y.R.R.R.R.R.L.L.L.L.R.R.R.R.R.R.R.R.",
"x.x.x.x.x.x.x.x.L.L.L.L.L.L.L.L.R.R.R.Y.R.R.R.H.C.C.C.C.K.R.R.Y.Y.R.R.R.L.L.L.L.R.R.R.R.R.R.R.R.",
"x.x.x.x.x.x.x.x.L.L.L.L.L.L.L.L.L.L.L.J.R.R.I.I 9 9 9 9 k.U.T.T.Y.R.R.R.R.R.R.R.R.R.R.R.R.R.R.R.",
"x.x.x.x.x.x.x.x.L.L.L.L.L.L.L.L.L.J.L.L.R.S.v.r T _ Y 6 A m.K.R.R.Y.Y.R.R.R.R.R.R.R.R.R.R.R.R.R.",
"x.x.x.x.x.x.x.x.L.L.L.L.L.L.L.L.L.J.L.L.I.I 6 E E.!.%.0 + > k.Y.R.R.Y.R.R.R.R.R.R.R.R.R.R.R.R.R.",
"x.x.x.x.x.x.x.x.L.L.L.L.L.L.L.J.L.L.L.M.v.O.~.1.2.^.] 8 @ _  .b.K.R.R.R.Y.R.R.R.R.R.R.R.R.R.R.R.",
"x.x.x.x.x.x.x.x.L.L.L.L.L.L.L.L.R.R.I.I r @X6X X>.:.R @ r 7.-.4 c.Y.R.R.Y.R.R.R.R.R.R.R.R.R.R.R.",
"x.x.x.x.x.x.x.x.L.L.L.L.L.L.L.L.R.S.c.( (.5XwX<X_.,.*.;.=.( _ _ | v.S.R.T.R.T.R.R.R.R.R.R.R.R.R.",
"x.x.x.x.x.x.x.x.L.L.L.L.L.L.L.L.I.h.w (.3X5X6XqX>X!._.>X(.3 r Q.-.3 v.T.R.T.Y.R.R.R.R.R.R.R.R.R.",
"x.x.x.x.x.x.x.x.L.L.L.L.L.J.J.M.k.( ;.oX3X5X6XwX<X_. X3XXXE ] /.-.3 c.T.R.T.Y.R.R.R.R.R.R.R.R.R.",
"x.x.x.x.L.L.L.L.L.L.L.L.L.L.L.I 3 -. XOX+X1X6X6X,X.X XOX`.:.>.Q.] 5 b.T.R.T.Y.R.R.R.R.R.R.R.R.R.",
"x.x.x.x.L.L.L.L.L.L.J.L.L.L.L.g.4 ;..X X}.+X<X1X$XXX_./.#.U ] Q.%.5 b.Y.Y.T.Y.R.R.R.R.R.R.R.R.R.",
"x.x.x.x.L.L.L.L.L.L.L.J.A.A.Z.I 7 =._././..X+XOXoX}./.>.e + C 7.&.- b.R.R.T.Y.R.R.R.R.R.R.R.R.R.",
"x.x.x.x.L.L.L.L.J.L.L.V.L L L D 6 %././.~._.`.).W.E.E.>.U + ^ Q.%.@ m.R.R.T.Y.R.R.R.R.R.R.R.R.R.",
"x.x.x.x.L.L.L.L.L.J.Z.g.+ w b - @ W Q./././.2.Q U E $.:.U O r 2.-.6 c.I.U.T.Y.R.R.R.R.R.R.R.R.R.",
"x.x.x.x.L.L.L.L.L.V.L B   5.#X} . q 1.Q.!.).#.+ . ; Y ~ U   4 ,.E.Q | o.S.R.R.T.Y.R.R.R.R.R.R.R.",
"x.x.x.x.L.L.L.J.Z.h.O - / |.#X3.4 U ,.E.1.! T b g % : ;.<.^ w U *.,.W - v.R.R.Y.Y.R.R.R.R.R.R.R.",
"x.x.x.x.L.L.L.M.L V   3.%XD.r e $.$.:.E.! X r $X#Xi y |.qX;X+.O e 1.#.3 v.R.R.Y.Y.R.R.R.R.R.R.R.",
"x.x.x.z.L.L.L.l.- 6 / {.@X4.5 e ~ ! Q ! U ; 4.tXtXf.i.:XtXtX*X{ Y Q ( I C.R.T.T.Y.R.R.R.R.R.R.R.",
"x.x.x.z.L.L.L.l.+ 5.%Xd.w } [.[ 1 1 4 2 w { &XeXrX:X-X0XeX0X0X8X[.w o.P.U.T.Y.R.R.R.R.R.R.R.R.R.",
"x.x.x.x.L.L.L.M.L D.#X5.0 } [.+.< & o   5 [.=X=X=X9X8X=X=X4X9X4XF.h.S.R.R.T.Y.R.R.R.R.R.R.R.R.R.",
"x.x.x.x.L.L.L.J.Z.j.r d.|.3.6 G y.c X   4 6.}.~.}.>X+X~.}.<XoX^ c.U.Y.R.Y.R.R.R.R.R.R.R.R.R.R.R.",
"x.x.x.x.L.L.L.L.L.V.L @.[.} , h H g $ = 7 T ~ ,.W.'.'.).)./.` & h.K.U.R.R.R.R.R.R.R.R.R.R.R.R.R.",
"x.x.x.x.L.L.L.L.L.L.A.h.7 J t.S ; = a s p ; q >.!.E.'.+X/.e < x v D B.R.R.T.Y.R.R.R.R.R.R.R.R.R.",
"x.x.x.x.L.L.L.L.J.L.L.V.I P J F e ' i.N u $ ; ^ [ ' 3.[.4.z t x n Y X.C.I.T.Y.R.T.R.R.R.R.R.R.R.",
"x.x.x.x.L.L.L.L.L.L.L.L.A.h.5 ^ Q.OXXX` . $ t d g x m m N 0.m ; T <.[ A B.R.R.Y.Y.R.R.R.R.R.R.R.",
"x.x.x.x.x.x.x.x.L.J.J.L.L.j.# ]  X2X].R   $ t t y s s a l 9.p O ] `.;.3 c.R.R.Y.Y.R.R.R.R.R.R.R.",
"x.x.x.x.x.x.x.x.L.L.L.L.L.h.- ] /.`.2.e + & t p M 9.q.0.9.M u + _ !.%.- m.R.R.Y.Y.R.R.R.R.R.R.R.",
"x.x.x.x.x.x.x.x.L.L.L.L.J.M.j.) _ W ^ c f f j j 8.r.p.p.r.e.v > q _ ..m.K.R.T.T.Y.R.R.R.R.R.R.R.",
"x.x.x.x.x.x.x.x.L.L.L.L.L.L.J.g.- # , S w.w.Z Z w.u.u.u.s.G.a.5 o @ n.Y.R.T.Y.R.R.R.R.R.R.R.R.R.",
"x.x.x.x.x.x.x.x.L.L.L.L.L.L.L.V.b.A ; F @...O.@.@.J k k a.%X{.7 K m.K.R.R.R.T.R.R.R.R.R.R.R.R.R.",
"x.x.x.x.x.x.x.x.L.L.L.L.L.J.L.L.Y.k.5 W >.$.:.E.;.z % % { +X_.6 c.Y.R.T.Y.R.R.R.R.R.R.R.R.R.R.R.",
"x.x.x.x.x.x.x.x.L.L.L.L.L.L.L.L.R.K.m...T ^ / ) b < . . F 4.} 0 b.R.R.Y.Y.R.R.R.R.R.R.R.R.R.R.R.",
"x.x.x.x.x.x.x.x.L.L.L.L.L.L.L.J.T.R.U.o.; * d t * 9 8 # : x p - k.Y.T.R.Y.R.R.R.R.R.R.R.R.R.R.R.",
"x.x.x.x.L.L.L.L.L.L.L.L.L.L.L.J.L.L.L.K ; t t * A B.m.4 u a p - h.U.T.R.Y.R.R.R.R.R.R.R.R.R.R.R.",
"x.x.x.x.L.L.L.L.L.L.L.L.L.L.L.L.L.L.A.X.A S S A k.T.U.I A G G V n.Y.R.R.Y.R.R.R.R.R.R.R.R.R.R.R.",
"x.x.x.x.L.L.L.L.L.L.L.L.L.L.L.L.L.L.J.V.S.S.S.S.K.R.R.K.M.B.B.M.P.Y.R.R.T.R.R.R.R.R.R.R.R.R.R.R.",
"x.x.x.x.L.L.L.L.L.L.L.L.L.L.L.L.L.L.L.L.R.R.R.R.R.Y.R.R.L.L.L.L.R.R.R.R.R.R.R.R.R.R.R.R.R.R.R.R.",
"x.x.x.x.L.L.L.L.L.L.L.L.L.L.L.L.R.R.R.R.R.R.R.R.R.R.R.R.R.R.R.R.R.R.R.R.R.R.R.R.R.R.R.R.R.R.R.R.",
"x.x.x.x.L.L.L.L.L.L.L.L.L.L.L.L.R.R.R.Y.Y.Y.Y.Y.Y.R.R.Y.Y.Y.Y.Y.Y.R.R.R.R.R.R.R.R.R.R.R.R.R.R.R.",
"x.x.x.x.L.L.L.L.L.L.L.L.L.L.L.L.R.R.R.R.T.R.R.T.T.R.R.T.R.R.R.T.R.R.R.R.R.R.R.R.R.R.R.R.R.R.R.R.",
"x.x.x.x.L.L.L.L.L.L.L.L.L.L.L.L.R.R.R.R.R.R.R.R.R.R.R.R.R.R.R.R.R.R.R.R.R.R.R.R.R.R.R.R.R.R.R.R."
};
