/* XPM */
static char *_a210efe508544c98e0f9da12b695297dpAoAvWCzT198Vek[] = {
/* columns rows colors chars-per-pixel */
"48 48 214 2 ",
"   c #070406",
".  c #180808",
"X  c #131013",
"o  c #1C1514",
"O  c #1A181A",
"+  c #1C1C1B",
"@  c #2B0500",
"#  c #340705",
"$  c #291607",
"%  c #37190B",
"&  c #2C0913",
"*  c #231D1C",
"=  c #281918",
"-  c #351C1A",
";  c #31220E",
":  c #26241A",
">  c #2A231C",
",  c #362617",
"<  c #33351E",
"1  c #091720",
"2  c #131C28",
"3  c #231F20",
"4  c #1B2229",
"5  c #1F343F",
"6  c #272121",
"7  c #232726",
"8  c #292423",
"9  c #2E2E26",
"0  c #2D2A29",
"q  c #322823",
"w  c #322D2C",
"e  c #2A3428",
"r  c #343427",
"t  c #2C2E33",
"y  c #28353B",
"u  c #383837",
"i  c #4D0F0B",
"p  c #461707",
"a  c #461915",
"s  c #591A19",
"d  c #6B1A15",
"f  c #681918",
"g  c #5A2C03",
"h  c #452314",
"j  c #552318",
"k  c #4E3211",
"l  c #63360B",
"z  c #6B2B15",
"x  c #681E22",
"c  c #4A2623",
"v  c #5E2522",
"b  c #4B3A26",
"n  c #443B3B",
"m  c #642526",
"M  c #762527",
"N  c #67352B",
"B  c #733333",
"V  c #3D4524",
"C  c #3E413E",
"Z  c #64451A",
"A  c #754716",
"S  c #454928",
"D  c #524B2D",
"F  c #46443E",
"G  c #64452C",
"H  c #7A4327",
"J  c #7C5728",
"K  c #635636",
"L  c #7D5C34",
"P  c #5C6A36",
"I  c #5F7237",
"U  c #616939",
"Y  c #66783C",
"T  c #2A3943",
"R  c #333E45",
"E  c #39424A",
"W  c #38454B",
"Q  c #2F4350",
"!  c #394A55",
"~  c #3F515B",
"^  c #3B5767",
"/  c #464947",
"(  c #4F5148",
")  c #535745",
"_  c #434C53",
"`  c #4B575A",
"'  c #565858",
"]  c #685A55",
"[  c #6B5D5B",
"{  c #735857",
"}  c #5C6649",
"|  c #656C4E",
" . c #677841",
".. c #6C7B42",
"X. c #727E42",
"o. c #696558",
"O. c #766C51",
"+. c #72735F",
"@. c #445B68",
"#. c #525D64",
"$. c #585E64",
"%. c #4D606B",
"&. c #57636C",
"*. c #466373",
"=. c #4B6674",
"-. c #4B6978",
";. c #556B77",
":. c #56707C",
">. c #6C6668",
",. c #776B6A",
"<. c #6D6E74",
"1. c #61747E",
"2. c #6D7479",
"3. c #852523",
"4. c #832F36",
"5. c #893232",
"6. c #943938",
"7. c #835319",
"8. c #864B2E",
"9. c #91542A",
"0. c #8A632C",
"q. c #96672B",
"w. c #926633",
"e. c #A37334",
"r. c #8D514E",
"t. c #946D56",
"y. c #AB7B48",
"u. c #857773",
"i. c #6C803F",
"p. c #6E8142",
"a. c #768645",
"s. c #748946",
"d. c #7E8B4B",
"f. c #7D944B",
"g. c #7B8652",
"h. c #77A057",
"j. c #78A158",
"k. c #818E4A",
"l. c #85924C",
"z. c #89974E",
"x. c #8A984F",
"c. c #889750",
"v. c #8D9C52",
"b. c #909E53",
"n. c #8CA453",
"m. c #8FA956",
"M. c #92A255",
"N. c #92AC59",
"B. c #96AC58",
"V. c #9BB45D",
"C. c #9DB95E",
"Z. c #A1B15D",
"A. c #858278",
"S. c #90827F",
"D. c #BE8F60",
"F. c #9FBC60",
"G. c #A1BF61",
"H. c #ABBC63",
"J. c #A4C263",
"K. c #AEC066",
"L. c #B1C367",
"P. c #B7CA6B",
"I. c #B9CD6C",
"U. c #BED26F",
"Y. c #BFD370",
"T. c #C0D470",
"R. c #5C7584",
"E. c #5B7988",
"W. c #677A85",
"Q. c #647A86",
"!. c #737E86",
"~. c #6A838E",
"^. c #75828A",
"/. c #6D8491",
"(. c #698794",
"). c #778A94",
"_. c #7B929E",
"`. c #7B97A4",
"'. c #7FA0AD",
"]. c #928E8A",
"[. c #988C89",
"{. c #9E9284",
"}. c #83949E",
"|. c #88929A",
" X c #A3918E",
".X c #B39798",
"XX c #869AA3",
"oX c #929CA4",
"OX c #95A4AD",
"+X c #96AAB4",
"@X c #9AABB4",
"#X c #9BB1BC",
"$X c #A8A7A8",
"%X c #B5ADAB",
"&X c #BBB5AA",
"*X c #A7B4BB",
"=X c #C49F98",
"-X c #CABAB6",
";X c #E1B7AE",
":X c #CFC2BE",
">X c #EAC4BA",
",X c #B2BEC4",
"<X c #9EC2CF",
"1X c #B5C3CA",
"2X c #B9C5CC",
"3X c #B4C9D1",
"4X c #C8D3D8",
"5X c #E5D4CD",
"6X c #EDE4DE",
"7X c #FFE6DB",
"8X c #D3DCE0",
"9X c #DDE8EB",
"0X c #FFF4EB",
"qX c #FEFDF9",
/* pixels */
"j.j.j.j.J.J.J.J.J.J.J.J.T.T.T.T.T.T.T.T.T.T.T.T.T.T.T.T.T.T.T.T.T.T.T.T.T.T.T.T.T.T.T.T.T.T.T.T.",
"j.j.j.j.J.J.J.J.J.J.J.J.T.T.T.T.T.T.T.T.T.T.T.Y.Y.Y.Y.Y.T.T.T.T.T.T.T.T.T.T.T.T.T.T.T.T.T.T.T.T.",
"j.j.j.j.J.J.J.J.J.J.J.J.T.T.T.T.T.T.T.T.T.T.T.U.U.U.U.U.U.T.T.T.T.T.T.T.T.T.T.T.T.T.T.T.T.T.T.T.",
"j.j.j.j.J.J.J.J.J.J.J.J.T.T.T.T.T.T.T.T.T.Y.T.T.T.T.T.T.T.T.Y.T.T.T.T.T.T.T.T.T.T.T.T.T.T.T.T.T.",
"j.j.j.j.j.j.j.j.J.J.J.J.J.J.J.J.T.T.T.T.T.U.T.T.T.T.T.T.T.U.U.T.T.T.T.T.J.J.J.J.T.T.T.T.T.T.T.T.",
"j.j.j.j.j.j.j.j.J.J.J.J.J.J.J.J.T.T.T.U.T.T.T.H.Z.Z.Z.Z.K.T.T.Y.U.T.T.T.J.J.J.J.T.T.T.T.T.T.T.T.",
"j.j.j.j.j.j.j.j.J.J.J.J.J.J.J.J.T.T.T.U.T.T.P.X.S S S S d.U.T.U.U.T.T.T.J.J.J.J.T.T.T.T.T.T.T.T.",
"j.j.j.j.j.j.j.j.J.J.J.J.J.J.J.J.T.U.T.T.T.H.x.u E / u 0 S M.H.T.T.U.U.T.J.J.J.J.T.T.T.T.T.T.T.T.",
"j.j.j.j.j.j.j.j.J.J.J.J.J.J.J.J.J.G.J.J.P.X.r Q :.Q.#.w o < k.U.T.U.U.T.T.T.T.T.T.T.T.T.T.T.T.T.",
"j.j.j.j.j.j.j.j.J.J.J.J.J.J.J.J.J.J.J.m.z.o.2.;.R.~.` < + _ | b.H.T.T.T.Y.T.T.T.T.T.T.T.T.T.T.T.",
"j.j.j.j.j.j.j.j.J.J.J.J.J.J.J.G.J.J.C.Y u $X4X}.=.*.Q o u 1.&.9 l.U.T.T.U.T.T.T.T.T.T.T.T.T.T.T.",
"j.j.j.j.j.j.j.j.J.J.J.J.J.J.J.J.J.m.s.( ^.4X9X1X).=.@.$.' ' _ _ } v.H.T.U.T.Y.T.T.T.T.T.T.T.T.T.",
"j.j.j.j.j.j.j.j.J.J.J.J.J.J.J.J.I.a.0 !.1X4X4X8X*XQ./.#X^.8 u 1.&.3 z.Y.T.Y.U.T.T.T.T.T.T.T.T.T.",
"j.j.j.j.j.j.j.j.J.J.J.J.J.G.G.n.l.) &.OX3X4X4X9X2X).XX3XoXE ~ ~.&.6 k.Y.T.Y.U.T.T.T.T.T.T.T.T.T.",
"j.j.j.j.j.j.j.j.J.J.J.J.J.J.J.p.6 $.}.OX#X2X4X4X,XXXXX+X_.*.=.Q.` 8 z.Y.T.Y.U.T.T.T.T.T.T.T.T.T.",
"j.j.j.j.j.j.j.j.J.J.J.J.J.J.J.p.8 &.XXXX}.*X2X2X*XoX_./.%.R ` Q.#.9 z.U.U.Y.U.T.T.T.T.T.T.T.T.T.",
"j.j.j.j.J.J.J.J.J.J.J.G.F.F.C.i.9 &.)././.XX#X@XOX}./.=.y X C 1.#.* z.T.T.Y.U.T.T.T.T.T.T.T.T.T.",
"j.j.j.j.J.J.J.J.G.J.J.N...Y Y S 9 #././.!.)._.(.(.Q.R.*.T o / Q.#.o v.T.T.Y.U.T.T.T.T.T.T.T.T.T.",
"j.j.j.j.J.J.J.J.J.J.C.p.o w w = * _ Q./././.R.~ Q ! @.*.R o u 1.&.7 k.P.U.Y.U.T.T.T.T.T.T.T.T.T.",
"j.j.j.j.J.J.J.J.J.N. .V   ,.$X] . y :.Q.Q.(.@.O . = R ^ 5   7 ;.R.! } a.Z.T.Y.Y.U.T.T.T.T.T.T.T.",
"j.j.j.j.J.J.J.G.V.s.o o F  X&X>.4 T -.R.:.^ W n a @ - &.&.n w Q *.-.! * z.T.T.U.U.T.T.T.T.T.T.T.",
"j.j.j.j.J.J.J.N. .S   [ %X].n R @.@.=.R.^ 1 u $X.Xi i  X4X-X[ X y :.@.6 l.T.T.U.U.T.T.T.T.T.T.T.",
"j.j.j.h.J.J.J.f.* 8 F ].%X,.6 y ^ ^ ! ^ R = o.qXqXt.r.>XqXqX=X( u ~ ( U B.T.T.Y.U.T.T.T.T.T.T.T.",
"j.j.j.h.J.J.J.f.o ,.&XA.u [ [.' 2 2 4 4 w { =X0X0X>X;X7X0X7X7X5XS.t ..H.P.Y.U.T.T.T.T.T.T.T.T.T.",
"j.j.j.j.J.J.J.n.I A.%X,.w [ [.] = % % . 0 [.-X-X:X6X6X:X-X5X6X5X{...Z.T.T.Y.U.T.T.T.T.T.T.T.T.T.",
"j.j.j.j.J.J.J.F.V.s.F u.{.>.w b J 7.l $ 4 1.|.^.|.,X*X^.|.2XOX' d.P.U.T.T.T.T.T.T.T.T.T.T.T.T.T.",
"j.j.j.j.J.J.J.J.J.m.P o. X] ; Z e.0.l , q E @.-.Q.`.`.(.(./.` . a.L.P.U.I.T.T.T.T.T.T.T.T.T.T.T.",
"j.j.j.j.J.J.J.J.J.G.V.p.u K 0.q.7.b > c s - y =.(.Q.`.#X/.y - j G P M.U.U.Y.U.T.T.T.T.T.T.T.T.T.",
"j.j.j.j.J.J.J.J.G.J.J.m.I K L J k $ & x f & + / $.' <.].,.c h m c = l.T.T.Y.U.T.T.T.T.T.T.T.T.T.",
"j.j.j.j.J.J.J.J.J.J.J.G.C.a.> : > h f M x - o ; j v m m B 5.N , o o v.T.T.Y.U.T.T.T.T.T.T.T.T.T.",
"j.j.j.j.J.J.J.J.J.G.G.J.J.f.+ 4 E { r.B a - - p d M M d 3.6.N : e F g.V.L.T.Y.T.Y.T.T.T.T.T.T.T.",
"j.j.j.j.J.J.J.J.J.J.J.J.J.s.: E Q.@XoX( . $ a s M 5.6.6.5.M a o W :.' S M.T.T.U.U.T.T.T.T.T.T.T.",
"j.j.j.j.j.j.j.j.J.J.J.J.G.i.8 ` `.<X'.Q   @ a s m M 4.4.M s # o ` ).&.8 k.T.T.U.U.T.T.T.T.T.T.T.",
"j.j.j.j.j.j.j.j.J.J.J.J.J.p.* ` ~._.:.y o % p p a f m x m x a o _ Q.#.* v.T.T.U.U.T.T.T.T.T.T.T.",
"j.j.j.j.j.j.j.j.J.J.J.J.J.n.s.) _ ~ / b g g g g l H 8.H 8.9.N : t _ | v.H.T.Y.Y.U.T.T.T.T.T.T.T.",
"j.j.j.j.j.j.j.j.J.J.J.J.J.J.G.p.* O < Z 7.7.A A 7.w.w.w.y.D.t.9 X + c.T.T.Y.U.T.T.T.T.T.T.T.T.T.",
"j.j.j.j.j.j.j.j.J.J.J.J.J.J.J.N.z.S = D O.| o.+.O.L A z t.&X].w P v.H.T.T.T.Y.T.T.T.T.T.T.T.T.T.",
"j.j.j.j.j.j.j.j.J.J.J.J.J.G.J.J.U.d.9 ! =.@.*.E.&.c # # ] @X).0 k.U.T.Y.U.T.T.T.T.T.T.T.T.T.T.T.",
"j.j.j.j.j.j.j.j.J.J.J.J.J.J.J.J.T.H.v.| W / ( ( n - . . D ,.[ r x.T.T.U.U.T.T.T.T.T.T.T.T.T.T.T.",
"j.j.j.j.j.j.j.j.J.J.J.J.J.J.J.G.Y.T.I.X.= % p p % r e O - x s * d.U.Y.T.U.T.T.T.T.T.T.T.T.T.T.T.",
"j.j.j.j.J.J.J.J.J.J.J.J.J.J.J.G.J.J.J.P = p p % S M.v.7 a d s * a.I.Y.T.U.T.T.T.T.T.T.T.T.T.T.T.",
"j.j.j.j.J.J.J.J.J.J.J.J.J.J.J.J.J.J.C...S D D S d.Y.P.Y D G G V c.U.T.T.U.T.T.T.T.T.T.T.T.T.T.T.",
"j.j.j.j.J.J.J.J.J.J.J.J.J.J.J.J.J.J.G.N.Z.Z.Z.Z.H.T.T.H.n.M.M.n.K.U.T.T.Y.T.T.T.T.T.T.T.T.T.T.T.",
"j.j.j.j.J.J.J.J.J.J.J.J.J.J.J.J.J.J.J.J.T.T.T.T.T.U.T.T.J.J.J.J.T.T.T.T.T.T.T.T.T.T.T.T.T.T.T.T.",
"j.j.j.j.J.J.J.J.J.J.J.J.J.J.J.J.T.T.T.T.T.T.T.T.T.T.T.T.T.T.T.T.T.T.T.T.T.T.T.T.T.T.T.T.T.T.T.T.",
"j.j.j.j.J.J.J.J.J.J.J.J.J.J.J.J.T.T.T.U.U.U.U.U.U.T.T.U.U.U.U.U.U.T.T.T.T.T.T.T.T.T.T.T.T.T.T.T.",
"j.j.j.j.J.J.J.J.J.J.J.J.J.J.J.J.T.T.T.T.Y.T.T.Y.Y.T.T.Y.T.T.T.Y.T.T.T.T.T.T.T.T.T.T.T.T.T.T.T.T.",
"j.j.j.j.J.J.J.J.J.J.J.J.J.J.J.J.T.T.T.T.T.T.T.T.T.T.T.T.T.T.T.T.T.T.T.T.T.T.T.T.T.T.T.T.T.T.T.T."
};
