/* XPM */
static char *fd6566b667f642d396092b2f26b4e5acgNNdxK8ai56ECAOp[] = {
/* columns rows colors chars-per-pixel */
"48 48 222 2 ",
"   c #080405",
".  c #160706",
"X  c #101412",
"o  c #171616",
"O  c #1B1414",
"+  c #1D1B1B",
"@  c #280F07",
"#  c #340200",
"$  c #3E0E0A",
"%  c #261506",
"&  c #38160C",
"*  c #2F0812",
"=  c #271816",
"-  c #231C1C",
";  c #321B16",
":  c #3A1919",
">  c #1E211C",
",  c #37210C",
"<  c #23211B",
"1  c #2A261A",
"2  c #372215",
"3  c #30351F",
"4  c #171C24",
"5  c #1C242C",
"6  c #262222",
"7  c #212726",
"8  c #2A2525",
"9  c #2A2A24",
"0  c #2C292A",
"q  c #332B28",
"w  c #2B362A",
"e  c #353526",
"r  c #252F38",
"t  c #302F31",
"y  c #293537",
"u  c #353031",
"i  c #383939",
"p  c #481802",
"a  c #56110D",
"s  c #451915",
"d  c #591714",
"f  c #5B1C1A",
"g  c #6B1818",
"h  c #771B1E",
"j  c #4A2609",
"k  c #4A2219",
"l  c #572417",
"z  c #533916",
"x  c #75330A",
"c  c #683B17",
"v  c #6F3318",
"b  c #4D1F22",
"n  c #671A21",
"m  c #492724",
"M  c #5F2C27",
"N  c #553D29",
"B  c #483B3B",
"V  c #622323",
"C  c #652728",
"Z  c #712326",
"A  c #703432",
"S  c #3D4230",
"D  c #784D18",
"F  c #464927",
"G  c #554927",
"H  c #515032",
"J  c #6C4D2D",
"K  c #785931",
"L  c #5E6D38",
"P  c #5F7137",
"I  c #6D6938",
"U  c #68743C",
"Y  c #273A46",
"T  c #2E3A42",
"R  c #353C45",
"E  c #393E44",
"W  c #38464B",
"Q  c #3D454C",
"!  c #3A4B55",
"~  c #3E5259",
"^  c #3A5363",
"/  c #3B5768",
"(  c #454849",
")  c #544D4C",
"_  c #4A5449",
"`  c #55564A",
"'  c #474D53",
"]  c #49555A",
"[  c #5A5A5B",
"{  c #73594C",
"}  c #695A57",
"|  c #5A6345",
" . c #556254",
".. c #6A7B45",
"X. c #727D43",
"o. c #676757",
"O. c #6F6A54",
"+. c #72735C",
"@. c #465965",
"#. c #525D64",
"$. c #515F68",
"%. c #46616E",
"&. c #596064",
"*. c #55636C",
"=. c #5C656E",
"-. c #456172",
";. c #4A6575",
":. c #4B6978",
">. c #526976",
",. c #5C6A74",
"<. c #546D7A",
"1. c #59727E",
"2. c #6B6465",
"3. c #786565",
"4. c #7A716F",
"5. c #61757D",
"6. c #767070",
"7. c #882D31",
"8. c #8E3737",
"9. c #923739",
"0. c #825419",
"q. c #895D29",
"w. c #945137",
"e. c #A05A3E",
"r. c #8A642C",
"t. c #97672C",
"y. c #926633",
"u. c #A27233",
"i. c #925955",
"p. c #A05F44",
"a. c #937856",
"s. c #A86F47",
"d. c #847672",
"f. c #A56B65",
"g. c #6D8140",
"h. c #748343",
"j. c #758A46",
"k. c #7C8946",
"l. c #7D8A4A",
"z. c #7A8A4D",
"x. c #77A057",
"c. c #78A158",
"v. c #808D49",
"b. c #84924D",
"n. c #869A4E",
"m. c #879A51",
"M. c #8D9B52",
"N. c #909F54",
"B. c #8CA654",
"V. c #8CA655",
"C. c #93A255",
"Z. c #96AC59",
"A. c #9BB85E",
"S. c #A2B15E",
"D. c #A8B15F",
"F. c #88857A",
"G. c #99937D",
"H. c #BF9163",
"J. c #A6B761",
"K. c #A2BE61",
"L. c #ABBC64",
"P. c #A4C263",
"I. c #AEC165",
"U. c #B0C267",
"Y. c #B4C669",
"T. c #B6C96B",
"R. c #BACD6C",
"E. c #BED26F",
"W. c #BFD370",
"Q. c #C0D470",
"!. c #5B7888",
"~. c #5F7F90",
"^. c #627681",
"/. c #637A87",
"(. c #6A7E89",
"). c #727E85",
"_. c #6B828D",
"`. c #76838C",
"'. c #688694",
"]. c #778B96",
"[. c #7B909B",
"{. c #7A98A5",
"}. c #988887",
"|. c #978E8A",
" X c #818E97",
".X c #83939C",
"XX c #A89490",
"oX c #8396A0",
"OX c #879AA4",
"+X c #929EA6",
"@X c #8DA1AD",
"#X c #96A3AC",
"$X c #98AAB4",
"%X c #9BB2BD",
"&X c #A9A8A9",
"*X c #B5A8A7",
"=X c #ADB4B2",
"-X c #B7B3B3",
";X c #C9A39D",
":X c #C8AEA5",
">X c #C7B9B6",
",X c #E5BEB4",
"<X c #CEC3BD",
"1X c #EEC9BE",
"2X c #A9B8C1",
"3X c #B1BDC4",
"4X c #B6C3CA",
"5X c #B6C5CC",
"6X c #A0C4D1",
"7X c #B6CBD4",
"8X c #D9CCC7",
"9X c #C5D1D7",
"0X c #CAD4DA",
"qX c #CBD6DB",
"wX c #E8D8D1",
"eX c #EBE3DE",
"rX c #FFE5DA",
"tX c #D5DEE2",
"yX c #DBE6EA",
"uX c #FFEDE5",
"iX c #FFF1E8",
"pX c #FFFEFA",
/* pixels */
"c.c.c.c.c.c.c.c.c.c.c.c.c.c.c.c.c.c.c.c.c.c.c.c.c.c.c.c.c.c.c.c.c.c.c.c.c.c.c.c.c.c.c.c.c.c.c.c.",
"c.c.c.c.c.c.c.c.c.c.c.c.c.c.c.c.c.c.c.c.c.c.c.c.c.c.c.c.c.c.c.c.c.c.c.c.c.c.c.c.c.c.c.c.c.c.c.c.",
"c.c.c.c.c.c.c.c.c.c.c.c.c.c.c.c.c.c.c.c.c.c.c.c.c.c.c.c.c.c.c.c.c.c.c.c.c.c.c.c.c.c.c.c.c.c.c.c.",
"c.c.c.c.c.c.c.c.c.c.c.c.c.c.c.c.c.c.c.c.c.c.c.c.x.x.x.x.c.c.c.c.c.c.c.c.c.c.c.c.c.c.c.c.c.c.c.c.",
"P.P.P.P.c.c.c.c.c.c.c.c.c.c.c.c.P.P.P.P.P.P.P.P.P.P.P.P.P.P.P.P.P.P.P.P.c.c.c.c.c.c.c.c.P.P.P.P.",
"P.P.P.P.c.c.c.c.c.c.c.c.c.c.c.c.P.P.P.P.P.P.P.P.P.P.P.P.P.P.P.P.P.P.P.P.c.c.c.c.c.c.c.c.P.P.P.P.",
"P.P.P.P.c.c.c.c.c.c.c.c.c.c.c.c.P.P.P.P.P.P.P.P.P.P.P.P.P.P.P.P.P.P.P.P.c.c.c.c.c.c.c.c.P.P.P.P.",
"P.P.P.P.c.c.c.c.c.c.c.c.c.c.c.c.P.P.P.P.P.P.P.V.n.n.n.n.Z.P.P.P.P.P.P.P.c.c.c.c.c.c.c.c.P.P.P.P.",
"P.P.P.P.P.P.P.P.P.P.P.P.P.P.P.P.P.P.P.K.P.P.A.L e 3 e e ..K.P.P.K.P.P.P.P.P.P.P.P.P.P.P.P.P.P.P.",
"P.P.P.P.P.P.P.P.P.P.P.P.P.P.P.P.P.K.P.P.P.V.h.w Q ' E 0 S j.Z.P.P.P.P.P.P.P.P.P.P.P.P.P.P.P.P.P.",
"P.P.P.P.P.P.P.P.P.P.P.P.P.P.P.P.P.K.P.P.A.L 9 ! <./.#.w O < g.K.P.P.K.P.P.P.P.P.P.P.P.P.P.P.P.P.",
"P.P.P.P.P.P.P.P.P.P.P.P.P.P.P.K.P.P.P.V.h.o.).<.<.~.] 1 + '  .j.Z.P.P.P.P.P.P.P.P.P.P.P.P.P.P.P.",
"P.P.P.P.P.P.P.P.P.P.P.P.P.P.P.P.P.P.A.P i &X0XoX;.-.W + i 5.*.8 g.K.P.P.P.P.P.P.P.P.P.P.P.P.P.P.",
"P.P.P.P.P.P.P.P.P.P.P.P.P.P.P.P.P.V.g._ `.9XyX4X].>.%.=.&._ ( ' ` j.V.P.P.P.P.P.P.P.P.P.P.P.P.P.",
"P.P.P.P.P.P.P.P.P.P.P.P.P.P.P.P.A.U t `.5X9X0XtX2X(.].%X`.6 i ^.*.6 h.P.P.P.P.P.P.P.P.P.P.P.P.P.",
"P.P.P.P.P.P.P.P.P.P.P.P.P.K.K.V..._ =.#X7X9X0XyX4X].oX7X+XW ~ _.*.6 g.P.P.P.P.P.P.P.P.P.P.P.P.P.",
"Q.Q.Q.Q.Q.Q.Q.Q.P.P.P.P.Q.Q.E.k.6 *.oX@X$X4X0X0X3XOXoX$X[.-.;.^.] 9 j.P.Q.W.E.Q.Q.Q.Q.Q.Q.Q.Q.Q.",
"Q.Q.Q.Q.Q.Q.Q.Q.P.P.K.P.Q.Q.W.v.8 =.OXoX.X%X5X5X=X+X[._.@.T ] ^.#.9 j.K.E.W.E.Q.Q.Q.Q.Q.Q.Q.Q.Q.",
"Q.Q.Q.Q.Q.Q.Q.Q.P.P.P.K.T.T.Y.k.q &.]._._.OX$X$X@X.X_.;.y O S 5.$.- j.P.Q.W.E.Q.Q.Q.Q.Q.Q.Q.Q.Q.",
"Q.Q.Q.Q.Q.Q.Q.E.K.P.P.V.h.X.X.H 0 #._._.(.].[.'.~.!.!.;.T O ( ^.#.+ l.P.Q.W.E.Q.Q.Q.Q.Q.Q.Q.Q.Q.",
"P.P.P.P.Q.Q.Q.Q.Q.E.Y.v.O u B - + ! /._._._.1.! Y W @.-.T o i 1.*.0 v.Y.R.W.E.Q.Q.Q.Q.Q.P.P.P.P.",
"P.P.P.P.Q.E.E.Q.Q.L.X.F   6.*X} . r <./.(.'.@.O . = R ^ Y   7 >.!.~ | X.S.Q.Q.W.E.Q.Q.Q.P.P.P.P.",
"P.P.P.P.W.E.E.R.Y.b.O - ) XX*X2.7 Y :.!.<.^ W B k # : =.,.( u Y %.:.! - b.Q.Q.E.E.Q.Q.Q.P.P.P.P.",
"P.P.P.P.E.Q.W.J.X.F   2.-XF.i y @.%.;.!.^ X i -X*Xd a XXtX<X3.X y <.@.6 b.Q.Q.Q.E.Q.Q.Q.P.P.P.P.",
"Q.Q.Q.E.E.Q.Q.C.- 0 ` |.&X3.8 y ^ ^ ! ^ R = 3.pXpXf.i.1XpXpX:X} E ! _ U Z.Q.Q.Q.E.Q.Q.Q.Q.Q.Q.Q.",
"Q.Q.Q.E.E.Q.Q.C.O 4.>XF.u } }.[ 4 4 4 4 u { ;XuXiX1X,XrXuXrXrXwX}.t X.U.R.W.E.Q.Q.Q.Q.Q.Q.Q.Q.Q.",
"Q.Q.Q.W.E.Q.Q.J.h.F.*X4.u } }.} , , , . 8 }.>X>X>XeXwX>X>X8XeX8XG.h.S.Q.Q.W.E.Q.Q.Q.Q.Q.Q.Q.Q.Q.",
"Q.Q.Q.Q.Q.E.E.R.T.m.i d.XX2.0 N q.q.c % 5 ,. X). X2X$X)..X4X#X( l.T.E.Q.Q.Q.Q.Q.Q.Q.Q.Q.Q.Q.Q.Q.",
"Q.Q.Q.Q.Q.E.E.Q.Q.L.h.+.|.} 2 D u.r.z 2 q R @.:.~.{.{.'.'._.' @ h.L.T.E.E.Q.Q.Q.Q.Q.Q.Q.Q.Q.Q.Q.",
"Q.Q.Q.Q.Q.Q.Q.Q.Q.E.T.b.u J r.t.D z < b f ; r ;./.!.{.%X].y ; l N H N.E.E.W.E.Q.Q.Q.Q.Q.Q.Q.Q.Q.",
"Q.Q.Q.Q.Q.Q.Q.E.E.Q.Q.L.h.I K D j % * n g * + ( [ ) 2.}.3.m k M m = b.Q.Q.W.E.Q.Q.Q.Q.Q.Q.Q.Q.Q.",
"Q.Q.Q.Q.Q.Q.Q.Q.W.Q.Q.E.R.b.1 < 1 k g h V ; o ; l V C C A 8.A q O O M.Q.Q.W.E.Q.Q.Q.Q.Q.Q.Q.Q.Q.",
"Q.Q.Q.Q.Q.Q.Q.Q.Q.E.E.Q.Q.C.> 5 Q 3.i.A : = = $ a h h g h 7.M < w ( z.Z.I.Q.W.Q.W.Q.Q.Q.Q.Q.Q.Q.",
"Q.Q.Q.Q.Q.Q.Q.Q.Q.E.W.Q.Q.m.< Q (.%X+X' . @ s f Z 7.9.8.7.Z s O Q 5.[ e C.Q.Q.E.E.Q.Q.Q.Q.Q.Q.Q.",
"Q.Q.Q.Q.Q.Q.Q.Q.Q.E.W.W.E.l.6 ] {.6X{.W . p x x v w.p.p.e.w.l = ] ].=.6 v.Q.Q.E.E.Q.Q.Q.Q.Q.Q.Q.",
"Q.Q.Q.Q.Q.Q.Q.Q.Q.E.W.Q.W.n.- ' _.].>.r = c 0.D D y.y.y.s.H.{ - W ^.#.- M.Q.Q.E.E.Q.Q.Q.Q.Q.Q.Q.",
"Q.Q.Q.Q.Q.Q.Q.Q.Q.W.Q.E.Q.L.M.| ( ( R R Q ` O.+.O.K D c a.-XF.9 4 Q O.C.L.Q.W.Q.W.Q.Q.Q.Q.Q.Q.Q.",
"Q.Q.Q.Q.Q.Q.Q.Q.Q.Q.Q.E.Q.Q.W.b.1 1 e ~ -./ -.!.=.m # # } #X].q O 1 M.Q.E.E.E.Q.Q.Q.Q.Q.Q.Q.Q.Q.",
"Q.Q.Q.Q.Q.Q.Q.Q.Q.Q.Q.W.Q.Q.Q.L.C.C.N...Q ( ) ` B 2 . . H 3.} e U C.I.Q.Q.Q.W.Q.Q.Q.Q.Q.Q.Q.Q.Q.",
"Q.Q.Q.Q.Q.Q.Q.Q.Q.Q.Q.Q.Q.W.E.W.Q.Q.R.X.= & j p & e e + : V f - b.Q.Q.E.E.Q.Q.Q.Q.Q.Q.Q.Q.Q.Q.Q.",
"Q.Q.Q.Q.Q.Q.Q.Q.Q.Q.Q.Q.Q.W.E.Q.Q.Q.E.U = p p & F C.M.7 s g f - l.Q.Q.E.E.Q.Q.Q.Q.Q.Q.Q.Q.Q.Q.Q.",
"Q.Q.Q.Q.Q.Q.Q.Q.Q.Q.Q.Q.Q.Q.Q.E.E.E.T.l.F G G F l.W.T.U G J J F b.R.E.Q.E.Q.Q.Q.Q.Q.Q.Q.Q.Q.Q.Q.",
"Q.Q.Q.Q.Q.Q.Q.Q.Q.Q.Q.Q.Q.Q.Q.E.E.E.E.L.S.S.S.S.L.Q.Q.L.D.D.D.S.I.E.W.Q.W.Q.Q.Q.Q.Q.Q.Q.Q.Q.Q.Q.",
"Q.Q.Q.Q.Q.Q.Q.Q.Q.Q.Q.Q.Q.Q.Q.Q.Q.Q.Q.Q.Q.Q.Q.Q.Q.E.Q.Q.Q.Q.Q.Q.Q.Q.Q.Q.Q.Q.Q.Q.Q.Q.Q.Q.Q.Q.Q.Q.",
"Q.Q.Q.Q.Q.Q.Q.Q.Q.Q.Q.Q.Q.Q.Q.Q.Q.Q.Q.Q.Q.Q.Q.Q.Q.Q.Q.Q.Q.Q.Q.Q.Q.Q.Q.Q.Q.Q.Q.Q.Q.Q.Q.Q.Q.Q.Q.Q.",
"Q.Q.Q.Q.Q.Q.Q.Q.Q.Q.Q.Q.Q.Q.Q.Q.Q.Q.Q.E.E.E.E.E.E.Q.Q.E.E.E.E.E.E.Q.Q.Q.Q.Q.Q.Q.Q.Q.Q.Q.Q.Q.Q.Q.",
"Q.Q.Q.Q.Q.Q.Q.Q.Q.Q.Q.Q.Q.Q.Q.Q.Q.Q.Q.Q.W.Q.Q.W.W.Q.Q.W.Q.Q.Q.W.Q.Q.Q.Q.Q.Q.Q.Q.Q.Q.Q.Q.Q.Q.Q.Q.",
"Q.Q.Q.Q.Q.Q.Q.Q.Q.Q.Q.Q.Q.Q.Q.Q.Q.Q.Q.Q.Q.Q.Q.Q.Q.Q.Q.Q.Q.Q.Q.Q.Q.Q.Q.Q.Q.Q.Q.Q.Q.Q.Q.Q.Q.Q.Q.Q."
};
