/* XPM */
static char *_c8b24b2de30490eae8a86d9aa06310dqBTinpYXZrQAPFKF[] = {
/* columns rows colors chars-per-pixel */
"48 48 215 2 ",
"   c #050406",
".  c #17090A",
"X  c #0A1218",
"o  c #141012",
"O  c #151214",
"+  c #1C1314",
"@  c #1F1A1B",
"#  c #18181C",
"$  c #2A0C08",
"%  c #330501",
"&  c #28140A",
"*  c #3B190B",
"=  c #3C0F12",
"-  c #281916",
";  c #231C1C",
":  c #2A1D1B",
">  c #381617",
",  c #2A2B1B",
"<  c #352517",
"1  c #161B23",
"2  c #1D2023",
"3  c #262222",
"4  c #262626",
"5  c #2C2A24",
"6  c #2C2A29",
"7  c #342D29",
"8  c #2E3625",
"9  c #373923",
"0  c #373529",
"q  c #262F36",
"w  c #302F31",
"e  c #28343B",
"r  c #373736",
"t  c #491809",
"y  c #53110E",
"u  c #441615",
"i  c #581A1A",
"p  c #5B1C1B",
"a  c #691415",
"s  c #731B1E",
"d  c #47210C",
"f  c #5A2F06",
"g  c #4C251C",
"h  c #5F251B",
"j  c #59371B",
"k  c #69290F",
"l  c #683B17",
"z  c #7E1B21",
"x  c #492A25",
"c  c #5E2621",
"v  c #4C3C25",
"b  c #58392F",
"n  c #483B3B",
"m  c #642525",
"M  c #712326",
"N  c #7A3635",
"B  c #3C4326",
"V  c #3E403D",
"C  c #704715",
"Z  c #484625",
"A  c #454B25",
"S  c #554829",
"D  c #505236",
"F  c #64482C",
"G  c #724D2D",
"H  c #755834",
"J  c #5B6A38",
"K  c #63743B",
"L  c #6B763E",
"P  c #72743B",
"I  c #2A3A45",
"U  c #383D43",
"Y  c #38444B",
"T  c #2E4550",
"R  c #364752",
"E  c #3E4B54",
"W  c #3C4D58",
"Q  c #3E5456",
"!  c #3B5463",
"~  c #395665",
"^  c #3E606E",
"/  c #464848",
"(  c #504D46",
")  c #4A5449",
"_  c #54564A",
"`  c #454D54",
"'  c #4C4C50",
"]  c #5B4C54",
"[  c #49545A",
"{  c #57595B",
"}  c #6F5853",
"|  c #695B57",
" . c #5A6747",
".. c #556254",
"X. c #666B4E",
"o. c #6B7E42",
"O. c #727D42",
"+. c #656657",
"@. c #746556",
"#. c #716F57",
"$. c #495963",
"%. c #425C6B",
"&. c #515D65",
"*. c #4A616E",
"=. c #596064",
"-. c #55636C",
";. c #5C656E",
":. c #466374",
">. c #4A6574",
",. c #4B6A78",
"<. c #576B77",
"1. c #5B727D",
"2. c #6B6465",
"3. c #796766",
"4. c #7A716F",
"5. c #6D6F72",
"6. c #61757D",
"7. c #813B1E",
"8. c #882E32",
"9. c #8E3838",
"0. c #923739",
"q. c #825218",
"w. c #904E32",
"e. c #9B563B",
"r. c #84612F",
"t. c #936633",
"y. c #925652",
"u. c #A05F44",
"i. c #8C7151",
"p. c #A76F47",
"a. c #847672",
"s. c #A56B65",
"d. c #6D8141",
"f. c #748343",
"g. c #768B46",
"h. c #7B8948",
"j. c #7C934A",
"k. c #78A158",
"l. c #818E4A",
"z. c #85934D",
"x. c #89964F",
"c. c #8A9B52",
"v. c #8BA353",
"b. c #93A656",
"n. c #91AC57",
"m. c #9BAB5A",
"M. c #9BB75D",
"N. c #A4B35F",
"B. c #A8B15F",
"V. c #888479",
"C. c #95907D",
"Z. c #BE8F60",
"A. c #9FBC60",
"S. c #A6B761",
"D. c #A2BD61",
"F. c #AABC64",
"G. c #A4C263",
"H. c #AEC066",
"J. c #B4C669",
"K. c #B6C96A",
"L. c #BACE6D",
"P. c #BED26F",
"I. c #BFD370",
"U. c #C0D470",
"Y. c #5A7786",
"T. c #5F7F90",
"R. c #637985",
"E. c #667B86",
"W. c #727D85",
"Q. c #5F808C",
"!. c #6B838E",
"~. c #76838C",
"^. c #688694",
"/. c #788B95",
"(. c #77929C",
"). c #7894A2",
"_. c #7EA0AD",
"`. c #978786",
"'. c #91928E",
"]. c #83939D",
"[. c #A89490",
"{. c #8499A3",
"}. c #879AA4",
"|. c #929CA4",
" X c #95A2AA",
".X c #96A9B3",
"XX c #9BABB4",
"oX c #A9A8A9",
"OX c #B5A8A7",
"+X c #ADB4B1",
"@X c #B7B3B3",
"#X c #C9A49D",
"$X c #C8AEA5",
"%X c #C7B8B6",
"&X c #E5BEB4",
"*X c #CEC3BD",
"=X c #EEC9BE",
"-X c #A9B8C1",
";X c #B1BDC4",
":X c #B6C3CA",
">X c #B8C4CB",
",X c #A2C5D1",
"<X c #B5CAD2",
"1X c #D9CCC7",
"2X c #C5D1D7",
"3X c #CAD4DA",
"4X c #CBD6DB",
"5X c #E8D8D1",
"6X c #EBE3DE",
"7X c #FFE5DA",
"8X c #D5DEE2",
"9X c #DCE6EA",
"0X c #FFEDE5",
"qX c #FFF1E8",
"wX c #FFFEFA",
/* pixels */
"U.U.U.U.U.U.U.U.U.U.U.U.U.U.U.U.U.U.U.U.U.U.U.U.U.U.U.U.G.G.G.G.G.G.G.G.G.G.G.G.k.k.k.k.k.k.k.k.",
"U.U.U.U.U.U.U.U.U.U.U.U.U.U.U.U.U.U.U.U.U.U.U.U.U.U.U.U.G.G.G.G.G.G.G.G.G.G.G.G.k.k.k.k.k.k.k.k.",
"U.U.U.U.U.U.U.U.U.U.U.U.U.U.U.U.U.U.U.U.U.U.U.U.U.U.U.U.G.G.G.G.G.G.G.G.G.G.G.G.k.k.k.k.k.k.k.k.",
"U.U.U.U.U.U.U.U.U.U.U.U.U.U.U.U.U.U.U.U.U.U.U.I.P.P.P.P.G.G.G.G.G.G.G.G.G.G.G.G.k.k.k.k.k.k.k.k.",
"U.U.U.U.U.U.U.U.U.U.U.U.U.U.U.U.U.U.U.U.U.U.U.P.P.P.P.P.P.U.U.U.G.G.G.G.G.G.G.G.k.k.k.k.k.k.k.k.",
"U.U.U.U.U.U.U.U.U.U.U.U.U.U.U.U.U.U.U.U.U.P.U.U.U.U.U.U.U.U.I.U.G.G.G.G.G.G.G.G.k.k.k.k.k.k.k.k.",
"U.U.U.U.U.U.U.U.U.U.U.U.U.U.U.U.U.U.U.U.U.P.U.U.U.U.U.U.U.P.P.U.G.G.G.G.G.G.G.G.k.k.k.k.k.k.k.k.",
"U.U.U.U.U.U.U.U.U.U.U.U.U.U.U.U.U.U.U.P.U.U.U.S.m.m.m.m.F.U.U.P.G.G.G.G.G.G.G.G.k.k.k.k.k.k.k.k.",
"U.U.U.U.U.U.U.U.U.U.U.U.U.U.U.U.U.U.U.P.U.U.J.L 9 9 9 9 o.D.G.G.D.G.G.G.G.G.G.G.k.k.k.k.k.k.k.k.",
"U.U.U.U.U.U.U.U.U.U.U.U.U.U.U.U.U.P.I.U.U.N.z.r Y ` U 6 B g.n.G.G.G.G.G.G.G.G.G.k.k.k.k.k.k.k.k.",
"U.U.U.U.U.U.U.U.U.U.U.U.U.U.U.U.U.P.U.U.K.L 6 R Y.E.&.0 + ; o.D.G.G.D.G.G.G.G.G.k.k.k.k.k.k.k.k.",
"U.U.U.U.U.U.U.U.U.U.U.U.U.U.U.P.P.U.U.N.z.+.W.<.1.Q.[ 8 @ ` ..g.n.G.G.G.G.G.G.G.k.k.k.k.k.k.k.k.",
"U.U.U.U.U.U.U.U.U.U.U.U.U.U.U.P.U.U.K.L r oX3X{.>.:.Y @ r 6.-.4 d.D.G.G.G.G.G.G.G.G.G.G.k.k.k.k.",
"U.U.U.U.U.U.U.U.U.U.U.U.U.P.U.U.U.N.l._ ~.2X9X:X/.,.*.;.=.) ` ` _ g.v.G.G.G.G.G.G.G.G.G.k.k.k.k.",
"U.U.U.U.U.U.U.U.U.U.U.U.U.P.U.P.K.f.w ~.<X2X3X8X-XE./.-X~.3 r R.-.3 f.G.G.G.G.G.G.G.G.G.k.k.k.k.",
"U.U.U.U.U.U.U.U.U.U.U.P.P.P.P.m.h.) ;. X<X2X3X9X:X/.{.<X|.R Q !.-.3 d.G.G.G.G.G.G.G.G.G.k.k.k.k.",
"U.U.U.U.U.U.U.U.U.U.U.P.U.U.P.h.3 -.{..XXX>X3X3X;X}.{..X(.:.>.R.[ 4 g.G.G.G.G.G.G.G.G.G.k.k.k.k.",
"U.U.U.U.U.U.U.U.U.P.P.U.U.U.U.l.4 ;.}.{.].XX:X>X+X|./.!.$.I [ R.&.5 g.D.G.G.G.G.G.G.G.G.k.k.k.k.",
"U.U.U.U.U.U.U.U.U.U.U.L.K.K.J.h.7 =./.!.!.}.XX.X X].!.>.e + V 6.&.; g.G.G.G.G.G.G.G.G.G.k.k.k.k.",
"U.U.U.U.U.U.U.P.P.U.U.S.f.O.O.D 6 &.!.!.W./.(.^.T.Y.Y.>.I + / R.&.@ j.G.G.G.G.G.G.G.G.G.k.k.k.k.",
"U.U.U.U.U.U.U.U.U.P.J.l.+ w n : @ E R.!.!.!.1.W I R %.:.I O r 1.-.6 d.M.A.G.G.G.G.G.G.G.k.k.k.k.",
"U.U.U.U.U.P.P.U.U.F.O.A   4.OX| . q <.R.E.^.$.+ . - U ~ I   4 ,.Y.W D K v.G.G.G.G.G.G.G.k.k.k.k.",
"U.U.U.U.U.P.P.L.J.z.O ; ( [.OX2.4 I ,.Y.<.! Y n g % > ;.<./ w I ^ ,.E ; f.G.G.G.G.G.G.G.k.k.k.k.",
"U.U.U.I.P.U.I.S.O.A   2.@XV.r e %.%.:.Y.! X r @XOXi y [.8X*X@.O e ,.$.3 f.G.G.G.G.G.G.G.k.k.k.k.",
"U.U.U.P.P.U.U.b.; 6 _ '.oX3.5 e ~ ! W ! I - 3.wXwXs.y.=XwXwX$X} U W ) J c.G.G.G.G.G.G.G.k.k.k.k.",
"U.U.U.P.P.U.U.b.+ 4.%XV.w | `.{ 1 1 4 2 w } #X0XqX=X&X7X0X7X7X5X`.w K M.M.G.G.G.G.G.G.G.k.k.k.k.",
"U.U.U.I.P.U.U.S.f.V.OX4.0 | `.@.< & o   5 `.%X%X%X6X5X%X%X1X6X1XC.K v.G.G.G.G.G.G.G.G.G.k.k.k.k.",
"U.U.U.U.U.P.P.L.K.x.r a.[.2.6 F r.v X   4 5.].W.].-XXXW.].:X X/ d.A.G.G.G.G.G.G.G.G.G.G.k.k.k.k.",
"U.U.U.U.U.P.P.U.U.F.f.#.`.| < j G g $ = 7 Y ~ ,.T.).).^.^.!.' & K n.M.G.G.G.G.G.G.G.G.G.k.k.k.k.",
"U.U.U.U.U.U.U.U.U.P.K.z.7 H r.S - = a s p - q >.E.Y.).XX^.e < h j A j.G.G.G.G.G.G.G.G.G.k.k.k.k.",
"U.U.U.U.U.U.U.P.P.U.U.F.f.P H D e ] y.N u $ : / { ] 2.`.3.x t c b U  .v.M.G.G.G.G.G.G.G.k.k.k.k.",
"U.U.U.U.U.U.U.U.U.U.U.P.L.z.5 / R.XX|.' . $ t d g c m m N 9.m - Y <.{ B j.G.G.G.G.G.G.G.k.k.k.k.",
"U.U.U.U.U.U.U.U.G.D.D.G.U.z.# [ {.,X_.T   $ t t y s s a z 8.p O Q (.;.3 d.G.G.G.G.G.G.G.k.k.k.k.",
"U.U.U.U.U.U.U.U.G.G.G.G.U.z.; [ !.(.1.e + & t p M 8.0.9.8.M u + Q E.&.; g.G.G.G.G.G.G.G.k.k.k.k.",
"U.U.U.U.U.U.U.U.G.G.G.G.P.N.x. .` E / v f f k k 7.e.u.u.e.w.j : q `  .g.n.G.G.G.G.G.G.G.k.k.k.k.",
"U.U.U.U.U.U.U.U.G.G.G.G.U.U.P.l.; # , C q.q.C C q.t.t.t.p.Z.i.5 o @ g.G.G.G.G.G.G.G.G.G.k.k.k.k.",
"U.U.U.U.U.U.U.U.U.U.U.P.U.U.I.F.x.A : D @.X.+.#.@.H l l i.@X'.7 D g.n.G.G.G.G.G.k.k.k.k.k.k.k.k.",
"U.U.U.U.U.U.U.U.U.U.U.U.U.P.U.U.P.h.5 E >.%.:.Y.;.x % % } XX/.6 d.G.G.G.G.G.G.G.k.k.k.k.k.k.k.k.",
"U.U.U.U.U.U.U.U.U.U.U.U.U.P.P.U.U.F.c.X.Y / ( _ n < . . D 3.| 0 g.G.G.G.D.G.G.G.k.k.k.k.k.k.k.k.",
"U.U.U.U.U.U.U.U.U.U.U.U.U.U.U.P.I.U.L.O.- * d t * 9 8 # > h p : d.D.G.G.G.G.G.G.k.k.k.k.k.k.k.k.",
"U.U.U.U.U.U.U.U.U.U.U.U.U.U.U.P.P.U.P.L - t t * A b.c.4 u a p : f.L.I.U.G.G.G.G.k.k.k.k.k.k.k.k.",
"U.U.U.U.U.U.U.U.U.U.U.U.U.U.U.P.U.P.K.h.B Z Z Z h.I.K.L S G F Z x.P.U.U.G.G.G.G.k.k.k.k.k.k.k.k.",
"U.U.U.U.U.U.U.U.U.U.U.U.U.U.U.I.U.I.P.F.v.v.v.v.F.U.U.F.B.B.B.N.H.P.U.U.G.G.G.G.k.k.k.k.k.k.k.k.",
"U.U.U.U.U.U.U.U.U.U.U.U.U.U.U.U.U.U.U.U.G.G.G.G.U.P.U.U.U.U.U.U.U.U.U.U.G.G.G.G.k.k.k.k.k.k.k.k.",
"U.U.U.U.U.U.U.U.U.U.U.U.U.U.U.U.U.U.U.U.U.U.U.U.U.U.U.U.U.U.U.U.U.U.U.U.G.G.G.G.G.G.G.G.k.k.k.k.",
"U.U.U.U.U.U.U.U.U.U.U.U.U.U.U.U.U.U.U.P.P.P.P.P.P.U.U.P.P.P.P.P.P.U.U.U.G.G.G.G.G.G.G.G.k.k.k.k.",
"U.U.U.U.U.U.U.U.U.U.U.U.U.U.U.U.U.U.U.U.I.U.U.I.I.U.U.I.U.U.U.I.U.U.U.U.G.G.G.G.G.G.G.G.k.k.k.k.",
"U.U.U.U.U.U.U.U.U.U.U.U.U.U.U.U.U.U.U.U.U.U.U.U.U.U.U.U.U.U.U.U.U.U.U.U.G.G.G.G.G.G.G.G.k.k.k.k."
};
