/* XPM */
static char *_e66dab2d4324a2dd856086298b06a79hxgUWeGlDbJ9y7kb[] = {
/* columns rows colors chars-per-pixel */
"48 48 218 2 ",
"   c #050406",
".  c #17090A",
"X  c #0A1218",
"o  c #141012",
"O  c #151214",
"+  c #1C1314",
"@  c #1F1A1B",
"#  c #18181C",
"$  c #2A0C08",
"%  c #330501",
"&  c #28140A",
"*  c #3B190B",
"=  c #3C0F12",
"-  c #231C1C",
";  c #291A18",
":  c #381617",
">  c #28231A",
",  c #352517",
"<  c #30331C",
"1  c #161B23",
"2  c #1D2023",
"3  c #262222",
"4  c #262626",
"5  c #2C2A24",
"6  c #2C2A29",
"7  c #332D28",
"8  c #2E3625",
"9  c #373923",
"0  c #373429",
"q  c #262F36",
"w  c #302F31",
"e  c #28343B",
"r  c #383837",
"t  c #491809",
"y  c #53110E",
"u  c #441615",
"i  c #581A1A",
"p  c #5B1C1B",
"a  c #691415",
"s  c #731B1E",
"d  c #47210C",
"f  c #5A2F06",
"g  c #4C251C",
"h  c #5B3119",
"j  c #69290F",
"k  c #683B17",
"l  c #7E1B21",
"z  c #492A25",
"x  c #5E2621",
"c  c #4C3C25",
"v  c #5C3823",
"b  c #483B3B",
"n  c #57383A",
"m  c #642525",
"M  c #712326",
"N  c #7A3635",
"B  c #37421E",
"V  c #3A4620",
"C  c #704715",
"Z  c #464928",
"A  c #554827",
"S  c #495329",
"D  c #504D3B",
"F  c #64482C",
"G  c #724D2D",
"H  c #755834",
"J  c #5C6936",
"K  c #62743B",
"L  c #6A793E",
"P  c #72743B",
"I  c #2A3A45",
"U  c #383D43",
"Y  c #38444B",
"T  c #2E4550",
"R  c #364752",
"E  c #3E4B54",
"W  c #3C4D58",
"Q  c #3B5463",
"!  c #395665",
"~  c #3E606E",
"^  c #464847",
"/  c #504D46",
"(  c #4B5449",
")  c #53564A",
"_  c #454D54",
"`  c #4C4C50",
"'  c #5B4C54",
"]  c #465559",
"[  c #58595C",
"{  c #6F5853",
"}  c #695B57",
"|  c #5C654F",
" . c #656C4E",
".. c #6F744E",
"X. c #676757",
"o. c #746556",
"O. c #495963",
"+. c #425C6B",
"@. c #515D65",
"#. c #4A616E",
"$. c #5A6164",
"%. c #55636C",
"&. c #5C656E",
"*. c #466374",
"=. c #4A6574",
"-. c #4A6A79",
";. c #576B77",
":. c #5B727D",
">. c #6A6365",
",. c #796766",
"<. c #7A716F",
"1. c #6D6F72",
"2. c #62767E",
"3. c #813B1E",
"4. c #882E32",
"5. c #8E3838",
"6. c #923739",
"7. c #825218",
"8. c #904E32",
"9. c #9B563B",
"0. c #84612F",
"q. c #936633",
"w. c #925652",
"e. c #A05F44",
"r. c #8C7251",
"t. c #A76F47",
"y. c #837A76",
"u. c #A56B65",
"i. c #6D8141",
"p. c #698B4D",
"a. c #728443",
"s. c #758A46",
"d. c #798847",
"f. c #7D8A4A",
"g. c #7D934A",
"h. c #779F57",
"j. c #77A057",
"k. c #77A058",
"l. c #78A158",
"z. c #818E4B",
"x. c #86934C",
"c. c #89974F",
"v. c #889B50",
"b. c #8C9B52",
"n. c #8BA554",
"m. c #91AB57",
"M. c #94A758",
"N. c #9BAB5A",
"B. c #96B25B",
"V. c #9AB65D",
"C. c #9DBA5F",
"Z. c #A3B25E",
"A. c #A8B15F",
"S. c #878378",
"D. c #95907D",
"F. c #BE8F60",
"G. c #9FBC60",
"H. c #A6B760",
"J. c #A1BF61",
"K. c #ABBD64",
"L. c #A4C263",
"P. c #B4C76A",
"I. c #B6C96A",
"U. c #B9CD6C",
"Y. c #BED26F",
"T. c #BFD370",
"R. c #C0D470",
"E. c #5A7786",
"W. c #5F7F90",
"Q. c #637985",
"!. c #667B87",
"~. c #727D85",
"^. c #5F808C",
"/. c #6C838E",
"(. c #76838C",
"). c #688694",
"_. c #788B95",
"`. c #78929D",
"'. c #7894A2",
"]. c #7EA0AD",
"[. c #978786",
"{. c #90928E",
"}. c #83939D",
"|. c #A79490",
" X c #8499A3",
".X c #879AA4",
"XX c #929CA4",
"oX c #95A2AA",
"OX c #96A9B3",
"+X c #9BABB4",
"@X c #A9A8A9",
"#X c #B5A8A7",
"$X c #ADB4B1",
"%X c #B9B4B3",
"&X c #C9A49D",
"*X c #C8AEA5",
"=X c #C8B8B6",
"-X c #E5BEB4",
";X c #CEC3BD",
":X c #EEC9BE",
">X c #A9B8C1",
",X c #B1BDC4",
"<X c #B6C3CA",
"1X c #B8C4CB",
"2X c #A2C5D1",
"3X c #B5CAD2",
"4X c #D9CCC7",
"5X c #C5D1D7",
"6X c #CAD4DA",
"7X c #CBD6DB",
"8X c #E8D8D1",
"9X c #EBE3DE",
"0X c #FFE5DA",
"qX c #D5DEE2",
"wX c #DCE6EA",
"eX c #FFEDE5",
"rX c #FFF1E8",
"tX c #FFFEFA",
/* pixels */
"l.l.l.l.L.L.L.L.L.L.L.L.R.R.R.R.R.R.R.R.R.R.R.R.R.R.R.R.R.R.R.R.R.R.R.R.L.L.L.L.L.L.L.L.l.l.l.l.",
"l.l.l.l.L.L.L.L.L.L.L.L.R.R.R.R.R.R.R.R.R.R.R.R.R.R.R.R.R.R.R.R.R.R.R.R.L.L.L.L.L.L.L.L.l.l.l.l.",
"l.l.l.l.L.L.L.L.L.L.L.L.R.R.R.R.R.R.R.R.R.R.R.R.R.R.R.R.R.R.R.R.R.R.R.R.L.L.L.L.L.L.L.L.l.l.l.l.",
"l.l.l.l.L.L.L.L.L.L.L.L.R.R.R.R.R.R.R.R.R.R.R.T.Y.Y.Y.Y.T.R.R.R.R.R.R.R.L.L.L.L.L.L.L.L.l.l.l.l.",
"l.l.l.l.L.L.L.L.L.L.L.L.R.R.R.R.R.R.R.R.R.R.R.Y.Y.Y.Y.Y.Y.R.R.R.R.R.R.R.L.L.L.L.L.L.L.L.l.l.l.l.",
"l.l.l.l.L.L.L.L.L.L.L.L.R.R.R.R.R.R.R.R.R.Y.R.R.R.R.R.R.R.R.T.R.R.R.R.R.L.L.L.L.L.L.L.L.l.l.l.l.",
"l.l.l.l.L.L.L.L.L.L.L.L.R.R.R.R.R.R.R.R.R.Y.R.R.R.R.R.R.R.Y.Y.R.R.R.R.R.L.L.L.L.L.L.L.L.l.l.l.l.",
"l.l.l.l.L.L.L.L.L.L.L.L.R.R.R.R.R.R.R.Y.R.R.R.H.N.N.N.N.K.R.R.Y.Y.R.R.R.L.L.L.L.L.L.L.L.l.l.l.l.",
"l.l.l.l.L.L.L.L.L.L.L.L.R.R.R.R.R.R.R.Y.R.R.P.L 9 9 9 9 f.U.T.T.J.L.L.L.L.L.L.L.L.L.L.L.l.l.l.l.",
"l.l.l.l.L.L.L.L.L.L.L.L.R.R.R.R.R.Y.T.R.R.Z.x.r Y _ U 6 Z b.K.R.L.L.L.L.L.L.L.L.L.L.L.L.l.l.l.l.",
"l.l.l.l.L.L.L.L.L.L.L.L.R.R.R.R.R.Y.R.R.I.L 6 R E.!.@.0 + > f.Y.L.L.J.L.L.L.L.L.L.L.L.L.l.l.l.l.",
"l.l.l.l.L.L.L.L.L.L.L.L.R.R.R.Y.Y.R.R.Z.x.X.~.;.:.^.] < @ _ | v.m.L.L.L.L.L.L.L.L.L.L.L.l.l.l.l.",
"l.l.l.l.l.l.l.l.L.L.L.L.L.L.L.L.R.R.I.L r @X6X X=.*.T @ r 2.%.4 i.J.L.L.L.L.L.L.l.l.l.l.l.l.l.l.",
"l.l.l.l.l.l.l.l.L.L.L.L.L.L.L.L.R.Z.z.) (.5XwX<X_.;.#.&.$.( _ _ ) s.n.L.L.L.L.L.l.l.l.l.l.l.l.l.",
"l.l.l.l.l.l.l.l.L.L.L.L.L.L.L.L.I.a.w (.3X5X6XqX>X!._.>X(.3 r Q.%.3 a.L.L.L.L.L.l.l.l.l.l.l.l.l.",
"l.l.l.l.l.l.l.l.L.L.L.L.L.J.J.n.f.( &.oX3X5X6XwX<X_. X3XXXR ] /.%.3 i.L.L.L.L.L.l.l.l.l.l.l.l.l.",
"l.l.l.l.l.l.l.l.L.L.L.L.L.L.L.L 3 %. XOX+X1X6X6X,X.X XOX`.*.=.Q.] 4 s.L.L.L.L.L.l.l.l.l.l.l.l.l.",
"l.l.l.l.l.l.l.l.L.L.J.L.L.L.L.i.4 &. X X}.+X<X1X$XXX_./.O.I ] Q.@.5 s.J.L.L.L.L.l.l.l.l.l.l.l.l.",
"l.l.l.l.l.l.l.l.L.L.L.J.C.C.V.L 7 $._././..X+XOXoX}./.=.e + r 2.@.- s.L.L.L.L.L.l.l.l.l.l.l.l.l.",
"l.l.l.l.l.l.l.h.J.L.L.m.K K K S 6 @././.~._.`.).W.E.E.=.I + ^ Q.@.@ g.L.L.L.L.L.l.l.l.l.l.l.l.l.",
"l.l.l.l.l.l.l.l.L.J.V.i.+ w b - @ E Q./././.:.W I R Q *.I O r :.%.6 i.V.G.L.L.L.l.l.l.l.l.l.l.l.",
"l.l.l.l.l.j.j.l.L.m.K B   <.#X} . q ;.Q.!.).O.+ . ; U ! I   4 ;.E.W D K n.L.L.L.j.l.l.l.l.l.l.l.",
"l.l.l.l.l.j.j.h.V.a.O - / |.#X>.4 I -.E.;.Q Y b g % : &.;.^ w I ~ -.E - a.L.L.L.h.l.l.l.l.l.l.l.",
"l.l.l.l.k.l.l.p.K V   >.%XS.r e +.+.*.E.Q X r $X#Xi y |.qX;Xo.O e -.O.3 a.L.L.L.h.l.l.l.l.l.l.l.",
"l.l.l.j.L.L.L.g.- 6 / {.@X,.5 e ! Q W Q I ; ,.tXtXu.w.:XtXtX*X{ U W ( J v.L.L.L.L.L.L.L.l.l.l.l.",
"l.l.l.j.L.L.L.g.+ <.%Xy.w } [.[ 1 1 4 2 w { &XeXrX:X-X0XeX0X0X8X[.w K B.C.L.L.L.L.L.L.L.l.l.l.l.",
"l.l.l.l.L.L.L.n.K S.#X<.0 } [.o., & o   5 [.=X=X=X9X8X=X=X4X9X4XD.K n.L.L.L.L.L.L.L.L.L.l.l.l.l.",
"l.l.l.l.L.L.L.J.V.s.r y.|.>.6 F 0.c X   4 1.}.~.}.>X+X~.}.<XoX^ i.C.L.L.L.L.L.L.L.L.L.L.l.l.l.l.",
"l.l.l.l.L.L.L.L.L.m.K X.[.} , h G g $ = 7 Y ! -.W.'.'.).)./.` & a.K.U.R.L.L.L.L.L.L.L.L.l.l.l.l.",
"l.l.l.l.L.L.L.L.L.L.C.a.7 H 0.A ; = a s p ; q =.!.E.'.+X/.e , x v S M.R.L.L.L.L.L.L.L.L.l.l.l.l.",
"l.l.l.l.L.L.L.L.J.L.L.m.d.P H D e ' w.N u $ ; ^ [ ' >.[.,.z t x n U ..N.B.L.L.L.L.L.L.L.l.l.l.l.",
"l.l.l.l.L.L.L.L.L.L.L.L.U.x.7 ^ Q.+XXX` . $ t d g x m m N 5.m ; Y ;.[ Z g.L.L.L.L.L.L.L.l.l.l.l.",
"l.l.l.l.L.L.L.L.L.J.J.L.R.x.# ]  X2X].T   $ t t y s s a l 4.p O ] `.&.3 i.L.L.L.L.L.L.L.l.l.l.l.",
"l.l.l.l.L.L.L.L.L.L.L.L.R.x.- ] /.`.:.e o $ t p M 4.6.5.4.M u + _ !.@.- s.L.L.L.L.L.L.L.l.l.l.l.",
"l.l.l.l.L.L.L.L.L.L.L.L.Y.Z.c.| _ E ^ c f f j j 3.9.e.e.9.8.v > q _  .b.m.L.L.L.L.L.L.L.l.l.l.l.",
"l.l.l.l.L.L.L.L.L.L.L.L.R.R.Y.z.- # < C 7.7.C C 7.q.q.q.t.F.r.7 o @ c.Y.L.L.L.L.L.L.L.L.l.l.l.l.",
"l.l.l.l.L.L.L.L.L.L.L.L.L.L.L.m.c.Z ; D o. .X.X.o.H k k r.%X{.7 J b.K.R.L.L.L.L.L.L.L.L.l.l.l.l.",
"l.l.l.l.L.L.L.L.L.L.L.L.L.J.L.L.Y.f.5 E =.+.*.E.&.z % % { +X_.6 z.Y.R.T.L.L.L.L.L.L.L.L.l.l.l.l.",
"l.l.l.l.L.L.L.L.L.L.L.L.L.L.L.L.R.K.b. .Y ^ / ) b , . . D ,.} 0 c.R.R.Y.J.L.L.L.L.L.L.L.l.l.l.l.",
"l.l.l.l.L.L.L.L.L.L.L.L.L.L.L.J.T.R.U...; * d t * 9 8 # : x p - f.Y.T.R.L.L.L.L.L.L.L.L.l.l.l.l.",
"l.l.l.l.l.l.l.l.L.L.L.L.L.L.L.J.Y.R.Y.L ; t t * Z M.b.4 u a p - K J.L.L.L.L.L.L.L.L.L.L.l.l.l.l.",
"l.l.l.l.l.l.l.l.L.L.L.L.L.L.L.L.R.Y.I.f.Z A A Z f.T.U.L A G F Z s.J.L.L.L.L.L.L.L.L.L.L.l.l.l.l.",
"l.l.l.l.l.l.l.l.L.L.L.L.L.L.L.L.R.T.Y.K.Z.Z.Z.Z.K.R.R.K.A.A.A.Z.B.L.L.L.L.L.L.L.L.L.L.L.l.l.l.l.",
"l.l.l.l.l.l.l.l.L.L.L.L.L.L.L.L.R.R.R.R.R.R.R.R.R.Y.R.R.R.R.R.R.L.L.L.L.L.L.L.L.L.L.L.L.l.l.l.l.",
"l.l.l.l.l.l.l.l.L.L.L.L.L.L.L.L.L.L.L.L.R.R.R.R.R.R.R.R.R.R.R.R.L.L.L.L.L.L.L.L.L.L.L.L.l.l.l.l.",
"l.l.l.l.l.l.l.l.L.L.L.L.L.L.L.L.L.L.L.L.Y.Y.Y.Y.Y.R.R.Y.Y.Y.Y.Y.L.L.L.L.L.L.L.L.L.L.L.L.l.l.l.l.",
"l.l.l.l.l.l.l.l.L.L.L.L.L.L.L.L.L.L.L.L.T.R.R.T.T.R.R.T.R.R.R.T.L.L.L.L.L.L.L.L.L.L.L.L.l.l.l.l.",
"l.l.l.l.l.l.l.l.L.L.L.L.L.L.L.L.L.L.L.L.R.R.R.R.R.R.R.R.R.R.R.R.L.L.L.L.L.L.L.L.L.L.L.L.l.l.l.l."
};
