/* XPM */
static char *ee8996326219404394451d6eaf974da0VtBFjJMLNapckVLH[] = {
/* columns rows colors chars-per-pixel */
"48 48 206 2 ",
"   c #070406",
".  c #180808",
"X  c #131013",
"o  c #1C1514",
"O  c #1A181A",
"+  c #1C1C1B",
"@  c #2B0500",
"#  c #340705",
"$  c #291607",
"%  c #37190B",
"&  c #2C0913",
"*  c #231D1C",
"=  c #281918",
"-  c #351C19",
";  c #1C221D",
":  c #2F2915",
">  c #29231B",
",  c #352619",
"<  c #33361E",
"1  c #101A25",
"2  c #231F20",
"3  c #1B2229",
"4  c #1F343F",
"5  c #272221",
"6  c #292424",
"7  c #2C2C24",
"8  c #252729",
"9  c #2D2B29",
"0  c #322A2C",
"q  c #253127",
"w  c #333627",
"e  c #2C2E33",
"r  c #27353B",
"t  c #383838",
"y  c #4D0F0B",
"u  c #461707",
"i  c #461914",
"p  c #591817",
"a  c #5A1D1A",
"s  c #6B1A15",
"d  c #681918",
"f  c #5A2C03",
"g  c #4E2910",
"h  c #46391D",
"j  c #63360B",
"k  c #6A2B15",
"l  c #681E22",
"z  c #4A2623",
"x  c #493A27",
"c  c #5C3026",
"v  c #443B3A",
"b  c #642526",
"n  c #762527",
"m  c #67362B",
"M  c #733333",
"N  c #3B4724",
"B  c #3E423F",
"V  c #64441A",
"C  c #754716",
"Z  c #434927",
"A  c #534F2F",
"S  c #49433C",
"D  c #465A36",
"F  c #6E4D2E",
"G  c #7C5728",
"H  c #7C5C33",
"J  c #496338",
"K  c #4E6A3A",
"L  c #5B6B36",
"P  c #56733E",
"I  c #5F7139",
"U  c #65773C",
"Y  c #67793D",
"T  c #2A3943",
"R  c #343E45",
"E  c #37454B",
"W  c #39424A",
"Q  c #2F4350",
"!  c #394A55",
"~  c #3F5157",
"^  c #3B5767",
"/  c #464948",
"(  c #504F4A",
")  c #515B43",
"_  c #55504C",
"`  c #434C53",
"'  c #4C575A",
"]  c #575859",
"[  c #685B58",
"{  c #735757",
"}  c #57664D",
"|  c #5B7B43",
" . c #697A44",
".. c #696558",
"X. c #727050",
"o. c #455B67",
"O. c #535D64",
"+. c #585E64",
"@. c #4D606B",
"#. c #57636C",
"$. c #466373",
"%. c #4B6674",
"&. c #4C6978",
"*. c #556B77",
"=. c #5B717C",
"-. c #6C6568",
";. c #766A6A",
":. c #6D6E74",
">. c #64757D",
",. c #852523",
"<. c #832F36",
"1. c #893232",
"2. c #943938",
"3. c #835319",
"4. c #864B2E",
"5. c #885C26",
"6. c #964F34",
"7. c #93662B",
"8. c #926633",
"9. c #A37334",
"0. c #8D514E",
"q. c #946D56",
"w. c #AB7B48",
"e. c #857773",
"r. c #6C803F",
"t. c #6E8242",
"y. c #6A874A",
"u. c #66884A",
"i. c #6A8E4E",
"p. c #728543",
"a. c #748A45",
"s. c #778A49",
"d. c #6C914E",
"f. c #7B924B",
"g. c #6C9250",
"h. c #769E57",
"j. c #789F57",
"k. c #77A057",
"l. c #78A158",
"z. c #86964F",
"x. c #8AA352",
"c. c #8FAA56",
"v. c #91A856",
"b. c #93AD59",
"n. c #99B55C",
"m. c #9CB95E",
"M. c #A0B05C",
"N. c #858278",
"B. c #94897F",
"V. c #BE8F60",
"C. c #9FBC60",
"Z. c #A2BE61",
"A. c #ADBF64",
"S. c #A4C263",
"D. c #AEC066",
"F. c #B9CC6C",
"G. c #BED26F",
"H. c #BFD370",
"J. c #C0D470",
"K. c #5C7584",
"L. c #5B7988",
"P. c #637A86",
"I. c #677A85",
"U. c #737E86",
"Y. c #6A838E",
"T. c #75828A",
"R. c #6D8491",
"E. c #688694",
"W. c #778A94",
"Q. c #7B929E",
"!. c #7A97A4",
"~. c #7FA0AD",
"^. c #928E8A",
"/. c #9A8D89",
"(. c #83949E",
"). c #889299",
"_. c #A3918E",
"`. c #B39798",
"'. c #869AA3",
"]. c #929CA4",
"[. c #95A4AD",
"{. c #99AAB4",
"}. c #9BB1BC",
"|. c #A8A7A8",
" X c #B5ADAB",
".X c #BBB5AA",
"XX c #A7B4BB",
"oX c #C49F98",
"OX c #CABAB6",
"+X c #E1B7AE",
"@X c #B1E0BE",
"#X c #CFC2BE",
"$X c #EAC4BA",
"%X c #B2BEC4",
"&X c #9DC2CF",
"*X c #9BD4C3",
"=X c #B8C5CB",
"-X c #B4C9D1",
";X c #C8D3D8",
":X c #E5D4CD",
">X c #EDE4DE",
",X c #FFE6DB",
"<X c #D3DCE0",
"1X c #DDE8EB",
"2X c #FFF4EB",
"3X c #FEFDF9",
/* pixels */
"l.l.l.l.l.l.l.l.S.S.S.S.J.J.J.J.J.J.J.J.J.J.J.J.J.J.J.J.J.J.J.J.S.S.S.S.S.S.S.S.S.S.S.S.l.l.l.l.",
"l.l.l.l.l.l.l.l.S.S.S.S.J.J.J.J.J.J.J.J.J.J.J.H.H.H.H.H.J.J.J.J.S.S.S.S.S.S.S.S.S.S.S.S.l.l.l.l.",
"l.l.l.l.l.l.l.l.S.S.S.S.J.J.J.J.J.J.J.J.J.J.J.G.G.G.G.G.G.J.J.J.S.S.S.S.S.S.S.S.S.S.S.S.l.l.l.l.",
"l.l.l.l.l.l.l.l.S.S.S.S.J.J.J.J.J.J.J.J.J.H.J.J.J.J.J.J.J.J.H.J.S.S.S.S.S.S.S.S.S.S.S.S.l.l.l.l.",
"l.l.l.l.l.l.l.l.S.S.S.S.J.J.J.J.J.J.J.J.S.S.S.S.J.J.J.J.J.G.G.J.S.S.S.S.S.S.S.S.S.S.S.S.l.l.l.l.",
"l.l.l.l.l.l.l.l.S.S.S.S.J.J.J.J.J.J.J.G.S.S.S.c.M.M.M.M.D.J.J.H.S.S.S.S.S.S.S.S.S.S.S.S.l.l.l.l.",
"l.l.l.l.l.l.l.l.S.S.S.S.J.J.J.J.J.J.J.G.S.S.m.U Z Z Z Z f.G.J.G.Z.S.S.S.S.S.S.S.S.S.S.S.l.l.l.l.",
"l.l.l.l.l.l.l.l.S.S.S.S.J.J.J.J.J.G.J.J.S.c.a.w W / t 9 Z v.A.J.S.S.S.S.S.S.S.S.S.S.S.S.l.l.l.l.",
"l.l.l.l.S.S.S.S.S.S.S.S.S.S.S.S.J.G.J.J.F. .w Q *.P.O.0 o < t.S.S.S.Z.S.S.S.S.S.S.S.S.S.l.l.l.l.",
"l.l.l.l.S.S.S.S.S.S.S.S.S.S.S.S.H.J.J.Z.z...:.*.K.Y.' < + ` } f.b.S.S.S.S.S.S.S.S.S.S.S.l.l.l.l.",
"l.l.l.l.S.S.S.S.S.S.S.S.S.S.S.Z.J.H.F.p.t |.;X(.%.$.Q o t =.#.7 p.S.S.S.S.S.S.S.S.S.S.S.l.l.l.l.",
"l.l.l.l.S.S.S.S.S.S.S.S.S.S.S.S.J.Z.z.) T.;X1X=XW.%.o.+.] ' ` ` ) s.c.S.S.S.S.S.S.S.S.S.l.l.l.l.",
"l.l.l.l.S.S.S.S.S.S.S.S.S.S.S.S.F.p.9 U.=X;X;X<XXXI.R.}.T.5 t >.#.2 a.S.S.S.S.S.l.l.l.l.l.l.l.l.",
"l.l.l.l.S.S.S.S.S.S.S.S.S.Z.Z.x.z.) #.[.-X;X;X1X=XW.'.-X].W ~ Y.#.5 t.S.S.S.S.S.l.l.l.l.l.l.l.l.",
"l.l.l.l.S.S.S.S.S.S.S.S.S.S.S.t.5 +.(.[.}.=X;X;X%X'.'.{.Q.$.%.P.' 5 a.S.S.S.S.S.l.l.l.l.l.l.l.l.",
"l.l.l.l.S.S.S.S.S.S.S.S.S.S.S.t.6 #.'.'.(.XX=X=XXX].Q.R.@.R ' P.O.7 a.Z.S.S.S.S.l.l.l.l.l.l.l.l.",
"l.l.l.l.l.l.l.l.S.S.S.Z.C.C.m.r.7 #.W.R.R.'.}.{.[.(.R.%.r X B >.O.* a.S.S.S.S.S.l.l.l.l.l.l.l.l.",
"l.l.l.l.l.l.l.h.Z.S.S.b. .Y Y Z 9 O.R.R.U.W.Q.E.E.L.K.$.T o / P.O.o f.S.S.S.S.S.l.l.l.l.l.l.l.l.",
"l.l.l.l.l.l.l.l.S.S.m.p.o 0 0 = * ` P.R.R.R.K.~ Q ! o.$.R o t >.#.8 t.m.Z.S.S.S.l.l.l.l.l.l.l.l.",
"l.l.l.l.l.k.k.l.S.b. .N   ;.|.[ . r *.P.I.E.o.O . = R ^ 4   8 *.K.! D Y x.S.S.S.l.l.l.l.l.l.l.l.",
"l.l.l.l.l.k.k.h.n.a.o o S _..X-.3 T &.K.=.^ E v i @ - #.#.v 0 Q $.&.! * a.S.S.S.h.l.l.l.l.l.l.l.",
"l.l.l.l.l.l.l.i. .Z   [  X^.v R o.o.%.K.^ 1 t |.`.p y _.;XOX[ X r &.o.5 p.S.S.S.h.l.l.l.l.l.l.l.",
"l.l.l.k.j.l.l.| * 5 S ^. X;.5 r ^ ^ ! ^ R = ..3X3Xq.0.$X3X3XoX_ t ~ ` J z.S.S.S.k.l.l.l.l.l.l.l.",
"l.l.l.k.j.l.l.| o ;..XN.t [ /.] 1 1 3 3 0 { oX2X2X$X+X,X2X,X,X:XB.e I b.m.S.S.S.l.l.l.l.l.l.l.l.",
"*X*X*X*Xl.l.l.u.I N. X;.0 [ _.[ = % % . 9 ^.OXOX#X>X>X#XOX:X>X:XB.I x.S.l.l.l.l.l.l.l.l.*X*X*X*X",
"*X*X*X*Xl.k.k.h.n.s.S e./.-.e x G 3.j $ 3 =.).T.).%XXXT.).=X[._ t.m.S.S.l.l.l.l.l.l.l.l.*X*X*X*X",
"*X*X*X*Xl.k.k.l.S.c.L .._.[ : V 9.7.j , 6 W o.&.L.!.!.E.E.R.' . Y n.C.Z.h.l.l.l.l.l.l.l.*X*X*X*X",
"*X*X*X*Xl.l.l.l.S.Z.n.t.t F 5.7.3.h > z a - r %.P.L.!.}.R.r - a V D f.Z.l.l.l.l.l.l.l.l.*X*X*X*X",
"*X*X*X*Xl.l.l.h.h.l.l.u.I L H G g $ & l d & + / +.] :.^.;.z i b z = t.S.l.l.h.l.l.l.l.l.*X*X*X*X",
"*X*X*X*Xl.l.l.l.l.l.l.h.m.p.> > > i d n l - o , g b b b M 1.m , o o a.S.l.l.h.l.l.l.l.l.*X*X*X*X",
"*X*X*X*Xl.l.l.l.l.h.h.l.S.f.+ 3 R { 0.M i - - u p n n s ,.2.m ; q B  .x.g.l.l.l.l.l.l.l.*X*X*X*X",
"*X*X*X*Xl.l.l.l.l.k.l.l.S.a.> W P.{.].( . $ i a n 1.2.2.1.n i o E =.] N | l.l.k.k.l.l.l.*X*X*X*X",
"*X*X*X*Xl.l.l.l.l.k.l.k.Z.r.5 ' !.&X~.Q   @ i p b n <.<.n p # o ' W.#.5 K l.l.k.h.l.l.l.*X*X*X*X",
"*X*X*X*Xl.l.l.l.l.k.l.l.S.p.* ' Y.Q.=.r o % u u i d b l b l i o ~ P.O.* P l.l.k.k.l.l.l.*X*X*X*X",
"*X*X*X*Xl.l.l.l.l.l.l.l.S.c.a.) ` ~ / x f f f f j C 4.F 4.6.m > e ` } s.i.l.l.l.l.l.l.l.*X*X*X*X",
"*X*X*X*Xl.l.l.l.l.l.l.h.S.S.Z.t.* O < V 3.3.C C 3.8.8.8.w.V.q.7 X + s.S.l.l.k.l.l.l.l.l.*X*X*X*X",
"*X*X*X*X*X*X*X*Xl.l.l.l.l.l.l.i.a.N = A X.....;.X.H C k q..X^.0 N P d.l.l.l.l.l.*X*X*X*X*X*X*X*X",
"*X*X*X*X*X*X*X*Xl.l.l.l.l.h.l.l.Z.Y 7 ! $.o.$.L.#.z # # [ {.W.9 K k.l.l.h.l.l.l.*X*X*X*X*X*X*X*X",
"*X*X*X*X*X*X*X*Xl.l.l.l.l.h.l.l.S.c.f.} E W / _ v - . . S ;.[ w P l.l.k.h.l.l.l.*X*X*X*X*X*X*X*X",
"*X*X*X*X*X*X*X*Xl.l.l.l.l.l.l.h.S.S.m.U = % u u % w q O - d a * K h.l.l.h.l.l.l.*X*X*X*X*X*X*X*X",
"*X*X*X*X*X*X*X*X*X*X*X*Xl.l.l.h.k.l.h.D = u u % < | | 3 i s p * J h.l.l.*X*X*X*X*X*X*X*X@X@X@X@X",
"*X*X*X*X*X*X*X*X*X*X*X*Xl.l.l.h.l.k.h.K w h h w K l.h.D x m c w P h.l.l.*X*X*X*X*X*X*X*X@X@X@X@X",
"*X*X*X*X*X*X*X*X*X*X*X*Xl.l.l.l.l.l.h.i.u.y.y.u.g.l.l.i.y.s.y.u.g.k.l.l.*X*X*X*X*X*X*X*X@X@X@X@X",
"*X*X*X*X*X*X*X*X*X*X*X*Xl.l.l.l.l.l.l.l.l.l.l.l.l.k.l.l.l.l.l.l.l.l.l.l.*X*X*X*X*X*X*X*X@X@X@X@X",
"*X*X*X*X*X*X*X*X*X*X*X*X*X*X*X*Xl.l.l.l.l.l.l.l.l.k.k.l.l.l.l.l.*X*X*X*X*X*X*X*X*X*X*X*X*X*X*X*X",
"*X*X*X*X*X*X*X*X*X*X*X*X*X*X*X*Xl.l.l.k.h.h.h.h.k.l.l.k.h.j.h.h.*X*X*X*X*X*X*X*X*X*X*X*X*X*X*X*X",
"*X*X*X*X*X*X*X*X*X*X*X*X*X*X*X*Xl.l.l.l.l.l.l.l.l.l.l.l.l.l.l.l.*X*X*X*X*X*X*X*X*X*X*X*X*X*X*X*X",
"*X*X*X*X*X*X*X*X*X*X*X*X*X*X*X*Xl.l.l.l.l.l.l.l.l.l.l.l.l.l.l.l.*X*X*X*X*X*X*X*X*X*X*X*X*X*X*X*X"
};
