/* XPM */
static char *fdbcf997319940f6b51465299d35e635uYDVno3EIDaBqBpd[] = {
/* columns rows colors chars-per-pixel */
"48 48 215 2 ",
"   c #050406",
".  c #17090A",
"X  c #0A1218",
"o  c #141012",
"O  c #151214",
"+  c #1C1314",
"@  c #1B191B",
"#  c #2A0B08",
"$  c #330501",
"%  c #28140A",
"&  c #3B190A",
"*  c #3C0F12",
"=  c #281916",
"-  c #231C1C",
";  c #2A1D1B",
":  c #371816",
">  c #19241F",
",  c #242219",
"<  c #342517",
"1  c #32351D",
"2  c #161B23",
"3  c #1D2023",
"4  c #262222",
"5  c #272627",
"6  c #2B2A23",
"7  c #2C2A29",
"8  c #352D29",
"9  c #283223",
"0  c #363924",
"q  c #353328",
"w  c #262F36",
"e  c #302F31",
"r  c #28343B",
"t  c #373736",
"y  c #481809",
"u  c #53110E",
"i  c #441615",
"p  c #581A1A",
"a  c #5B1C1B",
"s  c #691415",
"d  c #731B1E",
"f  c #46200B",
"g  c #5A2F06",
"h  c #4C251C",
"j  c #4E311C",
"k  c #59371B",
"l  c #683011",
"z  c #7E1B21",
"x  c #5D2621",
"c  c #4A3B26",
"v  c #52332A",
"b  c #483B3B",
"n  c #642525",
"m  c #712326",
"M  c #743731",
"N  c #3B4625",
"B  c #3E403D",
"V  c #704715",
"C  c #444C25",
"Z  c #514D2E",
"A  c #534639",
"S  c #455936",
"D  c #74532D",
"F  c #6F5331",
"G  c #496338",
"H  c #4E6A3A",
"J  c #5B6A38",
"K  c #56733E",
"L  c #63743B",
"P  c #6C7A3F",
"I  c #72743B",
"U  c #2A3A45",
"Y  c #383D43",
"T  c #38444A",
"R  c #2E4550",
"E  c #3A4953",
"W  c #3C4D58",
"Q  c #3E5655",
"!  c #3B5463",
"~  c #395665",
"^  c #3E606E",
"/  c #474848",
"(  c #504D45",
")  c #4B5449",
"_  c #535749",
"`  c #464D53",
"'  c #5B4C54",
"]  c #47545A",
"[  c #57595B",
"{  c #6F5853",
"}  c #695B57",
"|  c #586849",
" . c #5A7A43",
".. c #556254",
"X. c #736B4F",
"o. c #6B7E42",
"O. c #717C42",
"+. c #6A6A57",
"@. c #746259",
"#. c #495963",
"$. c #425C6B",
"%. c #515D65",
"&. c #4A616E",
"*. c #55636C",
"=. c #5B646A",
"-. c #466373",
";. c #4B6876",
":. c #576B77",
">. c #5B727D",
",. c #6B6465",
"<. c #786766",
"1. c #7A716F",
"2. c #6D6F72",
"3. c #62767E",
"4. c #813B1E",
"5. c #882E32",
"6. c #8F3738",
"7. c #825218",
"8. c #975338",
"9. c #84612F",
"0. c #936633",
"q. c #925652",
"w. c #A05F44",
"e. c #8C7151",
"r. c #A76F47",
"t. c #847672",
"y. c #A56B65",
"u. c #6D8142",
"i. c #6A874A",
"p. c #67894B",
"a. c #738443",
"s. c #758A45",
"d. c #798948",
"f. c #6C914E",
"g. c #7C924B",
"h. c #6D9251",
"j. c #769E56",
"k. c #77A057",
"l. c #78A057",
"z. c #77A058",
"x. c #78A158",
"c. c #808D4A",
"v. c #84924D",
"b. c #899752",
"n. c #8BA453",
"m. c #93A356",
"M. c #91AC57",
"N. c #9BAB5A",
"B. c #9BB75E",
"V. c #A4B55F",
"C. c #888479",
"Z. c #95907D",
"A. c #BE8F60",
"S. c #9FBC60",
"D. c #A2BD61",
"F. c #AABB63",
"G. c #A4C263",
"H. c #B4C669",
"J. c #B6C96A",
"K. c #BBCE6D",
"L. c #BED26F",
"P. c #BFD370",
"I. c #C0D470",
"U. c #5A7786",
"Y. c #5F7F90",
"T. c #637985",
"R. c #667B87",
"E. c #727D85",
"W. c #5F808C",
"Q. c #6B838E",
"!. c #76838C",
"~. c #688694",
"^. c #788B95",
"/. c #77919C",
"(. c #7894A2",
"). c #7EA0AD",
"_. c #978786",
"`. c #91928E",
"'. c #83939C",
"]. c #A89490",
"[. c #8599A3",
"{. c #929CA4",
"}. c #95A2AA",
"|. c #93AAB6",
" X c #98AAB4",
".X c #A9A8A9",
"XX c #B5A8A7",
"oX c #ADB4B1",
"OX c #B7B3B3",
"+X c #C9A49D",
"@X c #C8AEA5",
"#X c #C7B8B6",
"$X c #E5BEB4",
"%X c #AFDDBC",
"&X c #B0DFBD",
"*X c #B1E0BE",
"=X c #CEC3BD",
"-X c #EEC9BE",
";X c #A9B8C1",
":X c #B1BDC4",
">X c #9BD4C3",
",X c #B7C3CA",
"<X c #A1C5D1",
"1X c #B5CAD2",
"2X c #C5D1D7",
"3X c #CBD6DB",
"4X c #D1D0D0",
"5X c #E8D8D1",
"6X c #EBE3DE",
"7X c #FFE5DA",
"8X c #D5DEE2",
"9X c #DCE6EA",
"0X c #FFEDE5",
"qX c #FFF1E8",
"wX c #FFFEFA",
/* pixels */
"I.I.I.I.I.I.I.I.I.I.I.I.G.G.G.G.I.I.I.I.I.I.I.I.I.I.I.I.G.G.G.G.G.G.G.G.G.G.G.G.G.G.G.G.x.x.x.x.",
"I.I.I.I.I.I.I.I.I.I.I.I.G.G.G.G.I.I.I.I.I.I.I.I.I.I.I.I.G.G.G.G.G.G.G.G.G.G.G.G.G.G.G.G.x.x.x.x.",
"I.I.I.I.I.I.I.I.I.I.I.I.G.G.G.G.I.I.I.I.I.I.I.I.I.I.I.I.G.G.G.G.G.G.G.G.G.G.G.G.G.G.G.G.x.x.x.x.",
"I.I.I.I.I.I.I.I.I.I.I.I.G.G.G.G.I.I.I.I.I.I.I.P.L.L.L.L.G.G.G.G.G.G.G.G.G.G.G.G.G.G.G.G.x.x.x.x.",
"I.I.I.I.I.I.I.I.I.I.I.I.I.I.I.I.I.I.I.I.I.I.I.L.L.L.L.L.L.I.I.I.G.G.G.G.G.G.G.G.G.G.G.G.x.x.x.x.",
"I.I.I.I.I.I.I.I.I.I.I.I.I.I.I.I.I.I.I.I.I.L.I.I.I.I.I.I.I.I.P.I.G.G.G.G.G.G.G.G.G.G.G.G.x.x.x.x.",
"I.I.I.I.I.I.I.I.I.I.I.I.I.I.I.I.I.I.I.I.I.L.I.I.I.I.I.I.I.L.L.I.G.G.G.G.G.G.G.G.G.G.G.G.x.x.x.x.",
"I.I.I.I.I.I.I.I.I.I.I.I.I.I.I.I.I.I.I.L.I.I.I.F.N.N.N.N.F.I.I.L.G.G.G.G.G.G.G.G.G.G.G.G.x.x.x.x.",
"I.I.I.I.I.I.I.I.I.I.I.I.I.I.I.I.I.I.I.L.I.I.H.P 0 0 0 0 o.D.G.G.D.G.G.G.G.G.G.G.G.G.G.G.x.x.x.x.",
"I.I.I.I.I.I.I.I.I.I.I.I.I.I.I.I.I.L.P.I.I.V.v.t T ` Y 7 N s.M.G.G.G.G.G.G.G.G.G.G.G.G.G.x.x.x.x.",
"I.I.I.I.I.I.I.I.I.I.I.I.I.I.I.I.I.L.I.I.J.P 7 E U.R.%.q + , o.D.G.G.D.G.G.G.G.G.G.G.G.G.x.x.x.x.",
"I.I.I.I.I.I.I.I.I.I.I.I.I.I.I.L.L.I.I.V.v.+.E.:.>.W.] 1 @ ` ..s.M.G.G.G.G.G.G.G.G.G.G.G.x.x.x.x.",
"I.I.I.I.I.I.I.I.I.I.I.I.I.I.I.L.I.I.J.P t .X3X[.;.-.R @ t 3.*.5 u.D.G.G.G.G.G.G.x.x.x.x.x.x.x.x.",
"I.I.I.I.I.I.I.I.I.I.I.I.I.L.I.I.I.V.c._ !.2X9X,X^.;.&.=.=.) ` ` _ s.n.G.G.G.G.G.x.x.x.x.x.x.x.x.",
"I.I.I.I.I.I.I.I.I.I.I.I.I.L.I.L.J.a.e !.1X2X3X8X;XR.^.;X!.4 t T.*.4 a.G.G.G.G.G.x.x.x.x.x.x.x.x.",
"I.I.I.I.I.I.I.I.I.I.I.L.L.L.L.N.d.) =.}.1X2X3X9X,X^.[.1X{.E ] Q.*.4 u.G.G.G.G.G.x.x.x.x.x.x.x.x.",
"I.I.I.I.I.I.I.I.I.I.I.L.I.I.L.d.4 *.[.|. X,X3X3X:X[.[. X/.&.;.T.] 6 s.G.G.G.G.G.x.x.x.x.x.x.x.x.",
"I.I.I.I.I.I.I.I.I.L.L.I.I.I.I.c.5 =.[.[.'. X,X,XoX{.^.Q.#.U ] T.%.6 s.D.G.G.G.G.x.x.x.x.x.x.x.x.",
"I.I.I.I.I.I.I.I.I.I.I.K.J.J.H.d.8 =.^.Q.Q.[. X|.}.'.Q.-.r + B 3.%.- s.G.G.G.G.G.x.x.x.x.x.x.x.x.",
"I.I.I.I.I.I.I.L.L.I.I.F.a.O.O.Z 7 %.Q.Q.E.^./.~.Y.U.U.-.U + / T.%.@ g.G.G.G.G.G.x.x.x.x.x.x.x.x.",
"I.I.I.I.G.G.G.G.I.L.H.c.+ e b ; @ E T.Q.Q.Q.>.W U R $.-.U O t >.*.5 u.B.S.G.G.G.x.x.x.x.x.x.x.x.",
"I.I.I.I.G.G.G.G.I.F.O.C   1.XX} . w :.T.R.~.#.+ . = Y ~ U   5 ;.U.W S L n.G.G.G.k.x.x.x.x.x.x.x.",
"I.I.I.I.G.G.G.D.H.v.O - ( ].XX,.3 U ;.U.:.! T b h $ : =.:./ e U ^ ;.W ; a.G.G.G.j.x.x.x.x.x.x.x.",
"I.I.I.P.G.G.G.n.O.C   ,.OXC.t r $.$.-.U.! X t OXXXp u ].8X=X@.O r ;.#.4 a.G.G.G.j.x.x.x.x.x.x.x.",
"I.I.I.L.L.I.I.m.- 7 _ `..X<.6 r ~ ! W ! U = <.wXwXy.q.-XwXwX@X{ Y W ) J p.x.j.x.k.x.x.x.>X>X>X>X",
"I.I.I.L.L.I.I.m.+ 1.#XC.e } _.[ 2 2 5 3 e @.+X0XqX-X$X7X0X7X7X5X_.e L B.j.x.j.z.x.x.x.x.>X>X>X>X",
"I.I.I.P.L.I.I.F.a.C.XX1.t } _.@.< % o   6 _.#X#X#X6X5X#X#X4X6X4XZ.L n.G.x.x.z.z.x.x.x.x.>X>X>X>X",
"I.I.I.I.I.L.L.K.J.b.t t.].,.7 Z 9.c X   5 2.'.E.'.;X XE.'.,X}./ u.B.G.G.z.x.x.x.x.x.x.x.>X>X>X>X",
"I.I.I.I.I.L.L.I.I.F.a.+._.} < k D j # * 8 T ~ ;.Y.(.(.~.~.Q.` # L M.B.G.x.x.x.x.x.x.x.x.>X>X>X>X",
"I.I.I.I.I.I.I.I.I.L.J.v.8 F 9.Z = * s d a = w ;.R.U.(.|.~.r : x k C g.G.x.x.k.x.x.x.x.x.>X>X>X>X",
"I.I.I.I.I.I.I.L.L.I.I.F.a.I D A r ' q.M i # ; / [ ' ,._.<.h y x b Y | n.h.x.z.x.x.x.x.x.>X>X>X>X",
"I.I.I.I.I.I.I.I.I.I.I.L.K.v.6 / T. X{.` . # y f h n n n M 6.n = T :.[ N  .x.x.k.k.x.x.x.>X>X>X>X",
"G.G.G.G.I.I.I.I.I.L.L.I.G.s.@ ] [.<X).R   # y y u d d s z 5.a O Q /.=.4 H x.x.k.j.x.x.x.>X>X>X>X",
"G.G.G.G.I.I.I.I.I.L.P.I.G.a.- ] Q./.>.r o # y a m 5.6.6.5.m i + Q R.%.- K x.x.k.k.x.x.x.>X>X>X>X",
"G.G.G.G.I.I.I.I.I.P.I.L.D.n.s._ ` W / c g g g l 4.8.w.w.8.8.k ; w ` | d.p.x.x.x.l.x.x.x.>X>X>X>X",
"G.G.G.G.I.I.I.I.I.I.I.L.G.G.D.u.- @ 1 V 7.7.V V 7.0.0.0.r.A.e.6 o @ s.G.x.x.k.x.x.x.x.x.>X>X>X>X",
"G.G.G.G.G.G.G.G.G.G.G.G.G.G.G.M.s.N ; A X.X.+.+.X.D l l e.OX`.7 N K f.x.x.x.x.x.>X>X>X>X>X>X>X>X",
"G.G.G.G.G.G.G.G.G.G.G.G.G.D.G.G.D.P 6 E -.$.-.U.=.v $ $ {  X^.7 H k.x.x.j.x.x.x.>X>X>X>X>X>X>X>X",
"G.G.G.G.G.G.G.G.G.G.G.G.G.G.G.G.G.M.g.| T T / _ b < . . A <.} q K x.x.k.j.x.x.x.>X>X>X>X>X>X>X>X",
"G.G.G.G.G.G.G.G.G.G.G.G.G.G.G.D.G.G.S.L = & f y & 0 9 @ : s a ; H j.x.x.j.x.x.x.>X>X>X>X>X>X>X>X",
"x.x.x.x.x.x.x.x.G.G.G.G.G.G.G.D.k.x.j.S = y y & 1  . .> i s a ; G j.x.x.>X>X>X>X>X>X>X>X*X*X*X*X",
"x.x.x.x.x.x.x.x.G.G.G.G.G.G.G.G.x.k.j.H 0 c c 0 H z.j.S c M v 0 K j.x.x.>X>X>X>X>X>X>X>X*X*X*X*X",
"x.x.x.x.x.x.x.x.G.G.G.G.G.G.G.G.x.x.j.p.p.i.i.p.h.x.x.p.i.s.i.p.h.k.x.x.>X>X>X>X>X>X>X>X*X*X*X*X",
"x.x.x.x.x.x.x.x.G.G.G.G.G.G.G.G.x.x.x.x.x.x.x.x.x.k.x.x.x.x.x.x.x.x.x.x.>X>X>X>X>X>X>X>X*X*X*X*X",
"x.x.x.x.x.x.x.x.x.x.x.x.x.x.x.x.x.x.x.x.x.x.x.x.*X*X*X*X*X*X*X*X>X>X>X>X>X>X>X>X>X>X>X>X>X>X>X>X",
"x.x.x.x.x.x.x.x.x.x.x.x.x.x.x.x.x.x.x.k.j.j.j.j.%X*X*X%X%X&X%X%X>X>X>X>X>X>X>X>X>X>X>X>X>X>X>X>X",
"x.x.x.x.x.x.x.x.x.x.x.x.x.x.x.x.x.x.x.x.x.x.x.x.&X*X*X&X&X&X&X&X>X>X>X>X>X>X>X>X>X>X>X>X>X>X>X>X",
"x.x.x.x.x.x.x.x.x.x.x.x.x.x.x.x.x.x.x.x.x.x.x.x.*X*X*X*X*X*X*X*X>X>X>X>X>X>X>X>X>X>X>X>X>X>X>X>X"
};
