/* XPM */
static char *_db6fde513aa47d7986cc2307f643a91ANhNJBCHmmmQ5CIZ[] = {
/* columns rows colors chars-per-pixel */
"48 48 216 2 ",
"   c #080405",
".  c #160706",
"X  c #0F1312",
"o  c #171616",
"O  c #1B1414",
"+  c #1D1C1B",
"@  c #280F07",
"#  c #340200",
"$  c #3E0E0A",
"%  c #29100A",
"&  c #38160B",
"*  c #271816",
"=  c #231C1C",
"-  c #351A17",
";  c #1E271F",
":  c #37210C",
">  c #25241B",
",  c #29231A",
"<  c #372215",
"1  c #30331C",
"2  c #171C24",
"3  c #1C242C",
"4  c #262222",
"5  c #2A2525",
"6  c #282926",
"7  c #2C2A29",
"8  c #332B28",
"9  c #263328",
"0  c #323424",
"q  c #373923",
"w  c #37342E",
"e  c #252F38",
"r  c #302F31",
"t  c #283539",
"y  c #373736",
"u  c #481802",
"i  c #56110D",
"p  c #451915",
"a  c #591714",
"s  c #5B1C1A",
"d  c #6B1818",
"f  c #771B1E",
"g  c #492509",
"h  c #4A2219",
"j  c #572417",
"k  c #533916",
"l  c #75330A",
"z  c #673A16",
"x  c #4D1F22",
"c  c #671A21",
"v  c #492724",
"b  c #5F2C27",
"n  c #543B28",
"m  c #493C3A",
"M  c #632424",
"N  c #712326",
"B  c #703432",
"V  c #3F4225",
"C  c #3E403D",
"Z  c #784D18",
"A  c #484625",
"S  c #4C552D",
"D  c #67452C",
"F  c #755429",
"G  c #6F5434",
"H  c #596A36",
"J  c #506E3D",
"K  c #6F733C",
"L  c #69773D",
"P  c #273A46",
"I  c #2E3A42",
"U  c #353C45",
"Y  c #393E44",
"T  c #3A454A",
"R  c #3A4B55",
"E  c #3A5363",
"W  c #3B5768",
"Q  c #464849",
"!  c #544D4C",
"~  c #4D564A",
"^  c #54564A",
"/  c #474D53",
"(  c #48555A",
")  c #59595B",
"_  c #74594C",
"`  c #685A56",
"'  c #596648",
"]  c #5C6756",
"[  c #697C46",
"{  c #727D42",
"}  c #6D6757",
"|  c #72735C",
" . c #445965",
".. c #515D63",
"X. c #515F68",
"o. c #46616E",
"O. c #5A6164",
"+. c #55636C",
"@. c #5C656E",
"#. c #456172",
"$. c #4A6575",
"%. c #4B6978",
"&. c #586A75",
"*. c #546D7A",
"=. c #5C737E",
"-. c #6B6465",
";. c #776565",
":. c #7A716F",
">. c #62767E",
",. c #767070",
"<. c #882D31",
"1. c #8E3737",
"2. c #923739",
"3. c #825419",
"4. c #895D29",
"5. c #945137",
"6. c #A05A3E",
"7. c #8A642C",
"8. c #97672C",
"9. c #926633",
"0. c #A27233",
"q. c #925955",
"w. c #A05F44",
"e. c #937856",
"r. c #A86F47",
"t. c #847672",
"y. c #A56B65",
"u. c #6D813F",
"i. c #6E8B4A",
"p. c #748244",
"a. c #798A46",
"s. c #7C8C4A",
"d. c #7C934B",
"f. c #779F57",
"g. c #789F57",
"h. c #77A057",
"j. c #78A158",
"k. c #808D49",
"l. c #85934D",
"z. c #89974E",
"x. c #8A9A51",
"c. c #8BA253",
"v. c #8FA956",
"b. c #92A455",
"n. c #92AE59",
"m. c #9CAC5A",
"M. c #99B55C",
"N. c #A3B45E",
"B. c #88857A",
"V. c #99937D",
"C. c #BF9163",
"Z. c #9DBA60",
"A. c #A6B761",
"S. c #A2BD61",
"D. c #AABC63",
"F. c #A4C263",
"G. c #B0C267",
"H. c #B4C669",
"J. c #B6C96A",
"K. c #BACE6D",
"L. c #BED26F",
"P. c #BFD370",
"I. c #C0D470",
"U. c #5A7786",
"Y. c #5F7F90",
"T. c #627681",
"R. c #637A87",
"E. c #6A7E89",
"W. c #727E85",
"Q. c #5F808C",
"!. c #6B828D",
"~. c #76838C",
"^. c #688694",
"/. c #778B96",
"(. c #7B909B",
"). c #7A98A5",
"_. c #988887",
"`. c #978E8A",
"'. c #818E97",
"]. c #83939D",
"[. c #A89490",
"{. c #8499A3",
"}. c #8899A3",
"|. c #929EA6",
" X c #8DA1AD",
".X c #96A3AC",
"XX c #98AAB4",
"oX c #9BB2BD",
"OX c #A9A8A9",
"+X c #B5A8A7",
"@X c #ADB4B2",
"#X c #B7B3B3",
"$X c #C9A39D",
"%X c #C8AEA5",
"&X c #C7B9B6",
"*X c #E5BEB4",
"=X c #CEC3BD",
"-X c #EEC9BE",
";X c #A9B8C1",
":X c #B1BDC4",
">X c #B6C3CA",
",X c #B8C4CB",
"<X c #A0C4D1",
"1X c #B5CAD2",
"2X c #D9CCC7",
"3X c #C5D1D7",
"4X c #CAD4DA",
"5X c #CBD6DB",
"6X c #E8D8D1",
"7X c #EBE3DE",
"8X c #FFE5DA",
"9X c #D5DEE2",
"0X c #DCE6EA",
"qX c #FFEDE5",
"wX c #FFF1E8",
"eX c #FFFEFA",
/* pixels */
"I.I.I.I.I.I.I.I.I.I.I.I.I.I.I.I.I.I.I.I.I.I.I.I.I.I.I.I.I.I.I.I.I.I.I.I.I.I.I.I.I.I.I.I.I.I.I.I.",
"I.I.I.I.I.I.I.I.I.I.I.I.I.I.I.I.I.I.I.I.I.I.I.I.I.I.I.I.I.I.I.I.I.I.I.I.I.I.I.I.I.I.I.I.I.I.I.I.",
"I.I.I.I.I.I.I.I.I.I.I.I.I.I.I.I.I.I.I.I.I.I.I.I.I.I.I.I.I.I.I.I.I.I.I.I.I.I.I.I.I.I.I.I.I.I.I.I.",
"I.I.I.I.I.I.I.I.I.I.I.I.I.I.I.I.I.I.I.I.I.I.I.P.L.L.L.L.P.I.I.I.I.I.I.I.I.I.I.I.I.I.I.I.I.I.I.I.",
"I.I.I.I.I.I.I.I.I.I.I.I.I.I.I.I.I.I.I.I.I.I.I.L.L.L.L.L.L.I.I.I.I.I.I.I.I.I.I.I.I.I.I.I.I.I.I.I.",
"I.I.I.I.I.I.I.I.I.I.I.I.I.I.I.I.I.I.I.I.I.L.I.I.I.I.I.I.I.I.P.I.I.I.I.I.I.I.I.I.I.I.I.I.I.I.I.I.",
"I.I.I.I.I.I.I.I.I.I.I.I.I.I.I.I.I.I.I.I.I.L.I.I.I.I.I.I.I.L.L.I.I.I.I.I.I.I.I.I.I.I.I.I.I.I.I.I.",
"I.I.I.I.I.I.I.I.I.I.I.I.I.I.I.I.I.I.I.L.I.I.I.A.m.m.m.m.D.I.I.L.L.I.I.I.I.I.I.I.I.I.I.I.I.I.I.I.",
"I.I.I.I.I.I.I.I.I.I.I.I.I.I.I.I.I.I.I.L.I.I.H.L q q q q s.K.P.P.L.I.I.I.I.I.I.I.I.I.I.I.I.I.I.I.",
"I.I.I.I.I.I.I.I.I.I.I.I.I.I.I.I.I.L.P.I.I.N.l.y T / Y 7 A x.D.I.I.L.L.I.I.I.I.I.I.I.I.I.I.I.I.I.",
"I.I.I.I.I.I.I.I.I.I.I.I.I.I.I.I.I.L.I.I.J.L 7 R U.R...w O , s.L.I.I.L.I.I.I.I.I.I.I.I.I.I.I.I.I.",
"I.I.I.I.I.I.I.I.I.I.I.I.I.I.I.L.L.I.I.N.l.} W.*.=.Q.( 1 + / ] z.D.I.I.I.L.I.I.I.I.I.I.I.I.I.I.I.",
"I.I.I.I.I.I.I.I.I.I.I.I.I.I.I.L.I.I.J.L y OX4X}.$.#.T + y >.+.5 k.L.I.I.L.I.I.I.I.I.I.I.I.I.I.I.",
"I.I.I.I.I.I.I.I.I.I.I.I.I.L.I.I.I.N.k.~ ~.3X0X>X/.%.o.@.O.~ Q / ' l.N.I.P.I.P.I.I.I.I.I.I.I.I.I.",
"I.I.I.I.I.I.I.I.I.I.I.I.I.L.I.L.J.p.r ~.1X3X4X9X;XE./.oX~.4 y T.+.4 l.P.I.P.L.I.I.I.I.I.I.I.I.I.",
"I.I.I.I.I.I.I.I.I.I.I.L.L.L.L.m.s.~ @..X1X3X4X0X,X/.{.1X|.R ( !.+.4 k.P.I.P.L.I.I.I.I.I.I.I.I.I.",
"F.F.F.F.I.I.I.I.I.I.I.L.I.I.L.s.4 +.{. XXX,X4X4X:X}.{.XX(.#.$.T.( 6 z.P.I.P.L.I.F.F.F.F.I.I.I.I.",
"F.F.F.F.I.I.I.I.I.L.L.I.I.I.I.k.5 @.{.{.].oX>X,X@X|.(.!. .I ( T...7 z.L.L.P.L.I.F.F.F.F.I.I.I.I.",
"F.F.F.F.I.I.I.I.I.I.I.K.J.J.H.s.0 O./.!.!.}.XXXX X].!.$.t O C >.X.= z.I.I.P.L.I.F.F.F.F.I.I.I.I.",
"F.F.F.F.I.I.I.L.L.I.I.A.p.{ { S 7 ..!.!.E./.(.^.Y.U.U.$.I O Q T...+ x.I.I.P.L.I.F.F.F.F.I.I.I.I.",
"I.I.I.I.I.I.I.I.I.L.H.k.O r m = + R T.!.!.!.=.R P R  .#.I o y =.+.6 k.H.K.P.L.I.I.I.I.I.I.I.I.I.",
"I.I.I.I.I.L.L.I.I.D.{ A   ,.+X` . e *.T.E.^. .O . * U E P   6 %.U.R ' { N.I.I.P.L.I.I.I.I.I.I.I.",
"I.I.I.I.P.L.L.K.G.l.O = ! [.+X-.6 P %.U.*.E T m p # - @.=.Q r P o.%.R = l.I.I.L.L.I.I.I.I.I.I.I.",
"I.I.I.P.L.I.P.A.{ A   -.#XB.y I  .o.$.U.E X y #X+Xa i [.9X=X;.X t *. .4 l.I.I.L.L.I.I.I.I.I.I.I.",
"I.I.I.L.L.I.I.b.= 7 ^ `.OX;.5 t E E R E U * ;.eXeXy.q.-XeXeX%X` Y R ~ L m.I.P.P.L.I.I.I.I.I.I.I.",
"I.I.I.L.L.I.I.b.O :.&XB.r ` _.) 2 2 2 2 r _ $XqXwX-X*X8XqX8X8X6X_.r { G.K.P.L.I.I.I.I.I.I.I.I.I.",
"I.I.I.P.L.I.I.A.p.B.+X:.w ` _.` : : : . 5 _.&X&X&X7X6X&X&X2X7X2XV.p.N.I.I.P.L.I.I.I.I.I.I.I.I.I.",
"I.I.I.I.I.L.L.K.J.x.y t.[.-.7 n 4.4.z @ 3 &.(.W.'.;XXXW.].>X.XQ s.J.L.I.I.I.I.I.I.I.I.I.I.I.I.I.",
"I.I.I.I.F.F.F.F.I.D.p.| `.` < Z 0.7.k < 8 U  .%.Y.).).^.^.!./ @ L n.Z.S.L.I.I.I.I.I.I.I.F.F.F.F.",
"I.I.I.I.F.F.F.F.I.L.J.l.w D 7.8.3.k , x s - e $.R.U.).oX/.t - j n S d.S.L.P.L.I.I.I.I.I.F.F.F.F.",
"I.I.I.I.F.F.F.F.L.I.I.D.p.K G F g @ % c d % + Q ) ! -._.;.v h b v * p.F.I.P.L.I.I.I.I.I.F.F.F.F.",
"I.I.I.I.F.F.F.F.P.I.I.L.K.l., > , h d f M - o - j M M M B 1.B 8 O O a.F.I.P.L.I.I.I.I.I.F.F.F.F.",
"F.F.F.F.F.F.F.F.F.S.S.F.F.d.+ 3 T ;.q.B - * * $ i f f d f <.b + 9 Q [ x.n.F.F.F.F.F.F.F.F.F.F.F.",
"F.F.F.F.F.F.F.F.F.F.F.F.F.a.> T E.oX|./ . @ p s N <.2.1.<.N p O R =.) 0 d.F.F.F.F.F.F.F.F.F.F.F.",
"F.F.F.F.F.F.F.F.F.F.F.F.S.L 4 ( ).<X).T . u l l <.5.w.w.6.5.j * ( /.@.4 u.F.F.F.F.F.F.F.F.F.F.F.",
"F.F.F.F.F.F.F.F.F.F.F.F.F.a.= / !./.&.e * z 3.Z Z 9.9.9.r.C._ = T T...= a.F.F.F.F.F.F.F.F.F.F.F.",
"F.F.F.F.F.F.F.F.F.F.F.F.F.v.s.^ Q Q U U T ^ } | } F z z e.#XB.7 2 T ' d.n.F.F.F.F.F.F.F.F.F.F.F.",
"F.F.F.F.F.F.F.F.F.F.F.F.F.F.F.p., , 0 R #.W #.U.@.v # # ` .X/.7 . , a.F.F.F.F.F.F.F.F.F.F.F.F.F.",
"F.F.F.F.F.F.F.F.F.F.F.F.F.F.F.n.d.d.d.' T T Q ! m < . . m ;.` 0 H d.n.F.F.F.F.F.F.F.F.F.F.F.F.F.",
"F.F.F.F.F.F.F.F.F.F.F.F.F.F.F.F.F.F.Z.L * & g u & 0 9 + - c s = p.F.F.F.S.F.F.F.F.F.F.F.F.F.F.F.",
"j.j.j.j.j.j.j.j.j.j.j.j.F.F.F.F.F.F.F.H * u u & V d.d.; p d s = J j.j.h.f.j.j.j.j.j.j.j.F.F.F.F.",
"j.j.j.j.j.j.j.j.j.j.j.j.F.F.F.S.F.F.M.[ V A A A [ F.M.H A D D V J f.h.j.h.j.j.j.j.j.j.j.F.F.F.F.",
"j.j.j.j.j.j.j.j.j.j.j.j.F.F.F.F.F.F.S.n.c.c.c.c.n.F.F.v.c.b.b.c.i.f.j.j.j.j.j.j.j.j.j.j.F.F.F.F.",
"j.j.j.j.j.j.j.j.j.j.j.j.F.F.F.F.F.F.F.F.F.F.F.F.F.F.F.F.F.F.F.F.j.j.j.j.j.j.j.j.j.j.j.j.F.F.F.F.",
"j.j.j.j.j.j.j.j.j.j.j.j.j.j.j.j.j.j.j.j.j.j.j.j.j.j.j.j.j.j.j.j.j.j.j.j.j.j.j.j.j.j.j.j.j.j.j.j.",
"j.j.j.j.j.j.j.j.j.j.j.j.j.j.j.j.j.j.j.h.f.f.f.f.h.j.j.h.f.g.f.f.h.j.j.j.j.j.j.j.j.j.j.j.j.j.j.j.",
"j.j.j.j.j.j.j.j.j.j.j.j.j.j.j.j.j.j.j.j.j.j.j.j.j.j.j.j.j.j.j.j.j.j.j.j.j.j.j.j.j.j.j.j.j.j.j.j.",
"j.j.j.j.j.j.j.j.j.j.j.j.j.j.j.j.j.j.j.j.j.j.j.j.j.j.j.j.j.j.j.j.j.j.j.j.j.j.j.j.j.j.j.j.j.j.j.j."
};
