/* XPM */
static char *e26e0a072c614603e698e4a6086c5222tSqdFRj3KWahR41b[] = {
/* columns rows colors chars-per-pixel */
"48 48 217 2 ",
"   c #050406",
".  c #17090A",
"X  c #0A1218",
"o  c #141012",
"O  c #151214",
"+  c #1C1314",
"@  c #1F1A1B",
"#  c #18181C",
"$  c #2A0C08",
"%  c #330501",
"&  c #28140A",
"*  c #3B190A",
"=  c #3C0F12",
"-  c #231C1C",
";  c #291A18",
":  c #381617",
">  c #1E271F",
",  c #282519",
"<  c #322D17",
"1  c #342419",
"2  c #161B23",
"3  c #1D2023",
"4  c #262222",
"5  c #272627",
"6  c #2C2B25",
"7  c #2C2929",
"8  c #352C29",
"9  c #283223",
"0  c #323322",
"q  c #36342D",
"w  c #262F36",
"e  c #302F31",
"r  c #2A353A",
"t  c #383737",
"y  c #491809",
"u  c #53110E",
"i  c #441615",
"p  c #581A1A",
"a  c #5B1C1B",
"s  c #691415",
"d  c #731B1E",
"f  c #46200B",
"g  c #5A2F06",
"h  c #4C251C",
"j  c #5A3119",
"k  c #683011",
"l  c #7E1B21",
"z  c #4E2E2C",
"x  c #5E2621",
"c  c #4B3B25",
"v  c #5C3823",
"b  c #483B3B",
"n  c #642525",
"m  c #712326",
"M  c #7A3635",
"N  c #3D4423",
"B  c #3F4228",
"V  c #3E403D",
"C  c #704715",
"Z  c #484625",
"A  c #4F592D",
"S  c #534639",
"D  c #65452B",
"F  c #74532D",
"G  c #755936",
"H  c #566D39",
"J  c #5C6C38",
"K  c #6B6532",
"L  c #66773D",
"P  c #2A3A45",
"I  c #383D43",
"U  c #38444A",
"Y  c #2E4550",
"T  c #3A4953",
"R  c #3C4D58",
"E  c #3B5463",
"W  c #395665",
"Q  c #474848",
"!  c #504D45",
"~  c #4B5449",
"^  c #545549",
"/  c #454D54",
"(  c #4C4C50",
")  c #5B4C54",
"_  c #465559",
"`  c #58595C",
"'  c #6F5853",
"]  c #695B57",
"[  c #576348",
"{  c #556254",
"}  c #686A4E",
"|  c #736B4F",
" . c #6B7E42",
".. c #677449",
"X. c #727D42",
"o. c #636556",
"O. c #746259",
"+. c #70715C",
"@. c #475864",
"#. c #425C6B",
"$. c #515C63",
"%. c #515F68",
"&. c #47616E",
"*. c #5A6164",
"=. c #55636C",
"-. c #5C656E",
";. c #466373",
":. c #4A6574",
">. c #4B6978",
",. c #586A75",
"<. c #546D7A",
"1. c #59727E",
"2. c #6B6465",
"3. c #786766",
"4. c #7A716F",
"5. c #6D6F72",
"6. c #62767E",
"7. c #813B1E",
"8. c #882E32",
"9. c #8E3838",
"0. c #923739",
"q. c #825218",
"w. c #904E32",
"e. c #9B563B",
"r. c #83602F",
"t. c #8B6232",
"y. c #936633",
"u. c #925652",
"i. c #A05F44",
"p. c #8C7151",
"a. c #A76F47",
"s. c #847672",
"d. c #A56B65",
"f. c #6D8241",
"g. c #6A8D4D",
"h. c #748343",
"j. c #758B46",
"k. c #7E8B47",
"l. c #7B924C",
"z. c #769E57",
"x. c #789F57",
"c. c #77A057",
"v. c #78A158",
"b. c #808D4A",
"n. c #85934D",
"m. c #869A4E",
"M. c #899B51",
"N. c #87A051",
"B. c #8CA453",
"V. c #93A355",
"C. c #91AB57",
"Z. c #96AE5A",
"A. c #98B45C",
"S. c #9DBA5F",
"D. c #A3B35E",
"F. c #888479",
"G. c #99947E",
"H. c #BE8F60",
"J. c #9FBC60",
"K. c #A2BE61",
"L. c #AABB63",
"P. c #A4C263",
"I. c #B1C367",
"U. c #B4C669",
"Y. c #B7CA6B",
"T. c #BBCE6D",
"R. c #BED26F",
"E. c #BFD370",
"W. c #C0D470",
"Q. c #5B7888",
"!. c #5F7F90",
"~. c #637985",
"^. c #667B87",
"/. c #727D85",
"(. c #6B838E",
"). c #76838C",
"_. c #688694",
"`. c #788B95",
"'. c #78929D",
"]. c #7894A2",
"[. c #7EA0AD",
"{. c #978786",
"}. c #91928E",
"|. c #83939D",
" X c #A89490",
".X c #8599A3",
"XX c #929CA4",
"oX c #95A2AA",
"OX c #96A9B3",
"+X c #9AABB4",
"@X c #A9A8A9",
"#X c #B5A8A7",
"$X c #ADB4B1",
"%X c #B7B3B3",
"&X c #C9A49D",
"*X c #C8AEA5",
"=X c #C7B8B6",
"-X c #E5BEB4",
";X c #CEC3BD",
":X c #EEC9BE",
">X c #A9B8C1",
",X c #B1BDC4",
"<X c #B6C3CA",
"1X c #B6C5CC",
"2X c #A1C5D1",
"3X c #B6CBD4",
"4X c #C5D1D7",
"5X c #CBD6DB",
"6X c #D1D0D0",
"7X c #E8D8D1",
"8X c #EBE3DE",
"9X c #FFE5DA",
"0X c #D5DEE2",
"qX c #DBE6EA",
"wX c #FFEDE5",
"eX c #FFF1E8",
"rX c #FFFEFA",
/* pixels */
"v.v.v.v.v.v.v.v.v.v.v.v.v.v.v.v.v.v.v.v.v.v.v.v.v.v.v.v.v.v.v.v.v.v.v.v.v.v.v.v.v.v.v.v.v.v.v.v.",
"v.v.v.v.v.v.v.v.v.v.v.v.v.v.v.v.v.v.v.v.v.v.v.v.v.v.v.v.v.v.v.v.v.v.v.v.v.v.v.v.v.v.v.v.v.v.v.v.",
"v.v.v.v.v.v.v.v.v.v.v.v.v.v.v.v.v.v.v.v.v.v.v.v.v.v.v.v.v.v.v.v.v.v.v.v.v.v.v.v.v.v.v.v.v.v.v.v.",
"v.v.v.v.v.v.v.v.v.v.v.v.v.v.v.v.v.v.v.v.v.v.v.v.c.c.c.c.v.v.v.v.v.v.v.v.v.v.v.v.v.v.v.v.v.v.v.v.",
"P.P.P.P.P.P.P.P.P.P.P.P.v.v.v.v.v.v.v.v.v.v.v.c.P.P.P.P.P.P.P.P.P.P.P.P.P.P.P.P.P.P.P.P.v.v.v.v.",
"P.P.P.P.P.P.P.P.P.P.P.P.v.v.v.v.v.v.v.v.v.c.v.v.P.P.P.P.P.P.P.P.P.P.P.P.P.P.P.P.P.P.P.P.v.v.v.v.",
"P.P.P.P.P.P.P.P.P.P.P.P.v.v.v.v.v.v.v.v.v.c.v.v.P.P.P.P.P.P.P.P.P.P.P.P.P.P.P.P.P.P.P.P.v.v.v.v.",
"P.P.P.P.P.P.P.P.P.P.P.P.v.v.v.v.v.v.v.z.v.v.v.g.m.m.m.m.C.P.P.P.P.P.P.P.P.P.P.P.P.P.P.P.v.v.v.v.",
"P.P.P.P.P.P.P.P.P.P.P.P.P.P.P.P.P.P.P.P.P.P.A.J 0 0 0 0  .J.P.P.K.P.P.P.P.P.P.P.P.P.P.P.P.P.P.P.",
"P.P.P.P.P.P.P.P.P.P.P.P.P.P.P.P.P.K.P.P.P.B.h.q U / I 7 N j.C.P.P.P.P.P.P.P.P.P.P.P.P.P.P.P.P.P.",
"P.P.P.P.P.P.P.P.P.P.P.P.P.P.P.P.P.K.P.P.A.J 6 T 1.^.$.e O , f.K.P.P.K.P.P.P.P.P.P.P.P.P.P.P.P.P.",
"P.P.P.P.P.P.P.P.P.P.P.P.P.P.P.K.P.P.P.B.h.o./.<.1.!._ < @ _ { j.C.P.P.P.P.P.P.P.P.P.P.P.P.P.P.P.",
"W.W.W.W.P.P.P.P.P.P.P.P.P.P.P.P.P.P.S.J t @X5X.X:.;.Y @ t 6.=.5 b.R.W.W.P.P.P.P.W.W.W.W.W.W.W.W.",
"W.W.W.W.P.P.P.P.P.P.P.P.P.P.P.P.P.B.f.~ ).4XqX<X`.>.&.-.*.~ / / [ n.D.W.P.P.P.P.W.W.W.W.W.W.W.W.",
"W.W.W.W.P.P.P.P.P.P.P.P.P.P.P.P.S.L e ).1X4X5X0X>X^.`.>X).4 t ~.=.4 n.E.P.P.P.P.W.W.W.W.W.W.W.W.",
"W.W.W.W.P.P.P.P.P.P.P.P.P.K.K.N. .~ -.oX3X4X5XqX<X`..X3XXXT _ (.=.4 b.E.P.P.P.P.W.W.W.W.W.W.W.W.",
"W.W.W.W.W.W.W.W.W.W.W.R.W.W.R.k.4 =..XOX+X<X5X5X,X.X.XOX'.;.:.~.` 6 m.E.W.E.R.W.W.W.W.W.W.W.W.W.",
"W.W.W.W.W.W.W.W.W.R.R.W.W.W.W.b.5 -..X.X|.+X1X1X$XXX`.(.@.P _ ~.$.6 m.R.R.E.R.W.W.W.W.W.W.W.W.W.",
"W.W.W.W.W.W.W.W.W.W.W.T.Y.Y.U.k.6 *.`.(.(..X+XOXoX|.(.:.r O V 6.%.- m.W.W.E.R.W.W.W.W.W.W.W.W.W.",
"W.W.W.W.W.W.W.R.R.W.W.L.h.X.X.A 7 $.(.(./.`.'._.!.Q.Q.:.P + Q ~.$.@ M.W.W.E.R.W.W.W.W.W.W.W.W.W.",
"W.W.W.W.W.W.W.W.W.R.U.b.+ e b - @ T ~.(.(.(.1.R P Y #.;.P O t 1.=.7 b.U.T.E.R.W.W.W.W.W.W.W.W.W.",
"W.W.W.W.W.R.R.W.W.L.X.Z   4.#X] . w <.~.^._.@.+ . ; I W P   5 >.Q.R [ X.D.W.W.E.R.W.W.W.W.W.W.W.",
"W.W.W.W.W.R.R.T.I.n.O - !  X#X2.3 P >.Q.<.E U b h % : -.,.Q e P &.>.R - n.W.W.R.R.W.W.W.W.W.W.W.",
"W.W.W.E.R.W.E.L.X.Z   2.%XF.t r #.#.;.Q.E X t %X#Xp u  X0X;XO.O r <.@.4 n.W.W.R.R.W.W.W.W.W.W.W.",
"W.W.W.R.R.W.W.V.- 7 ^ }.@X3.6 r W E R E P ; 3.rXrXd.u.:XrXrX*X' I R ~ L m.P.P.P.R.W.W.W.W.W.W.W.",
"W.W.W.R.R.W.W.V.+ 4.=XF.e ] {.` 2 2 5 2 e O.&XwXeX:X-X9XwX9X9X7X{.e X.I.S.P.P.P.W.W.W.W.W.W.W.W.",
"W.W.W.E.R.W.W.L.h.F.#X4.q ] {.O.1 & o   6 {.=X=X=X8X7X=X=X6X8X6XG.h.D.W.P.P.P.P.W.W.W.W.W.W.W.W.",
"W.W.W.W.W.R.R.T.Y.M.t s. X2.7 D t.c X   5 5.|./.|.>X+X/.|.<XoXQ b.T.R.W.P.P.P.P.W.W.W.W.W.W.W.W.",
"W.W.W.W.W.R.R.W.W.L.h.+.{.] 1 j F h $ = 8 U W >.!.].]._._.(.( $ h.L.T.W.W.W.W.W.W.W.W.W.W.W.W.W.",
"W.W.W.W.W.W.W.W.W.R.Y.n.q G r.Z ; = s d a ; w :.^.Q.].+X(.r 1 x v A V.W.W.E.R.W.W.W.W.W.W.W.W.W.",
"W.W.W.W.W.W.W.R.R.W.W.L.L K G S r ) u.M i $ ; Q ` ) 2.{.3.h y x b I ..A.I.E.R.W.E.W.W.W.W.W.W.W.",
"W.W.W.W.W.W.W.W.W.W.W.R.S.h.6 Q ~.+XXX( . $ y f h x n n M 9.n ; U ,.` Z V.W.W.R.R.W.W.W.W.W.W.W.",
"W.W.W.W.W.W.W.W.P.K.K.P.P.j.# _ ].2X[.Y   $ y y u d d s l 8.a O _ '.-.4 f.P.P.P.P.P.P.P.P.P.P.P.",
"W.W.W.W.W.W.W.W.P.P.P.P.P.h.- _ (.'.1.r O & y a m 8.0.9.8.m i + / ^.$.- j.P.P.P.P.P.P.P.P.P.P.P.",
"W.W.W.W.W.W.W.W.P.P.P.P.K.B.j.^ / R Q c g g k k 7.e.i.i.e.w.v , w / } M.C.P.P.P.P.P.P.P.P.P.P.P.",
"W.W.W.W.W.W.W.W.P.P.P.P.P.P.K.f.- # < C q.q.C C q.y.y.y.a.H.p.0 o @ M.R.P.P.P.P.P.P.P.P.P.P.P.P.",
"P.P.P.P.P.P.P.P.P.P.P.P.P.P.P.C.j.N ; S | } o.+.| F k k p.%X}.6 A j.C.P.P.P.P.P.P.P.P.P.P.P.P.P.",
"P.P.P.P.P.P.P.P.P.P.P.P.P.K.P.P.K.L 6 T ;.#.;.Q.-.z % % ' +X`.7 f.P.P.P.P.P.P.P.P.P.P.P.P.P.P.P.",
"P.P.P.P.P.P.P.P.P.P.P.P.P.P.P.P.P.C.l.[ U U ! ^ b 1 . . S 3.] 0 j.P.P.P.K.P.P.P.P.P.P.P.P.P.P.P.",
"P.P.P.P.P.P.P.P.P.P.P.P.P.P.P.K.P.P.S.L ; * f y * 0 9 # : x a - f.K.P.P.P.P.P.P.P.P.P.P.P.P.P.P.",
"P.P.P.P.P.P.P.P.v.v.v.v.v.v.v.z.c.v.z.A ; y y * N n.l.> i s a - L K.P.P.P.P.P.P.v.v.v.v.v.v.v.v.",
"P.P.P.P.P.P.P.P.v.v.v.v.v.v.v.z.v.c.z.H B Z Z Z  .P.S.J Z D D B j.K.P.P.P.P.P.P.v.v.v.v.v.v.v.v.",
"P.P.P.P.P.P.P.P.v.v.v.v.v.v.v.v.v.v.z.g.B.B.B.B.C.P.P.C.B.V.V.B.Z.P.P.P.P.P.P.P.v.v.v.v.v.v.v.v.",
"P.P.P.P.P.P.P.P.v.v.v.v.v.v.v.v.v.v.v.v.P.P.P.P.P.P.P.P.P.P.P.P.P.P.P.P.P.P.P.P.v.v.v.v.v.v.v.v.",
"v.v.v.v.v.v.v.v.v.v.v.v.v.v.v.v.v.v.v.v.v.v.v.v.v.v.v.v.v.v.v.v.v.v.v.v.v.v.v.v.v.v.v.v.v.v.v.v.",
"v.v.v.v.v.v.v.v.v.v.v.v.v.v.v.v.v.v.v.c.z.z.z.z.c.v.v.c.z.x.z.z.c.v.v.v.v.v.v.v.v.v.v.v.v.v.v.v.",
"v.v.v.v.v.v.v.v.v.v.v.v.v.v.v.v.v.v.v.v.v.v.v.v.v.v.v.v.v.v.v.v.v.v.v.v.v.v.v.v.v.v.v.v.v.v.v.v.",
"v.v.v.v.v.v.v.v.v.v.v.v.v.v.v.v.v.v.v.v.v.v.v.v.v.v.v.v.v.v.v.v.v.v.v.v.v.v.v.v.v.v.v.v.v.v.v.v."
};
