/* XPM */
static char *_5c45dcb45ea41b59facab9081c675201rFYBytxW6XiImgB[] = {
/* columns rows colors chars-per-pixel */
"48 48 205 2 ",
"   c #070406",
".  c #180808",
"X  c #131013",
"o  c #1C1514",
"O  c #1B191A",
"+  c #2B0500",
"@  c #340705",
"#  c #291607",
"$  c #37190B",
"%  c #2C0913",
"&  c #231D1C",
"*  c #281918",
"=  c #351C1A",
"-  c #28231B",
";  c #352517",
":  c #2C321D",
">  c #101A25",
",  c #231F20",
"<  c #1B2229",
"1  c #1F343F",
"2  c #272221",
"3  c #292424",
"4  c #2C2C24",
"5  c #252729",
"6  c #2D2A29",
"7  c #332A2A",
"8  c #2C3423",
"9  c #2A332A",
"0  c #343724",
"q  c #2C2E33",
"w  c #28353B",
"e  c #373838",
"r  c #4D0F0B",
"t  c #461707",
"y  c #461914",
"u  c #591A19",
"i  c #6B1A15",
"p  c #681918",
"a  c #4E2C0F",
"s  c #5A2C03",
"d  c #552318",
"f  c #46391D",
"g  c #63360B",
"h  c #6A2B15",
"j  c #681E22",
"k  c #4A2623",
"l  c #493A27",
"z  c #5C3026",
"x  c #443B3A",
"c  c #642526",
"v  c #762527",
"b  c #68362B",
"n  c #733333",
"m  c #3B4523",
"M  c #3E423F",
"N  c #64441A",
"B  c #754716",
"V  c #4C532D",
"C  c #49433C",
"Z  c #455835",
"A  c #704E2C",
"S  c #7C5C33",
"D  c #4C663A",
"F  c #5A6A38",
"G  c #58723C",
"H  c #616939",
"J  c #65783B",
"K  c #2A3943",
"L  c #343E45",
"P  c #37454B",
"I  c #39424A",
"U  c #2F4350",
"Y  c #364A56",
"T  c #3D4C54",
"R  c #3F5158",
"E  c #3B5767",
"W  c #464948",
"Q  c #4F5148",
"!  c #535946",
"~  c #434C53",
"^  c #4B575A",
"/  c #575859",
"(  c #685B58",
")  c #735757",
"_  c #586648",
"`  c #5B7A43",
"'  c #5A6253",
"]  c #6B7A43",
"[  c #6B6558",
"{  c #726C54",
"}  c #455B67",
"|  c #535D64",
" . c #585E64",
".. c #4D606B",
"X. c #57636C",
"o. c #466373",
"O. c #4B6674",
"+. c #4B6979",
"@. c #556B77",
"#. c #5A717C",
"$. c #6C6568",
"%. c #766A6A",
"&. c #6D6E74",
"*. c #65747C",
"=. c #852523",
"-. c #832F36",
";. c #893232",
":. c #943938",
">. c #835319",
",. c #864B2E",
"<. c #885C26",
"1. c #964F34",
"2. c #93662B",
"3. c #926633",
"4. c #A37334",
"5. c #8D514E",
"6. c #946D56",
"7. c #98795E",
"8. c #6C803F",
"9. c #6E8242",
"0. c #648649",
"q. c #6A874A",
"w. c #668A4A",
"e. c #6A8E4D",
"r. c #718544",
"t. c #758A45",
"y. c #778949",
"u. c #6C904E",
"i. c #7B914B",
"p. c #6C9250",
"a. c #769E57",
"s. c #779F58",
"d. c #77A057",
"f. c #77A058",
"g. c #78A158",
"h. c #86944D",
"j. c #89974E",
"k. c #8AA453",
"l. c #8FA956",
"z. c #93A857",
"x. c #93AD59",
"c. c #9AB65C",
"v. c #9DBA5F",
"b. c #A1B25D",
"n. c #858278",
"m. c #90827F",
"M. c #BE8F60",
"N. c #9FBC60",
"B. c #A1BF61",
"V. c #ACBE65",
"C. c #A4C263",
"Z. c #B1C367",
"A. c #B7CA6B",
"S. c #BED26F",
"D. c #BFD370",
"F. c #C0D470",
"G. c #5C7584",
"H. c #5B7988",
"J. c #637A86",
"K. c #677A85",
"L. c #737E86",
"P. c #5F818F",
"I. c #6C838E",
"U. c #75828A",
"Y. c #6D8491",
"T. c #698794",
"R. c #778A94",
"E. c #7C939E",
"W. c #7A97A4",
"Q. c #7FA0AD",
"!. c #948F88",
"~. c #9A8D89",
"^. c #85939C",
"/. c #A3918E",
"(. c #B39798",
"). c #8699A3",
"_. c #929CA4",
"`. c #95A4AD",
"'. c #99AAB4",
"]. c #9BB1BC",
"[. c #A8A7A8",
"{. c #B5ADAB",
"}. c #BBB5AA",
"|. c #A7B4BB",
" X c #C49F98",
".X c #CABAB6",
"XX c #E1B7AE",
"oX c #AFDDBC",
"OX c #B0DFBD",
"+X c #B1E0BE",
"@X c #CFC2BE",
"#X c #EAC4BA",
"$X c #B2BEC4",
"%X c #9DC2CF",
"&X c #9BD4C3",
"*X c #B8C5CB",
"=X c #B4C9D1",
"-X c #C8D3D8",
";X c #E5D4CD",
":X c #EDE4DE",
">X c #FFE6DB",
",X c #D3DCE0",
"<X c #DDE8EB",
"1X c #FFF4EB",
"2X c #FEFDF9",
/* pixels */
"&X&X&X&X&X&X&X&X&X&X&X&X&X&X&X&X&X&X&X&X+X+X+X+Xg.g.g.g.g.g.g.g.g.g.g.g.g.g.g.g.g.g.g.g.g.g.g.g.",
"&X&X&X&X&X&X&X&X&X&X&X&X&X&X&X&X&X&X&X&X+X+X+XOXg.g.g.g.g.g.g.g.g.g.g.g.g.g.g.g.g.g.g.g.g.g.g.g.",
"&X&X&X&X&X&X&X&X&X&X&X&X&X&X&X&X&X&X&X&X+X+X+XOXs.s.s.s.d.g.g.g.g.g.g.g.g.g.g.g.g.g.g.g.g.g.g.g.",
"&X&X&X&X&X&X&X&X&X&X&X&X&X&X&X&X&X&X&X&X+XOX+X+Xg.g.g.g.g.g.g.g.g.g.g.g.g.g.g.g.g.g.g.g.g.g.g.g.",
"&X&X&X&X&X&X&X&X&X&X&X&Xg.g.g.g.g.g.g.g.g.d.g.g.g.g.g.g.g.d.d.g.g.g.g.g.C.C.C.C.C.C.C.C.C.C.C.C.",
"&X&X&X&X&X&X&X&X&X&X&X&Xg.g.g.g.g.g.g.s.g.g.g.e.0.0.0.0.p.g.g.g.d.g.g.g.C.C.C.C.C.C.C.C.C.C.C.C.",
"&X&X&X&X&X&X&X&X&X&X&X&Xg.g.g.g.g.g.g.s.g.g.a.Z 8 : 8 0 D s.g.f.s.g.g.g.C.C.C.C.C.C.C.C.C.C.C.C.",
"&X&X&X&X&X&X&X&X&X&X&X&Xg.g.g.g.g.s.g.g.g.e.G 9 I W e 6 0 ` u.g.g.f.s.g.C.C.C.C.C.C.C.C.C.C.C.C.",
"&X&X&X&X&X&X&X&Xg.g.g.g.g.g.g.g.C.B.C.C.v.J 8 U @.J.| 9 o : 9.C.C.C.B.C.C.C.C.C.C.C.C.C.C.C.C.C.",
"&X&X&X&X&X&X&X&Xg.g.g.g.g.g.g.s.C.C.C.l.t.' &.@.G.P.^ : O ~ ' i.x.C.C.C.C.C.C.C.C.C.C.C.C.C.C.C.",
"&X&X&X&X&X&X&X&Xg.g.g.g.g.g.g.s.C.C.v.J e [.-X^.O.o.U o e #.X.4 r.C.C.C.C.C.C.C.C.C.C.C.C.C.C.C.",
"&X&X&X&X&X&X&X&Xg.g.g.g.g.f.g.g.C.l.t.Q U.-X<X*XR.O.}  ./ ^ ~ ~ ! y.l.C.C.C.C.C.C.C.C.C.C.C.C.C.",
"+X+X+X+Xg.g.g.g.g.g.g.g.C.C.C.C.v.J 6 L.*X-X-X,X|.K.Y.].U.2 e #.X., t.C.C.C.C.C.F.F.F.F.F.F.F.F.",
"+X+X+X+Xg.g.g.g.g.g.g.s.C.B.B.k.r.Z X.`.=X-X-X<X*XR.).=X_.I T I.X.2 9.C.C.C.C.C.F.F.F.F.F.F.F.F.",
"+X+X+X+Xg.g.g.g.g.g.g.d.C.C.C.9.2  .E.`.].*X-X-X$X).).'.E.o.O.J.^ 2 t.C.C.C.C.C.F.F.F.F.F.F.F.F.",
"+X+X+X+Xg.g.g.g.g.d.s.g.C.C.C.9.3 X.).).^.|.*X*X|._.E.Y...L ^ J.| 4 t.B.C.C.C.C.F.F.F.F.F.F.F.F.",
"g.g.g.g.g.g.g.g.C.C.C.B.N.N.v.8.4 X.R.Y.I.).].'.`.^.Y.+.w X M *.| & j.F.F.D.S.F.F.F.F.F.C.C.C.C.",
"g.g.g.g.g.g.g.s.B.C.C.x.] J J V 6 | I.I.L.R.E.T.T.J.G.o.K o W J.| O k.F.F.S.S.F.F.F.F.F.C.C.C.C.",
"g.g.g.g.g.g.g.g.C.C.v.9.o 7 7 * & ~ J.Y.I.Y.G.R U Y } o.K o e *.X.5 h.A.S.D.S.F.F.F.F.F.C.C.C.C.",
"g.g.g.g.g.d.d.g.C.x.] m   %.[.( . w @.J.K.T.} o . * L E 1   5 @.H.T _ y.b.F.D.D.S.F.F.F.C.C.C.C.",
"g.g.g.g.g.d.d.s.c.t.o o C /.}.$.< K +.G.#.E P x y + = X.X.x 7 U o.+.T & h.F.F.S.S.F.F.F.F.F.F.F.",
"g.g.g.g.f.g.g.e.] V   ( {.!.x L } } O.H.E > e [.(.r r /.-X.X( X w @.} 2 h.F.F.S.S.F.F.F.F.F.F.F.",
"g.g.g.d.s.g.f.` & 2 C !.{.%.2 w E E Y E L * [ 2X2X6.5.#X2X2X XQ e R Q H z.F.F.D.S.F.F.F.F.F.F.F.",
"g.g.g.d.s.g.g.` o %.}.n.e ( ~./ > > < < 7 )  X1X1X#XXX>X1X>X>X;Xm.q ] V.A.D.S.F.F.F.F.F.F.F.F.F.",
"g.g.g.g.f.g.g.w.F n.{.%.7 ( /.( * $ $ . 6 !..X.X@X:X:X@X.X;X:X;X~.] b.F.F.D.S.F.F.F.F.F.F.F.F.F.",
"g.g.g.g.g.d.d.s.c.y.C 7.~.$.q l S >.g # < #.^.U.^.$X|.U.^.*X`./ i.A.S.F.F.F.F.F.F.F.F.F.F.F.F.F.",
"g.g.g.g.g.d.d.g.C.l.F [ /.( ; N 4.2.g ; 3 I } +.J.W.W.T.T.Y.^ . r.Z.A.S.S.F.F.F.F.F.F.F.F.F.F.F.",
"g.g.g.g.g.g.g.g.C.B.c.9.e A <.2.>.f - k u = w O.T.J.W.].Y.w = d N F z.S.D.F.S.F.F.F.F.F.F.F.F.F.",
"g.g.g.g.g.g.g.s.B.C.C.l.G H S A a # % j p % O W  ./ &.!.%.k y c k * 9.C.F.D.S.F.F.F.F.F.F.F.F.F.",
"g.g.g.g.g.g.g.g.C.C.C.B.v.r.- - - y p v j = o ; d c c c n ;.b ; o o t.C.F.D.S.F.F.F.F.F.F.F.F.F.",
"g.g.g.g.g.g.g.g.C.B.C.C.C.i.O < L ) 5.n y * = t i v v i =.:.b - 9 M ] k.Z.F.D.F.D.F.F.F.F.F.F.F.",
"g.g.g.g.g.g.g.g.C.C.C.C.C.t.- I J.'._.Q . # y u v ;.:.:.;.v y o P #./ m z.F.F.S.S.F.F.F.F.F.F.F.",
"&X&X&X&Xg.g.g.g.g.d.g.d.B.8.2 ^ W.%XQ.U   + y u c v -.-.v u @ o ^ R.X.2 9.C.C.C.C.C.C.C.F.F.F.F.",
"&X&X&X&Xg.g.g.g.g.d.g.g.C.r.& ^ I.E.#.w o $ t t y p j j c j y o T K.| & t.C.C.C.C.C.C.C.F.F.F.F.",
"&X&X&X&Xg.g.g.g.g.g.g.g.C.l.t.! ~ T W l s g s s g B ,.A ,.1.b - q ~ _ y.l.C.C.C.C.C.C.C.F.F.F.F.",
"&X&X&X&Xg.g.g.g.g.g.g.s.C.C.B.9.& O : N >.>.B B >.3.3.3.4.M.6.4 X O y.C.C.C.C.C.C.C.C.C.F.F.F.F.",
"&X&X&X&X&X&X&X&Xg.g.g.f.g.g.g.e.t.m * C { { [ { { S B h 7.}.!.4 V t.x.C.C.C.C.C.C.C.C.C.C.C.C.C.",
"&X&X&X&X&X&X&X&Xg.g.g.g.g.s.g.g.B.J 4 T o.} o.H.X.k @ @ ( '.R.6 9.C.C.C.C.C.C.C.C.C.C.C.C.C.C.C.",
"&X&X&X&X&X&X&X&Xg.g.g.g.g.s.f.g.C.x.i._ P I W Q x = . . C %.( 7 t.C.C.C.B.C.C.C.C.C.C.C.C.C.C.C.",
"&X&X&X&X&X&X&X&Xg.g.g.g.g.g.g.s.C.C.N.J * $ t t $ 0 8 O = p u & 9.B.C.C.C.C.C.C.C.C.C.C.C.C.C.C.",
"&X&X&X&X&X&X&X&X&X&X&X&Xg.g.g.s.d.g.s.Z * t t $ 0 ` ` < y i u & D s.g.g.C.C.C.C.g.g.g.g.g.g.g.g.",
"&X&X&X&X&X&X&X&X&X&X&X&Xg.g.g.s.g.d.a.D 0 f f 0 D f.a.Z l b z 0 G s.g.g.C.C.C.C.g.g.g.g.g.g.g.g.",
"&X&X&X&X&X&X&X&X&X&X&X&Xg.g.g.g.g.g.s.e.0.q.q.0.p.g.g.e.q.y.q.0.p.d.g.g.C.C.C.C.g.g.g.g.g.g.g.g.",
"&X&X&X&X&X&X&X&X&X&X&X&Xg.g.g.g.g.g.g.g.g.g.g.g.g.d.g.g.g.g.g.g.g.g.g.g.C.C.C.C.g.g.g.g.g.g.g.g.",
"&X&X&X&X&X&X&X&X&X&X&X&X&X&X&X&X&X&X&X&X+X+X+X+Xg.g.d.g.g.g.g.g.g.g.g.g.g.g.g.g.g.g.g.g.g.g.g.g.",
"&X&X&X&X&X&X&X&X&X&X&X&X&X&X&X&X&X&X&X&XoXoXoXoXd.g.g.d.s.s.s.s.d.g.g.g.g.g.g.g.g.g.g.g.g.g.g.g.",
"&X&X&X&X&X&X&X&X&X&X&X&X&X&X&X&X&X&X&X&XOXOXOXOXg.g.g.g.g.g.g.g.g.g.g.g.g.g.g.g.g.g.g.g.g.g.g.g.",
"&X&X&X&X&X&X&X&X&X&X&X&X&X&X&X&X&X&X&X&X+X+X+X+Xg.g.g.g.g.g.g.g.g.g.g.g.g.g.g.g.g.g.g.g.g.g.g.g."
};
