/* XPM */
static char *_db85234d22c459f8201f1644daee840NGCf8eOD1K5atIpe[] = {
/* columns rows colors chars-per-pixel */
"48 48 204 2 ",
"   c #070406",
".  c #180808",
"X  c #131013",
"o  c #1C1514",
"O  c #1B191A",
"+  c #2B0500",
"@  c #340705",
"#  c #291607",
"$  c #37190B",
"%  c #2C0913",
"&  c #231D1C",
"*  c #281918",
"=  c #351C1A",
"-  c #30220D",
";  c #28231B",
":  c #352517",
">  c #33351E",
",  c #101A25",
"<  c #231F20",
"1  c #1B2229",
"2  c #1F343F",
"3  c #272121",
"4  c #292423",
"5  c #2E2D25",
"6  c #252729",
"7  c #2D2B29",
"8  c #332A2A",
"9  c #253127",
"0  c #333526",
"q  c #2C2E33",
"w  c #28353B",
"e  c #383837",
"r  c #4D0F0B",
"t  c #461707",
"y  c #461914",
"u  c #591A19",
"i  c #6B1A15",
"p  c #681918",
"a  c #4E2C0F",
"s  c #5A2C03",
"d  c #552318",
"f  c #46391D",
"g  c #63360B",
"h  c #6A2B15",
"j  c #681E22",
"k  c #4A2623",
"l  c #493A27",
"z  c #5C3026",
"x  c #443B3A",
"c  c #642526",
"v  c #762527",
"b  c #68362B",
"n  c #733333",
"m  c #3B4523",
"M  c #3E423F",
"N  c #64441A",
"B  c #754716",
"V  c #434927",
"C  c #49433C",
"Z  c #4F5530",
"A  c #425932",
"S  c #704E2C",
"D  c #7C5C33",
"F  c #4C663A",
"G  c #5C6A37",
"H  c #5A723B",
"J  c #616939",
"K  c #66793C",
"L  c #2A3943",
"P  c #343E45",
"I  c #37454B",
"U  c #39424A",
"Y  c #2F4350",
"T  c #394A55",
"R  c #3F5157",
"E  c #3B5767",
"W  c #464948",
"Q  c #4F5148",
"!  c #525745",
"~  c #434C53",
"^  c #4C575B",
"/  c #565858",
"(  c #685B58",
")  c #735757",
"_  c #596648",
"`  c #5B7B43",
"'  c #5E6852",
"]  c #6B7A43",
"[  c #727D41",
"{  c #696558",
"}  c #726C54",
"|  c #445B68",
" . c #525D64",
".. c #585E64",
"X. c #4D606B",
"o. c #57636C",
"O. c #466373",
"+. c #4B6674",
"@. c #4B6978",
"#. c #556B77",
"$. c #56707C",
"%. c #6C6568",
"&. c #766A6A",
"*. c #6D6E74",
"=. c #61747E",
"-. c #6D7479",
";. c #852523",
":. c #832F36",
">. c #893232",
",. c #943938",
"<. c #835319",
"1. c #864B2E",
"2. c #885C26",
"3. c #964F34",
"4. c #93662B",
"5. c #926633",
"6. c #A37334",
"7. c #8D514E",
"8. c #946D56",
"9. c #98795E",
"0. c #6C803F",
"q. c #6E8242",
"w. c #6A874A",
"e. c #688B4C",
"r. c #778847",
"t. c #758A46",
"y. c #7B914C",
"u. c #6C9251",
"i. c #769E56",
"p. c #789F57",
"a. c #77A057",
"s. c #78A158",
"d. c #818E4A",
"f. c #85934C",
"g. c #89974E",
"h. c #8A984F",
"j. c #8E9D53",
"k. c #909E53",
"l. c #8DA754",
"z. c #93A957",
"x. c #9AB65C",
"c. c #9DB95F",
"v. c #A0B15D",
"b. c #858278",
"n. c #90827F",
"m. c #BE8F60",
"M. c #9FBC60",
"N. c #A1BF61",
"B. c #ABBC63",
"V. c #A4C263",
"C. c #AEC066",
"Z. c #B7CA6B",
"A. c #BED26F",
"S. c #BFD370",
"D. c #C0D470",
"F. c #5C7584",
"G. c #5B7988",
"H. c #637A86",
"J. c #677A85",
"K. c #737E86",
"L. c #6A838E",
"P. c #75828A",
"I. c #6D8491",
"U. c #698794",
"Y. c #778A94",
"T. c #7B929E",
"R. c #7A97A4",
"E. c #7FA0AD",
"W. c #948F88",
"Q. c #9A8D89",
"!. c #83949E",
"~. c #88929A",
"^. c #A3918E",
"/. c #B39798",
"(. c #869AA3",
"). c #929CA4",
"_. c #95A4AD",
"`. c #99AAB4",
"'. c #9BB1BC",
"]. c #A8A7A8",
"[. c #B5ADAB",
"{. c #BBB5AA",
"}. c #A7B4BB",
"|. c #C49F98",
" X c #CABAB6",
".X c #E1B7AE",
"XX c #AFDDBC",
"oX c #B1DFBD",
"OX c #B1E0BE",
"+X c #CFC2BE",
"@X c #EAC4BA",
"#X c #B2BEC4",
"$X c #9DC2CF",
"%X c #9BD4C3",
"&X c #B8C5CB",
"*X c #B4C9D1",
"=X c #C8D3D8",
"-X c #E5D4CD",
";X c #EDE4DE",
":X c #FFE6DB",
">X c #D3DCE0",
",X c #DDE8EB",
"<X c #FFF4EB",
"1X c #FEFDF9",
/* pixels */
"s.s.s.s.s.s.s.s.V.V.V.V.V.V.V.V.V.V.V.V.D.D.D.D.D.D.D.D.D.D.D.D.D.D.D.D.D.D.D.D.D.D.D.D.D.D.D.D.",
"s.s.s.s.s.s.s.s.V.V.V.V.V.V.V.V.V.V.V.V.D.D.D.S.S.S.S.S.D.D.D.D.D.D.D.D.D.D.D.D.D.D.D.D.D.D.D.D.",
"s.s.s.s.s.s.s.s.V.V.V.V.V.V.V.V.V.V.V.V.D.D.D.A.A.A.A.A.A.D.D.D.D.D.D.D.D.D.D.D.D.D.D.D.D.D.D.D.",
"s.s.s.s.s.s.s.s.V.V.V.V.V.V.V.V.V.V.V.V.D.S.D.D.D.D.D.D.D.D.S.D.D.D.D.D.D.D.D.D.D.D.D.D.D.D.D.D.",
"s.s.s.s.s.s.s.s.V.V.V.V.V.V.V.V.D.D.D.D.D.A.D.D.D.D.D.D.D.A.A.D.V.V.V.V.D.D.D.D.D.D.D.D.D.D.D.D.",
"s.s.s.s.s.s.s.s.V.V.V.V.V.V.V.V.D.D.D.A.D.D.D.B.v.v.v.v.C.D.D.S.V.V.V.V.D.D.D.D.D.D.D.D.D.D.D.D.",
"s.s.s.s.s.s.s.s.V.V.V.V.V.V.V.V.D.D.D.A.D.D.Z.[ V V V V y.A.D.A.N.V.V.V.D.D.D.D.D.D.D.D.D.D.D.D.",
"s.s.s.s.s.s.s.s.V.V.V.V.V.V.V.V.D.A.D.D.D.B.h.e U W e 7 V l.B.D.V.V.V.V.D.D.D.D.D.D.D.D.D.D.D.D.",
"s.s.s.s.V.V.V.V.V.V.V.V.V.V.V.V.V.N.V.V.Z.[ 0 Y $.H. .q o > d.A.D.A.A.D.D.D.D.D.D.D.D.D.D.D.D.D.",
"s.s.s.s.V.V.V.V.V.V.V.V.V.V.V.V.V.V.V.l.g.{ -.#.F.L.^ > O ~ ' k.B.D.D.D.S.D.D.D.D.D.D.D.D.D.D.D.",
"s.s.s.s.V.V.V.V.V.V.V.V.V.V.V.N.V.V.c.K e ].=X!.+.O.Y o e =.o.5 f.A.D.D.A.D.D.D.D.D.D.D.D.D.D.D.",
"s.s.s.s.V.V.V.V.V.V.V.V.V.V.V.V.V.l.t.Q P.=X,X&XY.+.| ../ / ~ ~ _ j.B.D.A.D.S.D.D.D.D.D.D.D.D.D.",
"s.s.s.s.V.V.V.V.V.V.V.V.V.V.V.V.Z.t.7 K.&X=X=X>X}.J.I.'.P.4 e =.o.< g.S.D.S.A.D.D.D.D.D.V.V.V.V.",
"s.s.s.s.V.V.V.V.V.V.V.V.V.N.N.l.f.! o._.*X=X=X,X&XY.(.*X).U R L.o.3 d.S.D.S.A.D.D.D.D.D.V.V.V.V.",
"s.s.s.s.V.V.V.V.V.V.V.V.V.V.V.q.3 ..!._.'.&X=X=X#X(.(.`.T.O.+.H.^ 4 g.S.D.S.A.D.D.D.D.D.V.V.V.V.",
"s.s.s.s.V.V.V.V.V.V.V.V.V.V.V.q.4 o.(.(.!.}.&X&X}.).T.I.X.P ^ H. .5 g.A.A.S.A.D.D.D.D.D.V.V.V.V.",
"s.s.s.s.s.s.s.s.V.V.V.N.M.M.c.0.5 o.Y.I.I.(.'.`._.!.I.+.w X M =. .& g.D.D.S.A.D.D.D.D.D.D.D.D.D.",
"s.s.s.s.s.s.s.i.V.V.V.z.] K K Z 5  .I.I.K.Y.T.U.U.H.F.O.L o W H. .o j.D.D.A.A.D.D.D.D.D.D.D.D.D.",
"s.s.s.s.s.s.s.s.V.V.c.q.o 8 8 * & ~ H.I.I.I.F.R Y T | O.P o e =.o.6 f.Z.A.S.A.D.D.D.D.D.D.D.D.D.",
"s.s.s.s.s.a.a.s.V.z.] m   &.].( . w $.H.J.U.| o . * P E 2   6 #.G.T _ t.v.D.S.S.A.D.D.D.D.D.D.D.",
"s.s.s.s.s.a.a.i.x.t.o o C ^.{.%.1 L @.F.$.E I x y + = o.o.x 8 Y O.@.T & g.D.D.A.A.D.D.D.D.D.D.D.",
"s.s.s.s.s.s.s.e.] V   ( [.W.x P | | +.G.E , e ]./.r r ^.=X X( X w $.| 3 f.D.D.A.A.D.D.D.D.D.D.D.",
"s.s.s.a.p.s.s.` & 4 C W.[.&.3 w E E T E P * { 1X1X8.7.@X1X1X|.Q e R Q J z.D.D.S.A.D.D.D.D.D.D.D.",
"s.s.s.a.p.s.s.` o &.{.b.e ( Q./ , , 1 1 8 ) |.<X<X@X.X:X<X:X:X-Xn.q ] B.Z.S.A.D.D.D.D.D.D.D.D.D.",
"%X%X%X%Xs.s.s.e.G b.[.&.8 ( ^.( * $ $ . 7 W. X X+X;X;X+X X-X;X-XQ.] v.D.V.V.V.V.D.D.D.D.D.D.D.D.",
"%X%X%X%Xs.a.a.i.x.t.C 9.Q.%.q l D 2.g # 1 #.~.P.~.#X}.P.~.&X_./ y.Z.A.D.V.V.V.V.D.D.D.D.D.D.D.D.",
"%X%X%X%Xs.a.a.s.V.l.G } ^.( - N 6.4.g : 4 U | @.H.R.R.U.U.I.^ . t.C.Z.A.N.V.V.V.D.D.D.D.D.D.D.D.",
"%X%X%X%Xs.s.s.s.V.N.x.q.e S 2.4.<.f ; k u = w +.U.H.R.'.I.w = d S G z.A.N.V.V.V.D.D.D.D.D.D.D.D.",
"%X%X%X%Xs.s.s.i.i.s.s.e.H J D S a # % j p % O W ../ *.W.&.k y c k * q.V.D.S.A.D.D.D.D.D.D.D.D.D.",
"%X%X%X%Xs.s.s.s.a.s.s.i.c.t.; ; ; y p v j = o : d c c c n >.b : o o t.V.D.S.A.D.D.D.D.D.D.D.D.D.",
"%X%X%X%Xs.s.s.s.s.i.i.s.V.y.O 1 P ) 7.n y = = t i v v i ;.,.b ; 9 M ] l.C.D.S.D.S.D.D.D.D.D.D.D.",
"%X%X%X%Xs.s.s.s.a.a.s.s.V.t.; U H.`.).Q . # y u v >.,.,.>.v y o I #./ m z.D.D.A.A.D.D.D.D.D.D.D.",
"%X%X%X%Xs.s.s.s.s.a.s.a.N.0.4 ^ R.$XE.Y   + y u c v :.:.v u @ o ^ Y.o.4 q.V.V.V.V.V.V.V.D.D.D.D.",
"%X%X%X%Xs.s.s.s.s.a.s.s.V.t.& ^ L.T.$.w o $ t t y p c j c j y o R J. .& t.V.V.V.V.V.V.V.D.D.D.D.",
"%X%X%X%Xs.s.s.s.s.s.s.s.V.l.t.! ~ R W l s s s s g B 1.S 1.3.b ; q ~ _ t.z.V.V.V.V.V.V.V.D.D.D.D.",
"%X%X%X%Xs.s.s.s.s.s.s.i.V.V.N.q.& O > N <.<.B B <.5.5.5.6.m.8.5 X O t.V.V.V.V.V.V.V.V.V.D.D.D.D.",
"%X%X%X%X%X%X%X%Xs.s.s.s.s.s.s.e.t.m * C } } { } } D B h 9.{.W.5 Z t.z.V.V.V.V.V.V.V.V.V.V.V.V.V.",
"%X%X%X%X%X%X%X%Xs.s.s.s.s.i.s.s.N.K 5 T O.| O.G.o.k @ @ ( `.Y.7 q.V.V.V.V.V.V.V.V.V.V.V.V.V.V.V.",
"%X%X%X%X%X%X%X%Xs.s.s.s.s.i.s.s.V.z.y._ I U W Q x = . . C &.( 0 t.V.V.V.N.V.V.V.V.V.V.V.V.V.V.V.",
"%X%X%X%X%X%X%X%Xs.s.s.s.s.s.s.i.V.V.M.K * $ t t $ 0 9 O = p u & q.N.V.V.V.V.V.V.V.V.V.V.V.V.V.V.",
"%X%X%X%X%X%X%X%X%X%X%X%Xs.s.s.i.a.s.i.A * t t $ > ` ` 1 y i u & F i.s.s.V.V.V.V.s.s.s.s.s.s.s.s.",
"%X%X%X%X%X%X%X%X%X%X%X%Xs.s.s.i.s.a.i.F 0 f f 0 F s.i.A l b z 0 H i.s.s.V.V.V.V.s.s.s.s.s.s.s.s.",
"%X%X%X%X%X%X%X%X%X%X%X%Xs.s.s.s.s.s.i.e.e.w.w.e.u.s.s.e.w.t.w.e.u.a.s.s.V.V.V.V.s.s.s.s.s.s.s.s.",
"%X%X%X%X%X%X%X%X%X%X%X%Xs.s.s.s.s.s.s.s.s.s.s.s.s.a.s.s.s.s.s.s.s.s.s.s.V.V.V.V.s.s.s.s.s.s.s.s.",
"%X%X%X%X%X%X%X%X%X%X%X%X%X%X%X%X%X%X%X%XOXOXOXOXs.s.s.a.s.s.s.s.s.s.s.s.s.s.s.s.s.s.s.s.s.s.s.s.",
"%X%X%X%X%X%X%X%X%X%X%X%X%X%X%X%X%X%X%X%XXXXXXXXXa.s.s.a.i.p.i.i.a.s.s.s.s.s.s.s.s.s.s.s.s.s.s.s.",
"%X%X%X%X%X%X%X%X%X%X%X%X%X%X%X%X%X%X%X%XoXoXoXoXs.s.s.s.s.s.s.s.s.s.s.s.s.s.s.s.s.s.s.s.s.s.s.s.",
"%X%X%X%X%X%X%X%X%X%X%X%X%X%X%X%X%X%X%X%XOXOXOXOXs.s.s.s.s.s.s.s.s.s.s.s.s.s.s.s.s.s.s.s.s.s.s.s."
};
