/* XPM */
static char *_c980428fda14692d152e36ec201c4b1aA8C8eLkKOG5ve1i[] = {
/* columns rows colors chars-per-pixel */
"48 48 211 2 ",
"   c #050406",
".  c #17090A",
"X  c #0A1218",
"o  c #141012",
"O  c #151214",
"+  c #1C1314",
"@  c #1B191B",
"#  c #2A0C08",
"$  c #330501",
"%  c #28140A",
"&  c #3B190A",
"*  c #3C0F12",
"=  c #281916",
"-  c #231C1C",
";  c #2A1D1B",
":  c #381617",
">  c #19241F",
",  c #2B2716",
"<  c #342419",
"1  c #32361E",
"2  c #161B23",
"3  c #1D2023",
"4  c #262222",
"5  c #272627",
"6  c #2C2B24",
"7  c #2C292A",
"8  c #382B2C",
"9  c #283223",
"0  c #323322",
"q  c #353728",
"w  c #262F36",
"e  c #302F31",
"r  c #2A353A",
"t  c #373737",
"y  c #491809",
"u  c #53110E",
"i  c #441615",
"p  c #581A1A",
"a  c #5B1C1B",
"s  c #691415",
"d  c #731B1E",
"f  c #46200B",
"g  c #5A2F06",
"h  c #4C251C",
"j  c #4F321C",
"k  c #59371B",
"l  c #683011",
"z  c #7E1B21",
"x  c #5E2621",
"c  c #4A3B26",
"v  c #52332A",
"b  c #483B3B",
"n  c #642525",
"m  c #712326",
"M  c #743731",
"N  c #37421E",
"B  c #3B4423",
"V  c #704715",
"C  c #4C492C",
"Z  c #4A582A",
"A  c #534639",
"S  c #425932",
"D  c #74532D",
"F  c #6E5231",
"G  c #4C663A",
"H  c #5E6D38",
"J  c #5A723B",
"K  c #6B6532",
"L  c #62743B",
"P  c #6A7B3E",
"I  c #2A3A45",
"U  c #383D43",
"Y  c #38444A",
"T  c #2E4550",
"R  c #3A4953",
"E  c #3C4D58",
"W  c #3E5456",
"Q  c #3B5463",
"!  c #395665",
"~  c #474847",
"^  c #4A5449",
"/  c #535748",
"(  c #464D53",
")  c #5A4C54",
"_  c #48545A",
"`  c #57595B",
"'  c #6F5853",
"]  c #695B57",
"[  c #576647",
"{  c #5B7B43",
"}  c #556254",
"|  c #736B4F",
" . c #6B7E42",
".. c #727E43",
"X. c #666757",
"o. c #6C6C56",
"O. c #746259",
"+. c #475864",
"@. c #425C6B",
"#. c #525D64",
"$. c #515F68",
"%. c #47616E",
"&. c #55636C",
"*. c #5C646B",
"=. c #466373",
"-. c #4B6776",
";. c #566B77",
":. c #59727E",
">. c #6A6365",
",. c #786766",
"<. c #7A716F",
"1. c #6D6F72",
"2. c #61757D",
"3. c #813B1E",
"4. c #882E32",
"5. c #8F3738",
"6. c #825218",
"7. c #975338",
"8. c #83602F",
"9. c #8B6232",
"0. c #936633",
"q. c #925652",
"w. c #A05F44",
"e. c #8C7151",
"r. c #A76F47",
"t. c #837A76",
"y. c #A56B65",
"u. c #608146",
"i. c #6D8141",
"p. c #6A874A",
"a. c #66884B",
"s. c #6A8D4D",
"d. c #728544",
"f. c #758B46",
"g. c #758A49",
"h. c #7D944D",
"j. c #6C9251",
"k. c #769E57",
"l. c #789F57",
"z. c #77A057",
"x. c #77A058",
"c. c #78A158",
"v. c #808D4B",
"b. c #87954D",
"n. c #8F9E52",
"m. c #8BA555",
"M. c #8CA554",
"N. c #91AC57",
"B. c #96AB59",
"V. c #9AB65D",
"C. c #9DB95E",
"Z. c #A2B25D",
"A. c #8D897A",
"S. c #BE8F60",
"D. c #A1BE61",
"F. c #A4C263",
"G. c #B6C86A",
"H. c #BED26F",
"J. c #BFD370",
"K. c #C0D470",
"L. c #5B7888",
"P. c #5F7F90",
"I. c #637985",
"U. c #667B86",
"Y. c #727D85",
"T. c #6B838E",
"R. c #76838C",
"E. c #688694",
"W. c #788B95",
"Q. c #77919C",
"!. c #7A94A2",
"~. c #7EA0AD",
"^. c #978786",
"/. c #90928E",
"(. c #83939D",
"). c #A79490",
"_. c #8599A4",
"`. c #929CA4",
"'. c #95A2AA",
"]. c #92A9B4",
"[. c #99AAB4",
"{. c #A9A8A9",
"}. c #B5A8A7",
"|. c #ADB4B1",
" X c #B9B4B3",
".X c #C9A49D",
"XX c #C8AEA5",
"oX c #C8B8B6",
"OX c #E5BEB4",
"+X c #AFDDBC",
"@X c #B0DFBD",
"#X c #B1E0BE",
"$X c #CEC3BD",
"%X c #EEC9BE",
"&X c #A9B8C1",
"*X c #B1BDC4",
"=X c #9BD4C3",
"-X c #B6C4CB",
";X c #A1C5D1",
":X c #B6CBD4",
">X c #C5D1D7",
",X c #CBD6DB",
"<X c #D1D0D0",
"1X c #E8D8D1",
"2X c #EBE3DE",
"3X c #FFE5DA",
"4X c #D5DEE2",
"5X c #DBE6EA",
"6X c #FFEDE5",
"7X c #FFF1E8",
"8X c #FFFEFA",
/* pixels */
"=X=X=X=X=X=X=X=X=X=X=X=X=X=X=X=X=X=X=X=X#X#X#X#Xc.c.c.c.c.c.c.c.c.c.c.c.c.c.c.c.c.c.c.c.c.c.c.c.",
"=X=X=X=X=X=X=X=X=X=X=X=X=X=X=X=X=X=X=X=X#X#X#X#Xc.c.c.c.c.c.c.c.c.c.c.c.c.c.c.c.c.c.c.c.c.c.c.c.",
"=X=X=X=X=X=X=X=X=X=X=X=X=X=X=X=X=X=X=X=X#X#X#X#Xc.c.c.c.c.c.c.c.c.c.c.c.c.c.c.c.c.c.c.c.c.c.c.c.",
"=X=X=X=X=X=X=X=X=X=X=X=X=X=X=X=X=X=X=X=X#X#X#X@Xz.z.z.z.c.c.c.c.c.c.c.c.c.c.c.c.c.c.c.c.c.c.c.c.",
"=X=X=X=X=X=X=X=X=X=X=X=Xc.c.c.c.c.c.c.c.c.c.c.z.l.l.l.l.z.c.c.c.c.c.c.c.F.F.F.F.F.F.F.F.F.F.F.F.",
"=X=X=X=X=X=X=X=X=X=X=X=Xc.c.c.c.c.c.c.c.c.z.c.c.c.c.c.c.c.c.c.c.c.c.c.c.F.F.F.F.F.F.F.F.F.F.F.F.",
"=X=X=X=X=X=X=X=X=X=X=X=Xc.c.c.c.c.c.c.c.c.z.c.c.c.c.c.c.c.z.z.c.c.c.c.c.F.F.F.F.F.F.F.F.F.F.F.F.",
"=X=X=X=X=X=X=X=X=X=X=X=Xc.c.c.c.c.c.c.l.c.c.c.s.u.u.u.u.s.c.c.z.l.c.c.c.F.F.F.F.F.F.F.F.F.F.F.F.",
"=X=X=X=X=X=X=X=Xc.c.c.c.c.c.c.c.F.F.F.D.F.F.V.H 0 1 0 0  .D.F.F.D.F.F.F.F.F.F.F.F.F.F.F.F.F.F.F.",
"=X=X=X=X=X=X=X=Xc.c.c.c.c.c.c.c.F.D.F.F.F.M.d.e Y ( U 7 B f.N.F.F.F.F.F.F.F.F.F.F.F.F.F.F.F.F.F.",
"=X=X=X=X=X=X=X=Xc.c.c.c.c.c.c.c.F.D.F.F.V.H 6 R :.U.#.e + - i.D.F.F.D.F.F.F.F.F.F.F.F.F.F.F.F.F.",
"=X=X=X=X=X=X=X=Xc.c.c.c.c.c.c.l.F.F.F.M.d.X.Y.;.:.P._ , @ ( } f.N.F.F.F.F.F.F.F.F.F.F.F.F.F.F.F.",
"#X#X#X#Xc.c.c.c.c.c.c.c.F.F.F.F.F.F.C.H t {.,X_.-.=.T @ t 2.&.5 i.D.F.F.F.F.F.F.K.K.K.K.K.K.K.K.",
"#X#X#X#Xc.c.c.c.c.c.c.c.F.F.F.F.F.M.i.^ R.>X5X-XW.-.%.*.*.^ ( ( / f.M.F.F.F.F.F.K.K.K.K.K.K.K.K.",
"#X#X#X#Xc.c.c.c.c.c.c.c.F.F.F.F.C.L e R.-X>X,X4X&XU.W.&XR.4 t I.&.4 d.F.F.F.F.F.K.K.K.K.K.K.K.K.",
"#X#X#X#Xc.c.c.c.c.c.c.l.F.D.D.m. .^ *.'.:X>X,X5X-XW._.:X`.R W T.&.4 i.F.F.F.F.F.K.K.K.K.K.K.K.K.",
"c.c.c.c.c.c.c.c.F.F.F.F.F.F.F.P 4 &._.].[.-X,X,X*X_._.].Q.=.-.I._ 6 b.J.K.J.H.K.K.K.K.K.F.F.F.F.",
"c.c.c.c.c.c.c.c.F.F.D.F.F.F.F.i.5 *._.!.(.[.-X-X|.`.W.T.+.I _ I.#.6 b.H.H.J.H.K.K.K.K.K.F.F.F.F.",
"c.c.c.c.c.c.c.c.F.F.F.D.C.C.V.P 6 #.W.T.T._.[.].'.(.T.-.r + t 2.$.- b.J.K.J.H.K.K.K.K.K.F.F.F.F.",
"c.c.c.c.c.c.c.l.D.F.F.N.L L L Z 6 #.T.T.Y.W.Q.E.P.L.L.-.I = ~ I.#.@ n.J.K.J.H.K.K.K.K.K.F.F.F.F.",
"c.c.c.c.c.c.c.c.F.D.V.i.+ e b ; @ R I.T.T.T.:.E I T @.=.I O t :.&.7 v.G.G.J.H.K.K.K.K.K.K.K.K.K.",
"c.c.c.c.c.z.z.c.F.B.L N   <.}.] . w ;.I.U.E.+.+ . = U ! I   5 -.L.E [ ..Z.K.K.J.H.K.K.K.K.K.K.K.",
"c.c.c.c.c.z.z.l.V.d.O - ~ ).}.>.5 I -.L.;.Q Y b h $ : *.;.~ e I %.-.E ; b.K.K.H.H.K.K.K.K.K.K.K.",
"c.c.c.c.x.c.c.s.L B   >. XA.t r @.@.=.L.Q X t |.}.p u ).4X$XO.o r ;.+.4 b.K.K.K.H.K.K.K.K.K.K.K.",
"c.c.c.z.l.c.c.{ - 7 / /.{.,.7 r ! Q E Q I = ,.8X8Xy.q.%X8X8XXX' U E / P V.K.J.J.H.K.K.K.K.K.K.K.",
"c.c.c.z.l.c.c.{ + <. Xt.e ] ^.` 2 2 5 3 e O..X6X7X%XOX3X6X3X3X1X^.e ..G.G.K.H.K.K.K.K.K.K.K.K.K.",
"c.c.c.c.x.c.c.a.L A.}.<.q ] ^.O.< % o   6 ^.oXoXoX2X1XoXoX<X2X<XA.d.Z.K.K.J.H.K.K.K.K.K.K.K.K.K.",
"c.c.c.c.c.z.z.l.V.g.t t.).>.7 F 9.c X   5 1.(.Y.(.&X[.Y.(.-X'.~ v.G.H.K.K.K.K.K.K.K.K.K.K.K.K.K.",
"c.c.c.c.c.z.z.c.F.N.L o.^.] < k D j # * 8 Y ! -.P.!.!.E.E.T.( # L N.C.F.K.K.K.K.K.K.K.K.K.K.K.K.",
"c.c.c.c.c.c.c.c.F.F.C.d.8 F 8.C = * s d a = w -.U.L.!.[.W.r < x k C h.F.K.J.H.K.K.K.K.K.K.K.K.K.",
"c.c.c.c.c.c.c.l.D.F.F.N.P K D A r ) q.M i # ; ~ ` ) >.^.,.h y x b U [ m.G.J.H.K.J.K.K.K.K.K.K.K.",
"c.c.c.c.c.c.c.c.F.F.F.F.C.d.6 ~ I.].`.~ . # y f h n n n M 5.n = Y ;.` B M.K.K.H.H.K.K.K.K.K.K.K.",
"=X=X=X=Xc.c.c.c.c.l.l.c.F.f.@ _ !.;X~.T   # y y u d d s z 4.a O W Q.*.4 i.F.F.F.F.F.F.F.K.K.K.K.",
"=X=X=X=Xc.c.c.c.c.z.c.c.F.d.- _ T.Q.:.r o # y a m 4.5.5.4.m i + W U.#.- f.F.F.F.F.F.F.F.K.K.K.K.",
"=X=X=X=Xc.c.c.c.c.c.c.l.D.M.f./ ( E ~ c g g l l 3.7.w.w.w.7.k ; w ( [ g.N.F.F.F.F.F.F.F.K.K.K.K.",
"=X=X=X=Xc.c.c.c.c.c.c.l.F.F.D.i.- @ 1 V 6.6.V V 6.0.0.0.r.S.e.6 o @ g.F.F.F.F.F.F.F.F.F.K.K.K.K.",
"=X=X=X=X=X=X=X=Xc.c.c.x.c.x.x.s.f.B ; A | | X.o.| D l l e. X/.6 Z f.B.F.F.F.F.F.F.F.F.F.F.F.F.F.",
"=X=X=X=X=X=X=X=Xc.c.c.c.x.l.c.c.D.P 6 R =.@.=.L.*.v $ $ ' [.W.7 i.F.F.F.F.F.F.F.F.F.F.F.F.F.F.F.",
"=X=X=X=X=X=X=X=Xc.c.c.c.c.l.x.c.F.N.h.[ Y Y ~ / b < . . A ,.] 0 f.F.F.F.D.F.F.F.F.F.F.F.F.F.F.F.",
"=X=X=X=X=X=X=X=Xc.c.c.c.c.c.c.l.F.F.D.L = & f y & 0 9 @ : x a ; i.D.F.F.F.F.F.F.F.F.F.F.F.F.F.F.",
"=X=X=X=X=X=X=X=X=X=X=X=Xc.c.c.l.z.c.l.S = y y & 1 { { > i s a ; G l.c.c.F.F.F.F.c.c.c.c.c.c.c.c.",
"=X=X=X=X=X=X=X=X=X=X=X=Xc.c.c.l.c.z.k.G q c c q G x.k.S c M v q J l.c.c.F.F.F.F.c.c.c.c.c.c.c.c.",
"=X=X=X=X=X=X=X=X=X=X=X=Xc.c.c.c.c.c.l.s.a.p.p.a.j.c.c.s.p.g.p.a.j.z.c.c.F.F.F.F.c.c.c.c.c.c.c.c.",
"=X=X=X=X=X=X=X=X=X=X=X=Xc.c.c.c.c.c.c.c.c.c.c.c.c.z.c.c.c.c.c.c.c.c.c.c.F.F.F.F.c.c.c.c.c.c.c.c.",
"=X=X=X=X=X=X=X=X=X=X=X=X=X=X=X=X=X=X=X=X#X#X#X#Xc.c.c.c.c.c.c.c.c.c.c.c.c.c.c.c.c.c.c.c.c.c.c.c.",
"=X=X=X=X=X=X=X=X=X=X=X=X=X=X=X=X=X=X=X=X+X+X+X+Xz.c.c.z.l.l.l.l.z.c.x.c.c.c.c.c.c.c.c.c.c.c.c.c.",
"=X=X=X=X=X=X=X=X=X=X=X=X=X=X=X=X=X=X=X=X@X@X@X@Xc.c.c.c.c.c.c.c.c.c.x.x.c.c.c.c.c.c.c.c.c.c.c.c.",
"=X=X=X=X=X=X=X=X=X=X=X=X=X=X=X=X=X=X=X=X#X#X#X#Xc.c.c.c.c.c.c.c.c.c.c.c.c.c.c.c.c.c.c.c.c.c.c.c."
};
