/* XPM */
static char *_64a678b00e7436dd97c672c8dad67afkv46diLtEDYOCHsV[] = {
/* columns rows colors chars-per-pixel */
"48 48 209 2 ",
"   c #080405",
".  c #150806",
"X  c #07141C",
"o  c #171616",
"O  c #1B1414",
"+  c #1D1C1B",
"@  c #280F07",
"#  c #360503",
"$  c #29100A",
"%  c #38160B",
"&  c #271816",
"*  c #231D1C",
"=  c #351A17",
"-  c #19241F",
";  c #37210C",
":  c #23221B",
">  c #29251A",
",  c #362317",
"<  c #32361E",
"1  c #171C24",
"2  c #1C242C",
"3  c #262222",
"4  c #2A2525",
"5  c #2A2A24",
"6  c #212629",
"7  c #2C2A2A",
"8  c #332B2A",
"9  c #283425",
"0  c #323522",
"q  c #353728",
"w  c #252F38",
"e  c #302F31",
"r  c #283537",
"t  c #373737",
"y  c #481802",
"u  c #56110D",
"i  c #451915",
"p  c #591714",
"a  c #5B1C1A",
"s  c #691918",
"d  c #771B1E",
"f  c #53300E",
"g  c #492219",
"h  c #562317",
"j  c #45371C",
"k  c #75330A",
"l  c #6D3B16",
"z  c #4D1F22",
"x  c #671A21",
"c  c #492724",
"v  c #5E2B27",
"b  c #523B28",
"n  c #483A3A",
"m  c #632424",
"M  c #712326",
"N  c #6E3630",
"B  c #3E542C",
"V  c #784D18",
"C  c #444B24",
"Z  c #4C552D",
"A  c #455936",
"S  c #755429",
"D  c #6F5434",
"F  c #4E673A",
"G  c #4E693B",
"H  c #586C3A",
"J  c #58733D",
"K  c #6D6938",
"L  c #63743B",
"P  c #6C7F3F",
"I  c #273A46",
"U  c #2E3A42",
"Y  c #353C45",
"T  c #393E44",
"R  c #3A454A",
"E  c #3A4B55",
"W  c #3E5259",
"Q  c #3A5363",
"!  c #3B5768",
"~  c #3E606E",
"^  c #464849",
"/  c #544D4C",
"(  c #495549",
")  c #545749",
"_  c #474D53",
"`  c #495559",
"'  c #59595B",
"]  c #73594C",
"[  c #685A56",
"{  c #586947",
"}  c #5A7943",
"|  c #6B7D48",
" . c #717C42",
".. c #6D6757",
"X. c #72735C",
"o. c #465965",
"O. c #515D65",
"+. c #48606E",
"@. c #55636C",
"#. c #5B646A",
"$. c #456172",
"%. c #4B6675",
"&. c #4B6A79",
"*. c #576B76",
"=. c #59727E",
"-. c #6B6465",
";. c #776465",
":. c #7A716F",
">. c #61757D",
",. c #767070",
"<. c #882D31",
"1. c #8F3738",
"2. c #825419",
"3. c #895D29",
"4. c #945137",
"5. c #A05A3E",
"6. c #926633",
"7. c #A27233",
"8. c #925955",
"9. c #A05F44",
"0. c #A86F47",
"q. c #8C7764",
"w. c #A56B65",
"e. c #608146",
"r. c #6D8141",
"t. c #65874A",
"y. c #6A874A",
"u. c #6A8E4D",
"i. c #728443",
"p. c #758A45",
"a. c #798948",
"s. c #6D924F",
"d. c #7C934A",
"f. c #6C9250",
"g. c #769E57",
"h. c #77A057",
"j. c #78A158",
"k. c #808D4A",
"l. c #85924E",
"z. c #869B51",
"x. c #8BA553",
"c. c #8BA554",
"v. c #93A857",
"b. c #99B55D",
"n. c #9DBA5F",
"m. c #88857A",
"M. c #958F7C",
"N. c #BF9163",
"B. c #9EBB60",
"V. c #A2BE61",
"C. c #A9BB63",
"Z. c #A4C263",
"A. c #B4C669",
"S. c #B7CA6B",
"D. c #BBCE6D",
"F. c #BED26F",
"G. c #BFD370",
"H. c #C0D470",
"J. c #5B7888",
"K. c #5F7F90",
"L. c #617681",
"P. c #667C88",
"I. c #727E85",
"U. c #6B828D",
"Y. c #76838C",
"T. c #688694",
"R. c #768B96",
"E. c #7B909B",
"W. c #7A98A5",
"Q. c #988887",
"!. c #978E8A",
"~. c #818E97",
"^. c #83939C",
"/. c #A89490",
"(. c #8699A3",
"). c #929EA6",
"_. c #96A3AC",
"`. c #93AAB6",
"'. c #98ABB5",
"]. c #A9A8A9",
"[. c #B5A8A7",
"{. c #ADB4B2",
"}. c #B7B3B3",
"|. c #C9A39D",
" X c #C8AEA5",
".X c #C7B9B6",
"XX c #E5BEB4",
"oX c #AFDDBC",
"OX c #B0DFBD",
"+X c #B1E0BE",
"@X c #CEC3BD",
"#X c #EEC9BE",
"$X c #A9B8C1",
"%X c #B1BDC4",
"&X c #9BD4C3",
"*X c #9EC3D1",
"=X c #B6C4CB",
"-X c #B6CBD4",
";X c #C5D1D7",
":X c #CBD6DB",
">X c #D1D0D0",
",X c #E8D8D1",
"<X c #EBE3DE",
"1X c #FFE5DA",
"2X c #D5DEE2",
"3X c #DBE6EA",
"4X c #FFEDE5",
"5X c #FFF1E8",
"6X c #FFFEFA",
/* pixels */
"j.j.j.j.j.j.j.j.j.j.j.j.j.j.j.j.j.j.j.j.j.j.j.j.+X+X+X+X+X+X+X+X&X&X&X&X&X&X&X&X&X&X&X&X&X&X&X&X",
"j.j.j.j.j.j.j.j.j.j.j.j.j.j.j.j.j.j.j.j.j.j.j.j.+X+X+X+X+X+X+X+X&X&X&X&X&X&X&X&X&X&X&X&X&X&X&X&X",
"j.j.j.j.j.j.j.j.j.j.j.j.j.j.j.j.j.j.j.j.j.j.j.j.+X+X+X+X+X+X+X+X&X&X&X&X&X&X&X&X&X&X&X&X&X&X&X&X",
"j.j.j.j.j.j.j.j.j.j.j.j.j.j.j.j.j.j.j.j.j.j.j.j.OXOXOXOXOX+X+X+X&X&X&X&X&X&X&X&X&X&X&X&X&X&X&X&X",
"Z.Z.Z.Z.Z.Z.Z.Z.Z.Z.Z.Z.j.j.j.j.j.j.j.j.j.j.j.h.g.g.g.g.h.j.j.j.j.j.j.j.&X&X&X&X&X&X&X&X&X&X&X&X",
"Z.Z.Z.Z.Z.Z.Z.Z.Z.Z.Z.Z.j.j.j.j.j.j.j.j.j.h.j.j.j.j.j.j.j.j.j.j.j.j.j.j.&X&X&X&X&X&X&X&X&X&X&X&X",
"Z.Z.Z.Z.Z.Z.Z.Z.Z.Z.Z.Z.j.j.j.j.j.j.j.j.j.h.j.j.j.j.j.j.j.h.h.j.j.j.j.j.&X&X&X&X&X&X&X&X&X&X&X&X",
"Z.Z.Z.Z.Z.Z.Z.Z.Z.Z.Z.Z.j.j.j.j.j.j.j.g.j.j.j.u.e.e.e.e.u.j.j.h.g.j.j.j.&X&X&X&X&X&X&X&X&X&X&X&X",
"Z.Z.Z.Z.Z.Z.Z.Z.Z.Z.Z.Z.Z.Z.Z.Z.Z.Z.Z.V.Z.Z.b.H 0 < 0 0 F g.j.j.g.j.j.j.j.j.j.j.&X&X&X&X&X&X&X&X",
"Z.Z.Z.Z.Z.Z.Z.Z.Z.Z.Z.Z.Z.Z.Z.Z.Z.V.Z.Z.Z.x.i.e R _ T 7 0 J u.j.j.j.g.j.j.j.j.j.&X&X&X&X&X&X&X&X",
"Z.Z.Z.Z.Z.Z.Z.Z.Z.Z.Z.Z.Z.Z.Z.Z.Z.V.Z.Z.b.H 5 E =.P.O.e O * G g.j.j.g.j.j.j.j.j.&X&X&X&X&X&X&X&X",
"Z.Z.Z.Z.Z.Z.Z.Z.Z.Z.Z.Z.Z.Z.Z.V.Z.Z.Z.x.i...I.*.=.K.` > + _ ` J u.j.j.j.j.j.j.j.&X&X&X&X&X&X&X&X",
"H.H.H.H.H.H.H.H.H.H.H.H.Z.Z.Z.Z.Z.Z.n.J t ].:X(.%.$.R + t >.@.4 r.V.Z.Z.g.j.j.j.j.j.j.j.&X&X&X&X",
"H.H.H.H.H.H.H.H.H.H.H.H.Z.Z.Z.Z.Z.x.r.( Y.;X3X=XR.%.+.#.#.( ^ _ ) p.x.Z.j.j.j.j.j.j.j.j.&X&X&X&X",
"H.H.H.H.H.H.H.H.H.H.H.H.Z.Z.Z.Z.n.L e Y.-X;X:X2X$XP.R.$XY.3 t L.@.3 i.Z.j.j.h.j.j.j.j.j.&X&X&X&X",
"H.H.H.H.H.H.H.H.H.H.H.F.Z.V.V.c.| ( #._.-X;X:X3X=XR.(.-X).E W U.@.3 r.Z.j.j.g.j.j.j.j.j.&X&X&X&X",
"Z.Z.Z.Z.H.H.H.H.H.H.H.F.H.H.F.a.3 @.(._.'.=X:X:X%X(.(.'.E.$.%.L.` 5 p.Z.Z.Z.Z.Z.j.j.j.j.j.j.j.j.",
"Z.Z.Z.Z.H.H.H.H.H.F.F.H.H.H.H.k.4 #.(.(.^.'.=X=X{.).E.U.o.U ` L.O.5 p.V.Z.Z.Z.Z.j.j.j.j.j.j.j.j.",
"Z.Z.Z.Z.H.H.H.H.H.H.H.D.S.S.A.a.8 #.R.U.U.(.'.`._.^.U.%.r O t >.O.* p.Z.Z.Z.Z.Z.j.j.j.j.j.j.j.j.",
"Z.Z.Z.Z.H.H.H.F.F.H.H.C.i. . .Z 7 O.U.U.I.R.E.T.K.J.J.%.U O ^ L.O.+ d.Z.Z.Z.Z.Z.j.j.j.j.j.j.j.j.",
"H.H.H.H.H.H.H.H.H.F.A.k.O e n * + E L.U.U.R.=.E I E o.$.U o t =.@.7 r.b.B.Z.Z.Z.j.j.j.j.j.j.j.j.",
"H.H.H.H.H.F.F.H.H.C. .C   ,.[.[ . w *.L.P.U.o.O . & Y Q I   6 %.J.W A L c.Z.Z.Z.h.j.j.j.j.j.j.j.",
"H.H.H.H.H.F.F.D.A.l.O * / /.[.-.2 I %.J.*.Q R n g # = #.*.^ e I ~ &.E * i.Z.Z.Z.g.j.j.j.j.j.j.j.",
"H.H.H.G.F.H.G.C. .C   -.}.m.t U o.$.%.J.Q X t }.[.p u /.2X@X;.o r &.o.3 i.Z.Z.Z.g.j.j.j.j.j.j.j.",
"H.H.H.F.F.H.H.v.* 7 / !.].;.4 r Q Q E Q Y & ;.6X6Xw.8.#X6X6X X[ T E ( H z.Z.Z.Z.h.j.j.j.j.j.j.j.",
"H.H.H.F.F.H.H.v.O :..Xm.e [ Q.' 1 1 1 1 e ] |.4X5X#XXX1X4X1X1X,XQ.e L b.n.Z.Z.Z.j.j.j.j.j.j.j.j.",
"H.H.H.G.F.H.H.C.i.m.[.:.q [ Q.[ ; ; ; . 4 Q..X.X.X<X,X.X.X>X<X>XM.L x.Z.Z.Z.Z.Z.j.j.j.j.j.j.j.j.",
"H.H.H.H.H.F.F.D.S.z.t q./.-.7 b 3.3.l $ 2 *.~.I.~.$X'.I.^.=X_.^ r.n.Z.Z.Z.Z.Z.Z.j.j.j.j.j.j.j.j.",
"H.H.H.H.H.F.F.H.H.C.i.X.Q.[ ; V 7.3.b , 4 Y o.&.K.W.W.T.T.U._ @ L v.B.V.V.Z.Z.Z.j.j.j.j.j.j.j.j.",
"H.H.H.H.H.H.H.H.H.F.S.l.e D 3.7.V j : z a = r %.P.J.W.'.R.r = a b Z d.V.Z.Z.Z.Z.j.j.j.j.j.j.j.j.",
"H.H.H.H.H.H.H.F.F.H.H.C.i.K S S f @ $ x s $ + ^ ' / -.Q.;.c g v c & i.Z.Z.Z.Z.Z.j.j.j.j.j.j.j.j.",
"H.H.H.H.H.H.H.H.G.G.F.F.D.l.: : > g s d m = o = h m m m N 1.N , O O p.Z.Z.Z.Z.Z.j.j.j.j.j.j.j.j.",
"Z.Z.Z.Z.H.H.H.H.H.F.F.H.Z.d.+ 2 R ;.8.N = & & % u d d s d <.v + 9 ^ | z.s.j.j.j.j.j.j.j.&X&X&X&X",
"Z.Z.Z.Z.H.H.H.H.H.F.G.H.Z.p.: R P.'.)._ . @ i a M <.1.1.<.M i O E =.` 0 } j.j.h.h.j.j.j.&X&X&X&X",
"Z.Z.Z.Z.H.H.H.H.H.F.G.G.V.P 3 ` W.*XW.R . y k k <.4.9.9.5.4.h & ` R.#.3 G j.j.h.g.j.j.j.&X&X&X&X",
"Z.Z.Z.Z.H.H.H.H.H.F.G.H.Z.p.* _ U.R.*.w & f 2.V V 6.6.6.0.N.] & R L.O.* J j.j.h.h.j.j.j.&X&X&X&X",
"Z.Z.Z.Z.Z.Z.Z.Z.Z.Z.Z.Z.Z.v.d.) ^ ^ T Y R ) ..X...S l l q.}.m.5 1 R ( } u.j.j.j.&X&X&X&X&X&X&X&X",
"Z.Z.Z.Z.Z.Z.Z.Z.Z.Z.Z.Z.Z.Z.Z.i.> > q E $.! $.J.#.c # # [ _.R.7 . : } j.j.j.h.j.&X&X&X&X&X&X&X&X",
"Z.Z.Z.Z.Z.Z.Z.Z.Z.Z.Z.Z.Z.Z.Z.v.d.d.d.{ R R ^ / n , . . n ;.[ 5 B } f.j.j.j.j.j.&X&X&X&X&X&X&X&X",
"Z.Z.Z.Z.Z.Z.Z.Z.Z.Z.Z.Z.Z.Z.Z.Z.Z.Z.B.L & % y y % 0 9 + = s a * G j.j.h.h.j.j.j.&X&X&X&X&X&X&X&X",
"j.j.j.j.j.j.j.j.Z.Z.Z.Z.Z.Z.Z.Z.j.j.g.A & y y % < } } - i s a * G j.j.h.&X&X&X&X&X&X&X&X+X+X+X+X",
"j.j.j.j.j.j.j.j.Z.Z.Z.Z.Z.Z.Z.V.h.h.g.G q j j q G j.g.A b N b q J g.h.j.&X&X&X&X&X&X&X&X+X+X+X+X",
"j.j.j.j.j.j.j.j.Z.Z.Z.Z.Z.Z.Z.Z.h.h.g.u.t.y.y.t.f.j.j.u.y.p.y.t.f.g.j.j.&X&X&X&X&X&X&X&X+X+X+X+X",
"j.j.j.j.j.j.j.j.Z.Z.Z.Z.Z.Z.Z.Z.j.j.j.j.j.j.j.j.j.h.j.j.j.j.j.j.j.j.j.j.&X&X&X&X&X&X&X&X+X+X+X+X",
"j.j.j.j.j.j.j.j.j.j.j.j.j.j.j.j.j.j.j.j.j.j.j.j.+X+X+X+X+X+X+X+X&X&X&X&X&X&X&X&X&X&X&X&X&X&X&X&X",
"j.j.j.j.j.j.j.j.j.j.j.j.j.j.j.j.j.j.j.h.g.g.g.g.oX+X+XoXoXOXoXoX&X&X&X&X&X&X&X&X&X&X&X&X&X&X&X&X",
"j.j.j.j.j.j.j.j.j.j.j.j.j.j.j.j.j.j.j.j.j.j.j.j.OX+X+XOXOXOXOXOX&X&X&X&X&X&X&X&X&X&X&X&X&X&X&X&X",
"j.j.j.j.j.j.j.j.j.j.j.j.j.j.j.j.j.j.j.j.j.j.j.j.+X+X+X+X+X+X+X+X&X&X&X&X&X&X&X&X&X&X&X&X&X&X&X&X"
};
