/* XPM */
static char *_8509f3c382e492fd936351bb17bfe9aTfr8Q4tJ7CT1WFoV[] = {
/* columns rows colors chars-per-pixel */
"48 48 207 2 ",
"   c #080405",
".  c #150806",
"X  c #07141C",
"o  c #171616",
"O  c #1B1414",
"+  c #1D1C1B",
"@  c #280F07",
"#  c #360503",
"$  c #29100A",
"%  c #38160B",
"&  c #271816",
"*  c #231C1C",
"=  c #351A17",
"-  c #19241F",
";  c #37210C",
":  c #23221B",
">  c #29231A",
",  c #362317",
"<  c #32351D",
"1  c #171C24",
"2  c #1C242C",
"3  c #262222",
"4  c #2A2525",
"5  c #262825",
"6  c #2C2A29",
"7  c #263328",
"8  c #323424",
"9  c #363924",
"0  c #37342E",
"q  c #252F38",
"w  c #302F31",
"e  c #273439",
"r  c #373736",
"t  c #481802",
"y  c #56110D",
"u  c #451915",
"i  c #591714",
"p  c #5B1C1A",
"a  c #6B1818",
"s  c #771B1E",
"d  c #53300E",
"f  c #492219",
"g  c #562317",
"h  c #45371C",
"j  c #6E3513",
"k  c #4D1F22",
"l  c #671A21",
"z  c #492724",
"x  c #5E2B27",
"c  c #523B28",
"v  c #493C3A",
"b  c #632424",
"n  c #712326",
"m  c #6E3630",
"M  c #3D482F",
"N  c #784D18",
"B  c #444B24",
"V  c #4C552D",
"C  c #455936",
"Z  c #755429",
"A  c #6F5434",
"S  c #4E693B",
"D  c #566C3B",
"F  c #56743F",
"G  c #63743B",
"H  c #6F733C",
"J  c #6D7A3F",
"K  c #273A46",
"L  c #2E3A42",
"P  c #353C45",
"I  c #393E44",
"U  c #3A454A",
"Y  c #3A4B55",
"T  c #3A5363",
"R  c #3B5768",
"E  c #3E606E",
"W  c #464849",
"Q  c #544D4C",
"!  c #4C574A",
"~  c #54584A",
"^  c #474D53",
"/  c #48555A",
"(  c #59595B",
")  c #73594C",
"_  c #685A56",
"`  c #57664E",
"'  c #5A7943",
"]  c #6B7C45",
"[  c #717C42",
"{  c #6D6757",
"}  c #72735C",
"|  c #465965",
" . c #515D65",
".. c #48606E",
"X. c #55636C",
"o. c #5B646A",
"O. c #456172",
"+. c #4A6575",
"@. c #4B6A78",
"#. c #576B76",
"$. c #5B737E",
"%. c #6B6465",
"&. c #776565",
"*. c #7A716F",
"=. c #62767E",
"-. c #767070",
";. c #882D31",
":. c #8F3738",
">. c #825419",
",. c #895D29",
"<. c #945137",
"1. c #A05A3E",
"2. c #926633",
"3. c #A27233",
"4. c #925955",
"5. c #A05F44",
"6. c #A86F47",
"7. c #8C7764",
"8. c #A56B65",
"9. c #6D8141",
"0. c #6A874A",
"q. c #678A4B",
"w. c #738443",
"e. c #758A45",
"r. c #7A8A48",
"t. c #6D924F",
"y. c #7C934A",
"u. c #6C9250",
"i. c #769E56",
"p. c #77A057",
"a. c #77A058",
"s. c #78A158",
"d. c #808D4A",
"f. c #85924D",
"g. c #879A51",
"h. c #8CA554",
"j. c #8FA956",
"k. c #92A957",
"l. c #9BAB5A",
"z. c #99B65D",
"x. c #A4B55F",
"c. c #88857A",
"v. c #958F7C",
"b. c #BF9163",
"n. c #9EBB60",
"m. c #A2BD61",
"M. c #AABB63",
"N. c #A4C263",
"B. c #B4C669",
"V. c #B6C96A",
"C. c #BBCE6D",
"Z. c #BED26F",
"A. c #BFD370",
"S. c #C0D470",
"D. c #5A7786",
"F. c #5F7F90",
"G. c #627681",
"H. c #667C88",
"J. c #727E85",
"K. c #5F808C",
"L. c #6B828D",
"P. c #76838C",
"I. c #688694",
"U. c #768B96",
"Y. c #7B909B",
"T. c #7A98A5",
"R. c #988887",
"E. c #978E8A",
"W. c #818E97",
"Q. c #83939C",
"!. c #A89490",
"~. c #8499A3",
"^. c #8899A3",
"/. c #929EA6",
"(. c #96A3AC",
"). c #93AAB6",
"_. c #98ABB5",
"`. c #A9A8A9",
"'. c #B5A8A7",
"]. c #ADB4B2",
"[. c #B7B3B3",
"{. c #C9A39D",
"}. c #C8AEA5",
"|. c #C7B9B6",
" X c #E5BEB4",
".X c #AFDDBC",
"XX c #B0DFBD",
"oX c #B1E0BE",
"OX c #CEC3BD",
"+X c #EEC9BE",
"@X c #A9B8C1",
"#X c #B1BDC4",
"$X c #9BD4C3",
"%X c #9EC3D1",
"&X c #B7C3CA",
"*X c #B5CAD2",
"=X c #C5D1D7",
"-X c #CBD6DB",
";X c #D1D0D0",
":X c #E8D8D1",
">X c #EBE3DE",
",X c #FFE5DA",
"<X c #D5DEE2",
"1X c #DCE6EA",
"2X c #FFEDE5",
"3X c #FFF1E8",
"4X c #FFFEFA",
/* pixels */
"S.S.S.S.S.S.S.S.S.S.S.S.N.N.N.N.S.S.S.S.S.S.S.S.S.S.S.S.N.N.N.N.N.N.N.N.N.N.N.N.N.N.N.N.s.s.s.s.",
"S.S.S.S.S.S.S.S.S.S.S.S.N.N.N.N.S.S.S.S.S.S.S.S.S.S.S.S.N.N.N.N.N.N.N.N.N.N.N.N.N.N.N.N.s.s.s.s.",
"S.S.S.S.S.S.S.S.S.S.S.S.N.N.N.N.S.S.S.S.S.S.S.S.S.S.S.S.N.N.N.N.N.N.N.N.N.N.N.N.N.N.N.N.s.s.s.s.",
"S.S.S.S.S.S.S.S.S.S.S.S.N.N.N.N.S.S.S.S.S.S.S.A.Z.Z.Z.Z.N.N.N.N.N.N.N.N.N.N.N.N.N.N.N.N.s.s.s.s.",
"S.S.S.S.S.S.S.S.S.S.S.S.S.S.S.S.S.S.S.S.S.S.S.Z.Z.Z.Z.Z.Z.S.S.S.N.N.N.N.N.N.N.N.N.N.N.N.s.s.s.s.",
"S.S.S.S.S.S.S.S.S.S.S.S.S.S.S.S.S.S.S.S.S.Z.S.S.S.S.S.S.S.S.A.S.N.N.N.N.N.N.N.N.N.N.N.N.s.s.s.s.",
"S.S.S.S.S.S.S.S.S.S.S.S.S.S.S.S.S.S.S.S.S.Z.S.S.S.S.S.S.S.Z.Z.S.N.N.N.N.N.N.N.N.N.N.N.N.s.s.s.s.",
"S.S.S.S.S.S.S.S.S.S.S.S.S.S.S.S.S.S.S.Z.S.S.S.M.l.l.l.l.M.S.S.Z.N.N.N.N.N.N.N.N.N.N.N.N.s.s.s.s.",
"S.S.S.S.S.S.S.S.S.S.S.S.S.S.S.S.S.S.S.Z.S.S.B.J 9 9 9 9 ] m.N.N.m.N.N.N.N.N.N.N.N.N.N.N.s.s.s.s.",
"S.S.S.S.S.S.S.S.S.S.S.S.S.S.S.S.S.Z.A.S.S.x.f.r U ^ I 6 M e.k.N.N.N.N.N.N.N.N.N.N.N.N.N.s.s.s.s.",
"S.S.S.S.S.S.S.S.S.S.S.S.S.S.S.S.S.Z.S.S.V.J 6 Y D.H. .0 O : ] m.N.N.m.N.N.N.N.N.N.N.N.N.s.s.s.s.",
"S.S.S.S.S.S.S.S.S.S.S.S.S.S.S.Z.Z.A.S.x.f.{ J.#.$.K./ < + ^ ` e.k.N.N.N.N.N.N.N.N.N.N.N.s.s.s.s.",
"S.S.S.S.S.S.S.S.S.S.S.S.S.S.S.Z.S.S.V.J r `.-X^.+.O.U + r =.X.4 9.m.N.N.N.N.N.N.s.s.s.s.s.s.s.s.",
"S.S.S.S.S.S.S.S.S.S.S.S.S.Z.S.S.S.x.d.~ P.=X1X&XU.@...o.o.! W ^ ~ e.j.N.N.N.N.N.s.s.s.s.s.s.s.s.",
"S.S.S.S.S.S.S.S.S.S.S.S.S.Z.S.Z.V.w.w P.*X=X=X<X@XH.U.@XP.3 r G.X.3 w.N.N.N.N.N.s.s.s.s.s.s.s.s.",
"S.S.S.S.S.S.S.S.S.S.S.Z.Z.Z.Z.l.r.! o.(.*X=X-X1X&XU.~.*X/.Y / L.X.3 9.N.N.N.N.N.s.s.s.s.s.s.s.s.",
"S.S.S.S.S.S.S.S.S.S.S.Z.S.S.Z.r.3 X.~.)._.&X-X-X#X^.~.).Y.O.+.G./ 5 e.N.N.N.N.N.s.s.s.s.s.s.s.s.",
"S.S.S.S.S.S.S.S.S.Z.Z.S.S.S.S.d.4 o.~.~.Q._.&X&X]./.Y.L.| L / G. .5 e.m.N.N.N.N.s.s.s.s.s.s.s.s.",
"S.S.S.S.S.S.S.S.S.S.S.C.V.V.B.r.8 o.U.L.L.^._.).(.Q.L.+.e O M =. .* e.N.N.N.N.N.s.s.s.s.s.s.s.s.",
"S.S.S.S.S.S.S.Z.Z.S.S.M.w.[ [ V 6  .L.L.J.U.Y.I.F.D.D.+.L O W G. .+ y.N.N.N.N.N.s.s.s.s.s.s.s.s.",
"S.S.S.S.N.N.N.N.S.Z.B.d.O w v * + Y G.L.L.L.$.Y K Y | O.L o r $.X.6 9.z.n.N.N.N.s.s.s.s.s.s.s.s.",
"S.S.S.S.N.N.N.N.S.M.[ B   -.'._ . q #.G.H.I.| O . & P T K   5 @.D.Y C G h.N.N.N.p.s.s.s.s.s.s.s.",
"S.S.S.S.N.N.N.m.B.f.O * Q !.'.%.5 K @.D.#.T U v f # = o.#.W w K E @.Y * w.N.N.N.i.s.s.s.s.s.s.s.",
"S.S.S.A.N.N.N.j.[ B   %.[.c.r L | ..+.D.T X r [.'.i y !.<XOX&.o e @.| 3 w.N.N.N.i.s.s.s.s.s.s.s.",
"S.S.S.Z.Z.S.S.k.* 6 Q E.`.&.4 e T T Y T P & &.4X4X8.4.+X4X4X}._ I Y ! D q.s.i.i.p.s.s.s.$X$X$X$X",
"S.S.S.Z.Z.S.S.k.O *.|.c.w _ R.( 1 1 1 1 w ) {.2X3X+X X,X2X,X,X:XR.w G z.i.s.i.a.s.s.s.s.$X$X$X$X",
"S.S.S.A.Z.S.S.M.w.c.'.*.0 _ R._ ; ; ; . 4 R.|.|.|.>X:X|.|.;X>X;Xv.G h.N.s.s.a.s.s.s.s.s.$X$X$X$X",
"S.S.S.S.S.Z.Z.C.V.g.r 7.!.%.6 c ,.,.j $ 2 #.W.J.W.@X_.J.Q.&X(.W 9.z.N.N.s.s.s.s.s.s.s.s.$X$X$X$X",
"S.S.S.S.S.Z.Z.S.S.M.w.} E._ ; N 3.,.c , 4 P | @.F.T.T.I.I.L.^ @ G k.n.m.i.s.s.s.s.s.s.s.$X$X$X$X",
"S.S.S.S.S.S.S.S.S.Z.V.f.w A ,.3.N h > k p = e +.H.D.T._.U.e = p c V y.m.p.s.a.s.s.s.s.s.$X$X$X$X",
"S.S.S.S.S.S.S.Z.Z.S.S.M.w.H Z Z d @ $ l a $ + W ( Q %.R.&.z f x z & w.N.s.s.i.s.s.s.s.s.$X$X$X$X",
"S.S.S.S.S.S.S.S.A.A.Z.Z.C.f.> : > f a s b = o = g b b b m :.m , O O e.N.s.s.p.s.s.s.s.s.$X$X$X$X",
"N.N.N.N.S.S.S.S.S.Z.Z.S.N.y.+ 2 U &.4.m = & & % y s s a s ;.x + 7 W ] g.t.s.s.s.s.s.s.s.$X$X$X$X",
"N.N.N.N.S.S.S.S.S.Z.A.S.N.e.: U H._./.^ . @ u p n ;.:.:.;.n u O Y $.( 8 ' s.s.p.p.s.s.s.$X$X$X$X",
"N.N.N.N.S.S.S.S.S.Z.A.A.m.J 3 / T.%XT.U . t j j ;.<.5.5.1.<.g & / U.o.3 S s.s.p.i.s.s.s.$X$X$X$X",
"N.N.N.N.S.S.S.S.S.Z.A.S.N.e.* ^ L.U.#.q & d >.N N 2.2.2.6.b.) & U G. .* F s.s.p.p.s.s.s.$X$X$X$X",
"N.N.N.N.N.N.N.N.N.N.N.N.N.j.y.~ W W I P U ~ { } { Z j j 7.[.c.6 1 U ! ' t.s.s.s.$X$X$X$X$X$X$X$X",
"N.N.N.N.N.N.N.N.N.N.N.N.N.N.N.w.> > 8 Y O.R O.D.o.z # # _ (.U.6 . : ' a.s.s.p.s.$X$X$X$X$X$X$X$X",
"N.N.N.N.N.N.N.N.N.N.N.N.N.N.N.k.y.y.y.` U U W Q v , . . v &._ 8 M ' u.a.s.s.s.s.$X$X$X$X$X$X$X$X",
"N.N.N.N.N.N.N.N.N.N.N.N.N.N.N.N.N.N.n.G & % t t % 8 7 + = l p * S a.s.p.p.s.s.s.$X$X$X$X$X$X$X$X",
"s.s.s.s.s.s.s.s.N.N.N.N.N.N.N.N.s.s.i.C & t t % < ' ' - u a p * S s.s.p.$X$X$X$X$X$X$X$XoXoXoXoX",
"s.s.s.s.s.s.s.s.N.N.N.N.N.N.N.m.p.p.i.S 9 h h 9 S a.i.C c m c 9 F i.p.s.$X$X$X$X$X$X$X$XoXoXoXoX",
"s.s.s.s.s.s.s.s.N.N.N.N.N.N.N.N.p.p.i.q.q.0.0.q.u.s.s.q.0.e.0.q.u.i.s.s.$X$X$X$X$X$X$X$XoXoXoXoX",
"s.s.s.s.s.s.s.s.N.N.N.N.N.N.N.N.s.s.s.s.s.s.s.s.s.p.s.s.s.s.s.s.s.s.s.s.$X$X$X$X$X$X$X$XoXoXoXoX",
"s.s.s.s.s.s.s.s.s.s.s.s.s.s.s.s.s.s.s.s.s.s.s.s.oXoXoXoXoXoXoXoX$X$X$X$X$X$X$X$X$X$X$X$X$X$X$X$X",
"s.s.s.s.s.s.s.s.s.s.s.s.s.s.s.s.s.s.s.p.i.i.i.i..XoXoX.X.XXX.X.X$X$X$X$X$X$X$X$X$X$X$X$X$X$X$X$X",
"s.s.s.s.s.s.s.s.s.s.s.s.s.s.s.s.s.s.s.s.s.s.s.s.XXoXoXXXXXXXXXXX$X$X$X$X$X$X$X$X$X$X$X$X$X$X$X$X",
"s.s.s.s.s.s.s.s.s.s.s.s.s.s.s.s.s.s.s.s.s.s.s.s.oXoXoXoXoXoXoXoX$X$X$X$X$X$X$X$X$X$X$X$X$X$X$X$X"
};
