/* XPM */
static char *_7c8f792cd2c442baeb1630131a51c93ZC8V2bF1cfFX5Rqd[] = {
/* columns rows colors chars-per-pixel */
"48 48 210 2 ",
"   c #050406",
".  c #17090A",
"X  c #0A1218",
"o  c #141012",
"O  c #151214",
"+  c #1C1314",
"@  c #1F1A1B",
"#  c #18181C",
"$  c #2A0C08",
"%  c #330501",
"&  c #28140A",
"*  c #3B190A",
"=  c #3C0F12",
"-  c #281916",
";  c #231C1C",
":  c #2A1D1B",
">  c #381617",
",  c #1E271F",
"<  c #27251A",
"1  c #342417",
"2  c #30341E",
"3  c #161B23",
"4  c #1D2023",
"5  c #262222",
"6  c #272627",
"7  c #2D2B24",
"8  c #2C2A29",
"9  c #352D29",
"0  c #283223",
"q  c #323322",
"w  c #36352B",
"e  c #262F36",
"r  c #302F31",
"t  c #2A353A",
"y  c #383737",
"u  c #491809",
"i  c #53110E",
"p  c #441615",
"a  c #581A1A",
"s  c #5B1C1B",
"d  c #691415",
"f  c #731B1E",
"g  c #46200B",
"h  c #5A2F06",
"j  c #4C251C",
"k  c #5F251B",
"l  c #59371B",
"z  c #69290E",
"x  c #673B17",
"c  c #7E1B21",
"v  c #5E2621",
"b  c #4B3B25",
"n  c #51322A",
"m  c #483B3B",
"M  c #642525",
"N  c #712326",
"B  c #7A3635",
"V  c #3C4423",
"C  c #704715",
"Z  c #494424",
"A  c #4F592D",
"S  c #534639",
"D  c #65452B",
"F  c #73502A",
"G  c #755834",
"H  c #5B6B38",
"J  c #5A723B",
"K  c #6B6532",
"L  c #66773D",
"P  c #2A3A45",
"I  c #383D43",
"U  c #38444A",
"Y  c #2E4550",
"T  c #3A4953",
"R  c #3C4D58",
"E  c #3B5463",
"W  c #395665",
"Q  c #474848",
"!  c #504D45",
"~  c #4D554A",
"^  c #545749",
"/  c #464D53",
"(  c #5A4C54",
")  c #465559",
"_  c #57595B",
"`  c #6F5853",
"'  c #695B57",
"]  c #576548",
"[  c #5C6756",
"{  c #736B4F",
"}  c #697B44",
"|  c #727D42",
" . c #676757",
".. c #6C6D56",
"X. c #746259",
"o. c #475864",
"O. c #425C6B",
"+. c #515C63",
"@. c #515F68",
"#. c #47616E",
"$. c #55636C",
"%. c #5B646A",
"&. c #466373",
"*. c #4B6776",
"=. c #566B77",
"-. c #5B727D",
";. c #6A6365",
":. c #786766",
">. c #7A716F",
",. c #6D6F72",
"<. c #62767E",
"1. c #813B1E",
"2. c #882E32",
"3. c #8F3738",
"4. c #825218",
"5. c #904E32",
"6. c #9B563B",
"7. c #84612F",
"8. c #936633",
"9. c #925652",
"0. c #A05F44",
"q. c #8C7151",
"w. c #A76F47",
"e. c #847672",
"r. c #A56B65",
"t. c #6D8241",
"y. c #65874A",
"u. c #738443",
"i. c #758B46",
"p. c #7B8B49",
"a. c #7C934C",
"s. c #6C9250",
"d. c #779F57",
"f. c #789F57",
"g. c #77A057",
"h. c #78A158",
"j. c #808D4A",
"k. c #86984D",
"l. c #8A9D51",
"z. c #8CA454",
"x. c #8EA855",
"c. c #91AB57",
"v. c #93AD59",
"b. c #98A958",
"n. c #9AB65D",
"m. c #9DB95E",
"M. c #A2B25D",
"N. c #868279",
"B. c #99947E",
"V. c #BE8F60",
"C. c #9FBC60",
"Z. c #A1BE61",
"A. c #ABBD63",
"S. c #A4C263",
"D. c #B4C769",
"F. c #BACD6D",
"G. c #BED26F",
"H. c #BFD370",
"J. c #C0D470",
"K. c #5A7786",
"L. c #5F7F90",
"P. c #637985",
"I. c #667B87",
"U. c #727D85",
"Y. c #5F808C",
"T. c #6C838E",
"R. c #76838C",
"E. c #688694",
"W. c #788B95",
"Q. c #78929D",
"!. c #7894A2",
"~. c #7EA0AD",
"^. c #978786",
"/. c #91928E",
"(. c #83939D",
"). c #A79490",
"_. c #8499A3",
"`. c #879AA4",
"'. c #929CA4",
"]. c #95A2AA",
"[. c #93AAB6",
"{. c #98AAB4",
"}. c #A9A8A9",
"|. c #B5A8A7",
" X c #ADB4B1",
".X c #B7B3B3",
"XX c #C9A49D",
"oX c #C8AEA5",
"OX c #C7B8B6",
"+X c #E5BEB4",
"@X c #B1E0BE",
"#X c #CEC3BD",
"$X c #EEC9BE",
"%X c #A9B8C1",
"&X c #B1BDC4",
"*X c #9BD4C3",
"=X c #B7C3CA",
"-X c #A2C5D1",
";X c #B5CAD2",
":X c #C5D1D7",
">X c #CBD6DB",
",X c #D1D0D0",
"<X c #E8D8D1",
"1X c #EBE3DE",
"2X c #FFE5DA",
"3X c #D5DEE2",
"4X c #DCE6EA",
"5X c #FFEDE5",
"6X c #FFF1E8",
"7X c #FFFEFA",
/* pixels */
"*X*X*X*X*X*X*X*X*X*X*X*X*X*Xh.h.h.h.h.h.h.h.h.h.h.h.h.h.h.h.h.h.h.h.*X*X*X*X*X*X*X*X*X*X*X*X*X*X",
"*X*X*X*X*X*X*X*X*X*X*X*X*X*Xh.h.h.h.h.h.h.h.h.h.h.h.h.h.h.h.h.h.h.h.*X*X*X*X*X*X*X*X*X*X*X*X*X*X",
"*X*X*X*X*X*X*X*X*X*X*X*X*X*Xh.h.h.h.h.h.h.h.h.h.h.h.h.h.h.h.h.h.h.h.*X*X*X*X*X*X*X*X*X*X*X*X*X*X",
"*X*X*X*X*X*X*Xh.h.h.h.h.h.h.h.h.h.S.S.S.S.S.S.S.S.S.S.g.h.h.h.h.h.h.h.h.h.h.h.h.h.*X*X*X*X*X*X*X",
"*X*X*X*X*X*X*Xh.h.h.h.h.h.h.h.h.h.S.S.S.S.S.S.S.S.S.S.d.g.h.h.h.h.h.h.h.h.h.h.h.h.*X*X*X*X*X*X*X",
"*X*X*X*X*X*X*Xh.h.h.h.h.h.h.h.h.h.S.S.S.S.S.S.S.S.S.S.h.h.h.h.h.h.h.h.h.h.h.h.h.h.*X*X*X*X*X*X*X",
"*X*X*X*X*X*X*Xh.h.h.h.h.h.h.h.h.h.S.S.S.S.S.S.S.S.S.S.h.h.g.g.h.h.h.h.h.h.h.h.h.h.*X*X*X*X*X*X*X",
"*X*X*Xh.h.h.h.h.h.h.S.S.S.S.S.S.S.S.S.S.S.S.S.x.k.k.k.k.v.S.S.S.S.S.S.S.S.S.h.h.h.h.h.h.h.*X*X*X",
"*X*X*Xh.h.h.h.h.h.h.S.S.S.S.S.S.S.S.S.Z.S.S.n.H q 2 q q } Z.S.S.Z.S.S.S.S.S.h.h.h.h.h.h.h.*X*X*X",
"*X*X*Xh.h.h.h.h.h.h.S.S.S.S.S.S.S.Z.S.S.S.z.u.r U / U 8 V i.c.S.S.S.S.S.S.S.h.h.h.h.h.h.h.*X*X*X",
"*X*X*Xh.h.h.h.S.S.S.S.S.S.S.S.S.S.Z.S.S.n.L 8 T K.I.+.w + < p.Z.S.S.Z.S.S.S.S.S.S.h.h.h.h.*X*X*X",
"*X*X*Xh.h.h.h.S.S.S.S.S.S.S.S.Z.S.S.S.z.u. .U.=.-.Y.) 2 @ / [ i.c.S.S.S.S.S.S.S.S.h.h.h.h.*X*X*X",
"*X*X*Xh.h.h.h.S.S.S.S.S.S.S.S.S.S.S.m.J y }.>X_.*.&.Y @ y <.$.6 t.Z.S.S.S.S.S.S.S.h.h.h.h.*X*X*X",
"*X*X*Xh.h.h.h.S.S.S.S.S.S.S.S.S.S.z.t.~ R.:X4X=XW.*.#.%.%.~ / / ^ i.z.S.S.S.S.S.S.h.h.h.h.*X*X*X",
"h.h.h.h.h.h.h.S.S.S.S.S.S.S.J.G.F.u.r R.;X:X>X3X%XI.W.%XR.5 y P.$.5 u.S.S.S.S.S.S.h.h.h.h.h.h.h.",
"h.h.h.h.h.h.h.S.S.S.S.S.S.Z.G.n.p.~ %.].;X:X>X4X=XW._.;X'.T ) T.$.5 t.S.S.S.S.S.S.h.h.h.h.h.h.h.",
"h.h.h.h.h.h.h.S.S.S.S.S.S.S.G.p.5 $._.[.{.=X>X>X&X`._.{.Q.&.*.P._ 7 i.S.S.S.S.S.S.h.h.h.h.h.h.h.",
"h.h.h.S.S.S.S.S.S.S.G.J.J.J.J.j.6 %._._.(.{.=X=X X'.W.T.o.P ) P.+.7 k.G.G.H.S.S.S.S.S.S.S.h.h.h.",
"h.h.h.S.S.S.S.S.S.S.J.F.F.F.D.p.7 %.W.T.T.`.{.[.].(.T.*.t + y <.@.; k.H.J.H.S.S.S.S.S.S.S.h.h.h.",
"h.h.h.S.S.S.S.S.Z.S.J.A.u.| | A 8 +.T.T.U.W.Q.E.L.K.K.*.P + Q P.+.@ l.H.J.H.S.S.S.S.S.S.S.h.h.h.",
"h.h.h.S.S.S.S.S.S.Z.D.j.+ r m : @ T P.T.T.T.-.R P Y O.&.P O y -.$.6 j.D.F.H.S.S.S.S.S.S.S.h.h.h.",
"h.h.h.S.S.S.S.S.S.v.| Z   >.|.' . e =.P.I.E.o.+ . - I W P   6 *.K.R ] | M.J.S.S.S.S.S.S.S.h.h.h.",
"h.h.h.S.S.S.S.Z.n.u.O ; ! ).|.;.6 P *.K.=.E U m j % > %.=.Q r P #.*.R : k.J.S.S.S.S.S.S.S.h.h.h.",
"h.h.h.S.S.S.S.z.L V   ;..XN.y t O.O.&.K.E X y .X|.a i ).3X#XX.O t =.o.5 j.J.S.S.S.S.S.S.S.h.h.h.",
"h.h.h.S.S.S.S.a.; 8 ^ /.}.:.7 t W E R E P - :.7X7Xr.9.$X7X7XoX` I R ~ L n.J.S.S.S.S.S.S.S.h.h.h.",
"h.h.h.S.S.S.S.a.+ >.OXN.r ' ^._ 3 3 6 4 r X.XX5X6X$X+X2X5X2X2X<X^.r | D.F.H.Z.S.S.S.S.S.S.h.h.h.",
"h.h.h.S.S.S.S.x.L N.|.>.w ' ^.X.1 & o   7 ^.OXOXOX1X<XOXOX,X1X,XB.u.M.J.J.H.S.S.S.S.S.S.S.h.h.h.",
"h.h.h.h.h.g.g.Z.n.i.y e.).;.8 D 7.b X   6 ,.(.U.(.%X{.U.(.=X].Q j.F.G.J.G.J.S.S.S.S.S.S.S.h.h.h.",
"h.h.h.h.h.g.g.S.S.c.L ..^.' 1 l F j $ = 9 U W *.L.!.!.E.E.T./ $ u.A.F.J.J.J.S.S.S.S.S.S.S.h.h.h.",
"h.h.h.h.h.h.h.S.S.S.m.u.9 G 7.Z - = d f s - e *.I.K.!.[.T.t 1 k l A b.J.J.H.S.S.S.S.S.S.S.h.h.h.",
"h.h.h.h.h.h.h.S.Z.S.S.c.L K G S t ( 9.B p $ : Q _ ( ;.^.:.j u v m I } n.D.H.S.S.S.S.S.S.S.h.h.h.",
"h.h.h.h.h.h.h.S.S.S.S.S.m.u.q Q P.{.'./ . $ u g j M M M B 3.M - U =._ V a.S.S.S.S.h.h.h.h.h.h.h.",
"h.h.h.h.h.h.h.S.S.Z.Z.S.S.i.# ) _.-X~.Y   $ u u i f f d c 2.s O ) Q.%.5 t.S.S.S.S.h.h.h.h.h.h.h.",
"h.h.h.h.h.h.h.S.S.S.S.S.S.u.; ) T.Q.-.t o $ u s N 2.3.3.2.N p + / I.+.; i.S.S.S.S.h.h.h.h.h.h.h.",
"*X*X*Xh.h.h.h.S.S.S.S.S.Z.z.i.^ / R Q b h h z z 1.6.0.0.6.5.l : e / ] i.c.S.S.S.S.h.h.h.h.*X*X*X",
"*X*X*Xh.h.h.h.S.S.S.S.S.S.S.Z.t.; # 2 C 4.4.C C 4.8.8.8.w.V.q.7 o @ i.S.S.S.S.S.S.h.h.h.h.*X*X*X",
"*X*X*Xh.h.h.h.S.S.S.S.S.S.S.S.c.i.V : S { {  ...{ G x x q..X/.7 A i.v.S.S.S.S.S.S.h.h.h.h.*X*X*X",
"*X*X*Xh.h.h.h.S.S.S.S.S.S.Z.S.S.Z.L 7 T &.O.&.K.%.n % % ` {.W.8 t.S.S.S.S.S.S.S.S.h.h.h.h.*X*X*X",
"*X*X*Xh.h.h.h.h.h.h.S.S.S.S.S.S.S.c.a.] U U ! ^ m 1 . . S :.' q i.S.S.S.Z.S.h.h.h.h.h.h.h.@X@X@X",
"*X*X*Xh.h.h.h.h.h.h.S.S.S.S.S.Z.S.S.C.L - * g u * q 0 # > k s : t.Z.S.S.S.S.h.h.h.h.h.h.h.@X@X@X",
"*X*X*Xh.h.h.h.h.h.h.S.S.S.S.S.Z.S.S.S.H - u u * Z k.a., p d s : L Z.S.S.S.S.h.h.h.h.h.h.h.@X@X@X",
"*X*X*X*X*X*X*Xh.h.h.h.h.h.h.h.d.h.S.m.} V Z Z Z } S.m.H Z D D q J d.h.h.d.h.h.h.h.*X*X*X*X*X*X*X",
"*X*X*X*X*X*X*Xh.h.h.h.h.h.h.h.h.h.S.Z.v.z.z.z.z.v.S.S.c.z.z.z.y.s.g.h.h.h.h.h.h.h.*X*X*X*X*X*X*X",
"*X*X*X*X*X*X*Xh.h.h.h.h.h.h.h.h.h.S.S.S.S.S.S.S.S.S.S.S.S.S.S.h.h.h.h.h.h.h.h.h.h.*X*X*X*X*X*X*X",
"*X*X*X*X*X*X*Xh.h.h.h.h.h.h.h.h.h.S.S.S.S.S.S.S.S.S.S.S.S.S.S.h.h.h.h.h.h.h.h.h.h.*X*X*X*X*X*X*X",
"*X*X*X*X*X*X*X*X*X*X*X*X*X*Xh.h.h.h.h.g.d.d.d.d.g.h.h.g.d.f.d.d.g.h.*X*X*X*X*X*X*X*X*X*X*X*X*X*X",
"*X*X*X*X*X*X*X*X*X*X*X*X*X*Xh.h.h.h.h.h.h.h.h.h.h.h.h.h.h.h.h.h.h.h.*X*X*X*X*X*X*X*X*X*X*X*X*X*X",
"*X*X*X*X*X*X*X*X*X*X*X*X*X*Xh.h.h.h.h.h.h.h.h.h.h.h.h.h.h.h.h.h.h.h.*X*X*X*X*X*X*X*X*X*X*X*X*X*X"
};
