/* XPM */
static char *_1d51e1000554fcebcae5934ad506f33eTBGRDOzH4ybYLTY[] = {
/* columns rows colors chars-per-pixel */
"48 48 218 2 ",
"   c #050406",
".  c #17090A",
"X  c #0A1218",
"o  c #141012",
"O  c #151214",
"+  c #1C1314",
"@  c #1F1A1B",
"#  c #18181C",
"$  c #2A0C08",
"%  c #340200",
"&  c #310E03",
"*  c #28140A",
"=  c #3B190B",
"-  c #3C0F12",
";  c #231C1C",
":  c #291A18",
">  c #381617",
",  c #282519",
"<  c #352517",
"1  c #30351F",
"2  c #161B23",
"3  c #1D2023",
"4  c #262222",
"5  c #262626",
"6  c #2B2A25",
"7  c #2C292A",
"8  c #332D28",
"9  c #2E3625",
"0  c #323422",
"q  c #373529",
"w  c #262F36",
"e  c #302F31",
"r  c #2A353A",
"t  c #373737",
"y  c #491809",
"u  c #53110E",
"i  c #441615",
"p  c #581A1A",
"a  c #5B1C1B",
"s  c #691415",
"d  c #731B1E",
"f  c #47210C",
"g  c #5A2F06",
"h  c #4C251C",
"j  c #5B3119",
"k  c #69290F",
"l  c #683B17",
"z  c #7E1B21",
"x  c #492A25",
"c  c #5E2621",
"v  c #4C3C25",
"b  c #5C3823",
"n  c #483B3B",
"m  c #57383A",
"M  c #642525",
"N  c #712326",
"B  c #7A3635",
"V  c #3D4230",
"C  c #61421A",
"Z  c #784A13",
"A  c #454B25",
"S  c #46482B",
"D  c #554827",
"F  c #554839",
"G  c #4F5230",
"H  c #64482C",
"J  c #724D2D",
"K  c #755834",
"L  c #5D6B36",
"P  c #5F7137",
"I  c #746C37",
"U  c #68753D",
"Y  c #2A3A45",
"T  c #383D43",
"R  c #38444B",
"E  c #364752",
"W  c #3E4B54",
"Q  c #3C4D58",
"!  c #3B5463",
"~  c #395665",
"^  c #464848",
"/  c #504D46",
"(  c #4A5449",
")  c #55564A",
"_  c #454D54",
"`  c #4C4C50",
"'  c #5B4C54",
"]  c #475559",
"[  c #58595C",
"{  c #6F5853",
"}  c #695B57",
"|  c #596145",
" . c #556254",
".. c #656C4E",
"X. c #6A7C44",
"o. c #727D43",
"O. c #636556",
"+. c #746556",
"@. c #716F57",
"#. c #495963",
"$. c #425C6B",
"%. c #525D64",
"&. c #515F68",
"*. c #47616E",
"=. c #596064",
"-. c #55636C",
";. c #5C656E",
":. c #466374",
">. c #4A6574",
",. c #4B6978",
"<. c #586A75",
"1. c #546D7A",
"2. c #59727E",
"3. c #6B6465",
"4. c #796766",
"5. c #7A716F",
"6. c #6D6F72",
"7. c #61757D",
"8. c #813B1E",
"9. c #882E32",
"0. c #8E3838",
"q. c #923739",
"w. c #825218",
"e. c #904E32",
"r. c #9B563B",
"t. c #84612F",
"y. c #936633",
"u. c #925652",
"i. c #A05F44",
"p. c #8C7251",
"a. c #A76F47",
"s. c #847672",
"d. c #A56B65",
"f. c #6D8140",
"g. c #748343",
"h. c #758A46",
"j. c #7C8948",
"k. c #7A9048",
"l. c #77A057",
"z. c #78A158",
"x. c #808E4A",
"c. c #85934D",
"v. c #86994E",
"b. c #879851",
"n. c #8D9C52",
"m. c #8CA654",
"M. c #8CA655",
"N. c #93A355",
"B. c #97AD59",
"V. c #9BB85E",
"C. c #A3B25E",
"Z. c #A8B15F",
"A. c #888479",
"S. c #99947E",
"D. c #BE8F60",
"F. c #A6B761",
"G. c #A2BE61",
"H. c #AABC63",
"J. c #A4C263",
"K. c #AEC066",
"L. c #B1C367",
"P. c #B4C669",
"I. c #B6C96A",
"U. c #BACD6C",
"Y. c #BED26F",
"T. c #BFD370",
"R. c #C0D470",
"E. c #5B7888",
"W. c #5F7F90",
"Q. c #637985",
"!. c #667B86",
"~. c #727D85",
"^. c #6B838E",
"/. c #76838C",
"(. c #688694",
"). c #768B95",
"_. c #7B8B95",
"`. c #78929D",
"'. c #7894A2",
"]. c #7EA0AD",
"[. c #978786",
"{. c #91928E",
"}. c #83939C",
"|. c #A89490",
" X c #8396A0",
".X c #869AA4",
"XX c #929CA4",
"oX c #95A2AA",
"OX c #96A9B3",
"+X c #9BABB4",
"@X c #A9A8A9",
"#X c #B5A8A7",
"$X c #ADB4B1",
"%X c #B7B3B3",
"&X c #C9A49D",
"*X c #C8AEA5",
"=X c #C7B8B6",
"-X c #E5BEB4",
";X c #CEC3BD",
":X c #EEC9BE",
">X c #A9B8C1",
",X c #B1BDC4",
"<X c #B6C3CA",
"1X c #B6C5CC",
"2X c #A2C5D1",
"3X c #B6CBD4",
"4X c #D9CCC7",
"5X c #C5D1D7",
"6X c #CAD4DA",
"7X c #CBD6DB",
"8X c #E8D8D1",
"9X c #EBE3DE",
"0X c #FFE5DA",
"qX c #D5DEE2",
"wX c #DBE6EA",
"eX c #FFEDE5",
"rX c #FFF1E8",
"tX c #FFFEFA",
/* pixels */
"z.z.z.z.z.z.z.z.z.z.z.z.z.z.z.z.z.z.z.z.z.z.z.z.z.z.z.z.z.z.z.z.z.z.z.z.z.z.z.z.z.z.z.z.z.z.z.z.",
"z.z.z.z.z.z.z.z.z.z.z.z.z.z.z.z.z.z.z.z.z.z.z.z.z.z.z.z.z.z.z.z.z.z.z.z.z.z.z.z.z.z.z.z.z.z.z.z.",
"z.z.z.z.z.z.z.z.z.z.z.z.z.z.z.z.z.z.z.z.z.z.z.z.z.z.z.z.z.z.z.z.z.z.z.z.z.z.z.z.z.z.z.z.z.z.z.z.",
"z.z.z.z.z.z.z.z.z.z.z.z.z.z.z.z.z.z.z.z.z.z.z.z.l.l.l.l.z.z.z.z.z.z.z.z.z.z.z.z.z.z.z.z.z.z.z.z.",
"J.J.J.J.z.z.z.z.z.z.z.z.z.z.z.z.J.J.J.J.J.J.J.J.J.J.J.J.J.J.J.J.J.J.J.J.z.z.z.z.z.z.z.z.J.J.J.J.",
"J.J.J.J.z.z.z.z.z.z.z.z.z.z.z.z.J.J.J.J.J.J.J.J.J.J.J.J.J.J.J.J.J.J.J.J.z.z.z.z.z.z.z.z.J.J.J.J.",
"J.J.J.J.z.z.z.z.z.z.z.z.z.z.z.z.J.J.J.J.J.J.J.J.J.J.J.J.J.J.J.J.J.J.J.J.z.z.z.z.z.z.z.z.J.J.J.J.",
"J.J.J.J.z.z.z.z.z.z.z.z.z.z.z.z.J.J.J.J.J.J.J.M.v.v.v.v.B.J.J.J.J.J.J.J.z.z.z.z.z.z.z.z.J.J.J.J.",
"J.J.J.J.J.J.J.J.J.J.J.J.J.J.J.J.J.J.J.G.J.J.V.L 0 1 0 0 X.G.J.J.G.J.J.J.J.J.J.J.J.J.J.J.J.J.J.J.",
"J.J.J.J.J.J.J.J.J.J.J.J.J.J.J.J.J.G.J.J.J.M.g.e R _ T 7 V h.B.J.J.J.J.J.J.J.J.J.J.J.J.J.J.J.J.J.",
"J.J.J.J.J.J.J.J.J.J.J.J.J.J.J.J.J.G.J.J.V.P 6 E 2.!.%.e O , f.G.J.J.G.J.J.J.J.J.J.J.J.J.J.J.J.J.",
"J.J.J.J.J.J.J.J.J.J.J.J.J.J.J.G.J.J.J.M.g.O.~.1.2.W.] , @ _  .h.B.J.J.J.J.J.J.J.J.J.J.J.J.J.J.J.",
"J.J.J.J.J.J.J.J.J.J.J.J.J.J.J.J.J.J.V.P t @X6X X>.:.R @ t 7.-.5 f.G.J.J.J.J.J.J.J.J.J.J.J.J.J.J.",
"J.J.J.J.J.J.J.J.J.J.J.J.J.J.J.J.J.M.f.( /.5XwX<X_.,.*.;.=.( _ _ ) h.M.J.J.J.J.J.J.J.J.J.J.J.J.J.",
"J.J.J.J.J.J.J.J.J.J.J.J.J.J.J.J.V.U e /.1X5X6XqX>X!.).>X/.4 t Q.-.4 g.J.J.J.J.J.J.J.J.J.J.J.J.J.",
"J.J.J.J.J.J.J.J.J.J.J.J.J.G.G.M.X.( ;.oX3X5X6XwX<X_. X3XXXE Q ^.-.4 f.J.J.J.J.J.J.J.J.J.J.J.J.J.",
"R.R.R.R.R.R.R.R.J.J.J.J.R.R.Y.j.4 -. XOX+X<X6X6X,X.X XOX`.:.>.Q.] 6 h.J.R.T.Y.R.R.R.R.R.R.R.R.R.",
"R.R.R.R.R.R.R.R.J.J.G.J.R.R.R.x.5 ;..X X}.+X1X1X$XXX_.^.#.Y ] Q.%.6 h.G.Y.T.Y.R.R.R.R.R.R.R.R.R.",
"R.R.R.R.R.R.R.R.J.J.J.G.I.I.P.j.8 =.).^.^..X+XOXoX}.^.>.r O V 7.&.; h.J.R.T.Y.R.R.R.R.R.R.R.R.R.",
"R.R.R.R.R.R.R.Y.G.J.J.M.g.o.o.G 7 %.^.^.~._.`.(.W.E.E.>.Y + ^ Q.%.@ k.J.R.T.Y.R.R.R.R.R.R.R.R.R.",
"J.J.J.J.R.R.R.R.R.Y.P.x.+ e n ; @ W Q.^.^.^.2.Q Y E $.:.Y O t 2.-.7 x.P.U.T.Y.R.R.R.R.R.J.J.J.J.",
"J.J.J.J.R.Y.Y.R.R.H.o.A   5.#X} . w 1.Q.!.(.#.+ . : T ~ Y   5 ,.E.Q | o.C.R.R.T.Y.R.R.R.J.J.J.J.",
"J.J.J.J.R.Y.Y.U.L.c.O ; / |.#X3.5 Y ,.E.1.! R n h % > ;.<.^ e Y *.,.W ; c.R.R.Y.Y.R.R.R.J.J.J.J.",
"J.J.J.J.Y.R.T.F.o.A   3.%XA.t r $.$.:.E.! X t %X#Xp u |.qX;X+.O r 1.#.4 c.R.R.R.Y.R.R.R.J.J.J.J.",
"R.R.R.Y.Y.R.R.N.; 7 ) {.@X4.6 r ~ ! Q ! Y : 4.tXtXd.u.:XtXtX*X{ T Q ( U B.R.T.R.Y.R.R.R.R.R.R.R.",
"R.R.R.Y.Y.R.R.N.+ 5.=XA.e } [.[ 2 2 5 3 e { &XeXrX:X-X0XeX0X0X8X[.e o.L.U.T.Y.R.R.R.R.R.R.R.R.R.",
"R.R.R.T.Y.R.R.F.g.A.#X5.q } [.+.< * O   6 [.=X=X=X9X8X=X=X4X9X4XS.g.C.R.R.T.Y.R.R.R.R.R.R.R.R.R.",
"R.R.R.R.R.Y.Y.U.I.b.t s.|.3.7 H t.v X   5 6.}.~.}.>X+X~.}.<XoX^ x.U.Y.R.Y.R.R.R.R.R.R.R.R.R.R.R.",
"R.R.R.R.R.Y.Y.R.R.H.g.@.[.} < j J h $ - 8 R ~ ,.W.'.'.(.(.^.` $ g.H.U.R.R.R.R.R.R.R.R.R.R.R.R.R.",
"R.R.R.R.R.R.R.R.R.Y.I.c.8 K t.D : - s d a : w >.!.E.'.+X).r < c b G N.R.R.T.Y.R.R.R.R.R.R.R.R.R.",
"R.R.R.R.R.R.R.Y.Y.R.R.H.g.I K F r ' u.B i $ : ^ [ ' 3.[.4.x y c m T ..V.L.T.Y.R.T.R.R.R.R.R.R.R.",
"R.R.R.R.R.R.R.R.R.R.T.Y.U.c.8 ^ Q.+XXX` . & y f h c M M B 0.M : R <.[ S N.R.R.Y.Y.R.R.R.R.R.R.R.",
"R.R.R.R.R.R.R.R.R.Y.Y.R.R.c.# ] .X2X].E   $ y y u d d s z 9.a O ] `.;.4 x.R.R.Y.Y.R.R.R.R.R.R.R.",
"R.R.R.R.R.R.R.R.R.Y.T.R.R.c.; ] ^.`.2.r O & y a N 9.q.0.9.N i + _ !.%.; n.R.R.Y.Y.R.R.R.R.R.R.R.",
"R.R.R.R.R.R.R.R.R.T.R.Y.Y.C.b.| _ W ^ v g g k k 8.r.i.i.r.e.b , w _ ..n.H.R.T.T.Y.R.R.R.R.R.R.R.",
"R.R.R.R.R.R.R.R.R.R.R.Y.R.R.Y.x.; # 1 C w.w.Z Z w.y.y.y.a.D.p.8 O @ b.Y.R.T.Y.R.R.R.R.R.R.R.R.R.",
"R.R.R.R.R.R.R.R.R.R.R.Y.R.R.R.H.v.A : F +...O.@.+.K l l p.%X{.8 L n.H.R.R.R.T.R.R.R.R.R.R.R.R.R.",
"R.R.R.R.R.R.R.R.R.R.R.R.R.Y.R.R.Y.j.6 W >.$.:.E.;.x % % { +X_.7 x.Y.R.T.Y.R.R.R.R.R.R.R.R.R.R.R.",
"R.R.R.R.R.R.R.R.R.R.R.R.R.Y.Y.R.R.H.n...R ^ / ) n < . . F 4.} q v.R.R.Y.Y.R.R.R.R.R.R.R.R.R.R.R.",
"R.R.R.R.R.R.R.R.R.R.R.R.R.R.R.Y.T.R.U.o.: = f y = 0 9 # > M a ; j.Y.T.R.Y.R.R.R.R.R.R.R.R.R.R.R.",
"R.R.R.R.R.R.R.R.R.R.R.R.R.R.R.Y.Y.R.Y.U : y y = A N.n.5 i s a ; g.U.T.R.Y.R.R.R.R.R.R.R.R.R.R.R.",
"R.R.R.R.R.R.R.R.R.R.R.R.R.R.R.Y.R.Y.I.j.S D D S j.T.U.U D J H S b.Y.R.R.Y.R.R.R.R.R.R.R.R.R.R.R.",
"R.R.R.R.R.R.R.R.R.R.R.R.R.R.R.T.R.T.Y.H.C.C.C.C.H.R.R.H.Z.Z.Z.C.K.Y.R.R.T.R.R.R.R.R.R.R.R.R.R.R.",
"R.R.R.R.R.R.R.R.R.R.R.R.R.R.R.R.R.R.R.R.R.R.R.R.R.Y.R.R.R.R.R.R.R.R.R.R.R.R.R.R.R.R.R.R.R.R.R.R.",
"R.R.R.R.R.R.R.R.R.R.R.R.R.R.R.R.R.R.R.R.R.R.R.R.R.R.R.R.R.R.R.R.R.R.R.R.R.R.R.R.R.R.R.R.R.R.R.R.",
"R.R.R.R.R.R.R.R.R.R.R.R.R.R.R.R.R.R.R.Y.Y.Y.Y.Y.Y.R.R.Y.Y.Y.Y.Y.Y.R.R.R.R.R.R.R.R.R.R.R.R.R.R.R.",
"R.R.R.R.R.R.R.R.R.R.R.R.R.R.R.R.R.R.R.R.T.R.R.T.T.R.R.T.R.R.R.T.R.R.R.R.R.R.R.R.R.R.R.R.R.R.R.R.",
"R.R.R.R.R.R.R.R.R.R.R.R.R.R.R.R.R.R.R.R.R.R.R.R.R.R.R.R.R.R.R.R.R.R.R.R.R.R.R.R.R.R.R.R.R.R.R.R."
};
