/* XPM */
static char *c33eb5660af04193952f8c023b5f3a34qvXRU8hHJ8QGiQDS[] = {
/* columns rows colors chars-per-pixel */
"48 48 211 2 ",
"   c #080405",
".  c #160706",
"X  c #0F1312",
"o  c #171616",
"O  c #1B1414",
"+  c #1D1C1B",
"@  c #280F07",
"#  c #360503",
"$  c #29100A",
"%  c #38160B",
"&  c #271816",
"*  c #231C1C",
"=  c #351A17",
"-  c #19241F",
";  c #36220D",
":  c #24231B",
">  c #282419",
",  c #372117",
"<  c #32361E",
"1  c #171C24",
"2  c #1C242C",
"3  c #262222",
"4  c #2A2525",
"5  c #2B2B25",
"6  c #22262A",
"7  c #2C292A",
"8  c #342A28",
"9  c #263328",
"0  c #323423",
"q  c #353728",
"w  c #252F38",
"e  c #302F31",
"r  c #293537",
"t  c #373737",
"y  c #481802",
"u  c #56110D",
"i  c #451915",
"p  c #5B1B19",
"a  c #6B1818",
"s  c #771B1E",
"d  c #53300E",
"f  c #492219",
"g  c #572417",
"h  c #45371C",
"j  c #6E3513",
"k  c #4D1F22",
"l  c #671A21",
"z  c #492724",
"x  c #5F2C27",
"c  c #523B28",
"v  c #493C3A",
"b  c #632424",
"n  c #712326",
"m  c #6E3630",
"M  c #37421E",
"N  c #3B4522",
"B  c #3E403D",
"V  c #784D18",
"C  c #46512A",
"Z  c #425932",
"A  c #745428",
"S  c #6E5334",
"D  c #4D693C",
"F  c #5A6C38",
"G  c #59713B",
"H  c #646234",
"J  c #62743B",
"K  c #6A7B3E",
"L  c #273A46",
"P  c #2E3A42",
"I  c #353C45",
"U  c #393E44",
"Y  c #3A454A",
"T  c #3A4B55",
"R  c #3E5259",
"E  c #3A5363",
"W  c #3B5768",
"Q  c #474849",
"!  c #495448",
"~  c #54554A",
"^  c #474D53",
"/  c #574D52",
"(  c #49555A",
")  c #59595B",
"_  c #74594C",
"`  c #685A56",
"'  c #596747",
"]  c #5A7A43",
"[  c #556254",
"{  c #6B7D45",
"}  c #727E43",
"|  c #696857",
" . c #726B59",
".. c #445965",
"X. c #525D64",
"o. c #515F68",
"O. c #46616E",
"+. c #55636C",
"@. c #5C646B",
"#. c #456172",
"$. c #4A6575",
"%. c #4B6978",
"&. c #566B77",
"*. c #59727E",
"=. c #6B6465",
"-. c #776565",
";. c #7A716F",
":. c #61757D",
">. c #767070",
",. c #882D31",
"<. c #8F3738",
"1. c #825419",
"2. c #895D29",
"3. c #945137",
"4. c #A05A3E",
"5. c #90652B",
"6. c #926633",
"7. c #A27233",
"8. c #925955",
"9. c #A05F44",
"0. c #937856",
"q. c #A86F47",
"w. c #837A76",
"e. c #A56B65",
"r. c #6D813F",
"t. c #608146",
"y. c #6D8241",
"u. c #6A874A",
"i. c #66884B",
"p. c #6A8D4D",
"a. c #728544",
"s. c #768B46",
"d. c #788C4A",
"f. c #7C934B",
"g. c #6C9251",
"h. c #769E57",
"j. c #789F57",
"k. c #77A057",
"l. c #77A058",
"z. c #78A158",
"x. c #808D4A",
"c. c #87954D",
"v. c #8A9D51",
"b. c #8CA654",
"n. c #91AB57",
"m. c #96AD5A",
"M. c #95B15A",
"N. c #9AB65D",
"B. c #9DB95E",
"V. c #A2B35D",
"C. c #87857A",
"Z. c #99937D",
"A. c #BF9163",
"S. c #9DBA60",
"D. c #A1BF61",
"F. c #A4C263",
"G. c #B6C96A",
"H. c #BED26F",
"J. c #BFD370",
"K. c #C0D470",
"L. c #5B7888",
"P. c #5F7F90",
"I. c #627681",
"U. c #667C88",
"Y. c #727E85",
"T. c #6B828D",
"R. c #76838C",
"E. c #688694",
"W. c #768B96",
"Q. c #7B909B",
"!. c #7B97A4",
"~. c #988887",
"^. c #958D8A",
"/. c #818E97",
"(. c #83939D",
"). c #A79490",
"_. c #8699A3",
"`. c #929EA6",
"'. c #96A3AC",
"]. c #92A9B4",
"[. c #9AACB6",
"{. c #A9A8A9",
"}. c #B5A8A7",
"|. c #ADB4B2",
" X c #B9B4B3",
".X c #C9A39D",
"XX c #C8AEA5",
"oX c #C8B9B6",
"OX c #E5BEB4",
"+X c #AFDDBC",
"@X c #B0DFBD",
"#X c #B1E0BE",
"$X c #CEC3BD",
"%X c #EEC9BE",
"&X c #A9B8C1",
"*X c #B1BDC4",
"=X c #9BD4C3",
"-X c #9EC3D1",
";X c #B6C4CB",
":X c #B6CBD4",
">X c #C5D1D7",
",X c #CBD6DB",
"<X c #D1D0D0",
"1X c #E8D8D1",
"2X c #EBE3DE",
"3X c #FFE5DA",
"4X c #D5DEE2",
"5X c #DBE6EA",
"6X c #FFEDE5",
"7X c #FFF1E8",
"8X c #FFFEFA",
/* pixels */
"=X=X=X=X=X=X=X=X=X=X=X=X=X=X=X=X=X=X=X=X#X#X#X#Xz.z.z.z.z.z.z.z.z.z.z.z.z.z.z.z.z.z.z.z.z.z.z.z.",
"=X=X=X=X=X=X=X=X=X=X=X=X=X=X=X=X=X=X=X=X#X#X#X#Xz.z.z.z.z.z.z.z.z.z.z.z.z.z.z.z.z.z.z.z.z.z.z.z.",
"=X=X=X=X=X=X=X=X=X=X=X=X=X=X=X=X=X=X=X=X#X#X#X#Xz.z.z.z.z.z.z.z.z.z.z.z.z.z.z.z.z.z.z.z.z.z.z.z.",
"=X=X=X=X=X=X=X=X=X=X=X=X=X=X=X=X=X=X=X=X#X#X#X@Xk.k.k.k.z.z.z.z.z.z.z.z.z.z.z.z.z.z.z.z.z.z.z.z.",
"=X=X=X=X=X=X=X=X=X=X=X=Xz.z.z.z.z.z.z.z.z.z.z.k.j.j.j.j.k.z.z.z.z.z.z.z.F.F.F.F.F.F.F.F.F.F.F.F.",
"=X=X=X=X=X=X=X=X=X=X=X=Xz.z.z.z.z.z.z.z.z.k.z.z.z.z.z.z.z.z.z.z.z.z.z.z.F.F.F.F.F.F.F.F.F.F.F.F.",
"=X=X=X=X=X=X=X=X=X=X=X=Xz.z.z.z.z.z.z.z.z.k.z.z.z.z.z.z.z.k.k.z.z.z.z.z.F.F.F.F.F.F.F.F.F.F.F.F.",
"=X=X=X=X=X=X=X=X=X=X=X=Xz.z.z.z.z.z.z.j.z.z.z.p.t.t.t.t.p.z.z.k.j.z.z.z.F.F.F.F.F.F.F.F.F.F.F.F.",
"=X=X=X=X=X=X=X=Xz.z.z.z.z.z.z.z.F.F.F.D.F.F.N.F 0 < 0 0 { S.F.F.D.F.F.F.F.F.F.F.F.F.F.F.F.F.F.F.",
"=X=X=X=X=X=X=X=Xz.z.z.z.z.z.z.z.F.D.F.F.F.b.a.e Y ^ U 7 N s.n.F.F.F.F.F.F.F.F.F.F.F.F.F.F.F.F.F.",
"=X=X=X=X=X=X=X=Xz.z.z.z.z.z.z.z.F.D.F.F.N.F 5 T *.U.X.e O : y.D.F.F.D.F.F.F.F.F.F.F.F.F.F.F.F.F.",
"=X=X=X=X=X=X=X=Xz.z.z.z.z.z.z.j.F.F.F.b.a.| Y.&.*.P.( > + ^ [ s.n.F.F.F.F.F.F.F.F.F.F.F.F.F.F.F.",
"#X#X#X#Xz.z.z.z.z.z.z.z.F.F.F.F.F.F.B.G t {.,X_.$.#.Y + t :.+.4 y.D.F.F.F.F.F.F.K.K.K.K.K.K.K.K.",
"#X#X#X#Xz.z.z.z.z.z.z.z.F.F.F.F.F.b.y.! R.>X5X;XW.%.O.@.@.! Q ^ ~ s.b.F.F.F.F.F.K.K.K.K.K.K.K.K.",
"#X#X#X#Xz.z.z.z.z.z.z.z.F.F.F.F.B.J e R.:X>X,X4X&XU.W.&XR.3 t I.+.3 a.F.F.F.F.F.K.K.K.K.K.K.K.K.",
"#X#X#X#Xz.z.z.z.z.z.z.j.F.D.D.b.{ ! @.'.:X>X,X5X;XW._.:X`.T R T.+.3 y.F.F.F.F.F.K.K.K.K.K.K.K.K.",
"z.z.z.z.z.z.z.z.F.F.F.F.F.F.F.K 3 +._.].[.;X,X,X*X_._.].Q.#.$.I.( 5 c.J.K.J.H.K.K.K.K.K.F.F.F.F.",
"z.z.z.z.z.z.z.z.F.F.D.F.F.F.F.y.4 @._.!.(.[.;X;X|.`.Q.T...P ( I.X.5 c.H.H.J.H.K.K.K.K.K.F.F.F.F.",
"z.z.z.z.z.z.z.z.F.F.F.D.B.B.N.K 5 X.W.T.T._.[.].'.(.T.$.r O B :.o.* c.K.K.J.H.K.K.K.K.K.F.F.F.F.",
"z.z.z.z.z.z.z.j.D.F.F.n.J J J C 5 X.T.T.Y.W.Q.E.P.L.L.$.P O Q I.X.+ v.K.K.J.H.K.K.K.K.K.F.F.F.F.",
"z.z.z.z.z.z.z.z.F.D.N.y.O e v * + T I.T.T.W.*.T L T ..#.P o t *.+.7 x.G.G.J.H.K.K.K.K.K.K.K.K.K.",
"z.z.z.z.z.k.j.z.F.m.J M   >.}.` . w &.I.U.T...O . & I E L   6 %.L.R ' } V.K.K.J.H.K.K.K.K.K.K.K.",
"z.z.z.z.z.k.k.j.N.a.O * Q ).}.=.6 L %.L.&.E Y v f # = @.&.Q e L O.%.T * c.K.K.H.H.K.K.K.K.K.K.K.",
"z.z.z.z.l.z.z.p.J N   =. XC.t P ..O.$.L.E X t |.}.p u ).4X$X-.X r &...3 c.K.K.K.H.K.K.K.K.K.K.K.",
"z.z.z.k.j.z.z.] * 7 ~ ^.{.-.5 r E E T E I & -.8X8Xe.8.%X8X8XXX` U T ! K m.K.J.K.H.K.K.K.K.K.K.K.",
"z.z.z.k.j.z.z.] O ;. Xw.e ` ~.) 1 1 1 1 e _ .X6X7X%XOX3X6X3X3X1X~.e } G.G.J.H.K.K.K.K.K.K.K.K.K.",
"z.z.z.z.l.z.z.i.J C.}.;.q ` ~.` ; ; ; . 4 ~.oXoXoX2X1XoXoX<X2X<XZ.a.V.K.K.J.H.K.K.K.K.K.K.K.K.K.",
"z.z.z.z.z.k.k.j.N.d.t w.).=.7 c 2.2.j @ 2 &.Q.Y./.&X[.Y.(.;X'.Q f.G.H.K.K.K.K.K.K.K.K.K.K.K.K.K.",
"z.z.z.z.z.k.k.z.F.n.J | ~.` ; V 7.5.c , 8 I ..%.P.!.!.E.E.T.^ @ J m.S.D.H.K.K.K.K.K.K.K.K.K.K.K.",
"z.z.z.z.z.z.z.z.F.F.B.a.e S 2.7.V h : k p = w $.U.L.!.[.W.r = g c C f.D.H.J.H.K.K.K.K.K.K.K.K.K.",
"z.z.z.z.z.z.z.j.D.F.F.n.J H A A d @ $ l a $ + Q ) / =.~.-.z f b z & a.F.K.J.H.K.K.K.K.K.K.K.K.K.",
"z.z.z.z.z.z.z.z.F.F.F.F.B.a.: : > f a s b = o = g b b b m <.m , O O s.F.K.J.H.K.K.K.K.K.K.K.K.K.",
"=X=X=X=Xz.z.z.z.z.j.j.z.F.f.+ 2 Y -.8.m = & & % u s s a s ,.x + 9 Q { v.M.F.F.F.F.F.F.F.K.K.K.K.",
"=X=X=X=Xz.z.z.z.z.k.z.z.F.s.: Y U.[.`.^ . @ i p n ,.<.<.,.n i O T *.( 0 f.F.F.F.F.F.F.F.K.K.K.K.",
"=X=X=X=Xz.z.z.z.z.k.z.z.D.K 3 ( !.-X!.Y . y j j ,.3.9.9.4.3.g & ( W.@.3 r.F.F.F.F.F.F.F.K.K.K.K.",
"=X=X=X=Xz.z.z.z.z.k.z.z.F.s.* ^ T.W.&.w & d 1.V V 6.6.6.q.A._ * Y I.X.* d.F.F.F.F.F.F.F.K.K.K.K.",
"=X=X=X=X=X=X=X=Xz.z.z.l.z.p.] ! ^ ^ U I Y ~ |  . .A j j 0. XC.5 1 Y ' f.m.F.F.F.F.F.F.F.F.F.F.F.",
"=X=X=X=X=X=X=X=Xz.z.z.j.z.z.l.G > > q T #.W #.L.@.z # # ` '.W.7 . : d.F.F.F.F.F.F.F.F.F.F.F.F.F.",
"=X=X=X=X=X=X=X=Xz.z.z.z.z.z.z.p.f.f.f.' Y Y Q ~ v , . . v -.` q F f.M.F.F.F.F.F.F.F.F.F.F.F.F.F.",
"=X=X=X=X=X=X=X=Xz.z.z.z.z.z.k.z.F.F.S.J & % y y % 0 9 + = l p * y.F.F.F.D.F.F.F.F.F.F.F.F.F.F.F.",
"=X=X=X=X=X=X=X=X=X=X=X=Xz.z.k.z.z.z.j.Z & y y % < ] ] - i a p * D z.z.k.D.F.F.F.z.z.z.z.z.z.z.z.",
"=X=X=X=X=X=X=X=X=X=X=X=Xz.z.z.j.k.k.h.D q h h q D l.h.Z c m c q G j.k.z.F.F.F.F.z.z.z.z.z.z.z.z.",
"=X=X=X=X=X=X=X=X=X=X=X=Xz.z.z.l.k.k.j.p.i.u.u.i.g.z.z.p.u.s.u.i.g.j.z.z.F.F.F.F.z.z.z.z.z.z.z.z.",
"=X=X=X=X=X=X=X=X=X=X=X=Xz.z.z.z.z.z.z.z.z.z.z.z.z.k.z.z.z.z.z.z.z.z.z.z.F.F.F.F.z.z.z.z.z.z.z.z.",
"=X=X=X=X=X=X=X=X=X=X=X=X=X=X=X=X=X=X=X=X#X#X#X#Xz.z.z.z.z.z.z.z.z.z.z.z.z.z.z.z.z.z.z.z.z.z.z.z.",
"=X=X=X=X=X=X=X=X=X=X=X=X=X=X=X=X=X=X=X=X+X+X+X+Xk.z.z.k.j.j.j.j.k.z.z.z.z.z.z.z.z.z.z.z.z.z.z.z.",
"=X=X=X=X=X=X=X=X=X=X=X=X=X=X=X=X=X=X=X=X@X@X@X@Xz.z.z.z.z.z.z.z.z.z.z.z.z.z.z.z.z.z.z.z.z.z.z.z.",
"=X=X=X=X=X=X=X=X=X=X=X=X=X=X=X=X=X=X=X=X#X#X#X#Xz.z.z.z.z.z.z.z.z.z.z.z.z.z.z.z.z.z.z.z.z.z.z.z."
};
