/* XPM */
static char *e47f060310ad4f7985b74dc08a0e4cb6XdSSYuibhOPSW0dY[] = {
/* columns rows colors chars-per-pixel */
"48 48 211 2 ",
"   c #050406",
".  c #17090A",
"X  c #0A1218",
"o  c #141012",
"O  c #151214",
"+  c #1C1314",
"@  c #1F1A1B",
"#  c #18181C",
"$  c #2A0C08",
"%  c #330501",
"&  c #28140A",
"*  c #3B190B",
"=  c #3C0F12",
"-  c #231D1C",
";  c #291A18",
":  c #381617",
">  c #2A2719",
",  c #352517",
"<  c #30351F",
"1  c #161B23",
"2  c #262222",
"3  c #262626",
"4  c #2B2B25",
"5  c #2C282A",
"6  c #342C28",
"7  c #2E3723",
"8  c #323422",
"9  c #373529",
"0  c #262F36",
"q  c #302F31",
"w  c #293539",
"e  c #373737",
"r  c #491809",
"t  c #53110E",
"y  c #441615",
"u  c #581A1A",
"i  c #5B1C1B",
"p  c #691415",
"a  c #731B1E",
"s  c #46200B",
"d  c #5A2F06",
"f  c #4C251C",
"g  c #5B3119",
"h  c #683012",
"j  c #7E1B21",
"k  c #4E2E2C",
"l  c #5E2621",
"z  c #4C3C25",
"x  c #5A3622",
"c  c #483B3B",
"v  c #642525",
"b  c #712326",
"n  c #7A3635",
"m  c #3B4227",
"M  c #704715",
"N  c #464A27",
"B  c #554827",
"V  c #4A582A",
"C  c #504D3B",
"Z  c #6B4B2C",
"A  c #755834",
"S  c #4E673A",
"D  c #576C39",
"F  c #59733C",
"G  c #746C37",
"H  c #63743B",
"J  c #6A7A3E",
"K  c #2A3A45",
"L  c #383D43",
"P  c #38444A",
"I  c #2E4550",
"U  c #3A4953",
"Y  c #3C4D58",
"T  c #3E5456",
"R  c #3B5463",
"E  c #395665",
"W  c #3E606E",
"Q  c #474848",
"!  c #504D45",
"~  c #495349",
"^  c #54554A",
"/  c #464D53",
"(  c #5B4C54",
")  c #485559",
"_  c #57595B",
"`  c #6F5853",
"'  c #695B57",
"]  c #5A6747",
"[  c #666B4E",
"{  c #736B4F",
"}  c #727D44",
"|  c #636556",
" . c #746259",
".. c #6E7653",
"X. c #495963",
"o. c #425C6B",
"O. c #525D64",
"+. c #515F68",
"@. c #4A616E",
"#. c #55636C",
"$. c #5C646B",
"%. c #466373",
"&. c #4B6574",
"*. c #4A6A79",
"=. c #576B77",
"-. c #58717E",
";. c #6B6465",
":. c #796766",
">. c #7A716F",
",. c #6D6F72",
"<. c #61757D",
"1. c #813B1E",
"2. c #882E32",
"3. c #8F3738",
"4. c #825218",
"5. c #904E32",
"6. c #9B563B",
"7. c #84612F",
"8. c #936633",
"9. c #925652",
"0. c #A05F44",
"q. c #8C7251",
"w. c #A76F47",
"e. c #847672",
"r. c #A56B65",
"t. c #608146",
"y. c #6D8141",
"u. c #648548",
"i. c #6A8E4D",
"p. c #738443",
"a. c #758B46",
"s. c #798948",
"d. c #7C934A",
"f. c #769F57",
"g. c #77A057",
"h. c #78A158",
"j. c #818E4B",
"k. c #85934D",
"l. c #89964F",
"z. c #8A9B52",
"x. c #8BA554",
"c. c #8BA555",
"v. c #93A856",
"b. c #97B35B",
"n. c #9AB65D",
"m. c #9DBA5F",
"M. c #A3B25E",
"N. c #A8B15F",
"B. c #888479",
"V. c #95907D",
"C. c #BE8F60",
"Z. c #A6B761",
"A. c #A2BE61",
"S. c #AABC64",
"D. c #A4C263",
"F. c #AEC066",
"G. c #B5C86A",
"H. c #BACE6D",
"J. c #BED26F",
"K. c #BFD370",
"L. c #C0D470",
"P. c #5B7888",
"I. c #5F7F90",
"U. c #637985",
"Y. c #667B86",
"T. c #727D85",
"R. c #6B838E",
"E. c #76838C",
"W. c #688694",
"Q. c #788B95",
"!. c #77929C",
"~. c #7A94A2",
"^. c #7EA0AD",
"/. c #978786",
"(. c #91928E",
"). c #83939C",
"_. c #A89490",
"`. c #8599A4",
"'. c #929CA4",
"]. c #95A2AA",
"[. c #92A9B4",
"{. c #9AABB4",
"}. c #A9A8A9",
"|. c #B5A8A7",
" X c #ADB4B1",
".X c #B7B3B3",
"XX c #C9A49D",
"oX c #C8AEA5",
"OX c #C7B8B6",
"+X c #E5BEB4",
"@X c #B0DFBD",
"#X c #B1E0BE",
"$X c #CEC3BD",
"%X c #EEC9BE",
"&X c #A9B8C1",
"*X c #B1BDC4",
"=X c #9BD4C3",
"-X c #B6C4CB",
";X c #A2C5D1",
":X c #B6CBD4",
">X c #C5D1D7",
",X c #CBD6DB",
"<X c #D1D0D0",
"1X c #E8D8D1",
"2X c #EBE3DE",
"3X c #FFE5DA",
"4X c #D5DEE2",
"5X c #DBE6EA",
"6X c #FFEDE5",
"7X c #FFF1E8",
"8X c #FFFEFA",
/* pixels */
"h.h.h.h.h.h.h.h.h.h.h.h.h.h.h.h.h.h.h.h.h.h.h.h.#X#X#X#X#X#X#X#X=X=X=X=X=X=X=X=X=X=X=X=X=X=X=X=X",
"h.h.h.h.h.h.h.h.h.h.h.h.h.h.h.h.h.h.h.h.h.h.h.h.#X#X#X#X#X#X#X#X=X=X=X=X=X=X=X=X=X=X=X=X=X=X=X=X",
"h.h.h.h.h.h.h.h.h.h.h.h.h.h.h.h.h.h.h.h.h.h.h.h.#X#X#X#X#X#X#X#X=X=X=X=X=X=X=X=X=X=X=X=X=X=X=X=X",
"h.h.h.h.h.h.h.h.h.h.h.h.h.h.h.h.h.h.h.h.h.h.h.h.@X@X@X@X@X#X#X#X=X=X=X=X=X=X=X=X=X=X=X=X=X=X=X=X",
"D.D.D.D.D.D.D.D.D.D.D.D.h.h.h.h.h.h.h.h.h.h.h.g.f.f.f.f.g.h.h.h.h.h.h.h.=X=X=X=X=X=X=X=X=X=X=X=X",
"D.D.D.D.D.D.D.D.D.D.D.D.h.h.h.h.h.h.h.h.h.g.h.h.h.h.h.h.h.h.h.h.h.h.h.h.=X=X=X=X=X=X=X=X=X=X=X=X",
"D.D.D.D.D.D.D.D.D.D.D.D.h.h.h.h.h.h.h.h.h.g.h.h.h.h.h.h.h.g.g.h.h.h.h.h.=X=X=X=X=X=X=X=X=X=X=X=X",
"D.D.D.D.D.D.D.D.D.D.D.D.h.h.h.h.h.h.h.f.h.h.h.i.t.t.t.t.i.h.h.g.f.h.h.h.=X=X=X=X=X=X=X=X=X=X=X=X",
"D.D.D.D.D.D.D.D.D.D.D.D.D.D.D.D.D.D.D.A.D.D.n.D 8 < 8 8 S f.h.h.f.h.h.h.h.h.h.h.=X=X=X=X=X=X=X=X",
"D.D.D.D.D.D.D.D.D.D.D.D.D.D.D.D.D.A.D.D.D.x.p.q P / L 5 7 F i.h.h.h.f.h.h.h.h.h.=X=X=X=X=X=X=X=X",
"D.D.D.D.D.D.D.D.D.D.D.D.D.D.D.D.D.A.D.D.n.D 4 U -.Y.O.q + - S f.h.h.f.h.h.h.h.h.=X=X=X=X=X=X=X=X",
"D.D.D.D.D.D.D.D.D.D.D.D.D.D.D.A.D.D.D.x.p.| T.=.-.I.) > @ / ) F i.h.h.h.h.h.h.h.=X=X=X=X=X=X=X=X",
"D.D.D.D.D.D.D.D.D.D.D.D.D.D.D.D.D.D.m.F e }.,X`.&.%.I @ e <.#.3 y.A.D.D.f.h.h.h.h.h.h.h.=X=X=X=X",
"D.D.D.D.D.D.D.D.D.D.D.D.D.D.D.D.D.x.y.~ E.>X5X-XQ.&.@.$.$.~ / / ^ a.x.D.h.h.h.h.h.h.h.h.=X=X=X=X",
"D.D.D.D.D.D.D.D.D.D.D.D.D.D.D.D.m.H q E.:X>X,X4X&XY.Q.&XE.2 e U.#.2 p.D.h.h.g.h.h.h.h.h.=X=X=X=X",
"D.D.D.D.D.D.D.D.D.D.D.D.D.A.A.x.} ~ $.].:X>X,X5X-XQ.`.:X'.U T R.#.2 y.D.h.h.f.h.h.h.h.h.=X=X=X=X",
"D.D.D.D.L.L.L.L.D.D.D.D.D.D.D.J 2 #.`.[.{.-X,X,X*X`.`.[.!.%.&.U.) 3 a.D.h.h.g.h.h.h.h.h.=X=X=X=X",
"D.D.D.D.L.L.L.L.D.D.A.D.D.D.D.y.3 $.`.~.).{.-X-X X'.Q.R.X.K ) U.O.4 a.A.g.h.g.h.h.h.h.h.=X=X=X=X",
"D.D.D.D.L.L.L.L.D.D.D.A.m.m.n.J 4 O.Q.R.R.`.{.[.].).R.&.w + e <.+.- a.D.h.h.g.h.h.h.h.h.=X=X=X=X",
"D.D.D.D.L.L.L.J.A.D.D.v.H H H N 4 O.R.R.T.Q.!.W.I.P.P.&.K + Q U.O.@ d.D.h.h.f.h.h.h.h.h.=X=X=X=X",
"L.L.L.L.L.L.L.L.L.J.G.j.+ q c - @ U U.R.R.R.-.Y K I o.%.K O e -.#.5 y.n.f.h.h.h.h.h.h.h.=X=X=X=X",
"L.L.L.L.L.J.J.L.L.S.} N   >.|.' . 0 =.U.Y.W.X.+ . ; L E K   3 &.P.Y C H u.h.h.h.g.h.h.h.=X=X=X=X",
"L.L.L.L.L.J.J.H.G.k.O - ! _.|.;.3 K *.P.=.R P c f % : $.=.Q q K W *.Y - D h.h.g.f.h.h.h.=X=X=X=X",
"L.L.L.K.J.L.K.Z.} N   ;..XB.e w o.o.%.P.R X e .X|.u t _.4X$X .O w *.X.2 D h.h.g.f.h.h.h.=X=X=X=X",
"L.L.L.J.J.L.L.v.- 5 ^ (.}.:.5 w E R Y R K ; :.8X8Xr.9.%X8X8XoX` L Y ~ D z.D.D.D.g.h.h.h.h.h.h.h.",
"L.L.L.J.J.L.L.v.+ >.OXB.q ' /._ 1 1 3 1 q  .XX6X7X%X+X3X6X3X3X1X/.q H b.m.D.D.D.h.h.h.h.h.h.h.h.",
"L.L.L.K.J.L.L.Z.p.B.|.>.9 ' /. ., & o   4 /.OXOXOX2X1XOXOX<X2X<XV.H x.D.D.D.D.D.h.h.h.h.h.h.h.h.",
"L.L.L.L.L.J.J.H.G.l.e e._.;.5 Z 7.z X   3 ,.).T.).&X{.T.).-X].Q y.m.D.D.D.D.D.D.h.h.h.h.h.h.h.h.",
"L.L.L.L.L.J.J.L.L.S.p.../.' , g Z f $ = 6 P E *.I.~.~.W.W.R./ $ H v.m.D.D.D.D.D.h.h.h.h.h.h.h.h.",
"L.L.L.L.L.L.L.L.L.J.G.k.6 A 7.B ; = p a i ; 0 &.Y.P.~.{.Q.w , l x N d.D.D.D.D.D.h.h.h.h.h.h.h.h.",
"L.L.L.L.L.L.L.J.J.L.L.S.p.G A C w ( 9.n y $ ; Q _ ( ;./.:.f r l c L ] x.b.D.D.D.h.h.h.h.h.h.h.h.",
"L.L.L.L.L.L.L.L.L.L.L.J.H.k.8 Q U.{.'./ . $ r s f l v v n 3.v ; P =._ m d.D.D.D.g.h.h.h.h.h.h.h.",
"D.D.D.D.L.L.L.L.L.J.J.L.L.k.# ) `.;X^.I   $ r r t a a p j 2.i O T !.$.2 y.D.D.D.D.D.D.D.h.h.h.h.",
"D.D.D.D.L.L.L.L.L.J.K.L.L.k.- ) R.!.-.w o $ r i b 2.3.3.2.b y + T Y.O.- a.D.D.D.D.D.D.D.h.h.h.h.",
"D.D.D.D.L.L.L.L.L.K.L.J.J.M.l.] / Y Q z d d d h 1.6.0.0.6.5.x > 0 / ] a.v.D.D.D.D.D.D.D.h.h.h.h.",
"D.D.D.D.L.L.L.L.L.L.L.J.L.L.J.j.- # < M 4.4.M M 4.8.8.8.w.C.q.8 o @ a.D.D.D.D.D.D.D.D.D.h.h.h.h.",
"L.L.L.L.L.L.L.L.L.L.L.J.L.L.L.S.l.N ; C { [ | ..{ A h h q..X(.6 V a.b.D.D.D.D.D.D.D.D.D.h.h.h.h.",
"L.L.L.L.L.L.L.L.L.L.L.L.L.J.L.L.J.s.4 U %.o.%.P.$.k % % ` {.Q.5 y.D.D.D.D.D.D.D.D.D.D.D.h.h.h.h.",
"L.L.L.L.L.L.L.L.L.L.L.L.L.J.J.L.L.S.z.[ P P ! ^ c , . . C :.' 9 a.D.D.D.A.D.D.D.D.D.D.D.h.h.h.h.",
"L.L.L.L.L.L.L.L.L.L.L.L.L.L.L.J.K.L.H.} ; * s r * 8 7 # : v i - y.A.D.D.D.D.D.D.D.D.D.D.h.h.h.h.",
"L.L.L.L.L.L.L.L.L.L.L.L.L.L.L.J.J.L.J.J ; r r * N v.z.3 y p i - p.H.K.L.D.D.D.D.h.h.h.h.h.h.h.h.",
"L.L.L.L.L.L.L.L.L.L.L.L.L.L.L.J.L.J.G.s.N B B N s.K.H.J B Z Z N l.J.L.L.D.D.D.D.h.h.h.h.h.h.h.h.",
"L.L.L.L.L.L.L.L.L.L.L.L.L.L.L.K.L.K.J.S.M.M.M.M.S.L.L.S.N.N.N.M.F.J.L.L.D.D.D.D.h.h.h.h.h.h.h.h.",
"L.L.L.L.L.L.L.L.L.L.L.L.L.L.L.L.L.L.L.L.L.L.L.L.L.J.L.L.L.L.L.L.L.L.L.L.D.D.D.D.h.h.h.h.h.h.h.h.",
"L.L.L.L.L.L.L.L.L.L.L.L.L.L.L.L.L.L.L.L.L.L.L.L.L.L.L.L.L.L.L.L.D.D.D.D.D.D.D.D.h.h.h.h.h.h.h.h.",
"L.L.L.L.L.L.L.L.L.L.L.L.L.L.L.L.L.L.L.J.J.J.J.J.J.L.L.J.J.J.J.J.D.D.D.D.D.D.D.D.h.h.h.h.h.h.h.h.",
"L.L.L.L.L.L.L.L.L.L.L.L.L.L.L.L.L.L.L.L.K.L.L.K.K.L.L.K.L.L.L.K.D.D.D.D.D.D.D.D.h.h.h.h.h.h.h.h.",
"L.L.L.L.L.L.L.L.L.L.L.L.L.L.L.L.L.L.L.L.L.L.L.L.L.L.L.L.L.L.L.L.D.D.D.D.D.D.D.D.h.h.h.h.h.h.h.h."
};
