/* XPM */
static char *_355255a1b7b4c39f55b897320ed395ecJPYqZw2ug9H9lM8[] = {
/* columns rows colors chars-per-pixel */
"48 48 212 2 ",
"   c #050406",
".  c #17090A",
"X  c #0A1218",
"o  c #141012",
"O  c #151214",
"+  c #1C1314",
"@  c #1B191B",
"#  c #2A0B08",
"$  c #330501",
"%  c #28140A",
"&  c #3B190A",
"*  c #3C0F12",
"=  c #281916",
"-  c #231D1C",
";  c #2A1D1B",
":  c #371816",
">  c #19241F",
",  c #2A2E19",
"<  c #342517",
"1  c #32361E",
"2  c #161B23",
"3  c #1D2023",
"4  c #262222",
"5  c #272627",
"6  c #2B2A24",
"7  c #2C2929",
"8  c #352D29",
"9  c #2B3522",
"0  c #323421",
"q  c #353728",
"w  c #262F36",
"e  c #302F31",
"r  c #293539",
"t  c #373737",
"y  c #481809",
"u  c #53110E",
"i  c #441615",
"p  c #581A1A",
"a  c #5B1C1B",
"s  c #681716",
"d  c #731B1E",
"f  c #46200B",
"g  c #5A2F06",
"h  c #4C251C",
"j  c #4E311C",
"k  c #59371B",
"l  c #69340F",
"z  c #7E1B21",
"x  c #5D2621",
"c  c #4A3B26",
"v  c #52332A",
"b  c #493B3A",
"n  c #642525",
"m  c #712326",
"M  c #743731",
"N  c #3A4725",
"B  c #704715",
"V  c #444C25",
"C  c #524D31",
"Z  c #455936",
"A  c #74532D",
"S  c #6F5331",
"D  c #4C6539",
"F  c #4E6A3A",
"G  c #5A6B39",
"H  c #5F7137",
"J  c #56733E",
"K  c #746C37",
"L  c #63743B",
"P  c #6B7E3F",
"I  c #2A3A45",
"U  c #383D43",
"Y  c #38444A",
"T  c #2E4550",
"R  c #3A4953",
"E  c #3C4D58",
"W  c #3E5456",
"Q  c #3B5463",
"!  c #395665",
"~  c #3E606E",
"^  c #464848",
"/  c #504D45",
"(  c #495349",
")  c #545749",
"_  c #464D53",
"`  c #5B4C54",
"'  c #485559",
"]  c #57595B",
"[  c #6F5853",
"{  c #695A57",
"}  c #586849",
"|  c #5A7A44",
" . c #736B4F",
".. c #717C42",
"X. c #636556",
"o. c #746259",
"O. c #6E7252",
"+. c #495963",
"@. c #425C6B",
"#. c #515D65",
"$. c #4A616E",
"%. c #55636C",
"&. c #5B646A",
"*. c #466373",
"=. c #4B6574",
"-. c #4A6A79",
";. c #576B77",
":. c #58717E",
">. c #6B6465",
",. c #776665",
"<. c #7A716F",
"1. c #6D6F72",
"2. c #61757D",
"3. c #813B1E",
"4. c #882E32",
"5. c #8F3738",
"6. c #825218",
"7. c #975338",
"8. c #84612F",
"9. c #936633",
"0. c #925652",
"q. c #A05F44",
"w. c #8C7151",
"e. c #A76F47",
"r. c #847672",
"t. c #A56B65",
"y. c #608146",
"u. c #6D8142",
"i. c #65874A",
"p. c #6A874A",
"a. c #6A8E4D",
"s. c #738443",
"d. c #748945",
"f. c #788948",
"g. c #6C914E",
"h. c #7C934B",
"j. c #6C9251",
"k. c #769E57",
"l. c #77A057",
"z. c #78A158",
"x. c #808D4A",
"c. c #84924D",
"v. c #889B51",
"b. c #87A051",
"n. c #8BA553",
"m. c #92A856",
"M. c #99B55C",
"N. c #9DBA5F",
"B. c #888479",
"V. c #95907D",
"C. c #BE8F60",
"Z. c #9FBC60",
"A. c #A2BE61",
"S. c #A9BB63",
"D. c #A4C263",
"F. c #B4C669",
"G. c #B7CA6B",
"H. c #BBCE6D",
"J. c #BED26F",
"K. c #BFD370",
"L. c #C0D470",
"P. c #5B7888",
"I. c #5F7F90",
"U. c #637985",
"Y. c #667B86",
"T. c #727D85",
"R. c #6B838E",
"E. c #76838C",
"W. c #688694",
"Q. c #788B95",
"!. c #77919C",
"~. c #7894A2",
"^. c #7EA0AD",
"/. c #978786",
"(. c #91928E",
"). c #83939C",
"_. c #A89490",
"`. c #8599A3",
"'. c #929CA4",
"]. c #95A2AA",
"[. c #96A9B3",
"{. c #9AABB4",
"}. c #A9A8A9",
"|. c #B5A8A7",
" X c #ADB4B1",
".X c #B7B3B3",
"XX c #C9A49D",
"oX c #C8AEA5",
"OX c #C7B8B6",
"+X c #E5BEB4",
"@X c #AFDDBC",
"#X c #B0DFBD",
"$X c #B1E0BE",
"%X c #CEC3BD",
"&X c #EEC9BE",
"*X c #A9B8C1",
"=X c #B1BDC4",
"-X c #9BD4C3",
";X c #B6C4CB",
":X c #A1C5D1",
">X c #B6CBD4",
",X c #C5D1D7",
"<X c #CBD6DB",
"1X c #D1D0D0",
"2X c #E8D8D1",
"3X c #EBE3DE",
"4X c #FFE5DA",
"5X c #D5DEE2",
"6X c #DBE6EA",
"7X c #FFEDE5",
"8X c #FFF1E8",
"9X c #FFFEFA",
/* pixels */
"z.z.z.z.z.z.z.z.z.z.z.z.z.z.z.z.z.z.z.z.z.z.z.z.$X$X$X$X$X$X$X$X-X-X-X-X-X-X-X-X-X-X-X-X-X-X-X-X",
"z.z.z.z.z.z.z.z.z.z.z.z.z.z.z.z.z.z.z.z.z.z.z.z.$X$X$X$X$X$X$X$X-X-X-X-X-X-X-X-X-X-X-X-X-X-X-X-X",
"z.z.z.z.z.z.z.z.z.z.z.z.z.z.z.z.z.z.z.z.z.z.z.z.$X$X$X$X$X$X$X$X-X-X-X-X-X-X-X-X-X-X-X-X-X-X-X-X",
"z.z.z.z.z.z.z.z.z.z.z.z.z.z.z.z.z.z.z.z.z.z.z.z.#X#X#X#X#X$X$X$X-X-X-X-X-X-X-X-X-X-X-X-X-X-X-X-X",
"D.D.D.D.D.D.D.D.D.D.D.D.z.z.z.z.z.z.z.z.z.z.z.l.k.k.k.k.l.z.z.z.z.z.z.z.-X-X-X-X-X-X-X-X-X-X-X-X",
"D.D.D.D.D.D.D.D.D.D.D.D.z.z.z.z.z.z.z.z.z.l.z.z.z.z.z.z.z.z.z.z.z.z.z.z.-X-X-X-X-X-X-X-X-X-X-X-X",
"D.D.D.D.D.D.D.D.D.D.D.D.z.z.z.z.z.z.z.z.z.l.z.z.z.z.z.z.z.l.l.z.z.z.z.z.-X-X-X-X-X-X-X-X-X-X-X-X",
"D.D.D.D.D.D.D.D.D.D.D.D.z.z.z.z.z.z.z.k.z.z.z.a.y.y.y.y.a.z.z.l.k.z.z.z.-X-X-X-X-X-X-X-X-X-X-X-X",
"D.D.D.D.D.D.D.D.D.D.D.D.D.D.D.D.D.D.D.A.D.D.M.G 0 1 0 0 F k.z.z.k.z.z.z.z.z.z.z.-X-X-X-X-X-X-X-X",
"D.D.D.D.D.D.D.D.D.D.D.D.D.D.D.D.D.A.D.D.D.n.s.e Y _ U 7 9 J a.z.z.z.k.z.z.z.z.z.-X-X-X-X-X-X-X-X",
"D.D.D.D.D.D.D.D.D.D.D.D.D.D.D.D.D.A.D.D.M.H 6 R :.Y.#.e + - F k.z.z.k.z.z.z.z.z.-X-X-X-X-X-X-X-X",
"D.D.D.D.D.D.D.D.D.D.D.D.D.D.D.A.D.D.D.n.s.X.T.;.:.I.' , @ _ ' J a.z.z.z.z.z.z.z.-X-X-X-X-X-X-X-X",
"L.L.L.L.L.L.L.L.L.L.L.L.D.D.D.D.D.D.N.H t }.<X`.=.*.T @ t 2.%.5 u.A.D.D.k.z.z.z.z.z.z.z.-X-X-X-X",
"L.L.L.L.L.L.L.L.L.L.L.L.D.D.D.D.D.n.u.( E.,X6X;XQ.=.$.&.&.( _ _ ) d.n.D.z.z.z.z.z.z.z.z.-X-X-X-X",
"L.L.L.L.L.L.L.L.L.L.L.L.D.D.D.D.N.L e E.>X,X<X5X*XY.Q.*XE.4 t U.%.4 s.D.z.z.l.z.z.z.z.z.-X-X-X-X",
"L.L.L.L.L.L.L.L.L.L.L.J.D.A.A.b...( &.].>X,X<X6X;XQ.`.>X'.R W R.%.4 u.D.z.z.k.z.z.z.z.z.-X-X-X-X",
"D.D.D.D.L.L.L.L.L.L.L.J.L.L.J.f.4 %.`.[.{.;X<X<X=X`.`.[.!.*.=.U.' 6 d.D.D.D.D.D.z.z.z.z.z.z.z.z.",
"D.D.D.D.L.L.L.L.L.J.J.L.L.L.L.x.5 &.`.`.).{.;X;X X'.Q.R.+.I ' U.#.6 d.A.D.D.D.D.z.z.z.z.z.z.z.z.",
"D.D.D.D.L.L.L.L.L.L.L.H.G.G.F.f.8 &.Q.R.R.`.{.[.].).R.=.r + t 2.#.- d.D.D.D.D.D.z.z.z.z.z.z.z.z.",
"D.D.D.D.L.L.L.J.J.L.L.S.s.....C 7 #.R.R.T.Q.!.W.I.P.P.=.I + ^ U.#.@ h.D.D.D.D.D.z.z.z.z.z.z.z.z.",
"L.L.L.L.L.L.L.L.L.J.F.x.+ e b ; @ R U.R.R.R.:.E I T @.*.I O t :.%.7 u.M.Z.D.D.D.z.z.z.z.z.z.z.z.",
"L.L.L.L.L.J.J.L.L.S...V   <.|.{ . w ;.U.Y.W.+.+ . = U ! I   5 =.P.E Z L b.D.D.D.l.z.z.z.z.z.z.z.",
"L.L.L.L.L.J.J.H.F.c.O - / _.|.>.3 I -.P.;.Q Y b h $ : &.;.^ e I ~ -.E ; s.D.D.D.k.z.z.z.z.z.z.z.",
"L.L.L.K.J.L.K.S...V   >..XB.t r @.@.*.P.Q X t .X|.p u _.5X%Xo.O r -.+.4 s.D.D.D.k.z.z.z.z.z.z.z.",
"L.L.L.J.J.L.L.m.- 7 ) (.}.,.6 r ! Q E Q I = ,.9X9Xt.0.&X9X9XoX{ U E ( G v.D.D.D.l.z.z.z.z.z.z.z.",
"L.L.L.J.J.L.L.m.+ <.OXB.e { /.] 2 2 5 3 e o.XX7X8X&X+X4X7X4X4X2X/.e L M.N.D.D.D.z.z.z.z.z.z.z.z.",
"L.L.L.K.J.L.L.S.s.B.|.<.q { /.o.< % o   6 /.OXOXOX3X2XOXOX1X3X1XV.L n.D.D.D.D.D.z.z.z.z.z.z.z.z.",
"L.L.L.L.L.J.J.H.G.v.t r._.>.7 C 8.c X   5 1.).T.).*X{.T.).;X].^ u.N.D.D.D.D.D.D.z.z.z.z.z.z.z.z.",
"L.L.L.L.L.J.J.L.L.S.s.O./.{ < k A j # * 8 Y ! -.I.~.~.W.W.R._ # L m.N.D.D.D.D.D.z.z.z.z.z.z.z.z.",
"L.L.L.L.L.L.L.L.L.J.G.c.8 S 8.C = * s d a = w =.Y.P.~.{.W.r : a k V h.D.D.D.D.D.z.z.z.z.z.z.z.z.",
"L.L.L.L.L.L.L.J.J.L.L.S.s.K K C r ` 0.M i # ; ^ ] ` >./.,.h y x b U } b.M.D.D.D.z.z.z.z.z.z.z.z.",
"L.L.L.L.L.L.L.L.L.L.L.J.H.c.6 ^ U.{.'._ . # y f h n n n M 5.n = Y ;.] N h.D.D.D.l.z.z.z.z.z.z.z.",
"D.D.D.D.L.L.L.L.L.J.J.L.D.d.@ ' `.:X^.T   # y y u d d s z 4.a O W !.&.4 F z.z.l.k.z.z.z.-X-X-X-X",
"D.D.D.D.L.L.L.L.L.J.K.L.D.s.- ' R.!.:.r + # y a m 4.5.5.4.m i + W Y.#.- J z.z.l.l.z.z.z.-X-X-X-X",
"D.D.D.D.L.L.L.L.L.K.L.J.A.n.d.) _ E ^ c g g l l 3.7.q.q.7.7.k ; w _ } f.a.z.z.z.l.z.z.z.-X-X-X-X",
"D.D.D.D.L.L.L.L.L.L.L.J.D.D.A.u.- @ , B 6.6.B B 6.9.9.9.e.C.w.6 o @ f.D.z.z.l.z.z.z.z.z.-X-X-X-X",
"D.D.D.D.D.D.D.D.D.D.D.D.D.D.D.m.d.N ; C  . .X.O. .A l l w..X(.7 N J g.z.z.z.z.z.-X-X-X-X-X-X-X-X",
"D.D.D.D.D.D.D.D.D.D.D.D.D.A.D.D.A.P 6 R *.@.*.P.&.v $ $ [ {.Q.7 F l.z.z.k.z.z.z.-X-X-X-X-X-X-X-X",
"D.D.D.D.D.D.D.D.D.D.D.D.D.D.D.D.D.m.h.} Y Y / ) b < . . b ,.{ 6 J z.z.l.k.z.z.z.-X-X-X-X-X-X-X-X",
"D.D.D.D.D.D.D.D.D.D.D.D.D.D.D.A.D.D.Z.L = & f y & 0 9 @ : s a ; F k.z.z.k.z.z.z.-X-X-X-X-X-X-X-X",
"z.z.z.z.z.z.z.z.D.D.D.D.D.D.D.A.l.z.k.Z = y y & 1 | | > i s a ; D k.z.z.-X-X-X-X-X-X-X-X$X$X$X$X",
"z.z.z.z.z.z.z.z.D.D.D.D.D.D.D.D.z.l.k.F q c c q F z.k.Z c M v q J k.z.z.-X-X-X-X-X-X-X-X$X$X$X$X",
"z.z.z.z.z.z.z.z.D.D.D.D.D.D.D.D.z.z.k.a.i.p.p.i.j.z.z.a.p.d.p.i.j.l.z.z.-X-X-X-X-X-X-X-X$X$X$X$X",
"z.z.z.z.z.z.z.z.D.D.D.D.D.D.D.D.z.z.z.z.z.z.z.z.z.l.z.z.z.z.z.z.z.z.z.z.-X-X-X-X-X-X-X-X$X$X$X$X",
"z.z.z.z.z.z.z.z.z.z.z.z.z.z.z.z.z.z.z.z.z.z.z.z.$X$X$X$X$X$X$X$X-X-X-X-X-X-X-X-X-X-X-X-X-X-X-X-X",
"z.z.z.z.z.z.z.z.z.z.z.z.z.z.z.z.z.z.z.l.k.k.k.k.@X$X$X@X@X#X@X@X-X-X-X-X-X-X-X-X-X-X-X-X-X-X-X-X",
"z.z.z.z.z.z.z.z.z.z.z.z.z.z.z.z.z.z.z.z.z.z.z.z.#X$X$X#X#X#X#X#X-X-X-X-X-X-X-X-X-X-X-X-X-X-X-X-X",
"z.z.z.z.z.z.z.z.z.z.z.z.z.z.z.z.z.z.z.z.z.z.z.z.$X$X$X$X$X$X$X$X-X-X-X-X-X-X-X-X-X-X-X-X-X-X-X-X"
};
