/* XPM */
static char *_ff99e2e3cda4d25e8e22ce34edc5962iQZqqHYPnK1wHsvG[] = {
/* columns rows colors chars-per-pixel */
"48 48 218 2 ",
"   c #050406",
".  c #17090A",
"X  c #0A1218",
"o  c #141012",
"O  c #151214",
"+  c #1C1314",
"@  c #1F1A1B",
"#  c #18181C",
"$  c #2A0C08",
"%  c #330501",
"&  c #28140A",
"*  c #3B190B",
"=  c #3C0F12",
"-  c #231C1C",
";  c #291A18",
":  c #381617",
">  c #282519",
",  c #342419",
"<  c #2D3219",
"1  c #161B23",
"2  c #1D2023",
"3  c #262222",
"4  c #262626",
"5  c #2D2B25",
"6  c #2C282A",
"7  c #352C29",
"8  c #2E3625",
"9  c #323422",
"0  c #373429",
"q  c #262F36",
"w  c #302F31",
"e  c #2A353A",
"r  c #383737",
"t  c #491809",
"y  c #53110E",
"u  c #441615",
"i  c #581A1A",
"p  c #5B1C1B",
"a  c #691415",
"s  c #731B1E",
"d  c #47210C",
"f  c #5A2F06",
"g  c #4C251C",
"h  c #5A3119",
"j  c #69290F",
"k  c #683B17",
"l  c #7E1B21",
"z  c #4E2E2C",
"x  c #5E2621",
"c  c #4B3B25",
"v  c #5C3823",
"b  c #483B3B",
"n  c #642525",
"m  c #712326",
"M  c #7A3635",
"N  c #3B4323",
"B  c #704715",
"V  c #464929",
"C  c #554826",
"Z  c #495329",
"A  c #514839",
"S  c #4A5E37",
"D  c #64482C",
"F  c #724D2D",
"G  c #755834",
"H  c #546A36",
"J  c #586B38",
"K  c #6B6532",
"L  c #62743A",
"P  c #69793E",
"I  c #2A3A45",
"U  c #383D43",
"Y  c #38444B",
"T  c #364C55",
"R  c #3A4953",
"E  c #3C4D58",
"W  c #3B5463",
"Q  c #395665",
"!  c #474847",
"~  c #504D46",
"^  c #4A5449",
"/  c #545948",
"(  c #454D54",
")  c #4C4C50",
"_  c #5A4C54",
"`  c #475559",
"'  c #58595C",
"]  c #6F5853",
"[  c #695B57",
"{  c #56614B",
"}  c #5A7843",
"|  c #656C4E",
" . c #6A7C44",
".. c #727E43",
"X. c #666757",
"o. c #746556",
"O. c #706F56",
"+. c #475864",
"@. c #425C6B",
"#. c #525D64",
"$. c #515F68",
"%. c #47616E",
"&. c #5B6062",
"*. c #55636C",
"=. c #5C656E",
"-. c #466374",
";. c #4A6574",
":. c #4A6979",
">. c #586A75",
",. c #546D7A",
"<. c #59727E",
"1. c #6A6365",
"2. c #796766",
"3. c #7A716F",
"4. c #646D74",
"5. c #61757D",
"6. c #7B7874",
"7. c #813B1E",
"8. c #882E32",
"9. c #8E3838",
"0. c #923739",
"q. c #825218",
"w. c #904E32",
"e. c #9B563B",
"r. c #83602F",
"t. c #8B6232",
"y. c #936633",
"u. c #925652",
"i. c #A05F44",
"p. c #8C7251",
"a. c #A76F47",
"s. c #847672",
"d. c #A56B65",
"f. c #608146",
"g. c #6D8141",
"h. c #698C4D",
"j. c #738444",
"k. c #758A46",
"l. c #7D8A4A",
"z. c #6D8F52",
"x. c #739954",
"c. c #769E57",
"v. c #77A057",
"b. c #77A058",
"n. c #78A158",
"m. c #808E4A",
"M. c #88964D",
"N. c #889750",
"B. c #8D9C52",
"V. c #8BA555",
"C. c #8CA654",
"Z. c #91AB57",
"A. c #98A858",
"S. c #9AB65D",
"D. c #9DB95E",
"F. c #A2B15E",
"G. c #A8B15F",
"H. c #928B7E",
"J. c #BE8F60",
"K. c #A1BF61",
"L. c #ABBD63",
"P. c #A4C263",
"I. c #AEC066",
"U. c #B3C568",
"Y. c #B9CD6C",
"T. c #BED26F",
"R. c #BFD370",
"E. c #C0D470",
"W. c #5B7888",
"Q. c #5F7F90",
"!. c #637985",
"~. c #667B86",
"^. c #727D85",
"/. c #6B838E",
"(. c #76838C",
"). c #688694",
"_. c #788B95",
"`. c #78929D",
"'. c #7A94A2",
"]. c #7EA0AD",
"[. c #968887",
"{. c #8E928F",
"}. c #83939D",
"|. c #A79490",
" X c #8599A4",
".X c #929CA4",
"XX c #95A2AA",
"oX c #92A9B4",
"OX c #99AAB4",
"+X c #A9A8A9",
"@X c #B5A8A7",
"#X c #ADB4B1",
"$X c #B9B4B3",
"%X c #C9A49D",
"&X c #C8AEA5",
"*X c #C8B8B6",
"=X c #E5BEB4",
"-X c #B1E0BE",
";X c #CEC3BD",
":X c #EEC9BE",
">X c #A9B8C1",
",X c #B1BDC4",
"<X c #9BD4C3",
"1X c #B6C3CA",
"2X c #B6C5CC",
"3X c #A1C5D1",
"4X c #B6CBD4",
"5X c #C5D1D7",
"6X c #CBD6DB",
"7X c #D1D0D0",
"8X c #E8D8D1",
"9X c #EBE3DE",
"0X c #FFE5DA",
"qX c #D5DEE2",
"wX c #DBE6EA",
"eX c #FFEDE5",
"rX c #FFF1E8",
"tX c #FFFEFA",
/* pixels */
"<X<X<X<X<X<X<X<X<X<X<X<X<X<X<X<X<X<X<X<X<X<X<X<Xn.n.n.n.n.n.n.n.n.n.n.n.n.n.n.n.n.n.n.n.n.n.n.n.",
"<X<X<X<X<X<X<X<X<X<X<X<X<X<X<X<X<X<X<X<X<X<X<X<Xn.n.n.n.n.n.n.n.n.n.n.n.n.n.n.n.n.n.n.n.n.n.n.n.",
"<X<X<X<X<X<X<X<X<X<X<X<X<X<X<X<X<X<X<X<X<X<X<X<Xn.n.n.n.n.n.n.n.n.n.n.n.n.n.n.n.n.n.n.n.n.n.n.n.",
"<X<X<X<X<X<X<X<X<X<X<X<X<X<X<X<X<X<X<X<X<X<X<X<Xv.v.v.v.n.n.n.n.n.n.n.n.n.n.n.n.n.n.n.n.n.n.n.n.",
"<X<X<X<X<X<X<X<X<X<X<X<Xn.n.n.n.n.n.n.n.n.n.n.v.c.c.c.c.v.n.n.n.n.n.n.n.P.P.P.P.P.P.P.P.P.P.P.P.",
"<X<X<X<X<X<X<X<X<X<X<X<Xn.n.n.n.n.n.n.n.n.v.n.n.n.n.n.n.n.n.n.n.n.n.n.n.P.P.P.P.P.P.P.P.P.P.P.P.",
"<X<X<X<X<X<X<X<X<X<X<X<Xn.n.n.n.n.n.n.n.n.v.n.n.n.n.n.n.n.v.v.n.n.n.n.n.P.P.P.P.P.P.P.P.P.P.P.P.",
"<X<X<X<X<X<X<X<X<X<X<X<Xn.n.n.n.n.n.n.c.n.n.n.h.f.f.f.f.z.n.n.v.c.n.n.n.P.P.P.P.P.P.P.P.P.P.P.P.",
"-X-X-X-X-X-X-X-Xn.n.n.n.n.n.n.n.P.P.P.K.P.P.S.J 9 9 9 9  .K.P.P.K.P.P.P.P.P.P.P.P.P.P.P.P.P.P.P.",
"-X-X-X-X-X-X-X-Xn.n.n.n.n.n.n.n.P.K.P.P.P.C.j.w Y ( U 6 N k.Z.P.P.P.P.P.P.P.P.P.P.P.P.P.P.P.P.P.",
"-X-X-X-X-X-X-X-Xn.n.n.n.n.n.n.n.P.K.P.P.S.J 5 T <.~.#.w + >  .K.P.P.K.P.P.P.P.P.P.P.P.P.P.P.P.P.",
"-X-X-X-X-X-X-X-Xn.n.n.n.n.n.n.c.P.P.P.C.j.X.^.,.<.Q.` < @ ` { k.Z.P.P.P.P.P.P.P.P.P.P.P.P.P.P.P.",
"<X<X<X<Xn.n.n.n.n.n.n.n.P.P.P.P.P.P.D.L r +X6X X;.-.Y @ r 5.*.4 g.K.P.P.P.P.P.P.P.P.P.P.P.P.P.P.",
"<X<X<X<Xn.n.n.n.n.n.n.n.P.P.P.P.P.C.g.^ (.5XwX1X_.;.%.=.&.^ ( ( / k.C.P.P.P.P.P.P.P.P.P.P.P.P.P.",
"<X<X<X<Xn.n.n.n.n.n.n.n.P.P.P.P.D.L w (.2X5X5XqX>X~._.>X(.3 r !.*.3 j.P.P.P.P.P.P.P.P.P.P.P.P.P.",
"<X<X<X<Xn.n.n.n.n.n.n.c.P.K.K.V. .^ =.XX4X5X6XwX1X_. X4X.XR E /.*.3 g.P.P.P.P.P.P.P.P.P.P.P.P.P.",
"<X<X<X<Xn.n.n.n.P.P.P.P.P.P.P.P 3 *. XoXOX1X6X6X,X X XoX`.-.;.!.` 5 M.R.P.P.P.P.E.E.E.E.E.E.E.E.",
"<X<X<X<Xn.n.n.n.P.P.K.P.P.P.P.g.4 =. X'.}.OX2X2X#X.X_./.+.I ` !.#.5 M.T.P.P.P.P.E.E.E.E.E.E.E.E.",
"<X<X<X<Xn.n.n.n.P.P.P.K.D.D.S.P 5 #._././. XOXoXXX}./.;.e + r 5.$.- N.E.P.P.P.P.E.E.E.E.E.E.E.E.",
"<X<X<X<Xn.n.n.c.K.P.P.Z.P L L Z 5 #././.^._.`.).Q.W.W.;.I + ! !.#.@ B.E.P.P.P.P.E.E.E.E.E.E.E.E.",
"<X<X<X<Xn.n.b.n.n.c.x.H + w b - @ R !./././.<.E I T @.-.I O r <.*.6 m.U.Y.R.T.E.E.E.E.E.P.P.P.P.",
"<X<X<X<Xn.v.v.n.n.z.S <   3.@X[ . q ,.!.~.).+.+ . ; U Q I   4 ;.W.E { ..F.E.E.R.T.E.E.E.P.P.P.P.",
"<X<X<X<Xb.v.v.c.x.H O - ~ |.@X1.4 I :.W.,.W Y b g % : =.>.! w I %.:.E - M.E.E.T.T.E.E.E.P.P.P.P.",
"<X<X<X<Xb.b.b.h.S <   1.$XH.r e @.@.-.W.W X r #X@Xi y |.qX;Xo.O e ,.+.3 m.E.E.T.T.E.E.E.P.P.P.P.",
"n.n.n.v.c.n.n.} - 6 ~ {.+X2.6 e Q W E W I ; 2.tXtXd.u.:XtXtX&X] U E ^ P S.E.R.R.T.E.E.E.E.E.E.E.",
"n.n.n.v.c.n.n.} + 3.$X6.w [ [.' 1 1 4 2 7 ] %XeXrX:X=X0XeX0X0X8X[.w ..I.Y.E.T.E.E.E.E.E.E.E.E.E.",
"n.n.n.n.b.n.n.h.S 6.@X3.0 [ [.o., & o   5 [.*X*X*X9X8X*X*X7X9X7XH.j.F.E.E.E.T.E.E.E.E.E.E.E.E.E.",
"n.n.n.n.n.v.v.c.x.} r s.|.1.6 D t.c X   4 4.}.^.}.#XOX^.}.1XXX! m.Y.T.E.E.E.E.E.E.E.E.E.E.E.E.E.",
"n.n.n.n.n.v.v.n.P.Z.L O.[.[ , h F g $ = 7 Y Q :.Q.'.'.).)./.) $ j.L.Y.E.E.E.E.E.E.E.E.E.E.E.E.E.",
"n.n.n.n.n.n.n.n.P.P.D.j.7 G r.C ; = a s p ; q ;.~.W.'.OX_.e , x v Z A.E.E.R.T.E.E.E.E.E.E.E.E.E.",
"n.n.n.n.n.n.n.c.K.P.P.Z.P K G A e _ u.M u $ ; ! ' _ 1.[.2.g t x b U | S.U.R.T.E.R.E.E.E.E.E.E.E.",
"n.n.n.n.n.n.n.n.P.P.P.P.D.j.5 ! !.oX.X) . $ t d g x n n M 9.n ; Y >.' V C.E.E.T.T.E.E.E.E.E.E.E.",
"n.n.n.n.n.n.n.n.P.K.K.P.P.k.# `  X3X].T   $ t t y s s a l 8.p O ` `.=.3 m.E.E.T.T.E.E.E.E.E.E.E.",
"n.n.n.n.n.n.n.n.P.P.P.P.P.j.- ` /.`.<.e + $ t p m 8.0.9.8.m u + ( ~.#.- B.E.E.T.T.E.E.E.E.E.E.E.",
"n.n.n.n.n.n.n.n.P.P.P.P.K.C.k./ ( E ! c f f j j 7.e.i.i.e.w.v > q ( | B.L.E.R.R.T.E.E.E.E.E.E.E.",
"n.n.n.n.n.n.n.n.P.P.P.P.P.P.K.g.- # < B q.q.B B q.y.y.y.a.J.p.5 o @ N.T.E.R.T.E.E.E.E.E.E.E.E.E.",
"n.n.n.n.P.P.P.P.P.P.P.P.P.P.P.Z.M.V ; A O.| X.O.O.G k k p.$X{.7 J B.L.E.E.E.R.E.E.E.E.E.E.E.E.E.",
"n.n.n.n.P.P.P.P.P.P.P.P.P.K.P.P.T.l.5 R ;.@.-.W.=.z % % ] OX_.6 m.T.E.R.T.E.E.E.E.E.E.E.E.E.E.E.",
"n.n.n.n.P.P.P.P.P.P.P.P.P.P.P.P.E.L.B.| Y ! ~ / b , . . A 2.[ 0 N.E.E.T.T.E.E.E.E.E.E.E.E.E.E.E.",
"n.n.n.n.P.P.P.P.P.P.P.P.P.P.P.K.R.E.Y...; * d t * 9 8 # : n p - l.T.R.E.T.E.E.E.E.E.E.E.E.E.E.E.",
"n.n.n.n.P.P.P.P.P.P.P.P.P.P.P.K.T.E.T.P ; t t * V A.B.4 u a p - j.Y.R.E.T.E.E.E.E.E.E.E.P.P.P.P.",
"n.n.n.n.P.P.P.P.P.P.P.P.P.P.P.P.E.T.U.l.V C C V l.R.Y.P C F D V N.T.E.E.T.E.E.E.E.E.E.E.P.P.P.P.",
"n.n.n.n.P.P.P.P.P.P.P.P.P.P.P.P.E.R.T.L.F.F.F.F.L.E.E.L.G.G.G.F.I.T.E.E.R.E.E.E.E.E.E.E.P.P.P.P.",
"n.n.n.n.P.P.P.P.P.P.P.P.P.P.P.P.E.E.E.E.E.E.E.E.E.T.E.E.E.E.E.E.E.E.E.E.E.E.E.E.E.E.E.E.P.P.P.P.",
"n.n.n.n.P.P.P.P.P.P.P.P.P.P.P.P.E.E.E.E.P.P.P.P.E.E.E.E.E.E.E.E.E.E.E.E.E.E.E.E.E.E.E.E.E.E.E.E.",
"n.n.n.n.P.P.P.P.P.P.P.P.P.P.P.P.E.E.E.T.P.P.P.P.T.E.E.T.T.T.T.T.T.E.E.E.E.E.E.E.E.E.E.E.E.E.E.E.",
"n.n.n.n.P.P.P.P.P.P.P.P.P.P.P.P.E.E.E.E.P.P.P.P.R.E.E.R.E.E.E.R.E.E.E.E.E.E.E.E.E.E.E.E.E.E.E.E.",
"n.n.n.n.P.P.P.P.P.P.P.P.P.P.P.P.E.E.E.E.P.P.P.P.E.E.E.E.E.E.E.E.E.E.E.E.E.E.E.E.E.E.E.E.E.E.E.E."
};
