/* XPM */
static char *_0b37972d26044578c49703cbe8f0baa8cU0E2qtZIx5vSmU[] = {
/* columns rows colors chars-per-pixel */
"48 48 215 2 ",
"   c #080405",
".  c #160706",
"X  c #0F1312",
"o  c #171616",
"O  c #1B1414",
"+  c #1C1C1B",
"@  c #280F07",
"#  c #360503",
"$  c #29100A",
"%  c #38160C",
"&  c #271816",
"*  c #231D1C",
"=  c #351A17",
"-  c #36220D",
";  c #23221B",
":  c #2A261A",
">  c #372117",
",  c #2A371C",
"<  c #171C24",
"1  c #1C242C",
"2  c #262222",
"3  c #212726",
"4  c #2A2525",
"5  c #2B2B25",
"6  c #2C282A",
"7  c #342A28",
"8  c #2A3626",
"9  c #313521",
"0  c #363529",
"q  c #252F38",
"w  c #302F31",
"e  c #283537",
"r  c #373737",
"t  c #481802",
"y  c #56110D",
"u  c #451915",
"i  c #591714",
"p  c #5B1C1A",
"a  c #6B1818",
"s  c #771B1E",
"d  c #4A2219",
"f  c #572417",
"g  c #4F3211",
"h  c #75330A",
"j  c #683B17",
"k  c #4D1F22",
"l  c #671A21",
"z  c #492724",
"x  c #5F2C27",
"c  c #543B28",
"v  c #483B3B",
"b  c #632424",
"n  c #712326",
"m  c #703432",
"M  c #3F4327",
"N  c #784D18",
"B  c #494525",
"V  c #46512A",
"C  c #534533",
"Z  c #4A5C3A",
"A  c #6B4D2D",
"S  c #775931",
"D  c #4C6538",
"F  c #5B6B36",
"G  c #516C3B",
"H  c #59733C",
"J  c #646234",
"K  c #63743B",
"L  c #6A7B3E",
"P  c #273A46",
"I  c #2E3A42",
"U  c #353C45",
"Y  c #393E44",
"T  c #3A454B",
"R  c #3A4B55",
"E  c #3E5259",
"W  c #3A5363",
"Q  c #3B5768",
"!  c #3E606E",
"~  c #474949",
"^  c #495349",
"/  c #555949",
"(  c #474D53",
")  c #574D52",
"_  c #495559",
"`  c #59595B",
"'  c #73594C",
"]  c #685A57",
"[  c #5D6B4C",
"{  c #5A7843",
"}  c #697949",
"|  c #696857",
" . c #727054",
".. c #465965",
"X. c #525D64",
"o. c #515F68",
"O. c #48606E",
"+. c #5B6062",
"@. c #55636C",
"#. c #5C656E",
"$. c #456172",
"%. c #4B6675",
"&. c #4B6A79",
"*. c #576B76",
"=. c #59727E",
"-. c #6B6465",
";. c #786565",
":. c #7A716F",
">. c #61757D",
",. c #7B7874",
"<. c #882D31",
"1. c #8E3737",
"2. c #923739",
"3. c #825419",
"4. c #895D29",
"5. c #945137",
"6. c #A05A3E",
"7. c #90652B",
"8. c #926633",
"9. c #A27233",
"0. c #925955",
"q. c #A05F44",
"w. c #937856",
"e. c #A86F47",
"r. c #847672",
"t. c #A56B65",
"y. c #6D813F",
"u. c #608146",
"i. c #6D8141",
"p. c #66884A",
"a. c #6A8D4D",
"s. c #728644",
"d. c #758A45",
"f. c #798F47",
"g. c #7A8B4A",
"h. c #7C924A",
"j. c #6D8F52",
"k. c #739954",
"l. c #769E57",
"z. c #77A057",
"x. c #78A158",
"c. c #8B9A51",
"v. c #889D51",
"b. c #8CA453",
"n. c #8CA655",
"m. c #93A957",
"M. c #95B15A",
"N. c #9AB65D",
"B. c #9DBA5F",
"V. c #A5B15E",
"C. c #89867E",
"Z. c #958F7C",
"A. c #BF9163",
"S. c #9BB860",
"D. c #A1BF61",
"F. c #AABD64",
"G. c #A4C263",
"H. c #ADC065",
"J. c #B9CC6C",
"K. c #BED26F",
"L. c #BFD370",
"P. c #C0D470",
"I. c #5B7888",
"U. c #5F7F90",
"Y. c #617681",
"T. c #627A87",
"R. c #6A7E89",
"E. c #727E85",
"W. c #6B828D",
"Q. c #76838C",
"!. c #688694",
"~. c #778B96",
"^. c #7B909B",
"/. c #7B98A4",
"(. c #978988",
"). c #968C8A",
"_. c #818E97",
"`. c #83939C",
"'. c #A79490",
"]. c #8699A3",
"[. c #929EA6",
"{. c #8EA4AF",
"}. c #96A3AC",
"|. c #99ABB5",
" X c #9BB2BD",
".X c #A9A8A9",
"XX c #B5A8A7",
"oX c #ADB4B2",
"OX c #B9B4B3",
"+X c #C9A39D",
"@X c #C8AEA5",
"#X c #C8B9B6",
"$X c #E5BEB4",
"%X c #B0DFBD",
"&X c #B1E0BE",
"*X c #CEC3BD",
"=X c #EEC9BE",
"-X c #A9B8C1",
";X c #B1BDC4",
":X c #9BD4C3",
">X c #B6C3CA",
",X c #B6C5CC",
"<X c #A0C4D1",
"1X c #B6CBD4",
"2X c #C5D1D7",
"3X c #CBD6DB",
"4X c #D1D0D0",
"5X c #E8D8D1",
"6X c #EBE3DE",
"7X c #FFE5DA",
"8X c #D5DEE2",
"9X c #DBE6EA",
"0X c #FFEDE5",
"qX c #FFF1E8",
"wX c #FFFEFA",
/* pixels */
":X:X:X:X:X:X:X:X:X:X:X:X:X:X:X:Xx.x.x.x.x.x.x.x.x.x.x.x.&X&X&X&X:X:X:X:X:X:X:X:X:X:X:X:X:X:X:X:X",
":X:X:X:X:X:X:X:X:X:X:X:X:X:X:X:Xx.x.x.x.x.x.x.x.x.x.x.x.&X&X&X&X:X:X:X:X:X:X:X:X:X:X:X:X:X:X:X:X",
":X:X:X:X:X:X:X:X:X:X:X:X:X:X:X:Xx.x.x.x.x.x.x.x.x.x.x.x.&X&X&X&X:X:X:X:X:X:X:X:X:X:X:X:X:X:X:X:X",
":X:X:X:X:X:X:X:X:X:X:X:X:X:X:X:Xx.x.x.x.x.x.x.x.z.z.z.z.%X&X&X&X:X:X:X:X:X:X:X:X:X:X:X:X:X:X:X:X",
":X:X:X:X:X:X:X:X:X:X:X:Xx.x.x.x.x.x.x.x.x.x.x.z.l.l.l.l.z.x.x.x.x.x.x.x.:X:X:X:X:X:X:X:X:X:X:X:X",
":X:X:X:X:X:X:X:X:X:X:X:Xx.x.x.x.x.x.x.x.x.z.x.x.x.x.x.x.x.x.x.x.x.x.x.x.:X:X:X:X:X:X:X:X:X:X:X:X",
":X:X:X:X:X:X:X:X:X:X:X:Xx.x.x.x.x.x.x.x.x.z.x.x.x.x.x.x.x.z.z.x.x.x.x.x.:X:X:X:X:X:X:X:X:X:X:X:X",
":X:X:X:X:X:X:X:X:X:X:X:Xx.x.x.x.x.x.x.l.x.x.x.a.u.u.u.u.a.x.x.z.l.x.x.x.:X:X:X:X:X:X:X:X:X:X:X:X",
":X:X:X:X:X:X:X:Xx.x.x.x.x.x.x.x.G.G.G.D.G.G.N.F 9 9 9 9 D l.x.x.l.x.x.x.x.x.x.x.:X:X:X:X:X:X:X:X",
":X:X:X:X:X:X:X:Xx.x.x.x.x.x.x.x.G.D.G.G.G.n.s.w T ( Y 6 9 H a.x.x.x.l.x.x.x.x.x.:X:X:X:X:X:X:X:X",
":X:X:X:X:X:X:X:Xx.x.x.x.x.x.x.x.G.D.G.G.N.F 5 R =.T.X.w O * G l.x.x.l.x.x.x.x.x.:X:X:X:X:X:X:X:X",
":X:X:X:X:X:X:X:Xx.x.x.x.x.x.x.l.G.G.G.n.s.| E.*.=.U._ : + ( _ H a.x.x.x.x.x.x.x.:X:X:X:X:X:X:X:X",
"&X&X&X&Xx.x.x.x.x.x.x.x.G.G.G.G.G.G.B.F r .X3X].%.$.T + r >.@.4 i.D.G.G.l.x.x.x.x.x.x.x.:X:X:X:X",
"&X&X&X&Xx.x.x.x.x.x.x.x.G.G.G.G.G.n.i.^ Q.2X9X>X~.%.O.#.+.^ ( ( / d.n.G.x.x.x.x.x.x.x.x.:X:X:X:X",
"&X&X&X&Xx.x.x.x.x.x.x.x.G.G.G.G.B.K w Q.,X2X3X8X-XR.~. XQ.2 r Y.@.2 s.G.x.x.z.x.x.x.x.x.:X:X:X:X",
"&X&X&X&Xx.x.x.x.x.x.x.l.G.D.D.b.} ^ #.{.1X2X3X9X>X~.].1X[.R E W.@.2 i.G.x.x.l.x.x.x.x.x.:X:X:X:X",
":X:X:X:Xx.x.x.x.G.G.G.G.G.G.G.L 2 @.].{.|.>X3X3X;X].].}.^.$.%.Y._ 5 d.G.x.x.z.x.x.x.x.x.:X:X:X:X",
":X:X:X:Xx.x.x.x.G.G.D.G.G.G.G.i.4 #.]./.`. X,X,XoX[.^.W...I _ Y.X.5 d.D.l.x.z.x.x.x.x.x.:X:X:X:X",
":X:X:X:Xx.x.x.x.G.G.G.D.B.B.N.L 5 X.~.W.W.].|.|.{.`.W.%.e O r >.o.* d.G.x.x.z.x.x.x.x.x.:X:X:X:X",
":X:X:X:Xx.x.x.l.D.G.G.m.K K K V 5 X.W.W.R.~.^.!.U.I.I.%.I O ~ Y.X.+ h.G.x.x.l.x.x.x.x.x.:X:X:X:X",
":X:X:X:Xx.x.x.x.x.l.k.G O w v * + R T.W.W.W.=.R P R ..$.I o r =.@.6 i.N.l.x.x.x.x.x.x.x.:X:X:X:X",
":X:X:X:Xx.z.z.x.x.j.Z ,   :.XX] . q *.T.R.!...O . & U W P   3 %.I.E Z K p.x.x.x.z.x.x.x.:X:X:X:X",
":X:X:X:Xz.z.z.l.k.G O * ~ '.XX-.3 P &.I.*.W T v d # = #.*.~ w P ! &.R * G x.x.z.l.x.x.x.:X:X:X:X",
":X:X:X:Xx.x.x.a.Z ,   -.OXC.r I ..O.%.I.W X r oXXXi y '.8X*X;.X e &...2 G x.x.z.l.x.x.x.:X:X:X:X",
"x.x.x.z.l.x.x.{ * 6 ^ )..X;.6 e W W R W U & ;.wXwXt.0.=XwXwX@X] Y R ^ F v.G.G.G.z.x.x.x.x.x.x.x.",
"x.x.x.z.l.x.x.{ O :.OX,.w ] (.] < < < < w ' +X0XqX=X$X7X0X7X7X5X(.w K M.B.G.G.G.x.x.x.x.x.x.x.x.",
"x.x.x.x.x.x.x.p.D ,.XX:.0 ] (.] - - - . 4 (.#X#X#X6X5X#X#X4X6X4XZ.K b.G.G.G.G.G.x.x.x.x.x.x.x.x.",
"x.x.x.x.x.z.z.l.k.{ r r.'.-.6 c 4.4.j @ 1 *.^.E._.-X|.E.`.>X}.~ i.B.G.G.G.G.G.G.x.x.x.x.x.x.x.x.",
"x.x.x.x.x.z.z.x.G.m.K | (.] - N 9.7.j > 7 U ..&.U././.!.!.W.( @ K M.S.D.D.G.G.G.x.x.x.x.x.x.x.x.",
"x.x.x.x.x.x.x.x.G.G.B.s.w A 4.7.3.g ; k p = e %.T.I./. X~.e = f c V h.D.G.G.G.G.x.x.x.x.x.x.x.x.",
"x.x.x.x.x.x.x.l.G.G.G.m.L J S N g @ $ l a $ + ~ ` ) -.(.;.z d b z & s.G.G.G.G.G.x.x.x.x.x.x.x.x.",
"x.x.x.x.x.x.x.x.G.G.G.G.B.s.; ; : d a s b = o = f b b b m 1.m > O O d.G.G.G.G.G.x.x.x.x.x.x.x.x.",
"x.x.x.x.x.x.x.x.G.D.D.G.G.h.+ 1 T ;.0.m = & & % y s s a s <.x ; 8 ~ } v.M.G.G.G.G.G.G.G.x.x.x.x.",
"x.x.x.x.x.x.x.x.G.G.G.G.G.d.; T R. X[.( . @ u p n <.2.1.<.n u O R =._ 9 h.G.G.G.G.G.G.G.x.x.x.x.",
"x.x.x.x.x.x.x.x.G.G.G.G.D.L 2 _ /.<X/.T . t h h <.5.q.q.6.5.f & _ ~.#.2 y.G.G.G.G.G.G.G.x.x.x.x.",
"x.x.x.x.x.x.x.x.G.G.G.G.G.d.* ( W.~.*.q & j 3.N N 8.8.8.e.A.' * T Y.X.* f.G.G.G.G.G.G.G.x.x.x.x.",
"x.x.x.x.G.G.G.G.G.G.G.G.G.m.f./ ( ( U U T / |  . .S N j w.OXC.5 < T [ h.M.G.G.G.G.G.G.G.x.x.x.x.",
"x.x.x.x.G.G.G.G.G.G.G.G.G.G.G.s.: : 0 R $.Q $.I.#.z # # ] }.~.6 . : f.G.G.G.G.G.G.G.G.G.x.x.x.x.",
"x.x.x.x.G.G.G.G.G.G.G.G.G.G.G.M.m.m.b.} T ~ ~ ) v > . . C ;.] 0 F h.M.G.G.G.G.G.G.G.G.G.x.x.x.x.",
"x.x.x.x.G.G.G.G.G.G.G.G.G.G.G.G.P.P.J.s.& % t t % 0 8 + = l p * i.G.G.G.D.G.G.G.G.G.G.G.x.x.x.x.",
"x.x.x.x.G.G.G.G.G.G.G.G.G.G.G.G.P.P.K.L & t t % B m.c.3 u a p * g.P.P.K.D.G.G.G.x.x.x.x.x.x.x.x.",
"x.x.x.x.G.G.G.G.G.G.G.G.G.G.G.D.K.K.J.g.M B B B g.L.J.L C A A B c.K.K.P.G.G.G.G.x.x.x.x.x.x.x.x.",
"x.x.x.x.G.G.G.G.G.G.G.G.G.G.G.G.K.K.K.F.b.b.b.b.F.P.P.F.V.V.V.V.H.K.L.P.G.G.G.G.x.x.x.x.x.x.x.x.",
"x.x.x.x.G.G.G.G.G.G.G.G.G.G.G.G.P.P.P.P.G.G.G.G.P.K.P.P.P.P.P.P.P.P.P.P.G.G.G.G.x.x.x.x.x.x.x.x.",
"x.x.x.x.G.G.G.G.G.G.G.G.G.G.G.G.P.P.P.P.P.P.P.P.P.P.P.P.P.P.P.P.P.P.P.P.G.G.G.G.x.x.x.x.x.x.x.x.",
"x.x.x.x.G.G.G.G.G.G.G.G.G.G.G.G.P.P.P.K.K.K.K.K.K.P.P.K.K.K.K.K.K.P.P.P.G.G.G.G.x.x.x.x.x.x.x.x.",
"x.x.x.x.G.G.G.G.G.G.G.G.G.G.G.G.P.P.P.P.L.P.P.L.L.P.P.L.P.P.P.L.P.P.P.P.G.G.G.G.x.x.x.x.x.x.x.x.",
"x.x.x.x.G.G.G.G.G.G.G.G.G.G.G.G.P.P.P.P.P.P.P.P.P.P.P.P.P.P.P.P.P.P.P.P.G.G.G.G.x.x.x.x.x.x.x.x."
};
