/* XPM */
static char *d376328e85f94b1ec1b394bfc78382bapPDycUg6WRtQag0s[] = {
/* columns rows colors chars-per-pixel */
"48 48 220 2 ",
"   c #080405",
".  c #160706",
"X  c #101412",
"o  c #141214",
"O  c #1B1414",
"+  c #1A1918",
"@  c #1D1B1B",
"#  c #280F07",
"$  c #340200",
"%  c #3E0E0A",
"&  c #261506",
"*  c #38160C",
"=  c #2F0812",
"-  c #271816",
";  c #231C1C",
":  c #321B16",
">  c #3A1919",
",  c #1E211C",
"<  c #37210C",
"1  c #24221B",
"2  c #2A221B",
"3  c #29281A",
"4  c #372215",
"5  c #30331C",
"6  c #171C24",
"7  c #1C242C",
"8  c #262222",
"9  c #2A2525",
"0  c #272925",
"q  c #2C2A29",
"w  c #332B28",
"e  c #2B362A",
"r  c #373923",
"t  c #363529",
"y  c #252F38",
"u  c #302F31",
"i  c #283539",
"p  c #353031",
"a  c #383A38",
"s  c #481802",
"d  c #56110D",
"f  c #451915",
"g  c #591714",
"h  c #5B1C1A",
"j  c #6B1818",
"k  c #771B1E",
"l  c #4A2609",
"z  c #4A2219",
"x  c #572417",
"c  c #533916",
"v  c #75330A",
"b  c #683B17",
"n  c #6F3318",
"m  c #4D1F22",
"M  c #671A21",
"N  c #492724",
"B  c #5F2C27",
"V  c #553D29",
"C  c #483B3B",
"Z  c #622323",
"A  c #652728",
"S  c #712326",
"D  c #703432",
"F  c #3E403D",
"G  c #784D18",
"H  c #454A25",
"J  c #47482B",
"K  c #554927",
"L  c #515032",
"P  c #6C4D2D",
"I  c #785931",
"U  c #6F733C",
"Y  c #6A753C",
"T  c #6A753E",
"R  c #273A46",
"E  c #2E3A42",
"W  c #353C45",
"Q  c #393E44",
"!  c #38464B",
"~  c #3D454C",
"^  c #3A4B55",
"/  c #3A5363",
"(  c #3B5768",
")  c #474847",
"_  c #42494E",
"`  c #544D4C",
"'  c #4D564A",
"]  c #54554B",
"[  c #474D53",
"{  c #49555A",
"}  c #5A5A5B",
"|  c #74594C",
" . c #695A57",
".. c #5A6347",
"X. c #5C6756",
"o. c #727D43",
"O. c #6C6C52",
"+. c #686858",
"@. c #72735C",
"#. c #445965",
"$. c #515D63",
"%. c #515F68",
"&. c #46616E",
"*. c #5A6164",
"=. c #55636C",
"-. c #5C656E",
";. c #456172",
":. c #4A6575",
">. c #4B6978",
",. c #526976",
"<. c #5C6A74",
"1. c #546D7A",
"2. c #5C737E",
"3. c #6B6465",
"4. c #786565",
"5. c #7A716F",
"6. c #62767E",
"7. c #767070",
"8. c #882D31",
"9. c #8E3737",
"0. c #923739",
"q. c #825419",
"w. c #895D29",
"e. c #945137",
"r. c #A05A3E",
"t. c #8A642C",
"y. c #97672C",
"u. c #926633",
"i. c #A27233",
"p. c #925955",
"a. c #A05F44",
"s. c #937856",
"d. c #A86F47",
"f. c #847672",
"g. c #A56B65",
"h. c #758143",
"j. c #7C8946",
"k. c #7D8A4A",
"l. c #798452",
"z. c #808D49",
"x. c #85934D",
"c. c #88964D",
"v. c #8A984F",
"b. c #899752",
"n. c #8D9B52",
"m. c #909F54",
"M. c #93A255",
"N. c #9BAB5A",
"B. c #A3B35E",
"V. c #A8B15F",
"C. c #88857A",
"Z. c #99937D",
"A. c #BF9163",
"S. c #A7B861",
"D. c #AABC63",
"F. c #AEC165",
"G. c #B0C267",
"H. c #B4C669",
"J. c #B6C96B",
"K. c #BACE6D",
"L. c #BED26F",
"P. c #BFD370",
"I. c #C0D470",
"U. c #5A7786",
"Y. c #5F7F90",
"T. c #637681",
"R. c #627884",
"E. c #637E8C",
"W. c #6A7E89",
"Q. c #727E85",
"!. c #5F808C",
"~. c #6B828D",
"^. c #72828D",
"/. c #7C858B",
"(. c #688694",
"). c #728993",
"_. c #7B8C95",
"`. c #768D98",
"'. c #7B909B",
"]. c #7A98A5",
"[. c #988887",
"{. c #978E8A",
"}. c #818E97",
"|. c #83939D",
" X c #A89490",
".X c #8396A0",
"XX c #8499A3",
"oX c #8B9BA5",
"OX c #929EA6",
"+X c #8DA1AD",
"@X c #96A3AC",
"#X c #98AAB4",
"$X c #9BB2BD",
"%X c #A9A8A9",
"&X c #B5A8A7",
"*X c #ADB4B2",
"=X c #B7B3B3",
"-X c #C9A39D",
";X c #C8AEA5",
":X c #C7B9B6",
">X c #E5BEB4",
",X c #CEC3BD",
"<X c #EEC9BE",
"1X c #A9B8C1",
"2X c #B1BDC4",
"3X c #B6C3CA",
"4X c #B8C4CB",
"5X c #A0C4D1",
"6X c #B5CAD2",
"7X c #D9CCC7",
"8X c #C5D1D7",
"9X c #CBD6DB",
"0X c #E8D8D1",
"qX c #EBE3DE",
"wX c #FFE5DA",
"eX c #D5DEE2",
"rX c #DCE6EA",
"tX c #FFEDE5",
"yX c #FFF1E8",
"uX c #FFFEFA",
/* pixels */
"I.I.I.I.I.I.I.I.I.I.I.I.I.I.I.I.I.I.I.I.I.I.I.I.I.I.I.I.I.I.I.I.I.I.I.I.I.I.I.I.I.I.I.I.I.I.I.I.",
"I.I.I.I.I.I.I.I.I.I.I.I.I.I.I.I.I.I.I.I.I.I.I.I.I.I.I.I.I.I.I.I.I.I.I.I.I.I.I.I.I.I.I.I.I.I.I.I.",
"I.I.I.I.I.I.I.I.I.I.I.I.I.I.I.I.I.I.I.I.I.I.I.I.I.I.I.I.I.I.I.I.I.I.I.I.I.I.I.I.I.I.I.I.I.I.I.I.",
"I.I.I.I.I.I.I.I.I.I.I.I.I.I.I.I.I.I.I.I.I.I.I.P.L.L.L.L.P.I.I.I.I.I.I.I.I.I.I.I.I.I.I.I.I.I.I.I.",
"I.I.I.I.I.I.I.I.I.I.I.I.I.I.I.I.I.I.I.I.I.I.I.L.L.L.L.L.L.I.I.I.I.I.I.I.I.I.I.I.I.I.I.I.I.I.I.I.",
"I.I.I.I.I.I.I.I.I.I.I.I.I.I.I.I.I.I.I.I.I.L.I.I.I.I.I.I.I.I.P.I.I.I.I.I.I.I.I.I.I.I.I.I.I.I.I.I.",
"I.I.I.I.I.I.I.I.I.I.I.I.I.I.I.I.I.I.I.I.I.L.I.I.I.I.I.I.I.L.L.I.I.I.I.I.I.I.I.I.I.I.I.I.I.I.I.I.",
"I.I.I.I.I.I.I.I.I.I.I.I.I.I.I.I.I.I.I.L.I.I.I.S.N.N.N.N.D.I.I.L.L.I.I.I.I.I.I.I.I.I.I.I.I.I.I.I.",
"I.I.I.I.I.I.I.I.I.I.I.I.I.I.I.I.I.I.I.L.I.I.H.T r r r r j.K.P.P.L.I.I.I.I.I.I.I.I.I.I.I.I.I.I.I.",
"I.I.I.I.I.I.I.I.I.I.I.I.I.I.I.I.I.L.P.I.I.B.x.a ~ [ Q q H n.D.I.I.L.L.I.I.I.I.I.I.I.I.I.I.I.I.I.",
"I.I.I.I.I.I.I.I.I.I.I.I.I.I.I.I.I.L.I.I.J.T q ^ U.E.$.t O 3 k.L.I.I.L.I.I.I.I.I.I.I.I.I.I.I.I.I.",
"I.I.I.I.I.I.I.I.I.I.I.I.I.I.I.L.L.I.I.B.x.+.Q.1.2.!.{ 5 @ [ X.n.D.I.I.I.L.I.I.I.I.I.I.I.I.I.I.I.",
"I.I.I.I.I.I.I.I.I.I.I.I.I.I.I.L.I.I.J.T a %X9XXX:.;.! @ a 6.=.9 z.L.I.I.L.I.I.I.I.I.I.I.I.I.I.I.",
"I.I.I.I.I.I.I.I.I.I.I.I.I.L.I.I.I.B.z.' /.8XrX3X_.,.&.-.*.' _ [ ..c.B.I.P.I.P.I.I.I.I.I.I.I.I.I.",
"I.I.I.I.I.I.I.I.I.I.I.I.I.L.I.L.J.h.u ^.6X8X9XeX1XW.).$X/.8 a T.=.8 c.P.I.P.L.I.I.I.I.I.I.I.I.I.",
"I.I.I.I.I.I.I.I.I.I.I.L.L.L.L.N.k.' -.@X6X8X9XrX4X_.XX6XoX^ { ~.=.8 z.P.I.P.L.I.I.I.I.I.I.I.I.I.",
"I.I.I.I.I.I.I.I.I.I.I.L.I.I.L.j.8 =.XX+X#X4X9X9X2XoX.X#X'.;.:.R.{ 0 c.P.I.P.L.I.I.I.I.I.I.I.I.I.",
"I.I.I.I.I.I.I.I.I.L.L.I.I.I.P.z.9 -.XX.X|.$X3X4X*XOX'.~.#.E { T.$.q c.L.L.P.L.I.I.I.I.I.I.I.I.I.",
"I.I.I.I.I.I.I.I.I.I.I.K.J.J.H.j.w *.).~.~.oX#X#X+X|.~.:.i O F 6.%.; v.I.I.P.L.I.I.I.I.I.I.I.I.I.",
"I.I.I.I.I.I.I.L.L.I.I.S.h.o.o.L q $.~.~.W._.'.(.Y.U.U.:.E O ) T.$.+ n.I.I.P.L.I.I.I.I.I.I.I.I.I.",
"I.I.I.I.I.I.I.I.I.L.H.z.O p C ; @ ^ R.~.^.).2.^ R ! ( ;.E o a 2.=.q z.H.K.P.L.I.I.I.I.I.I.I.I.I.",
"I.I.I.I.I.L.L.I.I.D.o.H   7.&X .. y 1.R.W.(.#.O . - W / R   0 ,.U.^ ..o.B.I.I.P.L.I.I.I.I.I.I.I.",
"I.I.I.I.I.L.L.K.G.x.o ; `  X&X3.0 R >.U.1./ ! C z $ > -.<.) p R &.>.^ ; x.I.I.L.L.I.I.I.I.I.I.I.",
"I.I.I.P.L.I.P.S.o.H   3.=XC.a E #.&.:.U./ X a =X&Xg d  XeX,X4.o i 1.#.8 x.I.I.L.L.I.I.I.I.I.I.I.",
"I.I.I.L.L.I.I.M.; q ] {.%X4.9 i / / ^ / W - 4.uXuXg.p.<XuXuX;X .Q ^ ' T N.I.P.P.L.I.I.I.I.I.I.I.",
"I.I.I.L.L.I.I.M.O 5.:XC.p  .[.} 6 6 6 6 p | -XtXyX<X>XwXtXwXwX0X[.u o.G.K.P.L.I.I.I.I.I.I.I.I.I.",
"I.I.I.P.L.I.I.S.h.C.&X5.t  .[. .< < < . 9 [.:X:X:XqX0X:X:X7XqX7XZ.h.B.I.I.P.L.I.I.I.I.I.I.I.I.I.",
"I.I.I.I.I.L.L.K.J.b.a f. X3.q V w.w.b & 7 <.}.Q.}.1X#XQ.|.3X@X) k.J.L.I.I.I.I.I.I.I.I.I.I.I.I.I.",
"I.I.I.I.I.L.L.I.I.D.h.@.{. .4 G i.t.c 4 w W #.>.Y.].].(.(.~.[ # h.D.J.L.L.I.I.I.I.I.I.I.I.I.I.I.",
"I.I.I.I.I.I.I.I.I.L.J.x.p P t.y.G c 2 m h : y :.E.U.].$X).i : x V L m.L.L.P.L.I.I.I.I.I.I.I.I.I.",
"I.I.I.I.I.I.I.L.L.I.I.D.h.U I G l & = M j = + ) } ` 3.[.4.N z B N - x.I.I.P.L.I.I.I.I.I.I.I.I.I.",
"I.I.I.I.I.I.I.I.P.I.P.L.K.x.2 1 3 z j k Z : + : x Z A A D 9.D w O O n.I.I.P.L.I.I.I.I.I.I.I.I.I.",
"I.I.I.I.I.I.I.I.I.L.L.I.I.M., 7 ~ 4.p.D > - - % d k k j k 8.B 1 e ) l.N.F.I.P.I.P.I.I.I.I.I.I.I.",
"I.I.I.I.I.I.I.I.I.L.P.I.I.v.2 ~ W.$XOX[ . # f h S 8.0.9.8.S f O ~ 6.} r M.I.I.L.L.I.I.I.I.I.I.I.",
"I.I.I.I.I.I.I.I.I.L.P.P.L.k.8 { ].5X].! . s v v n e.a.a.r.e.x - { `.-.8 z.I.I.L.L.I.I.I.I.I.I.I.",
"I.I.I.I.I.I.I.I.I.L.P.I.P.c.; [ ~.`.,.y - b q.G G u.u.u.d.A.| ; ! T.$.; n.I.I.L.L.I.I.I.I.I.I.I.",
"I.I.I.I.I.I.I.I.I.P.I.L.I.D.n..._ _ W W ~ ] O.@.O.I G b s.=XC.q 6 ~ O.M.D.I.P.I.P.I.I.I.I.I.I.I.",
"I.I.I.I.I.I.I.I.I.I.I.L.I.I.P.x.3 3 t ^ ;.( ;.U.-.N $ $  .@X_.w o 3 n.I.I.L.L.I.I.I.I.I.I.I.I.I.",
"I.I.I.I.I.I.I.I.I.I.I.P.I.I.I.D.M.M.m.O._ ) ) ] C 4 . . L 4. .t T M.F.I.P.I.P.I.I.I.I.I.I.I.I.I.",
"I.I.I.I.I.I.I.I.I.I.I.I.I.P.L.P.I.I.K.o.- * l s * r e + > Z h ; x.P.I.L.L.I.I.I.I.I.I.I.I.I.I.I.",
"I.I.I.I.I.I.I.I.I.I.I.I.I.P.L.I.I.I.L.T - s s * H M.n.0 f j h ; k.I.I.L.L.I.I.I.I.I.I.I.I.I.I.I.",
"I.I.I.I.I.I.I.I.I.I.I.I.I.I.I.L.L.L.J.j.J K K J j.P.J.T K P P J c.K.L.I.L.I.I.I.I.I.I.I.I.I.I.I.",
"I.I.I.I.I.I.I.I.I.I.I.I.I.I.I.L.L.L.L.D.B.B.B.B.D.I.I.D.V.V.V.B.F.L.P.I.P.I.I.I.I.I.I.I.I.I.I.I.",
"I.I.I.I.I.I.I.I.I.I.I.I.I.I.I.I.I.I.I.I.I.I.I.I.I.L.I.I.I.I.I.I.I.I.I.I.I.I.I.I.I.I.I.I.I.I.I.I.",
"I.I.I.I.I.I.I.I.I.I.I.I.I.I.I.I.I.I.I.I.I.I.I.I.I.I.I.I.I.I.I.I.I.I.I.I.I.I.I.I.I.I.I.I.I.I.I.I.",
"I.I.I.I.I.I.I.I.I.I.I.I.I.I.I.I.I.I.I.L.L.L.L.L.L.I.I.L.L.L.L.L.L.I.I.I.I.I.I.I.I.I.I.I.I.I.I.I.",
"I.I.I.I.I.I.I.I.I.I.I.I.I.I.I.I.I.I.I.I.P.I.I.P.P.I.I.P.I.I.I.P.I.I.I.I.I.I.I.I.I.I.I.I.I.I.I.I.",
"I.I.I.I.I.I.I.I.I.I.I.I.I.I.I.I.I.I.I.I.I.I.I.I.I.I.I.I.I.I.I.I.I.I.I.I.I.I.I.I.I.I.I.I.I.I.I.I."
};
