/* XPM */
static char *_a39f890532d457ab8e90e0847f82abfQ2ngNF6ykH13zoUH[] = {
/* columns rows colors chars-per-pixel */
"48 48 205 2 ",
"   c #070406",
".  c #180808",
"X  c #131013",
"o  c #1C1514",
"O  c #1B191A",
"+  c #2B0500",
"@  c #340705",
"#  c #291607",
"$  c #37190B",
"%  c #2C0913",
"&  c #231D1C",
"*  c #281918",
"=  c #351C19",
"-  c #1C221C",
";  c #2A241B",
":  c #352619",
">  c #2C331D",
",  c #101A25",
"<  c #231F20",
"1  c #1B2229",
"2  c #1F343F",
"3  c #272221",
"4  c #292424",
"5  c #2B2B24",
"6  c #252629",
"7  c #2D2A29",
"8  c #322B2C",
"9  c #2B3326",
"0  c #343824",
"q  c #2C2E33",
"w  c #27353B",
"e  c #373738",
"r  c #4D0F0B",
"t  c #461707",
"y  c #461915",
"u  c #591817",
"i  c #5A1D1A",
"p  c #6B1A15",
"a  c #681A19",
"s  c #5A2C03",
"d  c #442113",
"f  c #512C10",
"g  c #46391D",
"h  c #63360B",
"j  c #6C2E13",
"k  c #681E22",
"l  c #4A2623",
"z  c #493A27",
"x  c #5C3026",
"c  c #453B3A",
"v  c #642526",
"b  c #762527",
"n  c #67362B",
"m  c #733333",
"M  c #3A4725",
"N  c #3D423F",
"B  c #64441A",
"V  c #754716",
"C  c #52522E",
"Z  c #49453E",
"A  c #475937",
"S  c #764D2B",
"D  c #7D5C33",
"F  c #496338",
"G  c #4E6A3A",
"H  c #546A39",
"J  c #55733E",
"K  c #5E703B",
"L  c #6D713B",
"P  c #67783C",
"I  c #2A3943",
"U  c #333E45",
"Y  c #39434A",
"T  c #38444A",
"R  c #2F4350",
"E  c #364A56",
"W  c #3C4C54",
"Q  c #3F5158",
"!  c #3B5767",
"~  c #454948",
"^  c #5A4B46",
"/  c #475548",
"(  c #535648",
")  c #434C53",
"_  c #4B565A",
"`  c #565759",
"'  c #685B58",
"]  c #735857",
"[  c #5A654E",
"{  c #5A7942",
"}  c #696358",
"|  c #766E57",
" . c #6F7052",
".. c #455B67",
"X. c #535D64",
"o. c #585E64",
"O. c #4D606B",
"+. c #57636C",
"@. c #466373",
"#. c #4B6674",
"$. c #4B6A79",
"%. c #556B77",
"&. c #5C727D",
"*. c #6C6668",
"=. c #76696A",
"-. c #68757C",
";. c #852523",
":. c #832F36",
">. c #893232",
",. c #943938",
"<. c #835319",
"1. c #864B2E",
"2. c #91542A",
"3. c #8A632C",
"4. c #96672B",
"5. c #926633",
"6. c #A37334",
"7. c #8D514E",
"8. c #946D56",
"9. c #98795E",
"0. c #6C803F",
"q. c #6E8242",
"w. c #648649",
"e. c #6A874A",
"r. c #698D4D",
"t. c #778747",
"y. c #748945",
"u. c #6C904E",
"i. c #7C934B",
"p. c #6C9250",
"a. c #769E57",
"s. c #769F58",
"d. c #77A057",
"f. c #78A057",
"g. c #77A058",
"h. c #78A158",
"j. c #85954E",
"k. c #899751",
"l. c #8AA352",
"z. c #8FA956",
"x. c #92A957",
"c. c #97B35B",
"v. c #9DBA5E",
"b. c #A5B65F",
"n. c #8E877C",
"m. c #BE8F60",
"M. c #9EBB61",
"N. c #A1BE61",
"B. c #AABB64",
"V. c #A4C263",
"C. c #B5C869",
"Z. c #BACE6D",
"A. c #BED26F",
"S. c #BFD370",
"D. c #C0D470",
"F. c #5C7584",
"G. c #5B7988",
"H. c #677A85",
"J. c #647A86",
"K. c #737E86",
"L. c #5F818F",
"P. c #6C838E",
"I. c #75828A",
"U. c #6D8491",
"Y. c #688694",
"T. c #778A94",
"R. c #7C939E",
"E. c #7A97A4",
"W. c #7FA0AD",
"Q. c #928E8A",
"!. c #9B8A88",
"~. c #9A908A",
"^. c #85939C",
"/. c #A3918E",
"(. c #B39798",
"). c #8699A3",
"_. c #929CA4",
"`. c #95A4AD",
"'. c #99AAB4",
"]. c #9BB1BC",
"[. c #A8A7A8",
"{. c #B5ADAB",
"}. c #BBB5AA",
"|. c #A7B4BB",
" X c #C49F98",
".X c #CABAB6",
"XX c #E1B7AE",
"oX c #AFDDBC",
"OX c #B0DFBD",
"+X c #B1E0BE",
"@X c #CFC2BE",
"#X c #EAC4BA",
"$X c #B2BEC4",
"%X c #9DC2CF",
"&X c #9BD4C3",
"*X c #B8C5CB",
"=X c #B4C9D1",
"-X c #C8D3D8",
";X c #E5D4CD",
":X c #EDE4DE",
">X c #FFE6DB",
",X c #D3DCE0",
"<X c #DDE8EB",
"1X c #FFF4EB",
"2X c #FEFDF9",
/* pixels */
"h.h.h.h.h.h.h.h.h.h.h.h.h.h.h.h.h.h.h.h.h.h.h.h.+X+X+X+X+X+X+X+X&X&X&X&X&X&X&X&X&X&X&X&X&X&X&X&X",
"h.h.h.h.h.h.h.h.h.h.h.h.h.h.h.h.h.h.h.h.h.h.h.h.OXOXOXOX+X+X+X+X&X&X&X&X&X&X&X&X&X&X&X&X&X&X&X&X",
"h.h.h.h.h.h.h.h.h.h.h.h.h.h.h.h.h.h.h.h.h.h.h.d.oXoXoXoXOX+X+X+X&X&X&X&X&X&X&X&X&X&X&X&X&X&X&X&X",
"h.h.h.h.h.h.h.h.h.h.h.h.h.h.h.h.h.h.h.h.h.h.h.h.+X+X+X+X+X+XOX+X&X&X&X&X&X&X&X&X&X&X&X&X&X&X&X&X",
"V.V.V.V.V.V.V.V.V.V.V.V.h.h.h.h.h.h.h.h.h.d.h.h.h.h.h.h.h.d.d.h.h.h.h.h.&X&X&X&X&X&X&X&X&X&X&X&X",
"V.V.V.V.V.V.V.V.V.V.V.V.h.h.h.h.h.h.h.s.h.h.h.r.w.w.w.w.p.h.h.h.d.h.h.h.&X&X&X&X&X&X&X&X&X&X&X&X",
"V.V.V.V.V.V.V.V.V.V.V.V.h.h.h.h.h.h.h.s.h.h.a.A 9 > 9 0 G s.h.g.s.h.h.h.&X&X&X&X&X&X&X&X&X&X&X&X",
"V.V.V.V.V.V.V.V.V.V.V.V.h.h.h.h.h.s.h.h.h.r.J 9 Y ~ e 7 0 { u.h.h.g.s.h.&X&X&X&X&X&X&X&X&X&X&X&X",
"V.V.V.V.V.V.V.V.V.V.V.V.V.V.V.V.V.N.V.V.v.P 9 R %.J.X.7 o ; H g.h.d.s.h.h.h.h.h.&X&X&X&X&X&X&X&X",
"V.V.V.V.V.V.V.V.V.V.V.V.V.V.V.V.V.V.V.z.y.[ -.%.F.L._ > O ) / { u.h.h.h.h.h.h.h.&X&X&X&X&X&X&X&X",
"V.V.V.V.V.V.V.V.V.V.V.V.V.V.V.N.V.V.v.P e [.-X^.#.@.R o e &.+.5 G d.h.h.s.h.h.h.&X&X&X&X&X&X&X&X",
"V.V.V.V.V.V.V.V.V.V.V.V.V.V.V.V.V.z.y./ I.-X<X*XT.#...o.` _ ) ) / { r.h.g.h.h.h.&X&X&X&X&X&X&X&X",
"D.D.D.D.D.D.D.D.D.D.D.D.V.V.V.V.v.P 7 K.*X-X-X,X|.J.U.].I.4 e &.+.< y.V.h.h.d.h.h.h.h.h.&X&X&X&X",
"D.D.D.D.D.D.D.D.D.D.D.A.V.N.N.l.y.A +.`.=X-X-X<X*XT.).=X_.Y W P.+.3 q.V.h.h.s.h.h.h.h.h.&X&X&X&X",
"D.D.D.D.D.D.D.D.D.D.D.A.V.V.V.q.3 o.R.`.].*X-X-X$X).).'.R.@.#.J._ 3 y.V.h.h.d.h.h.h.h.h.&X&X&X&X",
"D.D.D.D.D.D.D.D.D.A.A.D.V.V.V.q.4 +.).).^.|.*X*X|._.R.U.O.U _ J.X.5 y.N.d.h.d.h.h.h.h.h.&X&X&X&X",
"V.V.V.V.D.D.D.D.D.D.D.A.Z.Z.C.i.7 +.T.U.P.).].'.`.^.U.$.w X e -.X.& y.V.V.V.V.V.h.h.h.h.h.h.h.h.",
"V.V.V.V.D.D.D.A.A.D.D.B.t.t.t.C 7 o.P.P.K.T.R.Y.Y.J.F.@.I o ~ J.X.O i.V.V.V.V.V.h.h.h.h.h.h.h.h.",
"V.V.V.V.D.D.D.S.D.A.Z.j.o 8 8 * & ) J.U.P.U.F.Q R E ..@.U o e &.+.6 q.v.N.V.V.V.h.h.h.h.h.h.h.h.",
"V.V.V.V.D.A.A.D.D.B.t.C   =.[.' . w %.J.J.Y...o . * U ! 2   6 %.G.W A P l.V.V.V.f.h.h.h.h.h.h.h.",
"D.D.D.D.S.A.A.Z.C.j.o o Z /.}.*.1 I $.F.&.! T c y + = +.%.c 8 R @.$.W & y.V.V.V.s.h.h.h.h.h.h.h.",
"D.D.D.S.A.D.S.B.t.C   ' {.Q.c U ....#.G.! , e [.(.u r /.-X.X' X w $...3 y.V.V.V.s.h.h.h.h.h.h.h.",
"D.D.D.A.A.D.D.x.& 3 Z Q.{.=.3 w ! ! E ! U * } 2X2X8.7.#X2X2X X^ e Q / F j.V.V.V.d.h.h.h.h.h.h.h.",
"D.D.D.A.A.D.D.x.o =.}.n.e ' !.` , , 1 1 8 ]  X1X1X#XXX>X1X>X>X;Xn.q K x.v.V.V.V.h.h.h.h.h.h.h.h.",
"D.D.D.S.A.D.D.b.P n.{.=.8 ' /.' * $ $ . 7 !..X.X@X:X:X@X.X;X:X;Xn.K l.V.V.V.V.V.h.h.h.h.h.h.h.h.",
"D.D.D.D.D.A.A.Z.C.k.c 9.~.*.q z D <.h # 1 &.^.I.^.$X|.I.^.*X`.` q.v.V.V.V.V.V.V.h.h.h.h.h.h.h.h.",
"D.D.D.D.D.A.A.D.D.B.P | /.' $ B 6.3.h : 4 Y ..$.G.E.E.Y.Y.U._ . P c.M.N.N.V.V.V.h.h.h.h.h.h.h.h.",
"D.D.D.D.D.D.D.D.D.A.C.j.e C 3.4.<.g ; l i = w #.J.G.E.].U.w = i B A i.V.V.V.V.V.h.h.h.h.h.h.h.h.",
"D.D.D.D.D.D.D.A.A.D.D.B.P L D S f # % k a % O ~ o.` *.Q.=.l d v l * q.V.V.V.V.V.h.h.h.h.h.h.h.h.",
"D.D.D.D.D.D.D.D.D.D.D.A.C.j.; ; ; d a b k = o : f v v v m >.n : o o y.V.V.V.V.V.h.h.h.h.h.h.h.h.",
"D.D.D.D.D.D.D.D.D.A.A.D.D.l.- 1 Y ] 7.m y = = t u b b p ;.,.n - 6 N  .l.c.V.V.V.h.h.h.h.h.h.h.h.",
"D.D.D.D.D.D.D.D.D.A.S.D.D.k.4 Y J.'._.~ . # y i b >.,.,.>.b y o T &.` M i.V.V.V.d.h.h.h.h.h.h.h.",
"V.V.V.V.D.D.D.D.D.A.S.A.N.0.3 _ E.%XW.R   + y u v b :.:.b i @ o _ T.%.3 G h.h.d.s.h.h.h.&X&X&X&X",
"V.V.V.V.D.D.D.D.D.A.S.D.V.y.& _ P.R.&.w o $ t t y a k k v k y o W J.X.& J h.h.d.d.h.h.h.&X&X&X&X",
"V.V.V.V.D.D.D.D.D.S.D.S.V.z.y.( ) W ~ z s h s s h S 1.S 1.2.n ; q ) [ t.r.h.h.h.f.h.h.h.&X&X&X&X",
"V.V.V.V.D.D.D.D.D.D.D.A.V.V.N.q.& O > B <.<.V V <.5.5.5.6.m.8.5 X O t.V.h.h.d.h.h.h.h.h.&X&X&X&X",
"V.V.V.V.V.V.V.V.V.V.V.V.V.V.V.x.y.M * C  .} } | | D V j 9.}.Q.7 M J u.h.h.h.h.h.&X&X&X&X&X&X&X&X",
"V.V.V.V.V.V.V.V.V.V.V.V.V.N.V.V.N.P 7 W @...@.G.+.l @ @ ' '.T.7 G d.h.h.s.h.h.h.&X&X&X&X&X&X&X&X",
"V.V.V.V.V.V.V.V.V.V.V.V.V.V.V.V.V.x.i.[ Y Y ~ ( c = . . c =.' 5 J h.h.d.s.h.h.h.&X&X&X&X&X&X&X&X",
"V.V.V.V.V.V.V.V.V.V.V.V.V.V.V.N.V.V.M.P * $ t t $ 0 9 O = a i & G s.h.h.s.h.h.h.&X&X&X&X&X&X&X&X",
"h.h.h.h.h.h.h.h.V.V.V.V.V.V.V.N.d.h.s.A * t t $ 0 { { 1 y p u & F s.h.h.&X&X&X&X&X&X&X&X+X+X+X+X",
"h.h.h.h.h.h.h.h.V.V.V.V.V.V.V.V.h.d.a.G 0 g g 0 G g.a.A z n x 0 J s.h.h.&X&X&X&X&X&X&X&X+X+X+X+X",
"h.h.h.h.h.h.h.h.V.V.V.V.V.V.V.V.h.h.s.r.w.e.e.w.p.h.h.r.e.t.e.w.p.d.h.h.&X&X&X&X&X&X&X&X+X+X+X+X",
"h.h.h.h.h.h.h.h.V.V.V.V.V.V.V.V.h.h.h.h.h.h.h.h.h.d.h.h.h.h.h.h.h.h.h.h.&X&X&X&X&X&X&X&X+X+X+X+X",
"h.h.h.h.h.h.h.h.h.h.h.h.h.h.h.h.h.h.h.h.h.h.h.h.+X+X+X+X+X+X+X+X&X&X&X&X&X&X&X&X&X&X&X&X&X&X&X&X",
"h.h.h.h.h.h.h.h.h.h.h.h.h.h.h.h.h.h.h.d.s.s.s.s.oX+X+XoXoXOXoXoX&X&X&X&X&X&X&X&X&X&X&X&X&X&X&X&X",
"h.h.h.h.h.h.h.h.h.h.h.h.h.h.h.h.h.h.h.h.h.h.h.h.OX+X+XOXOXOXOXOX&X&X&X&X&X&X&X&X&X&X&X&X&X&X&X&X",
"h.h.h.h.h.h.h.h.h.h.h.h.h.h.h.h.h.h.h.h.h.h.h.h.+X+X+X+X+X+X+X+X&X&X&X&X&X&X&X&X&X&X&X&X&X&X&X&X"
};
