/* XPM */
static char *cba5fae06f504f19c0ba6edaf4f39820OTqCMQzTwn3CYX5I[] = {
/* columns rows colors chars-per-pixel */
"48 48 207 2 ",
"   c #080405",
".  c #160706",
"X  c #0F1312",
"o  c #171616",
"O  c #1B1414",
"+  c #1D1C1B",
"@  c #280F07",
"#  c #360503",
"$  c #29100A",
"%  c #38160B",
"&  c #271816",
"*  c #231C1C",
"=  c #351A17",
"-  c #19241F",
";  c #36220D",
":  c #25241B",
">  c #28221A",
",  c #372117",
"<  c #32351D",
"1  c #171C24",
"2  c #1C242C",
"3  c #262222",
"4  c #2A2525",
"5  c #282926",
"6  c #2C2A29",
"7  c #332B28",
"8  c #263328",
"9  c #323424",
"0  c #363924",
"q  c #37342E",
"w  c #252F38",
"e  c #302F31",
"r  c #283539",
"t  c #373736",
"y  c #481802",
"u  c #56110D",
"i  c #451915",
"p  c #5B1B19",
"a  c #6B1818",
"s  c #771B1E",
"d  c #53300E",
"f  c #492219",
"g  c #572417",
"h  c #45371C",
"j  c #6E3513",
"k  c #4D1F22",
"l  c #671A21",
"z  c #492724",
"x  c #5F2C27",
"c  c #523B28",
"v  c #493C3A",
"b  c #632424",
"n  c #712326",
"m  c #6E3630",
"M  c #37421E",
"N  c #3C432F",
"B  c #784D18",
"V  c #454927",
"C  c #46512A",
"Z  c #425932",
"A  c #745428",
"S  c #6E5334",
"D  c #4B6739",
"F  c #556C3A",
"G  c #53713E",
"H  c #6A6F3A",
"J  c #62743B",
"K  c #69763E",
"L  c #6C7D3F",
"P  c #273A46",
"I  c #2E3A42",
"U  c #353C45",
"Y  c #393E44",
"T  c #3A454A",
"R  c #3A4B55",
"E  c #3A5363",
"W  c #3B5768",
"Q  c #474849",
"!  c #4C5548",
"~  c #53544B",
"^  c #474D53",
"/  c #574D52",
"(  c #48555A",
")  c #59595B",
"_  c #74594C",
"`  c #685A56",
"'  c #596648",
"]  c #5A7A43",
"[  c #5C6756",
"{  c #727E43",
"}  c #676657",
"|  c #706F56",
" . c #445965",
".. c #515D63",
"X. c #515F68",
"o. c #46616E",
"O. c #55636C",
"+. c #5B646A",
"@. c #456172",
"#. c #4A6575",
"$. c #4B6978",
"%. c #566B77",
"&. c #5C737E",
"*. c #6B6465",
"=. c #776565",
"-. c #7A716F",
";. c #62767E",
":. c #767070",
">. c #882D31",
",. c #8F3738",
"<. c #825419",
"1. c #895D29",
"2. c #945137",
"3. c #A05A3E",
"4. c #90652B",
"5. c #926633",
"6. c #A27233",
"7. c #925955",
"8. c #A05F44",
"9. c #937856",
"0. c #A86F47",
"q. c #837A76",
"w. c #A56B65",
"e. c #6D813F",
"r. c #6A874A",
"t. c #6A8D4D",
"y. c #738344",
"u. c #768B47",
"i. c #7C8B4A",
"p. c #7C934B",
"a. c #6C9251",
"s. c #769E56",
"d. c #789F57",
"f. c #77A057",
"g. c #78A158",
"h. c #808D49",
"j. c #85934C",
"k. c #89974E",
"l. c #899C50",
"z. c #8BA554",
"x. c #97AB59",
"c. c #98B45C",
"v. c #9DBA5F",
"b. c #A3B45E",
"n. c #87857A",
"m. c #99937D",
"M. c #BF9163",
"N. c #9DBA60",
"B. c #A1BF61",
"V. c #A9BB62",
"C. c #A4C263",
"Z. c #B6C96B",
"A. c #BED26F",
"S. c #BFD370",
"D. c #C0D470",
"F. c #5A7786",
"G. c #5F7F90",
"H. c #627681",
"J. c #667C88",
"K. c #727E85",
"L. c #5F808C",
"P. c #6B828D",
"I. c #76838C",
"U. c #688694",
"Y. c #768B96",
"T. c #7B909B",
"R. c #7A98A5",
"E. c #988887",
"W. c #958D8A",
"Q. c #818E97",
"!. c #83939D",
"~. c #A79490",
"^. c #8699A3",
"/. c #929EA6",
"(. c #96A3AC",
"). c #93AAB6",
"_. c #98ABB5",
"`. c #A9A8A9",
"'. c #B5A8A7",
"]. c #ADB4B2",
"[. c #B9B4B3",
"{. c #C9A39D",
"}. c #C8AEA5",
"|. c #C8B9B6",
" X c #E5BEB4",
".X c #AFDDBC",
"XX c #B1DFBD",
"oX c #B1E0BE",
"OX c #CEC3BD",
"+X c #EEC9BE",
"@X c #A9B8C1",
"#X c #B1BDC4",
"$X c #9BD4C3",
"%X c #9EC3D1",
"&X c #B7C3CA",
"*X c #B5CAD2",
"=X c #C5D1D7",
"-X c #CBD6DB",
";X c #D1D0D0",
":X c #E8D8D1",
">X c #EBE3DE",
",X c #FFE5DA",
"<X c #D5DEE2",
"1X c #DCE6EA",
"2X c #FFEDE5",
"3X c #FFF1E8",
"4X c #FFFEFA",
/* pixels */
"g.g.g.g.g.g.g.g.C.C.C.C.C.C.C.C.C.C.C.C.D.D.D.D.D.D.D.D.D.D.D.D.D.D.D.D.D.D.D.D.D.D.D.D.D.D.D.D.",
"g.g.g.g.g.g.g.g.C.C.C.C.C.C.C.C.C.C.C.C.D.D.D.D.D.D.D.D.D.D.D.D.D.D.D.D.D.D.D.D.D.D.D.D.D.D.D.D.",
"g.g.g.g.g.g.g.g.C.C.C.C.C.C.C.C.C.C.C.C.D.D.D.D.D.D.D.D.D.D.D.D.D.D.D.D.D.D.D.D.D.D.D.D.D.D.D.D.",
"g.g.g.g.g.g.g.g.C.C.C.C.C.C.C.C.C.C.C.C.D.D.D.S.A.A.A.A.S.D.D.D.D.D.D.D.D.D.D.D.D.D.D.D.D.D.D.D.",
"g.g.g.g.g.g.g.g.C.C.C.C.C.C.C.C.D.D.D.D.D.D.D.A.A.A.A.A.A.D.D.D.C.C.C.C.D.D.D.D.D.D.D.D.D.D.D.D.",
"g.g.g.g.g.g.g.g.C.C.C.C.C.C.C.C.D.D.D.D.D.A.D.D.D.D.D.D.D.D.S.D.C.C.C.C.D.D.D.D.D.D.D.D.D.D.D.D.",
"g.g.g.g.g.g.g.g.C.C.C.C.C.C.C.C.D.D.D.D.D.A.D.D.D.D.D.D.D.A.A.D.C.C.C.C.D.D.D.D.D.D.D.D.D.D.D.D.",
"g.g.g.g.g.g.g.g.C.C.C.C.C.C.C.C.D.D.D.A.D.D.D.V.x.x.x.x.V.D.D.A.C.C.C.C.D.D.D.D.D.D.D.D.D.D.D.D.",
"g.g.g.g.C.C.C.C.C.C.C.C.C.C.C.C.C.C.C.B.D.D.Z.K 0 0 0 0 i.A.S.S.A.D.D.D.D.D.D.D.D.D.D.D.D.D.D.D.",
"g.g.g.g.C.C.C.C.C.C.C.C.C.C.C.C.C.B.C.C.D.b.j.t T ^ Y 6 V l.V.D.D.A.A.D.D.D.D.D.D.D.D.D.D.D.D.D.",
"g.g.g.g.C.C.C.C.C.C.C.C.C.C.C.C.C.B.C.C.Z.L 6 R F.J...q O > i.A.D.D.A.D.D.D.D.D.D.D.D.D.D.D.D.D.",
"g.g.g.g.C.C.C.C.C.C.C.C.C.C.C.B.C.C.C.z.j.} K.%.&.L.( < + ^ [ k.V.D.D.D.A.D.D.D.D.D.D.D.D.D.D.D.",
"g.g.g.g.C.C.C.C.C.C.C.C.C.C.C.C.D.D.Z.L t `.-X^.#.@.T + t ;.O.4 h.A.D.D.A.D.D.D.D.D.D.D.C.C.C.C.",
"g.g.g.g.C.C.C.C.C.C.C.C.C.C.C.C.D.b.h.~ I.=X1X&XY.$.o.+.+.! ^ ^ ' j.b.D.S.D.S.D.D.D.D.D.C.C.C.C.",
"g.g.g.g.C.C.C.C.C.C.C.C.C.C.C.C.Z.y.e I.*X=X=X<X@XJ.Y.@XI.3 t H.O.3 j.S.D.S.A.D.D.D.D.D.C.C.C.C.",
"g.g.g.g.C.C.C.C.C.C.C.C.C.B.B.z.i.! +.(.*X=X-X1X&XY.^.*X/.R ( P.O.3 h.S.D.S.A.D.D.D.D.D.C.C.C.C.",
"g.g.g.g.g.g.g.g.C.C.C.C.C.C.C.L 3 O.^.)._.&X-X-X#X^.^.).T.@.#.H.( 5 k.S.D.S.A.D.D.D.D.D.D.D.D.D.",
"g.g.g.g.g.g.g.g.C.C.B.C.C.C.C.y.4 +.^.^.!._.&X&X]./.T.P. .I ( H...6 k.A.A.S.A.D.D.D.D.D.D.D.D.D.",
"g.g.g.g.g.g.g.g.C.C.C.N.v.v.c.L 7 +.Y.P.P.^._.).(.!.P.#.r O N ;.X.* k.D.D.S.A.D.D.D.D.D.D.D.D.D.",
"g.g.g.g.g.g.g.s.B.C.C.z.J J J C 6 ..P.P.K.Y.T.U.G.F.F.#.I O Q H...+ l.D.D.S.A.D.D.D.D.D.D.D.D.D.",
"g.g.g.g.g.g.g.g.C.B.c.y.O q v * + R H.P.P.Y.&.R P R  .@.I o t &.O.5 h.Z.A.S.A.D.D.D.D.D.D.D.D.D.",
"g.g.g.g.g.f.f.g.C.x.J M   :.'.` . w %.H.J.U. .O . & U E P   5 $.F.R ' { b.D.D.S.A.D.D.D.D.D.D.D.",
"g.g.g.g.g.f.f.s.c.y.o * Q ~.'.*.2 P $.F.%.E T v f # = +.%.Q e P o.$.R * j.D.D.A.A.D.D.D.D.D.D.D.",
"g.g.g.g.g.g.g.t.J M   *.[.n.t I  .o.#.F.E X t ].'.p u ~.<XOX=.X r %. .3 j.D.D.A.A.D.D.D.D.D.D.D.",
"$X$X$X$Xs.g.g.] * 6 ~ W.`.=.6 r E E R E U & =.4X4Xw.7.+X4X4X}.` Y R ! K l.C.C.C.A.D.D.D.D.D.D.D.",
"$X$X$X$Xs.g.g.] O -.[.q.q ` E.) 1 1 1 1 e _ {.2X3X+X X,X2X,X,X:XE.e { Z.v.C.C.C.D.D.D.D.D.D.D.D.",
"$X$X$X$Xg.g.g.t.J n.'.-.q ` E.` ; ; ; . 4 E.|.|.|.>X:X|.|.;X>X;Xm.y.b.D.C.C.C.C.D.D.D.D.D.D.D.D.",
"$X$X$X$Xg.f.f.s.c.u.t q.~.*.6 c 1.1.j @ 2 %.Q.I.Q.@X_.K.!.&X(.Q i.Z.A.D.C.C.C.C.D.D.D.D.D.D.D.D.",
"$X$X$X$Xg.f.f.g.g.t.D } E.` ; B 6.4.c , 4 U  .$.G.R.R.U.U.P.^ @ J x.N.B.A.D.D.D.D.D.D.D.D.D.D.D.",
"$X$X$X$Xg.g.g.g.g.s.s.G e S 1.6.B h > k p = w #.J.F.R._.Y.r = g c C p.B.A.S.A.D.D.D.D.D.D.D.D.D.",
"$X$X$X$Xg.g.g.s.s.g.g.t.K H A A d @ $ l a $ + Q ) / *.E.=.z f b z & y.C.D.S.A.D.D.D.D.D.D.D.D.D.",
"$X$X$X$Xg.g.g.g.g.f.f.f.v.y.> : > f a s b = o = g b b b m ,.m , O O u.C.D.S.A.D.D.D.D.D.D.D.D.D.",
"$X$X$X$Xg.g.g.g.g.s.s.g.C.p.+ 2 T =.7.m = & & % u s s a s >.x + 8 Q { l.c.C.C.C.C.C.C.C.D.D.D.D.",
"$X$X$X$Xg.g.g.g.g.f.g.g.C.u.: T J._./.^ . @ i p n >.,.,.>.n i O R &.) 9 p.C.C.C.C.C.C.C.D.D.D.D.",
"$X$X$X$Xg.g.g.g.g.f.g.g.B.L 3 ( R.%XR.T . y j j >.2.8.8.3.2.g & ( Y.+.3 e.C.C.C.C.C.C.C.D.D.D.D.",
"$X$X$X$Xg.g.g.g.g.f.g.g.C.u.* ^ P.Y.%.w & d <.B B 5.5.5.0.M._ * T H...* u.C.C.C.C.C.C.C.D.D.D.D.",
"$X$X$X$X$X$X$X$Xg.g.g.g.g.t.] ! ^ ^ Y U T ~ } | | A j j 9.[.n.6 1 T ' p.x.C.C.C.C.C.C.C.C.C.C.C.",
"$X$X$X$X$X$X$X$Xg.g.g.s.g.g.f.G : > 9 R @.W @.F.+.z # # ` (.Y.6 . > u.C.C.C.C.C.C.C.C.C.C.C.C.C.",
"$X$X$X$X$X$X$X$Xg.g.g.g.g.g.g.t.p.p.p.' T T Q ~ v , . . v =.` 9 F p.c.C.C.C.C.C.C.C.C.C.C.C.C.C.",
"$X$X$X$X$X$X$X$Xg.g.g.g.g.g.f.g.C.C.B.J & % y y % 9 8 + = l p * y.C.C.C.B.C.C.C.C.C.C.C.C.C.C.C.",
"$X$X$X$X$X$X$X$X$X$X$X$Xg.g.f.g.g.g.s.Z & y y % < ] ] - i a p * D g.g.f.B.C.C.C.g.g.g.g.g.g.g.g.",
"$X$X$X$X$X$X$X$X$X$X$X$Xg.g.g.s.f.f.s.D 0 h h 0 D g.s.Z c m c 0 G s.f.g.C.C.C.C.g.g.g.g.g.g.g.g.",
"$X$X$X$X$X$X$X$X$X$X$X$Xg.g.g.g.f.f.s.t.r.r.r.r.a.g.g.t.r.u.r.r.a.s.g.g.C.C.C.C.g.g.g.g.g.g.g.g.",
"$X$X$X$X$X$X$X$X$X$X$X$Xg.g.g.g.g.g.g.g.g.g.g.g.g.f.g.g.g.g.g.g.g.g.g.g.C.C.C.C.g.g.g.g.g.g.g.g.",
"$X$X$X$X$X$X$X$X$X$X$X$X$X$X$X$X$X$X$X$XoXoXoXoXg.g.g.g.g.g.g.g.g.g.g.g.g.g.g.g.g.g.g.g.g.g.g.g.",
"$X$X$X$X$X$X$X$X$X$X$X$X$X$X$X$X$X$X$X$X.X.X.X.Xf.g.g.f.s.d.s.s.f.g.g.g.g.g.g.g.g.g.g.g.g.g.g.g.",
"$X$X$X$X$X$X$X$X$X$X$X$X$X$X$X$X$X$X$X$XXXXXXXXXg.g.g.g.g.g.g.g.g.g.g.g.g.g.g.g.g.g.g.g.g.g.g.g.",
"$X$X$X$X$X$X$X$X$X$X$X$X$X$X$X$X$X$X$X$XoXoXoXoXg.g.g.g.g.g.g.g.g.g.g.g.g.g.g.g.g.g.g.g.g.g.g.g."
};
