/* XPM */
static char *fb581478560940abd340a0f3b7e7ae58ZLgDCoOpwuSJyeXI[] = {
/* columns rows colors chars-per-pixel */
"48 48 217 2 ",
"   c #020203",
".  c #080608",
"X  c #17090A",
"o  c #0A1218",
"O  c #141012",
"+  c #151214",
"@  c #1C1314",
"#  c #1F1A1B",
"$  c #18181C",
"%  c #2A0C08",
"&  c #340200",
"*  c #310E03",
"=  c #28140A",
"-  c #3B190B",
";  c #3C0F12",
":  c #231C1C",
">  c #291A18",
",  c #381617",
"<  c #28231A",
"1  c #352517",
"2  c #30331C",
"3  c #161B23",
"4  c #1D2023",
"5  c #262222",
"6  c #282724",
"7  c #2D2B25",
"8  c #232629",
"9  c #2C2A29",
"0  c #302E24",
"q  c #362C2B",
"w  c #2E3625",
"e  c #373923",
"r  c #373529",
"t  c #262F36",
"y  c #302F31",
"u  c #29353B",
"i  c #353031",
"p  c #383A38",
"a  c #491809",
"s  c #53110E",
"d  c #441615",
"f  c #581A1A",
"g  c #5B1C1B",
"h  c #691415",
"j  c #731B1E",
"k  c #47210C",
"l  c #5A2F06",
"z  c #4C251C",
"x  c #5B3119",
"c  c #69290F",
"v  c #683B17",
"b  c #7E1B21",
"n  c #492A25",
"m  c #5E2621",
"M  c #4C3C25",
"N  c #5C3823",
"B  c #483B3B",
"V  c #57383A",
"C  c #642525",
"Z  c #712326",
"A  c #7A3635",
"S  c #3E403D",
"D  c #61421A",
"F  c #784A13",
"G  c #454A25",
"H  c #45482A",
"J  c #48492B",
"K  c #554827",
"L  c #554839",
"P  c #4F5230",
"I  c #64482C",
"U  c #724D2D",
"Y  c #755834",
"T  c #5D6734",
"R  c #6A753E",
"E  c #6E793E",
"W  c #72743B",
"Q  c #2A3A45",
"!  c #383D43",
"~  c #38444B",
"^  c #2E4550",
"/  c #364752",
"(  c #3E4B54",
")  c #3C4D58",
"_  c #3B5463",
"`  c #395665",
"'  c #464848",
"]  c #504D46",
"[  c #4D564A",
"{  c #54544B",
"}  c #454D54",
"|  c #4C4C50",
" . c #5B4C54",
".. c #465559",
"X. c #58595C",
"o. c #6F5853",
"O. c #695B57",
"+. c #596246",
"@. c #5C6756",
"#. c #656C4E",
"$. c #727D43",
"%. c #656657",
"&. c #746556",
"*. c #6E7054",
"=. c #475864",
"-. c #425C6B",
";. c #515C63",
":. c #515F68",
">. c #47616E",
",. c #5A6164",
"<. c #55636C",
"1. c #5C656E",
"2. c #466374",
"3. c #4A6574",
"4. c #4B6978",
"5. c #586A75",
"6. c #546D7A",
"7. c #5B727D",
"8. c #6B6465",
"9. c #796766",
"0. c #7A716F",
"q. c #6D6F72",
"w. c #62767E",
"e. c #813B1E",
"r. c #882E32",
"t. c #8E3838",
"y. c #923739",
"u. c #825218",
"i. c #904E32",
"p. c #9B563B",
"a. c #84612F",
"s. c #936633",
"d. c #925652",
"f. c #A05F44",
"g. c #8C7251",
"h. c #A76F47",
"j. c #847672",
"k. c #A56B65",
"l. c #758143",
"z. c #7C8946",
"x. c #7D8A4A",
"c. c #808E4A",
"v. c #85934D",
"b. c #89964E",
"n. c #889751",
"m. c #8D9B52",
"M. c #93A355",
"N. c #9CAC5A",
"B. c #A3B35E",
"V. c #A8B15F",
"C. c #888479",
"Z. c #99947E",
"A. c #BE8F60",
"S. c #A7B861",
"D. c #AABC63",
"F. c #AEC066",
"G. c #B1C367",
"H. c #B4C669",
"J. c #B6C96A",
"K. c #BACE6D",
"L. c #BED26F",
"P. c #BFD370",
"I. c #C0D470",
"U. c #5A7786",
"Y. c #5F7F90",
"T. c #637985",
"R. c #6B7E89",
"E. c #727D85",
"W. c #5F808C",
"Q. c #6C838E",
"!. c #76838C",
"~. c #688694",
"^. c #718692",
"/. c #728993",
"(. c #7B8B95",
"). c #7D8E99",
"_. c #78929D",
"`. c #7894A2",
"'. c #7EA0AD",
"]. c #978786",
"[. c #91928E",
"{. c #83939D",
"}. c #A89490",
"|. c #8499A3",
" X c #879AA4",
".X c #929CA4",
"XX c #95A2AA",
"oX c #96A9B3",
"OX c #9BABB4",
"+X c #A9A8A9",
"@X c #B5A8A7",
"#X c #ADB4B1",
"$X c #B7B3B3",
"%X c #C9A49D",
"&X c #C8AEA5",
"*X c #C7B8B6",
"=X c #E5BEB4",
"-X c #CEC3BD",
";X c #EEC9BE",
":X c #A9B8C1",
">X c #B1BDC4",
",X c #B6C3CA",
"<X c #B8C4CB",
"1X c #A2C5D1",
"2X c #B5CAD2",
"3X c #D9CCC7",
"4X c #C5D1D7",
"5X c #CAD4DA",
"6X c #CBD6DB",
"7X c #E8D8D1",
"8X c #EBE3DE",
"9X c #FFE5DA",
"0X c #D5DEE2",
"qX c #DCE6EA",
"wX c #FFEDE5",
"eX c #FFF1E8",
"rX c #FFFEFA",
/* pixels */
"I.I.I.I.I.I.I.I.I.I.I.I.I.I.I.I.I.I.I.I.I.I.I.I.I.I.I.I.I.I.I.I.I.I.I.I.I.I.I.I.I.I.I.I.I.I.I.I.",
"I.I.I.I.I.I.I.I.I.I.I.I.I.I.I.I.I.I.I.I.I.I.I.I.I.I.I.I.I.I.I.I.I.I.I.I.I.I.I.I.I.I.I.I.I.I.I.I.",
"I.I.I.I.I.I.I.I.I.I.I.I.I.I.I.I.I.I.I.I.I.I.I.I.I.I.I.I.I.I.I.I.I.I.I.I.I.I.I.I.I.I.I.I.I.I.I.I.",
"I.I.I.I.I.I.I.I.I.I.I.I.I.I.I.I.I.I.I.I.I.I.I.P.L.L.L.L.P.I.I.I.I.I.I.I.I.I.I.I.I.I.I.I.I.I.I.I.",
"I.I.I.I.I.I.I.I.I.I.I.I.I.I.I.I.I.I.I.I.I.I.I.L.L.L.L.L.L.I.I.I.I.I.I.I.I.I.I.I.I.I.I.I.I.I.I.I.",
"I.I.I.I.I.I.I.I.I.I.I.I.I.I.I.I.I.I.I.I.I.L.I.I.I.I.I.I.I.I.P.I.I.I.I.I.I.I.I.I.I.I.I.I.I.I.I.I.",
"I.I.I.I.I.I.I.I.I.I.I.I.I.I.I.I.I.I.I.I.I.L.I.I.I.I.I.I.I.L.L.I.I.I.I.I.I.I.I.I.I.I.I.I.I.I.I.I.",
"I.I.I.I.I.I.I.I.I.I.I.I.I.I.I.I.I.I.I.L.I.I.I.S.N.N.N.N.D.I.I.L.L.I.I.I.I.I.I.I.I.I.I.I.I.I.I.I.",
"I.I.I.I.I.I.I.I.I.I.I.I.I.I.I.I.I.I.I.L.I.I.H.R e e e e x.K.P.P.L.I.I.I.I.I.I.I.I.I.I.I.I.I.I.I.",
"I.I.I.I.I.I.I.I.I.I.I.I.I.I.I.I.I.L.P.I.I.B.v.p ~ } ! 9 G m.D.I.I.L.L.I.I.I.I.I.I.I.I.I.I.I.I.I.",
"I.I.I.I.I.I.I.I.I.I.I.I.I.I.I.I.I.L.I.I.J.E 9 / U.T.;.r @ < x.L.I.I.L.I.I.I.I.I.I.I.I.I.I.I.I.I.",
"I.I.I.I.I.I.I.I.I.I.I.I.I.I.I.L.L.I.I.B.v.%.E.6.7.W...2 # } @.n.D.I.I.I.L.I.I.I.I.I.I.I.I.I.I.I.",
"I.I.I.I.I.I.I.I.I.I.I.I.I.I.I.L.I.I.J.E p +X5X|.3.2.~ # p w.<.6 c.L.I.I.L.I.I.I.I.I.I.I.I.I.I.I.",
"I.I.I.I.I.I.I.I.I.I.I.I.I.L.I.I.I.B.c.[ !.4XqX,X(.4.>.1.,.[ } } +.v.B.I.P.I.P.I.I.I.I.I.I.I.I.I.",
"I.I.I.I.I.I.I.I.I.I.I.I.I.L.I.L.J.l.y !.2X4X5X0X:XR./.:X!.5 p T.<.5 v.P.I.P.L.I.I.I.I.I.I.I.I.I.",
"I.I.I.I.I.I.I.I.I.I.I.L.L.L.L.N.x.[ 1.XX2X4X5XqX,X(.|.2X.X/ ..Q.<.5 c.P.I.P.L.I.I.I.I.I.I.I.I.I.",
"I.I.I.I.I.I.I.I.I.I.I.L.I.I.L.z.5 <.|.oXOX<X5X5X>X X|.oX_.2.3.T...7 b.P.I.P.L.I.I.I.I.I.I.I.I.I.",
"I.I.I.I.I.I.I.I.I.L.L.I.I.I.P.c.6 1.|.|.{.OX,X<X#X.X).Q.=.Q ..T.;.7 b.L.L.P.L.I.I.I.I.I.I.I.I.I.",
"I.I.I.I.I.I.I.I.I.I.I.K.J.J.H.z.0 ,./.Q.Q. XOXoXXX{.Q.3.u @ S w.:.: b.I.I.P.L.I.I.I.I.I.I.I.I.I.",
"I.I.I.I.I.I.I.L.L.I.I.S.l.$.$.P 9 ;.Q.Q.R.(.).~.Y.U.U.3.Q @ ' T.;.# m.I.I.P.L.I.I.I.I.I.I.I.I.I.",
"I.I.I.I.I.I.I.I.I.L.H.c.@ i B : # ( T.Q.Q.^.7.) Q / -.2.Q + p 7.<.9 c.H.K.P.L.I.I.I.I.I.I.I.I.I.",
"I.I.I.I.I.L.L.I.I.D.$.G . 0.@XO.X t 6.T.R.~.=.@ X > ! ` Q . 8 4.U.) +.$.B.I.I.P.L.I.I.I.I.I.I.I.",
"I.I.I.I.I.L.L.K.G.v.+ : ] }.@X8.8 Q 4.U.6._ ~ B z & , 1.5.' i Q >.4.( : v.I.I.L.L.I.I.I.I.I.I.I.",
"I.I.I.P.L.I.P.S.$.G   8.$XC.p u -.-.2.U._ o p $X@Xf s }.0X-X&.+ u 6.=.5 v.I.I.L.L.I.I.I.I.I.I.I.",
"I.I.I.L.L.I.I.M.: 9 { [.+X9.7 u ` _ ) _ Q > 9.rXrXk.d.;XrXrX&Xo.! ) [ R N.I.P.P.L.I.I.I.I.I.I.I.",
"I.I.I.L.L.I.I.M.@ 0.*XC.i O.].X.3 3 6 4 q o.%XwXeX;X=X9XwX9X9X7X].y $.G.K.P.L.I.I.I.I.I.I.I.I.I.",
"I.I.I.P.L.I.I.S.l.C.@X0.r O.].&.1 = O   7 ].*X*X*X8X7X*X*X3X8X3XZ.l.B.I.I.P.L.I.I.I.I.I.I.I.I.I.",
"I.I.I.I.I.L.L.K.J.n.p j.}.8.9 I a.M o   6 q.{.E.{.:XOXE.{.,XXX' c.K.L.I.L.I.I.I.I.I.I.I.I.I.I.I.",
"I.I.I.I.I.L.L.I.I.D.l.*.].O.1 x U z % ; q ~ ` 4.Y.`.`.~.~.Q.| = l.D.K.I.I.I.I.I.I.I.I.I.I.I.I.I.",
"I.I.I.I.I.I.I.I.I.L.J.v.q Y a.K > ; h j g > t 3.R.U.`.OX/.u 1 m N P M.I.I.P.L.I.I.I.I.I.I.I.I.I.",
"I.I.I.I.I.I.I.L.L.I.I.D.l.W Y L u  .d.A d % > ' X. .8.].9.n a m V ! #.N.G.P.L.I.P.I.I.I.I.I.I.I.",
"I.I.I.I.I.I.I.I.I.I.P.L.K.v.0 ' T.OX.X| X * a k z m C C A t.C > ~ 5.X.H M.I.I.L.L.I.I.I.I.I.I.I.",
"I.I.I.I.I.I.I.I.I.L.L.I.I.v.$ ..|.1X'.^ . % a a s j j h b r.g + .._.1.5 c.I.I.L.L.I.I.I.I.I.I.I.",
"I.I.I.I.I.I.I.I.I.L.P.I.I.v.: ..Q._.7.u @ * a g Z r.y.t.r.Z d @ } T.;.: m.I.I.L.L.I.I.I.I.I.I.I.",
"I.I.I.I.I.I.I.I.I.P.I.L.L.B.b.+.} ( ' M l l c c e.p.f.f.p.i.N < t } #.m.D.I.P.P.L.I.I.I.I.I.I.I.",
"I.I.I.I.I.I.I.I.I.I.I.L.I.I.L.c.: $ 2 D u.u.F F u.s.s.s.h.A.g.0 O # n.L.I.P.L.I.I.I.I.I.I.I.I.I.",
"I.I.I.I.I.I.I.I.I.I.I.L.I.I.I.D.b.G > L &.#.%.*.*.Y v v g.$X[.0 T m.D.I.I.I.P.I.I.I.I.I.I.I.I.I.",
"I.I.I.I.I.I.I.I.I.I.I.I.I.L.I.I.L.z.7 ( 3.-.2.U.1.n & & o.OX(.9 c.L.I.P.L.I.I.I.I.I.I.I.I.I.I.I.",
"I.I.I.I.I.I.I.I.I.I.I.I.I.L.L.I.I.D.m.#.~ ' ] { B 1 X X L 9.O.r b.I.I.L.L.I.I.I.I.I.I.I.I.I.I.I.",
"I.I.I.I.I.I.I.I.I.I.I.I.I.I.I.L.P.I.K.$.> - k a - e w $ , m g : x.L.P.I.L.I.I.I.I.I.I.I.I.I.I.I.",
"I.I.I.I.I.I.I.I.I.I.I.I.I.I.I.L.L.I.L.R > a a - G M.m.6 d h g : l.K.P.I.L.I.I.I.I.I.I.I.I.I.I.I.",
"I.I.I.I.I.I.I.I.I.I.I.I.I.I.I.L.I.L.J.x.H K K J x.P.J.R K U I H n.L.I.I.L.I.I.I.I.I.I.I.I.I.I.I.",
"I.I.I.I.I.I.I.I.I.I.I.I.I.I.I.P.I.P.L.D.B.B.B.B.D.I.I.D.V.V.V.B.F.L.I.I.P.I.I.I.I.I.I.I.I.I.I.I.",
"I.I.I.I.I.I.I.I.I.I.I.I.I.I.I.I.I.I.I.I.I.I.I.I.I.L.I.I.I.I.I.I.I.I.I.I.I.I.I.I.I.I.I.I.I.I.I.I.",
"I.I.I.I.I.I.I.I.I.I.I.I.I.I.I.I.I.I.I.I.I.I.I.I.I.I.I.I.I.I.I.I.I.I.I.I.I.I.I.I.I.I.I.I.I.I.I.I.",
"I.I.I.I.I.I.I.I.I.I.I.I.I.I.I.I.I.I.I.L.L.L.L.L.L.I.I.L.L.L.L.L.L.I.I.I.I.I.I.I.I.I.I.I.I.I.I.I.",
"I.I.I.I.I.I.I.I.I.I.I.I.I.I.I.I.I.I.I.I.P.I.I.P.P.I.I.P.I.I.I.P.I.I.I.I.I.I.I.I.I.I.I.I.I.I.I.I.",
"I.I.I.I.I.I.I.I.I.I.I.I.I.I.I.I.I.I.I.I.I.I.I.I.I.I.I.I.I.I.I.I.I.I.I.I.I.I.I.I.I.I.I.I.I.I.I.I."
};
