/* XPM */
static char *a1c33ad5788a42e7af9b31b87589d071Z0uB21JtwyrE4WFo[] = {
/* columns rows colors chars-per-pixel */
"48 48 213 2 ",
"   c #080405",
".  c #160706",
"X  c #0F1312",
"o  c #171616",
"O  c #1B1414",
"+  c #1D1B1B",
"@  c #280F07",
"#  c #360503",
"$  c #29100A",
"%  c #38160C",
"&  c #271816",
"*  c #231D1C",
"=  c #351A17",
"-  c #1E211C",
";  c #37210C",
":  c #23221C",
">  c #2A261A",
",  c #372215",
"<  c #30351F",
"1  c #171C24",
"2  c #1C242C",
"3  c #262222",
"4  c #212726",
"5  c #2A2525",
"6  c #2B2B25",
"7  c #2C282A",
"8  c #342A28",
"9  c #2A3626",
"0  c #313521",
"q  c #363529",
"w  c #252F38",
"e  c #302F31",
"r  c #283537",
"t  c #373737",
"y  c #481802",
"u  c #56110D",
"i  c #451915",
"p  c #591714",
"a  c #5B1C1A",
"s  c #6B1818",
"d  c #771B1E",
"f  c #4A2219",
"g  c #572417",
"h  c #4F3110",
"j  c #75330A",
"k  c #6C3618",
"l  c #4D1F22",
"z  c #671A21",
"x  c #492724",
"c  c #5F2C27",
"v  c #543B28",
"b  c #483B3B",
"n  c #632424",
"m  c #712326",
"M  c #703432",
"N  c #784D18",
"B  c #464927",
"V  c #554927",
"C  c #46512A",
"Z  c #4E4D3B",
"A  c #6C4D2D",
"S  c #785931",
"D  c #4E673A",
"F  c #576C38",
"G  c #59733C",
"H  c #6D6938",
"J  c #63743B",
"K  c #6A7A3E",
"L  c #273A46",
"P  c #2E3A42",
"I  c #353C45",
"U  c #393E44",
"Y  c #3A454A",
"T  c #3A4B55",
"R  c #3E5259",
"E  c #3A5363",
"W  c #3B5768",
"Q  c #3E606E",
"!  c #464849",
"~  c #544D4C",
"^  c #495349",
"/  c #54564A",
"(  c #474D53",
")  c #495559",
"_  c #59595B",
"`  c #73594C",
"'  c #695A57",
"]  c #5E694A",
"[  c #697949",
"{  c #727D44",
"}  c #6D6757",
"|  c #72735C",
" . c #465965",
".. c #525D64",
"X. c #515F68",
"o. c #48606E",
"O. c #55636C",
"+. c #5C646B",
"@. c #456172",
"#. c #4B6675",
"$. c #4B6A79",
"%. c #576B76",
"&. c #59727E",
"*. c #6B6465",
"=. c #786565",
"-. c #7A716F",
";. c #61757D",
":. c #767070",
">. c #882D31",
",. c #8F3738",
"<. c #825419",
"1. c #895D29",
"2. c #945137",
"3. c #A05A3E",
"4. c #926633",
"5. c #A27233",
"6. c #925955",
"7. c #A05F44",
"8. c #A86F47",
"9. c #8C7764",
"0. c #A56B65",
"q. c #6D813F",
"w. c #608146",
"e. c #6D8141",
"r. c #648548",
"t. c #6A8E4D",
"y. c #728443",
"u. c #758A46",
"i. c #798A46",
"p. c #7C8A4A",
"a. c #7C924A",
"s. c #769F57",
"d. c #77A057",
"f. c #78A158",
"g. c #85934E",
"h. c #89974E",
"j. c #88964F",
"k. c #899C52",
"l. c #8BA555",
"z. c #8CA654",
"x. c #93A355",
"c. c #93AE59",
"v. c #95B15A",
"b. c #9AB65D",
"n. c #9DB95F",
"m. c #A3B15E",
"M. c #A8B15F",
"N. c #88857A",
"B. c #958F7C",
"V. c #BF9163",
"C. c #9BB860",
"Z. c #A6B761",
"A. c #A2BE61",
"S. c #AABC63",
"D. c #A4C263",
"F. c #ADC065",
"G. c #B5C86A",
"H. c #BACE6D",
"J. c #BED26F",
"K. c #BFD370",
"L. c #C0D470",
"P. c #5B7888",
"I. c #5F7F90",
"U. c #617681",
"Y. c #627A87",
"T. c #6A7E89",
"R. c #727E85",
"E. c #6B828D",
"W. c #76838C",
"Q. c #688694",
"!. c #778B96",
"~. c #7B909B",
"^. c #7B98A4",
"/. c #988887",
"(. c #978E8A",
"). c #818E97",
"_. c #83939C",
"`. c #A89490",
"'. c #8699A3",
"]. c #929EA6",
"[. c #8EA4AF",
"{. c #96A3AC",
"}. c #99ABB5",
"|. c #9BB2BD",
" X c #A9A8A9",
".X c #B5A8A7",
"XX c #ADB4B2",
"oX c #B7B3B3",
"OX c #C9A39D",
"+X c #C8AEA5",
"@X c #C7B9B6",
"#X c #E5BEB4",
"$X c #B0DFBD",
"%X c #B1E0BE",
"&X c #CEC3BD",
"*X c #EEC9BE",
"=X c #A9B8C1",
"-X c #B1BDC4",
";X c #9BD4C3",
":X c #B6C4CB",
">X c #A0C4D1",
",X c #B6CBD4",
"<X c #C5D1D7",
"1X c #CBD6DB",
"2X c #D1D0D0",
"3X c #E8D8D1",
"4X c #EBE3DE",
"5X c #FFE5DA",
"6X c #D5DEE2",
"7X c #DBE6EA",
"8X c #FFEDE5",
"9X c #FFF1E8",
"0X c #FFFEFA",
/* pixels */
"f.f.f.f.f.f.f.f.f.f.f.f.f.f.f.f.f.f.f.f.f.f.f.f.%X%X%X%X%X%X%X%X;X;X;X;X;X;X;X;X;X;X;X;X;X;X;X;X",
"f.f.f.f.f.f.f.f.f.f.f.f.f.f.f.f.f.f.f.f.f.f.f.f.%X%X%X%X%X%X%X%X;X;X;X;X;X;X;X;X;X;X;X;X;X;X;X;X",
"f.f.f.f.f.f.f.f.f.f.f.f.f.f.f.f.f.f.f.f.f.f.f.f.%X%X%X%X%X%X%X%X;X;X;X;X;X;X;X;X;X;X;X;X;X;X;X;X",
"f.f.f.f.f.f.f.f.f.f.f.f.f.f.f.f.f.f.f.f.f.f.f.f.$X$X$X$X$X%X%X%X;X;X;X;X;X;X;X;X;X;X;X;X;X;X;X;X",
"D.D.D.D.D.D.D.D.D.D.D.D.f.f.f.f.f.f.f.f.f.f.f.d.s.s.s.s.d.f.f.f.f.f.f.f.;X;X;X;X;X;X;X;X;X;X;X;X",
"D.D.D.D.D.D.D.D.D.D.D.D.f.f.f.f.f.f.f.f.f.d.f.f.f.f.f.f.f.f.f.f.f.f.f.f.;X;X;X;X;X;X;X;X;X;X;X;X",
"D.D.D.D.D.D.D.D.D.D.D.D.f.f.f.f.f.f.f.f.f.d.f.f.f.f.f.f.f.d.d.f.f.f.f.f.;X;X;X;X;X;X;X;X;X;X;X;X",
"D.D.D.D.D.D.D.D.D.D.D.D.f.f.f.f.f.f.f.s.f.f.f.t.w.w.w.w.t.f.f.d.s.f.f.f.;X;X;X;X;X;X;X;X;X;X;X;X",
"D.D.D.D.D.D.D.D.D.D.D.D.D.D.D.D.D.D.D.A.D.D.b.F 0 < 0 0 D s.f.f.s.f.f.f.f.f.f.f.;X;X;X;X;X;X;X;X",
"D.D.D.D.D.D.D.D.D.D.D.D.D.D.D.D.D.A.D.D.D.z.y.e Y ( U 7 0 G t.f.f.f.s.f.f.f.f.f.;X;X;X;X;X;X;X;X",
"D.D.D.D.D.D.D.D.D.D.D.D.D.D.D.D.D.A.D.D.b.F 6 T &.Y...e O * D s.f.f.s.f.f.f.f.f.;X;X;X;X;X;X;X;X",
"D.D.D.D.D.D.D.D.D.D.D.D.D.D.D.A.D.D.D.z.y.} R.%.&.I.) > + ( ) G t.f.f.f.f.f.f.f.;X;X;X;X;X;X;X;X",
"D.D.D.D.D.D.D.D.D.D.D.D.D.D.D.D.D.D.n.G t  X1X'.#.@.Y + t ;.O.5 e.A.D.D.s.f.f.f.f.f.f.f.;X;X;X;X",
"D.D.D.D.D.D.D.D.D.D.D.D.D.D.D.D.D.z.e.^ W.<X7X:X!.#.o.+.+.^ ! ( / i.z.D.f.f.f.f.f.f.f.f.;X;X;X;X",
"D.D.D.D.D.D.D.D.D.D.D.D.D.D.D.D.n.J e W.,X<X1X6X=XT.!.|.W.3 t U.O.3 y.D.f.f.d.f.f.f.f.f.;X;X;X;X",
"D.D.D.D.D.D.D.D.D.D.D.D.D.A.A.l.{ ^ +.[.,X<X1X7X:X!.'.,X].T R E.O.3 e.D.f.f.s.f.f.f.f.f.;X;X;X;X",
"D.D.D.D.L.L.L.L.D.D.D.D.D.D.D.K 3 O.'.[.}.:X1X1X-X'.'.{.~.@.#.U.) 6 i.D.f.f.d.f.f.f.f.f.;X;X;X;X",
"D.D.D.D.L.L.L.L.D.D.A.D.D.D.D.e.5 +.'.^._.|.:X:XXX].~.E. .P ) U...6 u.A.d.f.d.f.f.f.f.f.;X;X;X;X",
"D.D.D.D.L.L.L.L.D.D.D.A.n.n.b.K 6 ..!.E.E.'.}.}.[._.E.#.r O t ;.X.* i.D.f.f.d.f.f.f.f.f.;X;X;X;X",
"D.D.D.D.L.L.L.J.A.D.D.c.J J J C 6 ..E.E.T.!.~.Q.I.P.P.#.P O ! U...+ a.D.f.f.s.f.f.f.f.f.;X;X;X;X",
"L.L.L.L.L.L.L.L.L.J.G.g.O e b * + T Y.E.E.E.&.T L T  .@.P o t &.O.7 e.b.s.f.f.f.f.f.f.f.;X;X;X;X",
"L.L.L.L.L.J.J.L.L.S.{ B   :..X' . w %.Y.T.Q. .O . & I E L   4 #.P.R Z J r.f.f.f.d.f.f.f.;X;X;X;X",
"L.L.L.L.J.J.J.H.G.g.O * ~ `..X*.4 L $.P.%.E Y b f # = +.%.! e L Q $.T * F f.f.d.s.f.f.f.;X;X;X;X",
"L.L.L.K.J.J.J.Z.{ B   *.oXN.t P  .o.#.P.E X t oX.Xp u `.6X&X=.X r $. .3 F f.f.d.s.f.f.f.;X;X;X;X",
"L.L.L.J.J.L.L.x.* 7 / (. X=.5 r E E T E I & =.0X0X0.6.*X0X0X+X' U T ^ F k.D.D.D.d.f.f.f.f.f.f.f.",
"L.L.L.J.J.L.L.x.O -.@XN.e ' /._ 1 1 1 1 e ` OX8X9X*X#X5X8X5X5X3X/.e J v.n.D.D.D.f.f.f.f.f.f.f.f.",
"L.L.L.K.J.L.L.Z.y.N..X-.q ' /.' ; ; ; . 5 /.@X@X@X4X3X@X@X2X4X2XB.J l.D.D.D.D.D.f.f.f.f.f.f.f.f.",
"L.L.L.L.L.J.J.H.G.j.t 9.`.*.7 v 1.1.k @ 2 %.~.R.).=X}.R._.:X{.! e.n.D.D.D.D.D.D.f.f.f.f.f.f.f.f.",
"L.L.L.L.L.J.J.L.L.S.y.| /.' , N 5.1.v , 8 I  .$.I.^.^.Q.Q.E.( @ J c.C.A.A.D.D.D.f.f.f.f.f.f.f.f.",
"L.L.L.L.L.L.L.L.L.J.G.g.e A 1.5.N h : l a = r #.Y.P.^.|.!.r = g v C a.A.D.D.D.D.f.f.f.f.f.f.f.f.",
"L.L.L.L.L.L.L.J.J.L.K.S.y.H S N h @ $ z s $ + ! _ ~ *./.=.x f n x & y.D.D.D.D.D.f.f.f.f.f.f.f.f.",
"L.L.L.L.L.L.L.L.K.J.K.J.H.g.: : > f s d n = o = g n n n M ,.M , O O i.D.D.D.D.D.f.f.f.f.f.f.f.f.",
"D.D.D.D.L.L.L.L.L.J.J.L.L.x.- 2 Y =.6.M = & & % u d d s d >.c : 9 ! [ k.v.D.D.D.D.D.D.D.f.f.f.f.",
"D.D.D.D.L.L.L.L.L.J.K.L.L.j.: Y T.|.].( . @ i a m >.,.,.>.m i O T &.) 0 a.D.D.D.D.D.D.D.f.f.f.f.",
"D.D.D.D.L.L.L.L.L.J.K.K.J.p.3 ) ^.>X^.Y . y j j >.2.7.7.3.2.g & ) !.+.3 q.D.D.D.D.D.D.D.f.f.f.f.",
"D.D.D.D.L.L.L.L.L.J.K.L.K.j.* ( E.!.%.w & k <.N N 4.4.4.8.V.` & Y U...* a.D.D.D.D.D.D.D.f.f.f.f.",
"L.L.L.L.L.L.L.L.L.K.L.J.L.S.k.] ! ! U I Y / } | } S N k 9.oXN.6 1 Y ] a.c.D.D.D.D.D.D.D.f.f.f.f.",
"L.L.L.L.L.L.L.L.L.L.L.J.L.L.K.g.> > q R @.W @.P.+.x # # ' {.!.8 . : i.D.D.D.D.D.D.D.D.D.f.f.f.f.",
"L.L.L.L.L.L.L.L.L.L.L.K.L.L.L.S.x.x.x.[ Y Y ! ~ b , . . Z =.' q F a.v.D.D.D.D.D.D.D.D.D.f.f.f.f.",
"L.L.L.L.L.L.L.L.L.L.L.L.L.K.J.K.L.L.H.y.& % y y % q 9 + = z a * e.D.D.D.A.D.D.D.D.D.D.D.f.f.f.f.",
"L.L.L.L.L.L.L.L.L.L.L.L.L.K.J.L.L.L.J.K & y y % B x.k.4 i s a * p.L.L.J.A.D.D.D.f.f.f.f.f.f.f.f.",
"L.L.L.L.L.L.L.L.L.L.L.L.L.L.L.J.J.J.G.p.B V V B p.K.H.K V A A B g.H.J.L.D.D.D.D.f.f.f.f.f.f.f.f.",
"L.L.L.L.L.L.L.L.L.L.L.L.L.L.L.J.J.J.J.S.m.m.m.m.S.L.L.S.M.M.M.m.F.J.K.L.D.D.D.D.f.f.f.f.f.f.f.f.",
"L.L.L.L.L.L.L.L.L.L.L.L.L.L.L.L.L.L.L.L.L.L.L.L.L.J.L.L.L.L.L.L.L.L.L.L.D.D.D.D.f.f.f.f.f.f.f.f.",
"L.L.L.L.L.L.L.L.L.L.L.L.L.L.L.L.L.L.L.L.L.L.L.L.L.L.L.L.L.L.L.L.D.D.D.D.D.D.D.D.f.f.f.f.f.f.f.f.",
"L.L.L.L.L.L.L.L.L.L.L.L.L.L.L.L.L.L.L.J.J.J.J.J.J.L.L.J.J.J.J.J.D.D.D.D.D.D.D.D.f.f.f.f.f.f.f.f.",
"L.L.L.L.L.L.L.L.L.L.L.L.L.L.L.L.L.L.L.L.K.L.L.K.K.L.L.K.L.L.L.K.D.D.D.D.D.D.D.D.f.f.f.f.f.f.f.f.",
"L.L.L.L.L.L.L.L.L.L.L.L.L.L.L.L.L.L.L.L.L.L.L.L.L.L.L.L.L.L.L.L.D.D.D.D.D.D.D.D.f.f.f.f.f.f.f.f."
};
