/* XPM */
static char *_b78ee56d22b48828eecdef6c7862736ztG8Fy8DfLP00N7e[] = {
/* columns rows colors chars-per-pixel */
"48 48 221 2 ",
"   c #080405",
".  c #160706",
"X  c #101412",
"o  c #171616",
"O  c #1B1414",
"+  c #1D1B1B",
"@  c #280F07",
"#  c #340200",
"$  c #3E0E0A",
"%  c #261506",
"&  c #38160C",
"*  c #2F0812",
"=  c #271816",
"-  c #231C1C",
";  c #351A17",
":  c #1E211C",
">  c #37210C",
",  c #24221B",
"<  c #2A251B",
"1  c #372215",
"2  c #30331C",
"3  c #171C24",
"4  c #1C242C",
"5  c #262222",
"6  c #2A2525",
"7  c #262825",
"8  c #2C2A29",
"9  c #332B28",
"0  c #2B362A",
"q  c #373923",
"w  c #363529",
"e  c #252F38",
"r  c #302F31",
"t  c #273439",
"y  c #383837",
"u  c #481802",
"i  c #56110D",
"p  c #451915",
"a  c #591714",
"s  c #5B1C1A",
"d  c #6B1818",
"f  c #771B1E",
"g  c #4A2219",
"h  c #572417",
"j  c #4F3211",
"k  c #75330A",
"l  c #683B17",
"z  c #6F3318",
"x  c #4D1F22",
"c  c #671A21",
"v  c #492724",
"b  c #5F2C27",
"n  c #553D29",
"m  c #483B3B",
"M  c #632424",
"N  c #712326",
"B  c #703432",
"V  c #37421E",
"C  c #3A4620",
"Z  c #784D18",
"A  c #474829",
"S  c #554927",
"D  c #4C5034",
"F  c #6C4D2D",
"G  c #785931",
"H  c #5B6A38",
"J  c #63733B",
"K  c #6F733C",
"L  c #6B793E",
"P  c #273A46",
"I  c #2E3A42",
"U  c #353C45",
"Y  c #393E44",
"T  c #3A464B",
"R  c #3A4B55",
"E  c #3A5363",
"W  c #3B5768",
"Q  c #3E606E",
"!  c #464848",
"~  c #4B5449",
"^  c #535849",
"/  c #474D53",
"(  c #574D52",
")  c #48555A",
"_  c #5A5A5B",
"`  c #74594C",
"'  c #685A57",
"]  c #5C6756",
"[  c #6A6958",
"{  c #6E7152",
"}  c #465965",
"|  c #525D64",
" . c #515F68",
".. c #48606E",
"X. c #5A6164",
"o. c #55636C",
"O. c #5C656E",
"+. c #456172",
"@. c #4B6675",
"#. c #4B6A79",
"$. c #576B76",
"%. c #5C737E",
"&. c #6B6465",
"*. c #786565",
"=. c #7A716F",
"-. c #62767E",
";. c #767070",
":. c #882D31",
">. c #8E3737",
",. c #923739",
"<. c #825419",
"1. c #895D29",
"2. c #945137",
"3. c #A05A3E",
"4. c #8A642C",
"5. c #97672C",
"6. c #926633",
"7. c #A27233",
"8. c #925955",
"9. c #A05F44",
"0. c #937856",
"q. c #A86F47",
"w. c #837A76",
"e. c #A56B65",
"r. c #6D813F",
"t. c #6D8141",
"y. c #698B4D",
"u. c #728543",
"i. c #748945",
"p. c #788A47",
"a. c #7C8A4A",
"s. c #7C934A",
"d. c #798452",
"f. c #779F57",
"g. c #77A057",
"h. c #77A058",
"j. c #78A158",
"k. c #808D4A",
"l. c #84924D",
"z. c #89974E",
"x. c #869F50",
"c. c #8C9A51",
"v. c #909F54",
"b. c #8CA654",
"n. c #93A255",
"m. c #91AB57",
"M. c #93AD59",
"N. c #9AAA59",
"B. c #96B15A",
"V. c #9AB65D",
"C. c #9DBA5F",
"Z. c #A3B25E",
"A. c #A8B15F",
"S. c #87857A",
"D. c #958F7C",
"F. c #BF9163",
"G. c #9FBC60",
"H. c #A6B760",
"J. c #A1BF61",
"K. c #ABBD64",
"L. c #A4C263",
"P. c #AFC166",
"I. c #B4C76A",
"U. c #B6C96B",
"Y. c #BACD6D",
"T. c #BED26F",
"R. c #BFD370",
"E. c #C0D470",
"W. c #5A7786",
"Q. c #5F7F90",
"!. c #627681",
"~. c #627A87",
"^. c #6A7E89",
"/. c #727E85",
"(. c #5F808C",
"). c #6B828D",
"_. c #76838C",
"`. c #688694",
"'. c #778B96",
"]. c #7B909B",
"[. c #7A98A5",
"{. c #988887",
"}. c #958D8A",
"|. c #818E97",
" X c #83939D",
".X c #A79490",
"XX c #8499A3",
"oX c #8899A3",
"OX c #929EA6",
"+X c #8DA1AD",
"@X c #96A3AC",
"#X c #98AAB4",
"$X c #9BB2BD",
"%X c #A9A8A9",
"&X c #B5A8A7",
"*X c #ADB4B2",
"=X c #B9B4B3",
"-X c #C9A39D",
";X c #C8AEA5",
":X c #C8B9B6",
">X c #E5BEB4",
",X c #CEC3BD",
"<X c #EEC9BE",
"1X c #A9B8C1",
"2X c #B1BDC4",
"3X c #B6C3CA",
"4X c #B8C4CB",
"5X c #A0C4D1",
"6X c #B5CAD2",
"7X c #D9CCC7",
"8X c #C5D1D7",
"9X c #CAD4DA",
"0X c #CBD6DB",
"qX c #E8D8D1",
"wX c #EBE3DE",
"eX c #FFE5DA",
"rX c #D5DEE2",
"tX c #DCE6EA",
"yX c #FFEDE5",
"uX c #FFF1E8",
"iX c #FFFEFA",
/* pixels */
"j.j.j.j.L.L.L.L.L.L.L.L.E.E.E.E.E.E.E.E.E.E.E.E.E.E.E.E.E.E.E.E.E.E.E.E.L.L.L.L.L.L.L.L.j.j.j.j.",
"j.j.j.j.L.L.L.L.L.L.L.L.E.E.E.E.E.E.E.E.E.E.E.E.E.E.E.E.E.E.E.E.E.E.E.E.L.L.L.L.L.L.L.L.j.j.j.j.",
"j.j.j.j.L.L.L.L.L.L.L.L.E.E.E.E.E.E.E.E.E.E.E.E.E.E.E.E.E.E.E.E.E.E.E.E.L.L.L.L.L.L.L.L.j.j.j.j.",
"j.j.j.j.L.L.L.L.L.L.L.L.E.E.E.E.E.E.E.E.E.E.E.R.T.T.T.T.R.E.E.E.E.E.E.E.L.L.L.L.L.L.L.L.j.j.j.j.",
"j.j.j.j.L.L.L.L.L.L.L.L.E.E.E.E.E.E.E.E.E.E.E.T.T.T.T.T.T.E.E.E.E.E.E.E.L.L.L.L.L.L.L.L.j.j.j.j.",
"j.j.j.j.L.L.L.L.L.L.L.L.E.E.E.E.E.E.E.E.E.T.E.E.E.E.E.E.E.E.R.E.E.E.E.E.L.L.L.L.L.L.L.L.j.j.j.j.",
"j.j.j.j.L.L.L.L.L.L.L.L.E.E.E.E.E.E.E.E.E.T.E.E.E.E.E.E.E.T.T.E.E.E.E.E.L.L.L.L.L.L.L.L.j.j.j.j.",
"j.j.j.j.L.L.L.L.L.L.L.L.E.E.E.E.E.E.E.T.E.E.E.H.N.N.N.N.K.E.E.T.T.E.E.E.L.L.L.L.L.L.L.L.j.j.j.j.",
"j.j.j.j.L.L.L.L.L.L.L.L.E.E.E.E.E.E.E.T.E.E.I.L q q q q a.Y.R.R.J.L.L.L.L.L.L.L.L.L.L.L.j.j.j.j.",
"j.j.j.j.L.L.L.L.L.L.L.L.E.E.E.E.E.T.R.E.E.Z.l.y T / Y 8 A c.K.E.L.L.L.L.L.L.L.L.L.L.L.L.j.j.j.j.",
"j.j.j.j.L.L.L.L.L.L.L.L.E.E.E.E.E.T.E.E.U.L 8 R W.~.| w O < a.T.L.L.J.L.L.L.L.L.L.L.L.L.j.j.j.j.",
"j.j.j.j.L.L.L.L.L.L.L.L.E.E.E.T.T.E.E.Z.l.[ /.$.%.(.) 2 + / ] c.m.L.L.L.L.L.L.L.L.L.L.L.j.j.j.j.",
"j.j.j.j.j.j.j.j.L.L.L.L.L.L.L.L.E.E.U.L y %X9XoX@.+.T + y -.o.6 t.J.L.L.L.L.L.L.j.j.j.j.j.j.j.j.",
"j.j.j.j.j.j.j.j.L.L.L.L.L.L.L.L.E.Z.k.^ _.8XtX4X'.$...O.X.~ ! / ^ p.b.L.L.L.L.L.j.j.j.j.j.j.j.j.",
"j.j.j.j.j.j.j.j.L.L.L.L.L.L.L.L.U.u.r _.6X8X9XrX1X^.'.$X_.5 y !.o.5 u.L.L.L.L.L.j.j.j.j.j.j.j.j.",
"j.j.j.j.j.j.j.j.L.L.L.L.L.J.J.b.a.~ O.@X6X8X9XtX4X'.XX6XOXT ) ).o.5 t.L.L.L.L.L.j.j.j.j.j.j.j.j.",
"j.j.j.j.j.j.j.j.L.L.L.L.L.L.L.L 5 o.XX+X#X4X9X9X2XoXXX#X].+.@.!.) 7 p.L.L.L.L.L.j.j.j.j.j.j.j.j.",
"j.j.j.j.j.j.j.j.L.L.J.L.L.L.L.t.6 O.XXXX X$X3X4X*XOX].).} I ) !.| 7 p.J.L.L.L.L.j.j.j.j.j.j.j.j.",
"j.j.j.j.j.j.j.j.L.L.L.J.C.C.V.L 9 X.'.).).oX#X#X+X X).@.t O y -. .- p.L.L.L.L.L.j.j.j.j.j.j.j.j.",
"j.j.j.j.j.j.j.f.J.L.L.m.J J J A 8 | ).).^.'.].`.Q.W.W.@.I O ! !.| + s.L.L.L.L.L.j.j.j.j.j.j.j.j.",
"j.j.j.j.j.j.j.j.L.J.V.t.O r m - + R !.).).).%.R P T } +.I o y %.o.8 t.V.G.L.L.L.j.j.j.j.j.j.j.j.",
"j.j.j.j.j.g.g.j.L.M.J V   ;.&X' . e $.!.^.`.} O . = U E P   7 $.W.R D J b.L.L.L.g.j.j.j.j.j.j.j.",
"j.j.j.j.j.g.g.f.V.u.O - ! .X&X&.7 P #.W.$.E T m g # ; O.$.! r P Q #.R - u.L.L.L.f.j.j.j.j.j.j.j.",
"j.j.j.j.h.j.j.y.J C   &.=XS.y I } +.@.W.E X y *X&Xa i .XrX,X*.X t #.} 5 u.L.L.L.f.j.j.j.j.j.j.j.",
"j.j.j.g.L.L.L.s.- 8 ^ }.%X*.8 t E E R E U = *.iXiXe.8.<XiXiX;X' Y R ~ H x.L.L.L.L.L.L.L.j.j.j.j.",
"j.j.j.g.L.L.L.s.O =.=Xw.r ' {._ 3 3 3 3 r ` -XyXuX<X>XeXyXeXeXqX{.r J B.C.L.L.L.L.L.L.L.j.j.j.j.",
"j.j.j.j.L.L.L.b.J S.&X=.w ' {.' > > > . 6 {.:X:X:XwXqX:X:X7XwX7XD.J b.L.L.L.L.L.L.L.L.L.j.j.j.j.",
"j.j.j.j.L.L.L.J.V.p.y w..X&.8 n 1.1.l % 4 $.]._.|.1X#X/. X4X@X! t.C.L.L.L.L.L.L.L.L.L.L.j.j.j.j.",
"j.j.j.j.L.L.L.L.L.m.J [ {.' 1 Z 7.4.l 1 6 U } #.Q.[.[.`.`.)./ @ u.K.U.T.J.L.L.L.L.L.L.L.j.j.j.j.",
"j.j.j.j.L.L.L.L.L.L.C.u.r F 4.5.<.j , x s ; t @.~.W.[.$X'.t ; h n D v.T.L.L.L.L.L.L.L.L.j.j.j.j.",
"j.j.j.j.L.L.L.L.J.L.L.m.u.K G Z j % * c d * + ! _ ( &.{.*.v g b v = l.E.L.L.L.L.L.L.L.L.j.j.j.j.",
"j.j.j.j.L.L.L.L.L.L.L.L.Y.l.< , < g d f M ; o ; h M M M B >.B 9 O O c.E.L.L.L.L.L.L.L.L.j.j.j.j.",
"j.j.j.j.L.L.L.L.L.J.J.L.E.n.: 4 T *.8.B ; = = $ i f f d f :.b , 0 ! d.N.B.L.L.L.L.L.L.L.j.j.j.j.",
"j.j.j.j.L.L.L.L.L.L.L.L.E.z., T ^.$XOX/ . @ p s N :.,.>.:.N p O R -._ q s.L.L.L.L.L.L.L.j.j.j.j.",
"j.j.j.j.L.L.L.L.L.L.L.L.T.a.5 ) [.5X[.T . u k k z 2.9.9.3.2.h = ) '.O.5 r.L.L.L.L.L.L.L.j.j.j.j.",
"j.j.j.j.L.L.L.L.L.L.L.L.R.z.- / ).'.$.e = l <.Z Z 6.6.6.q.F.` - T !.| - p.L.L.L.L.L.L.L.j.j.j.j.",
"j.j.j.j.L.L.L.L.L.L.L.L.L.b.a.^ ! ! U U T ^ [ { { G l l 0.=XS.8 3 T { n.m.L.L.L.L.L.L.L.j.j.j.j.",
"j.j.j.j.L.L.L.L.L.L.L.L.L.L.L.u.< < w R +.W +.W.O.v # # ' @X'.9 O < c.E.L.L.L.L.L.L.L.L.j.j.j.j.",
"j.j.j.j.L.L.L.L.L.L.L.L.L.L.L.M.n.n.n.{ ! ! ! ( m 1 . . D *.' w J n.P.E.L.L.L.L.L.L.L.L.j.j.j.j.",
"j.j.j.j.L.L.L.L.L.L.L.L.L.L.L.L.E.E.Y.u.= & u u & q 0 + ; c s - l.R.E.T.J.L.L.L.L.L.L.L.j.j.j.j.",
"j.j.j.j.j.j.j.j.L.L.L.L.L.L.L.L.E.E.T.L = u u & A n.c.7 p d s - t.L.L.L.J.L.L.L.L.L.L.L.j.j.j.j.",
"j.j.j.j.j.j.j.j.L.L.L.L.L.L.L.J.T.T.U.a.A S S A a.R.U.L S F F A i.J.L.L.L.L.L.L.L.L.L.L.j.j.j.j.",
"j.j.j.j.j.j.j.j.L.L.L.L.L.L.L.L.T.T.T.K.Z.Z.Z.Z.K.E.E.K.A.A.A.Z.M.L.L.L.L.L.L.L.L.L.L.L.j.j.j.j.",
"j.j.j.j.j.j.j.j.L.L.L.L.L.L.L.L.E.E.E.E.E.E.E.E.E.T.E.E.E.E.E.E.L.L.L.L.L.L.L.L.L.L.L.L.j.j.j.j.",
"j.j.j.j.j.j.j.j.L.L.L.L.L.L.L.L.L.L.L.L.E.E.E.E.E.E.E.E.E.E.E.E.L.L.L.L.L.L.L.L.L.L.L.L.j.j.j.j.",
"j.j.j.j.j.j.j.j.L.L.L.L.L.L.L.L.L.L.L.L.T.T.T.T.T.E.E.T.T.T.T.T.L.L.L.L.L.L.L.L.L.L.L.L.j.j.j.j.",
"j.j.j.j.j.j.j.j.L.L.L.L.L.L.L.L.L.L.L.L.R.E.E.R.R.E.E.R.E.E.E.R.L.L.L.L.L.L.L.L.L.L.L.L.j.j.j.j.",
"j.j.j.j.j.j.j.j.L.L.L.L.L.L.L.L.L.L.L.L.E.E.E.E.E.E.E.E.E.E.E.E.L.L.L.L.L.L.L.L.L.L.L.L.j.j.j.j."
};
