/* XPM */
static char *_108e698ecf04d488ae053d2264ce10ftfShgf9r6R47hZwQ[] = {
/* columns rows colors chars-per-pixel */
"48 48 216 2 ",
"   c #070406",
".  c #180808",
"X  c #131013",
"o  c #1C1514",
"O  c #1B191A",
"+  c #2B0500",
"@  c #340705",
"#  c #291607",
"$  c #37190B",
"%  c #2C0913",
"&  c #231D1C",
"*  c #281918",
"=  c #351C19",
"-  c #1D211C",
";  c #31220E",
":  c #272318",
">  c #2B231C",
",  c #362617",
"<  c #2D311C",
"1  c #091720",
"2  c #131C28",
"3  c #231F20",
"4  c #1D2124",
"5  c #1B222A",
"6  c #1F343F",
"7  c #272221",
"8  c #232726",
"9  c #292424",
"0  c #2C2C24",
"q  c #2D2A29",
"w  c #322823",
"e  c #322D2C",
"r  c #2C3329",
"t  c #363926",
"y  c #2C2E33",
"u  c #28353B",
"i  c #373838",
"p  c #4D0F0B",
"a  c #461707",
"s  c #461915",
"d  c #591817",
"f  c #5A1D1A",
"g  c #6B1A15",
"h  c #681918",
"j  c #5A2C03",
"k  c #452314",
"l  c #4F2F13",
"z  c #63360B",
"x  c #6B2B15",
"c  c #681E22",
"v  c #4A2623",
"b  c #5E2522",
"n  c #4B3A26",
"m  c #443B3B",
"M  c #642526",
"N  c #762527",
"B  c #67352B",
"V  c #733333",
"C  c #3A4324",
"Z  c #3F4826",
"A  c #3E413E",
"S  c #64451A",
"D  c #754716",
"F  c #464929",
"G  c #554927",
"H  c #47453E",
"J  c #4C583E",
"K  c #535133",
"L  c #63482D",
"P  c #774529",
"I  c #7D5728",
"U  c #644D38",
"Y  c #7D5D34",
"T  c #5D6536",
"R  c #696E3A",
"E  c #67763C",
"W  c #2A3943",
"Q  c #333E45",
"!  c #39434A",
"~  c #38454B",
"^  c #344855",
"/  c #364A56",
"(  c #3D4C54",
")  c #3B5767",
"_  c #464947",
"`  c #4F5148",
"'  c #555949",
"]  c #434C53",
"[  c #4B5659",
"{  c #575859",
"}  c #685A55",
"|  c #6B5D5B",
" . c #735857",
".. c #5A6246",
"X. c #5A6253",
"o. c #656C4E",
"O. c #6C7941",
"+. c #696358",
"@. c #756D55",
"#. c #455B67",
"$. c #535D64",
"%. c #585E64",
"&. c #4D606B",
"*. c #57636C",
"=. c #466373",
"-. c #4B6674",
";. c #4B6979",
":. c #556B77",
">. c #5A717C",
",. c #6C6668",
"<. c #776B6A",
"1. c #6D6E74",
"2. c #65747C",
"3. c #852523",
"4. c #832F36",
"5. c #893232",
"6. c #943938",
"7. c #835319",
"8. c #864B2E",
"9. c #91542A",
"0. c #8A632C",
"q. c #96672B",
"w. c #926633",
"e. c #A37334",
"r. c #8D514E",
"t. c #946D56",
"y. c #AB7B48",
"u. c #857773",
"i. c #6E8141",
"p. c #728544",
"a. c #788545",
"s. c #748945",
"d. c #7D8A47",
"f. c #7D8B4A",
"g. c #7B9149",
"h. c #7B8652",
"j. c #779F57",
"k. c #77A057",
"l. c #78A158",
"z. c #818F4B",
"x. c #85934D",
"c. c #89984F",
"v. c #889651",
"b. c #8C9B52",
"n. c #909F54",
"m. c #89A151",
"M. c #8FAA56",
"N. c #93A356",
"B. c #96AB58",
"V. c #93AD59",
"C. c #9AB05C",
"Z. c #9DBA5F",
"A. c #A3B25E",
"S. c #A8B15F",
"D. c #8A847A",
"F. c #BE8F60",
"G. c #A5B660",
"H. c #A2BE61",
"J. c #AABC63",
"K. c #A4C263",
"L. c #AEC066",
"P. c #B2C468",
"I. c #B6C96B",
"U. c #BACE6D",
"Y. c #BED26F",
"T. c #BFD370",
"R. c #C0D470",
"E. c #5C7584",
"W. c #5B7988",
"Q. c #677A85",
"!. c #647A86",
"~. c #737E86",
"^. c #907F81",
"/. c #5F818F",
"(. c #6C838E",
"). c #75828A",
"_. c #6D8491",
"`. c #688694",
"'. c #778A94",
"]. c #7C939E",
"[. c #7B97A4",
"{. c #7FA0AD",
"}. c #928E8A",
"|. c #9B8A88",
" X c #9B9186",
".X c #84949E",
"XX c #889299",
"oX c #A3918E",
"OX c #B39798",
"+X c #8699A3",
"@X c #929CA4",
"#X c #95A4AD",
"$X c #9AABB4",
"%X c #9BB1BC",
"&X c #A8A7A8",
"*X c #B5ADAB",
"=X c #BBB5AA",
"-X c #A7B4BB",
";X c #C49F98",
":X c #CABAB6",
">X c #E1B7AE",
",X c #CFC2BE",
"<X c #EAC4BA",
"1X c #B2BEC4",
"2X c #9EC2CF",
"3X c #B5C3CA",
"4X c #B9C5CC",
"5X c #B4C9D1",
"6X c #C8D3D8",
"7X c #E5D4CD",
"8X c #EDE4DE",
"9X c #FFE6DB",
"0X c #D3DCE0",
"qX c #DDE8EB",
"wX c #FFF4EB",
"eX c #FEFDF9",
/* pixels */
"l.l.l.l.l.l.l.l.l.l.l.l.l.l.l.l.l.l.l.l.l.l.l.l.l.l.l.l.l.l.l.l.l.l.l.l.l.l.l.l.l.l.l.l.l.l.l.l.",
"l.l.l.l.l.l.l.l.l.l.l.l.l.l.l.l.l.l.l.l.l.l.l.l.l.l.l.l.l.l.l.l.l.l.l.l.l.l.l.l.l.l.l.l.l.l.l.l.",
"l.l.l.l.l.l.l.l.l.l.l.l.l.l.l.l.l.l.l.l.l.l.l.k.j.j.j.j.k.l.l.l.l.l.l.l.l.l.l.l.l.l.l.l.l.l.l.l.",
"l.l.l.l.l.l.l.l.l.l.l.l.l.l.l.l.l.l.l.l.l.l.l.l.l.l.l.l.l.l.l.l.l.l.l.l.l.l.l.l.l.l.l.l.l.l.l.l.",
"K.K.K.K.l.l.l.l.l.l.l.l.l.l.l.l.K.K.K.K.K.K.K.K.K.K.K.K.K.K.K.K.K.K.K.K.l.l.l.l.l.l.l.l.K.K.K.K.",
"K.K.K.K.l.l.l.l.l.l.l.l.l.l.l.l.K.K.K.K.K.K.K.M.m.m.m.m.V.K.K.K.K.K.K.K.l.l.l.l.l.l.l.l.K.K.K.K.",
"K.K.K.K.l.l.l.l.l.l.l.l.l.l.l.l.K.K.K.H.K.K.Z.E C t C C i.H.K.K.H.K.K.K.l.l.l.l.l.l.l.l.K.K.K.K.",
"K.K.K.K.l.l.l.l.l.l.l.l.l.l.l.l.K.K.K.K.K.M.s.t ! _ i q Z g.V.K.K.K.K.K.l.l.l.l.l.l.l.l.K.K.K.K.",
"K.K.K.K.K.K.K.K.K.K.K.K.K.K.K.K.K.H.K.K.Z.E r ^ :.!.$.r o < i.K.K.K.H.K.K.K.K.K.K.K.K.K.K.K.K.K.",
"K.K.K.K.K.K.K.K.K.K.K.K.K.K.K.K.K.K.K.M.s.X.1.:.E./.[ < O ] X.g.V.K.K.K.K.K.K.K.K.K.K.K.K.K.K.K.",
"K.K.K.K.K.K.K.K.K.K.K.K.K.K.K.H.K.K.Z.E i &X6X.X-.=.~ o i >.*.0 p.K.K.K.K.K.K.K.K.K.K.K.K.K.K.K.",
"K.K.K.K.K.K.K.K.K.K.K.K.K.K.K.K.K.M.s.` ).6XqX3X'.-.#.%.{ [ ] ] ' f.M.K.K.K.K.K.K.K.K.K.K.K.K.K.",
"K.K.K.K.K.K.K.K.K.K.K.K.K.K.K.K.Z.E q ~.3X6X6X0X-X!._.%X).9 i >.*.3 s.K.K.K.K.K.K.K.K.K.K.K.K.K.",
"K.K.K.K.K.K.K.K.K.K.K.K.K.H.H.m.p.J *.#X5X6X6XqX4X'.+X5X@X! ( (.*.7 i.K.K.K.K.K.K.K.K.K.K.K.K.K.",
"K.K.K.K.K.K.K.K.K.K.K.K.K.K.K.i.7 %.].#X%X4X6X6X1X+X+X$X].=.-.!.[ 7 s.K.K.K.K.K.K.K.K.K.K.K.K.K.",
"K.K.K.K.K.K.K.K.K.K.K.K.K.K.K.i.9 *.+X+X.X-X4X4X-X@X]._.&.Q [ !.$.0 s.H.K.K.K.K.K.K.K.K.K.K.K.K.",
"R.R.R.R.R.R.R.R.K.K.K.H.U.U.I.d.0 *.'._.(.+X%X$X#X.X_.-.u X A 2.$.& s.K.R.T.Y.R.R.R.R.R.R.R.R.R.",
"R.R.R.R.R.R.R.Y.H.K.K.V.f.a.a.T q $.(.(.~.'.].`.`.!.E.=.W o _ !.$.O g.K.R.T.Y.R.R.R.R.R.R.R.R.R.",
"R.R.R.R.R.R.R.T.K.K.Z.i.o e e * & ] !._.(._.E.) ^ ^ #.=.Q o i 2.*.8 i.Z.Y.T.Y.R.R.R.R.R.R.R.R.R.",
"R.R.R.R.R.Y.Y.R.K.V.O.C   <.&X} . u :.!.!.`.#.o . * Q ) 6   8 :.W.( J O.A.R.T.T.Y.R.R.R.R.R.R.R.",
"K.K.K.K.T.Y.Y.U.I.x.o o H oX=X,.4 W ;.E.>.) ~ m s + = *.*.m e ^ =.;.( & x.R.R.Y.Y.R.R.R.K.K.K.K.",
"K.K.K.K.Y.R.T.J.a.K   | *X}.m Q #.#.-.W.) 1 i &XOXd p oX6X:X| X u :.#.7 x.R.R.Y.Y.R.R.R.K.K.K.K.",
"K.K.K.K.Y.R.T.N.& 9 H }.*X<.7 u ) ) ^ ) Q * +.eXeXt.r.<XeXeX;X` i ( ` T B.R.R.T.Y.R.R.R.K.K.K.K.",
"K.K.K.K.Y.R.R.N.o <.=XD.i | |.{ 2 2 5 5 e  .;XwXwX<X>X9XwX9X9X7XD.y O.J.I.T.Y.R.R.R.R.R.K.K.K.K.",
"R.R.R.T.Y.R.R.A.E D.*X<.e |  X} * $ $ . q ^.:X:X,X8X8X,X:X7X8X7X XO.A.R.R.T.Y.R.R.R.R.R.R.R.R.R.",
"R.R.R.R.R.Y.Y.U.P.v.H u. X,.e n I 7.z # 5 >.XX).XX1X-X).XX4X#X{ f.I.Y.R.R.R.R.R.R.R.R.R.R.R.R.R.",
"R.R.R.R.R.Y.Y.R.R.J.E @.oX} ; S e.0.z , w ! #.;.W.[.[.`.`._.[ . a.P.I.Y.Y.R.R.R.R.R.R.R.R.R.R.R.",
"R.R.R.R.R.R.R.R.R.Y.I.z.i U 0.q.7.n > v f = u -.!.W.[.%X_.u = f G T N.Y.Y.T.Y.R.R.R.R.R.R.R.R.R.",
"R.R.R.R.R.R.R.Y.Y.R.R.G.E R Y I l # % c h % O _ %.{ 1.}.<.v k M v * x.R.R.T.Y.R.R.R.R.R.R.R.R.R.",
"R.R.R.R.R.R.R.R.R.R.R.Y.I.x.> > : k h N M = o ; f b M M V 5.B , o o b.R.R.T.Y.R.R.R.R.R.R.R.R.R.",
"R.R.R.R.R.R.R.R.R.Y.Y.R.R.n.- 5 !  .r.V s = = a d N N g 3.6.B : r H h.C.P.R.T.R.T.R.R.R.R.R.R.R.",
"R.R.R.R.R.R.R.R.R.Y.T.R.R.c.9 ! !.$X@X` . # s f N 5.6.6.5.N s o ~ >.{ F N.R.R.Y.Y.R.R.R.R.R.R.R.",
"R.R.R.R.R.R.R.R.R.Y.T.Y.Y.d.9 [ [.2X{.^   + s d M N 4.4.N f @ o [ '.*.9 z.R.R.Y.Y.R.R.R.R.R.R.R.",
"R.R.R.R.R.R.R.R.R.Y.T.R.T.x.& [ (.].>.u o $ a a s h c c M c s o ] !.$.& b.R.R.Y.Y.R.R.R.R.R.R.R.",
"R.R.R.R.R.R.R.R.R.T.R.T.R.G.x...] ( _ n j z j j z P 8.P 8.9.B : y ] o.b.J.R.T.T.Y.R.R.R.R.R.R.R.",
"R.R.R.R.R.R.R.R.R.R.R.Y.R.R.Y.z.& O < S 7.7.D D 7.w.w.w.y.F.t.0 X O c.R.R.T.Y.R.R.R.R.R.R.R.R.R.",
"R.R.R.R.R.R.R.R.R.R.R.Y.R.R.R.J.c.F * K @.o.+.@.@.Y D x t.=X}.e T b.J.R.R.R.T.R.R.R.R.R.R.R.R.R.",
"R.R.R.R.R.R.R.R.R.R.R.R.R.Y.R.R.Y.d.0 ( -.#.=.W.*.v @ @ } $X'.q z.Y.R.T.Y.R.R.R.R.R.R.R.R.R.R.R.",
"R.R.R.R.R.R.R.R.R.R.R.R.R.Y.Y.R.R.J.b.o.~ _ ` ' m = . . H <.| t c.R.R.Y.Y.R.R.R.R.R.R.R.R.R.R.R.",
"R.R.R.R.R.R.R.R.R.R.R.R.R.R.R.Y.T.R.U.O.* $ a a $ t r O = c f & d.Y.T.R.Y.R.R.R.R.R.R.R.R.R.R.R.",
"R.R.R.R.R.R.R.R.R.R.R.R.R.R.R.Y.Y.R.Y.E * a a $ F N.b.8 s g d & a.U.T.R.Y.R.R.R.R.R.R.R.R.R.R.R.",
"R.R.R.R.R.R.R.R.R.R.R.R.R.R.R.Y.R.Y.I.f.F G G F f.T.I.E G P L F v.Y.R.R.Y.R.R.R.R.R.R.R.R.R.R.R.",
"R.R.R.R.R.R.R.R.R.R.R.R.R.R.R.T.R.T.Y.J.A.A.A.A.J.R.R.J.S.S.S.A.L.Y.R.R.T.R.R.R.R.R.R.R.R.R.R.R.",
"R.R.R.R.R.R.R.R.R.R.R.R.R.R.R.R.R.R.R.R.R.R.R.R.R.Y.R.R.R.R.R.R.R.R.R.R.R.R.R.R.R.R.R.R.R.R.R.R.",
"R.R.R.R.R.R.R.R.R.R.R.R.R.R.R.R.R.R.R.R.R.R.R.R.R.R.R.R.R.R.R.R.R.R.R.R.R.R.R.R.R.R.R.R.R.R.R.R.",
"R.R.R.R.R.R.R.R.R.R.R.R.R.R.R.R.R.R.R.Y.Y.Y.Y.Y.Y.R.R.Y.Y.Y.Y.Y.Y.R.R.R.R.R.R.R.R.R.R.R.R.R.R.R.",
"R.R.R.R.R.R.R.R.R.R.R.R.R.R.R.R.R.R.R.R.T.R.R.T.T.R.R.T.R.R.R.T.R.R.R.R.R.R.R.R.R.R.R.R.R.R.R.R.",
"R.R.R.R.R.R.R.R.R.R.R.R.R.R.R.R.R.R.R.R.R.R.R.R.R.R.R.R.R.R.R.R.R.R.R.R.R.R.R.R.R.R.R.R.R.R.R.R."
};
