/* XPM */
static char *_cbc1e2063764eb2dc384bc6ee9957a93VyAqZw3lV9kTwNX[] = {
/* columns rows colors chars-per-pixel */
"48 48 212 2 ",
"   c #050406",
".  c #17090A",
"X  c #0A1218",
"o  c #141012",
"O  c #151214",
"+  c #1C1314",
"@  c #1B191B",
"#  c #2A0C08",
"$  c #330501",
"%  c #28140A",
"&  c #3B190A",
"*  c #3C0F12",
"=  c #281916",
"-  c #231C1C",
";  c #2A1D1B",
":  c #381617",
">  c #19241F",
",  c #2E2515",
"<  c #342419",
"1  c #32351D",
"2  c #161B23",
"3  c #1D2023",
"4  c #262222",
"5  c #272627",
"6  c #2D2B24",
"7  c #2C2A29",
"8  c #362C2A",
"9  c #283223",
"0  c #363924",
"q  c #353328",
"w  c #262F36",
"e  c #302F31",
"r  c #29353B",
"t  c #373736",
"y  c #491809",
"u  c #53110E",
"i  c #441615",
"p  c #581A1A",
"a  c #5B1C1B",
"s  c #691415",
"d  c #731B1E",
"f  c #46200B",
"g  c #5A2F06",
"h  c #4C251C",
"j  c #4F321C",
"k  c #59371B",
"l  c #683011",
"z  c #7E1B21",
"x  c #5E2621",
"c  c #4A3B26",
"v  c #52332A",
"b  c #483B3B",
"n  c #642525",
"m  c #712326",
"M  c #743731",
"N  c #37421E",
"B  c #3B4523",
"V  c #704715",
"C  c #4A492B",
"Z  c #4A582A",
"A  c #534639",
"S  c #425932",
"D  c #74532D",
"F  c #6E5231",
"G  c #4A6538",
"H  c #53713F",
"J  c #62743B",
"K  c #6E7139",
"L  c #69763E",
"P  c #6C7D3F",
"I  c #2A3A45",
"U  c #383D43",
"Y  c #38444A",
"T  c #2E4550",
"R  c #3A4953",
"E  c #3C4D58",
"W  c #3E5655",
"Q  c #3B5463",
"!  c #395665",
"~  c #474847",
"^  c #4D564A",
"/  c #535549",
"(  c #464D53",
")  c #5A4C54",
"_  c #48545A",
"`  c #57595B",
"'  c #6F5853",
"]  c #695B57",
"[  c #586648",
"{  c #5B7B43",
"}  c #5C6756",
"|  c #736B4F",
" . c #727E43",
".. c #646556",
"X. c #6C6C56",
"o. c #746259",
"O. c #475864",
"+. c #425C6B",
"@. c #515C63",
"#. c #515F68",
"$. c #47616E",
"%. c #55636C",
"&. c #5B646A",
"*. c #466373",
"=. c #4B6776",
"-. c #566B77",
";. c #5B727D",
":. c #6A6365",
">. c #786766",
",. c #7A716F",
"<. c #6D6F72",
"1. c #62767E",
"2. c #813B1E",
"3. c #882E32",
"4. c #8F3738",
"5. c #825218",
"6. c #975338",
"7. c #83602F",
"8. c #8B6232",
"9. c #936633",
"0. c #925652",
"q. c #A05F44",
"w. c #8C7151",
"e. c #A76F47",
"r. c #837A76",
"t. c #A56B65",
"y. c #6D8241",
"u. c #6A874A",
"i. c #66884B",
"p. c #6A8E4D",
"a. c #738443",
"s. c #758B46",
"d. c #798A4A",
"f. c #7D944D",
"g. c #6C9251",
"h. c #769E56",
"j. c #789F57",
"k. c #77A057",
"l. c #77A058",
"z. c #78A158",
"x. c #808D4A",
"c. c #85934C",
"v. c #89974E",
"b. c #8B9C51",
"n. c #8BA454",
"m. c #95AB58",
"M. c #9AB65D",
"N. c #9DBA5F",
"B. c #A3B45E",
"V. c #8D897A",
"C. c #BE8F60",
"Z. c #9FBC60",
"A. c #A1BF61",
"S. c #A9BB62",
"D. c #A4C263",
"F. c #B6C96A",
"G. c #BED26F",
"H. c #BFD370",
"J. c #C0D470",
"K. c #5A7786",
"L. c #5F7F90",
"P. c #637985",
"I. c #667B87",
"U. c #727D85",
"Y. c #5F808C",
"T. c #6B838E",
"R. c #76838C",
"E. c #688694",
"W. c #788B95",
"Q. c #77919C",
"!. c #7894A2",
"~. c #7EA0AD",
"^. c #978786",
"/. c #90928E",
"(. c #83939D",
"). c #A79490",
"_. c #8499A3",
"`. c #869AA4",
"'. c #929CA4",
"]. c #95A2AA",
"[. c #93AAB6",
"{. c #98AAB4",
"}. c #A9A8A9",
"|. c #B5A8A7",
" X c #ADB4B1",
".X c #B9B4B3",
"XX c #C9A49D",
"oX c #C8AEA5",
"OX c #C8B8B6",
"+X c #E5BEB4",
"@X c #AFDDBC",
"#X c #B1DFBD",
"$X c #B1E0BE",
"%X c #CEC3BD",
"&X c #EEC9BE",
"*X c #A9B8C1",
"=X c #B1BDC4",
"-X c #9BD4C3",
";X c #B7C3CA",
":X c #A1C5D1",
">X c #B5CAD2",
",X c #C5D1D7",
"<X c #CBD6DB",
"1X c #D1D0D0",
"2X c #E8D8D1",
"3X c #EBE3DE",
"4X c #FFE5DA",
"5X c #D5DEE2",
"6X c #DCE6EA",
"7X c #FFEDE5",
"8X c #FFF1E8",
"9X c #FFFEFA",
/* pixels */
"z.z.z.z.z.z.z.z.D.D.D.D.D.D.D.D.D.D.D.D.J.J.J.J.J.J.J.J.J.J.J.J.J.J.J.J.J.J.J.J.J.J.J.J.J.J.J.J.",
"z.z.z.z.z.z.z.z.D.D.D.D.D.D.D.D.D.D.D.D.J.J.J.J.J.J.J.J.J.J.J.J.J.J.J.J.J.J.J.J.J.J.J.J.J.J.J.J.",
"z.z.z.z.z.z.z.z.D.D.D.D.D.D.D.D.D.D.D.D.J.J.J.J.J.J.J.J.J.J.J.J.J.J.J.J.J.J.J.J.J.J.J.J.J.J.J.J.",
"z.z.z.z.z.z.z.z.D.D.D.D.D.D.D.D.D.D.D.D.J.J.J.H.G.G.G.G.H.J.J.J.J.J.J.J.J.J.J.J.J.J.J.J.J.J.J.J.",
"z.z.z.z.z.z.z.z.D.D.D.D.D.D.D.D.J.J.J.J.J.J.J.G.G.G.G.G.G.J.J.J.D.D.D.D.J.J.J.J.J.J.J.J.J.J.J.J.",
"z.z.z.z.z.z.z.z.D.D.D.D.D.D.D.D.J.J.J.J.J.G.J.J.J.J.J.J.J.J.H.J.D.D.D.D.J.J.J.J.J.J.J.J.J.J.J.J.",
"z.z.z.z.z.z.z.z.D.D.D.D.D.D.D.D.J.J.J.J.J.G.J.J.J.J.J.J.J.G.G.J.D.D.D.D.J.J.J.J.J.J.J.J.J.J.J.J.",
"z.z.z.z.z.z.z.z.D.D.D.D.D.D.D.D.J.J.J.G.J.J.J.S.m.m.m.m.S.J.J.G.D.D.D.D.J.J.J.J.J.J.J.J.J.J.J.J.",
"z.z.z.z.D.D.D.D.D.D.D.D.D.D.D.D.D.D.D.A.J.J.F.L 0 0 0 0 d.G.H.H.G.J.J.J.J.J.J.J.J.J.J.J.J.J.J.J.",
"z.z.z.z.D.D.D.D.D.D.D.D.D.D.D.D.D.A.D.D.J.B.c.t Y ( U 7 C b.S.J.J.G.G.J.J.J.J.J.J.J.J.J.J.J.J.J.",
"z.z.z.z.D.D.D.D.D.D.D.D.D.D.D.D.D.A.D.D.F.P 7 R K.I.@.q + , d.G.J.J.G.J.J.J.J.J.J.J.J.J.J.J.J.J.",
"z.z.z.z.D.D.D.D.D.D.D.D.D.D.D.A.D.D.D.n.c...U.-.;.Y._ 1 @ ( } v.S.J.J.J.G.J.J.J.J.J.J.J.J.J.J.J.",
"z.z.z.z.D.D.D.D.D.D.D.D.D.D.D.D.J.J.F.P t }.<X_.=.*.T @ t 1.%.5 x.G.J.J.G.J.J.J.J.J.J.J.D.D.D.D.",
"z.z.z.z.D.D.D.D.D.D.D.D.D.D.D.D.J.B.x.^ R.,X6X;XW.=.$.&.&.^ ( ( [ c.B.J.H.J.H.J.J.J.J.J.D.D.D.D.",
"z.z.z.z.D.D.D.D.D.D.D.D.D.D.D.D.F.a.e R.>X,X<X5X*XI.W.*XR.4 t P.%.4 c.H.J.H.G.J.J.J.J.J.D.D.D.D.",
"z.z.z.z.D.D.D.D.D.D.D.D.D.A.A.n.d./ &.].>X,X<X6X;XW._.>X'.R _ T.%.4 x.H.J.H.G.J.J.J.J.J.D.D.D.D.",
"z.z.z.z.z.z.z.z.D.D.D.D.D.D.D.P 4 %._.[.{.;X<X<X=X`._.{.Q.*.=.P._ 6 v.H.J.H.G.J.J.J.J.J.J.J.J.J.",
"z.z.z.z.z.z.z.z.D.D.A.D.D.D.D.y.5 &.`._.(.{.;X;X X'.W.T.O.I _ P.@.6 v.G.G.H.G.J.J.J.J.J.J.J.J.J.",
"z.z.z.z.z.z.z.z.D.D.D.A.N.N.M.P 6 &.W.T.T.`.{.[.].(.T.=.r + t 1.#.- v.H.J.H.G.J.J.J.J.J.J.J.J.J.",
"z.z.z.z.z.z.z.h.A.D.D.n.J J J Z 7 @.T.T.U.W.Q.E.L.K.K.=.I + ~ P.@.@ b.H.J.H.G.J.J.J.J.J.J.J.J.J.",
"z.z.z.z.z.z.z.z.D.A.M.y.+ e b ; @ R P.T.T.T.;.E I T +.*.I O t ;.%.7 x.F.G.H.G.J.J.J.J.J.J.J.J.J.",
"z.z.z.z.z.k.k.z.D.m.J N   ,.|.] . w -.P.I.E.O.+ . = U ! I   5 =.K.E [  .B.J.J.H.G.J.J.J.J.J.J.J.",
"z.z.z.z.z.k.k.h.M.a.O - ~ ).|.:.5 I =.K.-.Q Y b h $ : &.-.~ e I $.=.E ; c.J.J.G.G.J.J.J.J.J.J.J.",
"z.z.z.z.l.z.z.p.J B   :..XV.t r +.+.*.K.Q X t  X|.p u ).5X%Xo.O r -.O.4 c.J.J.G.G.J.J.J.J.J.J.J.",
"-X-X-X-Xh.z.z.{ - 7 / /.}.>.7 r ! Q E Q I = >.9X9Xt.0.&X9X9XoX' U E ^ L b.D.D.D.G.J.J.J.J.J.J.J.",
"-X-X-X-Xh.z.z.{ + ,..Xr.e ] ^.` 2 2 5 3 8 o.XX7X8X&X+X4X7X4X4X2X^.e  .F.N.D.D.D.J.J.J.J.J.J.J.J.",
"-X-X-X-Xl.z.z.i.J V.|.,.q ] ^.o.< % o   6 ^.OXOXOX3X2XOXOX1X3X1XV.a.B.J.D.D.D.D.J.J.J.J.J.J.J.J.",
"-X-X-X-Xz.k.k.h.M.d.t r.).:.7 F 8.c X   5 <.(.U.(.*X{.U.(.;X].~ x.G.G.J.D.D.D.D.J.J.J.J.J.J.J.J.",
"-X-X-X-Xz.k.k.z.z.p.G ..^.] , k D j # * 8 Y ! =.L.!.!.E.E.T.( # J m.N.D.J.J.J.J.J.J.J.J.J.J.J.J.",
"-X-X-X-Xz.z.z.z.z.j.h.H 8 F 7.C = * s d a = w =.I.K.!.[.T.r < x k C f.D.J.H.G.J.J.J.J.J.J.J.J.J.",
"-X-X-X-Xz.z.z.h.h.z.z.p.L K D A r ) 0.M i # ; ~ ` ) :.^.>.h y x b U [ n.F.H.G.J.H.J.J.J.J.J.J.J.",
"-X-X-X-Xz.z.z.z.z.z.z.k.N.a.6 ~ P.[.'.( . # y f h n n n M 4.n = Y -.` B n.J.J.G.G.J.J.J.J.J.J.J.",
"-X-X-X-Xz.z.z.z.z.h.h.z.D.s.@ _ _.:X~.T   # y y u d d s z 3.a O W Q.&.4 y.D.D.D.D.D.D.D.J.J.J.J.",
"-X-X-X-Xz.z.z.z.z.k.z.z.D.a.- _ T.Q.;.r o # y a m 3.4.4.3.m i + W I.@.- s.D.D.D.D.D.D.D.J.J.J.J.",
"-X-X-X-Xz.z.z.z.z.z.z.h.A.n.s./ ( E ~ c g g g l 2.6.q.q.q.6.k ; w ( [ d.m.D.D.D.D.D.D.D.J.J.J.J.",
"-X-X-X-Xz.z.z.z.z.z.z.h.D.D.A.y.@ @ 1 V 5.5.V V 5.9.9.9.e.C.w.6 o @ d.D.D.D.D.D.D.D.D.D.J.J.J.J.",
"-X-X-X-X-X-X-X-Xz.z.z.l.z.l.l.p.s.B ; A | | ..X.| D l l w..X/.7 Z s.m.D.D.D.D.D.D.D.D.D.D.D.D.D.",
"-X-X-X-X-X-X-X-Xz.z.z.z.z.h.z.z.A.P 6 R *.+.*.K.&.v $ $ ' {.W.7 y.D.D.D.D.D.D.D.D.D.D.D.D.D.D.D.",
"-X-X-X-X-X-X-X-Xz.z.z.z.z.h.l.z.D.m.f.[ Y Y ~ / b < . . A >.] q s.D.D.D.A.D.D.D.D.D.D.D.D.D.D.D.",
"-X-X-X-X-X-X-X-Xz.z.z.z.z.z.z.h.D.D.Z.J = & f y & 0 9 @ : a a ; y.A.D.D.D.D.D.D.D.D.D.D.D.D.D.D.",
"-X-X-X-X-X-X-X-X-X-X-X-Xz.z.z.h.k.z.h.S = y y & 1 { { > i s a ; G h.z.z.D.D.D.D.z.z.z.z.z.z.z.z.",
"-X-X-X-X-X-X-X-X-X-X-X-Xz.z.z.h.z.k.h.G 0 c c 0 G l.h.S c M v 0 H h.z.z.D.D.D.D.z.z.z.z.z.z.z.z.",
"-X-X-X-X-X-X-X-X-X-X-X-Xz.z.z.z.z.z.h.p.i.u.u.i.g.z.z.p.u.s.u.i.g.k.z.z.D.D.D.D.z.z.z.z.z.z.z.z.",
"-X-X-X-X-X-X-X-X-X-X-X-Xz.z.z.z.z.z.z.z.z.z.z.z.z.k.z.z.z.z.z.z.z.z.z.z.D.D.D.D.z.z.z.z.z.z.z.z.",
"-X-X-X-X-X-X-X-X-X-X-X-X-X-X-X-X-X-X-X-X$X$X$X$Xz.z.z.z.z.z.z.z.z.z.z.z.z.z.z.z.z.z.z.z.z.z.z.z.",
"-X-X-X-X-X-X-X-X-X-X-X-X-X-X-X-X-X-X-X-X@X@X@X@Xk.z.z.k.h.j.h.h.k.z.z.z.z.z.z.z.z.z.z.z.z.z.z.z.",
"-X-X-X-X-X-X-X-X-X-X-X-X-X-X-X-X-X-X-X-X#X#X#X#Xz.z.z.z.z.z.z.z.z.z.z.z.z.z.z.z.z.z.z.z.z.z.z.z.",
"-X-X-X-X-X-X-X-X-X-X-X-X-X-X-X-X-X-X-X-X$X$X$X$Xz.z.z.z.z.z.z.z.z.z.z.z.z.z.z.z.z.z.z.z.z.z.z.z."
};
