/* XPM */
static char *dd32a8c69d7b4305fb8478eaae5876b4toSEpr5iMikKqLQ3[] = {
/* columns rows colors chars-per-pixel */
"48 48 218 2 ",
"   c #050406",
".  c #17090A",
"X  c #0A1218",
"o  c #141012",
"O  c #151214",
"+  c #1C1314",
"@  c #1F1A1B",
"#  c #18181C",
"$  c #2A0C08",
"%  c #330501",
"&  c #28140A",
"*  c #3B190B",
"=  c #3C0F12",
"-  c #231D1C",
";  c #291A18",
":  c #381617",
">  c #2A2719",
",  c #352519",
"<  c #2D3219",
"1  c #161B23",
"2  c #1D2023",
"3  c #262222",
"4  c #262626",
"5  c #2C2B25",
"6  c #2C282A",
"7  c #352C29",
"8  c #2E3723",
"9  c #323422",
"0  c #373429",
"q  c #262F36",
"w  c #302F31",
"e  c #293539",
"r  c #373737",
"t  c #491809",
"y  c #53110E",
"u  c #441615",
"i  c #581A1A",
"p  c #5B1C1B",
"a  c #691415",
"s  c #731B1E",
"d  c #47210C",
"f  c #5A2F06",
"g  c #4C251C",
"h  c #5A3119",
"j  c #69290F",
"k  c #683B17",
"l  c #7E1B21",
"z  c #4E2E2C",
"x  c #5E2621",
"c  c #4C3C25",
"v  c #5A3622",
"b  c #483B3B",
"n  c #642525",
"m  c #712326",
"M  c #7A3635",
"N  c #3D4327",
"B  c #704715",
"V  c #484725",
"C  c #554729",
"Z  c #4A582A",
"A  c #514839",
"S  c #4A5C3A",
"D  c #64482C",
"F  c #724D2D",
"G  c #755834",
"H  c #4C6538",
"J  c #516C3B",
"K  c #5D6C38",
"L  c #59733C",
"P  c #6B6532",
"I  c #63743B",
"U  c #697A3E",
"Y  c #2A3A45",
"T  c #383D43",
"R  c #38444B",
"E  c #2E4550",
"W  c #3A4953",
"Q  c #3C4D58",
"!  c #3E5456",
"~  c #3B5463",
"^  c #395665",
"/  c #3E606E",
"(  c #474847",
")  c #504D46",
"_  c #495349",
"`  c #545948",
"'  c #454D54",
"]  c #4C4C50",
"[  c #5B4C54",
"{  c #485559",
"}  c #57595B",
"|  c #6F5853",
" . c #695B57",
".. c #5A6948",
"X. c #5A7843",
"o. c #666B4E",
"O. c #70774D",
"+. c #666757",
"@. c #746556",
"#. c #495963",
"$. c #425C6B",
"%. c #525D64",
"&. c #515F68",
"*. c #4A616E",
"=. c #55636C",
"-. c #5C646B",
";. c #466374",
":. c #4A6574",
">. c #4A6A79",
",. c #576B77",
"<. c #58717E",
"1. c #6A6365",
"2. c #796766",
"3. c #7A716F",
"4. c #646D74",
"5. c #61757D",
"6. c #7B7874",
"7. c #813B1E",
"8. c #882E32",
"9. c #8E3838",
"0. c #923739",
"q. c #825218",
"w. c #904E32",
"e. c #9B563B",
"r. c #83602F",
"t. c #8B6232",
"y. c #936633",
"u. c #925652",
"i. c #A05F44",
"p. c #8C7251",
"a. c #A76F47",
"s. c #847672",
"d. c #A56B65",
"f. c #608146",
"g. c #6D8141",
"h. c #66884A",
"j. c #6A8D4D",
"k. c #728644",
"l. c #758A46",
"z. c #7A8A49",
"x. c #7C934A",
"c. c #6D8F52",
"v. c #739954",
"b. c #769E57",
"n. c #77A057",
"m. c #78A158",
"M. c #89974E",
"N. c #8A9C53",
"B. c #8BA453",
"V. c #8BA555",
"C. c #94A957",
"Z. c #91AC57",
"A. c #97B35B",
"S. c #9AB65D",
"D. c #9DBA5F",
"F. c #A5B15E",
"G. c #90897D",
"H. c #BE8F60",
"J. c #A1BF61",
"K. c #AABD64",
"L. c #A4C263",
"P. c #AEC066",
"I. c #B9CC6C",
"U. c #BED26F",
"Y. c #BFD370",
"T. c #C0D470",
"R. c #5B7888",
"E. c #5F7F90",
"W. c #637985",
"Q. c #667B86",
"!. c #727D85",
"~. c #6B838E",
"^. c #76838C",
"/. c #688694",
"(. c #788B95",
"). c #77929C",
"_. c #7A94A2",
"`. c #7EA0AD",
"'. c #968887",
"]. c #8E928F",
"[. c #83939C",
"{. c #A79490",
"}. c #8599A4",
"|. c #929CA4",
" X c #95A2AA",
".X c #92A9B4",
"XX c #98AAB4",
"oX c #9BABB4",
"OX c #A9A8A9",
"+X c #B5A8A7",
"@X c #ADB4B1",
"#X c #B9B4B3",
"$X c #C9A49D",
"%X c #C8AEA5",
"&X c #C8B8B6",
"*X c #E5BEB4",
"=X c #B0DFBD",
"-X c #B1E0BE",
";X c #CEC3BD",
":X c #EEC9BE",
">X c #A9B8C1",
",X c #B1BDC4",
"<X c #9BD4C3",
"1X c #B6C3CA",
"2X c #B6C5CC",
"3X c #A2C5D1",
"4X c #B6CBD4",
"5X c #C5D1D7",
"6X c #CBD6DB",
"7X c #D1D0D0",
"8X c #E8D8D1",
"9X c #EBE3DE",
"0X c #FFE5DA",
"qX c #D5DEE2",
"wX c #DBE6EA",
"eX c #FFEDE5",
"rX c #FFF1E8",
"tX c #FFFEFA",
/* pixels */
"<X<X<X<X<X<X<X<X<X<X<X<X<X<X<X<Xm.m.m.m.m.m.m.m.m.m.m.m.-X-X-X-X<X<X<X<X<X<X<X<X<X<X<X<X<X<X<X<X",
"<X<X<X<X<X<X<X<X<X<X<X<X<X<X<X<Xm.m.m.m.m.m.m.m.m.m.m.m.-X-X-X-X<X<X<X<X<X<X<X<X<X<X<X<X<X<X<X<X",
"<X<X<X<X<X<X<X<X<X<X<X<X<X<X<X<Xm.m.m.m.m.m.m.m.m.m.m.m.-X-X-X-X<X<X<X<X<X<X<X<X<X<X<X<X<X<X<X<X",
"<X<X<X<X<X<X<X<X<X<X<X<X<X<X<X<Xm.m.m.m.m.m.m.m.n.n.n.n.=X-X-X-X<X<X<X<X<X<X<X<X<X<X<X<X<X<X<X<X",
"<X<X<X<X<X<X<X<X<X<X<X<Xm.m.m.m.m.m.m.m.m.m.m.n.b.b.b.b.n.m.m.m.m.m.m.m.<X<X<X<X<X<X<X<X<X<X<X<X",
"<X<X<X<X<X<X<X<X<X<X<X<Xm.m.m.m.m.m.m.m.m.n.m.m.m.m.m.m.m.m.m.m.m.m.m.m.<X<X<X<X<X<X<X<X<X<X<X<X",
"<X<X<X<X<X<X<X<X<X<X<X<Xm.m.m.m.m.m.m.m.m.n.m.m.m.m.m.m.m.n.n.m.m.m.m.m.<X<X<X<X<X<X<X<X<X<X<X<X",
"<X<X<X<X<X<X<X<X<X<X<X<Xm.m.m.m.m.m.m.b.m.m.m.j.f.f.f.f.j.m.m.n.b.m.m.m.<X<X<X<X<X<X<X<X<X<X<X<X",
"<X<X<X<X<X<X<X<Xm.m.m.m.m.m.m.m.L.L.L.J.L.L.S.K 9 9 9 9 H b.m.m.b.m.m.m.m.m.m.m.<X<X<X<X<X<X<X<X",
"<X<X<X<X<X<X<X<Xm.m.m.m.m.m.m.m.L.J.L.L.L.V.k.w R ' T 6 8 L j.m.m.m.b.m.m.m.m.m.<X<X<X<X<X<X<X<X",
"<X<X<X<X<X<X<X<Xm.m.m.m.m.m.m.m.L.J.L.L.S.K 5 W <.Q.%.w + - J b.m.m.b.m.m.m.m.m.<X<X<X<X<X<X<X<X",
"<X<X<X<X<X<X<X<Xm.m.m.m.m.m.m.b.L.L.L.V.k.+.!.,.<.E.{ < @ ' { L j.m.m.m.m.m.m.m.<X<X<X<X<X<X<X<X",
"-X-X-X-Xm.m.m.m.m.m.m.m.L.L.L.L.L.L.D.K r OX6X}.:.;.E @ r 5.=.4 g.J.L.L.b.m.m.m.m.m.m.m.<X<X<X<X",
"-X-X-X-Xm.m.m.m.m.m.m.m.L.L.L.L.L.V.g._ ^.5XwX1X(.:.*.-.-._ ' ' ` l.V.L.m.m.m.m.m.m.m.m.<X<X<X<X",
"-X-X-X-Xm.m.m.m.m.m.m.m.L.L.L.L.D.I w ^.2X5X6XqX>XQ.(.>X^.3 r W.=.3 k.L.m.m.n.m.m.m.m.m.<X<X<X<X",
"-X-X-X-Xm.m.m.m.m.m.m.b.L.J.J.B.O._ -. X4X5X6XwX1X(.}.4X|.W ! ~.=.3 g.L.m.m.b.m.m.m.m.m.<X<X<X<X",
"<X<X<X<Xm.m.m.m.L.L.L.L.L.L.L.U 3 =.}..XXX1X6X6X,X}.}..X).;.:.W.{ 5 l.L.m.m.n.m.m.m.m.m.<X<X<X<X",
"<X<X<X<Xm.m.m.m.L.L.J.L.L.L.L.g.4 -.}._.[.XX2X2X@X|.(.~.#.Y { W.%.5 l.J.n.m.n.m.m.m.m.m.<X<X<X<X",
"<X<X<X<Xm.m.m.m.L.L.L.J.D.D.S.U 5 %.(.~.~.}.XX.X X[.~.:.e + r 5.&.- l.L.m.m.n.m.m.m.m.m.<X<X<X<X",
"<X<X<X<Xm.m.m.b.J.L.L.Z.U I K Z 5 %.~.~.!.(.)./.E.R.R.:.Y + ( W.%.@ x.L.m.m.b.m.m.m.m.m.<X<X<X<X",
"<X<X<X<Xm.m.m.m.m.b.v.J + w b - @ W W.~.~.~.<.Q Y E $.;.Y O r <.=.6 g.S.b.m.m.m.m.m.m.m.<X<X<X<X",
"<X<X<X<Xm.n.n.m.m.c.S <   3.+X .. q ,.W.Q./.#.+ . ; T ^ Y   4 :.R.Q S I h.m.m.m.n.m.m.m.<X<X<X<X",
"<X<X<X<Xm.n.n.b.v.J O - ) {.+X1.4 Y >.R.,.~ R b g % : -.,.( w Y / >.Q - J m.m.n.b.m.m.m.<X<X<X<X",
"<X<X<X<Xm.m.m.j.S <   1.#XG.r e $.$.;.R.~ X r @X+Xi y {.qX;X@.O e >.#.3 J m.m.n.b.m.m.m.<X<X<X<X",
"m.m.m.n.b.m.m.X.- 6 ) ].OX2.6 e ^ ~ Q ~ Y ; 2.tXtXd.u.:XtXtX%X| T Q _ K N.L.L.L.n.m.m.m.m.m.m.m.",
"m.m.m.n.b.m.m.X.+ 3.#X6.w  .'.} 1 1 4 2 7 | $XeXrX:X*X0XeX0X0X8X'.w I A.D.L.L.L.m.m.m.m.m.m.m.m.",
"m.m.m.m.m.m.m.h.H 6.+X3.0  .'.@., & o   5 '.&X&X&X9X8X&X&X7X9X7XG.U B.L.L.L.L.L.m.m.m.m.m.m.m.m.",
"m.m.m.m.m.n.n.b.v.X.r s.{.1.6 D t.c X   4 4.[.!.[.>XXX!.[.1X X( g.D.L.L.L.L.L.L.m.m.m.m.m.m.m.m.",
"m.m.m.m.m.n.n.m.L.Z.I +.'. ., h F g $ = 7 R ^ >.E._._././.~.] $ I Z.D.L.L.L.L.L.m.m.m.m.m.m.m.m.",
"m.m.m.m.m.m.m.m.L.L.D.k.7 G r.C ; = a s p ; q :.Q.R._.XX(.e , x v V x.L.L.L.L.L.m.m.m.m.m.m.m.m.",
"m.m.m.m.m.m.m.b.J.L.L.Z.U P G A e [ u.M u $ ; ( } [ 1.'.2.g t x b T ..B.A.L.L.L.m.m.m.m.m.m.m.m.",
"m.m.m.m.m.m.m.m.L.L.L.L.D.k.5 ( W.XX|.] . $ t d g x n n M 9.n ; R ,.} N x.L.L.L.n.m.m.m.m.m.m.m.",
"m.m.m.m.m.m.m.m.L.J.J.L.L.l.# { }.3X`.E   $ t t y s s a l 8.p O ! ).-.3 g.L.L.L.L.L.L.L.m.m.m.m.",
"m.m.m.m.m.m.m.m.L.L.L.L.L.k.- { ~.).<.e + $ t p m 8.0.9.8.m u + ! Q.%.- l.L.L.L.L.L.L.L.m.m.m.m.",
"m.m.m.m.m.m.m.m.L.L.L.L.J.V.l.` ' Q ( c f f j j 7.e.i.i.e.w.v > q ' ..z.Z.L.L.L.L.L.L.L.m.m.m.m.",
"m.m.m.m.m.m.m.m.L.L.L.L.L.L.J.g.- # < B q.q.B B q.y.y.y.a.H.p.9 o @ l.L.L.L.L.L.L.L.L.L.m.m.m.m.",
"m.m.m.m.L.L.L.L.L.L.L.L.L.L.L.Z.M.V ; A @.o.+.+.@.G k k p.#X].7 Z l.Z.L.L.L.L.L.L.L.L.L.m.m.m.m.",
"m.m.m.m.L.L.L.L.L.L.L.L.L.J.L.L.U.z.5 W :.$.;.R.-.z % % | XX(.6 g.L.L.L.L.L.L.L.L.L.L.L.m.m.m.m.",
"m.m.m.m.L.L.L.L.L.L.L.L.L.L.L.L.T.K.N.o.R ( ) [ b , . . A 2. .0 l.L.L.L.J.L.L.L.L.L.L.L.m.m.m.m.",
"m.m.m.m.L.L.L.L.L.L.L.L.L.L.L.J.T.T.I.O.; * d t * 9 8 # : n p - g.J.L.L.L.L.L.L.L.L.L.L.m.m.m.m.",
"m.m.m.m.L.L.L.L.L.L.L.L.L.L.L.J.U.T.U.U ; t t * V C.N.4 u a p - k.I.Y.T.L.L.L.L.m.m.m.m.m.m.m.m.",
"m.m.m.m.L.L.L.L.L.L.L.L.L.L.L.L.T.U.I.z.N V V V z.Y.I.U C F D V M.U.T.T.L.L.L.L.m.m.m.m.m.m.m.m.",
"m.m.m.m.L.L.L.L.L.L.L.L.L.L.L.L.T.Y.U.K.B.B.B.B.K.T.T.K.F.F.F.F.P.U.T.T.L.L.L.L.m.m.m.m.m.m.m.m.",
"m.m.m.m.L.L.L.L.L.L.L.L.L.L.L.L.T.T.T.T.L.L.L.L.T.U.T.T.T.T.T.T.T.T.T.T.L.L.L.L.m.m.m.m.m.m.m.m.",
"m.m.m.m.L.L.L.L.L.L.L.L.L.L.L.L.T.T.T.T.T.T.T.T.T.T.T.T.T.T.T.T.T.T.T.T.L.L.L.L.m.m.m.m.m.m.m.m.",
"m.m.m.m.L.L.L.L.L.L.L.L.L.L.L.L.T.T.T.U.U.U.U.U.U.T.T.U.U.U.U.U.U.T.T.T.L.L.L.L.m.m.m.m.m.m.m.m.",
"m.m.m.m.L.L.L.L.L.L.L.L.L.L.L.L.T.T.T.T.Y.T.T.Y.Y.T.T.Y.T.T.T.Y.T.T.T.T.L.L.L.L.m.m.m.m.m.m.m.m.",
"m.m.m.m.L.L.L.L.L.L.L.L.L.L.L.L.T.T.T.T.T.T.T.T.T.T.T.T.T.T.T.T.T.T.T.T.L.L.L.L.m.m.m.m.m.m.m.m."
};
