/* XPM */
static char *c944a4bc35504e3bd8e8c115e468c019WcAqIyz5O2xXPri2[] = {
/* columns rows colors chars-per-pixel */
"48 48 216 2 ",
"   c #080405",
".  c #160706",
"X  c #101412",
"o  c #171616",
"O  c #1B1414",
"+  c #1C1C1B",
"@  c #280F07",
"#  c #340200",
"$  c #3E0E0A",
"%  c #261406",
"&  c #38160C",
"*  c #2F0812",
"=  c #271816",
"-  c #231C1C",
";  c #351A17",
":  c #36220D",
">  c #23211B",
",  c #29261A",
"<  c #372117",
"1  c #2A371C",
"2  c #171C24",
"3  c #1C242C",
"4  c #262222",
"5  c #212726",
"6  c #2A2525",
"7  c #2C2B25",
"8  c #2C282A",
"9  c #342A28",
"0  c #2B362A",
"q  c #343526",
"w  c #252F38",
"e  c #302F31",
"r  c #293537",
"t  c #383737",
"y  c #481802",
"u  c #56110D",
"i  c #451915",
"p  c #591714",
"a  c #5B1C1A",
"s  c #6B1818",
"d  c #771B1E",
"f  c #492219",
"g  c #572417",
"h  c #4F3111",
"j  c #75330A",
"k  c #683B17",
"l  c #6F3318",
"z  c #4D1F22",
"x  c #671A21",
"c  c #492724",
"v  c #5F2C27",
"b  c #553D29",
"n  c #483B3B",
"m  c #632424",
"M  c #712326",
"N  c #703432",
"B  c #3B4323",
"V  c #784D18",
"C  c #474829",
"Z  c #554927",
"A  c #4D4D30",
"S  c #4A5E37",
"D  c #6B4D2D",
"F  c #775931",
"G  c #546A36",
"H  c #576D39",
"J  c #646234",
"K  c #63743A",
"L  c #6A793E",
"P  c #273A46",
"I  c #2E3A42",
"U  c #353C45",
"Y  c #393E44",
"T  c #39454B",
"R  c #3A4B55",
"E  c #3E5259",
"W  c #3A5363",
"Q  c #3B5768",
"!  c #474948",
"~  c #4A5449",
"^  c #555949",
"/  c #474D53",
"(  c #574D52",
")  c #49555A",
"_  c #5A5A5B",
"`  c #74594C",
"'  c #685A57",
"]  c #56614B",
"[  c #5A7843",
"{  c #6A7B45",
"}  c #727E43",
"|  c #696857",
" . c #706D57",
".. c #445965",
"X. c #525D64",
"o. c #515F68",
"O. c #46616E",
"+. c #5B6062",
"@. c #55636C",
"#. c #5C656E",
"$. c #456172",
"%. c #4B6675",
"&. c #4B6A79",
"*. c #586A75",
"=. c #546D7A",
"-. c #59727E",
";. c #6B6465",
":. c #776565",
">. c #7A716F",
",. c #61757D",
"<. c #7B7874",
"1. c #882D31",
"2. c #8E3737",
"3. c #923739",
"4. c #825419",
"5. c #895D29",
"6. c #945137",
"7. c #A05A3E",
"8. c #89642C",
"9. c #97672B",
"0. c #926633",
"q. c #A27233",
"w. c #925955",
"e. c #A05F44",
"r. c #937856",
"t. c #A86F47",
"y. c #847672",
"u. c #A56B65",
"i. c #608146",
"p. c #6D8140",
"a. c #698C4D",
"s. c #738544",
"d. c #758A46",
"f. c #768C4F",
"g. c #7C8B4A",
"h. c #739954",
"j. c #769E57",
"k. c #77A057",
"l. c #77A058",
"z. c #78A158",
"x. c #808D49",
"c. c #84924D",
"v. c #89974E",
"b. c #8D9C52",
"n. c #909F54",
"m. c #8CA654",
"M. c #93A255",
"N. c #91AB57",
"B. c #99AC5A",
"V. c #9AB65D",
"C. c #9DB95E",
"Z. c #A2B15E",
"A. c #A8B15F",
"S. c #89867E",
"D. c #99937D",
"F. c #BF9163",
"G. c #A1BF61",
"H. c #ABBD64",
"J. c #A4C263",
"K. c #AEC165",
"L. c #B4C76A",
"P. c #BACD6C",
"I. c #BED26F",
"U. c #BFD370",
"Y. c #C0D470",
"T. c #5B7888",
"R. c #5F7F90",
"E. c #627681",
"W. c #667C88",
"Q. c #727E85",
"!. c #6B828D",
"~. c #76838C",
"^. c #688694",
"/. c #778B96",
"(. c #7B909B",
"). c #7B97A4",
"_. c #978988",
"`. c #968C8A",
"'. c #818E97",
"]. c #83939D",
"[. c #A79490",
"{. c #8699A3",
"}. c #929EA6",
"|. c #96A3AC",
" X c #92A9B4",
".X c #9AACB6",
"XX c #A9A8A9",
"oX c #B5A8A7",
"OX c #ADB4B2",
"+X c #B9B4B3",
"@X c #C9A39D",
"#X c #C8AEA5",
"$X c #C8B9B6",
"%X c #E5BEB4",
"&X c #B1E0BE",
"*X c #CEC3BD",
"=X c #EEC9BE",
"-X c #A9B8C1",
";X c #B1BDC4",
":X c #9BD4C3",
">X c #9EC3D1",
",X c #B6C3CA",
"<X c #B6C5CC",
"1X c #B6CBD4",
"2X c #D9CCC7",
"3X c #C5D1D7",
"4X c #CAD4DA",
"5X c #CBD6DB",
"6X c #E8D8D1",
"7X c #EBE3DE",
"8X c #FFE5DA",
"9X c #D5DEE2",
"0X c #DBE6EA",
"qX c #FFEDE5",
"wX c #FFF1E8",
"eX c #FFFEFA",
/* pixels */
":X:X:X:X:X:X:X:X:X:X:X:X:X:X:X:X:X:X:X:X:X:X:X:Xz.z.z.z.z.z.z.z.z.z.z.z.z.z.z.z.z.z.z.z.z.z.z.z.",
":X:X:X:X:X:X:X:X:X:X:X:X:X:X:X:X:X:X:X:X:X:X:X:Xz.z.z.z.z.z.z.z.z.z.z.z.z.z.z.z.z.z.z.z.z.z.z.z.",
":X:X:X:X:X:X:X:X:X:X:X:X:X:X:X:X:X:X:X:X:X:X:X:Xz.z.z.z.z.z.z.z.z.z.z.z.z.z.z.z.z.z.z.z.z.z.z.z.",
":X:X:X:X:X:X:X:X:X:X:X:X:X:X:X:X:X:X:X:X:X:X:X:Xk.k.k.k.z.z.z.z.z.z.z.z.z.z.z.z.z.z.z.z.z.z.z.z.",
":X:X:X:X:X:X:X:X:X:X:X:Xz.z.z.z.z.z.z.z.z.z.z.k.j.j.j.j.k.z.z.z.z.z.z.z.J.J.J.J.J.J.J.J.J.J.J.J.",
":X:X:X:X:X:X:X:X:X:X:X:Xz.z.z.z.z.z.z.z.z.k.z.z.z.z.z.z.z.z.z.z.z.z.z.z.J.J.J.J.J.J.J.J.J.J.J.J.",
":X:X:X:X:X:X:X:X:X:X:X:Xz.z.z.z.z.z.z.z.z.k.z.z.z.z.z.z.z.k.k.z.z.z.z.z.J.J.J.J.J.J.J.J.J.J.J.J.",
":X:X:X:X:X:X:X:X:X:X:X:Xz.z.z.z.z.z.z.j.z.z.z.a.i.i.i.i.a.z.z.k.j.z.z.z.J.J.J.J.J.J.J.J.J.J.J.J.",
"&X&X&X&X&X&X&X&Xz.z.z.z.z.z.z.z.J.J.J.G.J.J.V.H q 1 q q { G.J.J.G.J.J.J.J.J.J.J.J.J.J.J.J.J.J.J.",
"&X&X&X&X&X&X&X&Xz.z.z.z.z.z.z.z.J.G.J.J.J.m.s.0 T / Y 8 B d.N.J.J.J.J.J.J.J.J.J.J.J.J.J.J.J.J.J.",
"&X&X&X&X&X&X&X&Xz.z.z.z.z.z.z.z.J.G.J.J.V.H 7 R -.W.X.0 O > p.G.J.J.G.J.J.J.J.J.J.J.J.J.J.J.J.J.",
"&X&X&X&X&X&X&X&Xz.z.z.z.z.z.z.j.J.J.J.m.s.| Q.=.-.R.) , + / ] d.N.J.J.J.J.J.J.J.J.J.J.J.J.J.J.J.",
":X:X:X:Xz.z.z.z.z.z.z.z.J.J.J.J.J.J.C.K t XX4X{.%.$.T + t ,.@.6 p.G.J.J.J.J.J.J.J.J.J.J.J.J.J.J.",
":X:X:X:Xz.z.z.z.z.z.z.z.J.J.J.J.J.m.p.~ ~.3X0X,X/.%.O.#.+.~ / / ^ d.m.J.J.J.J.J.J.J.J.J.J.J.J.J.",
":X:X:X:Xz.z.z.z.z.z.z.z.J.J.J.J.C.K e ~.<X3X4X9X-XW./.-X~.4 t E.@.4 s.J.J.J.J.J.J.J.J.J.J.J.J.J.",
":X:X:X:Xz.z.z.z.z.z.z.j.J.G.G.m.{ ~ #.|.1X3X4X0X,X/.{.1X}.T E !.@.4 p.J.J.J.J.J.J.J.J.J.J.J.J.J.",
":X:X:X:Xz.z.z.z.J.J.J.J.J.J.J.L 4 @.{. X.X,X4X4X;X{.{. X(.$.%.E.) 7 v.U.J.J.J.J.Y.Y.Y.Y.Y.Y.Y.Y.",
":X:X:X:Xz.z.z.z.J.J.G.J.J.J.J.p.6 #.{.).]..X<X<XOX}.(.!...I ) E.X.7 v.I.J.J.J.J.Y.Y.Y.Y.Y.Y.Y.Y.",
":X:X:X:Xz.z.z.z.J.J.J.G.C.C.V.L 7 X./.!.!.{..X X|.].!.%.r O t ,.o.- v.Y.J.J.J.J.Y.Y.Y.Y.Y.Y.Y.Y.",
":X:X:X:Xz.z.z.j.G.J.J.N.L K K C 7 X.!.!.Q./.(.^.R.T.T.%.I O ! E.X.+ b.Y.J.J.J.J.Y.Y.Y.Y.Y.Y.Y.Y.",
":X:X:X:Xz.l.l.z.z.j.h.G O e n - + R E.!.!.!.-.R P T ..$.I o t -.@.8 x.L.P.U.I.Y.Y.Y.Y.Y.J.J.J.J.",
":X:X:X:Xz.k.k.z.z.a.S 1   >.oX' . w =.E.W.^...O . = U W P   5 %.T.E ] } Z.Y.Y.U.I.Y.Y.Y.J.J.J.J.",
":X:X:X:Xl.k.k.j.h.H o - ! [.oX;.5 P &.T.=.W T n i # ; #.-.! e P O.&.R - c.Y.Y.I.I.Y.Y.Y.J.J.J.J.",
":X:X:X:Xl.l.l.a.S 1   ;.+XS.t r ..O.%.T.W X t OXoXp u [.9X*X:.X r =...4 c.Y.Y.I.I.Y.Y.Y.J.J.J.J.",
"z.z.z.k.j.z.z.[ - 8 ~ `.XX:.7 r W W R W U = :.eXeXu.w.=XeXeX#X' Y R ~ L B.Y.U.U.I.Y.Y.Y.Y.Y.Y.Y.",
"z.z.z.k.j.z.z.[ O >.+X<.e ' _.' 2 2 2 2 e ` @XqXwX=X%X8XqX8X8X6X_.e } K.P.U.I.Y.Y.Y.Y.Y.Y.Y.Y.Y.",
"z.z.z.z.l.z.z.a.S <.oX>.t ' _.' : : : . 6 _.$X$X$X7X6X$X$X2X7X2XD.s.Z.Y.Y.Y.I.Y.Y.Y.Y.Y.Y.Y.Y.Y.",
"z.z.z.z.z.k.k.j.h.[ t y.[.;.8 b 5.5.k % 3 *.(.~.'.-X.XQ.].,X|.! g.P.I.Y.Y.Y.Y.Y.Y.Y.Y.Y.Y.Y.Y.Y.",
"z.z.z.z.z.k.k.z.J.N.K  ._.' : V q.8.k < 9 U ..&.R.).).^.^.!./ @ s.H.L.I.I.Y.Y.Y.Y.Y.Y.Y.Y.Y.Y.Y.",
"z.z.z.z.z.z.z.z.J.J.C.s.e D 8.9.4.h > z a ; w %.W.T.)..X/.r ; g b A n.I.I.U.I.Y.Y.Y.Y.Y.Y.Y.Y.Y.",
"z.z.z.z.z.z.z.j.G.J.J.N.L J F V h % * x s * + ! _ ( ;._.:.c f v c = c.Y.Y.U.I.Y.Y.Y.Y.Y.Y.Y.Y.Y.",
"z.z.z.z.z.z.z.z.J.J.J.J.C.s., > , f s d m ; o ; g m m m N 2.N 9 O O b.Y.Y.U.I.Y.Y.Y.Y.Y.Y.Y.Y.Y.",
"z.z.z.z.z.z.z.z.J.G.G.J.J.g.+ 3 T :.w.N ; = = $ u d d s d 1.v > 0 ! f.B.K.Y.U.Y.U.Y.Y.Y.Y.Y.Y.Y.",
"z.z.z.z.z.z.z.z.J.J.J.J.J.d.> T W..X}./ . @ i a M 1.3.2.1.M i O R ,._ q M.Y.Y.I.I.Y.Y.Y.Y.Y.Y.Y.",
"z.z.z.z.z.z.z.z.J.J.J.J.G.L 4 ) ).>X).T . y j j l 6.e.e.7.6.g = ) /.#.4 x.Y.Y.I.I.Y.Y.Y.Y.Y.Y.Y.",
"z.z.z.z.z.z.z.z.J.J.J.J.J.d.- / !./.*.w = k 4.V V 0.0.0.t.F.` - T E.X.- b.Y.Y.I.I.Y.Y.Y.Y.Y.Y.Y.",
"z.z.z.z.J.J.J.J.J.J.J.J.J.N.g.^ / / U U T ^ |  . .F V k r.+XS.7 2 T  .M.H.Y.U.Y.U.Y.Y.Y.Y.Y.Y.Y.",
"z.z.z.z.J.J.J.J.J.J.J.J.J.J.J.s., , q R $.Q $.T.#.c # # ' |./.e . , b.Y.Y.U.I.Y.Y.Y.Y.Y.Y.Y.Y.Y.",
"z.z.z.z.J.J.J.J.J.J.J.J.J.J.J.N.M.M.M.{ / ! ! ( n < . . A :.' q K M.K.Y.Y.Y.U.Y.Y.Y.Y.Y.Y.Y.Y.Y.",
"z.z.z.z.J.J.J.J.J.J.J.J.J.J.J.J.Y.Y.P.s.= & y y & q q + ; x a - c.Y.Y.I.I.Y.Y.Y.Y.Y.Y.Y.Y.Y.Y.Y.",
"z.z.z.z.J.J.J.J.J.J.J.J.J.J.J.J.Y.Y.I.L = y y & C M.b.5 i s a - g.Y.Y.I.I.Y.Y.Y.Y.Y.Y.Y.J.J.J.J.",
"z.z.z.z.J.J.J.J.J.J.J.J.J.J.J.G.I.I.L.g.C Z Z C g.U.P.L Z D D C v.P.I.Y.I.Y.Y.Y.Y.Y.Y.Y.J.J.J.J.",
"z.z.z.z.J.J.J.J.J.J.J.J.J.J.J.J.I.I.I.H.Z.Z.Z.Z.H.Y.Y.H.A.A.A.Z.K.I.U.Y.U.Y.Y.Y.Y.Y.Y.Y.J.J.J.J.",
"z.z.z.z.J.J.J.J.J.J.J.J.J.J.J.J.Y.Y.Y.Y.Y.Y.Y.Y.Y.I.Y.Y.Y.Y.Y.Y.Y.Y.Y.Y.Y.Y.Y.Y.Y.Y.Y.Y.J.J.J.J.",
"z.z.z.z.J.J.J.J.J.J.J.J.J.J.J.J.Y.Y.Y.Y.J.J.J.J.Y.Y.Y.Y.Y.Y.Y.Y.Y.Y.Y.Y.Y.Y.Y.Y.Y.Y.Y.Y.Y.Y.Y.Y.",
"z.z.z.z.J.J.J.J.J.J.J.J.J.J.J.J.Y.Y.Y.I.J.J.J.J.I.Y.Y.I.I.I.I.I.I.Y.Y.Y.Y.Y.Y.Y.Y.Y.Y.Y.Y.Y.Y.Y.",
"z.z.z.z.J.J.J.J.J.J.J.J.J.J.J.J.Y.Y.Y.Y.J.J.J.J.U.Y.Y.U.Y.Y.Y.U.Y.Y.Y.Y.Y.Y.Y.Y.Y.Y.Y.Y.Y.Y.Y.Y.",
"z.z.z.z.J.J.J.J.J.J.J.J.J.J.J.J.Y.Y.Y.Y.J.J.J.J.Y.Y.Y.Y.Y.Y.Y.Y.Y.Y.Y.Y.Y.Y.Y.Y.Y.Y.Y.Y.Y.Y.Y.Y."
};
