/* XPM */
static char *_288c97460b34c2bcaa4ced74b83445cIxWD9Z86BXPbIkIT[] = {
/* columns rows colors chars-per-pixel */
"48 48 215 2 ",
"   c #070406",
".  c #180808",
"X  c #131013",
"o  c #1C1514",
"O  c #1A181A",
"+  c #1C1C1B",
"@  c #2B0500",
"#  c #340705",
"$  c #291607",
"%  c #37190B",
"&  c #2C0913",
"*  c #231D1C",
"=  c #281918",
"-  c #351C1A",
";  c #1E271F",
":  c #31220E",
">  c #26241A",
",  c #2A231C",
"<  c #352517",
"1  c #2D311C",
"2  c #091720",
"3  c #131C28",
"4  c #231F20",
"5  c #1B2229",
"6  c #1F343F",
"7  c #272121",
"8  c #292423",
"9  c #2A2B27",
"0  c #2D2B29",
"q  c #322823",
"w  c #332D2D",
"e  c #2A3229",
"r  c #353623",
"t  c #2C2E33",
"y  c #28353B",
"u  c #373838",
"i  c #4D0F0B",
"p  c #461707",
"a  c #461915",
"s  c #591A19",
"d  c #6B1A15",
"f  c #681918",
"g  c #4B2609",
"h  c #5A2C03",
"j  c #452314",
"k  c #552318",
"l  c #523D1A",
"z  c #63360B",
"x  c #6A2B15",
"c  c #681E22",
"v  c #4A2623",
"b  c #5E2522",
"n  c #4A3A26",
"m  c #443B3B",
"M  c #642526",
"N  c #762527",
"B  c #67352B",
"V  c #733333",
"C  c #3C4224",
"Z  c #3F4527",
"A  c #3E413E",
"S  c #64441A",
"D  c #754716",
"F  c #494626",
"G  c #4E5A2B",
"H  c #48443D",
"J  c #465836",
"K  c #575535",
"L  c #64452C",
"P  c #6E4D2E",
"I  c #7C5728",
"U  c #7C5C33",
"Y  c #566739",
"T  c #5A733B",
"R  c #616939",
"E  c #67783C",
"W  c #2A3943",
"Q  c #333E45",
"!  c #39424A",
"~  c #38454A",
"^  c #2F4350",
"/  c #394A55",
"(  c #3F515B",
")  c #3B5767",
"_  c #464948",
"`  c #4F5148",
"'  c #535946",
"]  c #434C53",
"[  c #4B5659",
"{  c #575859",
"}  c #695B58",
"|  c #735857",
" . c #576647",
".. c #5A6253",
"X. c #686A4E",
"o. c #6D7B41",
"O. c #696358",
"+. c #726F57",
"@. c #766E57",
"#. c #445B68",
"$. c #525D64",
"%. c #585E64",
"&. c #4D606B",
"*. c #57636C",
"=. c #466373",
"-. c #4B6674",
";. c #4B6978",
":. c #556B77",
">. c #59717C",
",. c #6C6668",
"<. c #766A6A",
"1. c #6D6E74",
"2. c #64757D",
"3. c #852523",
"4. c #832F36",
"5. c #893232",
"6. c #943938",
"7. c #835319",
"8. c #864B2E",
"9. c #91542A",
"0. c #8A632C",
"q. c #96672B",
"w. c #926633",
"e. c #A37334",
"r. c #8D514E",
"t. c #946D56",
"y. c #AB7B48",
"u. c #857773",
"i. c #6C803F",
"p. c #6D8141",
"a. c #6A8E4D",
"s. c #728644",
"d. c #788445",
"f. c #758A46",
"g. c #788348",
"h. c #7D8C4A",
"j. c #7B924B",
"k. c #7B8652",
"l. c #769E57",
"z. c #789F57",
"x. c #77A057",
"c. c #78A158",
"v. c #818E4B",
"b. c #85934C",
"n. c #89974E",
"m. c #8B9951",
"M. c #8AA252",
"N. c #8FA956",
"B. c #92A355",
"V. c #91AB57",
"C. c #93AE59",
"Z. c #9BAB59",
"A. c #98B05B",
"S. c #9DBA5F",
"D. c #A2B35E",
"F. c #8A847A",
"G. c #BE8F60",
"H. c #9FBC60",
"J. c #A1BE61",
"K. c #AABC64",
"L. c #A4C263",
"P. c #B2C468",
"I. c #B7CA6B",
"U. c #BACE6D",
"Y. c #BED26F",
"T. c #BFD370",
"R. c #C0D470",
"E. c #5C7584",
"W. c #5B7988",
"Q. c #677A85",
"!. c #647A86",
"~. c #737E86",
"^. c #5F818F",
"/. c #6C838E",
"(. c #75828A",
"). c #6D8491",
"_. c #698794",
"`. c #778A94",
"'. c #7C939E",
"]. c #7A97A4",
"[. c #7FA0AD",
"{. c #928E8A",
"}. c #9B8A88",
"|. c #9B9186",
" X c #84949E",
".X c #88929A",
"XX c #A3918E",
"oX c #B39798",
"OX c #8699A3",
"+X c #929CA4",
"@X c #95A4AD",
"#X c #99ABB4",
"$X c #9BB1BC",
"%X c #A8A7A8",
"&X c #B5ADAB",
"*X c #BBB5AA",
"=X c #A7B4BB",
"-X c #C49F98",
";X c #CABAB6",
":X c #E1B7AE",
">X c #CFC2BE",
",X c #EAC4BA",
"<X c #B2BEC4",
"1X c #9DC2CF",
"2X c #B5C3CA",
"3X c #B9C5CC",
"4X c #B4C9D1",
"5X c #C8D3D8",
"6X c #E5D4CD",
"7X c #EDE4DE",
"8X c #FFE6DB",
"9X c #D3DCE0",
"0X c #DDE8EB",
"qX c #FFF4EB",
"wX c #FEFDF9",
/* pixels */
"c.c.c.c.c.c.c.c.c.c.c.c.c.c.c.c.c.c.c.c.c.c.c.c.c.c.c.c.c.c.c.c.c.c.c.c.c.c.c.c.c.c.c.c.c.c.c.c.",
"c.c.c.c.c.c.c.c.c.c.c.c.c.c.c.c.c.c.c.c.c.c.c.c.c.c.c.c.c.c.c.c.c.c.c.c.c.c.c.c.c.c.c.c.c.c.c.c.",
"c.c.c.c.c.c.c.c.c.c.c.c.c.c.c.c.c.c.c.c.c.c.c.x.l.l.l.l.x.c.c.c.c.c.c.c.c.c.c.c.c.c.c.c.c.c.c.c.",
"c.c.c.c.c.c.c.c.c.c.c.c.c.c.c.c.c.c.c.c.c.c.c.c.c.c.c.c.c.c.c.c.c.c.c.c.c.c.c.c.c.c.c.c.c.c.c.c.",
"L.L.L.L.L.L.L.L.L.L.L.L.c.c.c.c.c.c.c.c.c.x.c.c.L.L.L.L.L.L.L.L.L.L.L.L.L.L.L.L.L.L.L.L.c.c.c.c.",
"L.L.L.L.L.L.L.L.L.L.L.L.c.c.c.c.c.c.c.l.c.c.c.a.M.M.M.M.C.L.L.L.L.L.L.L.L.L.L.L.L.L.L.L.c.c.c.c.",
"L.L.L.L.L.L.L.L.L.L.L.L.c.c.c.c.c.c.c.l.c.c.l.J C r C C p.J.L.L.J.L.L.L.L.L.L.L.L.L.L.L.c.c.c.c.",
"L.L.L.L.L.L.L.L.L.L.L.L.c.c.c.c.c.l.c.c.c.a.T e ! _ u 9 Z j.C.L.L.L.L.L.L.L.L.L.L.L.L.L.c.c.c.c.",
"L.L.L.L.L.L.L.L.L.L.L.L.L.L.L.L.L.J.L.L.S.E e ^ >.!.$.e o 1 p.L.L.L.J.L.L.L.L.L.L.L.L.L.L.L.L.L.",
"L.L.L.L.L.L.L.L.L.L.L.L.L.L.L.L.L.L.L.N.f...1.:.E.^.[ 1 + ] ..j.C.L.L.L.L.L.L.L.L.L.L.L.L.L.L.L.",
"L.L.L.L.L.L.L.L.L.L.L.L.L.L.L.J.L.L.S.E u %X5X X-.=.^ o u >.*.9 s.L.L.L.L.L.L.L.L.L.L.L.L.L.L.L.",
"L.L.L.L.L.L.L.L.L.L.L.L.L.L.L.L.L.N.s.` (.5X0X2X`.-.#.%.{ [ ] ] ' h.N.L.L.L.L.L.L.L.L.L.L.L.L.L.",
"R.R.R.R.L.L.L.L.L.L.L.L.L.L.L.L.S.E 0 ~.2X5X5X9X=X!.).$X(.8 u 2.*.4 n.T.L.L.L.L.R.R.R.R.R.R.R.R.",
"R.R.R.R.L.L.L.L.L.L.L.L.L.J.J.M.s.J *.@X4X5X5X0X3X`.OX4X+X! ( /.*.7 v.T.L.L.L.L.R.R.R.R.R.R.R.R.",
"R.R.R.R.L.L.L.L.L.L.L.L.L.L.L.p.7 %.'.@X$X3X5X5X<XOXOX#X'.=.-.!.[ 8 n.T.L.L.L.L.R.R.R.R.R.R.R.R.",
"R.R.R.R.L.L.L.L.L.L.L.L.L.L.L.p.8 *.OXOX X=X3X3X=X+X'.).&.Q [ !.$.0 n.Y.L.L.L.L.R.R.R.R.R.R.R.R.",
"R.R.R.R.R.R.R.R.R.R.R.Y.U.U.I.h.0 *.`.)./.OX$X#X@X X).-.y X A 2.$.* n.R.R.T.Y.R.R.R.R.R.R.R.R.R.",
"R.R.R.R.R.R.R.Y.Y.R.R.K.h.d.d.G 0 %././.~.`.'._._.!.E.=.W o _ !.$.o m.R.R.T.Y.R.R.R.R.R.R.R.R.R.",
"R.R.R.R.R.R.R.T.R.Y.I.b.o w w = * ] !.)./.).E.( ^ / #.=.Q o u 2.&.8 v.I.Y.T.Y.R.R.R.R.R.R.R.R.R.",
"R.R.R.R.R.Y.Y.R.R.K.g.F   <.%X} . y :.!.!._.#.O . = Q ) 6   9 :.W./  .d.D.R.T.T.Y.R.R.R.R.R.R.R.",
"R.R.R.R.R.Y.Y.U.I.n.o o H XX*X,.5 W ;.E.>.) ~ m a @ - *.*.m w ^ =.;./ * n.R.R.Y.Y.R.R.R.R.R.R.R.",
"R.R.R.T.Y.R.T.K.g.G   } &X{.m Q #.#.-.W.) 2 u %XoXi i XX5X;X} X y >.#.7 b.R.R.Y.Y.R.R.R.R.R.R.R.",
"R.R.R.Y.Y.R.R.B.* 8 H {.&X<.7 y ) ) / ) Q = O.wXwXt.r.,XwXwX-X` u ( ` R Z.R.R.T.Y.R.R.R.R.R.R.R.",
"R.R.R.Y.T.R.R.B.o <.*XF.u } }.{ 3 3 5 5 w | -XqXqX,X:X8XqX8X8X6XF.t o.K.I.T.Y.R.R.R.R.R.R.R.R.R.",
"R.R.R.T.Y.R.R.D.E F.&X<.w } |.} = % % . 0 }.;X;X>X7X7X>X;X6X7X6X|.o.D.R.L.L.L.L.R.R.R.R.R.R.R.R.",
"R.R.R.R.R.Y.Y.U.P.n.H u.|.,.w n I 7.z $ 5 >. X(..X<X=X(..X3X@X{ h.I.Y.R.L.L.L.L.R.R.R.R.R.R.R.R.",
"R.R.R.R.R.Y.Y.R.R.K.E +.XX} : S e.0.l < q ! #.;.!.].]._._.).[ . d.P.I.Y.J.L.L.L.R.R.R.R.R.R.R.R.",
"R.R.R.R.R.R.R.R.R.Y.P.v.u P 0.q.7.n , v s - y -._.!.].$X).y - k L Y B.Y.L.L.L.L.R.R.R.R.R.R.R.R.",
"R.R.R.R.R.R.R.Y.Y.R.R.K.T R U I g $ & c f & + _ %.{ 1.{.<.v j M v = b.R.R.T.Y.R.R.R.R.R.R.R.R.R.",
"R.R.R.R.R.R.R.R.R.R.R.Y.S.s., > < j f N c - o : k b M M V 5.B < o o m.R.R.T.Y.R.R.R.R.R.R.R.R.R.",
"R.R.R.R.R.R.R.R.R.Y.Y.R.L.j.+ 5 ! | r.V a - - p d N N d 3.6.B > e H k.A.P.R.T.R.T.R.R.R.R.R.R.R.",
"R.R.R.R.R.R.R.R.R.Y.T.R.L.f.> ! !.#X+X` . $ a s N 5.6.6.5.N a o ~ >.{ F B.R.R.Y.Y.R.R.R.R.R.R.R.",
"R.R.R.R.R.R.R.R.L.L.L.L.J.i.8 [ ].1X[.^   @ a s M N 4.4.N s # o [ `.*.8 p.L.L.L.L.L.L.L.L.L.L.L.",
"R.R.R.R.R.R.R.R.L.L.L.L.L.s.* [ /.'.>.y o % p p a f M c M c a o ] !.$.* f.L.L.L.L.L.L.L.L.L.L.L.",
"R.R.R.R.R.R.R.R.L.L.L.L.L.N.f.' ] ( _ n h h h h z D 8.P 8.9.B > t ] X.m.V.L.L.L.L.L.L.L.L.L.L.L.",
"R.R.R.R.R.R.R.R.L.L.L.L.L.L.J.p.* O 1 S 7.7.D D 7.w.w.w.y.G.t.q X + m.Y.L.L.L.L.L.L.L.L.L.L.L.L.",
"L.L.L.L.L.L.L.L.L.L.L.L.L.L.L.V.f.C = K +.X.X.+.@.U D x t.*X{.w G f.C.L.L.L.L.L.L.L.L.L.L.L.L.L.",
"L.L.L.L.L.L.L.L.L.L.L.L.L.J.L.L.J.E 0 / =.#.=.W.*.v # # } #X`.9 p.L.L.L.L.L.L.L.L.L.L.L.L.L.L.L.",
"L.L.L.L.L.L.L.L.L.L.L.L.L.L.L.L.L.V.j. .~ ! _ ` m - . . H <.} r f.L.L.L.J.L.L.L.L.L.L.L.L.L.L.L.",
"L.L.L.L.L.L.L.L.L.L.L.L.L.L.L.J.L.L.H.E = % g p % r e O - f s * p.J.L.L.L.L.L.L.L.L.L.L.L.L.L.L.",
"L.L.L.L.L.L.L.L.c.c.c.c.c.c.c.l.x.c.l.J = p p % C j.j.; a d s * E J.L.L.L.L.L.L.c.c.c.c.c.c.c.c.",
"L.L.L.L.L.L.L.L.c.c.c.c.c.c.c.l.c.x.l.Y Z F l F o.J.S.Y F P L Z s.J.L.L.L.L.L.L.c.c.c.c.c.c.c.c.",
"L.L.L.L.L.L.L.L.c.c.c.c.c.c.c.c.c.c.l.a.M.M.M.M.C.L.L.V.M.B.B.M.C.L.L.L.L.L.L.L.c.c.c.c.c.c.c.c.",
"L.L.L.L.L.L.L.L.c.c.c.c.c.c.c.c.c.c.c.c.L.L.L.L.L.L.L.L.L.L.L.L.L.L.L.L.L.L.L.L.c.c.c.c.c.c.c.c.",
"c.c.c.c.c.c.c.c.c.c.c.c.c.c.c.c.c.c.c.c.c.c.c.c.c.c.c.c.c.c.c.c.c.c.c.c.c.c.c.c.c.c.c.c.c.c.c.c.",
"c.c.c.c.c.c.c.c.c.c.c.c.c.c.c.c.c.c.c.x.l.l.l.l.x.c.c.x.l.z.l.l.x.c.c.c.c.c.c.c.c.c.c.c.c.c.c.c.",
"c.c.c.c.c.c.c.c.c.c.c.c.c.c.c.c.c.c.c.c.c.c.c.c.c.c.c.c.c.c.c.c.c.c.c.c.c.c.c.c.c.c.c.c.c.c.c.c.",
"c.c.c.c.c.c.c.c.c.c.c.c.c.c.c.c.c.c.c.c.c.c.c.c.c.c.c.c.c.c.c.c.c.c.c.c.c.c.c.c.c.c.c.c.c.c.c.c."
};
