/* XPM */
static char *_6736c0407bf4443d58da8c43390a3a3wRajvzTXRYx5SeAq[] = {
/* columns rows colors chars-per-pixel */
"48 48 208 2 ",
"   c #070406",
".  c #180808",
"X  c #131013",
"o  c #1C1514",
"O  c #1B191A",
"+  c #2B0500",
"@  c #340705",
"#  c #291607",
"$  c #37190B",
"%  c #2C0913",
"&  c #231D1C",
"*  c #281918",
"=  c #351C1A",
"-  c #1E241E",
";  c #31220E",
":  c #29231B",
">  c #352517",
",  c #2D311C",
"<  c #101A25",
"1  c #231F20",
"2  c #1D2124",
"3  c #1B222A",
"4  c #1F343F",
"5  c #272121",
"6  c #292423",
"7  c #2C2C24",
"8  c #252729",
"9  c #2D2B29",
"0  c #332A2A",
"q  c #2B3327",
"w  c #343725",
"e  c #2C2E33",
"r  c #28353B",
"t  c #383838",
"y  c #4D0F0B",
"u  c #461707",
"i  c #461914",
"p  c #591A19",
"a  c #6B1A15",
"s  c #681918",
"d  c #5A2C03",
"f  c #4D2F11",
"g  c #552318",
"h  c #63360B",
"j  c #6A2B15",
"k  c #681E22",
"l  c #4A2623",
"z  c #5E2522",
"x  c #4A3A26",
"c  c #443B3B",
"v  c #642526",
"b  c #762527",
"n  c #67352B",
"m  c #733333",
"M  c #3C4224",
"N  c #3F4826",
"B  c #3E413E",
"V  c #64441A",
"C  c #754716",
"Z  c #494725",
"A  c #48443D",
"S  c #515735",
"D  c #64452C",
"F  c #6E4D2E",
"G  c #7D5728",
"H  c #7D5D34",
"J  c #596A38",
"K  c #5A723B",
"L  c #616939",
"P  c #65773B",
"I  c #2A3943",
"U  c #333E45",
"Y  c #39434A",
"T  c #38454A",
"R  c #2F4350",
"E  c #394A55",
"W  c #3F515B",
"Q  c #3B5767",
"!  c #464948",
"~  c #4F5148",
"^  c #535946",
"/  c #434C53",
"(  c #4A565A",
")  c #565858",
"_  c #695B58",
"`  c #735757",
"'  c #586648",
"]  c #5A6253",
"[  c #677840",
"{  c #6C7B42",
"}  c #696358",
"|  c #706C54",
" . c #776E57",
".. c #445B68",
"X. c #525D64",
"o. c #585E64",
"O. c #4D606B",
"+. c #57636C",
"@. c #466373",
"#. c #4B6674",
"$. c #4B6978",
"%. c #556B77",
"&. c #59717D",
"*. c #6C6668",
"=. c #766A6A",
"-. c #6D6E74",
";. c #64747C",
":. c #852523",
">. c #832F36",
",. c #893232",
"<. c #943938",
"1. c #835319",
"2. c #864B2E",
"3. c #91542A",
"4. c #8A632C",
"5. c #96672B",
"6. c #926633",
"7. c #A37334",
"8. c #8D514E",
"9. c #946D56",
"0. c #AB7B48",
"q. c #857773",
"w. c #6C803F",
"e. c #6E8242",
"r. c #65874A",
"t. c #748746",
"y. c #788545",
"u. c #758A45",
"i. c #7E8C4A",
"p. c #7C934B",
"a. c #7B8652",
"s. c #6D9250",
"d. c #779F57",
"f. c #779F58",
"g. c #77A057",
"h. c #77A058",
"j. c #78A158",
"k. c #828F4A",
"l. c #84924C",
"z. c #8D9C51",
"x. c #8BA353",
"c. c #8FA956",
"v. c #94A556",
"b. c #91AB57",
"n. c #93AD59",
"m. c #9BB45D",
"M. c #9DB95F",
"N. c #A1B25D",
"B. c #89827A",
"V. c #BE8F60",
"C. c #9FBC60",
"Z. c #A1BF61",
"A. c #ABBD65",
"S. c #A4C263",
"D. c #B3C568",
"F. c #B7CA6B",
"G. c #BDD16E",
"H. c #BFD370",
"J. c #C0D470",
"K. c #5C7584",
"L. c #5B7988",
"P. c #677A85",
"I. c #647A86",
"U. c #737E86",
"Y. c #5F818F",
"T. c #6C838E",
"R. c #75828A",
"E. c #6D8491",
"W. c #688694",
"Q. c #778A94",
"!. c #7B929E",
"~. c #7B97A4",
"^. c #7FA0AD",
"/. c #928E8A",
"(. c #9B8A88",
"). c #9B9186",
"_. c #83949E",
"`. c #889299",
"'. c #A3918E",
"]. c #B39798",
"[. c #869AA3",
"{. c #929CA4",
"}. c #95A4AD",
"|. c #99ABB4",
" X c #9BB1BC",
".X c #A8A7A8",
"XX c #B5ADAB",
"oX c #BBB5AA",
"OX c #A7B4BB",
"+X c #C49F98",
"@X c #CABAB6",
"#X c #E1B7AE",
"$X c #B1E0BE",
"%X c #CFC2BE",
"&X c #EAC4BA",
"*X c #B2BEC4",
"=X c #9EC2CF",
"-X c #9BD4C3",
";X c #B8C5CB",
":X c #B4C9D1",
">X c #C8D3D8",
",X c #E5D4CD",
"<X c #EDE4DE",
"1X c #FFE6DB",
"2X c #D3DCE0",
"3X c #DDE8EB",
"4X c #FFF4EB",
"5X c #FEFDF9",
/* pixels */
"-X-X-X-X-X-X-X-X-X-X-X-X-X-Xj.j.j.j.j.j.j.j.j.j.j.j.j.j.j.j.j.j.j.j.-X-X-X-X-X-X-X-X-X-X-X-X-X-X",
"-X-X-X-X-X-X-X-X-X-X-X-X-X-Xj.j.j.j.j.j.j.j.j.j.j.j.j.j.j.j.j.j.j.j.-X-X-X-X-X-X-X-X-X-X-X-X-X-X",
"-X-X-X-X-X-X-X-X-X-X-X-X-X-Xj.j.j.j.j.j.j.j.j.g.d.d.d.d.g.j.j.j.j.j.-X-X-X-X-X-X-X-X-X-X-X-X-X-X",
"-X-X-X-X-X-X-Xj.j.j.j.j.j.j.j.j.j.S.S.S.S.S.S.S.S.S.S.j.j.j.j.j.j.j.j.j.j.j.j.j.j.-X-X-X-X-X-X-X",
"-X-X-X-X-X-X-Xj.j.j.j.j.j.j.j.j.j.S.S.S.S.S.S.S.S.S.S.j.j.g.g.j.j.j.j.j.j.j.j.j.j.-X-X-X-X-X-X-X",
"-X-X-X-X-X-X-Xj.j.j.j.j.j.j.j.j.j.S.S.S.S.S.S.b.x.x.x.r.s.j.j.j.g.j.j.j.j.j.j.j.j.-X-X-X-X-X-X-X",
"-X-X-X-X-X-X-Xj.j.j.j.j.j.j.j.j.j.S.S.Z.S.S.M.P M w M w J f.j.h.d.j.j.j.j.j.j.j.j.-X-X-X-X-X-X-X",
"-X-X-Xj.j.j.j.j.j.j.S.S.S.S.S.S.S.S.S.S.S.c.u.w Y ! t 9 N p.n.S.S.S.S.S.S.S.j.j.j.j.j.j.j.-X-X-X",
"-X-X-Xj.j.j.j.j.j.j.S.S.S.S.S.S.S.Z.S.S.M.P q R %.I.X.q o , e.S.S.S.Z.S.S.S.j.j.j.j.j.j.j.-X-X-X",
"-X-X-Xj.j.j.j.j.j.j.S.S.S.S.S.S.S.S.S.c.u.] -.%.K.Y.( , O / ] p.n.S.S.S.S.S.j.j.j.j.j.j.j.-X-X-X",
"-X-X-Xj.j.j.j.S.S.S.S.S.S.S.S.Z.S.S.M.P t .X>X_.#.@.R o t ;.+.7 t.S.S.S.S.S.S.S.S.j.j.j.j.-X-X-X",
"-X-X-Xj.j.j.j.S.S.S.S.S.S.S.S.S.S.c.t.~ R.>X3X;XQ.#...o.) ) / / ^ i.c.S.S.S.S.S.S.j.j.j.j.-X-X-X",
"-X-X-Xj.j.j.j.S.S.S.S.S.S.S.S.S.M.P 9 U.;X>X>X2XOXI.E. XR.6 t &.+.1 t.S.S.S.S.S.S.j.j.j.j.-X-X-X",
"-X-X-Xj.j.j.j.S.S.S.S.S.S.Z.Z.x.t.S +.}.:X>X>X3X;XQ.[.:X{.Y W T.+.5 e.S.S.S.S.S.S.j.j.j.j.-X-X-X",
"j.j.j.j.j.j.j.S.S.S.S.S.S.S.G.i.5 o._.}. X;X>X>X*X[.[.|.!.@.#.I.( 6 u.S.S.S.S.S.S.j.j.j.j.j.j.j.",
"j.j.j.j.j.j.j.S.S.S.S.S.S.S.J.i.6 +.[.[._.OX;X;XOX{.!.E.O.U ( I.X.7 u.Z.S.S.S.S.S.j.j.j.j.j.j.j.",
"j.j.j.j.j.j.j.S.S.S.S.Z.C.C.F.i.7 +.Q.E.T.[. X|.}._.E.#.r X B ;.X.& u.S.S.S.S.S.S.j.j.j.j.j.j.j.",
"j.j.j.S.S.S.S.S.Z.S.J.A.i.y.y.S 9 X.T.T.U.Q.!.W.W.I.K.@.I o ! I.X.o z.J.J.H.S.S.S.S.S.S.S.j.j.j.",
"j.j.j.S.S.S.S.S.S.S.F.l.o 0 0 * & / I.E.T.E.K.W R E ..@.U o t ;.+.8 k.F.G.H.S.S.S.S.S.S.S.j.j.j.",
"j.j.j.S.S.S.S.S.S.n.y.Z   =..X_ . r %.I.I.W...o . * U Q 4   8 %.L.E ' y.N.J.S.S.S.S.S.S.S.j.j.j.",
"j.j.j.S.S.S.S.Z.M.t.o o A '.oX*.2 I $.K.&.Q T c i + = +.+.c 0 R @.$.E & l.J.S.S.S.S.S.S.S.j.j.j.",
"j.j.j.S.S.S.S.b.[ Z   _ XX/.c U ....#.L.Q < t .X].y y '.>X@X_ X r &...5 l.J.S.S.S.S.S.S.S.j.j.j.",
"j.j.j.S.S.S.S.p.& 6 A /.XX=.5 r Q Q E Q U * } 5X5X9.8.&X5X5X+X~ t W ~ L n.J.S.S.S.S.S.S.S.j.j.j.",
"j.j.j.S.S.S.S.p.o =.oXB.t _ (.) < < 3 3 0 ` +X4X4X&X#X1X4X1X1X,XB.e { A.F.H.S.S.S.S.S.S.S.j.j.j.",
"j.j.j.S.S.S.S.x.K B.XX=.0 _ )._ * $ $ . 9 (.@X@X%X<X<X%X@X,X<X,X).{ N.J.J.H.S.S.S.S.S.S.S.j.j.j.",
"j.j.j.S.S.S.S.C.m.t.A q.).*.e x G 1.h # 3 &.`.R.`.*XOXR.`.;X}.) i.F.G.J.J.J.S.S.S.S.S.S.S.j.j.j.",
"j.j.j.S.S.S.S.S.S.c.P  .'._ ; V 7.4.h > 6 Y ..$.I.~.~.W.W.E.( . y.D.F.G.G.J.S.S.S.S.S.S.S.j.j.j.",
"j.j.j.j.j.j.j.S.S.Z.m.e.t F 4.5.1.x : l p = r #.W.I.~. XE.r = g D J v.G.G.H.S.S.S.S.S.S.S.j.j.j.",
"j.j.j.j.j.j.j.S.Z.S.S.c.K L H G f # % k s % O ! o.) -./.=.l i v l * l.J.J.H.S.S.S.S.S.S.S.j.j.j.",
"j.j.j.j.j.j.j.S.S.S.S.Z.M.t.: : : i s b k = o ; g z v n m ,.n > o o z.J.J.H.S.S.S.S.S.S.S.j.j.j.",
"j.j.j.j.j.j.j.S.S.Z.Z.S.S.p.- 3 Y ` 8.m i = = u a b b a :.<.n : q A a.m.D.J.S.S.S.S.S.S.S.j.j.j.",
"j.j.j.j.j.j.j.S.S.S.S.S.S.u.: Y I.|.{.~ . # i p b ,.<.<.,.b i o T &.) M p.S.S.S.S.j.j.j.j.j.j.j.",
"j.j.j.j.j.j.j.S.S.S.S.S.Z.w.6 ( ~.=X^.R   + i p v b >.>.b p @ o ( Q.+.6 e.S.S.S.S.j.j.j.j.j.j.j.",
"j.j.j.j.j.j.j.S.S.S.S.S.S.t.& ( T.!.&.r o $ u u i s v k v k i o / I.X.& u.S.S.S.S.j.j.j.j.j.j.j.",
"-X-X-Xj.j.j.j.S.S.S.S.S.S.x.u.^ / W ! x d d d d h C 2.F 2.3.n : e / ' i.b.S.S.S.S.j.j.j.j.-X-X-X",
"-X-X-Xj.j.j.j.S.S.S.S.S.S.S.Z.e.& O , V 1.1.C C 1.6.6.6.0.V.9.7 X O t.S.S.S.S.S.S.j.j.j.j.-X-X-X",
"-X-X-Xj.j.j.j.S.S.S.S.S.S.S.S.b.u.M * S | | }  . .H C j 9.oX/.9 S u.n.S.S.S.S.S.S.j.j.j.j.-X-X-X",
"-X-X-Xj.j.j.j.S.S.S.S.S.S.Z.S.S.Z.P 7 E @...@.L.+.l @ @ _ |.Q.9 e.S.S.S.S.S.S.S.S.j.j.j.j.-X-X-X",
"-X-X-Xj.j.j.j.j.j.j.S.S.S.S.S.S.S.b.p.' Y Y ! ~ c = . . A =._ 0 u.S.S.S.Z.S.j.j.j.j.j.j.j.$X$X$X",
"-X-X-Xj.j.j.j.j.j.j.S.S.S.S.S.Z.S.S.C.P * $ u u $ w q O = s p & e.Z.S.S.S.S.j.j.j.j.j.j.j.$X$X$X",
"-X-X-Xj.j.j.j.j.j.j.S.S.S.S.S.Z.S.S.S.J * u u $ M p.i.- i a p & P Z.S.S.S.S.j.j.j.j.j.j.j.$X$X$X",
"-X-X-X-X-X-X-Xj.j.j.j.j.j.j.j.d.j.S.M.{ M Z Z Z { Z.M.J Z F D w K d.j.j.d.j.j.j.j.-X-X-X-X-X-X-X",
"-X-X-X-X-X-X-Xj.j.j.j.j.j.j.j.j.j.S.Z.n.x.x.x.x.n.S.S.b.x.v.v.r.s.g.j.j.j.j.j.j.j.-X-X-X-X-X-X-X",
"-X-X-X-X-X-X-Xj.j.j.j.j.j.j.j.j.j.S.S.S.S.S.S.S.S.S.S.S.S.S.S.j.j.j.j.j.j.j.j.j.j.-X-X-X-X-X-X-X",
"-X-X-X-X-X-X-Xj.j.j.j.j.j.j.j.j.j.S.S.S.S.S.S.S.S.S.S.S.S.S.S.j.j.j.j.j.j.j.j.j.j.-X-X-X-X-X-X-X",
"-X-X-X-X-X-X-X-X-X-X-X-X-X-Xj.j.j.j.j.g.d.d.d.d.g.j.j.g.d.f.d.d.g.j.-X-X-X-X-X-X-X-X-X-X-X-X-X-X",
"-X-X-X-X-X-X-X-X-X-X-X-X-X-Xj.j.j.j.j.j.j.j.j.j.j.j.j.j.j.j.j.j.j.j.-X-X-X-X-X-X-X-X-X-X-X-X-X-X",
"-X-X-X-X-X-X-X-X-X-X-X-X-X-Xj.j.j.j.j.j.j.j.j.j.j.j.j.j.j.j.j.j.j.j.-X-X-X-X-X-X-X-X-X-X-X-X-X-X"
};
