/* XPM */
static char *_7b29b7330ae452bb36790fc2c46fa96Ffr3x3ytEBuoEWAk[] = {
/* columns rows colors chars-per-pixel */
"48 48 209 2 ",
"   c #080405",
".  c #160706",
"X  c #0F1312",
"o  c #171616",
"O  c #1B1414",
"+  c #1D1B1B",
"@  c #280F07",
"#  c #360503",
"$  c #29100A",
"%  c #38160B",
"&  c #271816",
"*  c #231C1C",
"=  c #351A17",
"-  c #1E241E",
";  c #37210C",
":  c #24231B",
">  c #29231A",
",  c #372215",
"<  c #30341E",
"1  c #171C24",
"2  c #1C242C",
"3  c #262222",
"4  c #2A2525",
"5  c #282926",
"6  c #2C2A29",
"7  c #332B28",
"8  c #283429",
"9  c #323423",
"0  c #36352B",
"q  c #252F38",
"w  c #302F31",
"e  c #293537",
"r  c #383737",
"t  c #481802",
"y  c #56110D",
"u  c #451915",
"i  c #591714",
"p  c #5B1C1A",
"a  c #6B1818",
"s  c #771B1E",
"d  c #4A2219",
"f  c #572417",
"g  c #4F3110",
"h  c #75330A",
"j  c #673B17",
"k  c #4D1F22",
"l  c #671A21",
"z  c #492724",
"x  c #5F2C27",
"c  c #553D29",
"v  c #493C3A",
"b  c #632424",
"n  c #712326",
"m  c #703432",
"M  c #3D4423",
"N  c #3E403D",
"B  c #784D18",
"V  c #494424",
"C  c #52582F",
"Z  c #67452C",
"A  c #785931",
"S  c #5A6A36",
"D  c #59713B",
"F  c #646234",
"G  c #66773D",
"H  c #273A46",
"J  c #2E3A42",
"K  c #353C45",
"L  c #393E44",
"P  c #3A454B",
"I  c #3A4B55",
"U  c #3A5363",
"Y  c #3B5768",
"T  c #454849",
"R  c #544D4C",
"E  c #4D554A",
"W  c #545749",
"Q  c #474D53",
"!  c #48555A",
"~  c #59595B",
"^  c #74594C",
"/  c #685A56",
"(  c #596747",
")  c #5C6756",
"_  c #6A7C45",
"`  c #727D42",
"'  c #6A6958",
"]  c #726B59",
"[  c #445965",
"{  c #515D63",
"}  c #515F68",
"|  c #46616E",
" . c #55636C",
".. c #5B646A",
"X. c #456172",
"o. c #4A6575",
"O. c #4B6978",
"+. c #566B77",
"@. c #5C737E",
"#. c #6B6465",
"$. c #776565",
"%. c #7A716F",
"&. c #62767E",
"*. c #767070",
"=. c #882D31",
"-. c #8F3738",
";. c #825419",
":. c #895D29",
">. c #945137",
",. c #A05A3E",
"<. c #926633",
"1. c #A27233",
"2. c #925955",
"3. c #A05F44",
"4. c #A86F47",
"5. c #8C7764",
"6. c #A56B65",
"7. c #6D813F",
"8. c #6D8142",
"9. c #65874A",
"0. c #738444",
"q. c #768A46",
"w. c #7B8C48",
"e. c #7C8C4A",
"r. c #7D934B",
"t. c #6C9250",
"y. c #779F57",
"u. c #789F57",
"i. c #77A057",
"p. c #77A058",
"a. c #78A158",
"s. c #808D4A",
"d. c #85974D",
"f. c #889D51",
"g. c #909F55",
"h. c #8CA454",
"j. c #8EA855",
"k. c #91AB57",
"l. c #92AD59",
"z. c #95B15A",
"x. c #9AB65D",
"c. c #9DB95E",
"v. c #A2B35D",
"b. c #86847A",
"n. c #99937D",
"m. c #BF9163",
"M. c #9FBC60",
"N. c #A1BE61",
"B. c #ACBE65",
"V. c #A4C263",
"C. c #B3C669",
"Z. c #B7CA6B",
"A. c #BACD6D",
"S. c #BED16E",
"D. c #BFD370",
"F. c #C0D470",
"G. c #5A7786",
"H. c #5F7F90",
"J. c #627681",
"K. c #637A87",
"L. c #6A7E89",
"P. c #727E85",
"I. c #5F808C",
"U. c #6B828D",
"Y. c #76838C",
"T. c #688694",
"R. c #768B96",
"E. c #7B909B",
"W. c #7A98A5",
"Q. c #988887",
"!. c #978E8A",
"~. c #818E97",
"^. c #83939D",
"/. c #A79490",
"(. c #8499A3",
"). c #8899A3",
"_. c #929EA6",
"`. c #8DA1AD",
"'. c #96A3AC",
"]. c #98AAB4",
"[. c #9BB2BD",
"{. c #A9A8A9",
"}. c #B5A8A7",
"|. c #ADB4B2",
" X c #B7B3B3",
".X c #C9A39D",
"XX c #C8AEA5",
"oX c #C7B9B6",
"OX c #E5BEB4",
"+X c #B1E0BE",
"@X c #CEC3BD",
"#X c #EEC9BE",
"$X c #A9B8C1",
"%X c #B1BDC4",
"&X c #9BD4C3",
"*X c #9EC3D1",
"=X c #B7C3CA",
"-X c #B5CAD2",
";X c #C5D1D7",
":X c #CBD6DB",
">X c #D1D0D0",
",X c #E8D8D1",
"<X c #EBE3DE",
"1X c #FFE5DA",
"2X c #D5DEE2",
"3X c #DCE6EA",
"4X c #FFEDE5",
"5X c #FFF1E8",
"6X c #FFFEFA",
/* pixels */
"&X&X&X&X&X&X&X&X&X&X&X&X&X&Xa.a.a.a.a.a.a.a.a.a.a.a.a.a.a.a.a.a.a.a.&X&X&X&X&X&X&X&X&X&X&X&X&X&X",
"&X&X&X&X&X&X&X&X&X&X&X&X&X&Xa.a.a.a.a.a.a.a.a.a.a.a.a.a.a.a.a.a.a.a.&X&X&X&X&X&X&X&X&X&X&X&X&X&X",
"&X&X&X&X&X&X&X&X&X&X&X&X&X&Xa.a.a.a.a.a.a.a.a.a.a.a.a.a.a.a.a.a.a.a.&X&X&X&X&X&X&X&X&X&X&X&X&X&X",
"&X&X&X&X&X&X&Xa.a.a.a.a.a.a.a.a.a.V.V.V.V.V.V.V.V.V.V.i.a.a.a.a.a.a.a.a.a.a.a.a.a.&X&X&X&X&X&X&X",
"&X&X&X&X&X&X&Xa.a.a.a.a.a.a.a.a.a.V.V.V.V.V.V.V.V.V.V.y.i.a.a.a.a.a.a.a.a.a.a.a.a.&X&X&X&X&X&X&X",
"&X&X&X&X&X&X&Xa.a.a.a.a.a.a.a.a.a.V.V.V.V.V.V.V.V.V.V.a.a.a.a.a.a.a.a.a.a.a.a.a.a.&X&X&X&X&X&X&X",
"&X&X&X&X&X&X&Xa.a.a.a.a.a.a.a.a.a.V.V.V.V.V.V.V.V.V.V.a.a.i.i.a.a.a.a.a.a.a.a.a.a.&X&X&X&X&X&X&X",
"&X&X&Xa.a.a.a.a.a.a.V.V.V.V.V.V.V.V.V.V.V.V.V.j.f.d.f.f.l.V.V.V.V.V.V.V.V.V.a.a.a.a.a.a.a.&X&X&X",
"&X&X&Xa.a.a.a.a.a.a.V.V.V.V.V.V.V.V.V.N.V.V.x.S 9 < 9 9 _ N.V.V.N.V.V.V.V.V.a.a.a.a.a.a.a.&X&X&X",
"&X&X&Xa.a.a.a.a.a.a.V.V.V.V.V.V.V.N.V.V.V.h.0.w P Q L 6 M q.k.V.V.V.V.V.V.V.a.a.a.a.a.a.a.&X&X&X",
"&X&X&Xa.a.a.a.V.V.V.V.V.V.V.V.V.V.N.V.V.x.G 6 I G.K.{ 0 O > e.N.V.V.N.V.V.V.V.V.V.a.a.a.a.&X&X&X",
"&X&X&Xa.a.a.a.V.V.V.V.V.V.V.V.N.V.V.V.h.0.' P.+.@.I.! < + Q ) q.k.V.V.V.V.V.V.V.V.a.a.a.a.&X&X&X",
"&X&X&Xa.a.a.a.V.V.V.V.V.V.V.V.V.V.V.c.D r {.:X).o.X.P + r &. .4 8.N.V.V.V.V.V.V.V.a.a.a.a.&X&X&X",
"&X&X&Xa.a.a.a.V.V.V.V.V.V.V.V.V.V.h.8.E Y.;X3X=XR.O.| ....E T Q W q.h.V.V.V.V.V.V.a.a.a.a.&X&X&X",
"a.a.a.a.a.a.a.V.V.V.V.V.V.V.F.S.Z.0.w Y.-X;X:X2X$XL.R.[.Y.3 r J. .3 0.V.V.V.V.V.V.a.a.a.a.a.a.a.",
"a.a.a.a.a.a.a.V.V.V.V.V.V.N.S.x.e.E ..'.-X;X:X3X=XR.(.-X_.I ! U. .3 8.V.V.V.V.V.V.a.a.a.a.a.a.a.",
"a.a.a.a.a.a.a.V.V.V.V.V.V.V.S.w.3  .(.`.].=X:X:X%X).(.].E.X.o.J.! 5 q.V.V.V.V.V.V.a.a.a.a.a.a.a.",
"a.a.a.V.V.V.V.V.V.V.S.F.F.F.F.s.4 ..(.(.^.[.=X=X|._.E.U.[ J ! J.{ 6 d.S.S.D.V.V.V.V.V.V.V.a.a.a.",
"a.a.a.V.V.V.V.V.V.V.F.A.Z.Z.C.w.7 ..R.U.U.).].].`.^.U.o.e O N &.} * f.F.F.D.V.V.V.V.V.V.V.a.a.a.",
"a.a.a.V.V.V.V.V.N.V.F.B.0.` ` C 6 { U.U.L.R.E.T.H.G.G.o.J O T J.{ + g.F.F.D.V.V.V.V.V.V.V.a.a.a.",
"a.a.a.V.V.V.V.V.V.N.C.s.O w v * + I J.U.U.U.@.I H I [ X.J o r @. .5 s.C.A.D.V.V.V.V.V.V.V.a.a.a.",
"a.a.a.V.V.V.V.V.V.l.` V   *.}./ . q +.J.L.T.[ O . & K U H   5 O.G.I ( ` v.F.V.V.V.V.V.V.V.a.a.a.",
"a.a.a.V.V.V.V.N.x.0.O * R /.}.#.5 H O.G.+.U P v d # = ..+.T w H | O.I * d.F.V.V.V.V.V.V.V.a.a.a.",
"a.a.a.V.V.V.V.h.G M   #. Xb.r J [ | o.G.U X r  X}.i y /.2X@X$.X e +.[ 3 d.F.V.V.V.V.V.V.V.a.a.a.",
"a.a.a.V.V.V.V.r.* 6 W !.{.$.4 e U U I U K & $.6X6X6.2.#X6X6XXX/ L I E G x.F.V.V.V.V.V.V.V.a.a.a.",
"a.a.a.V.V.V.V.r.O %.oXb.w / Q.~ 1 1 1 1 w ^ .X4X5X#XOX1X4X1X1X,XQ.w ` C.A.F.N.V.V.V.V.V.V.a.a.a.",
"a.a.a.V.V.V.V.j.G b.}.%.0 / Q./ ; ; ; . 4 Q.oXoXoX<X,XoXoX>X<X>Xn.0.v.F.F.D.V.V.V.V.V.V.V.a.a.a.",
"a.a.a.a.a.i.i.N.x.q.r 5./.#.6 c :.:.j @ 2 +.~.P.~.$X].P.^.=X'.T e.Z.S.F.F.F.V.V.V.V.V.V.V.a.a.a.",
"a.a.a.a.a.i.i.V.V.k.G ' !./ , B 1.:.j , 7 K [ O.H.W.W.T.T.U.Q @ 0.B.Z.S.S.F.V.V.V.V.V.V.V.a.a.a.",
"a.a.a.a.a.a.a.V.V.V.c.0.w Z :.1.;.g > k p = q o.K.G.W.[.R.e = f c C g.S.S.D.V.V.V.V.V.V.V.a.a.a.",
"a.a.a.a.a.a.a.V.V.V.V.j.G F A B g @ $ l a $ + T ~ R #.Q.$.z d b z & s.F.F.D.V.V.V.V.V.V.V.a.a.a.",
"a.a.a.a.a.a.a.V.V.V.V.V.c.0.> : > d a s b = o = f b b b m -.m < O O q.V.V.V.V.V.V.a.a.a.a.a.a.a.",
"a.a.a.a.a.a.a.V.V.N.N.V.V.r.- 2 P $.2.m = & & % y s s a s =.x : 8 T _ f.z.V.V.V.V.a.a.a.a.a.a.a.",
"a.a.a.a.a.a.a.V.V.V.V.V.V.q.> P L.[._.Q . @ u p n =.-.-.=.n u O I &.~ 9 r.V.V.V.V.a.a.a.a.a.a.a.",
"&X&X&Xa.a.a.a.V.V.V.V.V.N.G 3 ! W.*XW.P . t h h =.>.3.3.,.>.f & ! R...3 7.V.V.V.V.a.a.a.a.&X&X&X",
"&X&X&Xa.a.a.a.V.V.V.V.V.V.q.* Q U.R.+.q & j ;.B B <.<.<.4.m.^ & P J.{ * w.V.V.V.V.a.a.a.a.&X&X&X",
"&X&X&Xa.a.a.a.V.V.V.V.V.V.j.w.W T T L K P W ' ] ] A B j 5. Xb.5 1 P ( r.l.V.V.V.V.a.a.a.a.&X&X&X",
"&X&X&Xa.a.a.a.V.V.V.V.V.V.V.V.0.> > 9 I X.Y X.G...z # # / '.R.6 . > w.V.V.V.V.V.V.a.a.a.a.&X&X&X",
"&X&X&Xa.a.a.a.a.a.a.V.V.V.V.V.l.r.r.r.( P P T R v , . . v $./ 9 S r.z.V.V.V.a.a.a.a.a.a.a.+X+X+X",
"&X&X&Xa.a.a.a.a.a.a.V.V.V.V.V.V.V.V.M.G & % t t % 9 8 + = l p * 8.V.V.V.N.V.a.a.a.a.a.a.a.+X+X+X",
"&X&X&Xa.a.a.a.a.a.a.V.V.V.V.V.V.V.V.V.S & t t % V d.r.- u a p * 8.V.V.V.N.V.a.a.a.a.a.a.a.+X+X+X",
"&X&X&X&X&X&X&Xa.a.a.a.a.a.a.a.y.i.V.c._ M V V V _ V.c.S V Z Z 9 D y.i.a.i.a.a.a.a.&X&X&X&X&X&X&X",
"&X&X&X&X&X&X&Xa.a.a.a.a.a.a.a.p.i.V.N.l.h.h.h.h.l.V.V.k.h.h.h.9.t.y.a.a.a.a.a.a.a.&X&X&X&X&X&X&X",
"&X&X&X&X&X&X&Xa.a.a.a.a.a.a.a.a.a.V.V.V.V.V.V.V.V.V.V.V.V.V.V.a.a.a.a.a.a.a.a.a.a.&X&X&X&X&X&X&X",
"&X&X&X&X&X&X&Xa.a.a.a.a.a.a.a.a.a.V.V.V.V.V.V.V.V.V.V.V.V.V.V.a.a.a.a.a.a.a.a.a.a.&X&X&X&X&X&X&X",
"&X&X&X&X&X&X&X&X&X&X&X&X&X&Xa.a.a.a.a.i.y.y.y.y.i.a.p.i.y.u.y.y.i.a.&X&X&X&X&X&X&X&X&X&X&X&X&X&X",
"&X&X&X&X&X&X&X&X&X&X&X&X&X&Xa.a.a.a.a.a.a.a.a.a.a.a.p.p.a.a.a.a.a.a.&X&X&X&X&X&X&X&X&X&X&X&X&X&X",
"&X&X&X&X&X&X&X&X&X&X&X&X&X&Xa.a.a.a.a.a.a.a.a.a.a.a.a.p.a.a.a.a.a.a.&X&X&X&X&X&X&X&X&X&X&X&X&X&X"
};
