/* XPM */
static char *_f207350b8cb4d7eb9dc6177d3f283c4qnAPiM1YbkRKyt8w[] = {
/* columns rows colors chars-per-pixel */
"48 48 216 2 ",
"   c #070406",
".  c #180808",
"X  c #131013",
"o  c #1C1514",
"O  c #1B191A",
"+  c #2B0500",
"@  c #340705",
"#  c #291607",
"$  c #37190B",
"%  c #2C0913",
"&  c #231D1C",
"*  c #281918",
"=  c #351C1A",
"-  c #1D211C",
";  c #30220D",
":  c #272318",
">  c #2B231C",
",  c #362617",
"<  c #33351E",
"1  c #091720",
"2  c #131C28",
"3  c #231F20",
"4  c #1D2124",
"5  c #1B222A",
"6  c #1F343F",
"7  c #272221",
"8  c #232726",
"9  c #292424",
"0  c #2C2C24",
"q  c #2D2A29",
"w  c #322823",
"e  c #322D2C",
"r  c #2A3428",
"t  c #343427",
"y  c #2C2E33",
"u  c #27353B",
"i  c #393735",
"p  c #353A3C",
"a  c #4D0F0B",
"s  c #461707",
"d  c #461915",
"f  c #591A19",
"g  c #6B1A15",
"h  c #681918",
"j  c #5A2C03",
"k  c #452314",
"l  c #552318",
"z  c #4E3211",
"x  c #63360B",
"c  c #6B2B15",
"v  c #681E22",
"b  c #4A2623",
"n  c #5E2522",
"m  c #4B3A26",
"M  c #443B3A",
"N  c #642526",
"B  c #762527",
"V  c #67352B",
"C  c #733333",
"Z  c #64441A",
"A  c #754716",
"S  c #454927",
"D  c #45482A",
"F  c #564728",
"G  c #46443E",
"H  c #505235",
"J  c #774529",
"K  c #7D5728",
"L  c #654C34",
"P  c #7D5D34",
"I  c #5B6A36",
"U  c #5E703B",
"Y  c #6D713B",
"T  c #6A753E",
"R  c #66793D",
"E  c #2A3943",
"W  c #333E45",
"Q  c #39434A",
"!  c #38454B",
"~  c #2F4350",
"^  c #394A55",
"/  c #3F515B",
"(  c #3B5767",
")  c #464947",
"_  c #504F4A",
"`  c #535846",
"'  c #434C53",
"]  c #4B575A",
"[  c #565858",
"{  c #695B58",
"}  c #735857",
"|  c #5C654C",
" . c #5C7B43",
".. c #656C4E",
"X. c #687A41",
"o. c #727E42",
"O. c #696558",
"+. c #766C51",
"@. c #72735F",
"#. c #455B67",
"$. c #535D64",
"%. c #585E64",
"&. c #4D606B",
"*. c #57636C",
"=. c #456373",
"-. c #4B6674",
";. c #4C6978",
":. c #556B77",
">. c #5B717D",
",. c #6C6568",
"<. c #776B6A",
"1. c #6D6E74",
"2. c #64747D",
"3. c #852523",
"4. c #832F36",
"5. c #893232",
"6. c #943938",
"7. c #835319",
"8. c #864B2E",
"9. c #885C26",
"0. c #964F34",
"q. c #93662B",
"w. c #926633",
"e. c #A37334",
"r. c #8D514E",
"t. c #946D56",
"y. c #AB7B48",
"u. c #857773",
"i. c #6C803F",
"p. c #6E8142",
"a. c #6A8D4E",
"s. c #718442",
"d. c #788747",
"f. c #748A45",
"g. c #7D8B4A",
"h. c #7C934A",
"j. c #7B8652",
"k. c #779F57",
"l. c #77A057",
"z. c #78A058",
"x. c #78A158",
"c. c #828F4B",
"v. c #85934D",
"b. c #88984F",
"n. c #899750",
"m. c #8C9B52",
"M. c #909F54",
"N. c #8CA654",
"B. c #92A756",
"V. c #93AD59",
"C. c #96B25B",
"Z. c #9BB45D",
"A. c #9CB95E",
"S. c #A2B15D",
"D. c #A8B15F",
"F. c #858278",
"G. c #94897F",
"H. c #BE8F60",
"J. c #9FBC60",
"K. c #A5B660",
"L. c #A2BE61",
"P. c #ABBD63",
"I. c #A4C263",
"U. c #AEC066",
"Y. c #B6C96A",
"T. c #B9CC6C",
"R. c #BED26F",
"E. c #BFD370",
"W. c #C0D470",
"Q. c #5C7584",
"!. c #5B7988",
"~. c #677A85",
"^. c #647A86",
"/. c #737E86",
"(. c #6A838E",
"). c #75828A",
"_. c #6D8491",
"`. c #698794",
"'. c #778A94",
"]. c #7B929E",
"[. c #7B97A4",
"{. c #7FA0AD",
"}. c #928E8A",
"|. c #9A8D89",
" X c #83949E",
".X c #88929A",
"XX c #A3918E",
"oX c #B39798",
"OX c #869AA3",
"+X c #929CA4",
"@X c #95A4AD",
"#X c #96AAB4",
"$X c #9AABB4",
"%X c #9BB1BC",
"&X c #A8A7A8",
"*X c #B5ADAB",
"=X c #BBB5AA",
"-X c #A7B4BB",
";X c #C49F98",
":X c #CABAB6",
">X c #E1B7AE",
",X c #CFC2BE",
"<X c #EAC4BA",
"1X c #B2BEC4",
"2X c #9EC2CF",
"3X c #B5C3CA",
"4X c #B9C5CC",
"5X c #B4C9D1",
"6X c #C8D3D8",
"7X c #E5D4CD",
"8X c #EDE4DE",
"9X c #FFE6DB",
"0X c #D3DCE0",
"qX c #DDE8EB",
"wX c #FFF4EB",
"eX c #FEFDF9",
/* pixels */
"x.x.x.x.I.I.I.I.I.I.I.I.W.W.W.W.W.W.W.W.W.W.W.W.W.W.W.W.W.W.W.W.W.W.W.W.I.I.I.I.I.I.I.I.x.x.x.x.",
"x.x.x.x.I.I.I.I.I.I.I.I.W.W.W.W.W.W.W.W.W.W.W.E.E.E.E.E.W.W.W.W.W.W.W.W.I.I.I.I.I.I.I.I.x.x.x.x.",
"x.x.x.x.I.I.I.I.I.I.I.I.W.W.W.W.W.W.W.W.W.W.W.R.R.R.R.R.R.W.W.W.W.W.W.W.I.I.I.I.I.I.I.I.x.x.x.x.",
"x.x.x.x.I.I.I.I.I.I.I.I.W.W.W.W.W.W.W.W.W.E.W.W.W.W.W.W.W.W.E.W.W.W.W.W.I.I.I.I.I.I.I.I.x.x.x.x.",
"x.x.x.x.I.I.I.I.I.I.I.I.W.W.W.W.W.W.W.W.W.R.W.W.W.W.W.W.W.R.R.W.W.W.W.W.I.I.I.I.I.I.I.I.x.x.x.x.",
"x.x.x.x.I.I.I.I.I.I.I.I.W.W.W.W.W.W.W.R.W.W.W.K.S.S.S.S.U.W.W.E.R.W.W.W.I.I.I.I.I.I.I.I.x.x.x.x.",
"x.x.x.x.I.I.I.I.I.I.I.I.W.W.W.W.W.W.W.R.W.W.Y.o.S S S D g.R.W.R.R.W.W.W.I.I.I.I.I.I.I.I.x.x.x.x.",
"x.x.x.x.I.I.I.I.I.I.I.I.W.W.W.W.W.R.W.W.W.K.b.i Q ) p q S B.P.W.W.R.R.W.I.I.I.I.I.I.I.I.x.x.x.x.",
"x.x.x.x.I.I.I.I.I.I.I.I.W.W.W.W.W.R.W.W.Y.o.t ~ :.^.$.e o < c.R.I.I.L.I.I.I.I.I.I.I.I.I.x.x.x.x.",
"x.x.x.x.I.I.I.I.I.I.I.I.W.W.W.R.E.W.W.K.n.O.1.:.Q.(.] < O ' | M.V.I.I.I.I.I.I.I.I.I.I.I.x.x.x.x.",
"x.x.x.x.I.I.I.I.I.I.I.I.W.W.W.R.W.E.T.s.i &X6X X-.=.~ o p 2.*.0 s.I.I.I.I.I.I.I.I.I.I.I.x.x.x.x.",
"x.x.x.x.I.I.I.I.I.I.I.I.W.R.W.W.W.K.v.` ).6XqX3X'.-.#.%.[ [ ' ' ` g.N.I.I.I.I.I.I.I.I.I.x.x.x.x.",
"x.x.x.x.x.x.x.x.I.I.I.I.I.I.I.I.T.d.q /.3X6X6X0X-X^._.%X).9 i 2.*.3 f.I.I.I.I.I.x.x.x.x.x.x.x.x.",
"x.x.x.x.x.x.x.x.I.I.I.I.I.L.L.N.v.` *.@X5X6X6XqX4X'.OX5X+XQ / (.*.7 p.I.I.I.I.I.x.x.x.x.x.x.x.x.",
"x.x.x.x.x.x.x.x.I.I.I.I.I.I.I.p.7 %. X@X%X4X6X6X1XOXOX#X].=.-.^.] 7 f.I.I.I.I.I.x.x.x.x.x.x.x.x.",
"x.x.x.x.x.x.x.x.I.I.I.I.I.I.I.p.9 *.OXOX X-X4X4X-X+X]._.&.W ] ^.$.0 f.L.I.I.I.I.x.x.x.x.x.x.x.x.",
"x.x.x.x.x.x.x.x.I.I.I.L.J.J.A.i.0 *.'._._.OX%X$X@X X_.-.u X p 2.$.& f.I.I.I.I.I.x.x.x.x.x.x.x.x.",
"x.x.x.x.x.x.x.k.L.I.I.V.X.R R S 0 $._._./.'.].`.`.^.Q.=.E o Q ^.$.O h.I.I.I.I.I.x.x.x.x.x.x.x.x.",
"x.x.x.x.x.x.x.x.I.I.A.s.o e e * & ' ^._._._.Q./ ~ ^ #.=.W o p >.*.8 p.A.L.I.I.I.x.x.x.x.x.x.x.x.",
"x.x.x.x.x.l.l.x.I.V.X.S   <.&X{ . u :.^.^.`.#.o . * W ( 6   8 :.Q.^ H R N.I.I.I.x.x.x.x.x.x.x.x.",
"x.x.x.x.x.l.l.k.Z.f.o o G XX=X,.4 E ;.Q.>.( ! M d + = *.*.M e ~ =.;.^ & f.I.I.I.k.x.x.x.x.x.x.x.",
"x.x.x.x.x.x.x.a.X.S   { *X}.M W #.#.-.!.( 1 p &XoXa a XX6X:X{ X u ;.#.7 s.I.I.I.k.x.x.x.x.x.x.x.",
"x.x.x.l.k.x.x. .& 9 G }.*X<.7 u ( ( ^ ( W * O.eXeXt.r.<XeXeX;X_ p / ' I b.I.I.I.l.x.x.x.x.x.x.x.",
"x.x.x.l.k.x.x. .o <.=XF.i { |.[ 2 2 5 5 e } ;XwXwX<X>X9XwX9X9X7XG.y U V.A.I.I.I.x.x.x.x.x.x.x.x.",
"x.x.x.x.I.I.I.N.U F.*X<.e { XX{ * $ $ . q }.:X:X,X8X8X,X:X7X8X7XG.U N.I.I.I.I.I.I.I.I.I.x.x.x.x.",
"x.x.x.x.I.I.I.J.Z.f.G u.|.,.e m K 7.x # 5 >..X)..X1X-X)..X4X@X[ p.A.I.I.I.I.I.I.I.I.I.I.x.x.x.x.",
"x.x.x.x.I.I.I.I.I.N.I O.XX{ ; Z e.q.x , w Q #.;.^.[.[.`.`._.] . R C.J.L.L.I.I.I.I.I.I.I.x.x.x.x.",
"x.x.x.x.I.I.I.I.I.L.Z.p.i L 9.q.7.m > b f = u -.`.^.[.%X_.u = l F H h.L.I.I.I.I.I.I.I.I.x.x.x.x.",
"x.x.x.x.I.I.I.I.I.I.I.N.T Y P K z # % v h % O ) %.[ 1.}.<.b k N b * v.W.I.I.I.I.I.I.I.I.x.x.x.x.",
"x.x.x.x.I.I.I.I.I.I.I.L.Y.v.> > : k h B v = o ; l n N N C 5.V , o o n.W.I.I.I.I.I.I.I.I.x.x.x.x.",
"x.x.x.x.I.I.I.I.I.L.L.I.W.M.- 5 Q } r.C d = = s g B B g 3.6.V : r G j.Z.C.I.I.I.I.I.I.I.x.x.x.x.",
"x.x.x.x.I.I.I.I.I.I.I.I.W.b.9 Q ^.$X+X_ . # d f B 5.6.6.5.B d o ! >.[ D h.I.I.I.I.I.I.I.x.x.x.x.",
"x.x.x.x.I.I.I.I.I.I.I.I.R.g.9 ] [.2X{.~   + d f N B 4.4.B f @ o ] '.*.9 p.I.I.I.I.I.I.I.x.x.x.x.",
"x.x.x.x.I.I.I.I.I.I.I.I.E.v.& ] (.].>.u o $ s s d h v v N v d o ' ^.$.& f.I.I.I.I.I.I.I.x.x.x.x.",
"x.x.x.x.I.I.I.I.I.I.I.I.W.K.v.| ' ^ ) m j x j j x J 8.J 8.0.V : y ' ..m.B.I.I.I.I.I.I.I.x.x.x.x.",
"x.x.x.x.I.I.I.I.I.I.I.I.W.W.R.c.& O < Z 7.7.A A 7.w.w.w.y.H.t.0 X O n.W.I.I.I.I.I.I.I.I.x.x.x.x.",
"x.x.x.x.I.I.I.I.I.I.I.I.I.I.I.V.n.S * H +...O.@.+.P A c t.=X}.e I m.P.W.I.I.I.I.I.I.I.I.x.x.x.x.",
"x.x.x.x.I.I.I.I.I.I.I.I.I.L.I.I.R.g.0 ^ -.#.=.!.*.b @ @ { $X'.q c.R.W.E.I.I.I.I.I.I.I.I.x.x.x.x.",
"x.x.x.x.I.I.I.I.I.I.I.I.I.I.I.I.W.P.m...! ) _ _ M = . . G <.{ t b.W.W.R.L.I.I.I.I.I.I.I.x.x.x.x.",
"x.x.x.x.I.I.I.I.I.I.I.I.I.I.I.L.E.W.T.o.* $ s s $ t r O = v f & g.R.E.W.I.I.I.I.I.I.I.I.x.x.x.x.",
"x.x.x.x.x.x.x.x.I.I.I.I.I.I.I.L.R.W.R.T * s s $ S B.m.8 d g f & R L.I.I.I.I.I.I.I.I.I.I.x.x.x.x.",
"x.x.x.x.x.x.x.x.I.I.I.I.I.I.I.I.W.R.Y.g.D F F D g.E.T.T F J L D f.L.I.I.I.I.I.I.I.I.I.I.x.x.x.x.",
"x.x.x.x.x.x.x.x.I.I.I.I.I.I.I.I.W.E.R.P.S.S.S.S.P.W.W.K.D.D.D.S.C.I.I.I.I.I.I.I.I.I.I.I.x.x.x.x.",
"x.x.x.x.x.x.x.x.I.I.I.I.I.I.I.I.W.W.W.W.W.W.W.W.W.R.W.W.W.W.W.W.I.I.I.I.I.I.I.I.I.I.I.I.x.x.x.x.",
"x.x.x.x.x.x.x.x.I.I.I.I.I.I.I.I.I.I.I.I.W.W.W.W.W.W.W.W.W.W.W.W.I.I.I.I.I.I.I.I.I.I.I.I.x.x.x.x.",
"x.x.x.x.x.x.x.x.I.I.I.I.I.I.I.I.I.I.I.I.R.R.R.R.R.W.W.R.R.R.R.R.I.I.I.I.I.I.I.I.I.I.I.I.x.x.x.x.",
"x.x.x.x.x.x.x.x.I.I.I.I.I.I.I.I.I.I.I.I.E.W.W.E.E.W.W.E.W.W.W.E.I.I.I.I.I.I.I.I.I.I.I.I.x.x.x.x.",
"x.x.x.x.x.x.x.x.I.I.I.I.I.I.I.I.I.I.I.I.W.W.W.W.W.W.W.W.W.W.W.W.I.I.I.I.I.I.I.I.I.I.I.I.x.x.x.x."
};
