/* XPM */
static char * floor_xpm[] = {
"128 128 64 1",
"A c #4c464c",
"B c #4a444a",
"C c #4e484e",
"D c #454148",
"E c #3c3a43",
"F c #3a3841",
"G c #484247",
"H c #4b4549",
"I c #464249",
"J c #434049",
"K c #3a3a44",
"L c #3d3c46",
"M c #4c474e",
"N c #554c50",
"O c #534d54",
"P c #48444b",
"Q c #4d484f",
"R c #403d45",
"S c #423e46",
"T c #48434a",
"U c #4a464e",
"V c #3f3e48",
"W c #45434d",
"X c #44424b",
"Y c #35353e",
"Z c #403c44",
"a c #2f2e36",
"b c #32323c",
"c c #3d383e",
"d c #39373f",
"e c #433d41",
"f c #3e3a41",
"g c #464045",
"h c #50484d",
"i c #443f44",
"j c #444047",
"k c #37353d",
"l c #353239",
"m c #38353d",
"n c #403b40",
"o c #3a363c",
"p c #413c41",
"q c #433e45",
"r c #524a50",
"s c #504a51",
"t c #41404b",
"u c #413f49",
"v c #5a5156",
"w c #554e54",
"x c #5f575d",
"y c #46444e",
"z c #635a60",
"0 c #484650",
"1 c #5c545a",
"2 c #585157",
"3 c #4b4852",
"4 c #554f57",
"5 c #524d55",
"6 c #4d4a54",
"7 c #555059",
"8 c #575158",
"9 c #4f4c55",
"+ c #695f63",
"/ c #59535c",
"ABBCDEFGHIJDKLIMNOMPQLRPCAIMSDPBPCTAUPVIPJJIAPWXLJYZFabbccdefgghijYEZefdckkaleeamclclcneccoofpcngppklmppGhHjFmHHPLPLYFZFGGISSqqj",
"AHZhFEZgqDILDSrrUWQUXAPMPsIBJBIBCLKAULKJJXKRDAIKJVYYbpHflmcghHgBjREqdFkmalllncclncllkepccenefnfcgGincegiiGAjSZGCjRYFSGZAHASSITSS",
"RSBAjqGjBHSLSAPANttuUMPrvPKCuLCBCXJAuVFrruITISFKRKdEfHHkmmfngHTibFfbnmnlkllloneccaooifYdmFngmGmcpeZZdenihhSFFYiZFYThjfBIDMIjjLRj",
"jSBAIEDDDqdjjrCPsMUTPPPPDLuLJRrJhPQIJBNruWPCBSZESSYYfqYbcefiGjRgGgqeieFmolacegcfkmpmiFcnkniFneigGfgqfpfqASjZFpHSfHvARrDHRZBDBBhj",
"jrPVAISSDhjAjABrOwWCWXTXRSIjjDDwOPVXAwsIXCUNPuFEEYdbqbYZfcdGHqgDZFFgRGEklloccpcccocfclcecgZFGGgqGfmfkFfrGSHZFcffrNvARTrCNNICSIES",
"ACTrJCREDDZRjIPQsMtUPIuTFSLSDhNCIJXVBrQrrsrPLLDfFfbkfmcpdeHigfZqEEZHGEaaconconpefplocncfefGfHHGRGFHfqieiZRrDZHpgHNCVVrrCUPTITTZS",
"hDBsBJIESTqRAhwCWXLKPYBBSEIjDNPXVJITPQQPMssXLBREEpecccfkpiFnqqGBGfZgRkmfdcionnngclpdkecfGihiHBZGGhBhhAgrDBDSEFfZrIBIATUuLSLFDNDv",
"UrAPPCCAPTZNTABPrVVLTKALRSZGhTQBrwTJNOXsMOsXBJKFEYfFcGggHGHfZGADFdgRYZqfigcopgGiqpepoceeGqgGGjjhArvCPIBhSSAFEFqGhTSTuSYVRDRSSMNs",
"QrPsMIuIXEDSNrNPMVKBEBIjRRGSENIOrWAUTPPUswQXJXIjZGqigGGgGGSiGqgqEkcmfbdgqeifeGZeZFppdpnnefgZBRSCPvxrPXIrRjZSfjGNSRDYREZFIDESjhAC",
"OQVKJNJuFdHrAAPrXKLLESLZZZqqhIRBVJUJCXCJOtPMOQMITHjZRGSGHgRZgddZbdcnpgGgFqfdigfqfieFfedGqiGhBTBrMvsUWVJDRjGRFACEZhrjjGjACRHjSTNX",
"IuJICWLLYGhCVIPPKSRGBESEEqEZAYDrJIJIJLuBNUXXUQWVLZgIgHBATTjBZppbdYmqiqfppGqHHqqdpdZpiEiGEAqDCrADwUsutXMVDDRZSrCArwrMCBhhRBBVBINu",
"KBILTKbFFhTTLDBMFjCBSjEFdGYqSThJIXPJuAJhVJQJLPXIKEGIBjHNjILdqRigfpfgdEqGhqHAHgRqfqqkiEqgqqSHALjIwwyWKPEITITjINvOwNJBPPPjrrwXPjKF",
"SMTvLjjjRATSDPJRLIBTDbkdqZbdqArLRLjhPrrAMUIXIAILEDTCThARTESDZkFffGGipqRNCBBHjTGbnfdpddfkpEgGBDRrhPQUrIhrTTSDwNwPsUVIrIINrMVFBIES",
"hSjLFjZERHSBSILSSAJEEdpEpYkYpBIJDSBXrsPUDCCWvsPLIDAAPAujLYEGDHjZqGgfGghArAhrBSTFciffmfdgFHgGISSBAvQQKPXMCLuhwwMUvLIrwNUPOrKCBAES",
"DZEFjIbYGdRFEFESRSjZEfFeYmfpiqSIujBPNJCQsKLsUMUUuEjhhMMLBTBhRREqEZRqHBNrPCTCTvKdigHpkffgiiEgESZINQUJQIVPTBCvvzsQ0trvQwvvzQPwPuEj",
"RSSZBFbFkFZYFFBFEEdYdbfYdmkdpgSTRRZjVIXALVIrsQOJWjhPjBuMjZjBqSjfYpFRGjNIrrCUXJKYgiZdFcpfecFfSGjrhrCurJUCCPww1wtQs2zO3sz4yMMXPJVA",
"ZjZSffFmifkfZfdFdYfYacgFfmmeggBBSZGjjNIJPuIIUMyQQTDrADSAAZTCDjZEdbdfZBTArUNIDJZZZfdgqgndikbiHACAPCtCTuUNPvxw15y2zvx4svv3tuUtCMCJ",
"FSfEqSibpmfpFmpfpcFaffgbkboifcfSFZTGvBJTVYSCKUQWuLNDAIwPDIRCIdFYkmocgFDIIMMXCABDEfgZqffkcmcGHAKADssQPCwPswOsvOsx233653s3OOMuPMPX",
"FEkESFZamciefpGqZdHpcblpleGfnffZpHSrrAPILDSSDrUPPuITjvwATUIvJjEZabppmpHhCvOXPDBjdRqEFHfbkimgAIDrhCUMUsPuXtOwUt0360tws42v5yOUPTPL",
"EEEqgbFqpcgpkidFpFiefhigicnkpfhHHBZBPuBuTBrjCwJPIPAPwsUPwQCAMDZdFdmnHHGrrOWuKJUKSggGhCFkldfGNINChrNQwUXMIvsQsuQVXWQ552x606wwPPLK",
"FRGSiFeYfiHZmpfppGZiHZEgZgFkgfgfgBBhAPLLEPvAChQwOVrrQvvssUPIVSEEYdiGggAvMLKuIMXVThrvCEYdnnhgRhxOwrMsWQ1QwOvsKKLJUQxv4474y54U0XLI",
"SEGSYccfFeqYbfkcqkdZddEbbaeccfGfiArAKbFSCCMMhUJsXXwUOsQww0sPuIZfqdpGhHrTJLALACJuwAATuFYHHhhGGNx3syUrUsvOssvtKPCVOw22658990yVtVKb",
"bqbYZFffklndbdcabYcdmfkFfckdkpniGNuIEEqjjMAMsYPOsXCsXUOU2x6yPMPRYFfNBhTBTNJACuKvsPMBESHArGHjAvrUs0sw12sLWQsyQQhNxQs5w56363LLLKYE",
"YfbZkcYmacpfbcocomeccidccacaccgiHhEFZFgHAITLuIwvUQCsw22w050XXXJEZqGHjAABrPBrrPCvsWtDERrSjBrAGvrrww2sz0LwMQQLXtPQUww5462y53KVXIEE",
"RZFikbmbonkibemlmencpiYcallllgiiqBGZEhCCCABBIwwUQuQ12w4sssO0QXURDHHrTDRCCIPCrNvwtJuXKHBIhCCjUCOwv14+t3WsyWUUXQtPMs14w4y5ytyXKFjd",
"dfgFaofnlkbfmaaaaclpmbmlmkonolocfBEEAAAIRdSB1vv2Oswzz21xxwv0s0VPwvvMDAwwQQvsssOyQOAALAjjAuMwCBssx59030WPWQOuPtWrs259ws30tXPuYjEE",
"ZdpkcanblccbaaoomlecmbkaacpdlcpcpRESZDIDBSAv1Ow1wwxzz91724642sQ12OwQArCswssMs1OWQMsVKZZSDACNIXCPsQtLQV3sOUXPCWNCPUQs9WssOUtXTRfZ",
"jYdbcocamnnaloolacloacllcnnpcpnoeGGYqhPJjBBNswz44O1+z11/x9x1635x5243M1wPPXPsvv4svXXLYEZSHINVuXVuXXuWQQy3OutUWQPrrss0UyUWtXJuJjEi",
"bbdedmkkclclamlloooloblallnccemongkdejRdRdZAM1O1z8+xz+7xxx+xz6s1425OOssPOQwvvxsxsyXLLjdEjNCCruPAAItPQss6XMLMrWUv1sw2w0UXWKLYLZYZ",
"bcgkkalolmlmlollloccolmlmcmolbalecpdfYZIRGIAww5xz/8z99zz6938598x53O8sw6UszwOQs4W030BLEFBNrCrUPwvIMVQOQ3ssVCPPv100U5UVuuPYRRTjKYi",
"fcclaollaomkacolcolmoolllmollalokeccdmpZGTjhOQw176x+x77/z7/115xz75264O0w413Uxwt006XVYEfZhICOuLvOUPvwvOsy0Q0VswQU3LQVKuKYKLjBZZGZ",
"FfdYboaonocoplallaaaoaaalcolmcelnokkecGGZdjNsQszx5x76997zz++z/xz95/89x45349y3WU0KbYYbjRGNrrMXPvsXCw2M2yUOQsUwsUMVPVKFbZESEFZFgER",
"EHYclllcoccnllalllaloclolnnmnmllcpldpigHEgGhsss283977918xz+7//x775858846540UUsyVKKYbGAjrIrDAOrM2PQs21WQPOOw1yWssVYKYFFZdFFSFGjdd",
"qEadbaolaaalaaaoalanlllaalloaamlcoocmgNhjHAIMv1203604zz1zxx6/x/6637yxzx41102s5OKbbEIjRBIrJAVvPUQU11z2sKMw00tLsyVYjEYZZYdFFEqdfYf",
"dbabkmlclaaaaaaaaamalccaloocaoalceccpGjTSHSLB+1O9Utx81z++/z/7x/79/4zx/x98W013QWbFZAZBEGwBPRBCwWVv216430OsQttKKPKVFRZEGbdZbFbFbfF",
"blllolclaalalaaaclaaocoalloollmecoplghBYjrBBxs33yyvz/zxz7xzxz/79z7+z67566043XtLYbBHZAhhrMNPCwUOrOxy0033v4WPYJNJVEKZFjbkmFfepcnGk",
"aaolllnlaaaalaoalaalaollcconplcclnceGhHZHCAvwXXsUO1O6/37xx/+x7///xx74/30350WLXKLdBGRjAIAUCXDrUOUws3ss4s2yVIwwsPDjZEFEcemgimfgpdk",
"nncllnolaaaaaaaaaallaaaooocinaaloncpmijZABACPUOOOvO255/z+z+++zxzzxz/x689533tuKYbGqGBrPrTMsNvsMQ0s3w8x8443swtsKNsLEfGHgbkmkkpfkcm",
"lncocmolaaalllaaallalalnmonnmllcneflghjNCBrBPMwM222zxx8+z++/7xz9//9/70y/x93LKKZjTrCrAwMB1sNUQPQwQyvW442773wUPUsQLKANSSbadkFfblfc",
"eeccpemlllalallaaaaaaaollepflloomccieGGjYJCTBXMsswz66xz+x/+7z/z6//+/6y76070VWuSNNrsOOXNIsWUPwUvv0vs85248/430vs1XLRAYRYbnllokkcpl",
"pginpcpolaaaalaaalalocnnegfbonolcpcppijfZqDPrPsssv931zx+++z/z763/x/5309W46ttXFISDCMNVXPwwXLUVQ1s45545337050yQQ2LLJIYFYdklocccfpe",
"ifgdYbncaaaallaalalllcnonifklmolpgnffpZdgBBrPXtQQs0wx1z+++zx77/69x/30398876LVLIIIjCrPsrsULCUv2zQ5400svzz/V4Ux5W3LDFETZFkcnifcnco",
"nffmbmlaaaooalalaalaaccnnckboeoegndlniFiHNvLFLCUUQUzz1xz++z7z/669x905t9x/90KLBuBrwsuurwPJsOUvxw0x540127zW694t4tsUVKSRRfipgceddln",
"ccgdbaaaaaaaaaaallaalolkomncoakcckpnGghHGrrTCNNwQOxx/6xz/z/73y35xz//y7x130yXWIVNhOMLCvUvO1s+x2W163U008xt60tKQ5WsVKFZGDGSiqccckoe",
"pcnmaaaaaaalaaaalalcncoacpnalolpcpGgeGhNNv1NMwOs1+1xx8x/99639t39x//75641z5503VBNUturrsws2x2vvwv205LQ1z952y3XUsOOXUYISZABHdkfcfcm",
"bcedalllaaoloallelalllonnenkieineGGFghHBhwUVXUWsvv/xzxz7//760/8zx79333zz6303tWwPUrOvwCzzz65zx+z5132wz11x93WtMUWyVFJISNASZSGFfflc",
"cecaalaloclclolcollnoepcpecnceigehDHHBCjv1MJAMXv+zx+1/x/3xx956/x7/3/34zz7L030Vwsv111sx++42x+xz77529114x655tJOUv5VIJDrrPMZZFYdbkc",
"knclcallmaocoonloocaonncodbocgpcGiAEhNNwAh0Jswv3t376tx77xz7x+//9/684xz133y53QUO21w1Ux2+9xzz+zz0z445z4+81/09y0vs23QWCAJIFEDFHbdcd",
"ielbalcnaoecnanmmoemnmcolbconnfHHNGEhvsCUMsUUOsUQt0L6W97x7x++zx09/7x/1796733WVOwxx124z71xx//x6+x089+5zz1/396sswUsXsPXIPFGSZAbdnp",
"pkaocnelalcelccplmenlllmollogipfGRZjCrMPJPPQvOQPJQyVO56391zx/x56858895909WtVLOO12809147/xxz+x/x/3+zx+7577366VW35yKJLBAMIBERSYdpp",
"nboncnnalclooanmpncplocccmlnfeqAGfjhhCBVVBCOsPXVPXVUyz/59x9xxx7677777969y3tLsvss695/864z+xx//3x67+/71z/676890650tWVwNCQVLZEZfFpf",
"ffnnckmaaoolclcclccomloncnppiegghNhrwCTPLhwvXUPUUCNv2v6817/7x//9x1x3tWtVLtQwO2vw14181x1+7xzx/5z77//+/x3979666ts0VrOQMuKRDDBRjAGG",
"GgkfbaaleoocaalalceomlmopegGggHDhhAAwPMJAMPsVIQPPMOUs0y1+767/x773730003W0s0Ow2w5x446x4xz7x3z95/97+x77/z41xx1tUQyVvOsWVITjrIIhrHA",
"jFdnblaolcolacllpGcallmnceegGHGvArCrJEJLBBUMXPVVsUQX3Ox2047x5/76yWt395Ws0Uyv415O535881/6/77+/5y6//9+z77/7t860KQtwUVKQVJuhPDPBTIZ",
"RFfpamccoolcccnopofklcoeggGHHjhvNQOQVYFBCDXKDICBXUwsJwx3905zx/9y5yt159y65zx1v140y411/99x77++96775xzx/9z796/0yWttUJLUMLrLIuLAVuuA",
"BjSbkceoncccppcnlemloopofgZjSZHhCJPXuIvwswwCCCJArsVKsQs51x7+7t3y0Vws9ys5L01561554OO79915xx77x611+x+xx/x/5/68W83QsMULPBAATPJSjPVS",
"jDYdfemcebmpoegcedcmckolefbZgjHNUDCJPCAPJNQQPLDAXKLvOOs9491636t/60255y0VW14486y052595489/6z+7z79/+z+z99/z949W30yyWVRBUCTDLSBCPID",
"IRfZfccikccfoHicFcpkckmicloFfEBhMTCThAwrOXWtKLIDJIAQwQ2v5z7545x8WW430Vy0Xss99t92z59667/x/z/79x1++/z79zy971003432UOWTwArKAPTDNVMJ",
"SjIEeqmkclcckgipdfkccceklllnHHHIuLIX1rPwtLXVELSjTIAwsss298609x9tW350tLWUsxy0934x19723xz/4x737+z/+x/x7x/7xx533t25vXWNJCuXNJXBNJAY",
"TESFkbapmoocnnYlcpiegoflllopGDqBIIJIvXMUyLrVBCCJRTIPCWQt5Wy3ytyVU054U3wOwwws9v356yVt4z1478/z+/+zz/x7//77+/7944341y0sVBIvPThIWUVu",
"LEdbkbiGFGngombmofGHFinkmnpggYqDILINvQQULIXIIrQdTTSTAuVQ0stW3ytyU96tsQUwv4OQQ3454y15+8/5/1xx/+++7//x+/x/z90t63x10tQQuJCTAJCCPXuI",
"KEYFbigfFfFdmkocfgGHFqfcbecGcdfDASThVQ3MPPCCsCuJTjhjAKCCUWXQ5ssss2yU0OsO4440sO432/6z+x/++7x/x+z730z+9/7503tWL9ttKKUyVTsWFJJXXjIR",
"SZbkpegFdfgfcnfcnggFdmdamlngfigHRjSrCOUKLJCsNPPuJSDPEBhAMKVPPss02ys3XWX53160tw525x1x+x+++/+/xz7/997733x69yyWsUUyKPUKPXPQVNQCPJLY",
"SbYmdcgfmgqbdmnifgGgqpnelgiimfighIIABXXKLRuVLKYKXLjjILTstXwss0VUt352sXsss3t3yO2s2619x7zz////z736316t09/tt64WWyXtVXVPUXCLLAQUVXYR",
"YbffeGibncpcfngmGHGARgFfpegciipHjRZERKKbZSSRLbEZZRDIjTTsCMOPU0yLPsW0tUPUOtWV22v318/87z+/76/773955067/89668yWVtuVJIPTPAVAFTPVXbdZ",
"fqfcfppmggYdiggggHAqDgFfiGqgkfiGSRgIGTLRfdbYFEZjZIjZAANCsCXCsPVUvsXWLuuCKJVsx651608111z7z0zz77/z55176951199y6UQTwUJPPPCPRAIJFSFZ",
"BEfcfpipdnfeGGfpHghITjrBDgEHGqZGhZBjIREFdYkkbegSDrIBBRTwPVJsXtCsPUXtXLPuICUvX5v583z+zz7997zx9x33z7957987755520WPsVNXuDMFIBBYEEdg",
"jBdfeiqcfpchNSGhGBDJBrrLZjhAYqgGfRdbFEFbbFfFcGZRGGTNhrUuLVAATLVVLVrQILAAJTNJ0O3565/7/y007/763/77/95/14x/4t194yuwXJKuKLABEILSdRRB",
"qqbGafdkqHANGBTBGHHTN1MhIIBjHqgRbYFbdbqFmpFYeGgGDEqNJAAIVIJPLLFuBsMtPDjKuBAMNs5452zx730647z/709x998x6x/76564W6UQULIYBrhMAJYZZHHq",
"FdqFnfgfGhBNNrACABCArwQuJjIASRSbbkkdFnmdcGEiggASRBTNLuVRLEKSKFDBIPPIVEjLSIUVssvs4xz646/xz+3369z679891796594t2ss0LJVjhACTJREqghIT",
"dfGRdHgHHhhhNsAVhBNMvOsPKBTIDESfiblcddmiFddiZZFFGEqZREDIKZIFZGGSrwPUXJZjSBMwQP2s4286x+3zxx057/3364/183704065X3tyUJKZIDIIYESSGjSb",
"EEjGqfGRHGNC1PrCNPvUNsPVDRjhJZHIjcmpfffbknqpFbqgEqSHISZZFHGSGjIRrPKuMKERBHrCPsQx56x//x4859/x+755767543936045sOswQVLCCACTujjSSbbF",
"qNHGFhSqGBvvsOXssvUXwtUUMATMIShDHEFffgGGcgpbdFmpHRfjSFREYFEDjEBAhKDMLFSTEChrIQv185xz69/76z7z670445175375tx5944O5VWXXTsCPADTBbfqp",
"HBSBFZFARhhwOLQCwUPQQPOMMVVSBhCEHEfieHqqfhfgfniGGRRRSfZqFZfZFDCDFZAJTKSEEDhQw1sWy207030/57995/0x1+z648534963yW33XPCuDuCuARJLYHFp",
"ffYbZfRgGANUPNvsxvQvQUQtLWBChrVjSRfGHZmYghHdkcdiZqEFFEZFGFjffgGRRhTPLIDqDGBwsOX3s6s20398303/60x8+z31858436WWWs53LXXVDTLLKJKFTSqp",
"ZEeffHSDSDTuJsUO5U6yOwWswsXMrWJBjSEEjZkGhhEdYieghFkfiqfffqdYgHSCESRFFIPBCASssuO52195x335411x7x+1z//753589955sUy3uUFRRDDLLjYSREFE",
"HFqfGEHDHTKIwUs0tU3QO3WssWWNUMKJjbZdggdHAhTbqHAHZFFFcEGGEEFgBhIRIhBhhBhrrDrPJrss92y/t118/x+7/9/1/977976/6t39VUOKKbPSBEIBLdfEdSdZ",
"FHGDgqSZjTjANUXvQ2s3QtUXQtJPsLPuZZiBHAGNBqFRYhhrFqdGGgjHfFihHJqhABATJNwCMXCMANOs0y3VyWty43198x+/x979/953WsyUVOVLKFYSYIRSYdbcqZjq",
"ENBZEAfqDDhBrQwsty3WuWWMUUXCQLYKDSSZBSGGHhDjGhhISRGHqGDBHhBhGIASTPShw1sJrPPPXurUVyuut21219+/77570/zx/93yOtWtuLPUIJETZjjSEpZpZFYb",
"HASEfdYfiqBBCM10JPsQLXQPMXUrsVuDjrBNrTShCNCBrhNDIAEGRjhSrDrThTTRBINNvUVTwXuPhBCTVYFtVw4vz/+33/95+x0009V03LUuLTVVIuIREEGjFEdpqkpf",
"GHLdZAGFigNDvQv03MXVPOwXOMsOOJVTwwCxOJhhNCwrIAMwNDjSdGwCrrCrXIKBAr1OwQXAXXwILTCAKFCLMOz5z+5y75507/y634063VLJVJVLDVjRgShEZZFgqiGi",
"ZgEZRRjRRArCrPssXsyUrOPUv3ssssUQsMwvUXUwsQvMCr1QtLTDZhMPAArIPLShCBNUQPXMXUNtLIMJBrCMNw441t65t4yWW3y60t0tLtCJLASTKISFjZTDEqGAAGgY",
"fmfYpDIRhhvPUPQUWUQQwUQOO0OsyVKVwM2stOQOXOQPs2MsUCLBjNNPCTTWPPATNTw2PsuIPQXLuKCLhrKBMC283W3t9VWttX0tVLVsWXXKLIFZqIZFZqCDFHhABFEq",
"qGdkBAGADNIrNPwOsQUUwUUOMw05KXPBPMOwWvXwssMwv5QsvXLJwA1NruIVLDTAJrOUsQPMOPLVDBILTLRSwIwKtstt09KyUt03stLLKKPVBVbbEYEbFZBKbvIAAdfZ",
"fqZgHAAjATAMPw2wUWw2QsvO2s0VOWCwwsQuQUss22QsO322sXMAArvwLLFLTJBAVLTLXQQtXXtuBjDEITESTPPXUQ300UtWuUWQyyKLJMYEEdqFYZbmdRjjEArCPSBF",
"ijgGAhhGCjCAwwQ0VsvyXs1WwsXv1XssrOsswUssO2W1225243WPPOvXUIIBBAAJjTBhrPuVALCJBbjBTjjZSIVPwUtQXQLFKIIVYLLIELKEFYZdqmlcpiqFGwrNUSjd",
"fgRBATACININrQsX02sUss13yvv146uWyvwss1w14O31Ovxzy2tWQsXWOPSDhMIDIr1vQOJUPCJuLRBjZjdHSjJrvsKUQUuTFEYEKLRRYSEIYgbfdYYbcnZFNNUvXDSY",
"SGGhZGICAABwvUXssw3Wsv15Ox5150Us1OOO5w2W49sO2vz995Qyv3sw6XVPhCCrAwxyUULPPJLuIIACREFSEvvPOsuPvWuLDTSSREEYjYddYdYYdaaaecHqHvCXUPRR",
"BhCjIDAPIU1vQKuUswU05w62z/46303vssss14VU03041z+93WOwsv12sXPPQJNhNUXQWUPCIPPErBABFYkSDhrwQWVsXKLDLZEjEEZgYEjqEdfdaapnHHGGNBrsCtDj",
"SjJPDrNh1+xQtXMvsw6sw9x5x9y54y50Uvwx243w1O521+x955354s450WUJXCrUPMCO0PJJMjuBATTSFYFGZNJPUuVKJKLBSFSZZGffFbZRFfdkdalgeHhANNvQsWLR",
"AhIIhx2xxz4XMswxsv0ws68x9533y309O24x3O4619x11/z/x845864y0UVQPPUBMrrsXVJMAuAALuAubbHfGZNCIXLFTFJLEZZGBhZffBRkkdncalcpHHHrwvsOWXCC",
"APVANvUO549312v41w3wOv206865s948242y4x+z7z7x/++//8W260s00wysQUBPUsUPPXUrLLPIKLIbjjiAShSTIFLRDLRKYZjDAYYFZZfiefidangHqgBCCUU0WQtI",
"rACvMQs25212x41x56434OOVx7154x7350231++z4169x+z7+x31x0syO522OvUCOUwwwMPLPJTEJBEDBEqSjGhAuECPFEDFDEgDRGkfghDiZGcmkGGhZHATMTPXOOsr",
"wMsvMQwvz1+z1778306w24541919791793x9z1z6986z++xzzx39t5W5w520tOtVNOswQXLJPVLSEDYTdZqgGhRSZFRuddqFBGdjREbqAbqfqZfmmiGGhGSDjAPM2QXM",
"OMvsQss1z+z7x76Ws5O61517x3033x746+z/x+xx7x8++++zx777yVs02s45s0QOPWUtLVLLPJSGSZRfZFHjHRqESqBSKSFYpZYfpDYFRGgFgiblpHqZGqHHhNrvswsv",
"1vw114z++17//99xx46t16z83449231914x+/zz6/z1++x+3z979ts623O600s00XPQLVYjTIJjjTREfYfBjZjZEECDIDddEZdiFgEYiqfqHGYbcHhghBGGCw12ww6U3",
"81+x4vz+x3377174740y21918830555/x++xxz76/x+++++xxz/9053s330ytKOuwUXKsuBjCCRDEYdFqGZHBIYbHZrrYYFdmdffZjFqGSqFEdmHhHjArCrw1ww2Ow1x",
"4+x8++zz51793t4/90tt11/75t0142218+++x977z+z/x/+/9y7096y6s3Q0WQQQstVhPIDBCCTBEqEHjHEREFEZGGSYZFZZGhGqiGEgiEdGfdHrrNNhCAvxx+zx9304",
"1z91/87z70649x10t94ts313/5x28520x7zx696z/+z/z+667y690W33ytUt0sULMMPCrCVhUrNCLTYHGGFSFEgqABYDZFHAfBYqHFjhDFgEdHNhCww1rO1v+z15551z",
"x+xzzzz/9498x757279yss933345x9541++/97/x+x79/x/99763330sytw3XyIXMOUv1yssvwLKRZHGSSBIFdGBGhjFFEhAjdYfYGDHEffZqgBArMv2OQ2124541x1x",
"++///x76/55x/6777940WyO6O481595x+z/99+xx+/75/97z/W006yt0O3Q20XVrQswzv0QsvQVVuFHjjTZdGiBAIEZSZjHSRfYkFGqTSFqFqrBAIvsO2Oxxx77zz++x",
"++zx9767771876zx95035002y5397438+zz7z97x/6t976035Lt903tQ43s03PXTUws24yurUXMLDGNCBbdiqDGqEjZGGjNAbYkdpifGbRfiijqICrMw2v1z88/zz/77",
"/++979187x766z/04986t0QWVW06y568xx7xz7//00013030Wt03sWyyt3yVQVVDvw1236sQyVUPrLrJYSEfgqqjSFjTRGBIFdpddpFERFYbFgADTrOvs1123561z/x7",
"xx/7/7/488W543ty5909tutQMs265118z/z/9y60yx88386W9t33660sU0UUsJuUvww53y3tLUPTJLuKKGdGiGZYREjZGjjYbbfcHffFYFqpGHhBvNss3609152z7/x/",
"7xx7/x/6/0630t3Wt53tuKtPwww11z/1+zz953t3x7x//8920y43ys5ssOVJQKAPsww33yyuWMVVIVFFSREFHGdRRqDBDBRGRYdpkbkmpcGgfhHABrUUVy4177zzz+x9",
"7+6t7//97y50YKWy34tXutPUw2wwz891z99/9667/x95087VyO20tQQs0QKOUUCsUss2233WXXPMLYEESjSZgEdfqqgFdjbZYbpcYmccGGfirANwDCUUPJ6O17+z/7/9",
"/3y67//33W0V0XXv863ttWMrwW5z473x6//7305zz/676633ts00ty6syWsVJVJTwswsytOsMPIKFRqRddfEZdZGgqYYZSbFakfbdoccGqiqDvAKBjLTXwU95zx/1/96",
"335/+730906XVQs136tUtUVBu11256//787t058/x947333tLtOWuUswXWyUBVVNwUs3QsXyVPLDDjEYYdqppFdiqbYkcdYdbkocockgfqgAAdEjKSjEuUtQ+z//5657",
"4//473ttLLXLswwwwtVXPPXJrr00459565W909/911/3y0yWXrXtQUOUVsysKCvrrQWyysPKMuTFSYFbFEfmYpeqakadbiakllalklckpqgHGFFFYjIRCBOxO8799y5y",
"84946yt33300XQU3tVPKtJUUwUUw32369594W2x/7/90ys30wXtCsQssOOQsLIUWUQMKUKaIubbZDZkYpmdFbcfmdmmaobkoaalnlackkHBZbEpYfZZGIBCQs1490tt5",
"/1563tt3039QQXPLKuXDLwWKTUJXU300405692508766y0Xw6vOvvsvwOQXKJAKLrXKKbadFEFdESYaYlcmccldacfdlcpkloaoolaoneGGdcfckfYERAAMUOx865335",
"962606O4sOtWWXLPJLEDTMXVMWUPsQ06y545566675y4y9w3ww163OxUOWKhVBITCKYddbFdEaFqYYdboddacfdkpmcpnoclaaaaaaolprEYbkbppmfqSjrrO1593526",
"2x700s246ytXKbLVuKBACBIUPLXPruPuss549953983663t51440x4w25QMPPsPMKdYZYYkFdFfbfallmnmlclmalmfiallolaaoalnccekalkffYifpihPBO2250963",
"8155610W5VVVVbFEbSDCDMVJIIIsuIMM255296t4497W990423V1z05OstMUJAITLdYdakdbaafYaacoccioncmlmocbkkllaalaanolokmnegfedkmkGjACxx103W0t",
"5z695WX3WKVuYaESqSSDBSVrPJSIhwXw12429005w30543WO80011904yuKJLIADRFZfkbaaamalcpbpcgmcnokoonaaaolaaaloaloalmmdnHfFddbeiRAvsx13ys52",
"3099WLtVbYKLbbgFFdEZEBIPVXCCvw22v152y6OO3wW33t0U2tXsO3tyWuWVEAVjYEEkaaaaallamalcpandcedannnaoaamaaclllccoeceifdGfbkiGNrwM0t0w450",
"Qx8W3XVYbFFFEZqfigAARISYTuwrvv1164560233yt56Q3ws00QU0KXXyVPXBBFbdbbbbaaalacccnlmnbeGfGalpcclollalnooollmnmHhHgiffFciiAPBUPXs3t0V",
"x9U0LLKKYabbdqEfdggjZYZqjBNvUO116290ysUyUQ30yss0QXstXPyUPXIKILYYZFFaaanoelenlcGgegeigkongfbmllolccocollloHgpiGGEpZpehhrCXPuLKVKs",
"y0yVYKWKdfpFfjgZZRhZZZEYB1vvuwx93z34yt6wUQyysyrQQuVXsQOsULBuFLddEfmalcloeelnieigpegcqdfinopaclpcllopooeoeeedGggiHqGghDDDMJPCJJXr",
"OXXusWYYZgHqGgdEfgHRFEYghCwQWssW13033s1syWOWs0tQWXTDPssUXXuLEqFqYfbalpnloenheHGZgGqggqqZdpcngkllllonlnpHGdbffjBhTgGGZgIAPLRMPMIv",
"UUsXLVFBPhShAqFfghjfZfkpGjMOQOWWWw930yW05QyQUKXQLVXNWMOQYLKKZEGFFkbolnaaciegidggAEZfmcFBdnpdbaocacccdkGHYmpcchBAZSSGfHjELjDDCPNQ",
"XQUKFLISICEBEEZgZRZZfFkeghv0LMtwQ3yWV2XUsWMtVIsKKJXXJwQWbTjSFBjYmaffGcomnnHmcdhqkdffYpqEYbfefklalleccklFblfhqGHSDjTRZDABSYZBMICu",
"JJLVEdSLCIKjjDGHjHRqZpqGhrNWsXPuvwsts0usQVLFCPCrQBPJJBMXIILDZEdbbeigelaoggidiZEFdfiFqddkpfidkbllaoockmllmlgGZGZdRjFDjjGAAjGALIVB",
"DCIFYDTjhISBAjBGjDgDiGZgHHPCUVurOUs0sVVPWuLICIsvXIXNABVXELqFZFbkcGgpmkGmenkdmbddbFlbcmYeldmbamaalaaamaclocokkYEGhEBBBNAAjjhRFFEE",
"ZKdFYhZBNsrhJPIDTrRBAjgGhIhACVKsWy3OOLKKKLDICwvUXswXJRLFLLRKSdbiHhgqZcbnlaolbaaalckkkcmlamkkclallolccnolnghfdnpAZTDhhhCUJPSSqDZF",
"fYdYZBjqrCPJAAIANABjrEGABBhPrLIXPUWQQKFjIrIThwsQWMQXYESFSdYfFaacqqEkFYmoncmollciclnnclllkallloonooignoleHGqcffhhhBIBArLFDNTASEhH",
"SFpHBADhrTVMwJrrTXIrCAMADHNTXJCIIANUKKjCMAPCrsQUOsuYYSEFEYFaaonGHGSdbaaccnclocclnoncckfcollnenooecnemoeGppifeegNSZDwADKFECJPIFRd",
"fDgHBZEZjDVCUUuUCArrIrPuIrhLPuPTITMQXrPhMXVTAMOXXWYLGZYYbbFbHdfigjZfkpfgccbaamoollpcoooocopnbceolopbkfnenggGiFrNCBTJLbqdHBMISFZS"
};