/* XPM */
static char *wall4[] = {
/* columns rows colors chars-per-pixel */
"128 128 69 1 ",
"  c #060607",
". c #070709",
"X c #0A0A0C",
"o c #0F0F10",
"O c #111113",
"+ c #16161B",
"@ c #19191E",
"# c #1D1D22",
"$ c #1F1F28",
"% c #222225",
"& c #252529",
"* c #2A2A2D",
"= c #262631",
"- c #2C2C33",
"; c #2E2E39",
": c #323234",
"> c #33333C",
", c #38383C",
"< c #363642",
"1 c #3B3B44",
"2 c #3D3D4C",
"3 c #3F3F51",
"4 c #414146",
"5 c #43434C",
"6 c #49494E",
"7 c #444454",
"8 c #4A4A55",
"9 c #464659",
"0 c #4B4B5C",
"q c #525255",
"w c #51515D",
"e c #5A5A5C",
"r c #4E4E61",
"t c #535363",
"y c #5A5A65",
"u c #565669",
"i c #5C5C6B",
"p c #5E5E71",
"a c #606066",
"s c #62626D",
"d c #68686E",
"f c #646472",
"g c #6A6A75",
"h c #666679",
"j c #6C6C7A",
"k c #707076",
"l c #72727D",
"z c #78787E",
"x c #6C6C81",
"c c #757581",
"v c #7B7B84",
"b c #7D7D89",
"n c #818186",
"m c #83838C",
"M c #89898E",
"N c #868691",
"B c #8C8C93",
"V c #8D8D99",
"C c #919196",
"Z c #94949A",
"A c #99999D",
"S c #9797A0",
"D c #9C9CA2",
"F c #9F9FA8",
"G c #A1A1A5",
"H c #A4A4A9",
"J c #A8A8AC",
"K c #ABABB0",
"L c #B0B0B4",
/* pixels */
"+#@@#+@++#+#+++++@+##@#%#&&&%&&%&%@&*&&&@@O++@##%@@+@O@##++++++X+++++++++$+++$++#++$#$##@+O#++#O#@O#++++++#@@@#@#%&#%#%#@@@+#++X",
"@tftt882tt0080020fttwwygkgjvkkddlgzzglya680102twtwr80777393332$.+393<3<399933u2272990isi0897r19rw77t797977t8w0y80t6yfwyy8wt082-X",
"#ith0uffftftxiijf0jscufpibnmmZMlVnzbMnc07u8wt0pfifihp9puprrr3=$.#3rrr39xuxrupr9rrrptijfif0uiiuipp7thh9iutifigfutyiivyjcjffi0t>@X",
"+yiu0trut2tiiruw0ufifi0iycmbMBBzlFCcld8287>797p8up0tr7tuu3r3r<$.+3xrr33uuuuuuur39r9ruiuip7rt9putr0fpupti0sufsiiiyijgujcifyptu-+X",
"+0i900pu79ri0u87t089008ttfligmVnAmvgvu<89772r900utuptrthur3rr<#X+9u3399rruuprr3973uiuuuuu7t0ip0uupfit9rifiiywfufljvityysfjpi9-#.",
"+7ur0iu29r7iffu287s0uyw7iwyjcnSzvZdnyu133tr9u9tiiuir9urur39rr<#.#3r933rrrrrrr33r309tu8u0pr9ii0uturhituiuiutty0wijNcitsfgiiuut;#.",
"#1frui00710tf8jfjiffitiui0pgzjzcjizif52;19r7t8pufp9<9779rr29r=# +39rrrrrurur3rr2ru0fstfuu00fu7iir0897uttjuwi0t0zbjjlgtgsffti9;$X",
"+09rh2r200uwu0wfjffwdjlffiuccjsfdssfi-1tr7199t2i093ruur73r93r=#X+3r3rrrruuur333r7upufpt0ut7tiw00u7t5708yjytflcbmcvsdjysyjiiut;#.",
"#92irru99rtfiisjswsytgjfff7fccctflst1<t7i029927ui2u999797u337=#.#3rrrr3rruurrrr97tuhpruti270w08u8h7<iwri08sjjlcbmljgjsyfispit=#.",
"#7uu<ftu7r8uihjiisiuitxijhyifidbNly;=7s0wt00<80tt99u207r373u7;#.+3333rrruurr3333t9jxpu07i7075270209220tuwfsijlmcvssgi0cjyfip9-&.",
"#9u9ui9rritrvcsiwlljsifffiiii0tust,22puutyvurur0ut977u7233urr-#X#3r3rrrrurrrrrru9fiuhiu0021r77777732ri0ffjjfjmbjglsjj8cjjffu7-&X",
"#iuut07iu7ipgffgviyytiyffhuu7uiiu99tt927uyfgyfivvggfit722ru9<;$.#3933rrr9r3r39r39wtyftt0702t0rfif729utiyitjflg5yy17w8yjcjffip=$.",
"@si90i1rf7igfgfcldifjwwfsiituiiru1utt9<7ufyycvlnBcsjcf00932r3;$.+3r3r233933299r399iiitt8u88iuigsii99tiitisfsfwywpjttffjfsf0fu=$X",
"+it70t<08ttfjsimbgggijgjchitwiit079tu2t0ww5dulgBmblvbjcbjtir9-#X+2r3<3r3uprr3<3uir0r0ryu0yjiufgfl0jrfhuiyifh088ufj00ccffi8ti7;#X",
"#5u9t87999ijcgjvBlsgfmmmbi0t9itt500rt90w7t2tjvfvBjlgccbvNNpt9;$.#39rurrppu333r3pii7ttwjwiijdilbmjyuffiufyfuitiysfs0wfcvs0ip07=#X",
"@<9ri9237tfiifvvbyglvvjgitft9it970tr12270wflcnsNvdljlzgjlN8u0&#X+rpuprururrrr3ppitt0t0w0ibjvgvBvzvlyuiufhffft5gbjgs0lcytjfiu0=#X",
"#99rtr770tiwcjjvgvvvlvbjcyy829uw877772,0tutnvgbnbgvbbglzbbu8t-@X+3uftpitifuutttpfuut0tijdvjcvmnllvsysu0jfytiiwflvgg8sfyjffuy0;#.",
"+7t9utu72800jjjnnmlcbjdvcvyt0ir727w7u00tfyvvtvgzbzdglsllvn8u0;#X#3hiftut00wuurfurhi0iputijjzVzvllziyywijifgsiufsj01igtsi0itt2-#.",
"O1puw779riwgjffbbdflvvzNblbbmggbsr0077isjjgifgfzjlccggfcvdjt0;#X#7uuiftuut8pw0iuuiti0t0yfsmnvzblzwivgwijjstsytuitt8clusifuf0r;#.",
"#<r71277uijsgfmcslgfclcvBjcggccBVN077iiylZdygjjgfgjlccglgfdjj&#X#rxujff9i07uuiii0iiit0isjmlsczmcdiggscgsfyiywwj81rcjfwgsiyiw9&#o",
"#<r37uuticuiwvcnggvblnnlgcsfgjvBBvrr0fuvjcfydlvjsvdsylzlgjgsg:@X$yjpjlsuruihppi9uihiuijtdmjdllmbglyzvjyjfywlslvijmcs0slfgfrt9;#.",
"+<2rtupfyfygivvvgmmbbcbcfgvjnNcBnl00pigylvtsjglyglgfvjcgdcNvy>+X#0imciwffr77r9utr9utfuuyfcsglvvzdBzzdawswwfgjmjlbcffwvffyu7u9;#X",
"+;rr9ipt5yflfvlzCzvszvmfNblbNlwcbvbtfssfggygvbsidyzcvinnmAVvz4*O&kNgvfjvjjufi7tr7917ui0tujvvdMMnAMMagy5fvlcfcgjNmgsfcjifjwuiu;+X",
"+3rr7iuufujsjjsssgkglzvnbljvvdNgjbzfgtsfivfgfflfmyjcnfvMGnClC8:X&lmgsjjcmljjhji79r97882yfcbzzBDvZAnnnVBmCvgjglgj0lsgllcfjtphp;#.",
"#2h3uiiuftifycvyNbsgggmvzccgzigsimjggwifvmlibfdgtfzcjzvDCMdbn,*X%kvvgjjvlfiiiiu7991r0f7tiybgnmMBAmBMvbZMMMffzvBllsgvljjgsuiir;$.",
"#39uuhppy0gsNgcjjllzzvBbzydsylgdvgg8gjjsjjgywivlNzzjfyVCCkdll,@X@dzlfczcscffgsw70<7rf0u00ywgvlmzMdygdgyMMmnmNnzvlgjzcjisiitfp>#X",
"O9uutjiiiyuvsbzjflzkfClblicsmzgnydzwffsjjcgbnvgmvbgsdzGMCdzna1@X@2vvllzcccdjffiu732pitipt05ywmkvklmdzygwzBnnnvmBzygjvfiji0ift-#.",
"#3u3iffiwiiggzvbjjvimvksisdzcgy8-bc5ydjbzijdgglnsdlgnMCBlBkvl1@ +tBnlzcjjsjffif7t7upu0tr08u>sdzldggvla8ienkmbnzggsgggfiiiijit-$.",
"+7u9tpf00iffgzgnvvgvMzgwilvgdjw81NggggjbglcvglamnvbMgCMzMMbdm1#X+8zllzvzclifltt029urrr7tur270ij8jjgm80tiidmlMmvzmggcjv0jfithu;$.",
"#7-;<;>-,>,21464441q44155,>,551#4554,555464545545664448eqq166>%X+j5658q411-2<,,==;<=;;;<>-&=-:14111,<,-->-566466qw55w,>1>-1<1-#.",
"+######$$%&&&***&****%&*&@@@O%*-&***@&****:#&*&***%%:::,**&:**#XO-*:*:****%&&%#@+###$#$&@@+##$%&*-%@%###&&&:**&*&*&*$%#&&&$%##+.",
"o......XXXXXXXXOXXXOXXXX XOXXOOXXOXXXXXXXOXXXOXXOXXOooOOXOXXOXoXOXXOXOXXXXXXXXX  ...X..XX.X...XooXX.XXXXXXXXXOOooXoXo.XXX.XX..X.",
"O+O##+#@+$@%@#%%####%%@@@%@&&*#O@%#@@@%&%@##@@%&&@*&@**&@%#&@%@OOO&*%*%%%#@@@#+++++++++#+@+@+@#O@@@@@@@+@#@%&*&%&%%@@#@%@@##@+++",
"333<9rt508iiyldddysgldssgdyllf:X&6tt8ytwayyqwyydg5ndkzzzkeyyfw,8988ygwsfygw0008529730200800<20&X%ww8500108ejgzgzgadyuyyswwyi017<",
"7ppxjcf0ifjfjmvgNbbczbvBBlzfj1&.@q0yistsdffiwjld1AvbMZZvylwyu18tuii0stcBgfjwsipithtuu79fffiu7-$X@dgiiit0iiivmgnNllzvVjcjsgcyuut9",
"ppipijtfuigjilngZfbvgzkdyifit-#.@2080iyiifygclvgbknjzktvl828r000ii0ss8czdsdiifii9r977rufii0ru&$X#wftt80w0ujslgBltjgcbgcgfywt0fuh",
"ffcffjd8wucdjgvgBvgmclclyvt8w-#.+7putuiicwsglcvgnmzmldjlww777tiii08p88gjdfsiuiftr79t7tffitui9=$X@t88t5t7suwflgfgbbgcf8ccfiifjyts",
"ihctip0ttiiffvjlcjmngvllsi8ut,#.+8htuui80fjjgzzzlcNgysflgy057iipp0iiiijzcvsfif517r930ujiiii01$%X@8p27900iwyifvbzvvl0ijujldfjwygf",
"cswufyfi5sfuncbcvdNcscvldwfit>#.@2iuf7tiidyicgjvbnnlzgg8ggy0rutt7wiwi2jcvzsuf09197799pyiii020;$.O5i900wittpwuglzggzgw5ittft00ifc",
"ityfuu0tyt0Nvllcszbczblfgui07-+X@2itiufffusgszgvvmblgggbgwsjtfpi8u0tffjcllyssp279793tuitut219-#.#0ufsuwutt08w0t0i1=8wiit071r8iii",
"i80tt0fi0wjvcsnvjcnlmvdjiffy9=&.#9hf0fiiitgwtgjvnvndclgjlgdil0i80u8fitcfnvyiitt00u9ru0ifui8w0-+.@tpui8993tutitt8yiyjfyiiw087tij0",
"iwytuijw8lczgjbmNdbvbjfgtfjw0;#.+0ifyt0uf0r8ybZZBwjbmlgvgvigsg0ts00iicbmVgjigt92r00r9tu08uut5=+o#i002t11298tjitsscygi8y0iyiuugtf",
"uyjftjiyufjgbvNvzgzvyljgigf0t;&.+uftwurif5uitzVBycijjgsfgjfis0utffjfcNzbmsgwiwt9297uh8y87u00u=#X#00wt7077<57w8giigb85w008tdcc0ii",
"iflggffgclflcccv0dbgglNijciri<&X@0fiuipcisw5jjvwBg0f0ttsgyv8wgyutlncNbzbggywyw0877ui8fiiwiw09,#X$;iit7ti0fc88jjzcdlvfbj0ttuw8u0t",
"uifyilifsflmcvBmZjvcgwiglsfu0-&.+0fftip7uftficlfjw00r9<10jc8jv,0rNbllgczlgstititiu7piscfi00s0*% o8p02i0fjVvzvmVVnllVMbznfbyt50tu",
"tffgjiiifhcgcbcccvcggggvcits8<&.@ufiiir9tt9hsjzsiiu0r<<97070uf2tfNvvgglglzjyfyiigyibjif00w8y>-@X+7,2tr7jzdvnCGCBCDMCBvvMzzgyiitt",
"0iifjcfcffgfcyNjgBvacggsscw87-&.#0jipi78rtr1fcli57r9<73297<570pjVzdldvwzlgglfizlyvjmzgtytw077&@X+2rtutugifzmVVMMBMMBDCBBvnmlciwt",
"czgcccvcllgmvvvvbzzlylslfsuip1#X+uphi0t9rr75fllwiur73r7u92197uiBcmvbvjlsvcnlzDvbNCDgcywgw0u9<;O +<ir00t0lbkCznDZmACGDBAnmvbvVft5",
"lbvvcclcvllbcvmvbzgzglfgguyfi,%X@wffit0ur90fisbi00097979327t29jvbcgglcggwvvlvmnmmACMvljstj0we*% +7f0750kazMdMJDCAAGCZCMCZnkmzdfg",
"vbvBmcjcgfccvvNnzfbsfbfbig8tt=$X+8iiuf870075fiwyt09799r977r9rufcvcvglgzjsgbvvlMBAAMlCgjNbdyse6:X&cjipBldkznCAAGADAAACDMZCnCCMvbn",
"llNNgcjNjgjclcvbVdnglvzgc88t0>#X+0iuipt70u79ftsywtjj09791799tt7Ng1gycvgjdvbzmvzzMzzDCvnCCBnBze,O*mZzvVnamCAJGGCHDGHCAMnZZnnCMBVv",
"BNBzlgfvgzjdvcjgjbmvfllfwijw0-#X#9uiiit0frtugwywbMmftrr0798tfbxgyVkdzvcvdydlmvbmzCAZAZnCnZMZAe:O:mMmZvzCzAGJGCAMHGCAMMCZMCMMmzdB",
"BBznfzdjlylcmcjsdmvvmlgfjwi0i<#X@ri0iifuflgc8iwyNNVwi97959rjcjbNlsnnjbvjsilzMnBcnCGAAMCMMADADq,O*nAnMMGCZHHHAGGZDADMCZMMCCZBmnMB",
"ZmvMkbfcgllcczgjgbgbbblgyy8it>#.#0u08ugfiijs0tjijnj5pfyiiscjclBfblgbglvvyszbnnvnMCGMMCCCCAZCCe:O*nCZCDDJDGDGHCAZJMMAMnCCMnAZMAmZ",
"MnZkvvvncbdgvsngzbmlNjvmvti8u>#.@9ttuytiiiipfbjgifw8<5jlcgydvvsjnbgvglnjgjgvbnjBMZMCCnZnCCCDAe,O*MAHCGGGGHGAAAGACMCMMMCAMBCzVZMk",
"vzkMmBbmvmvbnymflbgvvbmcgisuf>#X+5uittutiyujcjigcitw7uj>j5ulygcflzlbvzvcnmbmnmvmMMAMnCMCMCCZDe:O*MDCADGCAMMZAzklzzMzzMCAAAnnMBmB",
"dykZCanBBbvnldgcfBsvznvvfifpi>@X@9iurfujjffgyiyy8wfcN780i9cczvcvnbvbNzllcvmvvznCBGnvlMBBnCCGZe:O*zJMMCCCMAmCzysgbldlvmCACCCnnZBm",
"bnCZkdBggbvblevvmllnbjvjcjsii-$.+0uitujjcjsiiwt2ullvslm21htpsifBgclBlnclvgyngBbBBmdyylzmGCDMC6:O*zDMCGCMGMZAndyvggzvvmVBZMBBMBmz",
"nCDgvmMglckggjaywfzzcllyfjjyi1$.+2i07ifjfcfigi8t7jjfui55220uffvmbclccclgbdlclvblw8ttszCBMCnACe:O*nGAAAAGABmBggjyldzbmCZMnBnnCvBZ",
"DACzgvnzmzzzgllyfvvczlijsyut0;#.#tripiffljiigivdivi1192u8u0fuicjBvlvm0gzwwvygl91ri88ygfbMdzzk6*O*nGACMCABnMagj2tdjvvBZBBzdzBMCvm",
"ZnzzkCzzncnvgzzgglvzBfdssiiuw>#.+7pi9ifxcwfiifggNj9<1r39r2ruf0gbvvBza0yuwlvt1wr9w90gdiglvnbye*@X&dCnzCACCMgggifwivgmnMMzzvMzZCMB",
"656e646q48446464,5565555,,;;;-$X+r-;;>-,1>1-1-158-=&&<>;->>-:5w55565>->>>54-$<<-&111-15145,*,*%X%e466ee66664851-,>48646654qq6q66",
":*:*:%:%&***-***%&-&***%#%&#$##X@#$$@#$%&&%&@&*$+$OO#-$#$&%#&:&**&&*@@%%&&&&%&@++*-%%&*&&%#%%%@X@&%%*:*%*:::**&@#*&:*&**:*::::*:",
"XOXOOXOoXOXOOXXXXXXOOXXXXXXXXXX.XX.XXXXXXXXXXXXXXXXX..oXXoXXXXXoOOXXXXXXXXoXXXX.XXXXXXXX XXXXXXXOXXoXoXXX OXXXXX.XXXOOXOXXooOOXO",
"@%&&*%%&&&&*%%#@@%%&%%@#%#@@++++@+###@#+@##$##@++++#++#%%$$++#&O@*@O##@@%%%@@%@OO&#@%@%@%@####@*&@#@%%@@%#&#%%#++##&%%&&&&****%X",
"@adykzkkkkgydgytwgsc8didgww1070t0ri0i07itwiy01<72311779tys510j-o&11,080sdsytw0&5wuygyff0kzdiiw8vdq0wayygfgdgdwy<58fyyydlgejbmw&X",
"@dBbCCCbMvnMlmbvzbCfjcccbu0itufifjcxipffsfj090trt099trrifwtuf2&o&5t0icgfjccsjt7ilcljcbcvmBglcijVlfyzmsdgzBdlalwt0isfivBCvzvBl,#X",
"@8svmmCZmvnbClzgzbggbzzityittut0ppiftiuifdfiffpu09tt997fu78tt>#o%10ufgfsjgzwfl7jcsjtglftjvgllcmmNgijsjidvijj058u971fpffwlmctg:@ ",
"+wugsbZBMzAMvzbdlggnzzjfsjwu0u5fuffut9ifih8jxytr29ittr9rt39ru-#XO7jti7ysgcvbfcsjdfwfjjcjidgjfznBv8fgjgijtsj8t7tt0720jdfmcnzls>@X",
"@0y00fbZCAnvgdgywwszijcfffut7tj0ifui0jfffjhp59775prrrr9973fur-#.@thiwt0iiclvgyiuwtyjfjccjwgysjg88syifjfiiiyu0i9rrt570jmvnljiy-#X",
"+0siffimCgzbnMnvgsisjlblfywiuitfttf0piyhjj0999rrrrtrurrr9ur90-$X#ws0tjbssulgllgyt8wsffjvffsigjsutghwfjjiiu00j0jfw8790cbcNtfsu=$X",
"@7iysfww8wfsykgMngygccjigwij0p0rwfi7wiiffi0799rrr9ttrr9ru7998-@X@wfutigtbwdgvfyvy00ilgjcffyggiwwugjjbcjffs2jcgsfi0t3icMVvbgy0:@X",
"#0iyff0fjiggzfgafgggljjjffww8friiiii1iijftt79r99u3puu9rrrrurr;$X@t0uivfc8ljlbsy55biiigcjfishciffffsdmjcfi0fcfffifrt2ubVvlgy58-@X",
"@5uiitiyfgvvvzgknmsfcbzigwtw0tritiuiiuifii79rt9r97up9u39ururu<%X@uiijijw0jzvbnMmnziuyjzggjfcfs0iitjgjlciisjgfjjffj87iujblgstw-%X",
"@5ir8iuwglylvmBljgvfjicbgftwtu8j000ififfjut0r7r79uu9urrrur9r9<#X@wjt87y8ylcbbBnzmVgisclgyjjcgsjgwsiffvksficcljhfiut9rtfcgcys0-&.",
"#0pt8tiyfiljvVmCnzvbcli7tjw0087it0yfphfhju9t7tru9rr993urrurr71#X@8iwwytuygbBvnnmMnN0jjfjfgsglissbvcbzcvf9vvjjg0sytir7utfdwwif<&.",
"O7uwu0tyiffnmmzgBmnbzvjfyijuu0ii0tiftffff877rrur3337r2ur79r7r>@X+2yflissxlvnbnzvmmldtjgisjgjgyiBgcblggisfcvijjtu8u0srruit0iit,#.",
"+<t0wsfgljbmBnlDCMvvBknmgfis8tiyttriufuutr2uru3rrupur33r7ru9t-#.@0xsducjjlgmbvbDMvg8ylsljgfilyfdmgldvgvvcNcgvit7utpyit0fyyt20>$.",
"+3rituilngbBvnzbvCBzmDCVAdw00t5uuiuffu0tt79tr7urruuu37urrurp9;@X@0j0w0t5wjbnvbnBgZwyfwjgdyssfglCbvfsgljcclcfffu779fiii9707iur;$X",
"+3t08tsiyvmnCmMkmnnvmmMnMz8ygi8ttwffsurrrtr9u<9997929rrpttti71$ +upf0pfittsdldmvCMv8ggiljsffiwNBCniignfBNfvufi2tt0iffpfut0iuu-@.",
"+7r70yhicgnVnmnlzmAblnnvmzddcy070u0fftu0007tur9979739uprurr90<#X+ui0itui7uwwlvlDZVdwtfscflfcffBBzgfjgggljbjiwtrpyuuj0fwu0iuit-#.",
"+3t9iusgblbBvMkMbmzCBBMgdABBszg7iwtiui0t09tturr772rrruruurrrr<$X+80978988ptsvzcCByc10zsfljgyggdydlvlbljicijbgugfiiiuhfyuiiutt-#.",
"+7t0wyfljBzmBMnbgvmbmnnMnCDmljgyj5tti7u070rur7997393urrr3rr3p<&X@80iu,7yfpucydjBCv50wjggzfggjffttlbvzcysstvcgsffifijjiifft0ur;#.",
"+7r0upfclybVmvdkZMMCzMMkmAM6sljf580ffrt89ttrufr0pr9r99rrr3uui>$X+0i9tttjctijgugMM6iwgsjblifjjffiyd8jlggygbfccshgfuii0uiipr0p9<#.",
"O3r9ijjcwfjmnnbDMZnBCZBzvCnmflz2b0ifi877t909tffii0u993rirr99r;$.@0ir7uhfggfjjwtld50wydjcdgfijftwifugzsflfbbciwisyitfjtyiuippr-# ",
"#7upiffysgsmBngzzmnCBZMZBCCvBgyywstt8i09r0ttu0fcfhfitpuurrrup<$.@u70fipfsijig557>5ftyfgjitscbsyfffsgfglwwgcjj8yttiiut98t0uipu-#.",
"+7hip0f78rgvMmzlvBMmMBCGnZCMksyiystijfu7009jtpccfjiurut79uuur<+X@17piuu0ujwii0t020tsyjg8bvvbjsts0jiiggzgvfvus0twfiifu50tfhppr=#X",
"#tpu00ii0u7AZvnlnMvBMCMnbZZMlkzsssigzit89u<lfjijchfpiuturupr9<#.+3uiiurt7i8fw0778utyiggijmmblcf5ygijsgfysylutyiwifiu0tiuifhuu=#X",
"#iittw8tti8mMbvvzmgMAACnCnAMMMknbBvnljs007ffffiffuifitpt3rr9r=$.+9utut0r02i7tt2507uyil0gVzzzjjiyyyjfgigyjgsyuw0utiuy0fuiifuyp=$X",
"@0p8i0u7titMnMmBzgnMCmMMnzCCZCnMblzgCllwfNcscpgfffitu8t93r9rr<$.+0i79r7tr73u7972iwdt8ddmllNlcltyjgfsfzgljgdjjtitjy8uiui0jptf8>&X",
"+00iu88fuwyVMMlMzzMMnMCMzCCMMMCCMgnAAnnMmmvftijifffitit02rrrr<$.#3979i937uuiittsssigstnzmzblswggiffstfdzbclgljjsfuuu70uiriutu<#X",
"Oic00s00tyjVMMCzvnCMvnAAAzzCMCzzMMBZvbmnmlllvtiyffiuuwttr9rrr<$.+<t7uuiiiitljif5uucj8VmmbCngdijssywwfdlmlscbjgutifffgiftt0iiu>$X",
"&80fi8uigtdCBMnlkMMzaCMHHCCMMnMnznnBnCBMnMmslsftjffiti7prrrpr<+X+9ptirrij0ffjcyldlztNmnmgnmlzjs8yiywjcdfbfgll00iipffiht99piij>#.",
"+0>-*-<4>1,>1e646q64,6qeeeqq4q4q6eq4466q6484,515,-1>,>;>;<;<<$$.+r><-=;;;>,1,448814,45668qe,5>:1614:1:1>1,161>-;--;;;-=<>>;>--&X",
"++#$$$$&*%*%@*:&:::*::,:::::::*:::,%***&*****&&*&&&#%$$##$$#$++X+$#+##&&%$$&&&%&&**:****::***%@:*&&:@***%&&&&$##$#+###$#$$$#$&&.",
".XXXXXXoXXXXXXXOXOXooOoOOoOoOOOOOOOXXOOOXXOXOXOXXXXXX.X.....XXXXX....XX.XXXXoXXXXOXXXOXOXXOXXXO XOOXOOOOOXXXXX..X..XXX .X.XXXX..",
"+++#+@@@#++#@%*#&&&%&**%:******O&:&%%#%%%#&%*%%%%##@@@#+++++++++++O@##+##%#@@@#@@&@%&%%&&%%%%%*O&%%&&&***@@@@@+++O++++++#+###+O+",
"23078utw125w8t8g6vzkznggzkgvzn:O*dnkdagkgdgzdgsdsft0tw50r3333333197757iisy80ewyteggaklzgddezdn:O*gnkMMnzwywwww0u0tr77577wut00829",
"9uriiu08t0iutxjfdNCMVGdmCMBCGe:O*zFnnvbMblBnvBlczjffiuxfr99rrrrr7u99p8pj0ytycjjhjjynmZmkddCnnq*o&zAMDCAkyvjiygjjhffjpfipchtfu00t",
"r79h0uffihwuii8fiBmqlgGmMGmnMq:X&nZdlknzgvzbbbzbcgjhiiiuxr3933r9r3rtu7ijs8wffjcjjgnlvmv8wdkMz6,o&zACCAMzllw8gdiiutfu8w0thip7u99<",
"99tt00tfiii0uy08ccyvvcnMGMBnzq*O&nMzgmBlcvnBbmvvfjjiutftx393r93333r7uifvyt8cgffjjbmzngsylfbBnq:o*zGADCCzgzyyusifiii08iw0ijyu7t31",
"rtr97iiiut8wuwu00iuicgkbCnlbd,*X%qkknnBVjzngnBbjdijyiuiu9939r393999u7ri21ijiyfgijcgbidgvzzgMn6:O*nLACCMngl8iigfffwtu0uutxsit87rr",
"r977ph73978u50ttu01cdvyBnnlea6*O%gvvBBlgNbgbvnvcjycijfft99939rrxu3rrtih7tjw0ijjcmvzifsgmyggnM6:O*nGDZCCMng8y0jf8uftwufccbuu89979",
"97392<2ti0utt090w0u0jygnzMldg,%X@gblvjzNmgcmbblsylfiiu8t3x3x99u999r9usuttfif8flcCs5yyfysldzmMe*O*nJMCZZMmwiyi0rjh0uywfljfiy709r9",
"997r77ipiiu9it9r0808igvvbBdid,%X%dvMBmCVvddmVzlyggffit9ipr09rrr3r93uuui9tci8ufbc0uswjfysdfmzM4,O*CGCCACCneaayiyjyittijffiw0t0070",
"97r7iuppt0t79tirttttrljgvw8wi,:O@yMlMmnvlgmnmbsgcfsuf9999779rr9r9r3r99tfuit0ihijlwwiijfyijdmMe:O*CCAACMznMgy0pisiw8utfjfiiiuu0t7",
"9770ft8ui0whftiuu9iutgusywyvlq*O&gzknBbmallbmzzbggflit9r9r7rrrrrr3997rutui7tiiih70hifgdslcnCC6,O*nGCnCMMvkzl0y8iyyt0gflustuftp07",
"ujpcgtii008uipfi9furiyf0wczMe4&X&znvCmndgggmBbbvcjguphftrrr9rr9933ru0ui99>ijfuurtituwgffglvZMe,o*MAnAMCCmBBsytiytttiiccwyiywhf02",
"fcsiffui07rifiytiffyfygdmzzgj,*X@vMmdsBszgvNNVzvmliffii2373r9ur939797uur9upsu0ruii0ifsjjygMCCq:o%kMMMCCCvAvgwfiiwwiyijgstiuffw0f",
"hjuufgi0uifjfuuufutfsisNbgtjv,&X%gmlzzlgczmzzcbbblfjitu7r9rurr39r97rttuu9iiui80tut80yigsVABCA6:O*kMMMMCMZBzss0yt0tiycfsidticjfff",
"hiwitif8uifvjy7ii0isttftwitgj1%X#yBlgnbgcmbljgvlfzffiw7977rrrrrr399iuriuippps79rt7ttisiZMnMCCq:O:nMACMCAMCvy85fffuiizlluwiijufsf",
"fcituiiti8jxgspt90ffjfyt08iyw,*X@sbnlCmdjzvcmlzcsvziirp993rr3rr9r999trtiu9hi7tit77ti7jVyzZAAMe,O*nnAMMACMBmly0yffiiffgijwhgsicif",
"sgwi0upipfylfcf0tuuftjw7it7ts1*X+yjblvBvBmvvjBBfjgjjx9ru999rrr3rrr39rrpruup9rr8ri700tclijmmBmq:O&vCnzMMMCMM1ywtft8w0lgjijicitsff",
"cfwtyfiiufisfsiuiifsffitu0iit>-X%dvngvgVBlvmmmBlmiywur9r99r3r99397<rur9rrrrrupii7r7uuiuiflczv6,X&aVmBnGnDAwcywi8gutisflijfjfisfj",
"fuswts0itiut88irtuitrt7wiywgg5&X#dgvzmvnvlcNcCvbvufiuprr9993393932rrurrurr9utiu9t2uiiuii0ist55-X%kClmMMABMSnyw8wt08ylitijjfuiiij",
"jiifj0yr0790wiu9ttiiiy0tuujjc,*X%sbdlbvVvlvcnZCeydtrrppp933r9r3993r33rurrru9r7r0790u7ftrwtyyi1:X%dzllmMBCMnmswtfit8ldtwjfjhufjfu",
"8ifji7t0000utticffffft0i0fscl,*X@ggjbbNcmbvNvVt0iwi0ruu93399x3933rrrprrrrruptut779urf09t0it7t<$X@5gyggzBMmkMndy8f7cjfiiifjiyusfi",
"7u2709729tu0iuifiu5isfui0jjjg5*o&dbbcvvzmzgzbfii8t7fxrrurxrx3r99rrrrur9r9ruuur97r9uutri7uu9r7;&.@ygggjbAnmMlzvvwtcbfsvfjjpfjt003",
"7r79<r0r7rriiuur8u70usf0fcllc4*X#tmdlgcclgfyyiif708pu9x9xrrr39r9rr39939999pur907tur0tu0tfur93=+.+8scliddmnzvglByiicfyslffjx0it92",
"r3t0tuu999uiittu00uuifsffiijl1-X%zbcgclmNbgsdgti8tu0xr99r9xrxrr3rr99rrrrrr9r99urrtr0utrfitttu-&XO2fglys8gkbzbvBBgBzgscgcfjijii77",
"99riut29<tpfp97tr50ifcjtifscg4*X%gkccclzzlcjfcjfifpti9ppx3rrx93rurr3rru399ut3uu790tu7irfittuu<$.@trhjuyysyzjjbzgczgdgsjlciji001r",
"r9rr0ti99upirit7rtipfjilfgggj8:O*nAdjlzljcijlcgcjfgjffirurrr933ur9r333uuru99339972ur0iiij00ut;#X+8irf9vfiifgcdglddygbccgifty0w97",
"uit90tu8tijttr9tiuifftcvvjgzzq:X&zCkllcbcgcfujfgfirutrtpuu39r99rr93339rrrur9r7u7r3rtiiur9u97p-#.o7it89sicigflsdgssivcclifyi033;3",
"jrr9t8u07fttuiuu0t0wuhfbjbfvcq*O*lClzbcjjjlyfjswfpt099purpr39rrrr93rrrr7ru9r3r3u0r9ptuitruupu;#.+1pt70fggstczjlsfgcfisiiu8uw7phj",
"ipu97u0ipfitrtirttpuffjcmzlzcw*X*lzMlvNzgzssiitpifuurttuurr393399339r3r3r9u3ru99973tffvf07iru-# +7uttt9ppfjczdgzszjwdjifwuutpupf",
"-;,;-<,<<<>-><;;>--><,15548,66*O*d466815555,;,,>;1;<-;<;=<=<==<==<=<=;=<;>;;=;<==-->>1811;;>,-+o+0-<-;>>,>11,4555,,141>>11,--,<>",
"$%&###&$+&$$#####$#$%&%*-**::::o%**-%**&&*%&##&#&$&##$##$$#$+$#+$$++#####$#$#$###+$$&--&$#$#$##X#$#&&###%$$#&$*&*&*#*&&%*&$@@#%$",
"XXXo.XXX.XX.o.X...XXXXXXOXooXoo OOXXXOXoo.X..XXXXXX.X.X..........X.....X...o... .X.X.oXXXX.X.X.XX..XXXXXXXXoXXXXXOXXXXXoXXXXXXXX"
};
