/* XPM */
static char *wall3[] = {
/* columns rows colors chars-per-pixel */
"128 128 80 1 ",
"  c #161615",
". c #181717",
"X c #181817",
"o c #1D1C1C",
"O c #201F1F",
"+ c #20201F",
"@ c #232323",
"# c #282726",
"$ c #282827",
"% c #2C2C2C",
"& c #322F2E",
"* c #33302D",
"= c #333333",
"- c #3A3632",
"; c #3E3A35",
": c #3B3B3B",
"> c #413C37",
", c #433E39",
"< c #46413B",
"1 c #49443E",
"2 c #444444",
"3 c #4B4641",
"4 c #4E4943",
"5 c #4C4C4C",
"6 c #514C46",
"7 c #544E48",
"8 c #56504A",
"9 c #59534D",
"0 c #545454",
"q c #5D5750",
"w c #5E5852",
"e c #5C5C5C",
"r c #625B54",
"t c #65605B",
"y c #6B645C",
"u c #70685F",
"i c #646464",
"p c #6C6C6C",
"a c #756C63",
"s c #786F66",
"d c #706F6F",
"f c #797067",
"g c #7C736A",
"h c #747474",
"j c #787777",
"k c #787877",
"l c #7C7C7C",
"z c #80776D",
"x c #81786E",
"c c #857B72",
"v c #887F75",
"b c #807F7F",
"n c #8A8076",
"m c #80807F",
"M c #8D8479",
"N c #90867C",
"B c #93887E",
"V c #848483",
"C c #888787",
"Z c #888887",
"A c #8B8B8B",
"S c #968C81",
"D c #988E83",
"F c #908F8F",
"G c #9B9186",
"H c #90908F",
"J c #9E9389",
"K c #939393",
"L c #989797",
"P c #989897",
"I c #9B9B9B",
"U c #A1968B",
"Y c #A4998D",
"T c #A79C90",
"R c #A99D91",
"E c #A3A2A2",
"W c #ABABAB",
"Q c #B2B2B2",
"! c #B9B9B9",
"~ c #C1C1C1",
/* pixels */
"aaaagggMVhjMMvgvGJJSHNMJGcGNDSJUIIJRTTJJJMgvjdcDUJJUUvSxMSMgaggixSJBJDsvjccgcggahplMMMvMngcvvdcgMDDSMvxglhffkGJxBvzskzfgzzsfBfrr",
"gPLAKPEPEAHPPFHZFAKmjmILkFAWAKWQW!WIIKZKmhVVmCZCKlKHmkbedmVACk5anIELAHKPIPKIKiKChAHblZAIZimAmhmVCCbAClkkVKHKKILHIPPIHA0kHHpjlpq8",
"zKLKIPKLKVLFILIFAKKAIdHpAEQQKWE~I!AIWHHPKZHAAAKLACAKdlkjVkIIZe=rNKKHAIFEIEPKKVEilVIP0HIPkbhlibhACVVKACHHKEEEEEEWWPEILKdEIhbld0=7",
"slVKFCCKKAVAKZHHKKKAVhbAKKIbCKEWVAPImAhAAkAVVbVljVVVjelphmllk2%wJkZVmCmCKKlFbCCeKlKpdVAVZCehmmppilkVAmFFAKKAZAIAKKHZlChVmhlh4:%3",
"sAAKVhAVAVVVAVFAVKAKhlbAKFKbAPKLpKEAEVlIVhHZAZbmVlhjedplhhlKh:%wBACVlkmbAAhAVAejKpdlhlljlmihibi0phlhVVVZVAAAAAAKPKAbAkpVKhAie:#7",
"glKAlVlAVlllAAKKLAAKViAlAAKPPIKKAIWAKAAKVhKAAbmmlbVhjpibdlACi:%rzmblhCAmLAVpmKlHdpKAVAApVVpkhleVVilhAbhLKKKKKLKEKKCKlAjCjhZi0=@5",
"glVHVAFKVClFKKKVVAKLmhiVAIEIKELjWWIVKVKKmmVZlCKVbAAmeeAKpCAVp:%rvkKVlACVLHhAQVidpVEjAAllVhlhlVbhlVVVAVlIIAKKKAKIKKEPVhAhHbbp0:%7",
"gAZAHFHLFAACFAlVKAVA2eVVVKIKEEIKAKKpAVIAhAbAAIKAVAAleVVFpApAd:%wNCAVlAHKPAhVHLmLlVIlVVlhVdVlVVVVlKlPKdHIKAKAAKEKEEIKApAAVillr:%1",
"gLIKAPPAZkVlAkkVKmAiemAELIKKVKLKhKAVKVIVVVAKKEEIHLKihAZAAphCe:%6CAVVAKKAAVpEVKKVVVIehpplklVAlhVlmAbIKiEKAAAAVAAKEIAAjkFZillVi2$4",
"fKHLPAAbVbkmAklKAmAi0lVAVLKLPLAAIIAKIKKlKKIAKKVVAVAVIiCAAmKA52%4MhKEKKAVVhAEEAHhAkVpAlllAVKVCjmiZVAmhAAbAlVAAmAKEPAAheHkkVLVh2%5",
"kZEKAAVjbZAFVkhCkkle0lmAZVLVkhPKIKKKVKKAKKFVIKVVHZAdhehKkVdAp2%9MVEKAKKEIAEEEHklV5pVdCKlAmAkpVmmAVllVjiAViVAVAAAAAVVhVIjAbVVk:%4",
"xKIKALVhVCmHIAAKKAlllhVAVVVPAmPKKFKAlAAAFKKKIAVlZKIACpVAkKhFi:%6FVKAAAIKVLPKkVlie2VeVAllAKAlVKpAjbpjhiIClhlAVVVVAVbVVVKiVAAZp:%4",
"cAPIPAdAVZAIIFKVKAlphKAAmAAZCAIALAAlAVlVAALKKAlkVAIVhAVAEVVlp:@wNAPKKAAmAZCAlVhieipVICVVAhVlKViAkhpAKZmAhlVVZkVVAVVAVCCjVVlVi=%8",
"cAIHHFAAZFIKFKAIAChiFKiKbdFhKmVKFllAVphVKVAKVKVVlIVjpdpZEKVpi=@0xAIKAKAAhCACbddiplVVKVlVVkKpAAdiekILVhAbddmVVVVAVVAAAVVmlhlki=%4",
"aLPAFALAZFFIKCKVAVllAAlmiVCbKKLZVVhVAjAAAVVlAVVVAAlZbmbFKIehi:%5xKIAACbVhAAChZkmVleVVhkVKKAAldlVmVFmVhAhilAZVAAVAAAZAAAkhhpmp:%3",
"aKAAALKAKAIKKjVmVCjlAljiACVhKAmChVVAAAAAVVkAAAAKFPKHmlpAAVipp:%5gPICVlhdVlAVmFVKli0jlVVVAlAkViAAiVVHbbAhlVAmlVlAAHVACHppiphAh=%4",
"hIIKKAIAZAKZVbAVVjlVehhKVKKVAImlmAVKKKAAAKACAKKKIPKVA5pZmi0kp:%wMKAAlbllZmAHFAllhppbAVVAAbVlikAdhAKKKVCAbVmAVZPLHAVAbVlACpAAi:@5",
"pIKAAKKKFIAmAAVVAAVkpllKKAVmCFiAhhLKKIAAVAKAAAIEAAKKeiIVAhAA5=$6cAAVZkVAACAVVlhmhilAlAKKAAZCpmbplVEAAAAVAAAZAIPAVKKKACbhhlVme:@5",
"cHEAAKAAKAHPALKKAlClAKWEmAlVVVVVmZIKLKVmlmmVKAEKLPVliVLdKVK55:%4cllZAmlZmHZVbhbbhphlmAKAlAZZdiblVVEKpVAIKALIKKVCAFKAZAKhlKlle:@0",
"vHKKAVVlmVAZKPLPKAKKAKKPlAVmKIIALZWIKVdllCVAIKKKChAPhAAmKhl0i2%3glAKAklbKCKlVlbmbhblAAAVjAZkpVmilAKVmEKIIVAIKLmAVAZVmAKAlllii:@8",
"cAVZVlpAKmACPKKLILKIIKKKipipVKphZLLEkAkAAKKVVKKKKLKPhKAAAVh0i2$4gphVddlVVAlVjVljllVVAAKmlVkllhehKVAIAAIIKAKEZAZZVVVCAAFhhdmd02#4",
"glhdhllACZFAPAbKKVAEELKAiVlKACmmmVIAipmHVKKAVVAIAFLLZAAZkp0ip%#8d0VhbVkdppbAblZbVmAVAKAmhbZhi2ekmhVKIKIKbVKVhbbFAmVAKAAhmhV0e=@7",
"gpekddbVVFlAALAKFAFIVAVlehAAACAKVLEVpVKLKEVAVVAAAhKAPVild0eh5:@9aiLVZlppllAZVdmdhbmAFFAmlVkdb5lCAKAEIIKVjAKVAAbVAVCZVZmjVh0ii:%9",
"gblVjjmlVZmVAKVVVKIKIAApmAmlhFAIIIKLVZQEKKAAAVAKVZKZFiAjd0ke0=@8gkIAhkhpblVVhippkllVAAVlbhihp5VVVAKIAmphVKLAAmVKACAFLZZpm5ppp%%7",
"cplAAVHKVljkbAVVHPKAmlCChlCAKAKIKKHFlKLLIVHHAVVZZbhVbepdeipi0=$7aVKAhhhlZlmbljlVVkAAFVblhphVpiVVAAVLAAVlLAAAVVAVZVCCZlAidpVle%%7",
"glIbbhhipAjlVCCAIVVAhbmppAllVAKlLLHAALKIPHHZVVlVlibVl2llpdii0=@3ghdkheVlmClmllVlVKAAblpdhVhVppAhAAVHEhpAVAVVAAbVVVVVZFVplVhh0=%2",
"almlhklhAAlpllCHZVbVmlhhpplAKAiAFFiiVhVAkmklZZlmmdAl0ddpeiii0=+<gimVbdVkhbllblllAVjhmkkhbphpdhdkVlkAAkhlhhlVllVVbllVVVlkdihe0%$6",
"adkmeblhlhpiVVVChlpbbkblhmAVVlpVihhihbbhphdkhVlpmdl0i5i0ephe2$o4giHhpllphhhhbkkkVkpllbVhhpppiedhippkkppeplhhiihppljhhlhpi0505=+6",
"ghhp0i5ei0e0ipppieeiieeieeeeie55eh05ee05eeieieeiiee002505e52#%o1f0i0ii0eieeiieii000iei0e00005e005e0e0e02eee00eeeieeeii0005202%@1",
"gh2==$==%#%%%======:==&==%====o%=%%#=&=%:%==%%%=%&=&=%@%##@o oo2ae5&%==%=@%%&&%%%=&=%=%=%%$%$%$%%&%%==+o&=%$##%=====%%%#o@@#$@@8",
"g5#+ooooooOoo@@@+@@o@oo@Xo@++o .oo  oo+o@oXoooo+oo@oXooooo.ooX#3w<#oooo+ooXooXooo++ooo+@oooooXXooooooo.oooooooooo@@@ooo.ooo +o@4",
"Mawww908731,<<<23,35911,:22:2:::>3234<43<<521<131462<222<3<1<<4tar9448454324435<222:3<575<<4<;;=:33,55254<13416<64246<3416<1414a",
"TTTUGHDMDMcggsfcdhfSMMSggjzagiraMMgvvgcnMMcfkfxghknlggggccncMggncNSSMMcvnxagfkhCggjafggcNfaacu9wxMzxvckNmjcvgvkvnncnVvFxSgkzzfzR",
"AECEWCAljkLPIEIEIEEELIKhVVdhj78wxhVipVVAVblAZZhKIAEKCdkkAkAkemmmKhlVAKWChVpmAAVACZHKIIVHAPllVe29aAhPFKAFEIPIPVAFLKLAKVVpbiAFpHVF",
"IKIW!KebeKEPLKKPEWWEPPKLIILLi5=3flleCKLIKLZVkCPEEEAIKKKhkhkpibALEVZPWHEPkmIIILAAKAKKHKPIPPKZk5%7gPAEIIEWQAIKAZFKKKLRKICAhpEHlKpI",
"IEWIH5pmkKFlVVAAIEEKFbVHKHKC2%@7zeeidKKCVhllpAKKAAVVAmVVmZCZhdKAZmmFAhEVllPAAZlCKHblFHHVCAlhe=@9glKElCKEmAKAldCVmFAPVVlldZZLAVjb",
"ZAAAmdAPibpVVCVbAAKKAAFIAAVk==$7shlpbVKVVAlplCKmVVAKAVAVZld00llVmdihhVACphCAVVAVVZKCZKVlhhpe2=@qMAPPelPHdKVVdlmhVHlZbZVVACkAhhkZ",
"FLKVilAbpbLKAAVlAAlAIAKKphZe5=@8cVAlFFImmVklAKKVhlAAAVAjViipmlVKkhhAVKlVeZKVVhVhhVlCAbVdhhip:$$9vAWAVCCVIKVhVFCAbVmbpjAmpAClpVVC",
"AVlbmbAbVlIVAKAVVAFEEIKhkKCe0%@4fKKAKCkKAlZLAPPAVAAKAAdVliVeAbIAibAKAViKpZAllhkVCKAKAlmlhhep2=%8vKEhAZACFlmVKKCbClpllCVChVhVihlC",
"CAlAlLApVZlVKAAAAAAIKKAAKAV0e=@7aCIChPEAKVCLIPFAAKIVAAjAk0pmVhhhikAAVkhAAKAmllVKPIKZKVACkipi2@#9vZPhkAkCIVIEEIIACmmZCKKbhKlkhAFK",
"VKkVlbAAAVlAAAlVVAIZKKVVimm50=o6bpVlpAAAPKAILPAACKAlCVhAl0AZmZdkKAVAZLKPAlAlpVKAEKAKAVVVVpdp5$#4gmKCAAjAAKEELIIKKCpmhlKpAKHACAVb",
"AVAKIAIAjVALAACmIZZLZmjbpIhp0*+1hAVlhKIKLbbVAKmVVAVKClhhbhhhileVVIVALVVlmlVhAkAAZZVZVjbAZll00=%7vKKCdVAFAELlZLZIKdmLhZIiPIHKdhAV",
"KEIKljFbllALZVVZZVAZAAFhhClp2o@6klipVAKAVhAHlVdjjhAKVpikhhipZVleVVlKVbpbpdAllAkVACVVKAVHmbVk0$$qMkhlkAPAZlbbCZbPKiVViLmZFlPVpVHA",
"mAKhVKAAmlKAVVlAAAKAZFldllke:%@4ukpAkkehAALbhVhlkVVlh0phlhihhKhphAKVlpihAbKVAAhVHlVVKVKbVAhe0%$0cIbHAVFjbKmAIFAVliK0LKVhVIFeiZIE",
"pVmphlVVZZKPAVAKLCZAVAVllbm0=@@2ujdChhVACCChkkhmkAklbiiVllphVVeehKpZVVhpKKFbAmVVKPVKLAVAPAhp2&$8jWHLAZVVHLVLKAkZbmKeIAAVPEephLkA",
"VVppAmmAAKIEEIKIPZbmLVhlZbkpe&@4zVFVAbbVVVZhVVZCkVhlphmllmZEFCChHILHVkmiKmlCmbAIPALKIEEEIPAii:%8vWWKkAAVVVHVVphAAKbmKEhZIIjlhAhA",
"VVVVACbIAVIEIKKLlKlklplVVmbi=@@3amhHKllVjAmbKVmZVVlhppjVZKKIAIAebVippdppVjhlbVAPCLKPIEEWIAle0:$3sWKAAIKFVAAbVkZAhKphLAiCELklAAEP",
"EAVAKKAKFKZELVblbmhhbhVAbjpi0%#3flAlVhAdKAhVKCmZbkldbbhKIKKKFC0imIVmbVbpbZmhmZmFCKKPIEEIZHZep2@4sEWEIPEPKIAVbpHlppiVldlVEidbPLVA",
"hVAAAKAVCPFAZlhlbAlhhmCmlkdpe@#9nepimldhAklpmmhhdppVhVKKKAAAAhihVlijAKphKACCAlVFbEEIIIIKLAihi%@3dKQKAIEIIKZmkphVIKVKKKVVAKhVAldV",
"VAAKAklIPPLCmpZLLlllhAKmhlbl0@+7gZeVCCkVHbAmAlbbblCmVKVKKAApkjFVVmlllVkVIAVKKVKKIEWEELEIZAhm5:&4pE!KVKPEKAhphdVFppKKhVVFLVVClIdV",
"AVKVhlAKAVVAkbAIChVCKFKCZVhi0%@3akplCKKkZlkhZmVLAlClVAAKKVVpKkhmlVhVVAEEIVVhVVEKIEEELPEIIVjh5:%4aEEAkAKVAZblALKlhAIkhAKAKVFjlAVV",
"VIKlpVVAFVPKhmZhVhlKIKAAVVdde=$5cAmmKAlVVhmVZVCVmhAlAFAAVhlblllpbllVlAPVVVlpVKIKWEIEEIPIAllp0=%2gAAViVVVCAZZEZkAKEEClhplIVlKdVIl",
"AFVjkVllbVVVhhdhAClIkKAVjjpi5%#wkVhbAALHlhhVVAjZkAAkAVAKAhVAAmhilhVmhVllVKlpIKEWWILIIIPKAhl02%$4imZmhlCIEFKmPClAhVKKVpIKElAlpVHV",
"lAlllkkVbmVmVkdZAAKkAKkkkkhe2=#3glAAFmPVbpAIAVhVCAVlmVAKlAVAhiipllVpklVAKhpAKAIEIIAIPKLilAVe0%$4amZlVVFIAAAFCVFVVAAKkVVhAelhhEVA",
"VjhppVAVVmVVbiVhAlVKVAVVVkk2e=o4sCPKHAKAbbVLHhkkVlkVlAVVAbZllhhKIVhhklmhhKlKKIIFKZlVPhleKhi5e%%5aAACAKKAmlKKlKPhAAAAkVliKhVdKVeK",
"eeklAKFlVVAbhhhlVAAVAVVAAdhie=%7gKAHlVAhVAbVhhhlhlVVAVAAVCAhlhAVddhChVbAEEKKKKAKFkmVEplpldld0=%2fAAAlAmAbAKVVAKblkAVlEKhAheKAhAV",
"lAKIEAllVAAhlllhhACAAlVAkihh0%+9aVAklbmAPVpKAVhhplhllCCjAVbhCmpiiebbkhVZAEFVIlVAdhAHLdHAVFCi7=%3xdlbkVKKAbAAAVVhjCHPHAVHpipKAKll",
"VlFAAlhhlCAAAmphlVAVVClmhpbi2:@3aCbVlVkAlVbAdkdihplhklliCjlble0hekmdVZlAFKlVlAVlVVAElpbbdhih5:%1gpZmZVZVmhVbVVVhljFAAppK0ilAKHlV",
"lAlVkdkplCVVlVmmkljlhlhhhiie2=#7gpdibhhZbVbbkhdlpphhkllpVlhbi0pelmmhhiiZlVVllAVAhlVFldhhhVij2=#7ahKCbkhCVbVVmbllkhAlAhiVelVVhpll",
"lphphiiphlVlVlhlhhihllddpep0w&@9MjChhjllpbpphhhhpikhkkkhhehl00ipphihidpmhVlVkVddpljlpp0e00ep5%O1aHAhpmAVmCACVllhhlhkip0iiVVllVlh",
"ee5050eeiiiipeiiipiiiee00ee00=%wSkhe0ippppeii50eeeieeie0e0ie0ee0ieee0edhie0pieeeiitii52020ee5%@<aCkhihiiiipipipreieee25ieppieii0",
"%%+$$%%===%==&=======%&%%$&=%o+9ve=@%%&#=$=%#%#%%%%%=%===%%%##=&=%=:=$:==%&========:$##.o===&X@3ib0:$===%====&======%@=======%=%",
"o.oX+ooO+ooo+o@oo++ooooooo@ooo#9s-@o@oo@oo+oooooo++oooo@@@o@o+oo+.o+oo@oooo+++++++o+o  o@o@oXO%1yq%@o@o+o+@@o@oOooo@o+o+Xo++oo+.",
":2255,32337354790052363<35697qrkMdrrq14,22699764050975<,263<,<;*:<<:<41:<<1222:21153<<,37<24338ryy97741236444246<,,563132442222=",
"gcgcnnzkNcxZDSHVMSDJMMMkcSSJSGPPRRYYYxgjxNBnvZHCGJJJJSgdgMgaggayggfafggxSgzgvMvgkmskfzvxngfnvMgvgMSMMkMxlkkngMMcxggMMMjannncgfyt",
"jPEAFZPIKAZVAAAAACAVCFLAhlVELLlAmmEZZmKHAAVllhbhZKKKKAPKCVi0i0wrgVHkKKKVAAKIIEIKKEKPpAAAiCjVlPWEQ~EHZERIEAEEEKKKKAPkEPiCZAVCjp0r",
"gKILRILIEEELLAAAVAVHKPIHAhKILPppkPpkAKWEPVhZZhFAKKKZAVPVCdpid5=8ghAKEAKAZKPILKKIKEEWKEFpVCVHIE~E~!EKIIWIWEWQPIKKKIIPILZACAEKAe=8",
"ckKLbAZKKLKVmAVVVlhlZFHlAhAAAVplhpekCkhlilpClAVCVZllkCVkhei0i:%7fAZCZjAlkAELKAhVKIIKPAVAVlAIIPQIWPLKVFKKAKKAVCmCAAKAVAVKlVAAi:%6",
"nALHlmAZAAAkVAlljkhmZAhlhbVVAClek0dipdbVpldAkClpmhlmbVVVmdedi:%4skCAAlhVVlVblVkhAKKAKbVpihPEKKPCPVbpbVPLAKAAlVllVmjjVAVVhVV2e=%8",
"gCPllpCKHAAClVlhdbVlmphlhlVVVVpheijhjphdhkHmllljVAZVZhVbpeihi2%6kmLIklhIFjVlhAVlVIAlHAAVAAIAAICKHbbAbAAAKAVAlhldbkVVVAVdkVlep&%6",
"kbCbVVHKKHAChlplpZAbpbVlpbKhVlhp2dihpijmbdZmhkhhmAmVAdmlikpe0=$1xAHVlPVKAVCACAAVVKVAAKAKAAPCKPiCZlVlAVAAKAlAAVVdlhVZVLZAZddih=%6",
"ulZkVAAVAAhVjjllAKKVALVeVAbphVl0liVVhbpdVlhhpplVAAAVVVmlpihpe;%3fhLIAPVKVlVKAAACVAVlHIAKPCpjAV0CZVVpVAVKKVVlAphlbkVAVAApippkd:#3",
"sdCpmVVklVlVVllVKLPPKLmbAAVhll0ileljle2bkkIKVjlVVVbVVbVdphZpe:%8dlIKmllVCllVAVVAlAIKEAVVCeilAhemEHPmVAAAAAVVlllVVVKAphheipkkp=@4",
"fdppkhkVVAAllVCFAAHACZChdph5jihl0khpiiplKIjVAAlVVmVhhlVhVplpe:#4gmIKhhmimmdAKAALVKIIEAAAllVZAmbIVHVbVFVlAKlhhlVCAKAVpVkApkdh0=$3",
"ahVjVmACVlVVlVVKKAAKZZAipklhlhkeeehpphlhVVAKVVAAVVbhlklllldki=#6kCAAlAlbVKKCLIPLIIAKKVKlbhdlZbPImLFVVAKbAVhhCVlAAKHlhebphhpde:$3",
"sbkmkAAllhlAAjlAAAAAVmmlkhhpVVjhlZkpVhbVAlKAAVKIVAVVlbVVbmVji=%0cmllAAhLiFAAKKLKIKKKIKKKCIdVVZIVZIZbVlVAmmplClVKLAVhVVVplipi5:$4",
"fVVAAVAChVlAAhkpmAAbZCbbipiikVkVbmihdplLVAAAAjlVVmbZVlAZVkkke=#9nmCkml2ViFKKKKLAKKEEWIKIlKhilFZjAChVmAKAkhhVlAAAVAlplVh20eeie:@3",
"fkKKChmbVllVVlkhAAlVCAlm05plAVhphpdhhiVKimVhlhmVZZmZVAAAAVlhp:$9gClhihibhVWFAAKKKIEEAAAVlji0ZACZdblVKVVlikVAAAVkkbhVHhd:ikiii:@8",
"fkCAVhllllAlklAVVllAKbd02plVVkVlmmVVehlHVKKVklFFAKAblCVZCAApp:$7kVEhdVilbKIHmALIIKWIAIEVVKKlVbVVhAAblljkVhVAKAAlVVVbVii2iAihp:@9",
"glAlVlhCAFVhlAAZVkAVbdielVVlVjlmbmhd2pmVACAlVAjhmVVkmZACVlhVp:%8vpHVhVkLbZPFAAIPIIKIKIIAFAmiVVppipAiAllVAVLIKAAVAAmAheeilVpki=@3",
"sdVllVlAAKlbAFVClZFAjVVhmlbmVpmVVlehdlVpAkljhhpAVlCkmAAVllVZp:#9xiEAlViV0mIKIALLEWKIAIEAKKibjbhhhVVkhVdALbAAFKHKEKZlpkAhbAhli:$2",
"sAVlmAbmKVjFlVVKKHKZpZVhVblkpiAVkhimVVhiKklphiVVlVldhVVhlVVVp=#6fdEKprpjhKEKAZKIELIKCmKIAhiikAVpVVpVVlVVIAVmmZmKAhVhAAKhlhpjp:@5",
"fCKAVVbZkKVLAlFIlbVbeppplZpilllmblembVihVVihpVhVCVbmbAAVmZAmi=%8fllmeliAAZKKVKLEIKmAAVKKVipbViklAlllCjlVVhCllZmmCkAAFpi0pelVi=@4",
"cVAjlZllmIZAVVAlKAAphVepAZ0dlVKVi0pbh00VAkipkVAVVlVAZAAKVVlmi:#3fVAmh0VPmbKbVIFIAlAlVAIKAVmKhAVVAhVVIKVVmmKmVVLAdkAVkhVVpiVke=+0",
"cVPVlbhkAlVmVAdVKAmhbphlAi0lblAlmKAbilkKllAlAKVCVAAAAVVKAblle:$3deAdehHACKEFLPKFAAVKAKlAAVVlipiKVlVVEEVVmAFCLZAVbmblbjlbipidi=#8",
"fHLlZbCmmphVVAmAVAAbbVkdVpbmm0liVbAmVlmVAAAlKAAKKKKVVVbAFjVde2%0adlbiZLVAPKCAIFAVKAAKAAIFVjlAlCIAVVAKKAkbAhAVbblAmmAmLVpmViZi=#2",
"fAHVlblhhhlAVAVVAKlhAlLAhllldhAdAAAZACkAIKFlAVLEKAVVblllllhhi2@5a0VlVAbhAPZZKPAVKVkVVAKIZHVKhlVKEIlKAEkhmmjAVVhVlAAZbKKlld5l5%#4",
"gVCldAVkphdKVAAAKAmAkVAmpVVlVhbVIAlmAVAAAKCVKFKAVhhVVVhmbmbh0=o0ckKAVibbbCAbLAAKAplAKKKKAKAAljkVKVeKCKVhAAAAAbKVKAZZAAAKVkip4=%4",
"fbVVbVllkkKVVAlVllVCpmiCplppelmVPpZAbjhpVVlKAKAAZkVAVVVVlkd0e&#8MmIlhlZZHPZAAFIKVkAKKZPKAAAlVPKhKiVhVIlVimZAACILPAHHZCCll00ee:%4",
"ahKZllklpphVlhlVlVhlddlAppldhPCKbdAmlilhAhVFAVVlAkmKAVhldpi02$@wNAZdAIIIKVVFFIPAmhVAFAAPAKACAClCVViiAVlheVVmZCKAHZKKFlihh5ii0=%5",
"amKVhphdplhkhVklplhhhklbephhAKhmbVjlCdAhVhVlVlhlCVlAVClhhVe00:#6klKkKAkZmhlAKAApphlAlklCVKAbApphACphVAlVlbKAblVhVAVVVdplieee0=%4",
"adhlppdpphpphpdphhppiphepidbbVpppipeihkkilhlllihmmlVbbkVbmi00=$<cVmpdiVVhphVkdiipkkkpllmVhhhh0lbVejjjelVjdbkpllhlldhdh5e05ei5=%4",
"ihhdieee0eei0eeieee50e2500e5iee0eieepeii5iiiieeeippiiiiiii:05%$<udjiiiiee0ei000e0eeieipppe0ee20050e:p0e0e0pepieeeiii00::=5252=@3",
"yp5-*%#$%%=&=%%==%%%@%&=%%%@=%%#%%=%===%%==%=%%===========o$$@#6ue<=%=&%$$============:===$=%@%=@%%%:@%%======%%===$#=%oo#$%#@o<",
"w2#+ooooo+oooo.+ooooo+oooo+oooooooo+@Oo@+@+o++@+++@@@o@o++oo+@$9y2$@@+@+@+o@@ooOoo+@@o+oooooooooooo++oo+@o@O@@o@+@oXo X   ooo+#3",
"fq33<165444125523446234443423<;*;<<211<,,15455009q7961357988994tur742<<<:3333<3<25242,34432:<<,;3762550068331<771<<2,,4412,<364a",
"JcnxxgvNlljfvxjgScvvkggcggacfatrafsgxggjcggvMGPUJJBMcBNUKLGGJYYvjvvgSgxgcgfkcndpccMMcagZSMaagayrcJDzcSMnHVgggjfgxzBxcsvcdzagfcvv",
"AZAmAAAKEKEPRPLAAVKAZZVeFdVZVVe9gEZhPRIAAAALAAKIPPZAKKKIIEldCAEKCjkHPVHKAlZPPAPKIIPWPAKVAidl0w5ycWWEFlZPKACHmAIKAmlAlZietVHAHLmA",
"HVkKEKPWEEIEEEEPKAEWIbemVlZIhi=6sKPIIEILAKWWEPWEEEEAEIQKKKKVAKEKpZHIAmACVbHKIAIEIEEWIVEAKehl5e=7NEPEAFAHKIVAHEEIHmbAmplbHbAIkPAA",
"ZVlZAKKZICFAIFAFCCPCKhdhlAAKp:%6gPWVPELIKKKAVHKLPAAlKKKlKmVleVChhmhhbkAhhVAAAVVAAPIPKkihle5ie=$4aKAAkCdlKVklFZHVhdlVddhpihhlLKVH",
"VhjhlVAAAAVVKkCVZmHbm5dpCVAhi2=8xIWHKAbVZCAbVVAAACAVlVHAmhdl0AKVChKAlAhpmjAmAlAVPIKKAZAVieihi%%8gHhlihphhAkVAVAkVlVlCki2pblAFZph",
"PlApCVAZVkAAKlAVZhhkp5ijIEPVd2%4fIKIAVlKHLVFAVLLAACVClPAAhVeellAHZPAkKidmZCAAKKAPAAAZVVikdiii=%7clppZljhAhlVAKVACmdhbm:eVVAmAViA",
"KCldVCmmVFAIIKAVApepiimPKAhpp2&6kAILVlAFAVCKKAKLAAVVCKIKVppiilKVIZPAhCplVAKKKKIKPAKAlbVld00ei:#9gHiVVhpVhVAmKAVVVViAVl=dVhApAAlK",
"llj5AAAPAKKIKAVhbi5hbVAIEKAKm2&7KZIImKFLVALAVALAVAVCPKPIAppbpkAIICAlpVAbCAAIEKKIKKKhdAHeieeki=@7jKAIphVmACpAAAldkkkKCp2ibmhiVpVK",
"eppmKAIKKVLIAClCjeiklbVAlhhme:%7DbLKAKImAEAKKVAlhVlAAFPECVlmhIAVKVCljFkZAAAIEKKIKKVkAHmie5epe:%4fAAApbLmVApVCppkjVACl00hVlhlZkAl",
"llVlmZAZVAVKkVlli0peklAbeCmbp2%4MpIFKIPIKAAKAmhVVlAKKVLLAllVVFlAAAhibVZKVAIKVAAKVbVjmVeep0lpe=@2aVlAbVHeKlplhillVVAAk5phlilVFmmh",
"KVhZZEELKClAhAkepdjpbVmhZFVHd:$4gbPLALLPKVlKlVAAVHAIKKKAVAAd0mVIjkeCVAAmAAFlVlCllhVVVheikili2:$4gklmVlblAkbkmbllVAFAielipiCKZVAF",
"AmhdAIAIIZmZAAhlepihVVblhkCVi:@7aVbZLHAHmkVVKAFCZHPKAWLAhj0kjKAmihkCLAAlAVjlAAVACAKVbikiHmp20:$8MpAFVAlVAhbdlVAlVAVl0kphhhbAZdVm",
"AVddPIWKAVKKKAAlpHHkKmVAVHIdi=%4glVAAVAAmlAIKAKCAbHEIAbpbVZZlVplVKLAAAAZKACALLKIHPAmVhdppeei0:X1gCAAmjhlVlhlbKmAVVlphhVekdlhbZlC",
"lAbhWQKAFAKKAKllhZddAAlAbVKhe=#7alVVVVlkAlKAZAIAIAEIVhhCLVLpmKIKIHmCAVKAVKIILZLKHHVVhiihpih08:o3gAmdbVhlVZVmmAVAKCllkVpilkmVmlhA",
"ALLPQHKZIKIVVlmlAAVZVhpPHCKep2$8hbAKKVlVAAAVKKKZHKWIEAAZAmpbIKAVPpVkCAKAVKKZmhbAAllmlhbbbeiee=o7vChlAAblmZAhbmCKAAVCVKplVVVbAbVA",
"KhLAHFdHKKAillAmZmZbppbIAbApi=@7llhAAlVAVAVAIAmVAEIEheiCIVAAVAIKhiZVAlpFALAmlhkCVjbVlhbehkhdi2o8cClFAZVVmZVhllAbAVhlikVKAVmCKKAF",
"lVVAEhFKKAAdVAKmZVblkVhIKKVd0%@5sCAKZCVjmAlIIHIKEKEWhAKEKAKbVZZlCbAmVAKIIAlVAhAKlbVdbmh5pe0hh%@4pKKAkVAVllVllVAjlVhjpAhphhmAIAKA",
"mVEEKhIKKIFbZAVZKKbl0pVAVVlk::$5zCKFAAAmZAKPAKIIKKKhAKhFAAVblKHPAhAIAKAAViplAVAAjmkki2ipVphme$%9ljAklAAVVVVlmACmlACVhAVlAAAIILAl",
"AAAIAKAAKIKZAAVHFACljlAlKjAp2:%5xVPPZPKVALLLIIILAAKEIhiAVAVmlbILmlKKAAAlhpmVAVAKVkhpebKii0hle:%9nlAlkAZVVlAKKAVAVlCVAVpVAIHAVlVh",
"IKIKKAKAKALZKKFAKVheielkIKVpe:%2NKEKhAFALIIELLLIAAAKApkldAmZhZIFZlVVpjAmlVAAAAKKLZVAhLZeejVm0:%9cAVlVAVVKCKACAFmAAAAVKKAAhKVKKpV",
"KIAKAAAVKKKKKAHKAKVhlpKVCAi0d:%9cILmACmALLEEHALliEIhdjplhblplAIFpVVdhVAAkVAAKAAAAVlbplhlellhi2%8gAAAlAVAAAAKLLACVVKVKKpihACKKiAE",
"EVAKKAVAKKFKAZZLKIKA0AKKlVkkh:%4cKKVhCKPLAEEAChiKKVki0plbhiAEAPbdbmlVAAVKKVAAKAAVZVVlLhApVmAd2$5kHKZVlhVAVAKKZAllVAVAdiPpimIkKEE",
"AVAAAkVKKIEKAAACKAie5AAKhCVlp=#1jCAVVKEEPAWIAAZIIAVh:lleiilmAAKbpjlhdAVAAVAVVAAKKVjKLbVVhhjlp:%0clCAp0hAVAKKmbVklAAphAAlpllmVFKl",
"VlhVVAKVAFKVZVZCldmVkKKEVKVVp=%1gAIPVVEPKAPLAZlZVAAkiIhellmAKLAhhhmdllVAlhVlVAVAVjAAilhhjelbe:%5MVLpiiAVVlAmmmVVhApAAAlmkiVAAAhA",
"ihpCVVVAAHVKFAAkVAplVKKhplVVe#@9glEPAKLAVbAAAihVVphiVV0ihlVlPbhibmlhmACZhlCVVAVVlAldVVhlheplp:%7nCCpkiVKKAHVVVmCVbllKFhlkpVAllim",
"VphVVVVAAFVAACbbbViVKAVhmkie5#%wMAIACmbZhVZVlhVlkpVVhieljkmAAhAhhlhbVVHZhVACCAFlmldkheVhp5hke%%7gmAlljAFAAVbmVVZVbVClidKl5klhhhi",
"khjkjlVVAAVlVVbhVVVCbiVjhkbh5&@4NAKKAZlAVbVVhlVlhpAhhi5VjkVmbVVhillVjlllhVCVjVVldljphlpheeide=#4gAVkdVCVkmbkkhlblklVhpAde5Ke0hlp",
"hedehjlVVlmhhhhblhVhpihppi0i0=%wMKCAAClCVlVlkdljihhip5eeeplkeeeeelhhphhlkhdlddppdkepihi00ihee%%8ghkhpkldhkblhhjdkdblbib2eep0ilhp",
"iee0eiipiieeiiiiiei005d00e0ee%$qNmjhhppieepeie0ee0e005050ee052e0ieeieeiii00e05000255:5:00ee55=#4aipeeii0iee00eeie0pie0e0eiee5i55",
"%=$%=======&%=====%=##$&%&%=%$@0ke5;====%==%$#&%&###%@o=%&%#%@%%%===&%=====%%==@@#%@%%%%===%*@@8ae2==%%%%%%%%%%=%%==%&#$%@%=@%%%",
"o+ooo@o++o@oo@ooOOXo o oooo@@o#9a2=@@+ooo+@oooooooooooo+ooo@oo+ooo+o+@+o+++o++.oooo ooo@O@+oOo@4y2%o@ooooooooo++o++oooooXX@  .++",
"-:<<:2:5344<16138800q9967<,799rgva9ww79992<<3<75799075006<31143,2670772,<4425::2,,3633411,<<<16tfr9642<<<,<<337432<23,>3<2:222=="
};
