/* XPM */
static char *wall2[] = {
/* columns rows colors chars-per-pixel */
"128 128 63 1 ",
"  c #0D0D0F",
". c #0E0E11",
"X c #100E10",
"o c #141316",
"O c #181617",
"+ c #161519",
"@ c #181719",
"# c #16181F",
"$ c #1B1A1C",
"% c #201D1E",
"& c #1E1D21",
"* c #211E22",
"= c #1E2027",
"- c #1F212A",
"; c #242125",
": c #282526",
"> c #25242A",
", c #29262B",
"< c #2C292E",
"1 c #302C2E",
"2 c #262731",
"3 c #262832",
"4 c #2D2C33",
"5 c #2E2E39",
"6 c #312E34",
"7 c #302F38",
"8 c #2F303C",
"9 c #343136",
"0 c #393336",
"q c #35333A",
"w c #39363C",
"e c #3D393E",
"r c #413B3E",
"t c #483F3E",
"y c #363641",
"u c #383740",
"i c #373845",
"p c #3D3A42",
"a c #373948",
"s c #3E3D49",
"d c #423D43",
"f c #413F49",
"g c #464045",
"h c #494246",
"j c #45414A",
"k c #4B454B",
"l c #4E484E",
"z c #50474A",
"x c #524A4D",
"c c #474653",
"v c #4A4750",
"b c #4E4951",
"n c #534C52",
"m c #584F52",
"M c #524E58",
"N c #575056",
"B c #5A5155",
"V c #565059",
"C c #5C5459",
"Z c #615657",
"A c #615759",
"S c #63595D",
"D c #695E62",
/* pixels */
"uqpwppddegdhheugghkpgdlkjjg8sswgypqdpkskp9dbbnbfkbknnjfskfjjkpdssksufpghgwqpuswwwdwr<wkgqdew60wqdde9wqwewwrphhfdhpdhfhhkhkkhdu64",
"qspwqqrdghgdppekkhsdsjjgsg8wphpwdpdjhdpdd>unnbfbbnjMkipfkjgjppdugkgudfppuqwwwuuwdhd9:kxddewqwwqpweqqwwrduu7dzkpppduddpkkpdpupu,6",
"9q96900wdewwqw5wehqeuqq9938wgwwqw7w7pq704@edjpjdddsduuudpquu5wq5epqqww5080wq95q50ww>;hhp8q5956609995w0q4460rtqqqw0we0uwuwqwww6%*",
"wpqw49wwepww9wwtgpwpqdqq5qeeee8qq0ew767e4@djdpdfjdpdpupdpqqqqu8epqdwqwqwqqq0q0w0dw0,$dd0w094469050090w990666w05047wdwww0dwe0w6*;",
"dpq940pewdp409dgegpqyw9q9eerp9897qpwweww<$ejkgjhjfpfppduyq8qdwpqwggwdgppeqqq9werd00,*iu5qw95qe6w0rewww9974e054w0w0r79qwwddurw6$*",
"dsq94wqeww84qwhrweq8qqpwewwqq9qq00wwdp006$exdphjkkkfpfpy984u9pwwdguwpwwwgeqweeeew00,#du0e9qu999wrgwwewq9q46454400ww7wqedhuwwwe*,",
"hgp999w99e5wqgdpqrqu8wwweqeqeqqewrpwd0we9%rxsdgxjdkpsydq89heug0pgdwpdwwpqqqwred0wwe,%dupwqw0eqdrrepewqqw5446<360qw0wuwrdwwewd7*,",
"gq9w80wwrw4etdppgp9w5ed9wwdewqqwrdddwwew9Owpggjdkkbpqpyqphwedddwtgwdpwuwwqwdeeeqw0e,$dduwwqwewreweq9wq9w<66<66tdquqdpdhhdwwwd0@<",
"up89qerr5w9edppugqwqqrdqwwdqqqwrwpqwqp5w<$wjkpkgjkfypyp5udpdhleghppggdgpdwgweewwr0e,*wpqwq99u090wwq8095035,36rtrqw9qpdddpuddd0*>",
"qyqwqww59e9eqqw9q3wqgreewdwwwpeedw59w9w00@egkhxhljyyqp3dhpdhzhhgddhhhdhggeephewpe9e,#dyqep8qwqyqe0q095w734,erte0w0wrrqewddw0p4&*",
"edewqe9w9wwq09wqqqqeeewdpqewwwweq76pw5we<$qkgdksjpypdqkdkkjdhkkudlhxgdhkppuhghgweer>@wqqew80qhpqw598q5w34440wwdwww9q69wdduwdu3&*",
"qdwqqwqwqwqq9qrewweewedpq5wqqdqq50www9w06@9hgupshsjpywddddpdhksughsjjgjjpphwpwpqedw>#dd9ew09ed9w695900664,0e09eewd5wwehrrqwpq0@>",
"dkdwdwep9wqw0eeqdw9wdwwq0qewegw5rr0qwq09<+whddddkps5pqdydpypkuqggusgyu8qyqugqqupqpw=$pgud98wwww959099w43969e9r0wee59rdddedddw4&;",
"hpuw0wewqrwd9we9q5rewwquqgpreq9ewwq05400<@9dppeduy55y5uuwpqdppsgpppw8quuuqpp84wwqw9;$pdy999wqe594035494>966r0ewpd0q0q0redpq407&,",
"hgpwwquperwwwrdrqqgqwwwewddw9e5wdwdq60e61$9hdddpuqqd5q79wwwppppusquwyqwgquuq99pdq0w;%pq9q9wqqd9555,<43-606r09wwwpy0q7wdeeeder0*:",
"gddeqqwwde0pwerrqrtqw0eegwpwqwwrdwww700w1$rddpwqppuq3qqppdpqp0duqpws9qpudwu9pweww9w,#wq89wqqwe995<93<>66069940909qq99rwqehedrw*>",
"pgwqwwddzuddrddedew0deqdeepedg0wdw0q0qe9<@wdduqpu5u70dwwd9uqq5qqwpuqqpdpwqpwhdpw0w0;#quw6wqwe99q76446<60909060600q09wew0preeqw&;",
"kkwpdehhhqwhdhddhgweq9eddqdwww9dddwqpww5,@9ppqwu57ww7ddqwpq075w9pwwwgupepwdddwp0wd0>@qdqq9wwqeqq0066600609950w0w9pw5werrhdddd0;,",
"kgdddkdpwqdwdddpguqw9pdr9qerdeqpewqdwe464@6wu0w550wwwddww05540wrrpwededgw5pwupdped0*$qpuq9q9wrrqww64e666606067wed0wwe0whdgdrgq*,",
"pjpqhddypqdddeup9qpq4wqqpdgr0edupqqeqq9w<@6wq5q397dwwwqqqqw59qedewqgeegd50wrhp0dpw6>$wdr95p0gre94706696000w706ww0wwqwwrdrprdtw;,",
"dqdpudpqqpdddyqq58eqwwrghgdduddreeeeww9w,O6ee9609qqqdqqwqwwwwrrdedgpdgppq0dddeppuq5&@dq75w99w03344346<46607069605w4wq0wu9wddgq;;",
"sdpuppd7uwqwq5quqdpwwwedhddpdpwedpqddw95>@wew9500qepwqu0570d5u0dgwwqdweepdpddppyw75&@qq5998w03565>4<6>6660549,9676600q79wedwee#>",
"dggddpuyqwqw70pwwdeqpwwrddpuupwdduwwpw566O9wew9q95900507w7w400ddewg8gqwhqpdhpwqq794&@74599wqqw6444746<6606<4444636667r0wpdeew4%<",
"usewywqq5qwuerrwgdeewqwgeq59qpqq8q9qw79w<$9dew606w657q077074w0twdqqq9wpqpwpdwqq9750;@706q99090596<>6646<667643<<6669dw0dedwer9;,",
"ppd89uqj9pgwddgddpuw9qw9949wq9qwpwwe64w0<@9qq050w965645973460wwww8840qpqwqup6456666;#57060w0954444666616<666,><<0690rerrwweqew;;",
"qpqwqqeperwhhhhqgqqq8q9ewpe9q589qq750ww7>+3wu0wdw9666996,450w0ww9445509qwqu933670w6;o40607079064464096<6666<3>,109r0erdewwq9r9&;",
"8q5q89wrqddphdwe5499e90eerrw0wqqw070ww64<@9eq0www0734666,60e06053443699907w5,599w90;o0w96e76w66<6<6<1<<0169>,>6r0rrre0ww9490w>#;",
"eqwwq0dweed9repw35qe90e0weqe50q9wq066409,+9uw09504-2<6<>,6<9644444<<644957064699656*+3606950964666<,616946,<,,10000r99ee560w94$;",
"eew99w0qwwwwwq9w90we9w9r990w344940446<94;+6090044-;,6,>4<,4<4,63>->14<666964,36969<*o4966166166<66><11<,<6;<<19<1,6999w3>90699$:",
"9w<69499906<444464094<69<993<><><,>>,<<4;+998>3;&&&;*,;;;*,;,>>-&;;,19<>>,3&;,<<<,,$o691,>1011<4::<><,*:::>,1<;,:<1,<>>>><<<<,@;",
",:+#@@O$#%@#@@O@$@$O@@@@@@@ooOOO+oO@oO@@oX;;&#. o.oOoooooooOoXo..ooOOooOO@Xoo+O@OOo o1;@O@@$@$O@oXo@@Xo@OooOOOoOO@OOOoOO+@$OOoo@",
"9>::&;::;:&$;$;=:;;%+@$;::=&$#;$;$*$**;***34&&&&&&$#@$$+@$@$#@+.++#%%%$$$#**$$$*%*#;,9<&&%****$$&*$**@%*OOX%;$$*$**$**$**;;;;;&<",
"ddgksgugus8wuqwpgsp03hjhhpfqpqgdrqdw0dggw89u8q45qew9644,46<67<&*<6990rww0ddw9eerewdwewgwhgerhpqeu0rw00d0t<0hh00wwqqw050ehddpdddu",
"uuwkwdggqdqqdpwghdp<,dddkdqp0rwu9wwweweewqqw99qq064460699444**&&<11rwdwwww0000eehhdpddghhegggwgew5wrdddw0&9wpqwr99ew09qp0dwdppdw",
"9ewqwew95w9e0eged00>$dpdw7u7595556q99etr059449w9<<<,<,<<,>,*>;O@>69606666666990rrt99wwretr9qtre07066er69>o69q4996096619660erww0q",
"0ewwee8wweqwreerewr:$dhup707999996990eqqqq05609444<<<<<4,,>>>*o@1<16664<6667060egpwwwreqeq0ee5qq76070946>O<re9909603661607w7wqqq",
"eqerewwrqgeergdrwrd:;kjudqu9w90w,594eewqqq0w09946996>,><>>&;*&X$>1<90660rwd0wrerteq9pwqweqwderep0p060603,@0dww093344,6990te7qw55",
"qweeeddrgdgdwpqwdhw1;lkgwd0rqyw5590eeeewwwqq0qe99946>6<><>>,>;@$61<0077r0007096ddw5dqwdgprhdrdhqw747946<,@0de95959666w6eww0wd76w",
"eweeggrhhhg9wqdrdhe<;xkjpudpddwq99wwrqqewqqw0e0q996<3<4<<,,;<,o%61r16<0060wwetrhduee9qrgegdghggu7w706344,@0p055990449669dw0w09tw",
"ergdhegglhpdpqgdhre1;xlsuddhpw0w99wer0ewqwwrrgeq340646<<,1;><;@$0<91<670ddwwewdhgwp00edwpweguupwu7707066<@0q56943,44666900epwdwd",
"zhhzkdkzzzydphgdwgd6;gkppggd89pwwwq995759wggww99490344><<<<<<,O$:<19<660tewwehddwu9qwwwwdwpwpwwqwwwrq0w61@00699564446600rdwredww",
"hmkkhdzxhlpppuhhgqd1%sbpgkupqgpwgwww9449qqqqeqqq9wq9<4,1<<1,,*o@1<,6*<67wredrdhepddpwpwqppgdpupgudww0qw4<o3q5960444066000wrdered",
"xzhjhxkxkujdpdddddr1;pnjgspusegwewqe790w9ww9q554005>4669<<<<,:O#66<<,<60twddhhdpwuuq0qpdtwwpwwxhwuuwuer9>@6ww40464,461690wehewhh",
"xhkgxkxngkgjfpdxdrg1*kjkdksqdduppwee4w9056erww9q4344,441<<<;1,o%,<<<,60rewwwdwwqw9qwprdrgpudwpp8uuwwq909<@6qq9946666<96r0udrdwhg",
"mklknxBxkxkkdxhkggg9;bkkkgdugppwpqq57q6w0eeww5964>594<4<<>1>,,O#<<,,61r09weddhwddeeddpwdhpwwwdqwpqqq9q9q<@6tew65094601e0rhhhwghx",
"hgklxBxnnMkbxnnxpgh9:nkjgjjdsgpgq8q9769e0wdw5<52396<44<<,3<>,;o+:<1119r60re0eqghdddhhhwpqwwpqwgpwwq589991@wdr459634<6690tthddxkz",
"hjhxnSCnBnkbxxnkjzk9;bkbfkuugps85399wq9qw9q924904,<66<44<,,<,;o$,,<11996e0wedgdgddhjdp9uedqwwpdwduq9w9qw<@wdq9565<<66re0erdzggxg",
"ghBBASnnnvkBnnBnjkh9=kNsfsppkgq95qqw9500ww934996<64166<<><>>,;o#>61<,1690erhrdddudddjdwdguwdpwup7wqqpqrt1@9ww09999640r0errdggkpk",
"llnxBCvNBnbnnnxkfkd4;vcppsgkff88550w49q5d954660444<<,<<<0<<,>*o@>6><<<469dddddddpudgggddwwpwqeewwe9wewew<@4w94w999460660twdzdzzj",
"llknCnVkCBbMbkMckjg4*pspguhugp8q54ee5060w965966596<946<9<3,;:*O$,<<:*1690r0rdeddgpkuuudpuhgpqgew9wdhhpw9,@9dq9669669reeeehdrxzgd",
"xlllNnbnNMnVjCvjbfu>&pcsgsgupy8qw9e9040q666594069<<6<6<4>>,;,;o@,>:<,,109<9tdhddquqqwuuppgdpwwde9udddeqq4@6qq59w69eee096eerdhhxk",
"kxknnNVnMVMsbMjnfdp3&jkdsjujpqpwwqwq55990w60w0969<66099<6,>>,*+#:<<>::r0rrddddddegksgpgpddpqwdhpwdzdgeq9<@4ddww90949e9w9erdhhkxk",
"jlnnNblcVcjvvnbsdkp4;jkfjyyjuugye0654w56059w0w64<<99r60<6,<;,;o$>61<:190ttzdzdzdgghwwugdpddgggkeddhduqqe<$rhpwww0904466whdgdkjhj",
"jlbvnnvkjscbbCckMjl<&vkgppgqyqwqqe59996065w0w76<900000699<,,<%o@<<<,11rt0etzhzzdupgplhhkkdhgehgdddgww8ww9$qes95ww756950ttehdhfdf",
"lllkkckcjvnjCCVNnxb6;Cbsgpsudquqqp95054940w59054r90w090w96<11;o%66,<<0rt0dddxhdpspughkphjjkkklxdhhwswq909$epy0950w4960rdrhdhhdhj",
"ggjkbslsbvjlMNnvkbs4;njswgpuuyqqw5q509q90909640rew0w46r9e94<,:O;61<<10190wddpdppw8gdfquggkkkggkkjupwwqpr9$ww90eq5456ertepwpddkdx",
"upgsjljjbvjbncivffj6&cauupuus8wwwwww99q949946trr0rw09rt6we,6<1%$66<606610wudw5qq9qgguwrdhdkkklnjuuuqqwww4@0yeqw994<9q40q6pwddgpd",
"uugjglljflbljfssskd3&sakswgpqqqeqw55409q0qq0et9tewwedrwrww661,O$9616<11rww0wqwuqwrswqpgdjkjkjldqsupqwwqq<@0dge953469,090wwpwdhdu",
"epddgjghljjjkkgjdgg3;jkfpggq39qqq9,4904<90r0eertdwweew0ew9646<$$996,:16066rw07q0eeqqphpghghkjdygdudq9wqq,$rhd0q99699440090wtdupg",
"qqgphlkkjhjjkxjjjsd<=jjpju8w95we439409590049rrerrw9t406e0e0641$;r0>>,1966666wr7qwq9egeeghhdpxjgdpeqwqe0w9%rddq53949999009eerwrdd",
"wqhhhdgkjkllhpwlglg<;jsdq8wq89045w,4q9<644990090www56e9ee6744,#*66><,4<669060770690eeehhhkhgxpppuuqq9qwe0$eppq59w49<190099rwerrw",
"q9rh0etheeh0egwghhw,;pku5996396<19>,<>,<1<100499664>1<00<,<>,:+@1:>*:1,::<1<>,4>,<,60rrr9uwwr9wq54995<00<O0wq4,<,,<<900:1090r009",
"$%;%;;:%;;;;;;;::;%@@e6&&@&#@#@O@@+OOO+$@@%$O@$@$@@@@$%o+@oooo @&&o.OXooOO@@OOoooOOOO$%$%%*$#####@$$@@$O+o>3$@@+O$@@OO$O$$@$%$$$",
"=::1<111919<<,1099<<9n9>;>;,:&;;;:$=$;$&%+O%;$;:*;*:<;*;*&&#@##;4&@+$$%$@$@#@#@#%;:;%@:<,,,,:,:;&:;=;;::::w9>;;;;;;;%:::;;::::%@",
"kNnxNNNSCVCbVSDCCcVMccsccffjphugjdqwwd90e6dhdpwhugdhjpddfq5969qw7w4wr0r7964666<70tgz1gCbkvlklvasujfspjklkksksjjgdgugghkghpgkjge9",
"klNNCVCCCMCcCDCCSVMMMMfbjvkflfjlddyudewe0;whddudphjfppudqqpy0e9077er0e0769r6460eeth<;lkjjkjsfayupjjuphkljjupjdghgusghzhmphghhg<9",
"ukgzkkllcfbvVVbNVckjcfvffppguppwwpwww0e0,O9wq7wrwwwwwwqu9q909499<96660<446>><<64re0,$hlgggfp8qqqgp8qwegwpqy9pqqe9qweeggqqwgww6;>",
"hllkjnjljllbbNbbbcvfcvjvsuggppgdpqqq0ew4<$rhpewedqqqqwwq7q40599696667<<,:<,46<19ew9;$pduwpspuduepeeepepewpdppqddqeergguwwgwdw0;,",
"kkkhhNlbNbNNbbcjscbbljjpiauuspppq89dddq4,@ehhdudeqwuwdewq9uq99840<666<,<,<66<<90996:$hkfjkggquppggqfguqpquduqgdegpdgddwpggepww;<",
"kjglNblbbnbBvNvNbcbvcjaayppuuuuf5qpdqd05<Owrhqqw0pwpwpp0p9q0q93676666464<<6,6<99999:;gggppfy8sdgduuwqwpwpp98wpwdgkgedeugdqdpw9;>",
"jxkxbnbBjkNNVNbVcabjscfysypiqqpwywpdddw9>@0du9wwpqededdwy9www039664066<4<61<1919009;;hlhggwywppppwwwwq9gguwq8ewdgkdpgwguwupew9$<",
"hkklllvvbvbNVVnbsjsfjciypppwuqgpq0dgguq3>+0ew54600wphddyqpq9q969060076<69<109199900<;ghgphuppkgpqgfpuhguuqq9qgpphhpsdggddwphw9;<",
"klhjkkjbbCCNCNvNfsbvffaypuiupphdpqerw7wq<@9w546rudrdpwwue0qw0750665064,06<99699900e:@eupsdsdksfdqpgdphggw8qeehhdkkfdgpdjudhhe9:1",
"jlfgjkjvNBNSbbcbcckjffspgwgpkppgupdpqpw74+4q50rhddwdedwuddpw909w53664<>19900009r0e9;#wpuwq9dkdp5idgjfgpqquwwhzwdzjdhdkhnudhdwq;<",
"ljgfhjjbBCVMcVccbnsasypagjppgupspudwp0w44O490wrddd7df7wpgpqq80894646<3<6660996r90w4;$wqwwudpduqyuwepupw8wqegpdqhhkdkknjhgghuw9$<",
"hjwgjjxCNVbMbnsbNvsif8dkupsdppgwudpduqp9<+9epwrdhewdpq0puwu959056664<<6<16966619969:$wgwpwpwpqqqwepeupqwweehwgdzhxkdnjpdsgpuq9*<",
"pjgpkkvjsbjsffcbkafijfjhjdfsspegddhdpuwq<%6er0dhhpdpdwddehpqwqq969464<6696661<66911;@eqqrwwdqdyyqqppwq3qpwwgwgkdhkgdpsddgsywp5$6",
"jhpglhljlljbcbllvavpfdifguwfdgggdpdw9wwp9%4dhhhkhdddddhrhpqq9w39w440666660006966190:$deq33q957428eq3540egg9gegdhkkddddsyuwpd93*<",
"glggljkllbNbVNNbflffpsejupfhppsgyddpprdh0$ddhhhpdpdpgud0pqu99q595639660600e0<6<9eer:%p984985542394435qwhgqqpuhglfhjpspuydq0u5<;<",
"gjggkkjxlllbNbbjfcjisfqdugdgpkwphdkqprdd6$eghgpwddppjpqugq85q49466600<00900646rrw90:%dq99999544493544qwwqwwghhkhhkjydydppqgw59%1",
"jpphgkjflsklsjcikbippiuupppugpggdkdudprw9;qnjuddgpddpwwup85qe030600w96w099990er090e;$ew536696605><449qwqr9zhxzzskhfujqgphgduww;<",
"usgpggjjjklNvNsnckjyyypquupghphspfudduhw0$qjddddppeuywwww3qwwwer0w6099w69e090e0e9e0,$d59<4456w<24640e909rrzmxBjfkfpjuukpggu9wq%<",
"suppppkjkNknkbnnNsaysuqddqdkkljgppfdphgd9*9hhpgqgwspuuq8qqwwrgpq6w6w09050w40reee0e9;$uw4;466964<46e0e9erzzhkzkdkdfdkpdgspqqpq4$>",
"ghwhfkgljblkbbnVcji5ugyppdpgljujyphhdhpg6$pjkudpgfeqpqw8qwrghpewe4qw99w4999ee0059w<:$wy3<60e07446006990trghhklkkfykhugqpdpuqe9$<",
"hjzghkxxxNbknnbjkai8j8uwwwpgppp8qudgpdpp3$qdjwdpjpqgwqqwwwdegwwq690ee6e9590we9q9090:;q8366666,4669<9099qrgdzsddjypjdqydgu8gqr6%<",
"xkggkllxBnbknCvjciyj8qpwppgphuuqdpesduqe4#dgfpqdppupfpwggqwredqwqewe69w90999ww59w66:$wq964444666<<99499qrggdudsuppgdqpdpuw0gew%<",
"hpjklxnllxnCCCjnfpaq8uggddwgudppddpwpprd<$qkjduduq8fpwwhwrdegdwewwe59wd0w0e0www0960,&qwq54,,>460660649qwrgdpfjdjdpfppuduuweqq0$<",
"ggkkhllknlABbvlcjjuupppgqpgugpdwhpddpdwd6%dkfp7pwweqweggpddhgeqqp9ww9wpwer09rww9999;#qq5>4661e6690r9690trrdddphgippjuuhydwwqq9%<",
"hjddpkjhBnCNkbjsjisupdwpugdgppegkpdgdedu4$wjs9qpdw8edwpegedwuqwq0qqq9wwerqw0w0w6999:@75234460066690660rrehdddwdpgpgppdpgupqww4&,",
"dkdjjkjjBBnbjccfjuspqu8gggqgpephduddgpeu<@0pdpp5qq9ggehhwpqqqqq99qwq90qw09pqrhrww99#o49444,66666614,9errtpddqwhdgpdpdpddpqpwq6*<",
"pfwpjhkkxkkssjfhspfp58qdppqwgeeeeddddwqq<@whdu95qqwhgwhwpw59853w5qq06w90ewqddrrw0e6$o0w64>466196661<rrtgpewwwdggpddudhdupdw0ee;:",
"pdrkkhkhxxjfjjfsufyq59wpeeqwwd5ddhhkpq504$edp07740etgwwpq5e5999996059r6e49rwreww0w4*O9e6><<<6<6,<6660900990ewddqpypwgpu9ed0qe0$:",
"hxzhzhhzgspdkkuguquq95t0w99qwqwwdgde9u9w1$wdp0749eerr8we0ew490994069996940e0r0w999<#O666<66<6<<69616619<,69rw0469d99rwwedwq9r<*:",
"khtrddedw59wedpw94q999994454999699990999<O4d79<591099600504,<1<<<616,900<00664943,,#O0w<>:,,,*,,1<,1<1<6906<3<3<9465990e66006<$1",
"r,**;$;*##$;;:&##@$$+@$@@@$%@@#@$@$$#$$#O <6;+@#@$%$$$$$$@@@$$OOO$OOO%$%$%$$@@@+OO@.X4&+o@ooO@oooo$OOO$OO%$$@@$$@$@#@#%$$$%@$$o;",
"h161,>1>;;<1<<>,>:=;@#;;=;;;;;;&:;=:&*;&*;ww,;;:::;::<<:,=>::=@o$:*;::;:::*;*;**#&&*>0<;*&%%@$$$$%%;%:::;Oo#$*;;;;;::,::1<:;<;:r",
"mSCMbCfnacmbCvbfsjpj>kkdpuddusppddfdpfjpjjkkjggkkhjhkllfjgjhgq90ggdhldzxljugupdyqdrdwdjweweq9099rrhdgdeww<rfppdgghjhklldljplvjln",
"CCbbmcbsjkkMkCcjcsj5>jkayyyypkqdhlhjhkfswkkflxskglgkljpjljfggs,9ggxkxlxbjuudgws99wwdepgppeqq4400rrhg9eeer;7qpdddhdkhxlljjjjljnbl",
"xpskffiuuudkkkfksjw,$pdy5q40q00ddreqeedqepdgpgwppwdppeggfqewdw$,xghrghdqpwqpd5w99ww999w9w99224<900r9w00q,@9uw05dddhhgpwdggkgggkp",
"hffxddfyddgkkjjdguq<#jj999uq9wqeepwgepeqeghwphkpwugpphggwpweg0:<kjhphr9edwwwdqdpwwqwqerwq4044<9990969weq1%7ww0rddpddpuwhpgkwgjgg",
"xfnffdffukkjnbfpuyw<&sswqqewwwddeheiepegwkhgghgpehghhkkpgpgdh9=<kguggdqgdpupedpqwwwpwewqwq049<9<60909wew1$6wrrhddddudpggpsqupkgk",
"kspkkfhflklfkbpypsp>$gyudwddphwwkpewwwgehlljkkhzgkxlkkxfdggpw0;,swqpsuspuddpdp9quwqe9wqee9059949969erere6$rpddwdgddpdgsdpuddjkkg",
"jdfknhkjjjkhkfsjgyu>&sjppdwgeghpeewqepkhhlxkkxxxkmZkxmlhsugppq&,uuqspuuyupwjpudwdeeeeeegeqw5w5<9<0eewerw6$rdhddhhpdkspsgqkdjnkju",
"pphkbjjfkjjkskpjqpw>&ugqpweddkddjwpwhkxxBxhlNlNlmCCClNjfgpspq4&;uqqwpuqwpdgdqgddkpgwereheeeq9q,490rr99ww6@wkddhhhgpddpwuwdpglkpg",
"pkfxjkjijsgppjpiyu9<$kyqqpwukzddgpwphdgxxkjlBkBCBBNxbbjjpkjee5%:uuqeepwgpgddsddsegupdepggqqw52050099r0wr0%hzmddddypdyqyqjddlgjsd",
"jfdkxnpsfupysdpqwqq,&pupdwehhkgpuppdgpzmNjBNBxCnCBbjNjlvflvwe5=:fpqgdgghphdpddqdpwyuqddwq8qw56909e0trwde0%dxkgdgdhpuuwddgpkdguju",
"gjkljjisdpppsgsqy9q,$pgddwdhklswwppzhphxlNvlnnCCVNlbbbjvllpu50&;epqwegppghugpuudwpwqqqe5wwqqq4609weedrer0%ekjsgjdkupupqhdpuuqyud",
"phgjsjpjss8ypjquqww<$sppwpkhkhddgwghjelnxxknnBNvbbjnbvnvfjj8q5$=pqqwwgpkdkuhduddpgqqpwewe9q8q9056eeewwww9#pljhgpduqdhpddqdwduwdj",
"usuuujppyyqjddppswq<$dggdhhkxgugpphxxkllkxnnbNknbNcNvlcbfviy85@,qdewpdhkdpydpupusqqqwedwwqqw044400ww5696<Odkswdpudgdkdhuq8pqphpu",
"gpupsupu9pddfphuwqw>$hlkdkhxkjdgjhmkxjxjjjjjlvcvbbbjcfbjjs8wq<=;pgdwezhgsupgwwpeeqp9degwqwqq956993069eew<$ddhpsddxjjhjdqq9eepwdd",
"dddpquwyduupdhjdpwd,$xnggkjkdjjlxgBxxxjkhxjskvbvvbavvljfjyiiq4&;gpewghzpphgdpddwqqwpgddqww595444444949re;#egddwpgkjghqq8qsewdepp",
"dpuqdwuwyuwgdhddpew<;kxdkhkdkdkllgznknkgnBsljjskcfslvsfpufgwwq;>wdgwegdgdgsdgssuqqredw5ww9594449<9r09093>$epsuuguupusgppdderddpd",
"ppqehpepwpkphfddqwe,;kllhpjmgkllnlBkbkkbnnjfkkblkjvkvkkbsjdsqq;;phhwrhddgdspgpqwqqdwpwqqq559369<46076064<@0wsupdpdshpuyuqpuegudw",
"wqwpddphdgdyddpuwuq<$jkfhklljhlllnkjnnnbkvjgxxnvjvbCNjbfkkgkuw;;klpglkgkpdgpw8guwepeq99u5596499966006660>+0dp0wpgdppduwpupupwquw",
"dqdphpqupduqkqwpqww6$fjhkljjllnjjfblkjkjsvkpnksjfkbvkjbkbnglsr*<hlhkkppgujuqpsuqquwdue0005054959346060e0,#wddeedhjggudyqpe9wwwdq",
"pueppwwgddphduddpqr,%fhhhkllkjljbkknjvkvjnkslbjkajjsjvnVnfjkdg;4glhguupskqudpwuq9wedppqqe04344<<66006066,$0dd0wdguyqppqdddwwpeed",
"rgwedwqwddyqdddydqw,$xllgfapjkkklljskkbbknsslskjjkjjbbMksjkhkq;<ubupggggpuwpqwuuqpwpuq07q5344,410r660e061%0rw0gddppgpwgdpqqeddwe",
"dddwdppddwwdpd9dqwr,;llssjpdsljnvjjsjksksjpjdskfsjlnbnfpsjksuq=>pjudpuqgusq8qpwepwwq595665,<99w0066r09006%eddrdpguq8uuuqqwpddqgw",
"eeupuhwdqdpuuq7q8w4,;zkjudpxhgkkjkkkksspkkknjxsjjkklBjjkfkkpg0;>sjupgqgspq8wqequwq06q54999<4460009t96e9e6@6rddwdquppwpw9ppwppdw9",
"pdwpgdqpwdqquqq0qwq<%llwqdjhssknjkjjssjgMxnbjlsdjdxnvjsfkfjsge=<sgpgguppspwqqqq8u345036e0559990w6re996e0<@0pueqpewuwddpd0wwwpqqp",
"ddwdpeedqquwpwwrwee,&ppuuqglhlxjksjyfjkjnskjsjidsljksusgjffjpq=:jgkppuppwwwww9qw059994we6666660066,60err9%0dd9qy0ppupue9quwpqeee",
"erddgdu9050uwudwwwe,#yppqpgxdkgspipfjddjpskiugsspgwjssujappww8=1jfwqpqgedugeudre09750099660r6e706errwrre9$0eedq9wqwqwwqeqwwqqwwe",
"dthwdduqq7rw0dwwwr9:+wdquwkppgduypydpqssuplpgjpfppkgqssuqpwpwq;<jg8pqpwpqpedqqe565900w7500rdrr06r9rr0er06@wyw9qq7wqqewewdde909ew",
"edwqedu9409wwww6909;#udeedpeksyqqwdyuppwypdqjgqqgpgpuuu9wwdhpe;<ha8dqwq5wdeweq9469ewq09600wr000066007000,@30w059ww0w00eeww9559er",
"qq54w94439960604499:@wge0rwewpqq0wq0d7u0qwphuu9dwpwuqwdwgwwww5=,wpqqwe899r9dw5w94700694<w9664676666e6606>o<5569000050994959<90e0",
"<3,<4>52<6>466,1691;@rww9w999934665966w9e00w0qqq9qw99wr99995<,+=u85504499644604,,,6<6<,664<<,<4661<46<>>&O4w64<606499664<<<0966<",
"@@@@++O+o+oO@#$O$@$Oo1<%%$#$@@@#@#$$#$$&$%$&@$;$#$$%%&;#$$#@@@.%5;@$@@@@@$@@+@+oo@@@OOo@$o@@o@ooOoo@@Xooo :<%$$$@$@@@$++@@$O$$$O",
"+=&&&$;$*$&*:;*;;%::,e6,,,;;&:;;*,***;;*;$$::<<:,,:<,,;;;;;;:;;4q<;;#=;%;==&;;$=$**$oo$:*$%*$&*$&***&*$&$;66;*;;&;&**;;:;;:;;;$o"
};
