/* XPM */
static char *_21aa2645ce74076d7411a1ade07e34bnqvAx0Y2qvPeglHZ[] = {
/* columns rows colors chars-per-pixel */
"48 48 2 1 ",
"  c #B1E0BE",
". c #9BD4C3",
/* pixels */
"   .......................................      ",
"   .......................................      ",
"   .......................................      ",
"................................................",
"................................................",
"................................................",
".....................         ..................",
".....................         ..................",
".....................         ..................",
"................................................",
"................................................",
"................................................",
"................................................",
"................................................",
"................................................",
"            ....................................",
"            ....................................",
"            ....................................",
"................................................",
"................................................",
"................................................",
"................................................",
"................................................",
"................................................",
"..............................            ......",
"..............................            ......",
"..............................            ......",
"................................................",
"................................................",
"................................................",
"............      ..............................",
"............      ..............................",
"............      ..............................",
"................................................",
"................................................",
"................................................",
".......................................         ",
".......................................         ",
".......................................         ",
"........................         ...............",
"........................         ...............",
"........................         ...............",
"................................................",
"................................................",
"................................................",
"................................................",
"................................................",
"................................................"
};
