/* XPM */
static char *dcbb4293ef3c4717862e684f9fee1190Jek9fcFYfXuA6oLk[] = {
/* columns rows colors chars-per-pixel */
"48 48 2 1 ",
"  c #B1E0BE",
". c #9BD4C3",
/* pixels */
".......................................         ",
".......................................         ",
".......................................         ",
"................................................",
"................................................",
"................................................",
".....................         ..................",
".....................         ..................",
".....................         ..................",
"................................................",
"................................................",
"................................................",
"................................................",
"................................................",
"................................................",
"         ....................................   ",
"         ....................................   ",
"         ....................................   ",
"................................................",
"................................................",
"................................................",
"................................................",
"................................................",
"................................................",
"...........................            .........",
"...........................            .........",
"...........................            .........",
"................................................",
"................................................",
"................................................",
"............      ..............................",
"............      ..............................",
"............      ..............................",
"................................................",
"................................................",
"................................................",
".......................................         ",
".......................................         ",
".......................................         ",
".....................         ..................",
".....................         ..................",
".....................         ..................",
"................................................",
"................................................",
"................................................",
"................................................",
"................................................",
"................................................"
};
