/* XPM */
static char *_f93e40fff7b4442da3864aa205b2db4aaiYU1q9hWgW1Nhp[] = {
/* columns rows colors chars-per-pixel */
"48 48 2 1 ",
"  c #B1E0BE",
". c #9BD4C3",
/* pixels */
"   .......................................      ",
"   .......................................      ",
"   .......................................      ",
"................................................",
"................................................",
"................................................",
"........................         ...............",
"........................         ...............",
"........................         ...............",
"................................................",
"................................................",
"................................................",
"................................................",
"................................................",
"................................................",
"            ....................................",
"            ....................................",
"            ....................................",
"................................................",
"................................................",
"................................................",
"................................................",
"................................................",
"................................................",
"..............................            ......",
"..............................            ......",
"..............................            ......",
"................................................",
"................................................",
"................................................",
"...............      ...........................",
"...............      ...........................",
"...............      ...........................",
"................................................",
"................................................",
"................................................",
"   .......................................      ",
"   .......................................      ",
"   .......................................      ",
"........................         ...............",
"........................         ...............",
"........................         ...............",
"................................................",
"................................................",
"................................................",
"................................................",
"................................................",
"................................................"
};
