/* XPM */
static char *b48f9f29a57f48a5d23ed98609bab78dgPwHOxI3TApN0pNq[] = {
/* columns rows colors chars-per-pixel */
"48 48 10 1 ",
"  c #4A3B1F",
". c #78A158",
"X c #E5AB3D",
"o c #A4C263",
"O c #C0D470",
"+ c #FDC760",
"@ c #2379EA",
"# c #D8B78F",
"$ c #FFD7A8",
"% c white",
/* pixels */
"................................................",
"................................................",
"................................................",
"................................................",
"oooo............oooooooooooooooooooo........oooo",
"oooo............oooooooooooooooooooo........oooo",
"oooo............oooooooooooooooooooo........oooo",
"oooo............oooooooooooooooooooo........oooo",
"oooooooooooo                        oooooooooooo",
"oooooooooooo                        oooooooooooo",
"oooooooooo    XXXXXXXX++++++++++++++  oooooooooo",
"oooooooooo    XXXXXXXX++++++++++++++  oooooooooo",
"oooooooo  @@  XXXXXXXXXX++++XXXXXX++  oooooooooo",
"oooooooo  @@  XXXXXXXXXX++++XXXXXX++  oooooooooo",
"oooooooo  @@  XX%%%%%%XX++  ++++++    oooooooooo",
"oooooooo  @@  XX%%%%%%XX++  ++++++    oooooooooo",
"OOOOOOOO      XX%%  %%XX++++++++++++  OOOOOOOOOO",
"OOOOOOOO      XX%%  %%XX++++++++++++  OOOOOOOOOO",
"OOOOOOOOoo  @@  %%%%%%XX++++++++++++  OOOOOOOOOO",
"OOOOOOOOoo  @@  %%%%%%XX++++++++++++  OOOOOOOOOO",
"ooooOOOOOO  @@  XXXXXXXX++++++++++++  OOOOOOoooo",
"ooooOOOOOO  @@  XXXXXXXX++++++++++++  OOOOOOoooo",
"ooooOOOOOO      XXXXXXXXXX++          OOOOOOoooo",
"ooooOOOOOO      XXXXXXXXXX++          OOOOOOoooo",
"OOOOOOOOOOOOOO    XXXX++++++++  OOOOOOOOOOOOOOOO",
"OOOOOOOOOOOOOO    XXXX++++++++  OOOOOOOOOOOOOOOO",
"OOOOOOOOOOOOOOOO  XX##$$$$$$$$  OOOOOOOOOOOOOOOO",
"OOOOOOOOOOOOOOOO  XX##$$$$$$$$  OOOOOOOOOOOOOOOO",
"OOOOOOOOOOOO      XX##$$$$$$$$  OOOOOOOOOOOOOOOO",
"OOOOOOOOOOOO      XX##$$$$$$$$  OOOOOOOOOOOOOOOO",
"OOOOOOOOOOOO  ++++XX##$$$$$$$$  OOOOOOOOOOOOOOOO",
"OOOOOOOOOOOO  ++++XX##$$$$$$$$  OOOOOOOOOOOOOOOO",
"OOOOOOOOOOOO    XXXXXX++####++  OOOOOOOOOOOOOOOO",
"OOOOOOOOOOOO    XXXXXX++####++  OOOOOOOOOOOOOOOO",
"OOOOOOOOOOOOOO    XX++++++++++  OOOOOOOOOOOOOOOO",
"OOOOOOOOOOOOOO    XX++++++++++  OOOOOOOOOOOOOOOO",
"OOOOOOOOOOOOOOOO  XX++    XX++  OOOOOOOOOOOOOOOO",
"OOOOOOOOOOOOOOOO  XX++    XX++  OOOOOOOOOOOOOOOO",
"OOOOOOOOOOOOOOOO  XX  OO  XX  OOOOOOOOOOOOOOOOOO",
"OOOOOOOOOOOOOOOO  XX  OO  XX  OOOOOOOOOOOOOOOOOO",
"OOOOOOOOOOOOOOOO    OOOO    OOOOOOOOOOOOOOOOOOOO",
"OOOOOOOOOOOOOOOO    OOOO    OOOOOOOOOOOOOOOOOOOO",
"OOOOOOOOOOOOOOOOOOOOOOOOOOOOOOOOOOOOOOOOOOOOOOOO",
"OOOOOOOOOOOOOOOOOOOOOOOOOOOOOOOOOOOOOOOOOOOOOOOO",
"OOOOOOOOOOOOOOOOOOOOOOOOOOOOOOOOOOOOOOOOOOOOOOOO",
"OOOOOOOOOOOOOOOOOOOOOOOOOOOOOOOOOOOOOOOOOOOOOOOO",
"OOOOOOOOOOOOOOOOOOOOOOOOOOOOOOOOOOOOOOOOOOOOOOOO",
"OOOOOOOOOOOOOOOOOOOOOOOOOOOOOOOOOOOOOOOOOOOOOOOO"
};
