/* XPM */
static char *_383c3d03c5949f099dbfa7fed18d17drd91WWwzmkfcStxX[] = {
/* columns rows colors chars-per-pixel */
"48 48 22 1 ",
"  c #4A3B1F",
". c #769F57",
"X c #77A057",
"o c #78A158",
"O c #E5AB3D",
"+ c #A2BF61",
"@ c #E7AE41",
"# c #A3C062",
"$ c #A4C263",
"% c #BACE6D",
"& c #BCCF6D",
"* c #BED26F",
"= c #BFD370",
"- c #FFC95E",
"; c #C0D370",
": c #C0D470",
"> c #FDC760",
", c #FDC863",
"< c #2379EA",
"1 c #D8B78F",
"2 c #FFD7A8",
"3 c white",
/* pixels */
"::::::::::::::::::::::::::::$$$$$$$$$$$$oooooooo",
"::::::::::::::::::::::::::::$$$$$$$$$$$$oooooooo",
"::::::::::::::::::::::::::::$$$$$$$$$$$$oooooooo",
"::::::::::::=;;;;;;;;;;;;;;;$$$$$$$#$$$$oooooooo",
":::::::::::=********************#####$$$oooooooo",
"::::::::::::::::::::::::::::::::$$$$$$$$oooooooo",
":::::::::;*:::::::::::::::::::::$$$$$##$oooooooo",
"::::::::*:::::::::::::::::::::::$$$$$$$$oooooooo",
":::::::*&:::                        $$$$oooooooo",
"::::::;::::*                        $$$$oooooooo",
":::::;*:::    OOOOOOOO>>>>>>>>>>>>>>  $$oXoooooo",
"::::=;:::%    OOOOOOOO>>>>>>>>>>>>>>  $$o.oooooo",
":::;*:::  <<  OOOOOOOOOO->>>OOOOOO>,  $$$#$$oooo",
":::;*:::  <<  OOOOOOOOOO>>>>OOOOOO>>  $$$#$$oooo",
":::;*:::  <<  OO333333OO>>  >>>>>>    +$$#$$oooo",
":::;*::*  <<  OO333333OO>>  >>>>>>    +$$#$$oooo",
":::;*:::      OO33  33OO>>>>>>>>>>>>  +$$#$$oooo",
":::;*::*      OO33  33OO>>>>>>>>>>>>  +$$#$$oooo",
"::::=;**::  <<  333333OO>>>>>>>>>>>>  +$$#$$oooo",
":::::;*:::  <<  333333OO>>>>>>>>>>>>  $$$#$$oooo",
":::::;*::*  <<  OOOOOOOO>>>>>>>>>>>>  #$$#$$oooo",
":::::;*:::  <<  OOOOOOO@>>>>>>>>>>>>  $$$#$$oooo",
":::::;*:::      OOOOOOOOOO>>          $$$+$$oooo",
":::::;*:::      OOOOOOOOOO>>          +$$#$$oooo",
"::::::=:::=::*  OOOOOO>>>>>>>>  $$$$$$#$$#$$oooo",
"::::::::::::::  OOOOOO>>>>>>>>  $$$$$$$$$$$$oooo",
"::::::::::::::::  OOOO>>>>>>>>  $$$$$$$$$$$$oooo",
"::::::::::**%:::  OOOO>>>>>>>>  $$#++##$$$$$oooo",
":::::::::::**:::  OO1122222222  $$$+$$$$$$$$oooo",
"::::::::::;:::::  OO1122222222  $$$#$$$$$$$$oooo",
":::::::::;*:::  >>OO1122222222  $$$#$$$$$$$$oooo",
"::::::::=;*=::  >>OO1122222222  $$$#$$$$$$$$oooo",
":::::::;#$$#  >>OOOO1122222222  #$$#$$$$$$$$oooo",
":::::::;+$$#  >>OOOO1122222222  #$$#$$$$$$$$oooo",
":::::::;#$$#    OOOOOO>>1111>>  #$$#$$$$$$$$oooo",
":::::::;#$$$    OOOOOO>>1111>>  +$$#$$$$$$$$oooo",
":::::::;*:::  ::  OO>>>>>>>>>>  #$$#$$$$oooooooo",
":::::::;*:::  ::  OO>>>>>>>>>>  $$$#$$$$oooooooo",
"::::::::=:::*=::  OO>>    OO>>  $$$+$$$$oooooooo",
"::::::::::::::::  OO>>    OO>>  $$$#$$$$oooooooo",
"::::::::::::::::      $$      ::::;=$$$$oooooooo",
":::::::::::*&*::      $$      :::=;:$$$$oooooooo",
"::::::::::::*=:=*:::$$$$:::::::::;::$$$$oooooooo",
"::::::::::::::::::::$$$$:::::::==:::$$$$oooooooo",
":::::::::::::::::::::::::::::::=::::$$$$$$$$oooo",
":::::::::::::::=******::******=:::::$$$$$$$$oooo",
":::::::::::::::::;;;;::::;;;;:::::::$$$$$$$$oooo",
"::::::::::::::::::::::::::::::::::::$$$$$$$$oooo"
};
