/* XPM */
static char *_79307a4786f4b3ed272654813fb8f0c2FoKtjBH5LrOOGzt[] = {
/* columns rows colors chars-per-pixel */
"48 48 12 1 ",
"  c #4A3B1F",
". c #78A158",
"X c #E5AB3D",
"o c #A4C263",
"O c #C0D470",
"+ c #FDC760",
"@ c #2379EA",
"# c #D8B78F",
"$ c #B1E0BE",
"% c #FFD7A8",
"& c #9BD4C3",
"* c white",
/* pixels */
"........ooooOOOOOOOOOOOOOOOOOOOOoooooooooooo....",
"........ooooOOOOOOOOOOOOOOOOOOOOoooooooooooo....",
"........ooooOOOOOOOOOOOOOOOOOOOOoooooooooooo....",
"........ooooOOOOOOOOOOOOOOOOOOOOoooooooooooo....",
"........ooooOOOOOOOOooooOOOOOOOOoooooooooooo....",
"........ooooOOOOOOOOooooOOOOOOOOoooooooooooo....",
"........ooooOOOOOOOOooooOOOOOOOOoooooooooooo....",
"........ooooOOOOOOOOooooOOOOOOOOoooooooooooo....",
"....oooooooo                        oooooooo....",
"....oooooooo                        oooooooo....",
"....oooooo    XXXXXXXX++++++++++++++  oooooo....",
"....oooooo    XXXXXXXX++++++++++++++  oooooo....",
"....oooo  @@  XXXXXXXXXX++++XXXXXX++  oo........",
"....oooo  @@  XXXXXXXXXX++++XXXXXX++  oo........",
"....oooo  @@  XX******XX++  ++++++    oo........",
"....oooo  @@  XX******XX++  ++++++    oo........",
"........      XX**  **XX++++++++++++  oo........",
"........      XX**  **XX++++++++++++  oo........",
"........oo  @@  ******XX++++++++++++  oo........",
"........oo  @@  ******XX++++++++++++  oo........",
"........oo  @@  XXXXXXXX++++++++++++  oo........",
"........oo  @@  XXXXXXXX++++++++++++  oo........",
"........oo      XXXXXXXXXX++          oo........",
"........oo      XXXXXXXXXX++          oo........",
"&&&&....oooooo    XXXX++++++++  oooo........&&&&",
"&&&&....oooooo    XXXX++++++++  oooo........&&&&",
"&&&&....oooo  oo  XX##%%%%%%%%  oooo........&&&&",
"&&&&....oooo  oo  XX##%%%%%%%%  oooo........&&&&",
"&&&&........      XX##%%%%%%%%  oooo........&&&&",
"&&&&........      XX##%%%%%%%%  oooo........&&&&",
"&&&&........  ++++XX##%%%%%%%%  oooo........&&&&",
"&&&&........  ++++XX##%%%%%%%%  oooo........&&&&",
"&&&&........    XXXXXX++####++  oooo........&&&&",
"&&&&........    XXXXXX++####++  oooo........&&&&",
"&&&&........oo    XX++++++++++  oooo........&&&&",
"&&&&........oo    XX++++++++++  oooo........&&&&",
"&&&&&&&&........  XX++    XX++  ........&&&&&&&&",
"&&&&&&&&........  XX++    XX++  ........&&&&&&&&",
"&&&&&&&&........  XX  oo  XX  oo........&&&&&&&&",
"&&&&&&&&........  XX  oo  XX  oo........&&&&&&&&",
"&&&&&&&&&&&&....    ....    ........&&&&&&&&$$$$",
"&&&&&&&&&&&&....    ....    ........&&&&&&&&$$$$",
"&&&&&&&&&&&&........................&&&&&&&&$$$$",
"&&&&&&&&&&&&........................&&&&&&&&$$$$",
"&&&&&&&&&&&&&&&&................&&&&&&&&&&&&&&&&",
"&&&&&&&&&&&&&&&&................&&&&&&&&&&&&&&&&",
"&&&&&&&&&&&&&&&&................&&&&&&&&&&&&&&&&",
"&&&&&&&&&&&&&&&&................&&&&&&&&&&&&&&&&"
};
