/* XPM */
static char *c9441b730ebe4012e66c440c8426af4ajaOeY287uBIIkomP[] = {
/* columns rows colors chars-per-pixel */
"48 48 12 1 ",
"  c #4A3B1F",
". c #78A158",
"X c #E5AB3D",
"o c #A4C263",
"O c #C0D470",
"+ c #FDC760",
"@ c #2379EA",
"# c #D8B78F",
"$ c #B1E0BE",
"% c #FFD7A8",
"& c #9BD4C3",
"* c white",
/* pixels */
"........................$$$$$$$$&&&&&&&&&&&&&&&&",
"........................$$$$$$$$&&&&&&&&&&&&&&&&",
"........................$$$$$$$$&&&&&&&&&&&&&&&&",
"........................$$$$$$$$&&&&&&&&&&&&&&&&",
"oooooooooooo........................&&&&&&&&&&&&",
"oooooooooooo........................&&&&&&&&&&&&",
"oooooooooooo........................&&&&&&&&&&&&",
"oooooooooooo........................&&&&&&&&&&&&",
"oooooooooooooooooooooooooooo............&&&&&&&&",
"oooooooooooooooooooooooooooo............&&&&&&&&",
"oooooooooooo                        ....&&&&&&&&",
"oooooooooooo                        ....&&&&&&&&",
"OOOOOOOOOO    XXXXXXXX++++++++++++++  ......&&&&",
"OOOOOOOOOO    XXXXXXXX++++++++++++++  ......&&&&",
"OOOOOOOO  @@  XXXXXXXXXX++++XXXXXX++  ......&&&&",
"OOOOOOOO  @@  XXXXXXXXXX++++XXXXXX++  ......&&&&",
"ooooOOOO  @@  XX******XX++  ++++++    oo........",
"ooooOOOO  @@  XX******XX++  ++++++    oo........",
"ooooOOOO      XX**  **XX++++++++++++  oo........",
"ooooOOOO      XX**  **XX++++++++++++  oo........",
"OOOOOOOOOO  @@  ******XX++++++++++++  oo........",
"OOOOOOOOOO  @@  ******XX++++++++++++  oo........",
"OOOOOOOOOO  @@  XXXXXXXX++++++++++++  oo........",
"OOOOOOOOOO  @@  XXXXXXXX++++++++++++  oo........",
"OOOOOOOOOO      XXXXXXXXXX++          oo........",
"OOOOOOOOOO      XXXXXXXXXX++          oo........",
"OOOOOOOOOOOOOO    XXXX++++++++  oooooooo........",
"OOOOOOOOOOOOOO    XXXX++++++++  oooooooo........",
"OOOOOOOOOOOOOOOO  XX##%%%%%%%%  oooooooo........",
"OOOOOOOOOOOOOOOO  XX##%%%%%%%%  oooooooo........",
"OOOOOOOOOOOO      XX##%%%%%%%%  oooooooo........",
"OOOOOOOOOOOO      XX##%%%%%%%%  oooooooo........",
"ooooOOOOOOOO  ++++XX##%%%%%%%%  oooo........&&&&",
"ooooOOOOOOOO  ++++XX##%%%%%%%%  oooo........&&&&",
"ooooOOOOOOOO    XXXXXX++####++  oooo........&&&&",
"ooooOOOOOOOO    XXXXXX++####++  oooo........&&&&",
"oooooooooooooo    XX++++++++++  ........&&&&&&&&",
"oooooooooooooo    XX++++++++++  ........&&&&&&&&",
"oooooooooooooooo  XX++    XX++  ........&&&&&&&&",
"oooooooooooooooo  XX++    XX++  ........&&&&&&&&",
"........oooooooo      ..      ......&&&&&&&&$$$$",
"........oooooooo      ..      ......&&&&&&&&$$$$",
"........oooooooo....................&&&&&&&&$$$$",
"........oooooooo....................&&&&&&&&$$$$",
"........................$$$$$$$$&&&&&&&&&&&&&&&&",
"........................$$$$$$$$&&&&&&&&&&&&&&&&",
"........................$$$$$$$$&&&&&&&&&&&&&&&&",
"........................$$$$$$$$&&&&&&&&&&&&&&&&"
};
