/* XPM */
static char *_922e959d8fb49e4c81d9d42c197506ac89bJWfEtEeTz9RX[] = {
/* columns rows colors chars-per-pixel */
"48 48 10 1 ",
"  c #4A3B1F",
". c #78A158",
"X c #E5AB3D",
"o c #A4C263",
"O c #C0D470",
"+ c #FDC760",
"@ c #2379EA",
"# c #D8B78F",
"$ c #FFD7A8",
"% c white",
/* pixels */
"OOOOOOOOOOOOOOOOOOOOOOOOOOOOoooooooooooo........",
"OOOOOOOOOOOOOOOOOOOOOOOOOOOOoooooooooooo........",
"OOOOOOOOOOOOOOOOOOOOOOOOOOOOoooooooooooo........",
"OOOOOOOOOOOOOOOOOOOOOOOOOOOOoooooooooooo........",
"OOOOOOOOOOOOOOOOOOOOOOOOOOOOOOOOoooooooo........",
"OOOOOOOOOOOOOOOOOOOOOOOOOOOOOOOOoooooooo........",
"OOOOOOOOOOOOOOOOOOOOOOOOOOOOOOOOoooooooo........",
"OOOOOOOOOOOOOOOOOOOOOOOOOOOOOOOOoooooooo........",
"OOOOOOOOOOOOOOOOOOOOOOOOOOOOoooooooooooo........",
"OOOOOOOOOOOOOOOOOOOOOOOOOOOOoooooooooooo........",
"OOOOOOOOOOOO                        oooo........",
"OOOOOOOOOOOO                        oooo........",
"OOOOOOOOOO    XXXXXXXX++++++++++++++  oooooo....",
"OOOOOOOOOO    XXXXXXXX++++++++++++++  oooooo....",
"OOOOOOOO  @@  XXXXXXXXXX++++XXXXXX++  oooooo....",
"OOOOOOOO  @@  XXXXXXXXXX++++XXXXXX++  oooooo....",
"OOOOOOOO  @@  XX%%%%%%XX++  ++++++    oooooo....",
"OOOOOOOO  @@  XX%%%%%%XX++  ++++++    oooooo....",
"OOOOOOOO      XX%%  %%XX++++++++++++  oooooo....",
"OOOOOOOO      XX%%  %%XX++++++++++++  oooooo....",
"OOOOOOOOOO  @@  %%%%%%XX++++++++++++  oooooo....",
"OOOOOOOOOO  @@  %%%%%%XX++++++++++++  oooooo....",
"OOOOOOOOOO  @@  XXXXXXXX++++++++++++  oooooo....",
"OOOOOOOOOO  @@  XXXXXXXX++++++++++++  oooooo....",
"OOOOOOOOOO      XXXXXXXXXX++          oooooo....",
"OOOOOOOOOO      XXXXXXXXXX++          oooooo....",
"OOOOOOOOOOOOOO    XXXX++++++++  oooooooooooo....",
"OOOOOOOOOOOOOO    XXXX++++++++  oooooooooooo....",
"OOOOOOOOOOOOOOOO  XX##$$$$$$$$  oooooooooooo....",
"OOOOOOOOOOOOOOOO  XX##$$$$$$$$  oooooooooooo....",
"OOOOOOOOOOOO      XX##$$$$$$$$  oooooooooooo....",
"OOOOOOOOOOOO      XX##$$$$$$$$  oooooooooooo....",
"OOOOOOOOoooo  ++++XX##$$$$$$$$  oooooooooooo....",
"OOOOOOOOoooo  ++++XX##$$$$$$$$  oooooooooooo....",
"OOOOOOOOoooo    XXXXXX++####++  oooooooooooo....",
"OOOOOOOOoooo    XXXXXX++####++  oooooooooooo....",
"OOOOOOOOOOOOOO    XX++++++++++  oooooooo........",
"OOOOOOOOOOOOOO    XX++++++++++  oooooooo........",
"OOOOOOOOOOOOOOOO  XX++    XX++  oooooooo........",
"OOOOOOOOOOOOOOOO  XX++    XX++  oooooooo........",
"OOOOOOOOOOOOOOOO      oo      OOOOOOoooo........",
"OOOOOOOOOOOOOOOO      oo      OOOOOOoooo........",
"OOOOOOOOOOOOOOOOOOOOooooOOOOOOOOOOOOoooo........",
"OOOOOOOOOOOOOOOOOOOOooooOOOOOOOOOOOOoooo........",
"OOOOOOOOOOOOOOOOOOOOOOOOOOOOOOOOOOOOoooooooo....",
"OOOOOOOOOOOOOOOOOOOOOOOOOOOOOOOOOOOOoooooooo....",
"OOOOOOOOOOOOOOOOOOOOOOOOOOOOOOOOOOOOoooooooo....",
"OOOOOOOOOOOOOOOOOOOOOOOOOOOOOOOOOOOOoooooooo...."
};
