/* XPM */
static char *_0d69fac7b4f4189b9ef44d5be52ca2dRRQ1UURN27a7njag[] = {
/* columns rows colors chars-per-pixel */
"48 48 16 1 ",
"  c #4A3B1F",
". c #E5AB3D",
"X c #E7AE41",
"o c #BACE6D",
"O c #BCCF6D",
"+ c #BED26F",
"@ c #BFD370",
"# c #FFC95E",
"$ c #C0D370",
"% c #C0D470",
"& c #FDC760",
"* c #FDC863",
"= c #2379EA",
"- c #D8B78F",
"; c #FFD7A8",
": c white",
/* pixels */
"%%%%%%%%%%%%%%%%%%%%%%%%%%%%%%%%%%%%%%%%%%%%%%%%",
"%%%%%%%%%%%%%%%%%%%%%%%%%%%%%%%%%%%%%%%%%%%%%%%%",
"%%%%%%%%%%%%%%%%%%%%%%%%%%%%%%%%%%%%%%%%%%%%%%%%",
"%%%%%%%%%%%%@$$$$$$$$$$$$$$$$$$$$$$@%%%%%%%%%%%%",
"%%%%%%%%%%%@++++++++++++++++++++++++@%%%%%%%%%%%",
"%%%%%%%%%%%%%%%%%%%%%%%%%%%%%%%%%%%%%%%%%%%%%%%%",
"%%%%%%%%%$+%%%%%%%%%%%%%%%%%%%%%%%%%%+@%%%%%%%%%",
"%%%%%%%%+%%%%%%%%%%%%%%%%%%%%%%%%%%%%%%$%%%%%%%%",
"%%%%%%%+O%%%                        %%%%$%%%%%%%",
"%%%%%%$%%%%+                        %%%%$@%%%%%%",
"%%%%%$+%%%    ........&&&&&&&&&&&&&&  %%%+$%%%%%",
"%%%%@$%%%o    ........&&&&&&&&&&&&&&  %%%+$%%%%%",
"%%%$+%%%  ==  ..........#&&&......&*  @%%+$%%%%%",
"%%%$+%%%  ==  ..........&&&&......&&  %%%+$%%%%%",
"%%%$+%%%  ==  ..::::::..&&  &&&&&&    o%%+$%%%%%",
"%%%$+%%+  ==  ..::::::..&&  &&&&&&    +%%+$%%%%%",
"%%%$+%%%      ..::  ::..&&&&&&&&&&&&  O%%+$%%%%%",
"%%%$+%%+      ..::  ::..&&&&&&&&&&&&  O%%+$%%%%%",
"%%%%@$++%%  ==  ::::::..&&&&&&&&&&&&  +%%+$%%%%%",
"%%%%%$+%%%  ==  ::::::..&&&&&&&&&&&&  %%%+$%%%%%",
"%%%%%$+%%+  ==  ........&&&&&&&&&&&&  +%%+$%%%%%",
"%%%%%$+%%%  ==  .......X&&&&&&&&&&&&  %%%+$%%%%%",
"%%%%%$+%%%      ..........&&          %%%+$%%%%%",
"%%%%%$+%%%      ..........&&          O%%+$%%%%%",
"%%%%%%@%%%@%%+  ......&&&&&&&&  %%%%%%+%%@%%%%%%",
"%%%%%%%%%%%%%%  ......&&&&&&&&  %%%%%%%%%%%%%%%%",
"%%%%%%%%%%%%%%%%  ....&&&&&&&&  %%%%%%%%%%%%%%%%",
"%%%%%%%%%%++o%%%  ....&&&&&&&&  %%+o++@%%%%%%%%%",
"%%%%%%%%%%%++%%%  ..--;;;;;;;;  %%$++%%%%%%%%%%%",
"%%%%%%%%%%$%%%%%  ..--;;;;;;;;  %%%+$%%%%%%%%%%%",
"%%%%%%%%%$+%%%  &&..--;;;;;;;;  %%%+$%%%%%%%%%%%",
"%%%%%%%%@$+@%%  &&..--;;;;;;;;  %%%+$%%%%%%%%%%%",
"%%%%%%%$+%%+  &&....--;;;;;;;;  @%%+$%%%%%%%%%%%",
"%%%%%%%$+%%+  &&....--;;;;;;;;  @%%+$%%%%%%%%%%%",
"%%%%%%%$+%%+    ......&&----&&  @%%+$%%%%%%%%%%%",
"%%%%%%%$+%%%    ......&&----&&  +%%+$%%%%%%%%%%%",
"%%%%%%%$+%%%  %%  ..&&&&&&&&&&  +%%+$%%%%%%%%%%%",
"%%%%%%%$+%%%  %%  ..&&&&&&&&&&  %%%+$%%%%%%%%%%%",
"%%%%%%%%@%%%+@%%  ..&&    ..&&  %%%+$%%%%%%%%%%%",
"%%%%%%%%%%%%%%%%  ..&&    ..&&  %%%+$%%%%%%%%%%%",
"%%%%%%%%%%%%%%%%      %%      %%%%$@%%%%%%%%%%%%",
"%%%%%%%%%%%+O+%%      %%      %%%@$%%%%%%%%%%%%%",
"%%%%%%%%%%%%+@%@+%%%%%%%%%%%%%%%%$%%%%%%%%%%%%%%",
"%%%%%%%%%%%%%%%%%%%%%%%%%%%%%%%@@%%%%%%%%%%%%%%%",
"%%%%%%%%%%%%%%%%%%%%%%%%%%%%%%%@%%%%%%%%%%%%%%%%",
"%%%%%%%%%%%%%%%@++++++%%++++++@%%%%%%%%%%%%%%%%%",
"%%%%%%%%%%%%%%%%%$$$$%%%%$$$$%%%%%%%%%%%%%%%%%%%",
"%%%%%%%%%%%%%%%%%%%%%%%%%%%%%%%%%%%%%%%%%%%%%%%%"
};
