/* XPM */
static char *_f711d45a8034a38b0eea1339d2db123tj4MNA6QolpNnckF[] = {
/* columns rows colors chars-per-pixel */
"48 48 10 1 ",
"  c #4A3B1F",
". c #78A158",
"X c #E5AB3D",
"o c #A4C263",
"O c #C0D470",
"+ c #FDC760",
"@ c #2379EA",
"# c #D8B78F",
"$ c #FFD7A8",
"% c white",
/* pixels */
"OOOOOOOOOOOOOOOOOOOOOOOOOOOOOOOOOOOOOOOOOOOOOOOO",
"OOOOOOOOOOOOOOOOOOOOOOOOOOOOOOOOOOOOOOOOOOOOOOOO",
"OOOOOOOOOOOOOOOOOOOOOOOOOOOOOOOOOOOOOOOOOOOOOOOO",
"OOOOOOOOOOOOOOOOOOOOOOOOOOOOOOOOOOOOOOOOOOOOOOOO",
"OOOOOOOOOOOOOOOOOOOOOOOOOOOOOOOOOOOOOOOOOOOOOOOO",
"OOOOOOOOOOOOOOOOOOOOOOOOOOOOOOOOOOOOOOOOOOOOOOOO",
"OOOOOOOOOOOOOOOOOOOOOOOOOOOOOOOOOOOOOOOOOOOOOOOO",
"OOOOOOOOOOOOOOOOOOOOOOOOOOOOOOOOOOOOOOOOOOOOOOOO",
"OOOOOOOOOOOOOOOOOOOOOOOOOOOOOOOOOOOOOOOOOOOOOOOO",
"OOOOOOOOOOOOOOOOOOOOOOOOOOOOOOOOOOOOOOOOOOOOOOOO",
"OOOOOOOOOOOO                        OOOOOOOOOOOO",
"OOOOOOOOOOOO                        OOOOOOOOOOOO",
"OOOOOOOOOO    XXXXXXXX++++++++++++++  OOOOOOOOOO",
"OOOOOOOOOO    XXXXXXXX++++++++++++++  OOOOOOOOOO",
"OOOOOOOO  @@  XXXXXXXXXX++++XXXXXX++  OOOOOOOOOO",
"OOOOOOOO  @@  XXXXXXXXXX++++XXXXXX++  OOOOOOOOOO",
"ooooOOOO  @@  XX%%%%%%XX++  ++++++    OOooooOOOO",
"ooooOOOO  @@  XX%%%%%%XX++  ++++++    OOooooOOOO",
"ooooOOOO      XX%%  %%XX++++++++++++  OOooooOOOO",
"ooooOOOO      XX%%  %%XX++++++++++++  OOooooOOOO",
"OOOOOOOOOO  @@  %%%%%%XX++++++++++++  OOOOOOOOOO",
"OOOOOOOOOO  @@  %%%%%%XX++++++++++++  OOOOOOOOOO",
"OOOOOOOOOO  @@  XXXXXXXX++++++++++++  OOOOOOOOOO",
"OOOOOOOOOO  @@  XXXXXXXX++++++++++++  OOOOOOOOOO",
"OOOOOOOOOO      XXXXXXXXXX++          OOOOOOOOOO",
"OOOOOOOOOO      XXXXXXXXXX++          OOOOOOOOOO",
"OOOOOOOOOOOOOO    XXXX++++++++  OOOOOOOOOOOOOOOO",
"OOOOOOOOOOOOOO    XXXX++++++++  OOOOOOOOOOOOOOOO",
"OOOOooooOOOOOOOO  XX##$$$$$$$$  ooooOOOOOOOOoooo",
"OOOOooooOOOOOOOO  XX##$$$$$$$$  ooooOOOOOOOOoooo",
"OOOOooooOOOO      XX##$$$$$$$$  ooooOOOOOOOOoooo",
"OOOOooooOOOO      XX##$$$$$$$$  ooooOOOOOOOOoooo",
"oooooooooooo  ++++XX##$$$$$$$$  oooooooooooooooo",
"oooooooooooo  ++++XX##$$$$$$$$  oooooooooooooooo",
"oooooooooooo    XXXXXX++####++  oooooooooooooooo",
"oooooooooooo    XXXXXX++####++  oooooooooooooooo",
"oooooooooooooo    XX++++++++++  oooooooooooooooo",
"oooooooooooooo    XX++++++++++  oooooooooooooooo",
"oooooooooooooooo  XX++    XX++  oooooooooooooooo",
"oooooooooooooooo  XX++    XX++  oooooooooooooooo",
"............oooo      oo      oo............oooo",
"............oooo      oo      oo............oooo",
"............oooooooooooooooooooo............oooo",
"............oooooooooooooooooooo............oooo",
"................................................",
"................................................",
"................................................",
"................................................"
};
