/* XPM */
static char *_45aa63cc1554d7cd6d548fe9beb46507FI2VFfzGcu0g0sK[] = {
/* columns rows colors chars-per-pixel */
"48 48 12 1 ",
"  c #4A3B1F",
". c #78A158",
"X c #E5AB3D",
"o c #A4C263",
"O c #C0D470",
"+ c #FDC760",
"@ c #2379EA",
"# c #D8B78F",
"$ c #B1E0BE",
"% c #FFD7A8",
"& c #9BD4C3",
"* c white",
/* pixels */
"........................$$$$$$$$&&&&&&&&&&&&&&&&",
"........................$$$$$$$$&&&&&&&&&&&&&&&&",
"........................$$$$$$$$&&&&&&&&&&&&&&&&",
"........................$$$$$$$$&&&&&&&&&&&&&&&&",
"oooooooooooo........................&&&&&&&&&&&&",
"oooooooooooo........................&&&&&&&&&&&&",
"oooooooooooo........................&&&&&&&&&&&&",
"oooooooooooo........................&&&&&&&&&&&&",
"oooooooooooo                        ....&&&&&&&&",
"oooooooooooo                        ....&&&&&&&&",
"oooooooooo    XXXXXXXX++++++++++++++  ..&&&&&&&&",
"oooooooooo    XXXXXXXX++++++++++++++  ..&&&&&&&&",
"oooooooo  @@  XXXXXXXXXX++++XXXXXX++  ......&&&&",
"oooooooo  @@  XXXXXXXXXX++++XXXXXX++  ......&&&&",
"oooooooo  @@  XX******XX++  ++++++    ......&&&&",
"oooooooo  @@  XX******XX++  ++++++    ......&&&&",
"ooooOOOO      XX**  **XX++++++++++++  ......&&&&",
"ooooOOOO      XX**  **XX++++++++++++  ......&&&&",
"ooooOOOOoo  @@  ******XX++++++++++++  ......&&&&",
"ooooOOOOoo  @@  ******XX++++++++++++  ......&&&&",
"OOOOOOOOOO  @@  XXXXXXXX++++++++++++  ......&&&&",
"OOOOOOOOOO  @@  XXXXXXXX++++++++++++  ......&&&&",
"OOOOOOOOOO      XXXXXXXXXX++          ......&&&&",
"OOOOOOOOOO      XXXXXXXXXX++          ......&&&&",
"OOOOOOOOOOOOOO    XXXX++++++++  oooooooo........",
"OOOOOOOOOOOOOO    XXXX++++++++  oooooooo........",
"OOOOOOOOOOOO  OO  XX##%%%%%%%%  oooooooo........",
"OOOOOOOOOOOO  OO  XX##%%%%%%%%  oooooooo........",
"OOOOOOOOOOOO      XX##%%%%%%%%  oooooooo........",
"OOOOOOOOOOOO      XX##%%%%%%%%  oooooooo........",
"OOOOOOOOOOOO  ++++XX##%%%%%%%%  oooooooo........",
"OOOOOOOOOOOO  ++++XX##%%%%%%%%  oooooooo........",
"ooooOOOOOOOO    XXXXXX++####++  oooooooooooo....",
"ooooOOOOOOOO    XXXXXX++####++  oooooooooooo....",
"ooooOOOOOOOOOO    XX++++++++++  oooooooooooo....",
"ooooOOOOOOOOOO    XX++++++++++  oooooooooooo....",
"OOOOOOOOOOOOOOOO  XX++    XX++  oooooooooooo....",
"OOOOOOOOOOOOOOOO  XX++    XX++  oooooooooooo....",
"OOOOOOOOOOOOOOOO  XX  oo  XX  OOoooooooooooo....",
"OOOOOOOOOOOOOOOO  XX  oo  XX  OOoooooooooooo....",
"OOOOOOOOOOOOOOOO    OOOO    OOOOOOOOoooo........",
"OOOOOOOOOOOOOOOO    OOOO    OOOOOOOOoooo........",
"OOOOOOOOOOOOOOOOOOOOOOOOOOOOOOOOOOOOoooo........",
"OOOOOOOOOOOOOOOOOOOOOOOOOOOOOOOOOOOOoooo........",
"OOOOOOOOOOOOOOOOOOOOOOOOOOOOOOOOoooooooo........",
"OOOOOOOOOOOOOOOOOOOOOOOOOOOOOOOOoooooooo........",
"OOOOOOOOOOOOOOOOOOOOOOOOOOOOOOOOoooooooo........",
"OOOOOOOOOOOOOOOOOOOOOOOOOOOOOOOOoooooooo........"
};
