/* XPM */
static char *_48f353fc4074ebf86e29037ed2f3460gPvyjzRmLUs1TEOU[] = {
/* columns rows colors chars-per-pixel */
"48 48 12 1 ",
"  c #4A3B1F",
". c #78A158",
"X c #E5AB3D",
"o c #A4C263",
"O c #C0D470",
"+ c #FDC760",
"@ c #2379EA",
"# c #D8B78F",
"$ c #B1E0BE",
"% c #FFD7A8",
"& c #9BD4C3",
"* c white",
/* pixels */
"........ooooooooooooOOOOOOOOOOOOOOOOOOOOOOOOOOOO",
"........ooooooooooooOOOOOOOOOOOOOOOOOOOOOOOOOOOO",
"........ooooooooooooOOOOOOOOOOOOOOOOOOOOOOOOOOOO",
"........ooooooooooooOOOOOOOOOOOOOOOOOOOOOOOOOOOO",
"........ooooooooOOOOOOOOOOOOOOOOooooOOOOOOOOOOOO",
"........ooooooooOOOOOOOOOOOOOOOOooooOOOOOOOOOOOO",
"........ooooooooOOOOOOOOOOOOOOOOooooOOOOOOOOOOOO",
"........ooooooooOOOOOOOOOOOOOOOOooooOOOOOOOOOOOO",
"....oooooooo                        OOOOOOOOOOOO",
"....oooooooo                        OOOOOOOOOOOO",
"....oooooo    XXXXXXXX++++++++++++++  OOOOOOOOOO",
"....oooooo    XXXXXXXX++++++++++++++  OOOOOOOOOO",
"....oooo  @@  XXXXXXXXXX++++XXXXXX++  OOOOOOoooo",
"....oooo  @@  XXXXXXXXXX++++XXXXXX++  OOOOOOoooo",
"....oooo  @@  XX******XX++  ++++++    OOOOOOoooo",
"....oooo  @@  XX******XX++  ++++++    OOOOOOoooo",
"........      XX**  **XX++++++++++++  OOOOOOOOOO",
"........      XX**  **XX++++++++++++  OOOOOOOOOO",
"........oo  @@  ******XX++++++++++++  OOOOOOOOOO",
"........oo  @@  ******XX++++++++++++  OOOOOOOOOO",
"........oo  @@  XXXXXXXX++++++++++++  OOOOOOOOOO",
"........oo  @@  XXXXXXXX++++++++++++  OOOOOOOOOO",
"........oo      XXXXXXXXXX++          OOOOOOOOOO",
"........oo      XXXXXXXXXX++          OOOOOOOOOO",
"&&&&....oooooo    XXXX++++++++  OOOOooooOOOOOOOO",
"&&&&....oooooo    XXXX++++++++  OOOOooooOOOOOOOO",
"&&&&....oooooooo  XX##%%%%%%%%  OOOOooooOOOOOOOO",
"&&&&....oooooooo  XX##%%%%%%%%  OOOOooooOOOOOOOO",
"&&&&........      XX##%%%%%%%%  ooooOOOOOOOOOOOO",
"&&&&........      XX##%%%%%%%%  ooooOOOOOOOOOOOO",
"&&&&........  ++++XX##%%%%%%%%  ooooOOOOOOOOOOOO",
"&&&&........  ++++XX##%%%%%%%%  ooooOOOOOOOOOOOO",
"&&&&........    XXXXXX++####++  ooooooooooooOOOO",
"&&&&........    XXXXXX++####++  ooooooooooooOOOO",
"&&&&........oo    XX++++++++++  ooooooooooooOOOO",
"&&&&........oo    XX++++++++++  ooooooooooooOOOO",
"&&&&&&&&........  XX++    XX++  oooooooooooooooo",
"&&&&&&&&........  XX++    XX++  oooooooooooooooo",
"&&&&&&&&........  XX  oo  XX  oooooooooooooooooo",
"&&&&&&&&........  XX  oo  XX  oooooooooooooooooo",
"&&&&&&&&&&&&....    ....    ........oooo........",
"&&&&&&&&&&&&....    ....    ........oooo........",
"&&&&&&&&&&&&........................oooo........",
"&&&&&&&&&&&&........................oooo........",
"&&&&&&&&&&&&&&&&&&&&$$$$........................",
"&&&&&&&&&&&&&&&&&&&&$$$$........................",
"&&&&&&&&&&&&&&&&&&&&$$$$........................",
"&&&&&&&&&&&&&&&&&&&&$$$$........................"
};
