/* XPM */
static char *_c901a9a2c124c75ac27fb1fa44bd46aTWpjcGmwzvVApUbF[] = {
/* columns rows colors chars-per-pixel */
"48 48 12 1 ",
"  c #4A3B1F",
". c #78A158",
"X c #E5AB3D",
"o c #A4C263",
"O c #C0D470",
"+ c #FDC760",
"@ c #2379EA",
"# c #D8B78F",
"$ c #B1E0BE",
"% c #FFD7A8",
"& c #9BD4C3",
"* c white",
/* pixels */
"&&&&&&&&&&&&&&&&............$$$$&&&&&&&&&&&&&&&&",
"&&&&&&&&&&&&&&&&............$$$$&&&&&&&&&&&&&&&&",
"&&&&&&&&&&&&&&&&............$$$$&&&&&&&&&&&&&&&&",
"&&&&&&&&&&&&&&&&............$$$$&&&&&&&&&&&&&&&&",
"&&&&&&&&&&&&........................&&&&&&&&&&&&",
"&&&&&&&&&&&&........................&&&&&&&&&&&&",
"&&&&&&&&&&&&........................&&&&&&&&&&&&",
"&&&&&&&&&&&&........................&&&&&&&&&&&&",
"&&&&&&&&....                        ....&&&&&&&&",
"&&&&&&&&....                        ....&&&&&&&&",
"&&&&&&&&..    XXXXXXXX++++++++++++++  ..&&&&&&&&",
"&&&&&&&&..    XXXXXXXX++++++++++++++  ..&&&&&&&&",
"$$$$....  @@  XXXXXXXXXX++++XXXXXX++  ......&&&&",
"$$$$....  @@  XXXXXXXXXX++++XXXXXX++  ......&&&&",
"$$$$....  @@  XX******XX++  ++++++    ......&&&&",
"$$$$....  @@  XX******XX++  ++++++    ......&&&&",
"&&&&....      XX**  **XX++++++++++++  ......&&&&",
"&&&&....      XX**  **XX++++++++++++  ......&&&&",
"&&&&....oo  @@  ******XX++++++++++++  ......&&&&",
"&&&&....oo  @@  ******XX++++++++++++  ......&&&&",
"&&&&......  @@  XXXXXXXX++++++++++++  ......&&&&",
"&&&&......  @@  XXXXXXXX++++++++++++  ......&&&&",
"&&&&......      XXXXXXXXXX++          ......&&&&",
"&&&&......      XXXXXXXXXX++          ......&&&&",
"............oo    XXXX++++++++  oooooooo........",
"............oo    XXXX++++++++  oooooooo........",
"............  oo  XX##%%%%%%%%  oooooooo........",
"............  oo  XX##%%%%%%%%  oooooooo........",
"........oooo      XX##%%%%%%%%  oooooooo........",
"........oooo      XX##%%%%%%%%  oooooooo........",
"........oooo  ++++XX##%%%%%%%%  oooooooo........",
"........oooo  ++++XX##%%%%%%%%  oooooooo........",
"........oooo    XXXXXX++####++  oooooooooooo....",
"........oooo    XXXXXX++####++  oooooooooooo....",
"........oooooo    XX++++++++++  oooooooooooo....",
"........oooooo    XX++++++++++  oooooooooooo....",
"....oooooooooooo  XX++    XX++  oooooooooooo....",
"....oooooooooooo  XX++    XX++  oooooooooooo....",
"....oooooooooooo  XX  OO  XX  OOoooooooooooo....",
"....oooooooooooo  XX  OO  XX  OOoooooooooooo....",
"....oooooooooooo    oooo    OOOOOOOOoooo........",
"....oooooooooooo    oooo    OOOOOOOOoooo........",
"....ooooooooooooOOOOooooOOOOOOOOOOOOoooo........",
"....ooooooooooooOOOOooooOOOOOOOOOOOOoooo........",
"....ooooooooooooOOOOOOOOOOOOOOOOOOOOoooo........",
"....ooooooooooooOOOOOOOOOOOOOOOOOOOOoooo........",
"....ooooooooooooOOOOOOOOOOOOOOOOOOOOoooo........",
"....ooooooooooooOOOOOOOOOOOOOOOOOOOOoooo........"
};
