/* XPM */
static char *_cc3425f390e49bdbc3a74f8b115942dSowNhboOjxXRtK1Q[] = {
/* columns rows colors chars-per-pixel */
"48 48 12 1 ",
"  c #4A3B1F",
". c #78A158",
"X c #E5AB3D",
"o c #A4C263",
"O c #C0D470",
"+ c #FDC760",
"@ c #2379EA",
"# c #D8B78F",
"$ c #B1E0BE",
"% c #FFD7A8",
"& c #9BD4C3",
"* c white",
/* pixels */
"........................$$$$$$$$&&&&&&&&&&&&&&&&",
"........................$$$$$$$$&&&&&&&&&&&&&&&&",
"........................$$$$$$$$&&&&&&&&&&&&&&&&",
"........................$$$$$$$$&&&&&&&&&&&&&&&&",
"oooooooooooo........................&&&&&&&&&&&&",
"oooooooooooo........................&&&&&&&&&&&&",
"oooooooooooo........................&&&&&&&&&&&&",
"oooooooooooo........................&&&&&&&&&&&&",
"oooooooooooooooooooooooooooo............&&&&&&&&",
"oooooooooooooooooooooooooooo............&&&&&&&&",
"oooooooooooo                        ....&&&&&&&&",
"oooooooooooo                        ....&&&&&&&&",
"oooooooooo    XXXXXXXX++++++++++++++  ......&&&&",
"oooooooooo    XXXXXXXX++++++++++++++  ......&&&&",
"oooooooo  @@  XXXXXXXXXX++++XXXXXX++  ......&&&&",
"oooooooo  @@  XXXXXXXXXX++++XXXXXX++  ......&&&&",
"ooooOOOO  @@  XX******XX++  ++++++    ......&&&&",
"ooooOOOO  @@  XX******XX++  ++++++    ......&&&&",
"ooooOOOO      XX**  **XX++++++++++++  ......&&&&",
"ooooOOOO      XX**  **XX++++++++++++  ......&&&&",
"OOOOOOOOOO  @@  ******XX++++++++++++  ......&&&&",
"OOOOOOOOOO  @@  ******XX++++++++++++  ......&&&&",
"OOOOOOOOOO  @@  XXXXXXXX++++++++++++  ......&&&&",
"OOOOOOOOOO  @@  XXXXXXXX++++++++++++  ......&&&&",
"OOOOOOOOOO      XXXXXXXXXX++          oo........",
"OOOOOOOOOO      XXXXXXXXXX++          oo........",
"OOOOOOOOOOOOOO    XXXX++++++++  oooooooo........",
"OOOOOOOOOOOOOO    XXXX++++++++  oooooooo........",
"OOOOOOOOOOOOOOOO  XX##%%%%%%%%  oooooooo........",
"OOOOOOOOOOOOOOOO  XX##%%%%%%%%  oooooooo........",
"OOOOOOOOOOOO      XX##%%%%%%%%  oooooooo........",
"OOOOOOOOOOOO      XX##%%%%%%%%  oooooooo........",
"ooooOOOOOOOO  ++++XX##%%%%%%%%  oooooooooooo....",
"ooooOOOOOOOO  ++++XX##%%%%%%%%  oooooooooooo....",
"ooooOOOOOOOO    XXXXXX++####++  oooooooooooo....",
"ooooOOOOOOOO    XXXXXX++####++  oooooooooooo....",
"OOOOOOOOOOOOOO    XX++++++++++  oooooooooooo....",
"OOOOOOOOOOOOOO    XX++++++++++  oooooooooooo....",
"OOOOOOOOOOOOOOOO  XX++    XX++  oooooooooooo....",
"OOOOOOOOOOOOOOOO  XX++    XX++  oooooooooooo....",
"OOOOOOOOOOOOOOOO      OO      OOOOOOoooo........",
"OOOOOOOOOOOOOOOO      OO      OOOOOOoooo........",
"OOOOOOOOOOOOOOOOOOOOOOOOOOOOOOOOOOOOoooo........",
"OOOOOOOOOOOOOOOOOOOOOOOOOOOOOOOOOOOOoooo........",
"OOOOOOOOOOOOOOOOOOOOOOOOOOOOOOOOoooooooo........",
"OOOOOOOOOOOOOOOOOOOOOOOOOOOOOOOOoooooooo........",
"OOOOOOOOOOOOOOOOOOOOOOOOOOOOOOOOoooooooo........",
"OOOOOOOOOOOOOOOOOOOOOOOOOOOOOOOOoooooooo........"
};
