/* XPM */
static char *a16ac578c4f84d70fb46a7218e7e32f7YVcvLEJh7FxSG9dL[] = {
/* columns rows colors chars-per-pixel */
"48 48 28 1 ",
"  c #4A3B1F",
". c #779F57",
"X c #77A057",
"o c #78A057",
"O c #78A158",
"+ c #E5AB3D",
"@ c #9FBC61",
"# c #A1BE61",
"$ c #E7AE41",
"% c #A3C062",
"& c #A4C263",
"* c #BBCE6C",
"= c #BED26F",
"- c #BFD370",
"; c #FEC95E",
": c #C0D370",
"> c #C0D470",
", c #FDC760",
"< c #FDC863",
"1 c #2379EA",
"2 c #D8B78F",
"3 c #AFDDBC",
"4 c #B1DFBD",
"5 c #B1E0BE",
"6 c #FFD7A8",
"7 c #9BD3C2",
"8 c #9BD4C3",
"9 c white",
/* pixels */
"OOOOOOOOOOOOOOOOOOOOOOOO555555558888888888888888",
"OOOOOOOOOOOOOOOOOOOOOOOO555555558888888888888888",
"OOOOOOOOOOOOOOOOOOOOOOOO555555558888888888888888",
"OOOOOOOOOOOOOOOOOOOOOOOO444444447777888888888888",
"&&&&&&&&&&&%........................788888888888",
"&&&&&&&&&&&&OOOOOOOOOOOOOOOOOOOOOOOO888888888888",
"&&&&&&&&&&%&OOOOOOOOOOOOOOOOOOOOOOOO877888888888",
"&&&&&&&&%&&&OOOOOOOOOOOOOOOOOOOOOOOO888788888888",
"&&&&&&&%#&&&                        OOOO78888888",
"&&&&&&&&&&&%                        OOOO77888888",
"&&&&&&%&&&    ++++++++,,,,,,,,,,,,,,  OO87788888",
"&&&&%&&&&@    ++++++++,,,,,,,,,,,,,,  OO87788888",
">>>:=>>>  11  ++++++++++;,,,++++++,<  OOO.OO8888",
">>>:=>>>  11  ++++++++++,,,,++++++,,  OOO.OO8888",
">>>:=>>>  11  ++999999++,,  ,,,,,,    .OO.OO8888",
">>>:=>>=  11  ++999999++,,  ,,,,,,    .OO.OO8888",
"&&&&=>>>      ++99  99++,,,,,,,,,,,,  #&O.OOOOOO",
"&&&&=>>=      ++99  99++,,,,,,,,,,,,  #&O.OOOOOO",
"&&&&-:==>>  11  999999++,,,,,,,,,,,,  #&O.OOOOOO",
"&&&&>:=>>>  11  999999++,,,,,,,,,,,,  &&O.OOOOOO",
">>>>>:=>>=  11  ++++++++,,,,,,,,,,,,  %&O.OOOOOO",
">>>>>:=>>>  11  +++++++$,,,,,,,,,,,,  &&O.OOOOOO",
">>>>>:=>>>      ++++++++++,,          &&O.OOOOOO",
">>>>>:=>>>      ++++++++++,,          #&OXOOOOOO",
">>>>>>->>>->>=  ++++++,,,,,,,,  &&&&&&%&OOOOOOOO",
">>>>>>>>>>>>>>  ++++++,,,,,,,,  &&&&&&&&OOOOOOOO",
">>>>>>>>>>>>>>>>  ++++,,,,,,,,  &&&&&&&&OOOOOOOO",
">>>>>>>>>>==*>>>  ++++,,,,,,,,  &&%##%%&OOOOOOOO",
">>>>>>>>>>>==>>>  ++2266666666  &&&#&&&&OOOOOOOO",
">>>>>>>>>>:>>>>>  ++2266666666  &&&%&&&&OOOOOOOO",
">>>>>>>>>:=>>>  ,,++2266666666  &&&%&&&&OOOOOOOO",
">>>>>>>>-:=->>  ,,++2266666666  &&&%&&&&OOOOOOOO",
"&&&&>>>:=>>=  ,,++++2266666666  %&&%OOOOOOOO8888",
"&&&&>>>:=>>=  ,,++++2266666666  %&&%OOOOOOOO8888",
"&&&&>>>:=>>=    ++++++,,2222,,  %&&%OOOOOOOO8888",
"&&&&>>>:=>>>    ++++++,,2222,,  #&&%OOOOOOOO8888",
"&&&&&&&&#&&&  &&  ++,,,,,,,,,,  XOO.OOOO88888888",
"&&&&&&&&%&&&  &&  ++,,,,,,,,,,  OOO.OOOO88888888",
"&&&&&&&&%&&&%&&&  ++,,    ++,,  OOO.OOOO88888888",
"&&&&&&&&&&&&&&&&  ++,,    ++,,  OOOXOOOO88888888",
"OOOOOOOO&&&&&&&&      OO      OOOOOO888888885555",
"OOOOOOOO&&&%#%&&      OO      OOOOOO888888885555",
"OOOOOOOO&&&&%%&&XOOOOOOOOOOOOOOOOOOO888888885555",
"OOOOOOOO&&&&&&&&OOOOOOOOOOOOOOOOOOOO888888885555",
"OOOOOOOOOOOOOOOOOOOOOOOO555555548888888888888888",
"OOOOOOOOOOOOOOOO.....oOO433334458888888888888888",
"OOOOOOOOOOOOOOOOOOOOOOOO544445558888888888888888",
"OOOOOOOOOOOOOOOOOOOOOOOO555555558888888888888888"
};
