/* XPM */
static char *_4c998c376cc465bd6f53ee7f06329752aphIGzP3esdREEb[] = {
/* columns rows colors chars-per-pixel */
"48 48 12 1 ",
"  c #4A3B1F",
". c #78A158",
"X c #E5AB3D",
"o c #A4C263",
"O c #C0D470",
"+ c #FDC760",
"@ c #2379EA",
"# c #D8B78F",
"$ c #B1E0BE",
"% c #FFD7A8",
"& c #9BD4C3",
"* c white",
/* pixels */
"OOOOOOOOOOOOooooOOOOOOOOOOOOoooooooooooooooo....",
"OOOOOOOOOOOOooooOOOOOOOOOOOOoooooooooooooooo....",
"OOOOOOOOOOOOooooOOOOOOOOOOOOoooooooooooooooo....",
"OOOOOOOOOOOOooooOOOOOOOOOOOOoooooooooooooooo....",
"OOOOOOOOOOOOOOOOOOOOOOOOOOOOOOOOoooooooooooo....",
"OOOOOOOOOOOOOOOOOOOOOOOOOOOOOOOOoooooooooooo....",
"OOOOOOOOOOOOOOOOOOOOOOOOOOOOOOOOoooooooooooo....",
"OOOOOOOOOOOOOOOOOOOOOOOOOOOOOOOOoooooooooooo....",
"OOOOOOOOOOOOOOOOOOOOOOOOOOOOoooooooooooooooo....",
"OOOOOOOOOOOOOOOOOOOOOOOOOOOOoooooooooooooooo....",
"OOOOOOOOOOOO                        oooooooo....",
"OOOOOOOOOOOO                        oooooooo....",
"OOOOOOOOOO    XXXXXXXX++++++++++++++  oo........",
"OOOOOOOOOO    XXXXXXXX++++++++++++++  oo........",
"OOOOOOOO  @@  XXXXXXXXXX++++XXXXXX++  oo........",
"OOOOOOOO  @@  XXXXXXXXXX++++XXXXXX++  oo........",
"OOOOOOOO  @@  XX******XX++  ++++++    oo........",
"OOOOOOOO  @@  XX******XX++  ++++++    oo........",
"OOOOOOOO      XX**  **XX++++++++++++  oo........",
"OOOOOOOO      XX**  **XX++++++++++++  oo........",
"OOOOooooOO  @@  ******XX++++++++++++  oo........",
"OOOOooooOO  @@  ******XX++++++++++++  oo........",
"OOOOooooOO  @@  XXXXXXXX++++++++++++  oo........",
"OOOOooooOO  @@  XXXXXXXX++++++++++++  oo........",
"OOOOOOOOOO      XXXXXXXXXX++          ......&&&&",
"OOOOOOOOOO      XXXXXXXXXX++          ......&&&&",
"OOOOOOOOOOOOOO    XXXX++++++++  oooo........&&&&",
"OOOOOOOOOOOOOO    XXXX++++++++  oooo........&&&&",
"OOOOOOOOOOOOOOOO  XX##%%%%%%%%  oooo........&&&&",
"OOOOOOOOOOOOOOOO  XX##%%%%%%%%  oooo........&&&&",
"OOOOOOOOOOOO      XX##%%%%%%%%  oooo........&&&&",
"OOOOOOOOOOOO      XX##%%%%%%%%  oooo........&&&&",
"ooooOOOOOOOO  ++++XX##%%%%%%%%  oooo........&&&&",
"ooooOOOOOOOO  ++++XX##%%%%%%%%  oooo........&&&&",
"ooooOOOOOOOO    XXXXXX++####++  oooo........&&&&",
"ooooOOOOOOOO    XXXXXX++####++  oooo........&&&&",
"oooooooooooooo    XX++++++++++  ........&&&&&&&&",
"oooooooooooooo    XX++++++++++  ........&&&&&&&&",
"oooooooooooooooo  XX++    XX++  ........&&&&&&&&",
"oooooooooooooooo  XX++    XX++  ........&&&&&&&&",
"........oooooooo      ..      ......&&&&&&&&$$$$",
"........oooooooo      ..      ......&&&&&&&&$$$$",
"........oooooooo....................&&&&&&&&$$$$",
"........oooooooo....................&&&&&&&&$$$$",
"........................$$$$$$$$&&&&&&&&&&&&&&&&",
"........................$$$$$$$$&&&&&&&&&&&&&&&&",
"........................$$$$$$$$&&&&&&&&&&&&&&&&",
"........................$$$$$$$$&&&&&&&&&&&&&&&&"
};
