/* XPM */
static char *_e74d4f4ca2047c9d413c448da892d33hkxdVmJTqrJZxM9a[] = {
/* columns rows colors chars-per-pixel */
"48 48 26 1 ",
"  c #4A3B1F",
". c #779F57",
"X c #77A057",
"o c #78A057",
"O c #77A058",
"+ c #78A158",
"@ c #E5AB3D",
"# c #9FBC61",
"$ c #A2BF61",
"% c #E7AE41",
"& c #A3C062",
"* c #A4C263",
"= c #BED26F",
"- c #BFD370",
"; c #FFC95E",
": c #C0D370",
"> c #C0D470",
", c #FDC760",
"< c #FDC863",
"1 c #2379EA",
"2 c #D8B78F",
"3 c #B1E0BE",
"4 c #FFD7A8",
"5 c #9BD3C2",
"6 c #9BD4C3",
"7 c white",
/* pixels */
"++++++++****>>>>>>>>>>>>>>>>>>>>************++++",
"++++++++****>>>>>>>>>>>>>>>>>>>>************++++",
"++++++++****>>>>>>>>>>>>>>>>>>>>************++++",
"++++++++****-:::::::::::::::::::***&********++++",
"++++++++***&========&&&&========&&&&&*******++++",
"++++++++****>>>>>>>>****>>>>>>>>************++++",
"++++++++**&*>>>>>>>>****>>>>>>>>*****&&*****++++",
"++++++++&***>>>>>>>>****>>>>>>>>************++++",
"++++***&$***                        ********++++",
"++++*******&                        *****&**++++",
"++++**&***    @@@@@@@@,,,,,,,,,,,,,,  ***&**++++",
"++++&****#    @@@@@@@@,,,,,,,,,,,,,,  ***$**++++",
"++++&***  11  @@@@@@@@@@;,,,@@@@@@,<  **+.++++++",
"++++$***  11  @@@@@@@@@@,,,,@@@@@@,,  **+.++++++",
"++++&***  11  @@777777@@,,  ,,,,,,    $*+.++++++",
"++++&**&  11  @@777777@@,,  ,,,,,,    $*+.++++++",
"++++.+++      @@77  77@@,,,,,,,,,,,,  $*+.++++++",
"++++X++X      @@77  77@@,,,,,,,,,,,,  $*+.++++++",
"+++++++X**  11  777777@@,,,,,,,,,,,,  $*+.++++++",
"++++++X+**  11  777777@@,,,,,,,,,,,,  **+.++++++",
"++++++.+*&  11  @@@@@@@@,,,,,,,,,,,,  &*+.++++++",
"++++++.+**  11  @@@@@@@%,,,,,,,,,,,,  **+.++++++",
"++++++.+**      @@@@@@@@@@,,          **+.++++++",
"++++++X+**      @@@@@@@@@@,,          $*+X++++++",
"6666++++*****&  @@@@@@,,,,,,,,  ****++++++++6666",
"6666++++******  @@@@@@,,,,,,,,  ****++++++++6666",
"6666++++********  @@@@,,,,,,,,  ****++++++++6666",
"6666++++**&$$***  @@@@,,,,,,,,  **&$..++++++6666",
"6666+++++++.&***  @@2244444444  ***$o+++++++6666",
"6666++++++++****  @@2244444444  ***&++++++++6666",
"6666++++++.+**  ,,@@2244444444  ***&++++++++6666",
"6666++++++.+**  ,,@@2244444444  ***&++++++++6666",
"6666++++X++O  ,,@@@@2244444444  &**&++++++++6666",
"6666++++.++O  ,,@@@@2244444444  &**&++++++++6666",
"6666++++.+++    @@@@@@,,2222,,  &**&++++++++6666",
"6666++++.+++    @@@@@@,,2222,,  $**&++++++++6666",
"66666665.+++  ++  @@,,,,,,,,,,  X++.++++66666666",
"66666665X+++  ++  @@,,,,,,,,,,  +++.++++66666666",
"66666666++++X+++  @@,,    @@,,  +++.++++66666666",
"66666666++++++++  @@,,    @@,,  +++X++++66666666",
"666666666666++++      ++      ++++++666666663333",
"666666666665.X++      ++      ++++++666666663333",
"666666666666o+++X+++++++++++++++++++666666663333",
"666666666666++++++++++++++++++++++++666666663333",
"6666666666666666++++++++++++++++6666666666666666",
"6666666666666665.....o++o.....++6666666666666666",
"6666666666666666++++++++++++++++6666666666666666",
"6666666666666666++++++++++++++++6666666666666666"
};
