/* XPM */
static char *_c3e45a8cc6d4a5fb5613ebbbd23edcfxB2vtYmL5LNCq7FW[] = {
/* columns rows colors chars-per-pixel */
"48 48 12 1 ",
"  c #4A3B1F",
". c #78A158",
"X c #E5AB3D",
"o c #A4C263",
"O c #C0D470",
"+ c #FDC760",
"@ c #2379EA",
"# c #D8B78F",
"$ c #B1E0BE",
"% c #FFD7A8",
"& c #9BD4C3",
"* c white",
/* pixels */
"&&&&&&&&&&&&&&&&&&&&&&&&........................",
"&&&&&&&&&&&&&&&&&&&&&&&&........................",
"&&&&&&&&&&&&&&&&&&&&&&&&........................",
"&&&&&&&&&&&&&&&&&&&&&&&&........................",
"&&&&&&&&&&&&........................oooooooooooo",
"&&&&&&&&&&&&........................oooooooooooo",
"&&&&&&&&&&&&........................oooooooooooo",
"&&&&&&&&&&&&........................oooooooooooo",
"$$$$$$$$....                        oooooooooooo",
"$$$$$$$$....                        oooooooooooo",
"$$$$$$$$..    XXXXXXXX++++++++++++++  oooooooooo",
"$$$$$$$$..    XXXXXXXX++++++++++++++  oooooooooo",
"&&&&....  @@  XXXXXXXXXX++++XXXXXX++  oooooooooo",
"&&&&....  @@  XXXXXXXXXX++++XXXXXX++  oooooooooo",
"&&&&....  @@  XX******XX++  ++++++    oooooooooo",
"&&&&....  @@  XX******XX++  ++++++    oooooooooo",
"&&&&....      XX**  **XX++++++++++++  ooOOOOOOOO",
"&&&&....      XX**  **XX++++++++++++  ooOOOOOOOO",
"&&&&....oo  @@  ******XX++++++++++++  ooOOOOOOOO",
"&&&&....oo  @@  ******XX++++++++++++  ooOOOOOOOO",
"&&&&......  @@  XXXXXXXX++++++++++++  OOOOOOoooo",
"&&&&......  @@  XXXXXXXX++++++++++++  OOOOOOoooo",
"&&&&......      XXXXXXXXXX++          OOOOOOoooo",
"&&&&......      XXXXXXXXXX++          OOOOOOoooo",
"............oo    XXXX++++++++  OOOOOOOOOOOOOOOO",
"............oo    XXXX++++++++  OOOOOOOOOOOOOOOO",
"............oooo  XX##%%%%%%%%  OOOOOOOOOOOOOOOO",
"............oooo  XX##%%%%%%%%  OOOOOOOOOOOOOOOO",
"........oooo      XX##%%%%%%%%  OOOOOOOOOOOOOOOO",
"........oooo      XX##%%%%%%%%  OOOOOOOOOOOOOOOO",
"........oooo  ++++XX##%%%%%%%%  OOOOOOOOOOOOOOOO",
"........oooo  ++++XX##%%%%%%%%  OOOOOOOOOOOOOOOO",
"........oooo    XXXXXX++####++  OOOOOOOOOOOOOOOO",
"........oooo    XXXXXX++####++  OOOOOOOOOOOOOOOO",
"........oooooo    XX++++++++++  OOOOOOOOOOOOOOOO",
"........oooooo    XX++++++++++  OOOOOOOOOOOOOOOO",
"....oooooooooooo  XX++    XX++  OOOOOOOOOOOOOOOO",
"....oooooooooooo  XX++    XX++  OOOOOOOOOOOOOOOO",
"....oooooooooooo  XX  OO  XX  OOOOOOOOOOOOOOOOOO",
"....oooooooooooo  XX  OO  XX  OOOOOOOOOOOOOOOOOO",
"....oooooooooooo    OOOO    OOOOOOOOOOOOOOOOoooo",
"....oooooooooooo    OOOO    OOOOOOOOOOOOOOOOoooo",
"....ooooooooooooOOOOOOOOOOOOOOOOOOOOOOOOOOOOoooo",
"....ooooooooooooOOOOOOOOOOOOOOOOOOOOOOOOOOOOoooo",
"....ooooooooooooOOOOooooOOOOOOOOOOOOOOOOOOOOOOOO",
"....ooooooooooooOOOOooooOOOOOOOOOOOOOOOOOOOOOOOO",
"....ooooooooooooOOOOooooOOOOOOOOOOOOOOOOOOOOOOOO",
"....ooooooooooooOOOOooooOOOOOOOOOOOOOOOOOOOOOOOO"
};
