/* XPM */
static char *c4bdcfc4627042b4e54e2267b55fc142LMMF4NZJc2btdgB3[] = {
/* columns rows colors chars-per-pixel */
"48 48 10 1 ",
"  c #4A3B1F",
". c #78A158",
"X c #E5AB3D",
"o c #A4C263",
"O c #C0D470",
"+ c #FDC760",
"@ c #2379EA",
"# c #D8B78F",
"$ c #FFD7A8",
"% c white",
/* pixels */
"................................................",
"................................................",
"................................................",
"................................................",
"oooooooooooo............oooooooooooooooooooo....",
"oooooooooooo............oooooooooooooooooooo....",
"oooooooooooo............oooooooooooooooooooo....",
"oooooooooooo............oooooooooooooooooooo....",
"oooooooooooo                        oooooooooooo",
"oooooooooooo                        oooooooooooo",
"oooooooooo    XXXXXXXX++++++++++++++  oooooooooo",
"oooooooooo    XXXXXXXX++++++++++++++  oooooooooo",
"OOOOoooo  @@  XXXXXXXXXX++++XXXXXX++  ooOOOOOOOO",
"OOOOoooo  @@  XXXXXXXXXX++++XXXXXX++  ooOOOOOOOO",
"OOOOoooo  @@  XX%%%%%%XX++  ++++++    ooOOOOOOOO",
"OOOOoooo  @@  XX%%%%%%XX++  ++++++    ooOOOOOOOO",
"OOOOOOOO      XX%%  %%XX++++++++++++  OOOOOOOOOO",
"OOOOOOOO      XX%%  %%XX++++++++++++  OOOOOOOOOO",
"OOOOOOOOOO  @@  %%%%%%XX++++++++++++  OOOOOOOOOO",
"OOOOOOOOOO  @@  %%%%%%XX++++++++++++  OOOOOOOOOO",
"OOOOOOOOOO  @@  XXXXXXXX++++++++++++  OOOOOOOOOO",
"OOOOOOOOOO  @@  XXXXXXXX++++++++++++  OOOOOOOOOO",
"OOOOOOOOOO      XXXXXXXXXX++          OOOOOOOOOO",
"OOOOOOOOOO      XXXXXXXXXX++          OOOOOOOOOO",
"OOOOOOOOOOOOOO    XXXX++++++++  OOOOooooOOOOOOOO",
"OOOOOOOOOOOOOO    XXXX++++++++  OOOOooooOOOOOOOO",
"OOOOOOOOOOOO  OO  XX##$$$$$$$$  OOOOooooOOOOOOOO",
"OOOOOOOOOOOO  OO  XX##$$$$$$$$  OOOOooooOOOOOOOO",
"OOOOOOOOOOOO      XX##$$$$$$$$  OOOOOOOOOOOOOOOO",
"OOOOOOOOOOOO      XX##$$$$$$$$  OOOOOOOOOOOOOOOO",
"OOOOOOOOOOOO  ++++XX##$$$$$$$$  OOOOOOOOOOOOOOOO",
"OOOOOOOOOOOO  ++++XX##$$$$$$$$  OOOOOOOOOOOOOOOO",
"OOOOOOOOoooo    XXXXXX++####++  OOOOoooooooooooo",
"OOOOOOOOoooo    XXXXXX++####++  OOOOoooooooooooo",
"OOOOOOOOoooooo    XX++++++++++  OOOOoooooooooooo",
"OOOOOOOOoooooo    XX++++++++++  OOOOoooooooooooo",
"oooooooooooooooo  XX++    XX++  oooooooooooooooo",
"oooooooooooooooo  XX++    XX++  oooooooooooooooo",
"oooooooooooooooo  XX  oo  XX  oooooooooooooooooo",
"oooooooooooooooo  XX  oo  XX  oooooooooooooooooo",
"oooooooo........    oooo    oooooooooooo........",
"oooooooo........    oooo    oooooooooooo........",
"oooooooo............oooooooooooooooooooo........",
"oooooooo............oooooooooooooooooooo........",
"................................................",
"................................................",
"................................................",
"................................................"
};
