/* XPM */
static char *_5e95771242940b1cee96686eb60a7d9QaotKOZo09BF20mO[] = {
/* columns rows colors chars-per-pixel */
"48 48 30 1 ",
"  c #4A3B1F",
". c #779F57",
"X c #77A057",
"o c #78A057",
"O c #77A058",
"+ c #78A158",
"@ c #E5AB3D",
"# c #9FBC61",
"$ c #A2BF61",
"% c #E7AE41",
"& c #A3C062",
"* c #A4C263",
"= c #BBCF6D",
"- c #BCCF6E",
"; c #BED16E",
": c #BFD370",
"> c #FFC95E",
", c #C0D370",
"< c #C0D470",
"1 c #FDC760",
"2 c #FDC863",
"3 c #2379EA",
"4 c #D8B78F",
"5 c #AFDDBC",
"6 c #B0DEBC",
"7 c #B1E0BE",
"8 c #FFD7A8",
"9 c #9BD3C2",
"0 c #9BD4C3",
"q c white",
/* pixels */
"++++++++************<<<<<<<<<<<<<<<<<<<<<<<<<<<<",
"++++++++************<<<<<<<<<<<<<<<<<<<<<<<<<<<<",
"++++++++************<<<<<<<<<<<<<<<<<<<<<<<<<<<<",
"++++++++****&*******,,,,,,,,,,,,,,,:<<<<<<<<<<<<",
"++++++++***&&&&&;;;;;;;;;;;;;;;;&&&&:<<<<<<<<<<<",
"++++++++********<<<<<<<<<<<<<<<<****<<<<<<<<<<<<",
"++++++++**&*****<<<<<<<<<<<<<<<<****<;:<<<<<<<<<",
"++++++++&*******<<<<<<<<<<<<<<<<****<<<,<<<<<<<<",
"++++***&$***                        <<<<,<<<<<<<",
"++++*******&                        <<<<,:<<<<<<",
"++++**&***    @@@@@@@@11111111111111  <<<;,<<<<<",
"++++&****#    @@@@@@@@11111111111111  <<<;,<<<<<",
"++++&***  33  @@@@@@@@@@>111@@@@@@12  :<<;,<****",
"++++$***  33  @@@@@@@@@@1111@@@@@@11  <<<;,<****",
"++++&***  33  @@qqqqqq@@11  111111    =<<;,<****",
"++++&**&  33  @@qqqqqq@@11  111111    ;<<;,<****",
"++++.+++      @@qq  qq@@111111111111  -<<;,<<<<<",
"++++X++X      @@qq  qq@@111111111111  -<<;,<<<<<",
"+++++++X**  33  qqqqqq@@111111111111  ;<<;,<<<<<",
"++++++X+**  33  qqqqqq@@111111111111  <<<;,<<<<<",
"++++++.+*&  33  @@@@@@@@111111111111  ;<<;,<<<<<",
"++++++.+**  33  @@@@@@@%111111111111  <<<;,<<<<<",
"++++++.+**      @@@@@@@@@@11          <<<;,<<<<<",
"++++++X+**      @@@@@@@@@@11          -<<;,<<<<<",
"0000++++*****&  @@@@@@11111111  <<<<**&*<:<<<<<<",
"0000++++******  @@@@@@11111111  <<<<****<<<<<<<<",
"0000++++********  @@@@11111111  <<<<****<<<<<<<<",
"0000++++**&$$***  @@@@11111111  <<;=$&&*<<<<<<<<",
"0000+++++++.&***  @@4488888888  ***$;<<<<<<<<<<<",
"0000++++++++****  @@4488888888  ***&,<<<<<<<<<<<",
"0000++++++.+**  11@@4488888888  ***&,<<<<<<<<<<<",
"0000++++++.+**  11@@4488888888  ***&,<<<<<<<<<<<",
"0000++++X++O  11@@@@4488888888  &**&********<<<<",
"0000++++.++O  11@@@@4488888888  &**&********<<<<",
"0000++++.+++    @@@@@@11444411  &**&********<<<<",
"0000++++.+++    @@@@@@11444411  $**&********<<<<",
"00000009.+++  ++  @@1111111111  &**&************",
"00000009X+++  ++  @@1111111111  ***&************",
"00000000++++X+++  @@11    @@11  ***$************",
"00000000++++++++  @@11    @@11  ***&************",
"000000000000++++      ++      ++++++****++++++++",
"000000000009.X++      ++      ++++++****++++++++",
"000000000000o+++X+++++++++++++++++++****++++++++",
"000000000000++++++++++++++++++++++++****++++++++",
"000000000000000000007777++++++++++++++++++++++++",
"000000000000000999995677o.....++++++++++++++++++",
"000000000000000009996777++++++++++++++++++++++++",
"000000000000000000007777++++++++++++++++++++++++"
};
