/* XPM */
static char *_5f4fe9e1a9e4b01dd18b46bd7aab510Ly5VvkdCiipslKJb[] = {
/* columns rows colors chars-per-pixel */
"48 48 12 1 ",
"  c #4A3B1F",
". c #78A158",
"X c #E5AB3D",
"o c #A4C263",
"O c #C0D470",
"+ c #FDC760",
"@ c #2379EA",
"# c #D8B78F",
"$ c #B1E0BE",
"% c #FFD7A8",
"& c #9BD4C3",
"* c white",
/* pixels */
"OOOOOOOOOOOOooooOOOOOOOOOOOOoooooooooooooooo....",
"OOOOOOOOOOOOooooOOOOOOOOOOOOoooooooooooooooo....",
"OOOOOOOOOOOOooooOOOOOOOOOOOOoooooooooooooooo....",
"OOOOOOOOOOOOooooOOOOOOOOOOOOoooooooooooooooo....",
"OOOOOOOOOOOOOOOOOOOOOOOOOOOOOOOOoooooooooooo....",
"OOOOOOOOOOOOOOOOOOOOOOOOOOOOOOOOoooooooooooo....",
"OOOOOOOOOOOOOOOOOOOOOOOOOOOOOOOOoooooooooooo....",
"OOOOOOOOOOOOOOOOOOOOOOOOOOOOOOOOoooooooooooo....",
"OOOOOOOOOOOO                        oooooooo....",
"OOOOOOOOOOOO                        oooooooo....",
"OOOOOOOOOO    XXXXXXXX++++++++++++++  oooooo....",
"OOOOOOOOOO    XXXXXXXX++++++++++++++  oooooo....",
"OOOOOOOO  @@  XXXXXXXXXX++++XXXXXX++  oo........",
"OOOOOOOO  @@  XXXXXXXXXX++++XXXXXX++  oo........",
"OOOOOOOO  @@  XX******XX++  ++++++    oo........",
"OOOOOOOO  @@  XX******XX++  ++++++    oo........",
"OOOOOOOO      XX**  **XX++++++++++++  oo........",
"OOOOOOOO      XX**  **XX++++++++++++  oo........",
"OOOOOOOOOO  @@  ******XX++++++++++++  oo........",
"OOOOOOOOOO  @@  ******XX++++++++++++  oo........",
"OOOOooooOO  @@  XXXXXXXX++++++++++++  oo........",
"OOOOooooOO  @@  XXXXXXXX++++++++++++  oo........",
"OOOOooooOO      XXXXXXXXXX++          oo........",
"OOOOooooOO      XXXXXXXXXX++          oo........",
"OOOOOOOOOOOOOO    XXXX++++++++  oooo........&&&&",
"OOOOOOOOOOOOOO    XXXX++++++++  oooo........&&&&",
"OOOOOOOOOOOOOOOO  XX##%%%%%%%%  oooo........&&&&",
"OOOOOOOOOOOOOOOO  XX##%%%%%%%%  oooo........&&&&",
"OOOOOOOOOOOO      XX##%%%%%%%%  oooo........&&&&",
"OOOOOOOOOOOO      XX##%%%%%%%%  oooo........&&&&",
"OOOOOOOOOOOO  ++++XX##%%%%%%%%  oooo........&&&&",
"OOOOOOOOOOOO  ++++XX##%%%%%%%%  oooo........&&&&",
"ooooOOOOOOOO    XXXXXX++####++  oooo........&&&&",
"ooooOOOOOOOO    XXXXXX++####++  oooo........&&&&",
"ooooOOOOOOOOoo    XX++++++++++  oooo........&&&&",
"ooooOOOOOOOOoo    XX++++++++++  oooo........&&&&",
"oooooooooooooooo  XX++    XX++  ........&&&&&&&&",
"oooooooooooooooo  XX++    XX++  ........&&&&&&&&",
"oooooooooooooooo  XX  oo  XX  oo........&&&&&&&&",
"oooooooooooooooo  XX  oo  XX  oo........&&&&&&&&",
"........oooooooo    ....    ........&&&&&&&&$$$$",
"........oooooooo    ....    ........&&&&&&&&$$$$",
"........oooooooo....................&&&&&&&&$$$$",
"........oooooooo....................&&&&&&&&$$$$",
"........................$$$$$$$$&&&&&&&&&&&&&&&&",
"........................$$$$$$$$&&&&&&&&&&&&&&&&",
"........................$$$$$$$$&&&&&&&&&&&&&&&&",
"........................$$$$$$$$&&&&&&&&&&&&&&&&"
};
