/* XPM */
static char *_5031c3d0c6a4e8596c843a72e9a6783SHcXTXj0EQn4ktU9[] = {
/* columns rows colors chars-per-pixel */
"48 48 24 1 ",
"  c #4A3B1F",
". c #779F57",
"X c #77A057",
"o c #78A057",
"O c #78A158",
"+ c #E5AB3D",
"@ c #9FBC61",
"# c #A2BF61",
"$ c #E7AE41",
"% c #A3C062",
"& c #A4C263",
"* c #BBCE6C",
"= c #BCCF6E",
"- c #BED26F",
"; c #BFD370",
": c #FFC95E",
"> c #C0D370",
", c #C0D470",
"< c #FDC760",
"1 c #FDC863",
"2 c #2379EA",
"3 c #D8B78F",
"4 c #FFD7A8",
"5 c white",
/* pixels */
"OOOOOOOOOOOOOOOOOOOOOOOOOOOOOOOOOOOOOOOOOOOOOOOO",
"OOOOOOOOOOOOOOOOOOOOOOOOOOOOOOOOOOOOOOOOOOOOOOOO",
"OOOOOOOOOOOOOOOOOOOOOOOOOOOOOOOOOOOOOOOOOOOOOOOO",
"OOOOOOOOOOOOOOOOOOOOOOOOOOOOOOOOOOOOOOOOOOOOOOOO",
"&&&&&&&&&&&%............%%%%%%%%%%%%%&&&&&&&OOOO",
"&&&&&&&&&&&&OOOOOOOOOOOO&&&&&&&&&&&&&&&&&&&&OOOO",
"&&&&&&&&&&%&OOOOOOOOOOOO&&&&&&&&&&&&&%%&&&&&OOOO",
"&&&&&&&&%&&&OOOOOOOOOOOO&&&&&&&&&&&&&&&&&&&&OOOO",
"&&&&&&&%#&&&                        &&&&&&&&&&&&",
"&&&&&&&&&&&%                        &&&&&%&&&&&&",
"&&&&&&%&&&    ++++++++<<<<<<<<<<<<<<  &&&%&&&&&&",
"&&&&%&&&&@    ++++++++<<<<<<<<<<<<<<  &&&#&&&&&&",
",,,>%&&&  22  ++++++++++:<<<++++++<1  &&,->,,,,,",
",,,>#&&&  22  ++++++++++<<<<++++++<<  &&,->,,,,,",
",,,>%&&&  22  ++555555++<<  <<<<<<    #&,->,,,,,",
",,,>%&&%  22  ++555555++<<  <<<<<<    #&,->,,,,,",
",,,>-,,,      ++55  55++<<<<<<<<<<<<  =,,->,,,,,",
",,,>-,,-      ++55  55++<<<<<<<<<<<<  =,,->,,,,,",
",,,,;>--,,  22  555555++<<<<<<<<<<<<  -,,->,,,,,",
",,,,,>-,,,  22  555555++<<<<<<<<<<<<  ,,,->,,,,,",
",,,,,>-,,-  22  ++++++++<<<<<<<<<<<<  -,,->,,,,,",
",,,,,>-,,,  22  +++++++$<<<<<<<<<<<<  ,,,->,,,,,",
",,,,,>-,,,      ++++++++++<<          ,,,->,,,,,",
",,,,,>-,,,      ++++++++++<<          =,,->,,,,,",
",,,,,,;,,,;,,-  ++++++<<<<<<<<  ,,,,&&%&,;,,,,,,",
",,,,,,,,,,,,,,  ++++++<<<<<<<<  ,,,,&&&&,,,,,,,,",
",,,,,,,,,,,,,,,,  ++++<<<<<<<<  ,,,,&&&&,,,,,,,,",
",,,,,,,,,,--*,,,  ++++<<<<<<<<  ,,-*#%%&,,,,,,,,",
",,,,,,,,,,,-%&&&  ++3344444444  ,,>--,,,,,,,,,,,",
",,,,,,,,,,>,&&&&  ++3344444444  ,,,->,,,,,,,,,,,",
",,,,,,,,,>-,&&  <<++3344444444  ,,,->,,,,,,,,,,,",
",,,,,,,,;>-;&&  <<++3344444444  ,,,->,,,,,,,,,,,",
",,,,,,,>%&&%  <<++++3344444444  ;,,-&&&&&&&&&&&&",
",,,,,,,>#&&%  <<++++3344444444  ;,,-&&&&&&&&&&&&",
",,,,,,,>%&&%    ++++++<<3333<<  ;,,-&&&&&&&&&&&&",
",,,,,,,>%&&&    ++++++<<3333<<  -,,-&&&&&&&&&&&&",
"&&&&&&&&#&&&  &&  ++<<<<<<<<<<  %&&%&&&&&&&&&&&&",
"&&&&&&&&%&&&  &&  ++<<<<<<<<<<  &&&%&&&&&&&&&&&&",
"&&&&&&&&%&&&%&&&  ++<<    ++<<  &&&#&&&&&&&&&&&&",
"&&&&&&&&&&&&&&&&  ++<<    ++<<  &&&%&&&&&&&&&&&&",
"&&&&&&&&OOOOOOOO      &&      &&&&&%&&&&OOOOOOOO",
"&&&&&&&&OOOX.XOO      &&      &&&&&&&&&&OOOOOOOO",
"&&&&&&&&OOOOoOOOXOOO&&&&&&&&&&&&&&&&&&&&OOOOOOOO",
"&&&&&&&&OOOOOOOOOOOO&&&&&&&&&&&%%&&&&&&&OOOOOOOO",
"OOOOOOOOOOOOOOOOOOOOOOOOOOOOOOOOOOOOOOOOOOOOOOOO",
"OOOOOOOOOOOOOOOO.....oOOo.....OOOOOOOOOOOOOOOOOO",
"OOOOOOOOOOOOOOOOOOOOOOOOOOOOOOOOOOOOOOOOOOOOOOOO",
"OOOOOOOOOOOOOOOOOOOOOOOOOOOOOOOOOOOOOOOOOOOOOOOO"
};
