/* XPM */
static char *b7f4c3bddee0443f95cae480f7c00bd9aJ8tmHiVXDvDQ6cY[] = {
/* columns rows colors chars-per-pixel */
"48 48 12 1 ",
"  c #4A3B1F",
". c #78A158",
"X c #E5AB3D",
"o c #A4C263",
"O c #C0D470",
"+ c #FDC760",
"@ c #2379EA",
"# c #D8B78F",
"$ c #B1E0BE",
"% c #FFD7A8",
"& c #9BD4C3",
"* c white",
/* pixels */
"........ooooooooooooOOOOOOOOOOOOOOOOOOOOOOOOOOOO",
"........ooooooooooooOOOOOOOOOOOOOOOOOOOOOOOOOOOO",
"........ooooooooooooOOOOOOOOOOOOOOOOOOOOOOOOOOOO",
"........ooooooooooooOOOOOOOOOOOOOOOOOOOOOOOOOOOO",
"........ooooooooOOOOOOOOOOOOOOOOooooOOOOOOOOOOOO",
"........ooooooooOOOOOOOOOOOOOOOOooooOOOOOOOOOOOO",
"........ooooooooOOOOOOOOOOOOOOOOooooOOOOOOOOOOOO",
"........ooooooooOOOOOOOOOOOOOOOOooooOOOOOOOOOOOO",
"....ooooooooooooooooOOOOOOOOOOOOOOOOOOOOOOOOOOOO",
"....ooooooooooooooooOOOOOOOOOOOOOOOOOOOOOOOOOOOO",
"....oooooooo                        OOOOOOOOOOOO",
"....oooooooo                        OOOOOOOOOOOO",
"....oooooo    XXXXXXXX++++++++++++++  OOOOOOoooo",
"....oooooo    XXXXXXXX++++++++++++++  OOOOOOoooo",
"....oooo  @@  XXXXXXXXXX++++XXXXXX++  OOOOOOoooo",
"....oooo  @@  XXXXXXXXXX++++XXXXXX++  OOOOOOoooo",
"........  @@  XX******XX++  ++++++    OOOOOOOOOO",
"........  @@  XX******XX++  ++++++    OOOOOOOOOO",
"........      XX**  **XX++++++++++++  OOOOOOOOOO",
"........      XX**  **XX++++++++++++  OOOOOOOOOO",
"........oo  @@  ******XX++++++++++++  OOOOOOOOOO",
"........oo  @@  ******XX++++++++++++  OOOOOOOOOO",
"........oo  @@  XXXXXXXX++++++++++++  OOOOOOOOOO",
"........oo  @@  XXXXXXXX++++++++++++  OOOOOOOOOO",
"&&&&....oo      XXXXXXXXXX++          ooOOOOOOOO",
"&&&&....oo      XXXXXXXXXX++          ooOOOOOOOO",
"&&&&....oooooo    XXXX++++++++  OOOOooooOOOOOOOO",
"&&&&....oooooo    XXXX++++++++  OOOOooooOOOOOOOO",
"&&&&........oooo  XX##%%%%%%%%  ooooOOOOOOOOOOOO",
"&&&&........oooo  XX##%%%%%%%%  ooooOOOOOOOOOOOO",
"&&&&........      XX##%%%%%%%%  ooooOOOOOOOOOOOO",
"&&&&........      XX##%%%%%%%%  ooooOOOOOOOOOOOO",
"&&&&........  ++++XX##%%%%%%%%  ooooooooooooOOOO",
"&&&&........  ++++XX##%%%%%%%%  ooooooooooooOOOO",
"&&&&........    XXXXXX++####++  ooooooooooooOOOO",
"&&&&........    XXXXXX++####++  ooooooooooooOOOO",
"&&&&&&&&......    XX++++++++++  oooooooooooooooo",
"&&&&&&&&......    XX++++++++++  oooooooooooooooo",
"&&&&&&&&........  XX++    XX++  oooooooooooooooo",
"&&&&&&&&........  XX++    XX++  oooooooooooooooo",
"&&&&&&&&&&&&....      ..      ......oooo........",
"&&&&&&&&&&&&....      ..      ......oooo........",
"&&&&&&&&&&&&........................oooo........",
"&&&&&&&&&&&&........................oooo........",
"&&&&&&&&&&&&&&&&&&&&$$$$........................",
"&&&&&&&&&&&&&&&&&&&&$$$$........................",
"&&&&&&&&&&&&&&&&&&&&$$$$........................",
"&&&&&&&&&&&&&&&&&&&&$$$$........................"
};
