/* XPM */
static char *_fd80fc74f844cf2bc5edb63e2301fc3xauSLvBqgZtGWqXP[] = {
/* columns rows colors chars-per-pixel */
"48 48 25 1 ",
"  c #4A3B1F",
". c #769F57",
"X c #77A057",
"o c #77A058",
"O c #78A158",
"+ c #E5AB3D",
"@ c #A0BC60",
"# c #E7AE41",
"$ c #A3C163",
"% c #A4C263",
"& c #BED26F",
"* c #BFD370",
"= c #FEC95E",
"- c #C0D370",
"; c #C0D470",
": c #FDC760",
"> c #FDC863",
", c #2379EA",
"< c #D8B78F",
"1 c #B1DFBD",
"2 c #B1E0BE",
"3 c #FFD7A8",
"4 c #9AD2C1",
"5 c #9BD4C3",
"6 c white",
/* pixels */
"5555555555555555OOOOOOOOOOOO22225555555555555555",
"5555555555555555OOOOOOOOOOOO22225555555555555555",
"5555555555555555OOOOOOOOOOOO22225555555555555555",
"5555555555554444OOOOOOOOOOOO11114444555555555555",
"555555555554........................455555555555",
"555555555555OOOOOOOOOOOOOOOOOOOOOOOO555555555555",
"555555555445OOOOOOOOOOOOOOOOOOOOOOOO544555555555",
"555555554555OOOOOOOOOOOOOOOOOOOOOOOO555455555555",
"55555554.OOO                        OOOO45555555",
"55555545OOOX                        OOOO44555555",
"55555445OO    ++++++++::::::::::::::  OO54455555",
"55554455O.    ++++++++::::::::::::::  OO54455555",
"2221XOOO  ,,  ++++++++++=:::++++++:>  OOO.OO5555",
"2221.OOO  ,,  ++++++++++::::++++++::  OOO.OO5555",
"2221.OOO  ,,  ++666666++::  ::::::    .OO.OO5555",
"2221.OOO  ,,  ++666666++::  ::::::    .OO.OO5555",
"5554.OOO      ++66  66++::::::::::::  .OO.OO5555",
"5554XOOX      ++66  66++::::::::::::  .OO.OO5555",
"5555OOOX%%  ,,  666666++::::::::::::  .OO.OO5555",
"5555OOXO%%  ,,  666666++::::::::::::  OOO.OO5555",
"5555OO.OOX  ,,  ++++++++::::::::::::  XOO.OO5555",
"5555OO.OOO  ,,  +++++++#::::::::::::  OOO.OO5555",
"5555OO.OOO      ++++++++++::          OOO.OO5555",
"5555OOXOOO      ++++++++++::          .OOXOO5555",
"OOOOOOOOOOOO%$  ++++++::::::::  %%%%%%$%OOOOOOOO",
"OOOOOOOOOOOO%%  ++++++::::::::  %%%%%%%%OOOOOOOO",
"OOOOOOOOOOOO%%%%  ++++::::::::  %%%%%%%%OOOOOOOO",
"OOOOOOOOOOo.@%%%  ++++::::::::  %%$@@$$%OOOOOOOO",
"OOOOOOOO%%%$$%%%  ++<<33333333  %%%@%%%%OOOOOOOO",
"OOOOOOOO%%%%%%%%  ++<<33333333  %%%$%%%%OOOOOOOO",
"OOOOOOOO%%$%%%  ::++<<33333333  %%%$%%%%OOOOOOOO",
"OOOOOOOO$%$$%%  ::++<<33333333  %%%$%%%%OOOOOOOO",
"OOOOOOOO$%%$  ::++++<<33333333  $%%$%%%%%%%%OOOO",
"OOOOOOOO@%%$  ::++++<<33333333  $%%$%%%%%%%%OOOO",
"OOOOOOOO$%%$    ++++++::<<<<::  $%%$%%%%%%%%OOOO",
"OOOOOOOO$%%%    ++++++::<<<<::  @%%$%%%%%%%%OOOO",
"OOOO%%%%@%%%  %%  ++::::::::::  $%%$%%%%%%%%OOOO",
"OOOO%%%%$%%%  %%  ++::::::::::  %%%$%%%%%%%%OOOO",
"OOOO%%%%$%%%$%%%  ++::    ++::  %%%@%%%%%%%%OOOO",
"OOOO%%%%%%%%%%%%  ++::    ++::  %%%$%%%%%%%%OOOO",
"OOOO%%%%%%%%%%%%      %%      ;;;;-*%%%%OOOOOOOO",
"OOOO%%%%%%%$@$%%      %%      ;;;*-;%%%%OOOOOOOO",
"OOOO%%%%%%%%$$%%&;;;%%%%;;;;;;;;;-;;%%%%OOOOOOOO",
"OOOO%%%%%%%%%%%%;;;;%%%%;;;;;;;**;;;%%%%OOOOOOOO",
"OOOO%%%%%%%%%%%%;;;;;;;;;;;;;;;*;;;;%%%%OOOOOOOO",
"OOOO%%%%%%%%%%%$&&&&&&;;&&&&&&*;;;;;%%%%OOOOOOOO",
"OOOO%%%%%%%%%%%%;----;;;;----;;;;;;;%%%%OOOOOOOO",
"OOOO%%%%%%%%%%%%;;;;;;;;;;;;;;;;;;;;%%%%OOOOOOOO"
};
