/* XPM */
static char *_ea67a31bf3c4bd2cf638f71898fcc874OUctckrNSjbVk2G[] = {
/* columns rows colors chars-per-pixel */
"48 48 21 1 ",
"  c #4A3B1F",
". c #769F57",
"X c #77A057",
"o c #78A158",
"O c #E5AB3D",
"+ c #9FBC61",
"@ c #A1BE61",
"# c #E7AE41",
"$ c #A3C062",
"% c #A4C263",
"& c #BED26F",
"* c #BFD370",
"= c #FFC95E",
"- c #C0D370",
"; c #C0D470",
": c #FDC760",
"> c #FDC863",
", c #2379EA",
"< c #D8B78F",
"1 c #FFD7A8",
"2 c white",
/* pixels */
"oooo%%%%%%%%;;;;;;;;;;;;;;;;;;;;;;;;%%%%%%%%oooo",
"oooo%%%%%%%%;;;;;;;;;;;;;;;;;;;;;;;;%%%%%%%%oooo",
"oooo%%%%%%%%;;;;;;;;;;;;;;;;;;;;;;;;%%%%%%%%oooo",
"oooo%%%%%%%%*----------------------*%%%%%%%%oooo",
"oooo%%%%%%%$&&&&&&&&&&&&&&&&&&&&&&&&$%%%%%%%oooo",
"oooo%%%%%%%%;;;;;;;;;;;;;;;;;;;;;;;;%%%%%%%%oooo",
"oooo%%%%%%$%;;;;;;;;;;;;;;;;;;;;;;;;%$$%%%%%oooo",
"oooo%%%%$%%%;;;;;;;;;;;;;;;;;;;;;;;;%%%%%%%%oooo",
"oooo%%%$@%%%                        %%%%%%%%oooo",
"oooo%%%%%%%$                        %%%%%$%%oooo",
"oooo%%$%%%    OOOOOOOO::::::::::::::  %%%$%%oooo",
"oooo$%%%%+    OOOOOOOO::::::::::::::  %%%@%%oooo",
"ooooXooo  ,,  OOOOOOOOOO=:::OOOOOO:>  %%o.oooooo",
"oooo.ooo  ,,  OOOOOOOOOO::::OOOOOO::  %%o.oooooo",
"oooo.ooo  ,,  OO222222OO::  ::::::    @%o.oooooo",
"oooo.ooo  ,,  OO222222OO::  ::::::    @%o.oooooo",
"oooo.ooo      OO22  22OO::::::::::::  @%o.oooooo",
"ooooXooX      OO22  22OO::::::::::::  @%o.oooooo",
"oooooooX%%  ,,  222222OO::::::::::::  @%o.oooooo",
"ooooooXo%%  ,,  222222OO::::::::::::  %%o.oooooo",
"oooooo.o%$  ,,  OOOOOOOO::::::::::::  $%o.oooooo",
"oooooo.o%%  ,,  OOOOOOO#::::::::::::  %%o.oooooo",
"oooooo.o%%      OOOOOOOOOO::          %%o.oooooo",
"ooooooXo%%      OOOOOOOOOO::          @%oXoooooo",
"oooo%%$%%%%%%$  OOOOOO::::::::  %%%%%%$%%$%%oooo",
"oooo%%%%%%%%%%  OOOOOO::::::::  %%%%%%%%%%%%oooo",
"oooo%%%%%%%%%%%%  OOOO::::::::  %%%%%%%%%%%%oooo",
"oooo%%%%%%$@@%%%  OOOO::::::::  %%$@@$$%%%%%oooo",
"oooo%%%%%%%$&;;;  OO<<11111111  ;;-&%%%%%%%%oooo",
"oooo%%%%%%%%;;;;  OO<<11111111  ;;;&%%%%%%%%oooo",
"oooo%%%%%%$%;;  ::OO<<11111111  ;;;&%%%%%%%%oooo",
"oooo%%%%$%$$;;  ::OO<<11111111  ;;;&%%%%%%%%oooo",
"oooo%%%%$%%$  ::OOOO<<11111111  *;;&%%%%%%%%oooo",
"oooo%%%%@%%$  ::OOOO<<11111111  *;;&%%%%%%%%oooo",
"oooo%%%%$%%$    OOOOOO::<<<<::  *;;&%%%%%%%%oooo",
"oooo%%%%$%%%    OOOOOO::<<<<::  &;;&%%%%%%%%oooo",
"oooo%%%%@%%%  %%  OO::::::::::  &;;&%%%%%%%%oooo",
"oooo%%%%$%%%  %%  OO::::::::::  ;;;&%%%%%%%%oooo",
"oooo%%%%$%%%$%%%  OO::    OO::  ;;;&%%%%%%%%oooo",
"oooo%%%%%%%%%%%%  OO::    OO::  ;;;&%%%%%%%%oooo",
"oooooooo%%%%%%%%      ;;      ;;%%%$%%%%%%%%oooo",
"oooooooo%%%$@$%%      ;;      ;;%%%%%%%%%%%%oooo",
"oooooooo%%%%$$%%&;;;;;;;;;;;;;;;%%%%%%%%%%%%oooo",
"oooooooo%%%%%%%%;;;;;;;;;;;;;;;*$%%%%%%%%%%%oooo",
"oooooooo%%%%%%%%%%%%;;;;;;;;;;;*%%%%%%%%%%%%oooo",
"oooooooo%%%%%%%$$$$$&&;;&&&&&&*;%%%%%%%%%%%%oooo",
"oooooooo%%%%%%%%%%%%-;;;;----;;;%%%%%%%%%%%%oooo",
"oooooooo%%%%%%%%%%%%;;;;;;;;;;;;%%%%%%%%%%%%oooo"
};
