/* XPM */
static char *_a23b3a6d29e427383d84c69c01d280e7rc4kwbl1334Ciay[] = {
/* columns rows colors chars-per-pixel */
"48 48 28 1 ",
"  c #4A3B1F",
". c #769F57",
"X c #77A057",
"o c #77A058",
"O c #78A158",
"+ c #E5AB3D",
"@ c #A0BC60",
"# c #E7AE41",
"$ c #A3C163",
"% c #A4C263",
"& c #BBCF6D",
"* c #BCCF6E",
"= c #BED26F",
"- c #BFD370",
"; c #FEC95E",
": c #C0D370",
"> c #C0D470",
", c #FDC760",
"< c #FDC863",
"1 c #2379EA",
"2 c #D8B78F",
"3 c #AFDEBC",
"4 c #B1DFBD",
"5 c #B1E0BE",
"6 c #FFD7A8",
"7 c #9BD3C2",
"8 c #9BD4C3",
"9 c white",
/* pixels */
"888888888888888888888888OOOOOOOOOOOOOOOOOOOOOOOO",
"888888888888888888888888OOOOOOOOOOOOOOOOOOOOOOOO",
"888888888888888888888888OOOOOOOOOOOOOOOOOOOOOOOO",
"888888888888777777777777OOOOOOOOOOOOOOOOOOOOOOOO",
"888888888887........................$%%%%%%%%%%%",
"888888888888OOOOOOOOOOOOOOOOOOOOOOOO%%%%%%%%%%%%",
"888888888778OOOOOOOOOOOOOOOOOOOOOOOO%$$%%%%%%%%%",
"888888887888OOOOOOOOOOOOOOOOOOOOOOOO%%%%%%%%%%%%",
"55555554.OOO                        %%%%%%%%%%%%",
"55555545OOOX                        %%%%%$%%%%%%",
"55555435OO    ++++++++,,,,,,,,,,,,,,  %%%$%%%%%%",
"55554455O.    ++++++++,,,,,,,,,,,,,,  %%%@%%%%%%",
"8887XOOO  11  ++++++++++;,,,++++++,<  %%%$%%%%%%",
"8887.OOO  11  ++++++++++,,,,++++++,,  %%%$%%%%%%",
"8887.OOO  11  ++999999++,,  ,,,,,,    @%%$%%%%%%",
"8887.OOO  11  ++999999++,,  ,,,,,,    @%%$%%%%%%",
"8887.OOO      ++99  99++,,,,,,,,,,,,  @%>=:>>>>>",
"8887XOOX      ++99  99++,,,,,,,,,,,,  @%>=:>>>>>",
"8888OOOX%%  11  999999++,,,,,,,,,,,,  @%>=:>>>>>",
"8888OOXO%%  11  999999++,,,,,,,,,,,,  %%>=:>>>>>",
"8888OO.OOX  11  ++++++++,,,,,,,,,,,,  =>>=:>%%%%",
"8888OO.OOO  11  +++++++#,,,,,,,,,,,,  >>>=:>%%%%",
"8888OO.OOO      ++++++++++,,          >>>=:>%%%%",
"8888OOXOOO      ++++++++++,,          *>>=:>%%%%",
"OOOOOOOOOOOO%$  ++++++,,,,,,,,  >>>>>>=>>->>>>>>",
"OOOOOOOOOOOO%%  ++++++,,,,,,,,  >>>>>>>>>>>>>>>>",
"OOOOOOOOOOOO%%%%  ++++,,,,,,,,  >>>>>>>>>>>>>>>>",
"OOOOOOOOOOo.@%%%  ++++,,,,,,,,  >>=&==->>>>>>>>>",
"OOOOOOOO%%%$$%%%  ++2266666666  >>:==>>>>>>>>>>>",
"OOOOOOOO%%%%%%%%  ++2266666666  >>>=:>>>>>>>>>>>",
"OOOOOOOO%%$%%%  ,,++2266666666  >>>=:>>>>>>>>>>>",
"OOOOOOOO$%$$%%  ,,++2266666666  >>>=:>>>>>>>>>>>",
"OOOOOOOO$%%$  ,,++++2266666666  ->>=:>>>>>>>>>>>",
"OOOOOOOO@%%$  ,,++++2266666666  ->>=:>>>>>>>>>>>",
"OOOOOOOO$%%$    ++++++,,2222,,  ->>=:>>>>>>>>>>>",
"OOOOOOOO$%%%    ++++++,,2222,,  =>>=:>>>>>>>>>>>",
"OOOO%%%%@%%%  %%  ++,,,,,,,,,,  =>>=:>>>>>>>>>>>",
"OOOO%%%%$%%%  %%  ++,,,,,,,,,,  >>>=:>>>>>>>>>>>",
"OOOO%%%%$%%%$%%%  ++,,    ++,,  >>>=:>>>>>>>>>>>",
"OOOO%%%%%%%%%%%%  ++,,    ++,,  >>>=:>>>>>>>>>>>",
"OOOO%%%%%%%%%%%%      >>      >>>>:->>>>>>>>%%%%",
"OOOO%%%%%%%$@$%%      >>      >>>-:>>>>>>>>>%%%%",
"OOOO%%%%%%%%$$%%=>>>>>>>>>>>>>>>>:>>>>>>>>>>%%%%",
"OOOO%%%%%%%%%%%%>>>>>>>>>>>>>>>-->>>>>>>>>>>%%%%",
"OOOO%%%%%%%%%%%%>>>>%%%%>>>>>>>->>>>>>>>>>>>>>>>",
"OOOO%%%%%%%%%%%$====$$%%======->>>>>>>>>>>>>>>>>",
"OOOO%%%%%%%%%%%%>:::%%%%>::::>>>>>>>>>>>>>>>>>>>",
"OOOO%%%%%%%%%%%%>>>>%%%%>>>>>>>>>>>>>>>>>>>>>>>>"
};
