/* XPM */
static char *_f6ab94098ca45058b50e68ced328029UiD6ULuzUIpVnrFy[] = {
/* columns rows colors chars-per-pixel */
"48 48 10 1 ",
"  c #4A3B1F",
". c #78A158",
"X c #E5AB3D",
"o c #A4C263",
"O c #C0D470",
"+ c #FDC760",
"@ c #2379EA",
"# c #D8B78F",
"$ c #FFD7A8",
"% c white",
/* pixels */
"OOOOOOOOOOOOOOOOOOOOOOOOOOOOOOOOOOOOOOOOOOOOOOOO",
"OOOOOOOOOOOOOOOOOOOOOOOOOOOOOOOOOOOOOOOOOOOOOOOO",
"OOOOOOOOOOOOOOOOOOOOOOOOOOOOOOOOOOOOOOOOOOOOOOOO",
"OOOOOOOOOOOOOOOOOOOOOOOOOOOOOOOOOOOOOOOOOOOOOOOO",
"OOOOOOOOOOOOOOOOOOOOOOOOOOOOOOOOOOOOOOOOOOOOOOOO",
"OOOOOOOOOOOOOOOOOOOOOOOOOOOOOOOOOOOOOOOOOOOOOOOO",
"OOOOOOOOOOOOOOOOOOOOOOOOOOOOOOOOOOOOOOOOOOOOOOOO",
"OOOOOOOOOOOOOOOOOOOOOOOOOOOOOOOOOOOOOOOOOOOOOOOO",
"OOOOOOOOOOOO                        OOOOOOOOOOOO",
"OOOOOOOOOOOO                        OOOOOOOOOOOO",
"OOOOOOOOOO    XXXXXXXX++++++++++++++  OOOOOOOOOO",
"OOOOOOOOOO    XXXXXXXX++++++++++++++  OOOOOOOOOO",
"OOOOOOOO  @@  XXXXXXXXXX++++XXXXXX++  OOOOOOOOOO",
"OOOOOOOO  @@  XXXXXXXXXX++++XXXXXX++  OOOOOOOOOO",
"OOOOOOOO  @@  XX%%%%%%XX++  ++++++    OOOOOOOOOO",
"OOOOOOOO  @@  XX%%%%%%XX++  ++++++    OOOOOOOOOO",
"ooooOOOO      XX%%  %%XX++++++++++++  OOooooOOOO",
"ooooOOOO      XX%%  %%XX++++++++++++  OOooooOOOO",
"ooooOOOOOO  @@  %%%%%%XX++++++++++++  OOooooOOOO",
"ooooOOOOOO  @@  %%%%%%XX++++++++++++  OOooooOOOO",
"OOOOOOOOOO  @@  XXXXXXXX++++++++++++  OOOOOOOOOO",
"OOOOOOOOOO  @@  XXXXXXXX++++++++++++  OOOOOOOOOO",
"OOOOOOOOOO      XXXXXXXXXX++          OOOOOOOOOO",
"OOOOOOOOOO      XXXXXXXXXX++          OOOOOOOOOO",
"OOOOOOOOOOOOOO    XXXX++++++++  OOOOOOOOOOOOOOOO",
"OOOOOOOOOOOOOO    XXXX++++++++  OOOOOOOOOOOOOOOO",
"OOOOOOOOOOOOOOOO  XX##$$$$$$$$  OOOOOOOOOOOOOOOO",
"OOOOOOOOOOOOOOOO  XX##$$$$$$$$  OOOOOOOOOOOOOOOO",
"OOOOooooOOOO      XX##$$$$$$$$  ooooOOOOOOOOoooo",
"OOOOooooOOOO      XX##$$$$$$$$  ooooOOOOOOOOoooo",
"OOOOooooOOOO  ++++XX##$$$$$$$$  ooooOOOOOOOOoooo",
"OOOOooooOOOO  ++++XX##$$$$$$$$  ooooOOOOOOOOoooo",
"oooooooooooo    XXXXXX++####++  oooooooooooooooo",
"oooooooooooo    XXXXXX++####++  oooooooooooooooo",
"oooooooooooooo    XX++++++++++  oooooooooooooooo",
"oooooooooooooo    XX++++++++++  oooooooooooooooo",
"oooooooooooooooo  XX++    XX++  oooooooooooooooo",
"oooooooooooooooo  XX++    XX++  oooooooooooooooo",
"oooooooooooooooo  XX  oo  XX  oooooooooooooooooo",
"oooooooooooooooo  XX  oo  XX  oooooooooooooooooo",
"............oooo    oooo    oooo............oooo",
"............oooo    oooo    oooo............oooo",
"............oooooooooooooooooooo............oooo",
"............oooooooooooooooooooo............oooo",
"................................................",
"................................................",
"................................................",
"................................................"
};
