/* XPM */
static char *_25f1c4495a44d9da39d2b3e3bf8669f6MOO65keLs2OEMwR[] = {
/* columns rows colors chars-per-pixel */
"48 48 23 1 ",
"  c #4A3B1F",
". c #779F57",
"X c #77A057",
"o c #78A057",
"O c #78A158",
"+ c #E5AB3D",
"@ c #A2BF61",
"# c #E7AE41",
"$ c #A3C062",
"% c #A4C263",
"& c #BACE6D",
"* c #BCCF6D",
"= c #BED26F",
"- c #BFD370",
"; c #FFC95E",
": c #C0D370",
"> c #C0D470",
", c #FDC760",
"< c #FDC863",
"1 c #2379EA",
"2 c #D8B78F",
"3 c #FFD7A8",
"4 c white",
/* pixels */
">>>>>>>>>>>>>>>>>>>>>>>>>>>>>>>>>>>>>>>>>>>>>>>>",
">>>>>>>>>>>>>>>>>>>>>>>>>>>>>>>>>>>>>>>>>>>>>>>>",
">>>>>>>>>>>>>>>>>>>>>>>>>>>>>>>>>>>>>>>>>>>>>>>>",
">>>>>>>>>>>>-::::::::::::::::::::::->>>>>>>>>>>>",
">>>>>>>>>>>-========================->>>>>>>>>>>",
">>>>>>>>>>>>>>>>>>>>>>>>>>>>>>>>>>>>>>>>>>>>>>>>",
">>>>>>>>>:=>>>>>>>>>>>>>>>>>>>>>>>>>>=->>>>>>>>>",
">>>>>>>>=>>>>>>>>>>>>>>>>>>>>>>>>>>>>>>:>>>>>>>>",
">>>>>>>=*>>>                        >>>>:>>>>>>>",
">>>>>>:>>>>=                        >>>>:->>>>>>",
">>>>>:=>>>    ++++++++,,,,,,,,,,,,,,  >>>=:>>>>>",
">>>>-:>>>&    ++++++++,,,,,,,,,,,,,,  >>>=:>>>>>",
">>>:=>>>  11  ++++++++++;,,,++++++,<  ->>=:>>>>>",
">>>:=>>>  11  ++++++++++,,,,++++++,,  >>>=:>>>>>",
">>>:=>>>  11  ++444444++,,  ,,,,,,    &>>=:>>>>>",
">>>:=>>=  11  ++444444++,,  ,,,,,,    =>>=:>>>>>",
"%%%%=>>>      ++44  44++,,,,,,,,,,,,  *>%$%%>>>>",
"%%%%=>>=      ++44  44++,,,,,,,,,,,,  *>%$%%>>>>",
"%%%%-:==>>  11  444444++,,,,,,,,,,,,  =>%$%%>>>>",
"%%%%>:=>>>  11  444444++,,,,,,,,,,,,  >>%$%%>>>>",
">>>>>:=>>=  11  ++++++++,,,,,,,,,,,,  =>>=:>>>>>",
">>>>>:=>>>  11  +++++++#,,,,,,,,,,,,  >>>=:>>>>>",
">>>>>:=>>>      ++++++++++,,          >>>=:>>>>>",
">>>>>:=>>>      ++++++++++,,          *>>=:>>>>>",
">>>>>>->>>->>=  ++++++,,,,,,,,  >>>>>>=>>->>>>>>",
">>>>>>>>>>>>>>  ++++++,,,,,,,,  >>>>>>>>>>>>>>>>",
">>>>>>>>>>>>>>>>  ++++,,,,,,,,  >>>>>>>>>>>>>>>>",
">>>>>>>>>>==&>>>  ++++,,,,,,,,  >>=&==->>>>>>>>>",
">>>>%%%%>>>==>>>  ++2233333333  %%%@=>>>>>>>%%%%",
">>>>%%%%>>:>>>>>  ++2233333333  %%%$:>>>>>>>%%%%",
">>>>%%%%>:=>>>  ,,++2233333333  %%%$:>>>>>>>%%%%",
">>>>%%%%-:=->>  ,,++2233333333  %%%$:>>>>>>>%%%%",
"%%%%%%%%$%%$  ,,++++2233333333  $%%$%%%%%%%%%%%%",
"%%%%%%%%@%%$  ,,++++2233333333  $%%$%%%%%%%%%%%%",
"%%%%%%%%$%%$    ++++++,,2222,,  $%%$%%%%%%%%%%%%",
"%%%%%%%%$%%%    ++++++,,2222,,  @%%$%%%%%%%%%%%%",
"%%%%%%%%@%%%  %%  ++,,,,,,,,,,  $%%$%%%%%%%%%%%%",
"%%%%%%%%$%%%  %%  ++,,,,,,,,,,  %%%$%%%%%%%%%%%%",
"%%%%%%%%$%%%$%%%  ++,,    ++,,  %%%@%%%%%%%%%%%%",
"%%%%%%%%%%%%%%%%  ++,,    ++,,  %%%$%%%%%%%%%%%%",
"OOOOOOOOOOOO%%%%      %%      %%OOOOOOOOOOOO%%%%",
"OOOOOOOOOOOX@$%%      %%      %%OOOOOOOOOOOO%%%%",
"OOOOOOOOOOOO$$%%$%%%%%%%%%%%%%%%OOOOOOOOOOOO%%%%",
"OOOOOOOOOOOO%%%%%%%%%%%%%%%%%%%$OOOOOOOOOOOO%%%%",
"OOOOOOOOOOOOOOOOOOOOOOOOOOOOOOOOOOOOOOOOOOOOOOOO",
"OOOOOOOOOOOOOOOO.....oOOo.....OOOOOOOOOOOOOOOOOO",
"OOOOOOOOOOOOOOOOOOOOOOOOOOOOOOOOOOOOOOOOOOOOOOOO",
"OOOOOOOOOOOOOOOOOOOOOOOOOOOOOOOOOOOOOOOOOOOOOOOO"
};
