/* XPM */
static char *_7f9d1a559ba4e88b349e7d0a6d0b123ibBGWUYRcKUh5Udl[] = {
/* columns rows colors chars-per-pixel */
"48 48 10 1 ",
"  c #4A3B1F",
". c #78A158",
"X c #E5AB3D",
"o c #A4C263",
"O c #C0D470",
"+ c #FDC760",
"@ c #2379EA",
"# c #D8B78F",
"$ c #FFD7A8",
"% c white",
/* pixels */
"................................................",
"................................................",
"................................................",
"................................................",
"oooooooooooo............oooooooooooooooooooo....",
"oooooooooooo............oooooooooooooooooooo....",
"oooooooooooo............oooooooooooooooooooo....",
"oooooooooooo............oooooooooooooooooooo....",
"oooooooooooooooooooooooooooooooooooooooooooooooo",
"oooooooooooooooooooooooooooooooooooooooooooooooo",
"oooooooooooo                        oooooooooooo",
"oooooooooooo                        oooooooooooo",
"OOOOoooooo    XXXXXXXX++++++++++++++  ooOOOOOOOO",
"OOOOoooooo    XXXXXXXX++++++++++++++  ooOOOOOOOO",
"OOOOoooo  @@  XXXXXXXXXX++++XXXXXX++  ooOOOOOOOO",
"OOOOoooo  @@  XXXXXXXXXX++++XXXXXX++  ooOOOOOOOO",
"OOOOOOOO  @@  XX%%%%%%XX++  ++++++    OOOOOOOOOO",
"OOOOOOOO  @@  XX%%%%%%XX++  ++++++    OOOOOOOOOO",
"OOOOOOOO      XX%%  %%XX++++++++++++  OOOOOOOOOO",
"OOOOOOOO      XX%%  %%XX++++++++++++  OOOOOOOOOO",
"OOOOOOOOOO  @@  %%%%%%XX++++++++++++  OOOOOOOOOO",
"OOOOOOOOOO  @@  %%%%%%XX++++++++++++  OOOOOOOOOO",
"OOOOOOOOOO  @@  XXXXXXXX++++++++++++  OOOOOOOOOO",
"OOOOOOOOOO  @@  XXXXXXXX++++++++++++  OOOOOOOOOO",
"OOOOOOOOOO      XXXXXXXXXX++          ooOOOOOOOO",
"OOOOOOOOOO      XXXXXXXXXX++          ooOOOOOOOO",
"OOOOOOOOOOOOOO    XXXX++++++++  OOOOooooOOOOOOOO",
"OOOOOOOOOOOOOO    XXXX++++++++  OOOOooooOOOOOOOO",
"OOOOOOOOOOOOoooo  XX##$$$$$$$$  OOOOOOOOOOOOOOOO",
"OOOOOOOOOOOOoooo  XX##$$$$$$$$  OOOOOOOOOOOOOOOO",
"OOOOOOOOOOOO      XX##$$$$$$$$  OOOOOOOOOOOOOOOO",
"OOOOOOOOOOOO      XX##$$$$$$$$  OOOOOOOOOOOOOOOO",
"OOOOOOOOoooo  ++++XX##$$$$$$$$  OOOOoooooooooooo",
"OOOOOOOOoooo  ++++XX##$$$$$$$$  OOOOoooooooooooo",
"OOOOOOOOoooo    XXXXXX++####++  OOOOoooooooooooo",
"OOOOOOOOoooo    XXXXXX++####++  OOOOoooooooooooo",
"oooooooooooooo    XX++++++++++  oooooooooooooooo",
"oooooooooooooo    XX++++++++++  oooooooooooooooo",
"oooooooooooooooo  XX++    XX++  oooooooooooooooo",
"oooooooooooooooo  XX++    XX++  oooooooooooooooo",
"oooooooo........      oo      oooooooooo........",
"oooooooo........      oo      oooooooooo........",
"oooooooo............oooooooooooooooooooo........",
"oooooooo............oooooooooooooooooooo........",
"................................................",
"................................................",
"................................................",
"................................................"
};
