/* XPM */
static char *af2b8c16239f490a9dc3101cdbe9b975pTDFDUyil1pdRNa0[] = {
/* columns rows colors chars-per-pixel */
"48 48 12 1 ",
"  c #4A3B1F",
". c #78A158",
"X c #E5AB3D",
"o c #A4C263",
"O c #C0D470",
"+ c #FDC760",
"@ c #2379EA",
"# c #D8B78F",
"$ c #B1E0BE",
"% c #FFD7A8",
"& c #9BD4C3",
"* c white",
/* pixels */
"........................$$$$$$$$&&&&&&&&&&&&&&&&",
"........................$$$$$$$$&&&&&&&&&&&&&&&&",
"........................$$$$$$$$&&&&&&&&&&&&&&&&",
"........................$$$$$$$$&&&&&&&&&&&&&&&&",
"oooooooooooo........................&&&&&&&&&&&&",
"oooooooooooo........................&&&&&&&&&&&&",
"oooooooooooo........................&&&&&&&&&&&&",
"oooooooooooo........................&&&&&&&&&&&&",
"oooooooooooo                        ....&&&&&&&&",
"oooooooooooo                        ....&&&&&&&&",
"oooooooooo    XXXXXXXX++++++++++++++  ..&&&&&&&&",
"oooooooooo    XXXXXXXX++++++++++++++  ..&&&&&&&&",
"OOOOOOOO  @@  XXXXXXXXXX++++XXXXXX++  ......&&&&",
"OOOOOOOO  @@  XXXXXXXXXX++++XXXXXX++  ......&&&&",
"OOOOOOOO  @@  XX******XX++  ++++++    ......&&&&",
"OOOOOOOO  @@  XX******XX++  ++++++    ......&&&&",
"ooooOOOO      XX**  **XX++++++++++++  oo........",
"ooooOOOO      XX**  **XX++++++++++++  oo........",
"ooooOOOOOO  @@  ******XX++++++++++++  oo........",
"ooooOOOOOO  @@  ******XX++++++++++++  oo........",
"OOOOOOOOOO  @@  XXXXXXXX++++++++++++  oo........",
"OOOOOOOOOO  @@  XXXXXXXX++++++++++++  oo........",
"OOOOOOOOOO      XXXXXXXXXX++          oo........",
"OOOOOOOOOO      XXXXXXXXXX++          oo........",
"OOOOOOOOOOOOOO    XXXX++++++++  oooooooo........",
"OOOOOOOOOOOOOO    XXXX++++++++  oooooooo........",
"OOOOOOOOOOOOOOOO  XX##%%%%%%%%  oooooooo........",
"OOOOOOOOOOOOOOOO  XX##%%%%%%%%  oooooooo........",
"OOOOOOOOOOOO      XX##%%%%%%%%  oooooooo........",
"OOOOOOOOOOOO      XX##%%%%%%%%  oooooooo........",
"OOOOOOOOOOOO  ++++XX##%%%%%%%%  oooooooo........",
"OOOOOOOOOOOO  ++++XX##%%%%%%%%  oooooooo........",
"ooooOOOOOOOO    XXXXXX++####++  oooo........&&&&",
"ooooOOOOOOOO    XXXXXX++####++  oooo........&&&&",
"ooooOOOOOOOOoo    XX++++++++++  oooo........&&&&",
"ooooOOOOOOOOoo    XX++++++++++  oooo........&&&&",
"oooooooooooooooo  XX++    XX++  ........&&&&&&&&",
"oooooooooooooooo  XX++    XX++  ........&&&&&&&&",
"oooooooooooooooo  XX  oo  XX  ..........&&&&&&&&",
"oooooooooooooooo  XX  oo  XX  ..........&&&&&&&&",
"........oooooooo    ....    ........&&&&&&&&$$$$",
"........oooooooo    ....    ........&&&&&&&&$$$$",
"........oooooooo....................&&&&&&&&$$$$",
"........oooooooo....................&&&&&&&&$$$$",
"........................$$$$$$$$&&&&&&&&&&&&&&&&",
"........................$$$$$$$$&&&&&&&&&&&&&&&&",
"........................$$$$$$$$&&&&&&&&&&&&&&&&",
"........................$$$$$$$$&&&&&&&&&&&&&&&&"
};
