/* XPM */
static char *_f37d76b95cd481db7a6a015b3966a1czyeqgaIaVwrAmIkj[] = {
/* columns rows colors chars-per-pixel */
"48 48 10 1 ",
"  c #4A3B1F",
". c #78A158",
"X c #E5AB3D",
"o c #A4C263",
"O c #C0D470",
"+ c #FDC760",
"@ c #2379EA",
"# c #D8B78F",
"$ c #FFD7A8",
"% c white",
/* pixels */
"....ooooooooOOOOOOOOOOOOOOOOOOOOOOOOoooooooo....",
"....ooooooooOOOOOOOOOOOOOOOOOOOOOOOOoooooooo....",
"....ooooooooOOOOOOOOOOOOOOOOOOOOOOOOoooooooo....",
"....ooooooooOOOOOOOOOOOOOOOOOOOOOOOOoooooooo....",
"....ooooooooOOOOOOOOOOOOOOOOOOOOOOOOoooooooo....",
"....ooooooooOOOOOOOOOOOOOOOOOOOOOOOOoooooooo....",
"....ooooooooOOOOOOOOOOOOOOOOOOOOOOOOoooooooo....",
"....ooooooooOOOOOOOOOOOOOOOOOOOOOOOOoooooooo....",
"....oooooooo                        oooooooo....",
"....oooooooo                        oooooooo....",
"....oooooo    XXXXXXXX++++++++++++++  oooooo....",
"....oooooo    XXXXXXXX++++++++++++++  oooooo....",
"........  @@  XXXXXXXXXX++++XXXXXX++  oo........",
"........  @@  XXXXXXXXXX++++XXXXXX++  oo........",
"........  @@  XX%%%%%%XX++  ++++++    oo........",
"........  @@  XX%%%%%%XX++  ++++++    oo........",
"........      XX%%  %%XX++++++++++++  oo........",
"........      XX%%  %%XX++++++++++++  oo........",
"........oo  @@  %%%%%%XX++++++++++++  oo........",
"........oo  @@  %%%%%%XX++++++++++++  oo........",
"........oo  @@  XXXXXXXX++++++++++++  oo........",
"........oo  @@  XXXXXXXX++++++++++++  oo........",
"........oo      XXXXXXXXXX++          oo........",
"........oo      XXXXXXXXXX++          oo........",
"....oooooooooo    XXXX++++++++  oooooooooooo....",
"....oooooooooo    XXXX++++++++  oooooooooooo....",
"....oooooooo  oo  XX##$$$$$$$$  oooooooooooo....",
"....oooooooo  oo  XX##$$$$$$$$  oooooooooooo....",
"....oooooooo      XX##$$$$$$$$  OOOOoooooooo....",
"....oooooooo      XX##$$$$$$$$  OOOOoooooooo....",
"....oooooooo  ++++XX##$$$$$$$$  OOOOoooooooo....",
"....oooooooo  ++++XX##$$$$$$$$  OOOOoooooooo....",
"....oooooooo    XXXXXX++####++  OOOOoooooooo....",
"....oooooooo    XXXXXX++####++  OOOOoooooooo....",
"....ooooooooOO    XX++++++++++  OOOOoooooooo....",
"....ooooooooOO    XX++++++++++  OOOOoooooooo....",
"....oooooooooooo  XX++    XX++  OOOOoooooooo....",
"....oooooooooooo  XX++    XX++  OOOOoooooooo....",
"....oooooooooooo  XX  OO  XX  OOOOOOoooooooo....",
"....oooooooooooo  XX  OO  XX  OOOOOOoooooooo....",
"........oooooooo    OOOO    OOOOoooooooooooo....",
"........oooooooo    OOOO    OOOOoooooooooooo....",
"........ooooooooOOOOOOOOOOOOOOOOoooooooooooo....",
"........ooooooooOOOOOOOOOOOOOOOOoooooooooooo....",
"........ooooooooooooOOOOOOOOOOOOoooooooooooo....",
"........ooooooooooooOOOOOOOOOOOOoooooooooooo....",
"........ooooooooooooOOOOOOOOOOOOoooooooooooo....",
"........ooooooooooooOOOOOOOOOOOOoooooooooooo...."
};
