/* XPM */
static char *_caf89c0624d4a39c93dd7efe034dfaeFs1nwByiHgq1wXbb[] = {
/* columns rows colors chars-per-pixel */
"48 48 24 1 ",
"  c #4A3B1F",
". c #769F57",
"X c #77A057",
"o c #78A057",
"O c #78A158",
"+ c #E5AB3D",
"@ c #9FBC61",
"# c #A1BE61",
"$ c #E7AE41",
"% c #A3C162",
"& c #A4C263",
"* c #BBCE6C",
"= c #BCCF6E",
"- c #BED16E",
"; c #BFD370",
": c #FFC95E",
"> c #C0D370",
", c #C0D470",
"< c #FDC760",
"1 c #FDC863",
"2 c #2379EA",
"3 c #D8B78F",
"4 c #FFD7A8",
"5 c white",
/* pixels */
"OOOO&&&&&&&&,,,,,,,,,,,,,,,,,,,,,,,,,,,,,,,,,,,,",
"OOOO&&&&&&&&,,,,,,,,,,,,,,,,,,,,,,,,,,,,,,,,,,,,",
"OOOO&&&&&&&&,,,,,,,,,,,,,,,,,,,,,,,,,,,,,,,,,,,,",
"OOOO&&&&&&&&;>>>>>>>>>>>>>>>>>>>>>>;,,,,,,,,,,,,",
"OOOOOOOO&&&%%%%%--------------------%&&&,,,,,,,,",
"OOOOOOOO&&&&&&&&,,,,,,,,,,,,,,,,,,,,&&&&,,,,,,,,",
"OOOOOOOO&&%&&&&&,,,,,,,,,,,,,,,,,,,,&%%&,,,,,,,,",
"OOOOOOOO%&&&&&&&,,,,,,,,,,,,,,,,,,,,&&&&,,,,,,,,",
"OOOOOOOo#&&&                        ,,,,>,,,,,,,",
"OOOOOOOO&&&%                        ,,,,>;,,,,,,",
"OOOOOOXO&&    ++++++++<<<<<<<<<<<<<<  ,,,->,,,,,",
"OOOOOOOO&@    ++++++++<<<<<<<<<<<<<<  ,,,->,,,,,",
"OOOOXOOO  22  ++++++++++:<<<++++++<1  ;,,->,,,,,",
"OOOO.OOO  22  ++++++++++<<<<++++++<<  ,,,->,,,,,",
"OOOO.OOO  22  ++555555++<<  <<<<<<    *,,->,,,,,",
"OOOO.OOO  22  ++555555++<<  <<<<<<    -,,->,,,,,",
"OOOO#&&&      ++55  55++<<<<<<<<<<<<  =,,->,,,,,",
"OOOO%&&%      ++55  55++<<<<<<<<<<<<  =,,->,,,,,",
"OOOO%&%%&&  22  555555++<<<<<<<<<<<<  -,,->,,,,,",
"OOOO&&%&&&  22  555555++<<<<<<<<<<<<  ,,,->,,,,,",
"OOOO&&%&&%  22  ++++++++<<<<<<<<<<<<  -,,->,,,,,",
"OOOO&&%&&&  22  +++++++$<<<<<<<<<<<<  ,,,->,,,,,",
"OOOO&&#&&&      ++++++++++<<          ,,,->,,,,,",
"OOOO&&%&&&      ++++++++++<<          =,,->,,,,,",
"OOOO&&%&&&&&,-  ++++++<<<<<<<<  ,,,,,,-,,;,,,,,,",
"OOOO&&&&&&&&,,  ++++++<<<<<<<<  ,,,,,,,,,,,,,,,,",
"OOOO&&&&&&&&,,,,  ++++<<<<<<<<  ,,,,,,,,,,,,,,,,",
"OOOO&&&&&&%#*,,,  ++++<<<<<<<<  ,,-*--;,,,,,,,,,",
"OOOO&&&&&&&%%&&&  ++3344444444  ,,>--,,,,,,,,,,,",
"OOOO&&&&&&&&&&&&  ++3344444444  ,,,->,,,,,,,,,,,",
"OOOO&&&&&&%&&&  <<++3344444444  ,,,->,,,,,,,,,,,",
"OOOO&&&&%&%%&&  <<++3344444444  ,,,->,,,,,,,,,,,",
"OOOOOOOO%&&%  <<++++3344444444  ;,,->,,,,,,,,,,,",
"OOOOOOOO#&&%  <<++++3344444444  ;,,->,,,,,,,,,,,",
"OOOOOOOO%&&%    ++++++<<3333<<  ;,,->,,,,,,,,,,,",
"OOOOOOOO%&&&    ++++++<<3333<<  -,,->,,,,,,,,,,,",
"OOOOOOOO#&&&  &&  ++<<<<<<<<<<  -,,->,,,,,,,,,,,",
"OOOOOOOO%&&&  &&  ++<<<<<<<<<<  ,,,->,,,,,,,,,,,",
"OOOOOOOO%&&&%&&&  ++<<    ++<<  ,,,->,,,,,,,,,,,",
"OOOOOOOO&&&&&&&&  ++<<    ++<<  ,,,->,,,,,,,,,,,",
"OOOO&&&&&&&&&&&&      ,,      &&,,>;,,,,,,,,,,,,",
"OOOO&&&&&&&%#%&&      ,,      &&,;>,,,,,,,,,,,,,",
"OOOO&&&&&&&&%%&&%&&&,,,,,,,,&&&&,>,,,,,,,,,,,,,,",
"OOOO&&&&&&&&&&&&&&&&,,,,,,,,&&&%;,,,,,,,,,,,,,,,",
"OOOO&&&&&&&&&&&&,,,,,,,,,,,,,,,;,,,,,,,,,,,,,,,,",
"OOOO&&&&&&&&&&&%------,,------;,,,,,,,,,,,,,,,,,",
"OOOO&&&&&&&&&&&&,>>>>,,,,>>>>,,,,,,,,,,,,,,,,,,,",
"OOOO&&&&&&&&&&&&,,,,,,,,,,,,,,,,,,,,,,,,,,,,,,,,"
};
