/* XPM */
static char *cdc5928ea50b499c9623c32a41f64082ucWn44vUc4aGzCfF[] = {
/* columns rows colors chars-per-pixel */
"48 48 23 1 ",
"  c #4A3B1F",
". c #779F57",
"X c #77A057",
"o c #78A158",
"O c #E5AB3D",
"+ c #9FBC61",
"@ c #A2BF61",
"# c #E7AE41",
"$ c #A3C062",
"% c #A4C263",
"& c #BBCE6C",
"* c #BCCF6E",
"= c #BFD36F",
"- c #BFD370",
"; c #FFC95E",
": c #C0D370",
"> c #C0D470",
", c #FDC760",
"< c #FDC863",
"1 c #2379EA",
"2 c #D8B78F",
"3 c #FFD7A8",
"4 c white",
/* pixels */
"oooooooooooooooooooooooooooooooooooooooooooooooo",
"oooooooooooooooooooooooooooooooooooooooooooooooo",
"oooooooooooooooooooooooooooooooooooooooooooooooo",
"oooooooooooooooooooooooooooooooooooooooooooooooo",
"%%%%oooooooo....$$$$$$$$$$$$$$$$$$$$oooooooo%%%%",
"%%%%oooooooooooo%%%%%%%%%%%%%%%%%%%%oooooooo%%%%",
"%%%%ooooooXooooo%%%%%%%%%%%%%%%%%%%%oXoooooo%%%%",
"%%%%ooooXooooooo%%%%%%%%%%%%%%%%%%%%oooooooo%%%%",
"%%%%%%%$@%%%                        %%%%%%%%%%%%",
"%%%%%%%%%%%$                        %%%%%$%%%%%%",
"%%%%%%$%%%    OOOOOOOO,,,,,,,,,,,,,,  %%%$%%%%%%",
"%%%%$%%%%+    OOOOOOOO,,,,,,,,,,,,,,  %%%@%%%%%%",
"%%%%$%%%  11  OOOOOOOOOO;,,,OOOOOO,<  %%%$%%%%%%",
"%%%%@%%%  11  OOOOOOOOOO,,,,OOOOOO,,  %%%$%%%%%%",
"%%%%$%%%  11  OO444444OO,,  ,,,,,,    @%%$%%%%%%",
"%%%%$%%$  11  OO444444OO,,  ,,,,,,    @%%$%%%%%%",
">>>:=>>>      OO44  44OO,,,,,,,,,,,,  *>>=:>>>>>",
">>>:=>>=      OO44  44OO,,,,,,,,,,,,  *>>=:>>>>>",
">>>>-:==%%  11  444444OO,,,,,,,,,,,,  =>>=:>>>>>",
">>>>>:=>%%  11  444444OO,,,,,,,,,,,,  >>>=:>>>>>",
"%%%%>:=>>=  11  OOOOOOOO,,,,,,,,,,,,  =>>=:>%%%%",
"%%%%>:=>>>  11  OOOOOOO#,,,,,,,,,,,,  >>>=:>%%%%",
"%%%%>:=>>>      OOOOOOOOOO,,          >>>=:>%%%%",
"%%%%>:=>>>      OOOOOOOOOO,,          *>>=:>%%%%",
">>>>>>->>>->>=  OOOOOO,,,,,,,,  >>>>>>=>>->>>>>>",
">>>>>>>>>>>>>>  OOOOOO,,,,,,,,  >>>>>>>>>>>>>>>>",
">>>>>>>>>>>>>>>>  OOOO,,,,,,,,  >>>>>>>>>>>>>>>>",
">>>>>>>>>>==&>>>  OOOO,,,,,,,,  >>=&==->>>>>>>>>",
">>>>>>>>>>>==>>>  OO2233333333  >>:==>>>>>>>>>>>",
">>>>>>>>>>:>>>>>  OO2233333333  >>>=:>>>>>>>>>>>",
">>>>>>>>>:=>>>  ,,OO2233333333  >>>=:>>>>>>>>>>>",
">>>>>>>>-:=->>  ,,OO2233333333  >>>=:>>>>>>>>>>>",
">>>>>>>:=>>=  ,,OOOO2233333333  ->>=:>>>>>>>>>>>",
">>>>>>>:=>>=  ,,OOOO2233333333  ->>=:>>>>>>>>>>>",
">>>>>>>:=>>=    OOOOOO,,2222,,  ->>=:>>>>>>>>>>>",
">>>>>>>:=>>>    OOOOOO,,2222,,  =>>=:>>>>>>>>>>>",
">>>>>>>:=>>>  >>  OO,,,,,,,,,,  =>>=:>>>>>>>>>>>",
">>>>>>>:=>>>  >>  OO,,,,,,,,,,  >>>=:>>>>>>>>>>>",
">>>>>>>>->>>=->>  OO,,    OO,,  >>>=:>>>>>>>>>>>",
">>>>>>>>>>>>>>>>  OO,,    OO,,  >>>=:>>>>>>>>>>>",
">>>>>>>>>>>>>>>>      >>      >>>>:->>>>>>>>>>>>",
">>>>>>>>>>>=*=>>      >>      >>>-:>>>>>>>>>>>>>",
">>>>>>>>>>>>=->-=>>>>>>>>>>>>>>>>:>>>>>>>>>>>>>>",
">>>>>>>>>>>>>>>>>>>>>>>>>>>>>>>-->>>>>>>>>>>>>>>",
">>>>>>>>>>>>>>>>>>>>>>>>>>>>>>>->>>>>>>>>>>>>>>>",
">>>>>>>>>>>>>>>-======>>======->>>>>>>>>>>>>>>>>",
">>>>>>>>>>>>>>>>>::::>>>>::::>>>>>>>>>>>>>>>>>>>",
">>>>>>>>>>>>>>>>>>>>>>>>>>>>>>>>>>>>>>>>>>>>>>>>"
};
