/* XPM */
static char *_f5d90617ae84511a8c2581009f9a923XxTaeaIt6xmkYBuS[] = {
/* columns rows colors chars-per-pixel */
"48 48 10 1 ",
"  c #4A3B1F",
". c #78A158",
"X c #E5AB3D",
"o c #A4C263",
"O c #C0D470",
"+ c #FDC760",
"@ c #2379EA",
"# c #D8B78F",
"$ c #FFD7A8",
"% c white",
/* pixels */
"....ooooooooOOOOOOOOOOOOOOOOOOOOOOOOOOOOOOOOOOOO",
"....ooooooooOOOOOOOOOOOOOOOOOOOOOOOOOOOOOOOOOOOO",
"....ooooooooOOOOOOOOOOOOOOOOOOOOOOOOOOOOOOOOOOOO",
"....ooooooooOOOOOOOOOOOOOOOOOOOOOOOOOOOOOOOOOOOO",
"........ooooooooOOOOOOOOOOOOOOOOOOOOooooOOOOOOOO",
"........ooooooooOOOOOOOOOOOOOOOOOOOOooooOOOOOOOO",
"........ooooooooOOOOOOOOOOOOOOOOOOOOooooOOOOOOOO",
"........ooooooooOOOOOOOOOOOOOOOOOOOOooooOOOOOOOO",
"........oooo                        OOOOOOOOOOOO",
"........oooo                        OOOOOOOOOOOO",
"........oo    XXXXXXXX++++++++++++++  OOOOOOOOOO",
"........oo    XXXXXXXX++++++++++++++  OOOOOOOOOO",
"........  @@  XXXXXXXXXX++++XXXXXX++  OOOOOOOOOO",
"........  @@  XXXXXXXXXX++++XXXXXX++  OOOOOOOOOO",
"........  @@  XX%%%%%%XX++  ++++++    OOOOOOOOOO",
"........  @@  XX%%%%%%XX++  ++++++    OOOOOOOOOO",
"....oooo      XX%%  %%XX++++++++++++  OOOOOOOOOO",
"....oooo      XX%%  %%XX++++++++++++  OOOOOOOOOO",
"....oooooo  @@  %%%%%%XX++++++++++++  OOOOOOOOOO",
"....oooooo  @@  %%%%%%XX++++++++++++  OOOOOOOOOO",
"....oooooo  @@  XXXXXXXX++++++++++++  OOOOOOOOOO",
"....oooooo  @@  XXXXXXXX++++++++++++  OOOOOOOOOO",
"....oooooo      XXXXXXXXXX++          OOOOOOOOOO",
"....oooooo      XXXXXXXXXX++          OOOOOOOOOO",
"....ooooooooOO    XXXX++++++++  OOOOOOOOOOOOOOOO",
"....ooooooooOO    XXXX++++++++  OOOOOOOOOOOOOOOO",
"....ooooooooOOOO  XX##$$$$$$$$  OOOOOOOOOOOOOOOO",
"....ooooooooOOOO  XX##$$$$$$$$  OOOOOOOOOOOOOOOO",
"....oooooooo      XX##$$$$$$$$  OOOOOOOOOOOOOOOO",
"....oooooooo      XX##$$$$$$$$  OOOOOOOOOOOOOOOO",
"....oooooooo  ++++XX##$$$$$$$$  OOOOOOOOOOOOOOOO",
"....oooooooo  ++++XX##$$$$$$$$  OOOOOOOOOOOOOOOO",
"........oooo    XXXXXX++####++  OOOOOOOOOOOOOOOO",
"........oooo    XXXXXX++####++  OOOOOOOOOOOOOOOO",
"........oooooo    XX++++++++++  OOOOOOOOOOOOOOOO",
"........oooooo    XX++++++++++  OOOOOOOOOOOOOOOO",
"........oooooooo  XX++    XX++  OOOOOOOOOOOOOOOO",
"........oooooooo  XX++    XX++  OOOOOOOOOOOOOOOO",
"........oooooooo  XX  OO  XX  OOOOOOOOOOOOOOOOOO",
"........oooooooo  XX  OO  XX  OOOOOOOOOOOOOOOOOO",
"....oooooooooooo    OOOO    ooooOOOOOOOOOOOOOOOO",
"....oooooooooooo    OOOO    ooooOOOOOOOOOOOOOOOO",
"....ooooooooooooooooOOOOOOOOooooOOOOOOOOOOOOOOOO",
"....ooooooooooooooooOOOOOOOOooooOOOOOOOOOOOOOOOO",
"....ooooooooooooOOOOOOOOOOOOOOOOOOOOOOOOOOOOOOOO",
"....ooooooooooooOOOOOOOOOOOOOOOOOOOOOOOOOOOOOOOO",
"....ooooooooooooOOOOOOOOOOOOOOOOOOOOOOOOOOOOOOOO",
"....ooooooooooooOOOOOOOOOOOOOOOOOOOOOOOOOOOOOOOO"
};
