/* XPM */
static char *_b6a2b5922754b38f97fb734870d49fdiftyp4CuzUremyT3[] = {
/* columns rows colors chars-per-pixel */
"48 48 12 1 ",
"  c #4A3B1F",
". c #78A158",
"X c #E5AB3D",
"o c #A4C263",
"O c #C0D470",
"+ c #FDC760",
"@ c #2379EA",
"# c #D8B78F",
"$ c #B1E0BE",
"% c #FFD7A8",
"& c #9BD4C3",
"* c white",
/* pixels */
"&&&&&&&&&&&&&&&&&&&&$$$$........................",
"&&&&&&&&&&&&&&&&&&&&$$$$........................",
"&&&&&&&&&&&&&&&&&&&&$$$$........................",
"&&&&&&&&&&&&&&&&&&&&$$$$........................",
"&&&&&&&&&&&&........................oooooooooooo",
"&&&&&&&&&&&&........................oooooooooooo",
"&&&&&&&&&&&&........................oooooooooooo",
"&&&&&&&&&&&&........................oooooooooooo",
"&&&&&&&&........oooooooooooooooooooooooooooooooo",
"&&&&&&&&........oooooooooooooooooooooooooooooooo",
"&&&&&&&&....                        oooooooooooo",
"&&&&&&&&....                        oooooooooooo",
"$$$$......    XXXXXXXX++++++++++++++  ooOOOOOOOO",
"$$$$......    XXXXXXXX++++++++++++++  ooOOOOOOOO",
"$$$$....  @@  XXXXXXXXXX++++XXXXXX++  ooOOOOOOOO",
"$$$$....  @@  XXXXXXXXXX++++XXXXXX++  ooOOOOOOOO",
"........  @@  XX******XX++  ++++++    OOOOOOoooo",
"........  @@  XX******XX++  ++++++    OOOOOOoooo",
"........      XX**  **XX++++++++++++  OOOOOOoooo",
"........      XX**  **XX++++++++++++  OOOOOOoooo",
"........oo  @@  ******XX++++++++++++  OOOOOOOOOO",
"........oo  @@  ******XX++++++++++++  OOOOOOOOOO",
"........oo  @@  XXXXXXXX++++++++++++  OOOOOOOOOO",
"........oo  @@  XXXXXXXX++++++++++++  OOOOOOOOOO",
"........oo      XXXXXXXXXX++          OOOOOOOOOO",
"........oo      XXXXXXXXXX++          OOOOOOOOOO",
"........oooooo    XXXX++++++++  OOOOOOOOOOOOOOOO",
"........oooooo    XXXX++++++++  OOOOOOOOOOOOOOOO",
"........oooooooo  XX##%%%%%%%%  ooooOOOOOOOOOOOO",
"........oooooooo  XX##%%%%%%%%  ooooOOOOOOOOOOOO",
"........oooo      XX##%%%%%%%%  ooooOOOOOOOOOOOO",
"........oooo      XX##%%%%%%%%  ooooOOOOOOOOOOOO",
"&&&&........  ++++XX##%%%%%%%%  ooooooooooooOOOO",
"&&&&........  ++++XX##%%%%%%%%  ooooooooooooOOOO",
"&&&&........    XXXXXX++####++  ooooooooooooOOOO",
"&&&&........    XXXXXX++####++  ooooooooooooOOOO",
"&&&&&&&&......    XX++++++++++  oooooooooooooooo",
"&&&&&&&&......    XX++++++++++  oooooooooooooooo",
"&&&&&&&&........  XX++    XX++  oooooooooooooooo",
"&&&&&&&&........  XX++    XX++  oooooooooooooooo",
"&&&&&&&&&&&&....      ..      ......oooo........",
"&&&&&&&&&&&&....      ..      ......oooo........",
"&&&&&&&&&&&&........................oooo........",
"&&&&&&&&&&&&........................oooo........",
"&&&&&&&&&&&&&&&&&&&&$$$$........................",
"&&&&&&&&&&&&&&&&&&&&$$$$........................",
"&&&&&&&&&&&&&&&&&&&&$$$$........................",
"&&&&&&&&&&&&&&&&&&&&$$$$........................"
};
