/* XPM */
static char *_a89078403bc4efef536e5efcd2387c6OfRfDoFyY7czkGZ2[] = {
/* columns rows colors chars-per-pixel */
"48 48 12 1 ",
"  c #4A3B1F",
". c #78A158",
"X c #E5AB3D",
"o c #A4C263",
"O c #C0D470",
"+ c #FDC760",
"@ c #2379EA",
"# c #D8B78F",
"$ c #B1E0BE",
"% c #FFD7A8",
"& c #9BD4C3",
"* c white",
/* pixels */
"&&&&&&&&&&&&&&&&............$$$$&&&&&&&&&&&&&&&&",
"&&&&&&&&&&&&&&&&............$$$$&&&&&&&&&&&&&&&&",
"&&&&&&&&&&&&&&&&............$$$$&&&&&&&&&&&&&&&&",
"&&&&&&&&&&&&&&&&............$$$$&&&&&&&&&&&&&&&&",
"&&&&&&&&&&&&........................&&&&&&&&&&&&",
"&&&&&&&&&&&&........................&&&&&&&&&&&&",
"&&&&&&&&&&&&........................&&&&&&&&&&&&",
"&&&&&&&&&&&&........................&&&&&&&&&&&&",
"&&&&&&&&........oooooooooooo............&&&&&&&&",
"&&&&&&&&........oooooooooooo............&&&&&&&&",
"&&&&&&&&....                        ....&&&&&&&&",
"&&&&&&&&....                        ....&&&&&&&&",
"$$$$......    XXXXXXXX++++++++++++++  ......&&&&",
"$$$$......    XXXXXXXX++++++++++++++  ......&&&&",
"$$$$....  @@  XXXXXXXXXX++++XXXXXX++  ......&&&&",
"$$$$....  @@  XXXXXXXXXX++++XXXXXX++  ......&&&&",
"&&&&....  @@  XX******XX++  ++++++    ......&&&&",
"&&&&....  @@  XX******XX++  ++++++    ......&&&&",
"&&&&....      XX**  **XX++++++++++++  ......&&&&",
"&&&&....      XX**  **XX++++++++++++  ......&&&&",
"&&&&......  @@  ******XX++++++++++++  ......&&&&",
"&&&&......  @@  ******XX++++++++++++  ......&&&&",
"&&&&......  @@  XXXXXXXX++++++++++++  ......&&&&",
"&&&&......  @@  XXXXXXXX++++++++++++  ......&&&&",
"..........      XXXXXXXXXX++          oo........",
"..........      XXXXXXXXXX++          oo........",
"............oo    XXXX++++++++  oooooooo........",
"............oo    XXXX++++++++  oooooooo........",
"........oooooooo  XX##%%%%%%%%  oooooooo........",
"........oooooooo  XX##%%%%%%%%  oooooooo........",
"........oooo      XX##%%%%%%%%  oooooooo........",
"........oooo      XX##%%%%%%%%  oooooooo........",
"........oooo  ++++XX##%%%%%%%%  oooooooooooo....",
"........oooo  ++++XX##%%%%%%%%  oooooooooooo....",
"........oooo    XXXXXX++####++  oooooooooooo....",
"........oooo    XXXXXX++####++  oooooooooooo....",
"....oooooooooo    XX++++++++++  oooooooooooo....",
"....oooooooooo    XX++++++++++  oooooooooooo....",
"....oooooooooooo  XX++    XX++  oooooooooooo....",
"....oooooooooooo  XX++    XX++  oooooooooooo....",
"....oooooooooooo      oo      OOOOOOoooo........",
"....oooooooooooo      oo      OOOOOOoooo........",
"....ooooooooooooOOOOooooOOOOOOOOOOOOoooo........",
"....ooooooooooooOOOOooooOOOOOOOOOOOOoooo........",
"....ooooooooooooOOOOOOOOOOOOOOOOOOOOoooo........",
"....ooooooooooooOOOOOOOOOOOOOOOOOOOOoooo........",
"....ooooooooooooOOOOOOOOOOOOOOOOOOOOoooo........",
"....ooooooooooooOOOOOOOOOOOOOOOOOOOOoooo........"
};
