/* XPM */
static char *_65ad9b172be412ec0dfadf36a3fb556t8TMplc5S0MLwzPA[] = {
/* columns rows colors chars-per-pixel */
"48 48 10 1 ",
"  c #4A3B1F",
". c #78A158",
"X c #E5AB3D",
"o c #A4C263",
"O c #C0D470",
"+ c #FDC760",
"@ c #2379EA",
"# c #D8B78F",
"$ c #FFD7A8",
"% c white",
/* pixels */
"OOOOOOOOOOOOOOOOOOOOOOOOOOOOoooooooooooo........",
"OOOOOOOOOOOOOOOOOOOOOOOOOOOOoooooooooooo........",
"OOOOOOOOOOOOOOOOOOOOOOOOOOOOoooooooooooo........",
"OOOOOOOOOOOOOOOOOOOOOOOOOOOOoooooooooooo........",
"OOOOOOOOOOOOOOOOOOOOOOOOOOOOOOOOoooooooo........",
"OOOOOOOOOOOOOOOOOOOOOOOOOOOOOOOOoooooooo........",
"OOOOOOOOOOOOOOOOOOOOOOOOOOOOOOOOoooooooo........",
"OOOOOOOOOOOOOOOOOOOOOOOOOOOOOOOOoooooooo........",
"OOOOOOOOOOOO                        oooo........",
"OOOOOOOOOOOO                        oooo........",
"OOOOOOOOOO    XXXXXXXX++++++++++++++  oo........",
"OOOOOOOOOO    XXXXXXXX++++++++++++++  oo........",
"OOOOOOOO  @@  XXXXXXXXXX++++XXXXXX++  oooooo....",
"OOOOOOOO  @@  XXXXXXXXXX++++XXXXXX++  oooooo....",
"OOOOOOOO  @@  XX%%%%%%XX++  ++++++    oooooo....",
"OOOOOOOO  @@  XX%%%%%%XX++  ++++++    oooooo....",
"OOOOOOOO      XX%%  %%XX++++++++++++  oooooo....",
"OOOOOOOO      XX%%  %%XX++++++++++++  oooooo....",
"OOOOOOOOOO  @@  %%%%%%XX++++++++++++  oooooo....",
"OOOOOOOOOO  @@  %%%%%%XX++++++++++++  oooooo....",
"OOOOOOOOOO  @@  XXXXXXXX++++++++++++  oooooo....",
"OOOOOOOOOO  @@  XXXXXXXX++++++++++++  oooooo....",
"OOOOOOOOOO      XXXXXXXXXX++          oooooo....",
"OOOOOOOOOO      XXXXXXXXXX++          oooooo....",
"OOOOOOOOOOOOOO    XXXX++++++++  oooooooooooo....",
"OOOOOOOOOOOOOO    XXXX++++++++  oooooooooooo....",
"OOOOOOOOOOOO  OO  XX##$$$$$$$$  oooooooooooo....",
"OOOOOOOOOOOO  OO  XX##$$$$$$$$  oooooooooooo....",
"OOOOOOOOOOOO      XX##$$$$$$$$  oooooooooooo....",
"OOOOOOOOOOOO      XX##$$$$$$$$  oooooooooooo....",
"OOOOOOOOOOOO  ++++XX##$$$$$$$$  oooooooooooo....",
"OOOOOOOOOOOO  ++++XX##$$$$$$$$  oooooooooooo....",
"OOOOOOOOoooo    XXXXXX++####++  oooooooooooo....",
"OOOOOOOOoooo    XXXXXX++####++  oooooooooooo....",
"OOOOOOOOooooOO    XX++++++++++  oooooooooooo....",
"OOOOOOOOooooOO    XX++++++++++  oooooooooooo....",
"OOOOOOOOOOOOOOOO  XX++    XX++  oooooooo........",
"OOOOOOOOOOOOOOOO  XX++    XX++  oooooooo........",
"OOOOOOOOOOOOOOOO  XX  OO  XX  OOoooooooo........",
"OOOOOOOOOOOOOOOO  XX  OO  XX  OOoooooooo........",
"OOOOOOOOOOOOOOOO    oooo    OOOOOOOOoooo........",
"OOOOOOOOOOOOOOOO    oooo    OOOOOOOOoooo........",
"OOOOOOOOOOOOOOOOOOOOooooOOOOOOOOOOOOoooo........",
"OOOOOOOOOOOOOOOOOOOOooooOOOOOOOOOOOOoooo........",
"OOOOOOOOOOOOOOOOOOOOOOOOOOOOOOOOOOOOoooooooo....",
"OOOOOOOOOOOOOOOOOOOOOOOOOOOOOOOOOOOOoooooooo....",
"OOOOOOOOOOOOOOOOOOOOOOOOOOOOOOOOOOOOoooooooo....",
"OOOOOOOOOOOOOOOOOOOOOOOOOOOOOOOOOOOOoooooooo...."
};
