/* XPM */
static char *_56e589179894afea0292efb3637911fITgJBupRdD2jebE2[] = {
/* columns rows colors chars-per-pixel */
"48 48 27 1 ",
"  c #4A3B1F",
". c #779F57",
"X c #77A057",
"o c #78A158",
"O c #E5AB3D",
"+ c #9FBC61",
"@ c #A2BF61",
"# c #E7AE41",
"$ c #A3C062",
"% c #A4C263",
"& c #BBCE6C",
"* c #BCCF6E",
"= c #BFD36F",
"- c #BFD370",
"; c #FEC95E",
": c #C0D370",
"> c #C0D470",
", c #FDC760",
"< c #FDC863",
"1 c #2379EA",
"2 c #D8B78F",
"3 c #B1DFBD",
"4 c #B1E0BE",
"5 c #FFD7A8",
"6 c #9BD3C2",
"7 c #9BD4C3",
"8 c white",
/* pixels */
"oooooooooooooooooooooooo444444447777777777777777",
"oooooooooooooooooooooooo444444447777777777777777",
"oooooooooooooooooooooooo444444447777777777777777",
"oooooooooooooooooooooooo333333336666777777777777",
"%%%%%%%%%%%$........................677777777777",
"%%%%%%%%%%%%oooooooooooooooooooooooo777777777777",
"%%%%%%%%%%$%oooooooooooooooooooooooo766777777777",
"%%%%%%%%$%%%oooooooooooooooooooooooo777677777777",
"%%%%%%%$@%%%                        oooo67777777",
"%%%%%%%%%%%$                        oooo66777777",
"%%%%%%$%%%    OOOOOOOO,,,,,,,,,,,,,,  oo76677777",
"%%%%$%%%%+    OOOOOOOO,,,,,,,,,,,,,,  oo76677777",
"%%%%$%%%  11  OOOOOOOOOO;,,,OOOOOO,<  ooo.oo7777",
"%%%%@%%%  11  OOOOOOOOOO,,,,OOOOOO,,  ooo.oo7777",
"%%%%$%%%  11  OO888888OO,,  ,,,,,,    .oo.oo7777",
"%%%%$%%$  11  OO888888OO,,  ,,,,,,    .oo.oo7777",
"%%%%=>>>      OO88  88OO,,,,,,,,,,,,  .oo.oo7777",
"%%%%=>>=      OO88  88OO,,,,,,,,,,,,  .oo.oo7777",
"%%%%-:==%%  11  888888OO,,,,,,,,,,,,  .oo.oo7777",
"%%%%>:=>%%  11  888888OO,,,,,,,,,,,,  ooo.oo7777",
">>>>>:=>>=  11  OOOOOOOO,,,,,,,,,,,,  Xoo.oo7777",
">>>>>:=>>>  11  OOOOOOO#,,,,,,,,,,,,  ooo.oo7777",
">>>>>:=>>>      OOOOOOOOOO,,          ooo.oo7777",
">>>>>:=>>>      OOOOOOOOOO,,          .ooXoo7777",
">>>>>>->>>->>=  OOOOOO,,,,,,,,  %%%%%%$%oooooooo",
">>>>>>>>>>>>>>  OOOOOO,,,,,,,,  %%%%%%%%oooooooo",
">>>>>>>>>>>>>>>>  OOOO,,,,,,,,  %%%%%%%%oooooooo",
">>>>>>>>>>==&>>>  OOOO,,,,,,,,  %%$@@$$%oooooooo",
">>>>>>>>>>>==>>>  OO2255555555  %%%@%%%%oooooooo",
">>>>>>>>>>:>>>>>  OO2255555555  %%%$%%%%oooooooo",
">>>>>>>>>:=>>>  ,,OO2255555555  %%%$%%%%oooooooo",
">>>>>>>>-:=->>  ,,OO2255555555  %%%$%%%%oooooooo",
"%%%%>>>:=>>=  ,,OOOO2255555555  $%%$%%%%%%%%oooo",
"%%%%>>>:=>>=  ,,OOOO2255555555  $%%$%%%%%%%%oooo",
"%%%%>>>:=>>=    OOOOOO,,2222,,  $%%$%%%%%%%%oooo",
"%%%%>>>:=>>>    OOOOOO,,2222,,  @%%$%%%%%%%%oooo",
">>>>>>>:=>>>  >>  OO,,,,,,,,,,  $%%$%%%%%%%%oooo",
">>>>>>>:=>>>  >>  OO,,,,,,,,,,  %%%$%%%%%%%%oooo",
">>>>>>>>->>>=->>  OO,,    OO,,  %%%@%%%%%%%%oooo",
">>>>>>>>>>>>>>>>  OO,,    OO,,  %%%$%%%%%%%%oooo",
">>>>>>>>>>>>>>>>      >>      >>>>:-%%%%oooooooo",
">>>>>>>>>>>=*=>>      >>      >>>-:>%%%%oooooooo",
">>>>>>>>>>>>=->-=>>>>>>>>>>>>>>>>:>>%%%%oooooooo",
">>>>>>>>>>>>>>>>>>>>>>>>>>>>>>>-->>>%%%%oooooooo",
">>>>>>>>>>>>>>>>>>>>>>>>>>>>>>>-%%%%%%%%oooooooo",
">>>>>>>>>>>>>>>-======>>======->%%%%%%%%oooooooo",
">>>>>>>>>>>>>>>>>::::>>>>::::>>>%%%%%%%%oooooooo",
">>>>>>>>>>>>>>>>>>>>>>>>>>>>>>>>%%%%%%%%oooooooo"
};
