/* XPM */
static char *c84dc467859e4999a3410cd7eb5c708dbD0SYg4koVSdMr4A[] = {
/* columns rows colors chars-per-pixel */
"48 48 12 1 ",
"  c #4A3B1F",
". c #78A158",
"X c #E5AB3D",
"o c #A4C263",
"O c #C0D470",
"+ c #FDC760",
"@ c #2379EA",
"# c #D8B78F",
"$ c #B1E0BE",
"% c #FFD7A8",
"& c #9BD4C3",
"* c white",
/* pixels */
"........ooooOOOOOOOOOOOOOOOOOOOOoooooooooooo....",
"........ooooOOOOOOOOOOOOOOOOOOOOoooooooooooo....",
"........ooooOOOOOOOOOOOOOOOOOOOOoooooooooooo....",
"........ooooOOOOOOOOOOOOOOOOOOOOoooooooooooo....",
"........ooooOOOOOOOOooooOOOOOOOOoooooooooooo....",
"........ooooOOOOOOOOooooOOOOOOOOoooooooooooo....",
"........ooooOOOOOOOOooooOOOOOOOOoooooooooooo....",
"........ooooOOOOOOOOooooOOOOOOOOoooooooooooo....",
"....ooooooooooooOOOOOOOOOOOOoooooooooooooooo....",
"....ooooooooooooOOOOOOOOOOOOoooooooooooooooo....",
"....oooooooo                        oooooooo....",
"....oooooooo                        oooooooo....",
"....oooooo    XXXXXXXX++++++++++++++  oo........",
"....oooooo    XXXXXXXX++++++++++++++  oo........",
"....oooo  @@  XXXXXXXXXX++++XXXXXX++  oo........",
"....oooo  @@  XXXXXXXXXX++++XXXXXX++  oo........",
"........  @@  XX******XX++  ++++++    oo........",
"........  @@  XX******XX++  ++++++    oo........",
"........      XX**  **XX++++++++++++  oo........",
"........      XX**  **XX++++++++++++  oo........",
"........oo  @@  ******XX++++++++++++  oo........",
"........oo  @@  ******XX++++++++++++  oo........",
"........oo  @@  XXXXXXXX++++++++++++  oo........",
"........oo  @@  XXXXXXXX++++++++++++  oo........",
"&&&&....oo      XXXXXXXXXX++          ......&&&&",
"&&&&....oo      XXXXXXXXXX++          ......&&&&",
"&&&&....oooooo    XXXX++++++++  oooo........&&&&",
"&&&&....oooooo    XXXX++++++++  oooo........&&&&",
"&&&&........oooo  XX##%%%%%%%%  oooo........&&&&",
"&&&&........oooo  XX##%%%%%%%%  oooo........&&&&",
"&&&&........      XX##%%%%%%%%  oooo........&&&&",
"&&&&........      XX##%%%%%%%%  oooo........&&&&",
"&&&&........  ++++XX##%%%%%%%%  oooo........&&&&",
"&&&&........  ++++XX##%%%%%%%%  oooo........&&&&",
"&&&&........    XXXXXX++####++  oooo........&&&&",
"&&&&........    XXXXXX++####++  oooo........&&&&",
"&&&&&&&&......    XX++++++++++  ........&&&&&&&&",
"&&&&&&&&......    XX++++++++++  ........&&&&&&&&",
"&&&&&&&&........  XX++    XX++  ........&&&&&&&&",
"&&&&&&&&........  XX++    XX++  ........&&&&&&&&",
"&&&&&&&&&&&&....      ..      ......&&&&&&&&$$$$",
"&&&&&&&&&&&&....      ..      ......&&&&&&&&$$$$",
"&&&&&&&&&&&&........................&&&&&&&&$$$$",
"&&&&&&&&&&&&........................&&&&&&&&$$$$",
"&&&&&&&&&&&&&&&&................&&&&&&&&&&&&&&&&",
"&&&&&&&&&&&&&&&&................&&&&&&&&&&&&&&&&",
"&&&&&&&&&&&&&&&&................&&&&&&&&&&&&&&&&",
"&&&&&&&&&&&&&&&&................&&&&&&&&&&&&&&&&"
};
