/* XPM */
static char *dcfc6de04fae4de1a30770440d5614c26Mk4KxbKC9RoPfaN[] = {
/* columns rows colors chars-per-pixel */
"48 48 12 1 ",
"  c #4A3B1F",
". c #78A158",
"X c #E5AB3D",
"o c #A4C263",
"O c #C0D470",
"+ c #FDC760",
"@ c #2379EA",
"# c #D8B78F",
"$ c #B1E0BE",
"% c #FFD7A8",
"& c #9BD4C3",
"* c white",
/* pixels */
"&&&&&&&&&&&&&&&&&&&&&&&&........................",
"&&&&&&&&&&&&&&&&&&&&&&&&........................",
"&&&&&&&&&&&&&&&&&&&&&&&&........................",
"&&&&&&&&&&&&&&&&&&&&&&&&........................",
"&&&&&&&&&&&&........................oooooooooooo",
"&&&&&&&&&&&&........................oooooooooooo",
"&&&&&&&&&&&&........................oooooooooooo",
"&&&&&&&&&&&&........................oooooooooooo",
"$$$$$$$$........oooooooooooooooooooooooooooooooo",
"$$$$$$$$........oooooooooooooooooooooooooooooooo",
"$$$$$$$$....                        oooooooooooo",
"$$$$$$$$....                        oooooooooooo",
"&&&&......    XXXXXXXX++++++++++++++  oooooooooo",
"&&&&......    XXXXXXXX++++++++++++++  oooooooooo",
"&&&&....  @@  XXXXXXXXXX++++XXXXXX++  oooooooooo",
"&&&&....  @@  XXXXXXXXXX++++XXXXXX++  oooooooooo",
"&&&&....  @@  XX******XX++  ++++++    ooOOOOOOOO",
"&&&&....  @@  XX******XX++  ++++++    ooOOOOOOOO",
"&&&&....      XX**  **XX++++++++++++  ooOOOOOOOO",
"&&&&....      XX**  **XX++++++++++++  ooOOOOOOOO",
"&&&&......  @@  ******XX++++++++++++  OOOOOOoooo",
"&&&&......  @@  ******XX++++++++++++  OOOOOOoooo",
"&&&&......  @@  XXXXXXXX++++++++++++  OOOOOOoooo",
"&&&&......  @@  XXXXXXXX++++++++++++  OOOOOOoooo",
"..........      XXXXXXXXXX++          OOOOOOOOOO",
"..........      XXXXXXXXXX++          OOOOOOOOOO",
"............oo    XXXX++++++++  OOOOOOOOOOOOOOOO",
"............oo    XXXX++++++++  OOOOOOOOOOOOOOOO",
"........oooooooo  XX##%%%%%%%%  OOOOOOOOOOOOOOOO",
"........oooooooo  XX##%%%%%%%%  OOOOOOOOOOOOOOOO",
"........oooo      XX##%%%%%%%%  OOOOOOOOOOOOOOOO",
"........oooo      XX##%%%%%%%%  OOOOOOOOOOOOOOOO",
"........oooo  ++++XX##%%%%%%%%  OOOOOOOOOOOOOOOO",
"........oooo  ++++XX##%%%%%%%%  OOOOOOOOOOOOOOOO",
"........oooo    XXXXXX++####++  OOOOOOOOOOOOOOOO",
"........oooo    XXXXXX++####++  OOOOOOOOOOOOOOOO",
"....oooooooooo    XX++++++++++  OOOOOOOOOOOOOOOO",
"....oooooooooo    XX++++++++++  OOOOOOOOOOOOOOOO",
"....oooooooooooo  XX++    XX++  OOOOOOOOOOOOOOOO",
"....oooooooooooo  XX++    XX++  OOOOOOOOOOOOOOOO",
"....oooooooooooo      OO      OOOOOOOOOOOOOOoooo",
"....oooooooooooo      OO      OOOOOOOOOOOOOOoooo",
"....ooooooooooooOOOOOOOOOOOOOOOOOOOOOOOOOOOOoooo",
"....ooooooooooooOOOOOOOOOOOOOOOOOOOOOOOOOOOOoooo",
"....ooooooooooooOOOOooooOOOOOOOOOOOOOOOOOOOOOOOO",
"....ooooooooooooOOOOooooOOOOOOOOOOOOOOOOOOOOOOOO",
"....ooooooooooooOOOOooooOOOOOOOOOOOOOOOOOOOOOOOO",
"....ooooooooooooOOOOooooOOOOOOOOOOOOOOOOOOOOOOOO"
};
