/* XPM */
static char *a31afb83b7704ebfe7aea3b09cdfd21eLlONVMB5ClU0gfAm[] = {
/* columns rows colors chars-per-pixel */
"48 48 134 2 ",
"   c #6D3D49",
".  c #734446",
"X  c #774845",
"o  c #7A4A45",
"O  c #704048",
"+  c #8E5F3D",
"@  c #97643B",
"#  c #AF7D37",
"$  c #854C46",
"%  c #914B44",
"&  c #845542",
"*  c #8C5446",
"=  c #895941",
"-  c #9A5545",
";  c #9D5C46",
":  c #9E5D48",
">  c #A15E47",
",  c #A05D48",
"<  c #9D634C",
"1  c #9F6C4F",
"2  c #9C7553",
"3  c #A46146",
"4  c #A96446",
"5  c #AA6947",
"6  c #A6644B",
"7  c #AC634C",
"8  c #AD694A",
"9  c #B36643",
"0  c #B56C44",
"q  c #B86D42",
"w  c #A77048",
"e  c #BE7443",
"r  c #B17148",
"t  c #B67A49",
"y  c #BB7F49",
"u  c #B16650",
"i  c #AB7355",
"p  c #B07B52",
"a  c #C07743",
"s  c #C47B42",
"d  c #C87F42",
"f  c #C27554",
"g  c #C07B50",
"h  c #78A158",
"j  c #BE8C2E",
"k  c #BE8C33",
"l  c #BD8339",
"z  c #C5942F",
"x  c #CE9E2E",
"c  c #D29F2D",
"v  c #C18E30",
"b  c #C4883B",
"n  c #C09130",
"m  c #CC9A31",
"M  c #D09F38",
"N  c #D6A639",
"B  c #ECB73D",
"V  c #938E57",
"C  c #8D9256",
"Z  c #969559",
"A  c #9E925B",
"S  c #9A9A5C",
"D  c #BD8241",
"F  c #BB804A",
"G  c #A78F5B",
"H  c #A49E5F",
"J  c #99A05B",
"K  c #9FB35F",
"L  c #A1AE5F",
"P  c #A79360",
"I  c #A49E60",
"U  c #A6A461",
"Y  c #AAA564",
"T  c #AEAC64",
"R  c #AFB466",
"E  c #A4BF63",
"W  c #B3B666",
"Q  c #B7BE6C",
"!  c #C68344",
"~  c #C98446",
"^  c #C88841",
"/  c #C1874B",
"(  c #C4884E",
")  c #CE8F4E",
"_  c #D08F40",
"`  c #D08F49",
"'  c #C69442",
"]  c #CF9349",
"[  c #D39142",
"{  c #D2944A",
"}  c #D69F4E",
"|  c #D99D4A",
" . c #D18B55",
".. c #D29352",
"X. c #D19857",
"o. c #DC9C52",
"O. c #DBA34B",
"+. c #DEA354",
"@. c #E4B542",
"#. c #E6B845",
"$. c #EDBC4F",
"%. c #E3A755",
"&. c #E7AB54",
"*. c #EBAB56",
"=. c #E6A45C",
"-. c #EEAE58",
";. c #E8B750",
":. c #ECBA51",
">. c #EDB45A",
",. c #F2BE53",
"<. c #F1B35C",
"1. c #FBBB5B",
"2. c #A4C263",
"3. c #B8C66B",
"4. c #BFCF6E",
"5. c #BFD16F",
"6. c #BFD370",
"7. c #F4C54F",
"8. c #EFC250",
"9. c #F5C551",
"0. c #F7C951",
"q. c #FBCD51",
"w. c #F9C35D",
"e. c #FFD753",
"r. c #FFD95C",
"t. c #FFE759",
"y. c #FFE15C",
"u. c #FFEB5D",
"i. c #FFEC5D",
"p. c #FFF35D",
"a. c #C0D26F",
"s. c #C0D270",
"d. c #C0D470",
"f. c #FFD462",
/* pixels */
"d.d.d.d.d.d.d.d.d.d.d.d.d.d.5.a.d.d.d.d.d.d.d.d.d.d.d.d.d.d.d.d.a.5.d.d.d.d.d.d.d.d.d.d.d.d.d.d.",
"d.d.d.d.d.d.d.d.d.d.d.d.a.5.d.d.H P A A A A A A A A A A A A P H d.d.5.a.d.d.d.d.d.d.d.d.d.d.d.d.",
"d.d.d.d.d.d.d.d.d.d.d.d.s.d.5.W 6 f 8 8 8 8 8 8 8 8 8 8 8 8 f 6 W 5.d.s.d.d.d.d.d.d.d.d.d.d.d.d.",
"d.d.d.d.d.d.d.d.d.d.d.5.d.d.V i >.f.w.w.w.w.w.w.w.w.w.w.w.w.f.>.i V d.d.5.d.d.d.d.d.d.d.d.d.d.d.",
"d.d.d.d.d.d.d.d.d.d.d.5.3.T p =.r.p.u.i.i.i.i.i.i.i.i.i.i.u.p.r.=.p T 3.5.d.d.d.d.d.d.d.d.d.d.d.",
"d.d.d.d.d.d.d.d.d.5.d.d.U ; >.y.0.$.9.9.9.9.9.9.9.9.9.9.9.9.$.0.y.>.; U d.d.5.d.d.d.d.d.d.d.d.d.",
"d.d.d.d.d.d.d.d.d.5.d.d.H 6 <.t.q.O.y t F y y y y y y F t y O.q.t.<.6 H d.d.5.d.d.d.d.d.d.d.d.d.",
"d.d.d.d.d.d.d.d.d.5.d.d.Y : o.9.:./ - - > , , , , , , > - - / :.9.o.: Y d.d.5.d.d.d.d.d.d.d.d.d.",
"d.d.d.d.d.d.d.d.d.5.d.d.U ; %.:.y - , 0 e q q q q q q e 0 , - y :.%.; U d.d.5.d.d.d.d.d.d.d.d.d.",
"d.d.d.d.d.d.d.d.d.5.d.d.U ; &.;.5 % 4 0 e d d d d d d e 0 4 % 5 ;.&.; U d.d.5.d.d.d.d.d.d.d.d.d.",
"d.d.d.d.d.d.d.d.d.5.d.d.U ; *.:.r - 3 ; 4 e a e e a e 4 ; 3 - r :.*.; U d.d.5.d.d.d.d.d.d.d.d.d.",
"d.d.d.d.d.d.d.d.d.5.d.d.I 7 1.8.5 % 3 , , 4 4 4 4 4 4 , , 3 % 5 8.1.7 I d.d.5.d.d.d.d.d.d.d.d.d.",
"d.d.d.d.d.d.d.d.d.a.d.a.R 2 X.+.( 5 3 3 3 , , , , , , 3 3 3 5 ( +.X.2 R a.d.a.d.d.d.d.d.d.d.d.d.",
"d.d.d.d.d.d.d.d.d.d.d.4.d.6.2 g :.} , ; 3 3 , 3 3 , 3 3 ; , } :.g 2 6.d.4.d.d.d.d.d.d.d.d.d.d.d.",
"d.d.d.d.d.d.d.d.d.6.d.s.Q G w b B ' $ $ * * * * * * * * $ $ ' B b w G Q s.d.6.d.d.d.d.d.d.d.d.d.",
"d.d.d.d.d.d.d.d.d.5.d.d.Y 7 [ x j @ . O X X X X X X X X O . @ j x [ 7 Y d.d.5.d.d.d.d.d.d.d.d.d.",
"2.2.2.2.d.d.d.d.d.5.d.d.Y , [ n + X X X X X X X X X X X X X X + n [ , Y d.d.5.d.2.2.2.2.d.d.d.d.",
"2.2.2.2.d.d.d.d.d.5.d.d.Y : _ k o   X o X X X X X X X X o o   o k _ : Y d.d.5.d.2.2.2.2.d.d.d.d.",
"2.2.2.2.d.d.d.d.d.5.d.d.Y : _ k = O X X X X X X X X X X X X O = k _ : Y d.d.5.d.2.2.2.2.d.d.d.d.",
"2.2.2.2.d.d.d.d.d.5.d.d.Y : _ k = O X X X X X X X X X X X X O = k _ : Y d.d.5.d.2.2.2.2.d.d.d.d.",
"d.d.d.d.d.d.d.d.d.5.d.d.Y : [ k &   X X X X X X X X X X o X   & k [ : Y d.d.5.d.d.d.d.d.d.d.d.d.",
"d.d.d.d.d.d.d.d.d.5.d.d.Y : [ k &   X X X X X X X X X X o X   & k [ : Y d.d.5.d.d.d.d.d.d.d.d.d.",
"d.d.d.d.d.d.d.d.d.5.d.d.Y , ^ z # =     O             O     = # z ^ , Y d.d.5.d.d.d.d.d.d.d.d.d.",
"d.d.d.d.d.d.d.d.d.5.d.d.Y , ! x c # = & = = = = = = = = & = # c x ! , Y d.d.5.d.d.d.d.d.d.d.d.d.",
"d.d.d.d.d.d.d.d.d.5.d.d.Y ; ` N m v k k k k k k k k k k k k v m N ` ; Y d.d.5.d.d.d.d.d.d.d.d.d.",
"d.d.d.d.d.d.d.d.d.5.d.d.Y ; o.#.M k l l l l l l l l l l l l k M #.o.; Y d.d.5.d.d.d.d.d.d.d.d.d.",
"d.d.d.d.d.d.d.d.d.5.d.d.Y ; +.7.@.D , ; , , , , , , , , ; , D @.7.+.; Y d.d.5.d.d.d.d.d.d.d.d.d.",
"d.d.d.d.d.d.d.d.d.5.d.d.Y ; o.q.7.] 9 9 0 0 0 0 0 0 0 0 9 9 ] 7.q.o.; Y d.d.5.d.d.d.d.d.d.d.d.d.",
"d.d.d.d.2.2.2.2.d.5.d.d.Y : o.0.9.O.a a d s s s s s s d a a O.0.0.o.: S d.d.5.d.d.d.d.d.2.2.2.2.",
"d.d.d.d.2.2.2.2.d.5.d.d.Y : o.0.0.| e e a a a a a a a a e e | 0.0.o.: S d.d.5.d.d.d.d.d.2.2.2.2.",
"d.d.d.d.2.2.2.2.d.5.d.d.I 7 *.e.9.{ 9 9 q q q q q q q q 9 9 { 9.e.*.7 Z d.d.5.d.d.d.d.d.2.2.2.2.",
"d.d.d.d.2.2.2.2.d.s.d.6.T < ..,.0.O.~ ! ~ ~ ~ ~ ~ ~ ~ ~ ! ~ O.0.,...< S 6.d.s.d.d.d.d.d.2.2.2.2.",
"2.2.2.2.2.2.2.2.2.2.2.E E L 1  .,.q.$.$.$.$.$.$.$.$.$.$.$.$.q.,. .1 L E E 2.2.2.2.2.2.2.2.2.2.2.",
"2.2.2.2.2.2.2.2.2.2.2.E 2.2.C i ) -.%.%.%.%.%.%.%.%.%.%.%.%.-.) i C 2.2.E 2.2.2.2.2.2.2.2.2.2.2.",
"2.2.2.2.2.2.2.2.2.2.2.2.2.E 2.K < u ; ; ; ; ; ; ; ; ; ; ; ; u < K 2.E 2.2.2.2.2.2.2.2.2.2.2.2.2.",
"2.2.2.2.2.2.2.2.2.2.2.2.2.2.2.2.T Y U U U U U U U U U U Z Z S J 2.2.2.2.2.2.2.2.2.2.2.2.2.2.2.2.",
"2.2.2.2.2.2.2.2.2.2.2.2.2.2.E 2.2.2.2.2.2.2.2.2.2.2.2.2.2.2.2.2.2.E 2.2.2.2.2.2.2.2.2.2.2.2.2.2.",
"2.2.2.2.2.2.2.2.2.2.2.2.2.2.2.2.2.2.2.2.2.2.2.2.2.2.2.2.2.2.2.2.2.2.2.2.2.2.2.2.2.2.2.2.2.2.2.2.",
"2.2.2.2.2.2.2.2.2.2.2.2.2.2.2.2.2.E E E E E E E E E E E E E E 2.2.2.2.2.2.2.2.2.2.2.2.2.2.2.2.2.",
"2.2.2.2.2.2.2.2.2.2.2.2.2.2.2.2.2.2.2.2.2.2.2.2.2.2.2.2.2.2.2.2.2.2.2.2.2.2.2.2.2.2.2.2.2.2.2.2.",
"h h h h h h h h h h h h 2.2.2.2.2.2.2.2.2.2.2.2.2.2.2.2.2.2.2.2.h h h h h h h h h h h h 2.2.2.2.",
"h h h h h h h h h h h h 2.2.2.2.2.2.2.2.2.2.2.2.2.2.2.2.2.2.2.2.h h h h h h h h h h h h 2.2.2.2.",
"h h h h h h h h h h h h 2.2.2.2.2.2.2.2.2.2.2.2.2.2.2.2.2.2.2.2.h h h h h h h h h h h h 2.2.2.2.",
"h h h h h h h h h h h h 2.2.2.2.2.2.2.2.2.2.2.2.2.2.2.2.2.2.2.2.h h h h h h h h h h h h 2.2.2.2.",
"h h h h h h h h h h h h h h h h h h h h h h h h h h h h h h h h h h h h h h h h h h h h h h h h ",
"h h h h h h h h h h h h h h h h h h h h h h h h h h h h h h h h h h h h h h h h h h h h h h h h ",
"h h h h h h h h h h h h h h h h h h h h h h h h h h h h h h h h h h h h h h h h h h h h h h h h ",
"h h h h h h h h h h h h h h h h h h h h h h h h h h h h h h h h h h h h h h h h h h h h h h h h "
};
