/* XPM */
static char *_e13c32993564d95d376d780399c54f7NH8aTtFfHL80d9GS[] = {
/* columns rows colors chars-per-pixel */
"48 48 143 2 ",
"   c #6D3D49",
".  c #734446",
"X  c #774845",
"o  c #7A4A45",
"O  c #704048",
"+  c #6F6C4B",
"@  c #7E734F",
"#  c #7E7250",
"$  c #7D7D52",
"%  c #8E5F3D",
"&  c #97643B",
"*  c #AF7D37",
"=  c #854C46",
"-  c #914B44",
";  c #845542",
":  c #8C5446",
">  c #895941",
",  c #9A5545",
"<  c #9D5C46",
"1  c #9E5C48",
"2  c #A15E47",
"3  c #A05D48",
"4  c #9C624B",
"5  c #9F6C4F",
"6  c #916E51",
"7  c #8A7556",
"8  c #9B7150",
"9  c #A46146",
"0  c #A96446",
"q  c #A66E47",
"w  c #AA6947",
"e  c #A6634B",
"r  c #AC634C",
"t  c #AD694A",
"y  c #B36643",
"u  c #B56C44",
"i  c #B86D42",
"p  c #BE7443",
"a  c #B17148",
"s  c #B67A49",
"d  c #BB7F49",
"f  c #AB6B52",
"g  c #B16650",
"h  c #AA7553",
"j  c #AC705B",
"k  c #C07743",
"l  c #C47B42",
"z  c #C87F42",
"x  c #C27554",
"c  c #C07B50",
"v  c #7F8153",
"b  c #799756",
"n  c #769E57",
"m  c #799E57",
"M  c #7A9F58",
"N  c #78A158",
"B  c #BE8C2E",
"V  c #BE8C33",
"C  c #BD8339",
"Z  c #C5942F",
"A  c #CE9E2E",
"S  c #D29F2D",
"D  c #C18E30",
"F  c #C4883B",
"G  c #C09130",
"H  c #CC9A31",
"J  c #D09F38",
"K  c #D6A639",
"L  c #ECB73D",
"P  c #868A55",
"I  c #9D8656",
"U  c #8D9256",
"Y  c #959659",
"T  c #9A955D",
"R  c #979859",
"E  c #9A995C",
"W  c #BD8241",
"Q  c #BB804A",
"!  c #9AA35C",
"~  c #9FB35F",
"^  c #A1AE5F",
"/  c #AAA564",
"(  c #A1AF62",
")  c #A4BF63",
"_  c #C68344",
"`  c #C98446",
"'  c #C88841",
"]  c #C1874B",
"[  c #C4884E",
"{  c #CE8F4E",
"}  c #D08F40",
"|  c #D08F49",
" . c #C69442",
".. c #CF9349",
"X. c #D39142",
"o. c #D2944A",
"O. c #D69F4E",
"+. c #D99D4A",
"@. c #D18B55",
"#. c #D19554",
"$. c #DC9C52",
"%. c #DBA34B",
"&. c #DEA354",
"*. c #E4B542",
"=. c #E6B845",
"-. c #EDBC4F",
";. c #E3A755",
":. c #E7AB54",
">. c #EBAB56",
",. c #E6A45C",
"<. c #EEAE58",
"1. c #E8B750",
"2. c #ECBA51",
"3. c #EDB45A",
"4. c #F2BE53",
"5. c #F1B35C",
"6. c #FBBB5B",
"7. c #A4C263",
"8. c #BFD16F",
"9. c #BFD370",
"0. c #F4C54F",
"q. c #EFC250",
"w. c #F5C551",
"e. c #F7C951",
"r. c #FBCD51",
"t. c #F9C35D",
"y. c #FFD753",
"u. c #FFD95C",
"i. c #FFE45B",
"p. c #FFEC5D",
"a. c #FFF35D",
"s. c #C0D470",
"d. c #FFD462",
"f. c #7F8E88",
"g. c #8C938A",
"h. c #969986",
"j. c #97938C",
"k. c #8E9D93",
"l. c #99B6A7",
"z. c #9BD0BF",
"x. c #B1E0BE",
"c. c #9BD4C3",
"v. c #9CD4C3",
/* pixels */
"c.c.c.c.c.c.c.c.c.c.c.c.c.c.c.v.c.c.c.c.x.x.x.x.N N N N N N N N N M N N N N N N N N N N N N N N ",
"c.c.c.c.c.c.c.c.c.c.c.c.v.z.c.c.k.j.g.g.h.h.h.h.# # # # @ @ 7 $ N N m N N N N N N N N N N N N N ",
"c.c.c.c.c.c.c.c.c.c.c.c.v.c.c.l.e x t t t t t t t t t t t t x e P n N N N N N N N N N N N N N N ",
"c.c.c.c.c.c.c.c.c.c.c.z.c.c.f.j 3.d.t.t.t.t.t.t.t.t.t.t.t.t.d.3.f + N N M N N N N N N N N N N N ",
"c.c.c.c.c.c.c.c.c.v.c.z.b P h ,.u.a.p.p.p.p.p.p.p.p.p.p.p.p.a.u.,.h P b ) 7.7.7.7.7.7.7.7.7.7.7.",
"c.c.c.c.c.c.c.c.c.c.c.c.$ < 3.i.e.-.w.w.w.w.w.w.w.w.w.w.w.w.-.e.i.3.< $ 7.7.) 7.7.7.7.7.7.7.7.7.",
"c.c.c.c.c.c.c.c.c.z.c.c.$ e 5.i.r.%.d s Q d d d d d d Q s d %.r.i.5.e $ 7.7.) 7.7.7.7.7.7.7.7.7.",
"c.c.c.c.c.c.c.c.c.c.c.c.v 1 $.w.2.] , , 2 3 3 3 3 3 3 2 , , ] 2.w.$.1 v 7.7.) 7.7.7.7.7.7.7.7.7.",
"c.c.c.c.c.c.c.c.N M N N $ < ;.2.d < 3 u p i i i i i i p u 3 < d 2.;.1 R 7.7.) 7.7.7.7.7.7.7.7.7.",
"c.c.c.c.c.c.c.c.N M N N $ < :.1.w - 0 u p z z z z z z p u 0 - w 1.:.< R 7.7.) 7.7.7.7.7.7.7.7.7.",
"c.c.c.c.c.c.c.c.N M N N $ < >.2.a , 9 1 0 p k p p k p 0 1 9 , a 2.>.< R 7.7.) 7.7.7.7.7.7.7.7.7.",
"c.c.c.c.c.c.c.c.N m N N $ r 6.q.w - 9 3 3 0 0 0 0 0 0 3 3 9 - w q.6.r Y 7.7.) 7.7.7.7.7.7.7.7.7.",
"x.x.x.x.N N N N N N N N ! 8 #.&.[ w 9 9 9 3 3 3 3 3 3 9 9 9 w [ &.#.8 ! 7.7.7.7.s.s.s.s.s.s.s.s.",
"x.x.x.x.N N N N N N N M 7.7.6 c 2.O.3 < 9 9 3 9 9 3 9 9 < 3 O.2.c 6 7.7.) 7.7.7.s.s.s.s.s.s.s.s.",
"x.x.x.x.N N N N N N N N ( I q F L  .= = : : : : : : : : = =  .L F q I ( 7.7.7.7.s.s.s.s.s.s.s.s.",
"x.x.x.x.N N N N N m N N T r X.A B & . O X X X X X X X X O . & B A X.r T 7.7.) 7.s.s.s.s.s.s.s.s.",
"N N N N N N N N 7.) 7.7.T 3 X.G % X X X X X X X X X X X X X X % G X.3 / s.s.8.s.s.s.s.s.7.7.7.7.",
"N N N N N N N N 7.) 7.7.E 1 } V o   X o X X X X X X X X o o   o V } 1 / s.s.8.s.s.s.s.s.7.7.7.7.",
"N N N N N N N N 7.) 7.7.E 1 } V > O X X X X X X X X X X X X O > V } 1 / s.s.8.s.s.s.s.s.7.7.7.7.",
"N N N N N N N N 7.) 7.7.E 1 } V > O X X X X X X X X X X X X O > V } 1 / s.s.8.s.s.s.s.s.7.7.7.7.",
"N N N N N N N N 7.) 7.7.E 1 X.V ;   X X X X X X X X X X o X   ; V X.1 / s.s.8.s.s.s.s.s.s.s.s.s.",
"N N N N N N N N 7.) 7.7.E 1 X.V ;   X X X X X X X X X X o X   ; V X.1 / s.s.8.s.s.s.s.s.s.s.s.s.",
"N N N N N N N N 7.) 7.7.E 3 ' Z * >     O             O     > * Z ' 3 / s.s.8.s.s.s.s.s.s.s.s.s.",
"N N N N N N N N 7.) 7.7.E 3 _ A S * > ; > > > > > > > > ; > * S A _ 3 / s.s.8.s.s.s.s.s.s.s.s.s.",
"N N N N N N N N 7.) 7.7.R 1 | K H D V V V V V V V V V V V V D H K | 1 / s.s.8.s.s.s.s.s.s.s.s.s.",
"N N N N N N N N 7.) 7.7.R 1 $.=.J V C C C C C C C C C C C C V J =.$.1 / s.s.8.s.s.s.s.s.s.s.s.s.",
"N N N N N N N N 7.) 7.7.R 1 &.0.*.W 3 < 3 3 3 3 3 3 3 3 < 3 W *.0.&.1 / s.s.8.s.s.s.s.s.s.s.s.s.",
"N N N N N N N N 7.) 7.7.R 1 $.r.0...y y u u u u u u u u y y ..0.r.$.1 / s.s.8.s.s.s.s.s.s.s.s.s.",
"N N N N N N N N 7.) 7.7.R 1 $.e.w.%.k k z l l l l l l z k k %.e.e.$.1 R s.s.8.s.s.s.s.s.s.s.s.s.",
"N N N N N N N N 7.) 7.7.R 1 $.e.e.+.p p k k k k k k k k p p +.e.e.$.1 R s.s.8.s.s.s.s.s.s.s.s.s.",
"N N N N N N N N 7.) 7.7.Y r >.y.w.o.y y i i i i i i i i y y o.w.y.>.r Y s.s.8.s.s.s.s.s.s.s.s.s.",
"N N N N N N N N 7.7.7.7.E 4 #.4.e.%.` _ ` ` ` ` ` ` ` ` _ ` %.e.4.#.4 E 9.s.s.s.s.s.s.s.s.s.s.s.",
"c.c.c.c.N N N N N N N M ) ^ 5 @.4.r.-.-.-.-.-.-.-.-.-.-.-.-.r.4.@.5 ^ ) ) 7.7.7.7.7.7.7.s.s.s.s.",
"c.c.c.c.N N N N N N N m 7.7.U h { <.;.;.;.;.;.;.;.;.;.;.;.;.<.{ h U 7.7.) 7.7.7.7.7.7.7.s.s.s.s.",
"c.c.c.c.N N N N N N N N 7.) 7.~ 4 g 1 1 1 1 1 1 1 1 1 1 1 1 g 4 ~ 7.) 7.7.7.7.7.7.7.7.7.s.s.s.s.",
"c.c.c.c.N N N N N N N N 7.7.7.7.! E R R R R R R R R R R R R E ! 7.7.7.7.7.7.7.7.7.7.7.7.s.s.s.s.",
"c.c.c.c.c.c.c.c.N N N N N N M N 7.7.7.7.7.7.7.7.7.7.7.7.7.7.7.7.7.) 7.7.7.7.7.7.7.7.7.7.7.7.7.7.",
"c.c.c.c.c.c.c.c.N N N N N N N N 7.7.7.7.7.7.7.7.7.7.7.7.7.7.7.7.7.7.7.7.7.7.7.7.7.7.7.7.7.7.7.7.",
"c.c.c.c.c.c.c.c.N N N N N N N N 7.) ) ) ) ) ) ) ) ) ) ) ) ) ) 7.7.7.7.7.7.7.7.7.7.7.7.7.7.7.7.7.",
"c.c.c.c.c.c.c.c.N N N N N N N N 7.7.7.7.7.7.7.7.7.7.7.7.7.7.7.7.7.7.7.7.7.7.7.7.7.7.7.7.7.7.7.7.",
"c.c.c.c.c.c.c.c.c.c.c.c.N N N N N N N N N N N N N N N N N N N N N N N N 7.7.7.7.N N N N N N N N ",
"c.c.c.c.c.c.c.c.c.c.c.c.N N N N N N N N N N N N N N N N N N N N N N N N 7.7.7.7.N N N N N N N N ",
"c.c.c.c.c.c.c.c.c.c.c.c.N N N N N N N N N N N N N N N N N N N N N N N N 7.7.7.7.N N N N N N N N ",
"c.c.c.c.c.c.c.c.c.c.c.c.N N N N N N N N N N N N N N N N N N N N N N N N 7.7.7.7.N N N N N N N N ",
"c.c.c.c.c.c.c.c.c.c.c.c.c.c.c.c.c.c.c.c.x.x.x.x.N N N N N N N N N N N N N N N N N N N N N N N N ",
"c.c.c.c.c.c.c.c.c.c.c.c.c.c.c.c.c.c.c.c.x.x.x.x.N N N N N N N N N N N N N N N N N N N N N N N N ",
"c.c.c.c.c.c.c.c.c.c.c.c.c.c.c.c.c.c.c.c.x.x.x.x.N N N N N N N N N N N N N N N N N N N N N N N N ",
"c.c.c.c.c.c.c.c.c.c.c.c.c.c.c.c.c.c.c.c.x.x.x.x.N N N N N N N N N N N N N N N N N N N N N N N N "
};
