/* XPM */
static char *_0fa7be47d8a4c7aacd448f479fb9664nAGOwKEXjml7N9YQ[] = {
/* columns rows colors chars-per-pixel */
"48 48 147 2 ",
"   c #673644",
".  c #6B3B43",
"X  c #6E3E48",
"o  c #703F43",
"O  c #6F4044",
"+  c #744444",
"@  c #7B4B45",
"#  c #704048",
"$  c #90603E",
"%  c #9A6A3B",
"&  c #855542",
"*  c #975345",
"=  c #9A5746",
"-  c #935845",
";  c #9E5C46",
":  c #93574A",
">  c #9B5649",
",  c #945B4B",
"<  c #A15E47",
"1  c #95624D",
"2  c #98644E",
"3  c #9F6E49",
"4  c #966352",
"5  c #996652",
"6  c #966C50",
"7  c #9D6A54",
"8  c #8F7051",
"9  c #9B7253",
"0  c #977854",
"q  c #9B7B53",
"w  c #AB6546",
"e  c #A5604A",
"r  c #AD644D",
"t  c #B16240",
"y  c #B66B44",
"u  c #BB6F42",
"i  c #B26D4B",
"p  c #A6744E",
"a  c #A8774F",
"s  c #BC7443",
"d  c #BE7949",
"f  c #AA6B57",
"g  c #AC6E58",
"h  c #AD7751",
"j  c #AE7950",
"k  c #C07743",
"l  c #C37C44",
"z  c #C47D4A",
"x  c #78A158",
"c  c #BB842B",
"v  c #BD8537",
"b  c #BE8C33",
"n  c #BD8339",
"m  c #C28E34",
"M  c #C69133",
"N  c #CA9534",
"B  c #CB973F",
"V  c #C7983F",
"C  c #D39F3C",
"Z  c #D5A42D",
"A  c #D2A233",
"S  c #D3A23E",
"D  c #DBAD3D",
"F  c #928354",
"G  c #9D8D54",
"H  c #9F8B58",
"J  c #949257",
"K  c #939759",
"L  c #9A945A",
"P  c #969A5A",
"I  c #9E995D",
"U  c #B5844A",
"Y  c #A28257",
"T  c #AA955D",
"R  c #A59E5E",
"E  c #A89D5F",
"W  c #9BAD5E",
"Q  c #9AB55E",
"!  c #A4A35E",
"~  c #A1B45F",
"^  c #A6A461",
"/  c #AAA563",
"(  c #A8A962",
")  c #A3BD62",
"_  c #B2BD68",
"`  c #C78145",
"'  c #C98446",
"]  c #CF8D46",
"[  c #C88D4B",
"{  c #CA9E48",
"}  c #C38252",
"|  c #C98452",
" . c #C0895A",
".. c #C49651",
"X. c #C69952",
"o. c #C99B52",
"O. c #D79652",
"+. c #DB9058",
"@. c #DEAA4C",
"#. c #CDA25C",
"$. c #E2AB4D",
"%. c #E4B14C",
"&. c #E9B54F",
"*. c #EEBC4F",
"=. c #E4A755",
"-. c #E7AE51",
";. c #E9AB56",
":. c #E7AB59",
">. c #E8AD59",
",. c #ECB751",
"<. c #EDBB53",
"1. c #EEB35C",
"2. c #C69266",
"3. c #DD9861",
"4. c #D3AD6E",
"5. c #A4C263",
"6. c #B4C66A",
"7. c #BCCC6E",
"8. c #BFD16F",
"9. c #BFD370",
"0. c #F0C347",
"q. c #FFD54E",
"w. c #F4C452",
"e. c #F9C751",
"r. c #FBCD52",
"t. c #F4C158",
"y. c #FED253",
"u. c #FFDA56",
"i. c #FFD35F",
"p. c #FFDA5A",
"a. c #FFE45E",
"s. c #FFEC5E",
"d. c #FFF15F",
"f. c #C0D26F",
"g. c #C1D370",
"h. c #C0D470",
"j. c #FFD867",
"k. c #F6C073",
"l. c #FFE262",
"z. c #FFE564",
"x. c #FFEA62",
"c. c #FFED60",
"v. c #FFF060",
"b. c #FFF36D",
"n. c #FFEB77",
"m. c #FFF971",
"M. c #FFF982",
/* pixels */
"h.h.h.h.h.h.h.h.h.h.h.h.h.h.h.h.h.h.h.h.h.h.h.h.h.h.h.h.5.5.5.5.5.5.5.5.5.5.5.5.x x x x x x x x ",
"h.h.h.h.h.h.h.h.h.h.h.h.h.h.h.h.h.h.h.h.h.h.h.h.h.h.h.h.5.5.5.5.5.5.5.5.5.5.5.5.x x x x x x x x ",
"h.h.h.h.h.h.h.h.h.h.h.h.h.h.h.h.h.h.h.h.h.h.h.h.h.h.h.h.5.5.5.5.5.5.5.5.5.5.5.5.x x x x x x x x ",
"h.h.h.h.h.h.h.h.h.h.h.h.h.h.h.h.h.h.h.h.h.h.h.h.h.h.h.h.5.5.5.5.5.5.5.5.5.5.5.5.x x x x x x x x ",
"h.h.h.h.h.h.h.h.h.h.h.h.h.h.h.h.h.h.h.h.h.h.h.h.h.h.h.h.h.h.h.h.5.5.5.5.5.5.5.5.x x x x x x x x ",
"h.h.h.h.h.h.h.h.h.h.h.h.h.h.h.h.h.h.h.h.h.h.h.h.h.h.h.h.h.h.h.h.5.5.5.5.5.5.5.5.x x x x x x x x ",
"h.h.h.h.h.h.h.h.h.h.h.h.h.h.h.h.h.h.h.h.h.h.h.h.h.h.h.h.h.h.h.h.5.5.5.5.5.5.5.5.x x x x x x x x ",
"h.h.h.h.h.h.h.h.h.h.h.h.h.h.9.g.g.9.h.h.h.h.h.h.h.h.h.h.h.h.9.g.5.5.5.5.5.5.5.5.x x x x x x x x ",
"h.h.h.h.h.h.h.h.h.h.h.h.h.h.8.8.8.8.h.h.h.h.h.h.h.h.h.h.5.5.5.) ) 5.5.5.5.5.5.5.x x x x x x x x ",
"h.h.h.h.h.h.h.h.h.h.h.h.g.8.h.h.h.h.8.8.9.8.8.8.8.8.8.9.) ) 5.5.5.5.) 5.5.5.5.5.x x x x x x x x ",
"h.h.h.h.h.h.h.h.h.h.h.9.h.h.8.7.7.8.h.h.h.h.h.h.h.h.h.h.5.5.5.) ) 5.5.5.5.5.5.5.x x x x x x x x ",
"h.h.h.h.h.h.h.h.h.h.h.7.h.h.R f g E h.h.h.h.h.h.h.h.h.h.5.5.L f f J 5.5.) 5.5.5.x x x x x x x x ",
"h.h.h.h.h.h.h.h.h.9.h.h.8.! j +.+.a ^ ! R ^ ^ ^ ^ ^ ^ R J K p +.+.h K ) 5.5.5.5.5.5.5.5.x x x x ",
"h.h.h.h.h.h.h.h.h.8.h.h.( = O.w.w.[ = * ; ; ; ; ; ; ; ; * = [ w.w.O.= P 5.5.) 5.5.5.5.5.x x x x ",
"h.h.h.h.h.h.h.g.8.f.8.G 2.k.j.q.y.t.:.:.>.>.>.1.1.1.>.>.:.:.t.u.u.i.1. .F ) 5.5.5.5.5.5.x x x x ",
"h.h.h.h.h.h.h.g.7.h.7.- 3.n.m.l.z.x.v.v.v.v.c.s.a.s.v.v.v.v.a.a.a.s.p.+.: ) 5.) 5.5.5.5.x x x x ",
"h.h.h.h.h.h.h.g.8.h.7.5 z S l.M.M.b.s.s.s.s.s.p.w.y.d.d.s.s.s.c.c.q.C z 4 ) 5.) 5.5.5.5.x x x x ",
"h.h.h.h.h.h.h.g.8.h.7.7 s c { 4.4.#.o.o...X.<.u.r.@.X.X.o.o.o.o.o.V c s 7 ) 5.) 5.5.5.5.x x x x ",
"h.h.h.h.h.h.h.g.8.h.7.5 z N % . o + + @ . # U e.e.U O   @ + + # . % N l 4 ) 5.) 5.5.5.5.x x x x ",
"h.h.h.h.h.h.h.g.8.h.7.5 z N %     o . o . . & 3 3 & .   o . + .   % N l 4 ) 5.) 5.5.5.5.x x x x ",
"h.h.h.h.h.h.h.g.8.h.7.5 l N % # @ & @ @ & @ +     + @ & @ @ & @ # % N l 4 ) 5.) 5.5.5.5.x x x x ",
"h.h.h.h.h.h.h.g.8.h.7.5 l N % X + @ @ @ @ @ @ @ @ @ @ @ @ @ @ + X % N l 4 ) 5.) 5.5.5.5.x x x x ",
"h.h.h.h.h.h.h.g.8.h.7.5 d M b % + . # # X X # # # # X X # # . + % b M d 5 ) 5.) 5.5.5.5.x x x x ",
"h.h.h.h.h.h.h.g.8.h.7.7 d M Z m $ @ & & & & & & & & & & & & @ $ m Z M d 5 ) 5.) 5.5.5.5.x x x x ",
"h.h.h.h.h.h.h.g.8.h.7.5 z C A M b b b b b b b b b b b b b b b b M A C z 4 ) 5.) 5.5.5.5.x x x x ",
"h.h.h.h.h.h.h.g.8.h.7.2 | %.D m v n n n n n n n n n n n n n n v m D %.| 1 ) 5.) 5.5.5.5.x x x x ",
"h.h.h.h.h.h.h.g.8.h.7.1 | <.0.B w > < < < < < < < < < < < < > w B 0.<.| , ) 5.) 5.5.5.5.x x x x ",
"h.h.h.h.h.h.h.g.8.h.7.2 | <.r.@.s w y y y y y y y y y y y y w s @.r.<.| 1 ) 5.) 5.5.5.5.x x x x ",
"h.h.h.h.h.h.h.g.8.h.7.2 | ,.y.&.' s l l l l l l l l l l l l s ' &.y.,.| 1 ) 5.) 5.5.5.5.x x x x ",
"h.h.h.h.h.h.h.g.8.h.7.2 | ,.y.%.` u k k k k k k k k k k k k u ` %.y.,.| 1 ) 5.) 5.5.5.5.x x x x ",
"h.h.h.h.h.h.h.g.7.h.7., +.w.y.$.s t y y y y y y y y y y y y t s $.y.w.+.: ) 5.) 5.5.5.5.x x x x ",
"h.h.h.h.h.h.h.g.8.g.7.9 } -.r.&.] l ' ' ' ' ' ' ' ' ' ' ' ' l ] &.r.-.} 6 ) 5.) 5.5.5.5.x x x x ",
"h.h.h.h.h.h.h.h.5.) 5.~ T i ;.r.w.&.*.*.*.*.*.*.*.*.*.*.*.*.&.w.r.;.i H ~ 5.) 5.5.5.5.5.x x x x ",
"h.h.h.h.h.h.h.h.5.5.5.5.6.0 } ;.;.=.=.=.=.=.=.=.=.=.=.=.=.=.=.;.;.} 8 Q 5.5.5.5.5.5.5.5.x x x x ",
"h.h.h.h.h.h.h.h.5.5.5.) h.h.Y r e ; ; ; ; ; ; ; ; ; ; ; ; ; ; e r q 5.5.) 5.5.5.5.5.5.5.x x x x ",
"h.h.h.h.h.h.h.h.5.5.5.) h.h._ / / / ^ ^ ^ ^ ^ ^ ^ ^ ^ ^ K K P L I W 5.5.) 5.5.5.5.5.5.5.x x x x ",
"h.h.h.h.h.h.h.h.h.h.h.h.9.7.h.h.h.h.h.h.h.h.h.h.h.h.h.h.h.h.h.h.5.5.) 5.5.5.5.5.x x x x x x x x ",
"h.h.h.h.h.h.h.h.h.h.h.h.h.h.h.h.h.h.h.h.h.h.h.h.h.h.h.h.h.h.h.h.5.5.5.5.5.5.5.5.x x x x x x x x ",
"h.h.h.h.h.h.h.h.h.h.h.h.h.h.f.8.8.8.8.8.8.8.8.8.8.8.8.8.8.8.8.8.) 5.5.5.5.5.5.5.x x x x x x x x ",
"h.h.h.h.h.h.h.h.h.h.h.h.h.h.h.h.h.h.h.h.h.h.h.h.h.h.h.h.h.h.h.h.5.5.5.5.5.5.5.5.x x x x x x x x ",
"h.h.h.h.h.h.h.h.h.h.h.h.h.h.h.h.h.h.h.h.5.5.5.5.h.h.h.h.h.h.h.h.h.h.h.h.5.5.5.5.x x x x x x x x ",
"h.h.h.h.h.h.h.h.h.h.h.h.h.h.h.h.h.h.h.h.5.5.5.5.h.h.h.h.h.h.h.h.h.h.h.h.5.5.5.5.x x x x x x x x ",
"h.h.h.h.h.h.h.h.h.h.h.h.h.h.h.h.h.h.h.h.5.5.5.5.h.h.h.h.h.h.h.h.h.h.h.h.5.5.5.5.x x x x x x x x ",
"h.h.h.h.h.h.h.h.h.h.h.h.h.h.h.h.h.h.h.h.5.5.5.5.h.h.h.h.h.h.h.h.h.h.h.h.5.5.5.5.x x x x x x x x ",
"h.h.h.h.h.h.h.h.h.h.h.h.h.h.h.h.h.h.h.h.h.h.h.h.h.h.h.h.h.h.h.h.h.h.h.h.5.5.5.5.5.5.5.5.x x x x ",
"h.h.h.h.h.h.h.h.h.h.h.h.h.h.h.h.h.h.h.h.h.h.h.h.h.h.h.h.h.h.h.h.h.h.h.h.5.5.5.5.5.5.5.5.x x x x ",
"h.h.h.h.h.h.h.h.h.h.h.h.h.h.h.h.h.h.h.h.h.h.h.h.h.h.h.h.h.h.h.h.h.h.h.h.5.5.5.5.5.5.5.5.x x x x ",
"h.h.h.h.h.h.h.h.h.h.h.h.h.h.h.h.h.h.h.h.h.h.h.h.h.h.h.h.h.h.h.h.h.h.h.h.5.5.5.5.5.5.5.5.x x x x "
};
