/* XPM */
static char *c4008b1c6c2d4e2fb55cf4f7d6f053dcTqBvoeexusyFQueU[] = {
/* columns rows colors chars-per-pixel */
"48 48 133 2 ",
"   c #673644",
".  c #6B3B43",
"X  c #6E3E48",
"o  c #703F43",
"O  c #6F4044",
"+  c #744444",
"@  c #7B4B45",
"#  c #704048",
"$  c #90603E",
"%  c #9A6A3B",
"&  c #855542",
"*  c #955445",
"=  c #9A5746",
"-  c #9E5C46",
";  c #93574A",
":  c #9B5649",
">  c #945D4B",
",  c #A15E47",
"<  c #94614C",
"1  c #9F6E49",
"2  c #966352",
"3  c #996451",
"4  c #966C50",
"5  c #9C6A55",
"6  c #977854",
"7  c #AB6546",
"8  c #A5604A",
"9  c #AD644D",
"0  c #B16240",
"q  c #B66B44",
"w  c #BB6F42",
"e  c #B26D4B",
"r  c #A9774F",
"t  c #BC7443",
"y  c #BE7949",
"u  c #AA6C57",
"i  c #AC6E58",
"p  c #AD7751",
"a  c #C07743",
"s  c #C37C44",
"d  c #C47D4A",
"f  c #78A158",
"g  c #BB842B",
"h  c #BD8537",
"j  c #BE8C33",
"k  c #BD8339",
"l  c #C28E34",
"z  c #C69133",
"x  c #CA9534",
"c  c #CB973F",
"v  c #C7983F",
"b  c #D39F3C",
"n  c #D5A42D",
"m  c #D2A233",
"M  c #D3A23E",
"N  c #DBAD3D",
"B  c #91834E",
"V  c #928354",
"C  c #949456",
"Z  c #949759",
"A  c #969C5A",
"S  c #B5844A",
"D  c #A28257",
"F  c #AA955D",
"G  c #A59E5E",
"H  c #A89D5F",
"J  c #A3A25F",
"K  c #A1B45F",
"L  c #A5A361",
"P  c #AAA563",
"I  c #A3BD62",
"U  c #B2BD68",
"Y  c #C78145",
"T  c #C98446",
"R  c #CF8D46",
"E  c #C88D4B",
"W  c #CA9E48",
"Q  c #C38353",
"!  c #C98452",
"~  c #C0895A",
"^  c #C49651",
"/  c #C69952",
"(  c #C99B52",
")  c #D79652",
"_  c #DB9058",
"`  c #DEAA4C",
"'  c #CDA25C",
"]  c #E2AB4D",
"[  c #E4B14C",
"{  c #E9B54F",
"}  c #EEBC4F",
"|  c #E4A755",
" . c #E7AE51",
".. c #E9AB56",
"X. c #E7AB59",
"o. c #E8AD59",
"O. c #ECB751",
"+. c #EDBB53",
"@. c #EEB35C",
"#. c #C48F65",
"$. c #DD9861",
"%. c #D3AD6E",
"&. c #A4C263",
"*. c #B4C66A",
"=. c #BDCD6E",
"-. c #BFD16F",
";. c #BFD370",
":. c #F0C347",
">. c #FFD54E",
",. c #F4C452",
"<. c #F9C751",
"1. c #FBCD52",
"2. c #F4C158",
"3. c #FED253",
"4. c #FFDA56",
"5. c #FFD35F",
"6. c #FFDA5A",
"7. c #FFE45E",
"8. c #FFEC5E",
"9. c #FFF15F",
"0. c #C0D26F",
"q. c #C0D470",
"w. c #FFD867",
"e. c #F6C073",
"r. c #FFE262",
"t. c #FFE564",
"y. c #FFEA62",
"u. c #FFEE60",
"i. c #FFF060",
"p. c #FFF36D",
"a. c #FFEB77",
"s. c #FFF971",
"d. c #FFF981",
/* pixels */
"f f f f &.&.&.&.&.&.&.&.q.q.q.q.q.q.q.q.q.q.q.q.q.q.q.q.q.q.q.q.q.q.q.q.&.&.&.&.&.&.&.&.f f f f ",
"f f f f &.&.&.&.&.&.&.&.q.q.q.q.q.q.q.q.q.q.q.q.q.q.q.q.q.q.q.q.q.q.q.q.&.&.&.&.&.&.&.&.f f f f ",
"f f f f &.&.&.&.&.&.&.&.q.q.q.q.q.q.q.q.q.q.q.q.q.q.q.q.q.q.q.q.q.q.q.q.&.&.&.&.&.&.&.&.f f f f ",
"f f f f &.&.&.&.&.&.&.&.q.q.q.q.q.q.q.q.q.q.q.q.q.q.q.q.q.q.q.q.q.q.q.q.&.&.&.&.&.&.&.&.f f f f ",
"f f f f &.&.&.&.&.&.&.&.q.q.q.q.q.q.q.q.q.q.q.q.q.q.q.q.q.q.q.q.q.q.q.q.&.&.&.&.&.&.&.&.f f f f ",
"f f f f &.&.&.&.&.&.&.&.q.q.q.q.q.q.q.q.q.q.q.q.q.q.q.q.q.q.q.q.q.q.q.q.&.&.&.&.&.&.&.&.f f f f ",
"f f f f &.&.&.&.&.&.&.&.q.q.q.q.q.q.q.q.q.q.q.q.q.q.q.q.q.q.q.q.q.q.q.q.&.&.&.&.&.&.&.&.f f f f ",
"f f f f &.&.&.&.&.&.&.&.q.q.;.q.q.;.q.q.q.q.q.q.q.q.q.q.q.q.;.q.q.;.q.q.&.&.&.&.&.&.&.&.f f f f ",
"f f f f &.&.&.&.&.&.&.&.q.q.-.-.-.-.q.q.q.q.q.q.q.q.q.q.q.q.-.-.I &.&.&.&.&.&.&.&.&.&.&.f f f f ",
"f f f f &.&.&.&.&.&.&.&.q.-.q.q.q.q.-.-.;.-.-.-.-.-.-.;.-.-.q.q.&.&.I &.&.&.&.&.&.&.&.&.f f f f ",
"f f f f &.&.&.&.&.&.&.&.q.q.-.=.=.-.q.q.q.q.q.q.q.q.q.q.q.q.-.=.I &.&.&.&.&.&.&.&.&.&.&.f f f f ",
"f f f f &.&.&.&.&.&.&.I q.q.G u i H q.q.q.q.q.q.q.q.q.q.q.q.H i u C &.&.I &.&.&.&.&.&.&.f f f f ",
"f f f f f f f f &.&.&.&.I C r _ _ r L J G L L L L L L G J L r _ _ p Z I &.&.&.&.f f f f f f f f ",
"f f f f f f f f &.I &.&.A = ) ,.,.E = * - - - - - - - - * = E ,.,.) = A &.&.I &.f f f f f f f f ",
"f f f f f f f f &.&.I B #.e.w.>.3.2.X.X.o.o.o.@.@.@.o.o.X.X.2.4.4.5.@.~ V I &.&.f f f f f f f f ",
"f f f f f f f f I &.I * $.a.s.r.t.y.i.i.i.i.u.8.7.8.i.i.i.i.7.7.7.8.6._ ; I &.I f f f f f f f f ",
"f f f f f f f f I &.I 3 d M r.d.d.p.8.8.8.8.8.6.,.3.9.9.8.8.8.u.u.>.b d 3 I &.I f f f f f f f f ",
"f f f f f f f f I &.I 5 t g W %.%.' ( ( ^ / +.4.1.` / / ( ( ( ( ( v g t 5 I &.I f f f f f f f f ",
"f f f f f f f f I &.I 2 d x % . o + + @ . # S <.<.S O   @ + + # . % x s 2 I &.I f f f f f f f f ",
"f f f f f f f f I &.I 2 d x %     o . o . . & 1 1 & .   o . + .   % x s 2 I &.I f f f f f f f f ",
"f f f f f f f f I &.I 2 s x % # @ & @ @ & @ +     + @ & @ @ & @ # % x s 2 I &.I f f f f f f f f ",
"f f f f f f f f I &.I 2 s x % X + @ @ @ @ @ @ @ @ @ @ @ @ @ @ + X % x s 2 I &.I f f f f f f f f ",
"f f f f f f f f I &.I 3 y z j % + . # # X X # # # # X X # # . + % j z y 3 I &.I f f f f f f f f ",
"f f f f f f f f I &.I 3 y z n l $ @ & & & & & & & & & & & & @ $ l n z y 3 I &.I f f f f f f f f ",
"f f f f &.&.&.&.I &.I 3 d b m z j j j j j j j j j j j j j j j j z m b d 3 I &.I &.&.&.&.f f f f ",
"f f f f &.&.&.&.I &.I < ! [ N l h k k k k k k k k k k k k k k h l N [ ! < I &.I &.&.&.&.f f f f ",
"f f f f &.&.&.&.I &.I > ! +.:.c 7 : , , , , , , , , , , , , : 7 c :.+.! > I &.I &.&.&.&.f f f f ",
"f f f f &.&.&.&.I &.I < ! +.1.` t 7 q q q q q q q q q q q q 7 t ` 1.+.! < I &.I &.&.&.&.f f f f ",
"f f f f &.&.&.&.I &.I < ! O.3.{ T t s s s s s s s s s s s s t T { 3.O.! < I &.I &.&.&.&.f f f f ",
"f f f f &.&.&.&.I &.I < ! O.3.[ Y w a a a a a a a a a a a a w Y [ 3.O.! < I &.I &.&.&.&.f f f f ",
"f f f f &.&.&.&.I &.I ; _ ,.3.] t 0 q q q q q q q q q q q q 0 t ] 3.,._ ; I &.I &.&.&.&.f f f f ",
"f f f f &.&.&.&.I &.I 4 Q  .1.{ R s T T T T T T T T T T T T s R { 1. .Q 4 I &.I &.&.&.&.f f f f ",
"f f f f &.&.&.&.&.I &.K F e ..1.,.{ } } } } } } } } } } } } { ,.1...e F K &.I &.&.&.&.&.f f f f ",
"f f f f &.&.&.&.&.&.&.&.*.6 Q ....| | | | | | | | | | | | | | ....Q 6 *.&.&.&.&.&.&.&.&.f f f f ",
"f f f f &.&.&.&.&.&.&.I q.q.D 9 8 - - - - - - - - - - - - - - 8 9 D q.q.I &.&.&.&.&.&.&.f f f f ",
"f f f f &.&.&.&.&.&.&.I q.q.U P P P L L L L L L Z Z Z Z L L P P P U q.q.I &.&.&.&.&.&.&.f f f f ",
"f f f f &.&.&.&.&.&.&.&.&.I &.&.q.q.q.q.q.q.q.q.q.q.q.q.q.q.q.q.q.q.=.;.&.&.&.&.&.&.&.&.f f f f ",
"f f f f &.&.&.&.&.&.&.&.&.&.&.&.q.q.q.q.q.q.q.q.q.q.q.q.q.q.q.q.q.q.q.q.&.&.&.&.&.&.&.&.f f f f ",
"f f f f &.&.&.&.&.&.&.&.&.&.&.I -.-.-.-.-.-.-.-.-.-.-.-.-.-.-.-.-.0.q.q.&.&.&.&.&.&.&.&.f f f f ",
"f f f f &.&.&.&.&.&.&.&.&.&.&.&.q.q.q.q.q.q.q.q.q.q.q.q.q.q.q.q.q.q.q.q.&.&.&.&.&.&.&.&.f f f f ",
"f f f f f f f f &.&.&.&.&.&.&.&.q.q.q.q.q.q.q.q.q.q.q.q.q.q.q.q.&.&.&.&.&.&.&.&.&.&.&.&.f f f f ",
"f f f f f f f f &.&.&.&.&.&.&.&.q.q.q.q.q.q.q.q.q.q.q.q.q.q.q.q.&.&.&.&.&.&.&.&.&.&.&.&.f f f f ",
"f f f f f f f f &.&.&.&.&.&.&.&.q.q.q.q.q.q.q.q.q.q.q.q.q.q.q.q.&.&.&.&.&.&.&.&.&.&.&.&.f f f f ",
"f f f f f f f f &.&.&.&.&.&.&.&.q.q.q.q.q.q.q.q.q.q.q.q.q.q.q.q.&.&.&.&.&.&.&.&.&.&.&.&.f f f f ",
"f f f f f f f f &.&.&.&.&.&.&.&.&.&.&.&.q.q.q.q.q.q.q.q.q.q.q.q.&.&.&.&.&.&.&.&.&.&.&.&.f f f f ",
"f f f f f f f f &.&.&.&.&.&.&.&.&.&.&.&.q.q.q.q.q.q.q.q.q.q.q.q.&.&.&.&.&.&.&.&.&.&.&.&.f f f f ",
"f f f f f f f f &.&.&.&.&.&.&.&.&.&.&.&.q.q.q.q.q.q.q.q.q.q.q.q.&.&.&.&.&.&.&.&.&.&.&.&.f f f f ",
"f f f f f f f f &.&.&.&.&.&.&.&.&.&.&.&.q.q.q.q.q.q.q.q.q.q.q.q.&.&.&.&.&.&.&.&.&.&.&.&.f f f f "
};
