/* XPM */
static char *_120636d3fa24ce6fb5b6af7eb297cbdL56PNzGkaLwlevyY[] = {
/* columns rows colors chars-per-pixel */
"48 48 142 2 ",
"   c #6E3E48",
".  c #744546",
"X  c #7A4A45",
"o  c #704048",
"O  c #92613C",
"+  c #9A6A3C",
"@  c #804D45",
"#  c #8F4D45",
"$  c #934E46",
"%  c #865741",
"&  c #8D5B43",
"*  c #965145",
"=  c #9A5746",
"-  c #9E5C46",
";  c #92574A",
":  c #9B5649",
">  c #925D4B",
",  c #995E4E",
"<  c #A35F46",
"1  c #94624D",
"2  c #99624F",
"3  c #966352",
"4  c #9A6552",
"5  c #966C50",
"6  c #9C6953",
"7  c #8F7051",
"8  c #9A7354",
"9  c #977854",
"0  c #9D7B55",
"q  c #A46146",
"w  c #AA6346",
"e  c #AA6A47",
"r  c #A5604A",
"t  c #AD644D",
"y  c #AE6A48",
"u  c #B16240",
"i  c #B56C44",
"p  c #BB6F42",
"a  c #B26D4B",
"s  c #B77144",
"d  c #BC7343",
"f  c #B5764D",
"g  c #B67849",
"h  c #BE7949",
"j  c #B67F54",
"k  c #C07743",
"l  c #C37B43",
"z  c #C87D42",
"x  c #C27D4D",
"c  c #78A158",
"v  c #B88A2E",
"b  c #BD8537",
"n  c #BE8C33",
"m  c #BD8339",
"M  c #C28E34",
"N  c #C69133",
"B  c #C99433",
"V  c #CC9A35",
"C  c #CB973F",
"Z  c #D39F3E",
"A  c #D5A42D",
"S  c #D2A233",
"D  c #DCA833",
"F  c #DBAD3D",
"G  c #948454",
"H  c #9F8B58",
"J  c #959458",
"K  c #929B59",
"L  c #9E995D",
"P  c #BD804E",
"I  c #A28257",
"U  c #AE8D5A",
"Y  c #B88155",
"T  c #BE8A5B",
"R  c #A1955B",
"E  c #AA955D",
"W  c #A59D5F",
"Q  c #B5945E",
"!  c #99A05A",
"~  c #9BAD5E",
"^  c #9AB55E",
"/  c #A1B45F",
"(  c #A6A461",
")  c #AAA563",
"_  c #A6A962",
"`  c #ACAE63",
"'  c #A3BD62",
"]  c #B2BD68",
"[  c #C78145",
"{  c #C98446",
"}  c #CF8D46",
"|  c #C2874B",
" . c #C78D4B",
".. c #C98F4B",
"X. c #C9904A",
"o. c #C38252",
"O. c #C98452",
"+. c #CE8B53",
"@. c #D28D55",
"#. c #CB9150",
"$. c #D79155",
"%. c #DC9F55",
"&. c #DC9459",
"*. c #DF9A5B",
"=. c #DDA84D",
"-. c #E2AB4D",
";. c #E8AD4F",
":. c #E5B24D",
">. c #E9B54F",
",. c #EEBD4F",
"<. c #E4A755",
"1. c #E7AE51",
"2. c #E9AB56",
"3. c #E9AE5A",
"4. c #EBB650",
"5. c #EEBA52",
"6. c #F0BE51",
"7. c #A4C263",
"8. c #B4C66A",
"9. c #B8C46A",
"0. c #BCCD6E",
"q. c #BED06E",
"w. c #BFD270",
"e. c #F0C347",
"r. c #F3C253",
"t. c #F4C151",
"y. c #F7C651",
"u. c #FACD52",
"i. c #FDD253",
"p. c #FFDC54",
"a. c #FFD45B",
"s. c #FFD05C",
"d. c #FFDA58",
"f. c #FFD85C",
"g. c #FFDD5D",
"h. c #FFE358",
"j. c #FFE459",
"k. c #FFE25D",
"l. c #FFE45E",
"z. c #C0D26F",
"x. c #C1D370",
"c. c #C0D470",
/* pixels */
"c c c c 7.7.7.7.7.7.7.7.c.c.q.0.0.0.0.0.0.0.0.0.0.0.0.0.0.0.0.0.0.q.c.c.c.c.c.c.c.c.c.c.c.c.c.c.",
"c c c c 7.7.7.7.7.7.7.7.x.w.c.c.c.c.c.c.c.c.c.c.c.c.c.c.c.c.c.c.c.c.w.x.c.c.c.c.c.c.c.c.c.c.c.c.",
"c c c c 7.7.7.7.7.7.7.7.c.c.q.0.0.0.0.0.0.0.0.0.0.0.0.0.0.0.0.0.0.q.c.c.w.c.c.c.c.c.c.c.c.c.c.c.",
"c c c c 7.7.7.7.7.7.7.' c.c.R 4 2 1 > > > > > > > > > > > > 1 2 4 R c.c.0.c.c.c.c.c.c.c.c.c.c.c.",
"c c c c c c c c 7.7.7.7.' J j *.&.+.@.@.@.@.@.@.@.@.@.@.@.@.+.&.*.Y ( q.7.7.7.7.c.c.c.c.c.c.c.c.",
"c c c c c c c c 7.' 7.7.K = 3.l.g.a.f.f.f.f.f.f.f.f.f.f.f.f.a.g.l.3.= _ 7.7.' 7.c.c.c.c.c.c.c.c.",
"c c c c c c c c 7.7.' G T 3.s.d.h.h.j.j.j.j.j.j.j.j.j.j.j.j.h.h.d.s.3.T G ' 7.7.x.c.c.c.c.c.c.c.",
"c c c c c c c c ' 7.' ; &.k.p.:.=.=.=.=.=.=.=.=.=.=.=.=.=.=.=.=.:.p.k.&.; ' 7.' x.c.c.c.c.c.c.c.",
"c c c c c c c c ' 7.' > @.r.p.:.g q y e e e e e e e e e e y q g :.p.r.@.1 0.c.q.x.c.c.c.c.c.c.c.",
"c c c c c c c c ' 7.' 1 O.>.4.| < $ = < w < < < < < < w < = $ < | 4.>.O.1 0.c.q.x.c.c.c.c.c.c.c.",
"c c c c c c c c ' 7.' > +.6...* - q q s l k k k k k k l s q q - * ..6.+.1 0.c.q.x.c.c.c.c.c.c.c.",
"c c c c c c c c ' 7.' > +.5. .* - q q w i l z l l z l i w q q - *  .5.+.1 0.c.q.x.c.c.c.c.c.c.c.",
"c c c c c c c c ' 7.' ; &.y.X.* - q < - q i s i i s i q - < q - * X.y.&.> 0.c.0.x.c.c.c.c.c.c.c.",
"c c c c c c c c ' 7.' > $.t...* - q < < < q q q q q q < < < q - * ..t.$.> 0.c.q.x.c.c.c.c.c.c.c.",
"c c c c c c c c 7.7.7.! U P %.#.y < w w q < < < < < < q w w < y #.%.P Q ` q.z.w.c.c.c.c.c.c.c.c.",
"c c c c c c c c 7.' 7.' J = ;.,.y # - - - - - - - - - - - - # y ,.;.= W 0.w.q.c.c.c.c.c.c.c.c.c.",
"c c c c 7.7.7.7.' 7.' 8 f b D V & o @ @ @ @ @ @ @ @ @ @ @ @ o & V D b f 0 0.x.q.x.c.c.c.c.c.c.c.",
"c c c c 7.7.7.7.' 7.' , @.V v O X o . . . . . . . . . . . . o X O v V @., 0.c.0.x.c.c.c.c.c.c.c.",
"c c c c 7.7.7.7.' 7.' 3 l B +   . X X X X X X X X X X X X X X .   + B l 4 0.c.q.x.c.c.c.c.c.c.c.",
"c c c c 7.7.7.7.' 7.' 3 l B +   . X X X X X X X X X X X X X X .   + B l 4 0.c.q.x.c.c.c.c.c.c.c.",
"c c c c 7.7.7.7.' 7.' 3 l B +   . X X X X X X X X X X X X X X .   + B l 4 0.c.q.x.c.c.c.c.c.c.c.",
"c c c c 7.7.7.7.' 7.' 3 l B +   . X X X X X X X X X X X X X X .   + B l 4 0.c.q.x.c.c.c.c.c.c.c.",
"c c c c 7.7.7.7.' 7.' 4 h N n + .   o o                 o o   . + n N h 6 0.c.q.x.c.c.c.c.c.c.c.",
"c c c c 7.7.7.7.' 7.' 4 h N A M O X % % % % % % % % % % % % X O M A N h 6 0.c.q.x.c.c.c.c.c.c.c.",
"c c c c 7.7.7.7.' 7.' 3 x Z S N n n n n n n n n n n n n n n n n N S Z x 4 0.c.q.x.c.c.c.c.c.c.c.",
"c c c c 7.7.7.7.' 7.' 1 O.:.F M b m m m m m m m m m m m m m m b M F :.O.2 0.c.q.x.c.c.c.c.c.c.c.",
"c c c c 7.7.7.7.' 7.' > O.5.e.C w : < < < < < < < < < < < < : w C e.5.O.1 0.c.q.x.c.c.c.c.c.c.c.",
"c c c c 7.7.7.7.' 7.' 1 O.5.u.=.d w i i i i i i i i i i i i w d =.u.5.O.1 0.c.q.x.c.c.c.c.c.c.c.",
"c c c c 7.7.7.7.' 7.' 1 O.4.i.>.{ d l l l l l l l l l l l l d { >.i.4.O.1 0.c.q.x.c.c.c.c.c.c.c.",
"c c c c 7.7.7.7.' 7.' 1 O.4.i.:.[ p k k k k k k k k k k k k p [ :.i.4.O.1 0.c.q.x.c.c.c.c.c.c.c.",
"c c c c 7.7.7.7.' 7.' ; &.y.i.-.d u i i i i i i i i i i i i u d -.i.y.&.; 0.c.0.x.c.c.c.c.c.c.c.",
"c c c c 7.7.7.7.' 7.' 5 o.1.u.>.} l { { { { { { { { { { { { l } >.u.1.o.8 0.x.q.x.c.c.c.c.c.c.c.",
"c c c c c c c c 7.' 7./ H a 2.u.r.>.,.,.,.,.,.,.,.,.,.,.,.,.>.r.u.2.a E 9.w.q.x.c.c.c.c.c.c.c.c.",
"c c c c c c c c 7.7.7.7.^ 7 o.2.2.<.<.<.<.<.<.<.<.<.<.<.<.<.<.2.2.o.9 8.c.c.z.c.c.c.c.c.c.c.c.c.",
"c c c c c c c c 7.7.7.' 7.7.0 t r - - - - - - - - - - - - - - r t I c.c.0.c.c.c.c.c.c.c.c.c.c.c.",
"c c c c c c c c 7.7.7.' 7.7.~ L ) ) ( ( ( ( ( ( ( ( ( ( ( ( ) ) ) ] c.c.q.c.c.c.c.c.c.c.c.c.c.c.",
"c c c c c c c c 7.7.7.7.7.' 7.7.c.c.c.c.c.c.c.c.c.c.c.c.c.c.c.c.c.c.0.w.c.c.c.c.c.c.c.c.c.c.c.c.",
"c c c c c c c c 7.7.7.7.7.7.7.7.c.c.c.c.c.c.c.c.c.c.c.c.c.c.c.c.c.c.c.c.c.c.c.c.c.c.c.c.c.c.c.c.",
"c c c c c c c c 7.7.7.7.7.7.7.' q.q.q.q.q.q.q.q.q.q.q.q.q.q.q.q.q.z.c.c.c.c.c.c.c.c.c.c.c.c.c.c.",
"c c c c c c c c 7.7.7.7.7.7.7.7.c.c.c.c.c.c.c.c.c.c.c.c.c.c.c.c.c.c.c.c.c.c.c.c.c.c.c.c.c.c.c.c.",
"c c c c 7.7.7.7.7.7.7.7.7.7.7.7.7.7.7.7.c.c.c.c.c.c.c.c.7.7.7.7.c.c.c.c.c.c.c.c.c.c.c.c.c.c.c.c.",
"c c c c 7.7.7.7.7.7.7.7.7.7.7.7.7.7.7.7.c.c.c.c.c.c.c.c.7.7.7.7.c.c.c.c.c.c.c.c.c.c.c.c.c.c.c.c.",
"c c c c 7.7.7.7.7.7.7.7.7.7.7.7.7.7.7.7.c.c.c.c.c.c.c.c.7.7.7.7.c.c.c.c.c.c.c.c.c.c.c.c.c.c.c.c.",
"c c c c 7.7.7.7.7.7.7.7.7.7.7.7.7.7.7.7.c.c.c.c.c.c.c.c.7.7.7.7.c.c.c.c.c.c.c.c.c.c.c.c.c.c.c.c.",
"c c c c 7.7.7.7.7.7.7.7.7.7.7.7.c.c.c.c.c.c.c.c.c.c.c.c.c.c.c.c.c.c.c.c.c.c.c.c.c.c.c.c.c.c.c.c.",
"c c c c 7.7.7.7.7.7.7.7.7.7.7.7.c.c.c.c.c.c.c.c.c.c.c.c.c.c.c.c.c.c.c.c.c.c.c.c.c.c.c.c.c.c.c.c.",
"c c c c 7.7.7.7.7.7.7.7.7.7.7.7.c.c.c.c.c.c.c.c.c.c.c.c.c.c.c.c.c.c.c.c.c.c.c.c.c.c.c.c.c.c.c.c.",
"c c c c 7.7.7.7.7.7.7.7.7.7.7.7.c.c.c.c.c.c.c.c.c.c.c.c.c.c.c.c.c.c.c.c.c.c.c.c.c.c.c.c.c.c.c.c."
};
