/* XPM */
static char *c4bf714327cd40df87e624eee877abc8flGnk3h9JWxsLk7d[] = {
/* columns rows colors chars-per-pixel */
"48 48 143 2 ",
"   c #AA5F3E",
".  c #AD613F",
"X  c #B36C3E",
"o  c #8F5B46",
"O  c #975142",
"+  c #9B5545",
"@  c #9E5C46",
"#  c #925549",
"$  c #915D4B",
"%  c #A25F44",
"&  c #AC5F42",
"*  c #95624E",
"=  c #98634F",
"-  c #926A4E",
";  c #96754F",
":  c #98744D",
">  c #8B6E50",
",  c #9A6753",
"<  c #966C50",
"1  c #977750",
"2  c #977854",
"3  c #997853",
"4  c #A36142",
"5  c #AE6540",
"6  c #A5604A",
"7  c #AD644D",
"8  c #B46441",
"9  c #B66B42",
"0  c #B46D4D",
"q  c #BC7345",
"w  c #B5724D",
"e  c #B47D4C",
"r  c #B46A51",
"t  c #BD7452",
"y  c #C07743",
"u  c #C37B44",
"i  c #C37F4E",
"p  c #C07953",
"a  c #78A158",
"s  c #BC8532",
"d  c #C28C2F",
"f  c #C78E37",
"g  c #CF9A3D",
"h  c #D6A733",
"j  c #D8AD38",
"k  c #9C8054",
"l  c #959759",
"z  c #A28257",
"x  c #A38758",
"c  c #A18D5A",
"v  c #AA955D",
"b  c #A19A5F",
"n  c #9DB35E",
"m  c #A1B45F",
"M  c #A6A461",
"N  c #AAA563",
"B  c #B1A767",
"V  c #A3BD62",
"C  c #B2BD68",
"Z  c #C98445",
"A  c #C68B47",
"S  c #CF8D46",
"D  c #C4804F",
"F  c #D68D4F",
"G  c #D19446",
"H  c #D5954A",
"J  c #D9924F",
"K  c #D99E4A",
"L  c #C28151",
"P  c #CA8552",
"I  c #CE8C55",
"U  c #D58C52",
"Y  c #D08E5C",
"T  c #DA9352",
"R  c #DE9A53",
"E  c #D7955F",
"W  c #DD925A",
"Q  c #E29E55",
"!  c #E49D59",
"~  c #D6A242",
"^  c #D8A345",
"/  c #DCA845",
"(  c #DAA250",
")  c #E3AD4D",
"_  c #E1B742",
"`  c #E5B846",
"'  c #EABE46",
"]  c #E6B04F",
"[  c #EDBC4F",
"{  c #E4A755",
"}  c #E6AE51",
"|  c #EAAB56",
" . c #E5A159",
".. c #EDA95F",
"X. c #EEB653",
"o. c #ECB851",
"O. c #F0B752",
"+. c #F1BA53",
"@. c #DCAB67",
"#. c #DDAD68",
"$. c #DFB068",
"%. c #E8A164",
"&. c #F1AB67",
"*. c #E3B469",
"=. c #F4B267",
"-. c #F7B56C",
";. c #FEBD6B",
":. c #A4C263",
">. c #B5C36A",
",. c #BECF6E",
"<. c #BFD16F",
"1. c #BFD370",
"2. c #F8D04E",
"3. c #F2C250",
"4. c #FBCC53",
"5. c #FAC65B",
"6. c #FDCD5B",
"7. c #FFD754",
"8. c #FFDB54",
"9. c #FFD55B",
"0. c #FFDF5C",
"q. c #FFE65C",
"w. c #FFE95F",
"e. c #FFF15F",
"r. c #C0D26F",
"t. c #C0D470",
"y. c #F1C865",
"u. c #F0C369",
"i. c #FED762",
"p. c #FBD16F",
"a. c #FFC373",
"s. c #FFDE73",
"d. c #FFE462",
"f. c #FFEA64",
"g. c #FFE16E",
"h. c #FFF461",
"j. c #FFF46D",
"k. c #FFED76",
"l. c #FFEE7A",
"z. c #FFF47A",
"x. c #FFF97B",
"c. c #FFF97E",
"v. c #FFF983",
/* pixels */
"a a a a :.:.:.:.:.:.:.:.t.t.t.t.t.t.t.t.t.t.t.t.t.t.t.t.t.t.t.t.t.t.t.t.:.:.:.:.:.:.:.:.a a a a ",
"a a a a :.:.:.:.:.:.:.:.t.t.t.t.t.t.t.t.t.t.t.t.t.t.t.t.t.t.t.t.t.t.t.t.:.:.:.:.:.:.:.:.a a a a ",
"a a a a :.:.:.:.:.:.:.:.t.t.t.t.t.t.t.t.t.t.t.t.t.t.t.t.t.t.t.t.t.t.t.t.:.:.:.:.:.:.:.:.a a a a ",
"a a a a :.:.:.:.:.:.:.:.t.t.t.t.t.t.t.t.t.t.t.t.t.t.t.t.t.t.t.t.t.t.t.t.:.:.:.:.:.:.:.:.a a a a ",
"a a a a :.:.:.:.:.:.:.:.t.t.t.t.t.t.t.t.t.t.t.t.t.t.t.t.t.t.t.t.t.t.t.t.:.:.:.:.:.:.:.:.a a a a ",
"a a a a :.:.:.:.:.:.:.:.t.t.t.t.t.t.t.t.t.t.t.t.t.t.t.t.t.t.t.t.t.t.t.t.:.:.:.:.:.:.:.:.a a a a ",
"a a a a :.:.:.:.:.:.:.:.t.t.t.t.t.t.t.t.t.t.t.t.t.t.t.t.t.t.t.t.t.t.t.t.:.:.:.:.:.:.:.:.a a a a ",
"a a a a :.:.:.:.:.:.:.:.t.t.t.t.t.t.t.t.t.t.t.t.t.t.t.t.t.t.t.t.t.t.t.t.:.:.:.:.:.:.:.:.a a a a ",
"a a a a :.:.:.:.:.:.:.:.t.t.t.t.t.t.t.t.t.t.t.t.t.t.t.t.t.t.t.t.:.:.:.:.:.:.:.:.:.:.:.:.a a a a ",
"a a a a :.:.:.:.:.:.:.:.t.t.r.<.<.r.t.t.t.t.t.t.t.t.t.t.t.t.r.<.V :.:.:.:.:.:.:.:.:.:.:.a a a a ",
"a a a a :.:.:.:.:.:.:.:.t.t.t.t.t.t.t.t.t.t.t.t.t.t.t.t.t.t.t.t.:.:.:.:.:.:.:.:.:.:.:.:.a a a a ",
"a a a a :.:.:.:.:.:.:.:.1.,.t.t.t.t.,.,.<.,.,.,.,.,.,.<.,.,.t.t.:.:.V :.:.:.:.:.:.:.:.:.a a a a ",
"a a a a a a a a :.:.:.V :.:.n b B >.t.t.t.t.t.t.t.t.t.t.t.t.>.B b n :.:.V :.:.:.a a a a a a a a ",
"a a a a a a a a :.:.:.V :.:.k r r x t.t.t.t.t.t.t.t.t.t.t.t.x r r k :.:.V :.:.:.a a a a a a a a ",
"a a a a a a a a :.:.:.:.n > L | | e 3 ; : ; 1 ; ; 1 ; : ; 3 e | | L > n :.:.:.:.a a a a a a a a ",
"a a a a a a a a :.V :.n c w | 8.8.( 0 r p t t t t t t p r 0 ( 8.8.| w c n :.V :.a a a a a a a a ",
"a a a a a a a a V :.V - I 5.0.0.q.+.T %.-.&.&.&.&.&.&.-.%.T +.q.0.0.5.I - V :.V a a a a a a a a ",
"a a a a a a a a V :.V # ! w.h.9.5.| Q ..;.a.a.a.a.a.a.;...Q | 5.9.h.w.! # V :.V a a a a a a a a ",
"a a a a a a a a V :.V $ I 9.e.6.R U T J Q =.-.=.=.-.=.Q J T U R 6.e.9.I $ V :.V a a a a a a a a ",
"a a a a a a a a V :.V $ I 9.h.6.R U R T R !  .! !  .! R T R U R 6.h.9.I $ V :.V a a a a a a a a ",
"a a a a a a a a V :.V $ I 9.e.6.Q U T T T F F F F F F T T T U Q 6.e.9.I $ V :.V a a a a a a a a ",
"a a a a a a a a V :.V $ U 9.e.6.Q U T T T T T T T T T T T T U Q 6.e.9.U $ V :.V a a a a a a a a ",
"a a a a a a a a V :.V o E k.j.4.+.X.+.+.O.+.+.+.+.+.+.+.+.+.X.+.4.j.k.E o V :.V a a a a a a a a ",
"a a a a a a a a V :.V o Y s.j.d.f.f.f.f.f.f.d.d.d.f.f.f.f.f.f.f.d.j.s.Y o V :.V a a a a a a a a ",
"a a a a :.:.:.:.V :.V , q g i.v.c.x.x.x.c.x.x.l.z.x.x.x.x.x.x.c.v.i.g q , V :.V :.:.:.:.a a a a ",
"a a a a :.:.:.:.V :.V , q d ` y.*.@.$.*.@.#.p.k.g.u.#.#.*.$.@.*.y.` d q , V :.V :.:.:.:.a a a a ",
"a a a a :.:.:.:.V :.V * D ^ h s 4 + @ 4 O + ( q.4.A + + % @ + 4 s h ^ D * V :.V :.:.:.:.a a a a ",
"a a a a :.:.:.:.V :.V = i ~ j f X & 5 8   . K 7.4.G .   8 5 & X f j ~ i = V :.V :.:.:.:.a a a a ",
"a a a a :.:.:.:.V :.V * i / _ ~ Z u u Z u u H ) ] H u u Z u u Z ~ _ / i * V :.V :.:.:.:.a a a a ",
"a a a a :.:.:.:.V :.V * P o.' g u q y y y y y u u u y y y y q u g ' o.P * V :.V :.:.:.:.a a a a ",
"a a a a :.:.:.:.V :.V # W 4.2.^ q 8 9 9 9 9 8 8 8 8 9 9 9 9 8 q ^ 2.4.W # V :.V :.:.:.:.a a a a ",
"a a a a :.:.:.:.V :.V < L } 4.[ S u Z Z Z Z Z Z Z Z Z Z Z Z u S [ 4.} L < V :.V :.:.:.:.a a a a ",
"a a a a :.:.:.:.:.V :.m v 0 | 4.3.[ [ [ [ [ [ [ [ [ [ [ [ [ [ 3.4.| 0 v m :.V :.:.:.:.:.a a a a ",
"a a a a :.:.:.:.:.:.:.:.>.2 L | | { { { { { { { { { { { { { { | | L 2 >.:.:.:.:.:.:.:.:.a a a a ",
"a a a a :.:.:.:.:.:.:.V t.t.z 7 6 @ @ @ @ @ @ @ @ @ @ @ @ @ @ 6 7 z t.t.V :.:.:.:.:.:.:.a a a a ",
"a a a a :.:.:.:.:.:.:.V t.t.C N N N M M M M M M l l l l M M N N N C t.t.V :.:.:.:.:.:.:.a a a a ",
"a a a a :.:.:.:.:.:.:.:.:.V :.:.t.t.t.t.t.t.t.t.t.t.t.t.t.t.t.t.t.t.,.1.:.:.:.:.:.:.:.:.a a a a ",
"a a a a :.:.:.:.:.:.:.:.:.:.:.:.t.t.t.t.t.t.t.t.t.t.t.t.t.t.t.t.t.t.t.t.:.:.:.:.:.:.:.:.a a a a ",
"a a a a :.:.:.:.:.:.:.:.:.:.:.V <.<.<.<.<.<.<.<.<.<.<.<.<.<.<.<.<.r.t.t.:.:.:.:.:.:.:.:.a a a a ",
"a a a a :.:.:.:.:.:.:.:.:.:.:.:.t.t.t.t.t.t.t.t.t.t.t.t.t.t.t.t.t.t.t.t.:.:.:.:.:.:.:.:.a a a a ",
"a a a a a a a a :.:.:.:.:.:.:.:.t.t.t.t.t.t.t.t.t.t.t.t.t.t.t.t.:.:.:.:.:.:.:.:.:.:.:.:.a a a a ",
"a a a a a a a a :.:.:.:.:.:.:.:.t.t.t.t.t.t.t.t.t.t.t.t.t.t.t.t.:.:.:.:.:.:.:.:.:.:.:.:.a a a a ",
"a a a a a a a a :.:.:.:.:.:.:.:.t.t.t.t.t.t.t.t.t.t.t.t.t.t.t.t.:.:.:.:.:.:.:.:.:.:.:.:.a a a a ",
"a a a a a a a a :.:.:.:.:.:.:.:.t.t.t.t.t.t.t.t.t.t.t.t.t.t.t.t.:.:.:.:.:.:.:.:.:.:.:.:.a a a a ",
"a a a a a a a a :.:.:.:.:.:.:.:.:.:.:.:.t.t.t.t.t.t.t.t.t.t.t.t.:.:.:.:.:.:.:.:.:.:.:.:.a a a a ",
"a a a a a a a a :.:.:.:.:.:.:.:.:.:.:.:.t.t.t.t.t.t.t.t.t.t.t.t.:.:.:.:.:.:.:.:.:.:.:.:.a a a a ",
"a a a a a a a a :.:.:.:.:.:.:.:.:.:.:.:.t.t.t.t.t.t.t.t.t.t.t.t.:.:.:.:.:.:.:.:.:.:.:.:.a a a a ",
"a a a a a a a a :.:.:.:.:.:.:.:.:.:.:.:.t.t.t.t.t.t.t.t.t.t.t.t.:.:.:.:.:.:.:.:.:.:.:.:.a a a a "
};
