/* XPM */
static char *_bed3fab54dc4b788c07a2dcbfdf5e4a8UpDXleVZ67H7mOV[] = {
/* columns rows colors chars-per-pixel */
"48 48 148 2 ",
"   c #673644",
".  c #6B3B43",
"X  c #6E3E48",
"o  c #703F43",
"O  c #6F4044",
"+  c #744444",
"@  c #7B4B45",
"#  c #704048",
"$  c #90603E",
"%  c #9A6A3B",
"&  c #855542",
"*  c #955445",
"=  c #9A5746",
"-  c #9E5C46",
";  c #92564A",
":  c #9B5649",
">  c #945C4B",
",  c #945E51",
"<  c #A15E47",
"1  c #95624D",
"2  c #98644E",
"3  c #9F6E49",
"4  c #83714F",
"5  c #966251",
"6  c #996552",
"7  c #966C50",
"8  c #9C6953",
"9  c #8F7051",
"0  c #847C52",
"q  c #887D53",
"w  c #9B7753",
"e  c #977854",
"r  c #AB6546",
"t  c #A5604A",
"y  c #AD644D",
"u  c #B16240",
"i  c #B66B44",
"p  c #BB6F42",
"a  c #B26D4B",
"s  c #A6744E",
"d  c #AC774F",
"f  c #BC7443",
"g  c #BE7949",
"h  c #A76656",
"j  c #AA6B57",
"k  c #AD7751",
"l  c #C07743",
"z  c #C37C44",
"x  c #C47D4A",
"c  c #7A9E57",
"v  c #7A9F58",
"b  c #79A057",
"n  c #78A158",
"m  c #BB842B",
"M  c #BD8537",
"N  c #BE8C33",
"B  c #BD8339",
"V  c #C28E34",
"C  c #C69133",
"Z  c #CA9534",
"A  c #CB973F",
"S  c #C7983F",
"D  c #D39F3C",
"F  c #D5A42D",
"G  c #D2A233",
"H  c #D3A23E",
"J  c #DBAD3D",
"K  c #91834E",
"L  c #9F8B58",
"P  c #939357",
"I  c #939659",
"U  c #9B9258",
"Y  c #969C5A",
"T  c #9E995D",
"R  c #B5844A",
"E  c #A28257",
"W  c #AA955D",
"Q  c #9BAD5E",
"!  c #9AB55E",
"~  c #A1B45F",
"^  c #A6A461",
"/  c #AAA563",
"(  c #A3BE62",
")  c #B2BD68",
"_  c #C78145",
"`  c #C98446",
"'  c #CF8D46",
"]  c #C88D4B",
"[  c #CA9E48",
"{  c #C38252",
"}  c #C98452",
"|  c #C0895A",
" . c #C49651",
".. c #C69952",
"X. c #C99B52",
"o. c #D79652",
"O. c #DB9058",
"+. c #DEAA4C",
"@. c #CDA25C",
"#. c #E2AB4D",
"$. c #E4B14C",
"%. c #E9B54F",
"&. c #EEBC4F",
"*. c #E4A755",
"=. c #E7AE51",
"-. c #E9AB56",
";. c #E7AB59",
":. c #E8AD59",
">. c #ECB751",
",. c #EDBB53",
"<. c #EEB35C",
"1. c #C48F65",
"2. c #DD9861",
"3. c #D3AD6E",
"4. c #A4C263",
"5. c #B4C66A",
"6. c #B8C46A",
"7. c #BCCD6E",
"8. c #BFD16F",
"9. c #BFD370",
"0. c #F0C347",
"q. c #FFD54E",
"w. c #F4C452",
"e. c #F9C751",
"r. c #FBCD52",
"t. c #F4C158",
"y. c #FED253",
"u. c #FFDA56",
"i. c #FFD35F",
"p. c #FFDA5A",
"a. c #FFE45E",
"s. c #FFEC5E",
"d. c #FFF15F",
"f. c #C0D26F",
"g. c #C0D470",
"h. c #FFD867",
"j. c #F6C073",
"k. c #FFE262",
"l. c #FFE564",
"z. c #FFEA62",
"x. c #FFED60",
"c. c #FFF160",
"v. c #FFF36D",
"b. c #FFEB77",
"n. c #FFF971",
"m. c #B1E0BE",
"M. c #FFF982",
"N. c #9BD4C3",
/* pixels */
"n n n n n n n n n n n n n n n n n n n n n n n n m.m.m.m.m.m.m.m.N.N.N.N.N.N.N.N.N.N.N.N.N.N.N.N.",
"n n n n n n n n n n n n n n n n n n n n n n n n m.m.m.m.m.m.m.m.N.N.N.N.N.N.N.N.N.N.N.N.N.N.N.N.",
"n n n n n n n n n n n n n n n n n n n n n n n n m.m.m.m.m.m.m.m.N.N.N.N.N.N.N.N.N.N.N.N.N.N.N.N.",
"n n n n n n n n n n n n n n n n n n n n n n n n m.m.m.m.m.m.m.m.N.N.N.N.N.N.N.N.N.N.N.N.N.N.N.N.",
"4.4.4.4.4.4.4.4.4.4.4.4.n n n n n n n n n n n n n n n n n n n n n n n n N.N.N.N.N.N.N.N.N.N.N.N.",
"4.4.4.4.4.4.4.4.4.4.4.4.n n n n n n n n n n n n n n n n n n n n n n n n N.N.N.N.N.N.N.N.N.N.N.N.",
"4.4.4.4.4.4.4.4.4.4.4.4.n n n n n n n n n n n n n n n n n n n n n n n n N.N.N.N.N.N.N.N.N.N.N.N.",
"4.4.4.4.4.4.4.4.4.4.4.4.n n n n n n n n n n n n n n n n n n n n n n n n N.N.N.N.N.N.N.N.N.N.N.N.",
"4.4.4.4.4.4.4.4.4.4.4.4.4.4.4.( ( 4.4.4.4.4.4.4.4.4.4.4.n n c v v c n n n n n n N.N.N.N.N.N.N.N.",
"4.4.4.4.4.4.4.4.4.4.4.4.4.( 4.4.4.4.( ( 4.( ( ( ( ( ( 4.v v n n n n v n n n n n N.N.N.N.N.N.N.N.",
"4.4.4.4.4.4.4.4.4.4.4.4.4.4.4.( ( 4.4.4.4.4.4.4.4.4.4.4.n n c c c c n n n n n n N.N.N.N.N.N.N.N.",
"4.4.4.4.4.4.4.4.4.4.4.( 4.4.P j j U 4.4.4.4.4.4.4.4.4.4.n n q h h 0 n n v n n n N.N.N.N.N.N.N.N.",
"4.4.4.4.4.4.4.4.4.4.4.4.( P d O.O.s I P P I I I I I I P P I s O.O.k I ( n n n n n n n n N.N.N.N.",
"4.4.4.4.4.4.4.4.4.( 4.4.Y = o.w.w.] = * - - - - - - - - * = ] w.w.o.= Y n n v n n n n n N.N.N.N.",
"4.4.4.4.4.4.4.4.4.4.( K 1.j.h.q.y.t.;.;.:.:.:.<.<.<.:.:.;.;.t.u.u.i.<.| 4 c n b n n n n N.N.N.N.",
"4.4.4.4.4.4.4.4.( 4.( * 2.b.n.k.l.z.c.c.c.c.x.s.a.s.c.c.c.c.a.a.a.s.p.O.; c n c n n n n N.N.N.N.",
"4.4.4.4.g.g.g.g.( 4.( 6 x H k.M.M.v.s.s.s.s.s.p.w.y.d.d.s.s.s.x.x.q.D x , c n c n n n n N.N.N.N.",
"4.4.4.4.g.g.g.g.( 4.( 8 f m [ 3.3.@.X.X. ...,.u.r.+.....X.X.X.X.X.S m f 5 c n c n n n n N.N.N.N.",
"4.4.4.4.g.g.g.g.( 4.( 5 x Z % . o + + @ . # R e.e.R O   @ + + # . % Z z , c n c n n n n N.N.N.N.",
"4.4.4.4.g.g.g.g.( 4.( 5 x Z %     o . o . . & 3 3 & .   o . + .   % Z z , c n c n n n n N.N.N.N.",
"g.g.g.g.g.g.g.g.8.g.7.6 z Z % # @ & @ @ & @ +     + @ & @ @ & @ # % Z z , c n c n n n n N.N.N.N.",
"g.g.g.g.g.g.g.g.8.g.7.6 z Z % X + @ @ @ @ @ @ @ @ @ @ @ @ @ @ + X % Z z , c n c n n n n N.N.N.N.",
"g.g.g.g.g.g.g.g.8.g.7.8 g C N % + . # # X X # # # # X X # # . + % N C g , c n c n n n n N.N.N.N.",
"g.g.g.g.g.g.g.g.8.g.7.8 g C F V $ @ & & & & & & & & & & & & @ $ V F C g 5 c n c n n n n N.N.N.N.",
"g.g.g.g.g.g.g.g.8.g.7.6 x D G C N N N N N N N N N N N N N N N N C G D x 5 ( 4.( n n n n n n n n ",
"g.g.g.g.g.g.g.g.8.g.7.2 } $.J V M B B B B B B B B B B B B B B M V J $.} 1 ( 4.( n n n n n n n n ",
"g.g.g.g.g.g.g.g.8.g.7.1 } ,.0.A r : < < < < < < < < < < < < : r A 0.,.} > ( 4.( n n n n n n n n ",
"g.g.g.g.g.g.g.g.8.g.7.1 } ,.r.+.f r i i i i i i i i i i i i r f +.r.,.} 1 ( 4.( n n n n n n n n ",
"g.g.g.g.g.g.g.g.8.g.7.1 } >.y.%.` f z z z z z z z z z z z z f ` %.y.>.} 1 ( 4.( n n n n n n n n ",
"g.g.g.g.g.g.g.g.8.g.7.1 } >.y.$._ p l l l l l l l l l l l l p _ $.y.>.} 1 ( 4.( n n n n n n n n ",
"g.g.g.g.g.g.g.g.7.g.7.> O.w.y.#.f u i i i i i i i i i i i i u f #.y.w.O.; ( 4.( n n n n n n n n ",
"g.g.g.g.g.g.g.g.8.g.7.w { =.r.%.' z ` ` ` ` ` ` ` ` ` ` ` ` z ' %.r.=.{ 7 ( 4.( n n n n n n n n ",
"4.4.4.4.g.g.g.g.g.8.9.6.W a -.r.w.%.&.&.&.&.&.&.&.&.&.&.&.&.%.w.r.-.a L ~ 4.( 4.4.4.4.4.n n n n ",
"4.4.4.4.g.g.g.g.g.f.g.g.5.e { -.-.*.*.*.*.*.*.*.*.*.*.*.*.*.*.-.-.{ 9 ! 4.4.4.4.4.4.4.4.n n n n ",
"4.4.4.4.g.g.g.g.g.g.g.7.g.g.E y t - - - - - - - - - - - - - - t y w 4.4.( 4.4.4.4.4.4.4.n n n n ",
"4.4.4.4.g.g.g.g.g.g.g.8.g.g.) / / / ^ ^ ^ ^ ^ ^ ^ ^ ^ ^ ^ ^ / / T Q 4.4.( 4.4.4.4.4.4.4.n n n n ",
"g.g.g.g.g.g.g.g.g.g.g.g.9.7.g.g.g.g.g.g.4.4.4.4.g.g.g.g.g.g.g.g.4.4.( 4.4.4.4.4.4.4.4.4.n n n n ",
"g.g.g.g.g.g.g.g.g.g.g.g.g.g.g.g.g.g.g.g.4.4.4.4.g.g.g.g.g.g.g.g.4.4.4.4.4.4.4.4.4.4.4.4.n n n n ",
"g.g.g.g.g.g.g.g.g.g.g.g.g.g.f.8.8.8.8.8.( ( ( ( 8.8.8.8.8.8.8.8.( 4.4.4.4.4.4.4.4.4.4.4.n n n n ",
"g.g.g.g.g.g.g.g.g.g.g.g.g.g.g.g.g.g.g.g.4.4.4.4.g.g.g.g.g.g.g.g.4.4.4.4.4.4.4.4.4.4.4.4.n n n n ",
"g.g.g.g.g.g.g.g.g.g.g.g.g.g.g.g.g.g.g.g.g.g.g.g.g.g.g.g.g.g.g.g.g.g.g.g.4.4.4.4.n n n n n n n n ",
"g.g.g.g.g.g.g.g.g.g.g.g.g.g.g.g.g.g.g.g.g.g.g.g.g.g.g.g.g.g.g.g.g.g.g.g.4.4.4.4.n n n n n n n n ",
"g.g.g.g.g.g.g.g.g.g.g.g.g.g.g.g.g.g.g.g.g.g.g.g.g.g.g.g.g.g.g.g.g.g.g.g.4.4.4.4.n n n n n n n n ",
"g.g.g.g.g.g.g.g.g.g.g.g.g.g.g.g.g.g.g.g.g.g.g.g.g.g.g.g.g.g.g.g.g.g.g.g.4.4.4.4.n n n n n n n n ",
"g.g.g.g.g.g.g.g.g.g.g.g.g.g.g.g.g.g.g.g.g.g.g.g.g.g.g.g.g.g.g.g.4.4.4.4.4.4.4.4.n n n n n n n n ",
"g.g.g.g.g.g.g.g.g.g.g.g.g.g.g.g.g.g.g.g.g.g.g.g.g.g.g.g.g.g.g.g.4.4.4.4.4.4.4.4.n n n n n n n n ",
"g.g.g.g.g.g.g.g.g.g.g.g.g.g.g.g.g.g.g.g.g.g.g.g.g.g.g.g.g.g.g.g.4.4.4.4.4.4.4.4.n n n n n n n n ",
"g.g.g.g.g.g.g.g.g.g.g.g.g.g.g.g.g.g.g.g.g.g.g.g.g.g.g.g.g.g.g.g.4.4.4.4.4.4.4.4.n n n n n n n n "
};
