/* XPM */
static char *_5861633591a47b0994d21652b99db5dnZsICz71rw3nDl0C[] = {
/* columns rows colors chars-per-pixel */
"48 48 149 2 ",
"   c #7F6D4D",
".  c #964C3D",
"X  c #984E3E",
"o  c #9D553E",
"O  c #A15A3F",
"+  c #AA6934",
"@  c #BE7F33",
"#  c #805A4B",
"$  c #905247",
"%  c #9B5241",
"&  c #975B47",
"*  c #9E5C46",
"=  c #88664D",
"-  c #806D4F",
";  c #86704F",
":  c #8D7E4E",
">  c #806F50",
",  c #897556",
"<  c #8F7D52",
"1  c #8D7758",
"2  c #937552",
"3  c #937B53",
"4  c #A96347",
"5  c #A2674D",
"6  c #AB654A",
"7  c #A66949",
"8  c #AB694A",
"9  c #BC6E42",
"0  c #B26E4B",
"q  c #BD7242",
"w  c #B8704F",
"e  c #BE7552",
"r  c #B47A56",
"t  c #B87E56",
"y  c #B17A60",
"u  c #C57E45",
"i  c #CA7D58",
"p  c #7C8B54",
"a  c #759454",
"s  c #7B9F57",
"d  c #7A9F59",
"f  c #7CA057",
"g  c #78A158",
"h  c #C5912D",
"j  c #CB8D3E",
"k  c #D8AA37",
"l  c #D7A63E",
"z  c #DBAF3A",
"x  c #DEB13E",
"c  c #8A8353",
"v  c #958255",
"b  c #958B56",
"n  c #968558",
"m  c #98865A",
"M  c #9B885C",
"N  c #97995A",
"B  c #9E9A5B",
"V  c #A28957",
"C  c #A18F59",
"Z  c #BD8457",
"A  c #BD8458",
"S  c #9BA75C",
"D  c #9BAB5C",
"F  c #9EB85F",
"G  c #A0A25B",
"H  c #A0A95E",
"J  c #A6A461",
"K  c #A4BE62",
"L  c #C68244",
"P  c #C88446",
"I  c #C78A44",
"U  c #CB8A47",
"Y  c #CE8C48",
"T  c #D48C4E",
"R  c #CD9241",
"E  c #D19546",
"W  c #D7904E",
"Q  c #D69C4C",
"!  c #DA9D4A",
"~  c #C08451",
"^  c #C18958",
"/  c #D58B51",
"(  c #D98F53",
")  c #DA8D5D",
"_  c #CA9652",
"`  c #DB9452",
"'  c #DE9A53",
"]  c #E39F53",
"[  c #E69D5B",
"{  c #D8A740",
"}  c #DDAE45",
"|  c #D8A04D",
" . c #DEB142",
".. c #DFA454",
"X. c #DAA659",
"o. c #EEBC4F",
"O. c #F0BE4E",
"+. c #E4A454",
"@. c #E4AA54",
"#. c #EAAE54",
"$. c #E9A55B",
"%. c #E3AE5C",
"&. c #EDB455",
"*. c #EBB950",
"=. c #EFB059",
"-. c #F2BA56",
";. c #F5BC5B",
":. c #DC9260",
">. c #EEAB63",
",. c #F0AD61",
"<. c #EBBC62",
"1. c #F8B76A",
"2. c #FCBB6D",
"3. c #A4C263",
"4. c #BFD16F",
"5. c #F0C847",
"6. c #F5C84F",
"7. c #FCCF4E",
"8. c #F2C050",
"9. c #FAC354",
"0. c #F7C951",
"q. c #FCCC56",
"w. c #FAC45C",
"e. c #FECB5C",
"r. c #FFD357",
"t. c #FFDE5B",
"y. c #FFE356",
"u. c #FFE15D",
"i. c #FFEE58",
"p. c #FFF05B",
"a. c #C0D470",
"s. c #FAC462",
"d. c #FFD760",
"f. c #FFC271",
"g. c #FFD578",
"h. c #FFE169",
"j. c #FFEC6C",
"k. c #FFF260",
"l. c #FFF965",
"z. c #FFF46F",
"x. c #FFF96F",
"c. c #FFEB74",
"v. c #FFE77A",
"b. c #FFEB7A",
"n. c #FFF772",
"m. c #FFF97D",
"M. c #B1E0BE",
"N. c #FFF281",
"B. c #9BD4C3",
/* pixels */
"B.B.B.B.B.B.B.B.B.B.B.B.B.B.B.B.g g g g g g g g g g g g M.M.M.M.B.B.B.B.B.B.B.B.B.B.B.B.B.B.B.B.",
"B.B.B.B.B.B.B.B.B.B.B.B.B.B.B.B.g g g g g g g g g g g g M.M.M.M.B.B.B.B.B.B.B.B.B.B.B.B.B.B.B.B.",
"B.B.B.B.B.B.B.B.B.B.B.B.B.B.B.B.g g g g g g g g g g g g M.M.M.M.B.B.B.B.B.B.B.B.B.B.B.B.B.B.B.B.",
"B.B.B.B.B.B.B.B.B.B.B.B.B.B.B.B.g g g g g g g g g g g g M.M.M.M.B.B.B.B.B.B.B.B.B.B.B.B.B.B.B.B.",
"B.B.B.B.B.B.B.B.B.B.B.B.g g g g g g g g g g g g g g g g g g g g g g g g B.B.B.B.B.B.B.B.B.B.B.B.",
"B.B.B.B.B.B.B.B.B.B.B.B.g g g g g g g g g g g g g g g g g g g g g g g g B.B.B.B.B.B.B.B.B.B.B.B.",
"B.B.B.B.B.B.B.B.B.B.B.B.g g g g g g g g g g g g g g g g g g g g g g g g B.B.B.B.B.B.B.B.B.B.B.B.",
"B.B.B.B.B.B.B.B.B.B.B.B.g g g g g g g g g g g g g g g g g g g g g g g g B.B.B.B.B.B.B.B.B.B.B.B.",
"B.B.B.B.B.B.B.B.g g g g g g g g 3.3.3.3.3.3.3.3.3.3.3.3.g g g g g g g g g g g g B.B.B.B.B.B.B.B.",
"B.B.B.B.B.B.B.B.g g g g g g g g 3.3.3.3.3.3.3.3.3.3.3.3.g g g g g g g g g g g g B.B.B.B.B.B.B.B.",
"B.B.B.B.B.B.B.B.g g g g g g g g 3.3.3.3.3.3.3.3.3.3.3.3.g g g g g g g g g g g g B.B.B.B.B.B.B.B.",
"B.B.B.B.B.B.B.B.g g g g g d d s 3.3.3.3.3.3.3.3.3.3.3.3.g g g g s d d g g g g g B.B.B.B.B.B.B.B.",
"M.M.M.M.g g g g g g g g 3.3.3.3.3.3.3.3.3.3.3.3.3.3.3.3.3.3.3.3.3.3.3.3.g g g g g g g g B.B.B.B.",
"M.M.M.M.g g g g g g g g 3.3.3.3.3.3.3.3.3.3.3.3.3.3.3.3.3.3.3.3.3.3.3.3.g g g g g g g g B.B.B.B.",
"M.M.M.M.g g g g g s f g F 2 y v 3.3.3.3.3.3.3.3.3.3.3.3.3.3.3.3.v y 2 F g f s g g g g g B.B.B.B.",
"M.M.M.M.g g g g g g g a C 0 ) 8 B D D S D D D D D D D D S D D B 8 ) 0 C a g g g g g g g B.B.B.B.",
"B.B.B.B.g g g g K 3.3.= e @.9.Q 7 $ & & & & & & & & & & & & $ 7 Q 9.@.e # g g s g g g g B.B.B.B.",
"B.B.B.B.g g g g K S V ~ ;.r.i.q./ i :.:.:.) ) ) ) ) ) :.:.:.i / q.i.r.;.~ 3 p s g g g g B.B.B.B.",
"B.B.B.B.g g d g 3.< 0 w.k.t.u.e.] [ 2.2.1.2.2.2.2.2.2.1.2.2.[ ] e.u.t.k.w.0 - g g d g g B.B.B.B.",
"B.B.B.B.g g d g 3.< w e.l.u.;.+.' [ $.$.,.2.f.2.2.f.2.,.$.$.[ ' +.;.u.l.e.w - g g d g g B.B.B.B.",
"B.B.B.B.g g d g g   8 ;.k.t.#./ ` ` W T ' >.>.>.>.>.>.' T W ` ` / #.t.k.;.8   g g d g g B.B.B.B.",
"B.B.B.B.g g d g g - 8 ;.k.u.&.` ` ' ` ` ` ' ' ' ' ' ' ` ` ` ' ` ` &.u.k.;.8 - g g d g g B.B.B.B.",
"B.B.B.B.g g d g g > 8 -.p.u.#./ / ` ( ( / / T / / T / / ( ( ` / / #.u.p.-.8 > g g d g g B.B.B.B.",
"B.B.B.B.g g d g g   8 s.l.t.&.' ' +.] ] ] +.+.+.+.+.+.] ] ] +.' ' &.t.l.s.8   g g d g g B.B.B.B.",
"g g g g g g d g g   8 g.m.t.0.q.q.q.q.q.q.q.q.r.q.q.q.q.q.q.q.q.q.0.t.m.g.8 : 3.g d g g g g g g ",
"g g g g g g d g g ; 6 %.h.c.n.x.x.x.x.x.x.x.z.j.j.z.x.x.x.x.x.x.x.n.c.h.%.6 v 3.g d g g g g g g ",
"g g g g g g d g g 1 4 @  .c.N.v.v.v.v.v.v.v.v.b.b.v.v.v.v.v.v.v.v.N.c. .@ 4 M 3.g d g g g g g g ",
"g g g g g g d g g , 6 j k } _ A A A A ^ t Z <.j.d.X.A Z ^ A A A A _ } k j 6 m 3.g d g g g g g g ",
"g g g g g g d g 3.v 6 Q z h + % o o o O . o | y.7.I o X O o o o % + h z Q 6 v 3.g d g g g g g g ",
"g g g g g g d g 3.n 6 E x l I q q q q q 9 q ! 0.0.! q 9 q q q q q I l x E 6 n 3.g d g g g g g g ",
"g g g g g g d g 3.3 e #.5.{ L 9 9 q q q 9 9 u U Y u 9 9 q q q 9 9 L { 5.#.e 3 3.g d g g g g g g ",
"g g g g g g g g 3.b 8 ' O.} R P P P P P P P P u u P P P P P P P P R } O.' 8 b 3.g g g g g g g g ",
"g g g g g g g g K K H 5 ` 8.6.*.o.o.o.o.o.o.o.o.o.o.o.o.o.o.o.o.*.6.8.` 5 H K K 3.3.3.3.g g g g ",
"g g g g g g g g K 3.3.c r ' =...+.+.+.+.+.+.@.@.@.@.+.+.+.+.+.+...=.' r c 3.3.K 3.3.3.3.g g g g ",
"g g g g g g g g 3.K 3.3.G * 6 * * * * * * * * * * * * * * * * * * 6 * G 3.3.K 3.3.3.3.3.g g g g ",
"g g g g g g g g 3.3.3.3.K N B N J J J J J J J J J J J J J J J J N B N K 3.3.3.3.3.3.3.3.g g g g ",
"g g g g 3.3.3.3.3.3.3.K 3.3.3.3.a.a.a.a.a.a.a.a.a.a.a.a.a.a.a.a.3.3.3.3.K 3.3.3.3.3.3.3.g g g g ",
"g g g g 3.3.3.3.3.3.3.3.3.3.3.3.a.a.a.a.a.a.a.a.a.a.a.a.a.a.a.a.3.3.3.3.3.3.3.3.3.3.3.3.g g g g ",
"g g g g 3.3.3.3.3.3.3.3.3.K K K 4.4.4.4.4.4.4.4.4.4.4.4.4.4.4.4.K K K 3.3.3.3.3.3.3.3.3.g g g g ",
"g g g g 3.3.3.3.3.3.3.3.3.3.3.3.a.a.a.a.a.a.a.a.a.a.a.a.a.a.a.a.3.3.3.3.3.3.3.3.3.3.3.3.g g g g ",
"g g g g 3.3.3.3.3.3.3.3.3.3.3.3.a.a.a.a.3.3.3.3.a.a.a.a.a.a.a.a.a.a.a.a.3.3.3.3.g g g g g g g g ",
"g g g g 3.3.3.3.3.3.3.3.3.3.3.3.a.a.a.a.3.3.3.3.a.a.a.a.a.a.a.a.a.a.a.a.3.3.3.3.g g g g g g g g ",
"g g g g 3.3.3.3.3.3.3.3.3.3.3.3.a.a.a.a.3.3.3.3.a.a.a.a.a.a.a.a.a.a.a.a.3.3.3.3.g g g g g g g g ",
"g g g g 3.3.3.3.3.3.3.3.3.3.3.3.a.a.a.a.3.3.3.3.a.a.a.a.a.a.a.a.a.a.a.a.3.3.3.3.g g g g g g g g ",
"g g g g 3.3.3.3.3.3.3.3.3.3.3.3.a.a.a.a.a.a.a.a.a.a.a.a.a.a.a.a.a.a.a.a.3.3.3.3.g g g g g g g g ",
"g g g g 3.3.3.3.3.3.3.3.3.3.3.3.a.a.a.a.a.a.a.a.a.a.a.a.a.a.a.a.a.a.a.a.3.3.3.3.g g g g g g g g ",
"g g g g 3.3.3.3.3.3.3.3.3.3.3.3.a.a.a.a.a.a.a.a.a.a.a.a.a.a.a.a.a.a.a.a.3.3.3.3.g g g g g g g g ",
"g g g g 3.3.3.3.3.3.3.3.3.3.3.3.a.a.a.a.a.a.a.a.a.a.a.a.a.a.a.a.a.a.a.a.3.3.3.3.g g g g g g g g "
};
