/* XPM */
static char *ee35b5d8d6754fc38614694795d5ec95LkIzHdGR6zAwrOSc[] = {
/* columns rows colors chars-per-pixel */
"48 48 148 2 ",
"   c #AA5F3E",
".  c #AD613F",
"X  c #B36C3E",
"o  c #8F5B46",
"O  c #975142",
"+  c #9B5545",
"@  c #9E5C46",
"#  c #915449",
"$  c #925C4C",
"%  c #A25F44",
"&  c #AC5F42",
"*  c #8F624E",
"=  c #96624F",
"-  c #98634F",
";  c #926A4E",
":  c #96754F",
">  c #98744D",
",  c #8B6E50",
"<  c #976252",
"1  c #9A6753",
"2  c #8F7051",
"3  c #977750",
"4  c #9A7A53",
"5  c #A36142",
"6  c #AE6540",
"7  c #A5604A",
"8  c #AD644D",
"9  c #B46441",
"0  c #B66B42",
"q  c #B46D4D",
"w  c #BC7345",
"e  c #B5724D",
"r  c #B47D4C",
"t  c #B46A51",
"y  c #BD7452",
"u  c #C07743",
"i  c #C37B44",
"p  c #C37F4E",
"a  c #C07953",
"s  c #7E9656",
"d  c #799D57",
"f  c #7A9E58",
"g  c #79A057",
"h  c #78A158",
"j  c #BC8532",
"k  c #C28C2F",
"l  c #C78E37",
"z  c #CF9A3D",
"x  c #D6A733",
"c  c #D8AD38",
"v  c #9C8054",
"b  c #9F8B58",
"n  c #959759",
"m  c #99975B",
"M  c #96985A",
"N  c #9E995D",
"B  c #A38758",
"V  c #A18D5A",
"C  c #A19A5F",
"Z  c #9BAD5E",
"A  c #9CB35E",
"S  c #B1A767",
"D  c #A3BE62",
"F  c #C98445",
"G  c #C68B47",
"H  c #CF8D46",
"J  c #C4804F",
"K  c #D68D4F",
"L  c #D19446",
"P  c #D5954A",
"I  c #D9924F",
"U  c #D99E4A",
"Y  c #C28151",
"T  c #CA8552",
"R  c #CE8C55",
"E  c #D58C52",
"W  c #D08E5C",
"Q  c #DA9352",
"!  c #DE9A53",
"~  c #D7955F",
"^  c #DD925A",
"/  c #E29E55",
"(  c #E49D59",
")  c #D6A242",
"_  c #D8A345",
"`  c #DCA845",
"'  c #DAA250",
"]  c #E3AD4D",
"[  c #E1B742",
"{  c #E5B846",
"}  c #EABE46",
"|  c #E6B04F",
" . c #EDBC4F",
".. c #E4A755",
"X. c #E6AE51",
"o. c #EAAB56",
"O. c #E5A159",
"+. c #EDA95F",
"@. c #EEB653",
"#. c #ECB851",
"$. c #F0B752",
"%. c #F1BA53",
"&. c #DCAB67",
"*. c #DDAD68",
"=. c #DFB068",
"-. c #E8A164",
";. c #F1AB67",
":. c #E3B469",
">. c #F4B267",
",. c #F7B56C",
"<. c #FEBD6B",
"1. c #A4C263",
"2. c #B6C06A",
"3. c #BFCF6E",
"4. c #BED06E",
"5. c #F8D04E",
"6. c #F2C250",
"7. c #FBCC53",
"8. c #FAC65B",
"9. c #FDCD5B",
"0. c #FFD754",
"q. c #FFDB54",
"w. c #FFD55B",
"e. c #FFDF5C",
"r. c #FFE65C",
"t. c #FFE95F",
"y. c #FFF15F",
"u. c #C0D26F",
"i. c #C0D470",
"p. c #F1C865",
"a. c #F0C369",
"s. c #FED762",
"d. c #FBD16F",
"f. c #FFC373",
"g. c #FFDE73",
"h. c #FFE462",
"j. c #FFEA64",
"k. c #FFE16E",
"l. c #FFF461",
"z. c #FFF46D",
"x. c #FFED76",
"c. c #FFEE7A",
"v. c #FFF47A",
"b. c #FFF97B",
"n. c #FFF97E",
"m. c #B1E0BE",
"M. c #FFF983",
"N. c #9BD4C3",
/* pixels */
"h h h h h h h h 1.1.1.1.i.i.i.i.i.i.i.i.i.i.i.i.i.i.i.i.i.i.i.i.1.1.1.1.1.1.1.1.1.1.1.1.h h h h ",
"h h h h h h h h 1.1.1.1.i.i.i.i.i.i.i.i.i.i.i.i.i.i.i.i.i.i.i.i.1.1.1.1.1.1.1.1.1.1.1.1.h h h h ",
"h h h h h h h h 1.1.1.1.i.i.i.i.i.i.i.i.i.i.i.i.i.i.i.i.i.i.i.i.1.1.1.1.1.1.1.1.1.1.1.1.h h h h ",
"h h h h h h h h 1.1.1.1.i.i.i.i.i.i.i.i.i.i.i.i.i.i.i.i.i.i.i.i.1.1.1.1.1.1.1.1.1.1.1.1.h h h h ",
"h h h h h h h h 1.1.1.1.i.i.i.i.i.i.i.i.1.1.1.1.i.i.i.i.i.i.i.i.1.1.1.1.1.1.1.1.1.1.1.1.h h h h ",
"h h h h h h h h 1.1.1.1.i.i.i.i.i.i.i.i.1.1.1.1.i.i.i.i.i.i.i.i.1.1.1.1.1.1.1.1.1.1.1.1.h h h h ",
"h h h h h h h h 1.1.1.1.i.i.i.i.i.i.i.i.1.1.1.1.i.i.i.i.i.i.i.i.1.1.1.1.1.1.1.1.1.1.1.1.h h h h ",
"h h h h h h h h 1.1.1.1.i.i.i.i.i.i.i.i.1.1.1.1.i.i.i.i.i.i.i.i.1.1.1.1.1.1.1.1.1.1.1.1.h h h h ",
"h h h h 1.1.1.1.1.1.1.1.1.1.1.1.i.i.i.i.i.i.i.i.i.i.i.i.1.1.1.1.1.1.1.1.1.1.1.1.1.1.1.1.h h h h ",
"h h h h 1.1.1.1.1.1.1.1.1.1.1.D 4.u.i.i.i.i.i.i.i.i.i.i.1.1.1.D D 1.1.1.1.1.1.1.1.1.1.1.h h h h ",
"h h h h 1.1.1.1.1.1.1.1.1.1.1.1.i.i.i.i.i.i.i.i.i.i.i.i.1.1.1.1.1.1.1.1.1.1.1.1.1.1.1.1.h h h h ",
"h h h h 1.1.1.1.1.1.1.1.1.D 1.1.i.i.3.3.4.3.3.3.3.3.3.4.D D 1.1.1.1.D 1.1.1.1.1.1.1.1.1.h h h h ",
"h h h h 1.1.1.1.1.1.1.D 1.1.A C S 2.i.i.i.i.i.i.i.i.i.i.i.i.2.S C A 1.1.D 1.1.1.h h h h h h h h ",
"h h h h 1.1.1.1.1.1.1.D 1.1.v t t B i.i.i.i.i.i.i.i.i.i.i.i.B t t v 1.1.D 1.1.1.h h h h h h h h ",
"h h h h 1.1.1.1.1.1.1.1.A , Y o.o.r 4 : > : 3 : : 3 : > : 4 r o.o.Y , A 1.1.1.1.h h h h h h h h ",
"h h h h 1.1.1.1.1.D 1.A V e o.q.q.' q t a y y y y y y a t q ' q.q.o.e V A 1.D 1.h h h h h h h h ",
"h h h h h h h h D 1.D ; R 8.e.e.r.%.Q -.,.;.;.;.;.;.;.,.-.Q %.r.e.e.8.R ; D 1.D h h h h h h h h ",
"h h h h h h h h D 1.D # ( t.l.w.8.o./ +.<.f.f.f.f.f.f.<.+./ o.8.w.l.t.( # D 1.D h h h h h h h h ",
"h h h h h h h h D 1.D $ R w.y.9.! E Q I / >.,.>.>.,.>./ I Q E ! 9.y.w.R $ D 1.D h h h h h h h h ",
"h h h h h h h h D 1.D $ R w.l.9.! E ! Q ! ( O.( ( O.( ! Q ! E ! 9.l.w.R $ D 1.D h h h h h h h h ",
"h h h h h h h h D 1.D $ R w.y.9./ E Q Q Q K K K K K K Q Q Q E / 9.y.w.R $ D 1.D h h h h h h h h ",
"h h h h h h h h D 1.D $ E w.y.9./ E Q Q Q Q Q Q Q Q Q Q Q Q E / 9.y.w.E $ D 1.D h h h h h h h h ",
"h h h h h h h h D 1.D o ~ x.z.7.%.@.%.%.$.%.%.%.%.%.%.%.%.%.@.%.7.z.x.~ o D 1.D h h h h h h h h ",
"h h h h h h h h D 1.D o W g.z.h.j.j.j.j.j.j.h.h.h.j.j.j.j.j.j.j.h.z.g.W o D 1.D h h h h h h h h ",
"N.N.N.N.h h h h D 1.D 1 w z s.M.n.b.b.b.n.b.b.c.v.b.b.b.b.b.b.n.M.s.z w < d h d h h h h N.N.N.N.",
"N.N.N.N.h h h h D 1.D 1 w k { p.:.&.=.:.&.*.d.x.k.a.*.*.:.=.&.:.p.{ k w < d h d h h h h N.N.N.N.",
"N.N.N.N.h h h h D 1.D = J _ x j 5 + @ 5 O + ' r.7.G + + % @ + 5 j x _ J $ d h d h h h h N.N.N.N.",
"N.N.N.N.h h h h D 1.D - p ) c l X & 6 9   . U 0.7.L .   9 6 & X l c ) p $ d h d h h h h N.N.N.N.",
"N.N.N.N.h h h h d h d $ p ` [ ) F i i F i i P ] | P i i F i i F ) [ ` p $ d h d h h h h N.N.N.N.",
"N.N.N.N.h h h h d h d $ T #.} z i w u u u u u i i i u u u u w i z } #.T $ d h d h h h h N.N.N.N.",
"N.N.N.N.h h h h d h d # ^ 7.5._ w 9 0 0 0 0 9 9 9 9 0 0 0 0 9 w _ 5.7.^ # d h d h h h h N.N.N.N.",
"N.N.N.N.h h h h g h d * Y X.7. .H i F F F F F F F F F F F F i H  .7.X.Y * d h g h h h h N.N.N.N.",
"N.N.N.N.h h h h h f h s b q o.7.6. . . . . . . . . . . . . . .6.7.o.q b s h f h h h h h N.N.N.N.",
"N.N.N.N.h h h h h h h h A 2 Y o.o.............................o.o.Y 2 A h h h h h h h h N.N.N.N.",
"N.N.N.N.h h h h h h h f 1.1.4 8 7 @ @ @ @ @ @ @ @ @ @ @ @ @ @ 7 8 4 1.1.f h h h h h h h N.N.N.N.",
"N.N.N.N.h h h h h h h f 1.1.Z N m M n n n n n n n n n n n n M m N Z 1.1.f h h h h h h h N.N.N.N.",
"N.N.N.N.N.N.N.N.h h h h h f h h 1.1.1.1.1.1.1.1.1.1.1.1.1.1.1.1.h h f h h h h h N.N.N.N.N.N.N.N.",
"N.N.N.N.N.N.N.N.h h h h h h h h 1.1.1.1.1.1.1.1.1.1.1.1.1.1.1.1.h h h h h h h h N.N.N.N.N.N.N.N.",
"N.N.N.N.N.N.N.N.h h h h h h h f D D D D D D D D D D D D D D D D f h h h h h h h N.N.N.N.N.N.N.N.",
"N.N.N.N.N.N.N.N.h h h h h h h h 1.1.1.1.1.1.1.1.1.1.1.1.1.1.1.1.h h h h h h h h N.N.N.N.N.N.N.N.",
"N.N.N.N.N.N.N.N.N.N.N.N.h h h h h h h h h h h h h h h h h h h h h h h h N.N.N.N.N.N.N.N.m.m.m.m.",
"N.N.N.N.N.N.N.N.N.N.N.N.h h h h h h h h h h h h h h h h h h h h h h h h N.N.N.N.N.N.N.N.m.m.m.m.",
"N.N.N.N.N.N.N.N.N.N.N.N.h h h h h h h h h h h h h h h h h h h h h h h h N.N.N.N.N.N.N.N.m.m.m.m.",
"N.N.N.N.N.N.N.N.N.N.N.N.h h h h h h h h h h h h h h h h h h h h h h h h N.N.N.N.N.N.N.N.m.m.m.m.",
"N.N.N.N.N.N.N.N.N.N.N.N.N.N.N.N.h h h h h h h h h h h h h h h h N.N.N.N.N.N.N.N.N.N.N.N.N.N.N.N.",
"N.N.N.N.N.N.N.N.N.N.N.N.N.N.N.N.h h h h h h h h h h h h h h h h N.N.N.N.N.N.N.N.N.N.N.N.N.N.N.N.",
"N.N.N.N.N.N.N.N.N.N.N.N.N.N.N.N.h h h h h h h h h h h h h h h h N.N.N.N.N.N.N.N.N.N.N.N.N.N.N.N.",
"N.N.N.N.N.N.N.N.N.N.N.N.N.N.N.N.h h h h h h h h h h h h h h h h N.N.N.N.N.N.N.N.N.N.N.N.N.N.N.N."
};
