/* XPM */
static char *d219f983e3d04b3ad647d442cd22170bKplGLZtMeit3jnQy[] = {
/* columns rows colors chars-per-pixel */
"48 48 144 2 ",
"   c #6E3E48",
".  c #744546",
"X  c #7A4A45",
"o  c #704048",
"O  c #92613C",
"+  c #9A6A3C",
"@  c #804D45",
"#  c #8F4D45",
"$  c #934E46",
"%  c #865741",
"&  c #8D5B43",
"*  c #8F5C4A",
"=  c #965145",
"-  c #9A5746",
";  c #9E5C46",
":  c #91564A",
">  c #9B5649",
",  c #925C4B",
"<  c #995E4E",
"1  c #A35F46",
"2  c #8F624E",
"3  c #95634E",
"4  c #99634F",
"5  c #966352",
"6  c #9A6552",
"7  c #9C6953",
"8  c #8F7051",
"9  c #9A7354",
"0  c #9C7B54",
"q  c #A46146",
"w  c #AA6346",
"e  c #AA6A47",
"r  c #A5604A",
"t  c #AD644D",
"y  c #AE6A48",
"u  c #B16240",
"i  c #B56C44",
"p  c #BB6F42",
"a  c #B26D4B",
"s  c #B77144",
"d  c #BC7343",
"f  c #B5764D",
"g  c #B67849",
"h  c #BE7949",
"j  c #B67F54",
"k  c #C07743",
"l  c #C37B43",
"z  c #C87D42",
"x  c #C27D4D",
"c  c #7E9656",
"v  c #799D57",
"b  c #7A9E58",
"n  c #79A057",
"m  c #78A158",
"M  c #B88A2E",
"N  c #BD8537",
"B  c #BE8C33",
"V  c #BD8339",
"C  c #C28E34",
"Z  c #C69133",
"A  c #C99433",
"S  c #CC9A35",
"D  c #CB973F",
"F  c #D39F3E",
"G  c #D5A42D",
"H  c #D2A233",
"J  c #DCA833",
"K  c #DBAD3D",
"L  c #948454",
"P  c #948A54",
"I  c #9F8B58",
"U  c #959759",
"Y  c #99975B",
"T  c #95995A",
"R  c #9E995D",
"E  c #BD804E",
"W  c #A08E59",
"Q  c #AE8D5A",
"!  c #B88155",
"~  c #BE8A5B",
"^  c #A59D5F",
"/  c #B5945E",
"(  c #99A05A",
")  c #9BAD5E",
"_  c #9AB55E",
"`  c #A5A560",
"'  c #A6A962",
"]  c #ACAE63",
"[  c #A3BE62",
"{  c #C78145",
"}  c #C98446",
"|  c #CF8D46",
" . c #C2874B",
".. c #C78D4B",
"X. c #C98F4B",
"o. c #C9904A",
"O. c #C38252",
"+. c #C98452",
"@. c #CE8B53",
"#. c #D28D55",
"$. c #CB9150",
"%. c #D79155",
"&. c #DC9F55",
"*. c #DC9459",
"=. c #DF9A5B",
"-. c #DDA84D",
";. c #E2AB4D",
":. c #E8AD4F",
">. c #E5B24D",
",. c #E9B54F",
"<. c #EEBD4F",
"1. c #E4A755",
"2. c #E7AE51",
"3. c #E9AB56",
"4. c #E9AE5A",
"5. c #EBB650",
"6. c #EEBA52",
"7. c #F0BE51",
"8. c #A4C263",
"9. c #B8C46A",
"0. c #BCCD6E",
"q. c #BED06E",
"w. c #BFD370",
"e. c #F0C347",
"r. c #F3C253",
"t. c #F4C151",
"y. c #F7C651",
"u. c #FACD52",
"i. c #FDD253",
"p. c #FFDC54",
"a. c #FFD45B",
"s. c #FFD05C",
"d. c #FFDA58",
"f. c #FFD85C",
"g. c #FFDD5D",
"h. c #FFE358",
"j. c #FFE459",
"k. c #FFE25D",
"l. c #FFE45E",
"z. c #C0D26F",
"x. c #C1D370",
"c. c #C0D470",
"v. c #B1E0BE",
"b. c #9BD4C3",
/* pixels */
"c.c.c.c.c.c.c.c.c.c.c.c.8.8.[ [ 0.0.0.0.0.0.0.0.0.0.0.0.[ [ [ [ [ [ 8.8.8.8.8.8.8.8.8.8.m m m m ",
"c.c.c.c.c.c.c.c.c.c.c.c.8.8.8.8.c.c.c.c.c.c.c.c.c.c.c.c.8.8.8.8.8.8.8.8.8.8.8.8.8.8.8.8.m m m m ",
"c.c.c.c.c.c.c.c.c.c.c.w.8.8.[ [ 0.0.0.0.0.0.0.0.0.0.0.0.[ [ [ [ [ [ 8.8.8.8.8.8.8.8.8.8.m m m m ",
"c.c.c.c.c.c.c.c.c.c.c.0.8.8.P 6 4 3 , , , , , , , , , , * * * < 6 P 8.8.[ 8.8.8.8.8.8.8.m m m m ",
"c.c.c.c.c.c.c.c.c.w.c.c.q.` ! =.*.@.#.#.#.#.#.#.#.#.#.#.#.#.@.*.=.j U [ 8.8.8.8.8.8.8.8.m m m m ",
"c.c.c.c.c.c.c.c.c.q.c.c.' - 4.l.g.a.f.f.f.f.f.f.f.f.f.f.f.f.a.g.l.4.- T 8.8.[ 8.8.8.8.8.m m m m ",
"c.c.c.c.c.c.c.x.q.z.q.W ~ 4.s.d.h.h.j.j.j.j.j.j.j.j.j.j.j.j.h.h.d.s.4.~ L [ 8.8.8.8.8.8.m m m m ",
"c.c.c.c.c.c.c.x.0.c.0., *.k.p.>.-.-.-.-.-.-.-.-.-.-.-.-.-.-.-.-.>.p.k.*.: [ 8.[ 8.8.8.8.m m m m ",
"c.c.c.c.c.c.c.x.q.c.0.3 #.r.p.>.g q y e e e e e e e e e e y q g >.p.r.#., [ 8.[ 8.8.8.8.m m m m ",
"c.c.c.c.c.c.c.x.q.c.0.3 +.,.5. .1 $ - 1 w 1 1 1 1 1 1 w 1 - $ 1  .5.,.+.3 [ 8.[ 8.8.8.8.m m m m ",
"c.c.c.c.c.c.c.x.q.c.0.3 @.7.X.= ; q q s l k k k k k k l s q q ; = X.7.@., [ 8.[ 8.8.8.8.m m m m ",
"c.c.c.c.c.c.c.x.q.c.0.3 @.6...= ; q q w i l z l l z l i w q q ; = ..6.@., [ 8.[ 8.8.8.8.m m m m ",
"c.c.c.c.c.c.c.x.0.c.0., *.y.o.= ; q 1 ; q i s i i s i q ; 1 q ; = o.y.*.: [ 8.[ m m m m m m m m ",
"c.c.c.c.c.c.c.x.q.c.0., %.t.X.= ; q 1 1 1 q q q q q q 1 1 1 q ; = X.t.%., [ 8.[ m m m m m m m m ",
"c.c.c.c.c.c.c.c.w.z.q.] / E &.$.y 1 w w q 1 1 1 1 1 1 q w w 1 y $.&.E Q ( 8.8.8.m m m m m m m m ",
"c.c.c.c.c.c.c.c.c.q.w.0.^ - :.<.y # ; ; ; ; ; ; ; ; ; ; ; ; # y <.:.- U [ 8.[ 8.m m m m m m m m ",
"c.c.c.c.c.c.c.x.q.x.0.0 f N J S & o @ @ @ @ @ @ @ @ @ @ @ @ o & S J N f 9 [ 8.[ m m m m m m m m ",
"c.c.c.c.c.c.c.x.0.c.0.< #.S M O X o . . . . . . . . . . . . o X O M S #.< [ 8.[ m m m m m m m m ",
"c.c.c.c.c.c.c.x.q.c.0.7 l A +   . X X X X X X X X X X X X X X .   + A l 5 [ 8.[ m m m m m m m m ",
"c.c.c.c.c.c.c.x.q.c.0.7 l A +   . X X X X X X X X X X X X X X .   + A l 5 [ 8.[ m m m m m m m m ",
"c.c.c.c.8.8.8.8.q.c.0.7 l A +   . X X X X X X X X X X X X X X .   + A l 5 [ 8.[ m m m m m m m m ",
"c.c.c.c.8.8.8.8.q.c.0.7 l A +   . X X X X X X X X X X X X X X .   + A l 5 [ 8.[ m m m m m m m m ",
"c.c.c.c.8.8.8.8.q.c.0.7 h Z B + .   o o                 o o   . + B Z h 7 [ 8.[ m m m m m m m m ",
"c.c.c.c.8.8.8.8.q.c.0.7 h Z G C O X % % % % % % % % % % % % X O C G Z h 7 [ 8.[ m m m m m m m m ",
"c.c.c.c.c.c.c.x.q.c.0.7 x F H Z B B B B B B B B B B B B B B B B Z H F x < v m v m m m m b.b.b.b.",
"c.c.c.c.c.c.c.x.q.c.0.4 +.>.K C N V V V V V V V V V V V V V V N C K >.+., v m v m m m m b.b.b.b.",
"c.c.c.c.c.c.c.x.q.c.0.3 +.6.e.D w > 1 1 1 1 1 1 1 1 1 1 1 1 > w D e.6.+., v m v m m m m b.b.b.b.",
"c.c.c.c.c.c.c.x.q.c.0.3 +.6.u.-.d w i i i i i i i i i i i i w d -.u.6.+., v m v m m m m b.b.b.b.",
"c.c.c.c.c.c.c.x.q.c.0.3 +.5.i.,.} d l l l l l l l l l l l l d } ,.i.5.+., v m v m m m m b.b.b.b.",
"c.c.c.c.c.c.c.x.q.c.0.3 +.5.i.>.{ p k k k k k k k k k k k k p { >.i.5.+., v m v m m m m b.b.b.b.",
"c.c.c.c.c.c.c.x.0.c.0., *.y.i.;.d u i i i i i i i i i i i i u d ;.i.y.*.: v m v m m m m b.b.b.b.",
"c.c.c.c.c.c.c.x.q.x.0.9 O.2.u.,.| l } } } } } } } } } } } } l | ,.u.2.O.2 v m n m m m m b.b.b.b.",
"8.8.8.8.c.c.c.c.x.q.w.9.I a 3.u.r.,.<.<.<.<.<.<.<.<.<.<.<.<.,.r.u.3.a I c m b m m m m m b.b.b.b.",
"8.8.8.8.c.c.c.c.c.z.c.c._ 8 O.3.3.1.1.1.1.1.1.1.1.1.1.1.1.1.1.3.3.O.8 _ m m m m m m m m b.b.b.b.",
"8.8.8.8.c.c.c.c.c.c.c.0.8.8.0 t r ; ; ; ; ; ; ; ; ; ; ; ; ; ; r t 0 8.8.b m m m m m m m b.b.b.b.",
"8.8.8.8.c.c.c.c.c.c.c.q.8.8.) R Y T U U U U U U U U U U U U T Y R ) 8.8.b m m m m m m m b.b.b.b.",
"8.8.8.8.8.8.8.8.8.8.8.8.8.[ 8.8.8.8.8.8.8.8.8.8.8.8.8.8.8.8.8.8.m m b m m m m m b.b.b.b.b.b.b.b.",
"8.8.8.8.8.8.8.8.8.8.8.8.8.8.8.8.8.8.8.8.8.8.8.8.8.8.8.8.8.8.8.8.m m m m m m m m b.b.b.b.b.b.b.b.",
"8.8.8.8.8.8.8.8.8.8.8.8.8.8.8.[ [ [ [ [ [ [ [ [ [ [ [ [ [ [ [ [ b m m m m m m m b.b.b.b.b.b.b.b.",
"8.8.8.8.8.8.8.8.8.8.8.8.8.8.8.8.8.8.8.8.8.8.8.8.8.8.8.8.8.8.8.8.m m m m m m m m b.b.b.b.b.b.b.b.",
"m m m m m m m m 8.8.8.8.8.8.8.8.m m m m m m m m m m m m m m m m m m m m b.b.b.b.b.b.b.b.v.v.v.v.",
"m m m m m m m m 8.8.8.8.8.8.8.8.m m m m m m m m m m m m m m m m m m m m b.b.b.b.b.b.b.b.v.v.v.v.",
"m m m m m m m m 8.8.8.8.8.8.8.8.m m m m m m m m m m m m m m m m m m m m b.b.b.b.b.b.b.b.v.v.v.v.",
"m m m m m m m m 8.8.8.8.8.8.8.8.m m m m m m m m m m m m m m m m m m m m b.b.b.b.b.b.b.b.v.v.v.v.",
"m m m m m m m m m m m m m m m m m m m m m m m m v.v.v.v.v.v.v.v.b.b.b.b.b.b.b.b.b.b.b.b.b.b.b.b.",
"m m m m m m m m m m m m m m m m m m m m m m m m v.v.v.v.v.v.v.v.b.b.b.b.b.b.b.b.b.b.b.b.b.b.b.b.",
"m m m m m m m m m m m m m m m m m m m m m m m m v.v.v.v.v.v.v.v.b.b.b.b.b.b.b.b.b.b.b.b.b.b.b.b.",
"m m m m m m m m m m m m m m m m m m m m m m m m v.v.v.v.v.v.v.v.b.b.b.b.b.b.b.b.b.b.b.b.b.b.b.b."
};
