/* XPM */
static char *_e8146711fc44b53b3eaeab909200f7dSf6dd6AjWGAQmV84[] = {
/* columns rows colors chars-per-pixel */
"48 48 142 2 ",
"   c #964C3D",
".  c #984E3E",
"X  c #9D553E",
"o  c #A15A3F",
"O  c #AA6934",
"+  c #BE7F33",
"@  c #905347",
"#  c #9B5241",
"$  c #975A45",
"%  c #9C5C46",
"&  c #88664D",
"*  c #8D7E4E",
"=  c #8F7D52",
"-  c #937552",
";  c #927B53",
":  c #A96347",
">  c #A2674D",
",  c #AB654A",
"<  c #A66A4A",
"1  c #AB694A",
"2  c #BC6E42",
"3  c #B26E4B",
"4  c #BD7242",
"5  c #B8704F",
"6  c #BE7552",
"7  c #B67C57",
"8  c #B87E56",
"9  c #B17A60",
"0  c #C57E45",
"q  c #CA7D58",
"w  c #7A9F59",
"e  c #78A158",
"r  c #C5912D",
"t  c #CB8D3E",
"y  c #D8AA37",
"u  c #D7A63E",
"i  c #DBAF3A",
"p  c #DEB13E",
"a  c #8D8253",
"s  c #938154",
"d  c #958B56",
"f  c #968558",
"g  c #98865A",
"h  c #9B885C",
"j  c #959759",
"k  c #A28957",
"l  c #A18F59",
"z  c #BD8457",
"x  c #BD8458",
"c  c #9BA75C",
"v  c #9BB25E",
"b  c #9EB85F",
"n  c #A0A95E",
"m  c #A6A461",
"M  c #AAA663",
"N  c #ADA861",
"B  c #B1AF64",
"V  c #A4BF62",
"C  c #B1BA67",
"Z  c #C68244",
"A  c #C88446",
"S  c #C78A44",
"D  c #CB8A47",
"F  c #CE8C48",
"G  c #D48C4E",
"H  c #CD9241",
"J  c #D19546",
"K  c #D7904E",
"L  c #D69C4C",
"P  c #DA9D4A",
"I  c #C08451",
"U  c #C18958",
"Y  c #D58B51",
"T  c #D98F53",
"R  c #DA8D5D",
"E  c #CA9652",
"W  c #DB9452",
"Q  c #DE9A53",
"!  c #E39F53",
"~  c #E69D5B",
"^  c #D8A740",
"/  c #DDAE45",
"(  c #D8A04D",
")  c #DEB142",
"_  c #DFA454",
"`  c #DAA659",
"'  c #EEBC4F",
"]  c #F0BE4E",
"[  c #E4A454",
"{  c #E4AA54",
"}  c #EAAE54",
"|  c #E9A55B",
" . c #E3AE5C",
".. c #EDB455",
"X. c #EBB950",
"o. c #EFB059",
"O. c #F2BA56",
"+. c #F5BC5B",
"@. c #DC9260",
"#. c #EEAB63",
"$. c #F0AD61",
"%. c #EBBC62",
"&. c #F8B76A",
"*. c #FCBB6D",
"=. c #A4C263",
"-. c #BDCF6E",
";. c #BFD16F",
":. c #BFD370",
">. c #F0C847",
",. c #F5C84F",
"<. c #FCCF4E",
"1. c #F2C050",
"2. c #FAC354",
"3. c #F7C951",
"4. c #FCCC56",
"5. c #FAC45C",
"6. c #FECB5C",
"7. c #FFD357",
"8. c #FFDE5B",
"9. c #FFE356",
"0. c #FFE15D",
"q. c #FFEE58",
"w. c #FFF05B",
"e. c #C0D26F",
"r. c #C0D470",
"t. c #FAC462",
"y. c #FFD760",
"u. c #FFC271",
"i. c #FFD578",
"p. c #FFE169",
"a. c #FFEC6C",
"s. c #FFF260",
"d. c #FFF965",
"f. c #FFF46F",
"g. c #FFF96F",
"h. c #FFEB74",
"j. c #FFE77A",
"k. c #FFE97A",
"l. c #FFED7A",
"z. c #FFF772",
"x. c #FFF97D",
"c. c #FFF281",
/* pixels */
"e e e e =.=.=.=.=.=.=.=.r.r.r.r.r.r.r.r.r.r.r.r.r.r.r.r.r.r.r.r.r.r.r.r.=.=.=.=.=.=.=.=.e e e e ",
"e e e e =.=.=.=.=.=.=.=.r.r.r.r.r.r.r.r.r.r.r.r.r.r.r.r.r.r.r.r.r.r.r.r.=.=.=.=.=.=.=.=.e e e e ",
"e e e e =.=.=.=.=.=.=.=.r.r.r.r.r.r.r.r.r.r.r.r.r.r.r.r.r.r.r.r.r.r.r.r.=.=.=.=.=.=.=.=.e e e e ",
"e e e e =.=.=.=.=.=.=.=.r.r.r.r.r.r.r.r.r.r.r.r.r.r.r.r.r.r.r.r.r.r.r.r.=.=.=.=.=.=.=.=.e e e e ",
"e e e e =.=.=.=.=.=.=.=.r.r.r.r.r.r.r.r.r.r.r.r.r.r.r.r.r.r.r.r.r.r.r.r.=.=.=.=.=.=.=.=.e e e e ",
"e e e e =.=.=.=.=.=.=.=.r.r.r.r.r.r.r.r.r.r.r.r.r.r.r.r.r.r.r.r.r.r.r.r.=.=.=.=.=.=.=.=.e e e e ",
"e e e e =.=.=.=.=.=.=.=.r.r.r.r.r.r.r.r.r.r.r.r.r.r.r.r.r.r.r.r.r.r.r.r.=.=.=.=.=.=.=.=.e e e e ",
"e e e e =.=.=.=.=.=.=.=.r.r.r.r.r.r.r.r.r.r.r.r.r.r.r.r.r.r.r.r.r.r.r.r.=.=.=.=.=.=.=.=.e e e e ",
"e e e e =.=.=.=.=.=.=.=.r.r.r.r.r.r.r.r.r.r.r.r.r.r.r.r.r.r.r.r.=.=.=.=.=.=.=.=.=.=.=.=.e e e e ",
"e e e e =.=.=.=.=.=.=.=.r.r.r.r.r.r.r.r.r.r.r.r.r.r.r.r.r.r.r.r.=.=.=.=.=.=.=.=.=.=.=.=.e e e e ",
"e e e e =.=.=.=.=.=.=.=.r.r.r.r.r.r.r.r.r.r.r.r.r.r.r.r.r.r.r.r.=.=.=.=.=.=.=.=.=.=.=.=.e e e e ",
"e e e e =.=.=.=.=.=.=.=.:.-.r.;.r.r.r.r.r.r.r.r.r.r.r.r.r.r.r.r.V V V =.=.=.=.=.=.=.=.=.e e e e ",
"e e e e e e e e =.=.=.=.=.=.=.=.r.e.;.;.e.e.e.e.e.e.e.e.;.;.e.r.=.=.=.=.=.=.=.=.e e e e e e e e ",
"e e e e e e e e =.=.=.=.=.=.=.=.r.e.e.e.e.e.e.e.e.e.e.e.e.e.e.r.=.=.=.=.=.=.=.=.e e e e e e e e ",
"e e e e e e e e =.V V =.b - 9 s r.r.r.r.r.r.r.r.r.r.r.r.r.r.r.r.s 9 - b =.V V =.e e e e e e e e ",
"e e e e e e e e =.=.=.v l 3 R 1 N C C C C C C C C C C C C C C N 1 R 3 l v =.=.=.e e e e e e e e ",
"e e e e e e e e V =.=.& 6 { 2.L < @ $ $ $ $ $ $ $ $ $ $ $ $ @ < L 2.{ 6 & =.=.V e e e e e e e e ",
"e e e e e e e e V c k I +.7.q.4.Y q @.@.@.R R R R R R @.@.@.q Y 4.q.7.+.I k c V e e e e e e e e ",
"e e e e e e w e =.= 3 5.s.8.0.6.! ~ *.*.&.*.*.*.*.*.*.*.*.*.~ ! 6.0.8.s.5.3 = =.e w e e e e e e ",
"e e e e e e w e =.= 5 6.d.0.+.[ Q ~ | | $.*.u.*.*.u.*.$.| | ~ Q [ +.0.d.6.5 = =.e w e e e e e e ",
"e e e e e e w e =.a 1 +.s.8.} Y W W K G Q #.#.#.#.#.#.Q G K W W Y } 8.s.+.1 a =.e w e e e e e e ",
"e e e e e e w e =.s 1 +.s.0...W W Q W W W Q Q Q Q Q Q W W W Q W W ..0.s.+.1 s =.e w e e e e e e ",
"e e e e e e w e =.s 1 O.w.0.} Y Y W T T Y Y G Y Y G Y Y T T W Y Y } 0.w.O.1 s =.e w e e e e e e ",
"e e e e e e w e =.a 1 t.d.8...Q Q [ ! ! ! [ [ [ [ [ [ ! ! ! [ Q Q ..8.d.t.1 a =.e w e e e e e e ",
"e e e e =.=.V =.=.* 1 i.x.8.3.4.4.4.4.4.4.4.4.7.4.4.4.4.4.4.4.4.4.3.8.x.i.1 * =.=.V =.=.e e e e ",
"e e e e =.=.V =.=.s ,  .p.h.z.g.g.g.g.g.g.g.f.a.a.f.g.g.g.g.g.g.g.z.h.p. ., s =.=.V =.=.e e e e ",
"e e e e =.=.V =.=.h : + ) h.c.j.j.j.j.k.j.j.k.l.l.k.j.j.j.j.j.j.j.c.h.) + : h =.=.V =.=.e e e e ",
"e e e e =.=.V =.=.g , t y / E x x x x U 8 z %.a.y.` x z U x x x x E / y t , g =.=.V =.=.e e e e ",
"e e e e =.=.V =.=.f , L i r O # X X X o   X ( 9.<.S X . o X X X # O r i L , f =.=.V =.=.e e e e ",
"e e e e =.=.V =.=.f , J p u S 4 4 4 4 4 2 4 P 3.3.P 4 2 4 4 4 4 4 S u p J , f =.=.V =.=.e e e e ",
"e e e e =.=.V =.=.; 6 } >.^ Z 2 2 4 4 4 2 2 0 D F 0 2 2 4 4 4 2 2 Z ^ >.} 6 ; =.=.V =.=.e e e e ",
"e e e e =.=.V =.=.d 1 Q ] / H A A A A A A A A 0 0 A A A A A A A A H / ] Q 1 d =.=.V =.=.e e e e ",
"e e e e =.=.=.=.V V n > W 1.,.X.' ' ' ' ' ' ' ' ' ' ' ' ' ' ' ' X.,.1.W > n V V =.=.=.=.e e e e ",
"e e e e =.=.=.=.V =.=.a 7 Q o._ [ [ [ [ [ [ { { { { [ [ [ [ [ [ _ o.Q 7 a =.=.V =.=.=.=.e e e e ",
"e e e e =.=.=.=.=.V =.=.B % , % % % % % % % % % % % % % % % % % % , % B =.=.V =.=.=.=.=.e e e e ",
"e e e e =.=.=.=.=.=.=.=.;.M M M m m m m m m m m j j j j m m m m M M M ;.=.=.=.=.=.=.=.=.e e e e ",
"e e e e =.=.=.=.=.=.=.V =.=.=.=.r.r.r.r.r.r.r.r.r.r.r.r.r.r.r.r.r.r.r.r.V =.=.=.=.=.=.=.e e e e ",
"e e e e =.=.=.=.=.=.=.=.=.=.=.=.r.r.r.r.r.r.r.r.r.r.r.r.r.r.r.r.r.r.r.r.=.=.=.=.=.=.=.=.e e e e ",
"e e e e =.=.=.=.=.=.=.=.=.V V V ;.;.;.;.;.;.;.;.;.;.;.;.;.;.;.;.;.;.;.r.=.=.=.=.=.=.=.=.e e e e ",
"e e e e =.=.=.=.=.=.=.=.=.=.=.=.r.r.r.r.r.r.r.r.r.r.r.r.r.r.r.r.r.r.r.r.=.=.=.=.=.=.=.=.e e e e ",
"e e e e e e e e =.=.=.=.=.=.=.=.r.r.r.r.r.r.r.r.r.r.r.r.r.r.r.r.=.=.=.=.=.=.=.=.=.=.=.=.e e e e ",
"e e e e e e e e =.=.=.=.=.=.=.=.r.r.r.r.r.r.r.r.r.r.r.r.r.r.r.r.=.=.=.=.=.=.=.=.=.=.=.=.e e e e ",
"e e e e e e e e =.=.=.=.=.=.=.=.r.r.r.r.r.r.r.r.r.r.r.r.r.r.r.r.=.=.=.=.=.=.=.=.=.=.=.=.e e e e ",
"e e e e e e e e =.=.=.=.=.=.=.=.r.r.r.r.r.r.r.r.r.r.r.r.r.r.r.r.=.=.=.=.=.=.=.=.=.=.=.=.e e e e ",
"e e e e e e e e =.=.=.=.=.=.=.=.=.=.=.=.r.r.r.r.r.r.r.r.r.r.r.r.=.=.=.=.=.=.=.=.=.=.=.=.e e e e ",
"e e e e e e e e =.=.=.=.=.=.=.=.=.=.=.=.r.r.r.r.r.r.r.r.r.r.r.r.=.=.=.=.=.=.=.=.=.=.=.=.e e e e ",
"e e e e e e e e =.=.=.=.=.=.=.=.=.=.=.=.r.r.r.r.r.r.r.r.r.r.r.r.=.=.=.=.=.=.=.=.=.=.=.=.e e e e ",
"e e e e e e e e =.=.=.=.=.=.=.=.=.=.=.=.r.r.r.r.r.r.r.r.r.r.r.r.=.=.=.=.=.=.=.=.=.=.=.=.e e e e "
};
