/* XPM */
static char *b6e40cce44e5419fa1b9ef2aed019078sxHWbl4xAdTdCEBw[] = {
/* columns rows colors chars-per-pixel */
"48 48 143 2 ",
"   c #673644",
".  c #6B3B43",
"X  c #6E3E48",
"o  c #703F43",
"O  c #6F4044",
"+  c #744444",
"@  c #7B4B45",
"#  c #704048",
"$  c #90603E",
"%  c #9A6A3B",
"&  c #855542",
"*  c #955445",
"=  c #9A5746",
"-  c #9E5C46",
";  c #93574A",
":  c #9B5649",
">  c #945C4B",
",  c #A15E47",
"<  c #95624D",
"1  c #98644E",
"2  c #9F6E49",
"3  c #966352",
"4  c #996652",
"5  c #966C50",
"6  c #9D6A54",
"7  c #8F7051",
"8  c #9B7253",
"9  c #977854",
"0  c #9B7B53",
"q  c #AB6546",
"w  c #A5604A",
"e  c #AD644D",
"r  c #B16240",
"t  c #B66B44",
"y  c #BB6F42",
"u  c #B26D4B",
"i  c #A9774F",
"p  c #BC7443",
"a  c #BE7949",
"s  c #AA6B57",
"d  c #AC6E58",
"f  c #AF7952",
"g  c #C07743",
"h  c #C37C44",
"j  c #C47D4A",
"k  c #78A158",
"l  c #BB842B",
"z  c #BD8537",
"x  c #BE8C33",
"c  c #BD8339",
"v  c #C28E34",
"b  c #C69133",
"n  c #CA9534",
"m  c #CB973F",
"M  c #C7983F",
"N  c #D39F3C",
"B  c #D5A42D",
"V  c #D2A233",
"C  c #D3A23E",
"Z  c #DBAD3D",
"A  c #91834E",
"S  c #9F8D59",
"D  c #949456",
"F  c #9B9258",
"G  c #969C59",
"H  c #9E995D",
"J  c #B5844A",
"K  c #A28257",
"L  c #AA955D",
"P  c #A59E5E",
"I  c #A89C5F",
"U  c #9BAD5E",
"Y  c #9AB55E",
"T  c #A3A25F",
"R  c #A1B45F",
"E  c #A5A461",
"W  c #AAA563",
"Q  c #A8A963",
"!  c #A3BD62",
"~  c #B2BD68",
"^  c #C78145",
"/  c #C98446",
"(  c #CF8D46",
")  c #C88D4B",
"_  c #CA9E48",
"`  c #C38252",
"'  c #C98452",
"]  c #C28C5B",
"[  c #C49651",
"{  c #C69952",
"}  c #C99B52",
"|  c #D79652",
" . c #DB9058",
".. c #DEAA4C",
"X. c #CDA25C",
"o. c #E2AB4D",
"O. c #E4B14C",
"+. c #E9B54F",
"@. c #EEBC4F",
"#. c #E4A755",
"$. c #E7AE51",
"%. c #E9AB56",
"&. c #E7AB59",
"*. c #E8AD59",
"=. c #ECB751",
"-. c #EDBB53",
";. c #EEB35C",
":. c #C48F65",
">. c #DD9861",
",. c #D3AD6E",
"<. c #A4C263",
"1. c #B4C66A",
"2. c #B8C46A",
"3. c #BCCD6E",
"4. c #BFD16F",
"5. c #BFD370",
"6. c #F0C347",
"7. c #FFD54E",
"8. c #F4C452",
"9. c #F9C751",
"0. c #FBCD52",
"q. c #F4C158",
"w. c #FED253",
"e. c #FFDA56",
"r. c #FFD35F",
"t. c #FFDA5A",
"y. c #FFE45E",
"u. c #FFEC5E",
"i. c #FFF15F",
"p. c #C0D26F",
"a. c #C1D370",
"s. c #C0D470",
"d. c #FFD867",
"f. c #F6C073",
"g. c #FFE262",
"h. c #FFE564",
"j. c #FFEA62",
"k. c #FFEE60",
"l. c #FFF060",
"z. c #FFF36D",
"x. c #FFEB77",
"c. c #FFF971",
"v. c #FFF982",
/* pixels */
"k k k k <.<.<.<.<.<.<.<.s.s.s.s.s.s.s.s.s.s.s.s.s.s.s.s.s.s.s.s.s.s.s.s.s.s.s.s.s.s.s.s.s.s.s.s.",
"k k k k <.<.<.<.<.<.<.<.s.s.s.s.s.s.s.s.s.s.s.s.s.s.s.s.s.s.s.s.s.s.s.s.s.s.s.s.s.s.s.s.s.s.s.s.",
"k k k k <.<.<.<.<.<.<.<.s.s.s.s.s.s.s.s.s.s.s.s.s.s.s.s.s.s.s.s.s.s.s.s.s.s.s.s.s.s.s.s.s.s.s.s.",
"k k k k <.<.<.<.<.<.<.<.s.s.s.s.s.s.s.s.s.s.s.s.s.s.s.s.s.s.s.s.s.s.s.s.s.s.s.s.s.s.s.s.s.s.s.s.",
"k k k k k k k k <.<.<.<.<.<.<.<.s.s.s.s.s.s.s.s.s.s.s.s.s.s.s.s.s.s.s.s.<.<.<.<.s.s.s.s.s.s.s.s.",
"k k k k k k k k <.<.<.<.<.<.<.<.s.s.s.s.s.s.s.s.s.s.s.s.s.s.s.s.s.s.s.s.<.<.<.<.s.s.s.s.s.s.s.s.",
"k k k k k k k k <.<.<.<.<.<.<.<.s.s.s.s.s.s.s.s.s.s.s.s.s.s.s.s.s.s.s.s.<.<.<.<.s.s.s.s.s.s.s.s.",
"k k k k k k k k <.<.<.<.<.<.<.<.a.5.s.s.s.s.s.s.s.s.s.s.s.s.5.a.a.5.s.s.<.<.<.<.s.s.s.s.s.s.s.s.",
"k k k k k k k k <.<.<.<.<.<.<.! ! <.<.<.s.s.s.s.s.s.s.s.s.s.4.4.4.4.s.s.s.s.s.s.s.s.s.s.s.s.s.s.",
"k k k k k k k k <.<.<.<.<.! <.<.<.<.! ! 5.4.4.4.4.4.4.5.4.4.s.s.s.s.4.a.s.s.s.s.s.s.s.s.s.s.s.s.",
"k k k k k k k k <.<.<.<.<.<.<.! ! <.<.<.s.s.s.s.s.s.s.s.s.s.4.3.3.4.s.s.5.s.s.s.s.s.s.s.s.s.s.s.",
"k k k k k k k k <.<.<.! <.<.F s s F <.<.s.s.s.s.s.s.s.s.s.s.I d d P s.s.3.s.s.s.s.s.s.s.s.s.s.s.",
"k k k k k k k k <.<.<.<.! D i  . .i E T P E E E E E E P T E i  . .f E 4.s.s.5.s.s.s.s.s.s.s.s.s.",
"k k k k k k k k <.! <.<.G = | 8.8.) = * - - - - - - - - * = ) 8.8.| = Q s.s.4.s.s.s.s.s.s.s.s.s.",
"k k k k k k k k <.<.! A :.f.d.7.w.q.&.&.*.*.*.;.;.;.*.*.&.&.q.e.e.r.;.] S 4.p.4.a.s.s.s.s.s.s.s.",
"k k k k k k k k ! <.! * >.x.c.g.h.j.l.l.l.l.k.u.y.u.l.l.l.l.y.y.y.u.t. .; 3.s.3.a.s.s.s.s.s.s.s.",
"k k k k <.<.<.<.! <.! 4 j C g.v.v.z.u.u.u.u.u.t.8.w.i.i.u.u.u.k.k.7.N j 4 3.s.4.a.s.s.s.s.s.s.s.",
"k k k k <.<.<.<.! <.! 6 p l _ ,.,.X.} } [ { -.e.0...{ { } } } } } M l p 6 3.s.4.a.s.s.s.s.s.s.s.",
"k k k k <.<.<.<.! <.! 3 j n % . o + + @ . # J 9.9.J O   @ + + # . % n h 4 3.s.4.a.s.s.s.s.s.s.s.",
"k k k k <.<.<.<.! <.! 3 j n %     o . o . . & 2 2 & .   o . + .   % n h 4 3.s.4.a.s.s.s.s.s.s.s.",
"k k k k <.<.<.<.! <.! 3 h n % # @ & @ @ & @ +     + @ & @ @ & @ # % n h 4 3.s.4.a.s.s.s.s.s.s.s.",
"k k k k <.<.<.<.! <.! 3 h n % X + @ @ @ @ @ @ @ @ @ @ @ @ @ @ + X % n h 4 3.s.4.a.s.s.s.s.s.s.s.",
"k k k k <.<.<.<.! <.! 4 a b x % + . # # X X # # # # X X # # . + % x b a 4 3.s.4.a.s.s.s.s.s.s.s.",
"k k k k <.<.<.<.! <.! 4 a b B v $ @ & & & & & & & & & & & & @ $ v B b a 6 3.s.4.a.s.s.s.s.s.s.s.",
"k k k k <.<.<.<.! <.! 3 j N V b x x x x x x x x x x x x x x x x b V N j 4 3.s.4.a.s.s.s.s.s.s.s.",
"k k k k <.<.<.<.! <.! < ' O.Z v z c c c c c c c c c c c c c c z v Z O.' 1 3.s.4.a.s.s.s.s.s.s.s.",
"k k k k <.<.<.<.! <.! > ' -.6.m q : , , , , , , , , , , , , : q m 6.-.' < 3.s.4.a.s.s.s.s.s.s.s.",
"k k k k <.<.<.<.! <.! < ' -.0...p q t t t t t t t t t t t t q p ..0.-.' 1 3.s.4.a.s.s.s.s.s.s.s.",
"k k k k <.<.<.<.! <.! < ' =.w.+./ p h h h h h h h h h h h h p / +.w.=.' 1 3.s.4.a.s.s.s.s.s.s.s.",
"k k k k <.<.<.<.! <.! < ' =.w.O.^ y g g g g g g g g g g g g y ^ O.w.=.' 1 3.s.4.a.s.s.s.s.s.s.s.",
"k k k k <.<.<.<.! <.! ;  .8.w.o.p r t t t t t t t t t t t t r p o.w.8. .; 3.s.3.a.s.s.s.s.s.s.s.",
"k k k k <.<.<.<.! <.! 5 ` $.0.+.( h / / / / / / / / / / / / h ( +.0.$.` 8 3.a.4.a.s.s.s.s.s.s.s.",
"k k k k k k k k <.! <.R S u %.0.8.+.@.@.@.@.@.@.@.@.@.@.@.@.+.8.0.%.u L 2.5.4.a.s.s.s.s.s.s.s.s.",
"k k k k k k k k <.<.<.<.Y 7 ` %.%.#.#.#.#.#.#.#.#.#.#.#.#.#.#.%.%.` 9 1.s.s.p.s.s.s.s.s.s.s.s.s.",
"k k k k k k k k <.<.<.! <.<.0 e w - - - - - - - - - - - - - - w e K s.s.3.s.s.s.s.s.s.s.s.s.s.s.",
"k k k k k k k k <.<.<.! <.<.U H W W E E E E E E E E E E E E W W W ~ s.s.4.s.s.s.s.s.s.s.s.s.s.s.",
"k k k k k k k k <.<.<.<.<.! <.<.s.s.s.s.s.s.s.s.s.s.s.s.s.s.s.s.s.s.3.5.s.s.s.s.s.s.s.s.s.s.s.s.",
"k k k k k k k k <.<.<.<.<.<.<.<.s.s.s.s.s.s.s.s.s.s.s.s.s.s.s.s.s.s.s.s.s.s.s.s.s.s.s.s.s.s.s.s.",
"k k k k k k k k <.<.<.<.<.<.<.! 4.4.4.4.4.4.4.4.4.4.4.4.4.4.4.4.4.p.s.s.s.s.s.s.s.s.s.s.s.s.s.s.",
"k k k k k k k k <.<.<.<.<.<.<.<.s.s.s.s.s.s.s.s.s.s.s.s.s.s.s.s.s.s.s.s.s.s.s.s.s.s.s.s.s.s.s.s.",
"k k k k <.<.<.<.<.<.<.<.<.<.<.<.<.<.<.<.s.s.s.s.s.s.s.s.<.<.<.<.s.s.s.s.s.s.s.s.s.s.s.s.s.s.s.s.",
"k k k k <.<.<.<.<.<.<.<.<.<.<.<.<.<.<.<.s.s.s.s.s.s.s.s.<.<.<.<.s.s.s.s.s.s.s.s.s.s.s.s.s.s.s.s.",
"k k k k <.<.<.<.<.<.<.<.<.<.<.<.<.<.<.<.s.s.s.s.s.s.s.s.<.<.<.<.s.s.s.s.s.s.s.s.s.s.s.s.s.s.s.s.",
"k k k k <.<.<.<.<.<.<.<.<.<.<.<.<.<.<.<.s.s.s.s.s.s.s.s.<.<.<.<.s.s.s.s.s.s.s.s.s.s.s.s.s.s.s.s.",
"k k k k <.<.<.<.<.<.<.<.<.<.<.<.s.s.s.s.s.s.s.s.s.s.s.s.s.s.s.s.s.s.s.s.s.s.s.s.s.s.s.s.s.s.s.s.",
"k k k k <.<.<.<.<.<.<.<.<.<.<.<.s.s.s.s.s.s.s.s.s.s.s.s.s.s.s.s.s.s.s.s.s.s.s.s.s.s.s.s.s.s.s.s.",
"k k k k <.<.<.<.<.<.<.<.<.<.<.<.s.s.s.s.s.s.s.s.s.s.s.s.s.s.s.s.s.s.s.s.s.s.s.s.s.s.s.s.s.s.s.s.",
"k k k k <.<.<.<.<.<.<.<.<.<.<.<.s.s.s.s.s.s.s.s.s.s.s.s.s.s.s.s.s.s.s.s.s.s.s.s.s.s.s.s.s.s.s.s."
};
