/* XPM */
static char *_3fa3b0907114f42ee2c94f0f4f16047r3dwJ0pkrfzRrMQL[] = {
/* columns rows colors chars-per-pixel */
"48 48 151 2 ",
"   c #AA5F3E",
".  c #AD613F",
"X  c #B36C3E",
"o  c #8F5B46",
"O  c #975142",
"+  c #9B5545",
"@  c #915D47",
"#  c #9E5C46",
"$  c #915549",
"%  c #925C4B",
"&  c #A25F44",
"*  c #AC5F42",
"=  c #94614C",
"-  c #98634F",
";  c #926A4E",
":  c #96754F",
">  c #98744D",
",  c #8B6E50",
"<  c #9A6651",
"1  c #966C50",
"2  c #9D6B55",
"3  c #8F7051",
"4  c #967551",
"5  c #9B7253",
"6  c #977854",
"7  c #9A7953",
"8  c #A36142",
"9  c #AE6540",
"0  c #A5604A",
"q  c #AD644D",
"w  c #B46441",
"e  c #B66B42",
"r  c #B46D4D",
"t  c #BC7345",
"y  c #B5724D",
"u  c #B47D4C",
"i  c #B46A51",
"p  c #BD7452",
"a  c #C07743",
"s  c #C37B44",
"d  c #C37F4E",
"f  c #C07953",
"g  c #78A158",
"h  c #BC8532",
"j  c #C28C2F",
"k  c #C78E37",
"l  c #CF9A3D",
"z  c #D6A733",
"x  c #D8AD38",
"c  c #9C8054",
"v  c #9F8B58",
"b  c #9E995D",
"n  c #A28257",
"m  c #A38758",
"M  c #A18D5A",
"N  c #AB965E",
"B  c #A19A5F",
"V  c #9BAD5E",
"C  c #9CB35E",
"Z  c #A1B45F",
"A  c #A6A461",
"S  c #AAA563",
"D  c #B1A767",
"F  c #A3BD62",
"G  c #B2BD68",
"H  c #C98445",
"J  c #C68B47",
"K  c #CF8D46",
"L  c #C4804F",
"P  c #D68D4F",
"I  c #D19446",
"U  c #D5954A",
"Y  c #D9924F",
"T  c #D99E4A",
"R  c #C28151",
"E  c #CA8552",
"W  c #CE8C55",
"Q  c #D58C52",
"!  c #D08E5C",
"~  c #DA9352",
"^  c #DE9A53",
"/  c #D7955F",
"(  c #DD925A",
")  c #E29E55",
"_  c #E49D59",
"`  c #D6A242",
"'  c #D8A345",
"]  c #DCA845",
"[  c #DAA250",
"{  c #E3AD4D",
"}  c #E1B742",
"|  c #E5B846",
" . c #EABE46",
".. c #E6B04F",
"X. c #EDBC4F",
"o. c #E4A755",
"O. c #E6AE51",
"+. c #EAAB56",
"@. c #E5A159",
"#. c #EDA95F",
"$. c #EEB653",
"%. c #ECB851",
"&. c #F0B752",
"*. c #F1BA53",
"=. c #DCAB67",
"-. c #DDAD68",
";. c #DFB068",
":. c #E8A164",
">. c #F1AB67",
",. c #E3B469",
"<. c #F4B267",
"1. c #F7B56C",
"2. c #FEBD6B",
"3. c #A4C263",
"4. c #B5C36A",
"5. c #B8C46A",
"6. c #BDCD6E",
"7. c #BFD16F",
"8. c #BFD370",
"9. c #F8D04E",
"0. c #F2C250",
"q. c #FBCC53",
"w. c #FAC65B",
"e. c #FDCD5B",
"r. c #FFD754",
"t. c #FFDB54",
"y. c #FFD55B",
"u. c #FFDF5C",
"i. c #FFE65C",
"p. c #FFE95F",
"a. c #FFF15F",
"s. c #C0D26F",
"d. c #C0D470",
"f. c #F1C865",
"g. c #F0C369",
"h. c #FED762",
"j. c #FBD16F",
"k. c #FFC373",
"l. c #FFDE73",
"z. c #FFE462",
"x. c #FFEA64",
"c. c #FFE16E",
"v. c #FFF461",
"b. c #FFF46D",
"n. c #FFED76",
"m. c #FFEE7A",
"M. c #FFF17A",
"N. c #FFF77B",
"B. c #FFF97B",
"V. c #FFF97E",
"C. c #FFF983",
/* pixels */
"g g g g 3.3.3.3.3.3.3.3.d.d.d.d.d.d.d.d.d.d.d.d.d.d.d.d.d.d.d.d.d.d.d.d.d.d.d.d.d.d.d.d.d.d.d.d.",
"g g g g 3.3.3.3.3.3.3.3.d.d.d.d.d.d.d.d.d.d.d.d.d.d.d.d.d.d.d.d.d.d.d.d.d.d.d.d.d.d.d.d.d.d.d.d.",
"g g g g 3.3.3.3.3.3.3.3.d.d.d.d.d.d.d.d.d.d.d.d.d.d.d.d.d.d.d.d.d.d.d.d.d.d.d.d.d.d.d.d.d.d.d.d.",
"g g g g 3.3.3.3.3.3.3.3.d.d.d.d.d.d.d.d.d.d.d.d.d.d.d.d.d.d.d.d.d.d.d.d.d.d.d.d.d.d.d.d.d.d.d.d.",
"g g g g g g g g 3.3.3.3.3.3.3.3.d.d.d.d.d.d.d.d.d.d.d.d.d.d.d.d.d.d.d.d.3.3.3.3.d.d.d.d.d.d.d.d.",
"g g g g g g g g 3.3.3.3.3.3.3.3.d.d.d.d.d.d.d.d.d.d.d.d.d.d.d.d.d.d.d.d.3.3.3.3.d.d.d.d.d.d.d.d.",
"g g g g g g g g 3.3.3.3.3.3.3.3.d.d.d.d.d.d.d.d.d.d.d.d.d.d.d.d.d.d.d.d.3.3.3.3.d.d.d.d.d.d.d.d.",
"g g g g g g g g 3.3.3.3.3.3.3.3.d.d.d.d.d.d.d.d.d.d.d.d.d.d.d.d.d.d.d.d.3.3.3.3.d.d.d.d.d.d.d.d.",
"g g g g g g g g 3.3.3.3.3.3.3.3.3.3.3.3.d.d.d.d.d.d.d.d.d.d.d.d.d.d.d.d.d.d.d.d.d.d.d.d.d.d.d.d.",
"g g g g g g g g 3.3.3.3.3.3.3.F F 3.3.3.d.d.d.d.d.d.d.d.d.d.s.7.7.s.d.d.d.d.d.d.d.d.d.d.d.d.d.d.",
"g g g g g g g g 3.3.3.3.3.3.3.3.3.3.3.3.d.d.d.d.d.d.d.d.d.d.d.d.d.d.d.d.d.d.d.d.d.d.d.d.d.d.d.d.",
"g g g g g g g g 3.3.3.3.3.F 3.3.3.3.F F 7.6.6.6.6.6.6.7.6.6.d.d.d.d.6.8.d.d.d.d.d.d.d.d.d.d.d.d.",
"g g g g g g g g 3.3.3.F 3.3.C B D 4.d.d.d.d.d.d.d.d.d.d.d.d.4.D D 4.d.d.7.d.d.d.d.d.d.d.d.d.d.d.",
"g g g g g g g g 3.3.3.F 3.3.c i i m d.d.d.d.d.d.d.d.d.d.d.d.m i i m d.d.6.d.d.d.d.d.d.d.d.d.d.d.",
"g g g g g g g g 3.3.3.3.C , R +.+.u 7 : > : 4 : : 4 : > : 7 u +.+.R 4 4.d.d.s.d.d.d.d.d.d.d.d.d.",
"g g g g g g g g 3.F 3.C M y +.t.t.[ r i f p p p p p p f i r [ t.t.+.y N 4.8.7.d.d.d.d.d.d.d.d.d.",
"g g g g 3.3.3.3.F 3.F ; W w.u.u.i.*.~ :.1.>.>.>.>.>.>.1.:.~ *.i.u.u.w.W 4 6.d.7.d.d.d.d.d.d.d.d.",
"g g g g 3.3.3.3.F 3.F $ _ p.v.y.w.+.) #.2.k.k.k.k.k.k.2.#.) +.w.y.v.p._ $ 6.d.6.d.d.d.d.d.d.d.d.",
"g g g g 3.3.3.3.F 3.F % W y.a.e.^ Q ~ Y ) <.1.<.<.1.<.) Y ~ Q ^ e.a.y.W = 6.d.7.d.d.d.d.d.d.d.d.",
"g g g g 3.3.3.3.F 3.F % W y.v.e.^ Q ^ ~ ^ _ @._ _ @._ ^ ~ ^ Q ^ e.v.y.W = 6.d.7.d.d.d.d.d.d.d.d.",
"g g g g 3.3.3.3.F 3.F % W y.a.e.) Q ~ ~ ~ P P P P P P ~ ~ ~ Q ) e.a.y.W = 6.d.7.d.d.d.d.d.d.d.d.",
"g g g g 3.3.3.3.F 3.F % Q y.a.e.) Q ~ ~ ~ ~ ~ ~ ~ ~ ~ ~ ~ ~ Q ) e.a.y.Q = 6.d.7.d.d.d.d.d.d.d.d.",
"g g g g 3.3.3.3.F 3.F o / n.b.q.*.$.*.*.&.*.*.*.*.*.*.*.*.*.$.*.q.b.n./ @ 6.d.7.d.d.d.d.d.d.d.d.",
"g g g g 3.3.3.3.F 3.F o ! l.b.z.x.x.x.x.x.x.z.z.z.x.x.x.x.x.x.x.z.b.l.! = 6.d.7.d.d.d.d.d.d.d.d.",
"g g g g 3.3.3.3.F 3.F < t l h.C.V.B.B.B.V.B.N.m.M.N.B.B.B.B.B.V.C.h.l t 2 6.d.7.d.d.d.d.d.d.d.d.",
"g g g g 3.3.3.3.F 3.F < t j | f.,.=.;.,.=.-.j.n.c.g.-.-.,.;.=.,.f.| j t 2 6.d.7.d.d.d.d.d.d.d.d.",
"g g g g 3.3.3.3.F 3.F = L ' z h 8 + # 8 O + [ i.q.J + + & # + 8 h z ' L < 6.d.7.d.d.d.d.d.d.d.d.",
"g g g g 3.3.3.3.F 3.F - d ` x k X * 9 w   . T r.q.I .   w 9 * X k x ` d < 6.d.7.d.d.d.d.d.d.d.d.",
"g g g g 3.3.3.3.F 3.F = d ] } ` H s s H s s U { ..U s s H s s H ` } ] d < 6.d.7.d.d.d.d.d.d.d.d.",
"g g g g 3.3.3.3.F 3.F = E %. .l s t a a a a a s s s a a a a t s l  .%.E = 6.d.7.d.d.d.d.d.d.d.d.",
"g g g g 3.3.3.3.F 3.F $ ( q.9.' t w e e e e w w w w e e e e w t ' 9.q.( $ 6.d.6.d.d.d.d.d.d.d.d.",
"g g g g 3.3.3.3.F 3.F 1 R O.q.X.K s H H H H H H H H H H H H s K X.q.O.R 5 6.d.7.d.d.d.d.d.d.d.d.",
"g g g g g g g g 3.F 3.Z v r +.q.0.X.X.X.X.X.X.X.X.X.X.X.X.X.X.0.q.+.r N 5.8.7.d.d.d.d.d.d.d.d.d.",
"g g g g g g g g 3.3.3.3.C 3 R +.+.o.o.o.o.o.o.o.o.o.o.o.o.o.o.+.+.R 6 4.d.d.s.d.d.d.d.d.d.d.d.d.",
"g g g g g g g g 3.3.3.F 3.3.7 q 0 # # # # # # # # # # # # # # 0 q n d.d.6.d.d.d.d.d.d.d.d.d.d.d.",
"g g g g g g g g 3.3.3.F 3.3.V b S S A A A A A A A A A A A A S S S G d.d.7.d.d.d.d.d.d.d.d.d.d.d.",
"g g g g g g g g 3.3.3.3.3.F 3.3.d.d.d.d.d.d.d.d.d.d.d.d.d.d.d.d.d.d.6.8.d.d.d.d.d.d.d.d.d.d.d.d.",
"g g g g g g g g 3.3.3.3.3.3.3.3.d.d.d.d.d.d.d.d.d.d.d.d.d.d.d.d.d.d.d.d.d.d.d.d.d.d.d.d.d.d.d.d.",
"g g g g g g g g 3.3.3.3.3.3.3.F 7.7.7.7.7.7.7.7.7.7.7.7.7.7.7.7.7.s.d.d.d.d.d.d.d.d.d.d.d.d.d.d.",
"g g g g g g g g 3.3.3.3.3.3.3.3.d.d.d.d.d.d.d.d.d.d.d.d.d.d.d.d.d.d.d.d.d.d.d.d.d.d.d.d.d.d.d.d.",
"g g g g 3.3.3.3.3.3.3.3.3.3.3.3.3.3.3.3.d.d.d.d.d.d.d.d.3.3.3.3.d.d.d.d.d.d.d.d.d.d.d.d.d.d.d.d.",
"g g g g 3.3.3.3.3.3.3.3.3.3.3.3.3.3.3.3.d.d.d.d.d.d.d.d.3.3.3.3.d.d.d.d.d.d.d.d.d.d.d.d.d.d.d.d.",
"g g g g 3.3.3.3.3.3.3.3.3.3.3.3.3.3.3.3.d.d.d.d.d.d.d.d.3.3.3.3.d.d.d.d.d.d.d.d.d.d.d.d.d.d.d.d.",
"g g g g 3.3.3.3.3.3.3.3.3.3.3.3.3.3.3.3.d.d.d.d.d.d.d.d.3.3.3.3.d.d.d.d.d.d.d.d.d.d.d.d.d.d.d.d.",
"g g g g 3.3.3.3.3.3.3.3.3.3.3.3.d.d.d.d.d.d.d.d.d.d.d.d.d.d.d.d.d.d.d.d.d.d.d.d.d.d.d.d.d.d.d.d.",
"g g g g 3.3.3.3.3.3.3.3.3.3.3.3.d.d.d.d.d.d.d.d.d.d.d.d.d.d.d.d.d.d.d.d.d.d.d.d.d.d.d.d.d.d.d.d.",
"g g g g 3.3.3.3.3.3.3.3.3.3.3.3.d.d.d.d.d.d.d.d.d.d.d.d.d.d.d.d.d.d.d.d.d.d.d.d.d.d.d.d.d.d.d.d.",
"g g g g 3.3.3.3.3.3.3.3.3.3.3.3.d.d.d.d.d.d.d.d.d.d.d.d.d.d.d.d.d.d.d.d.d.d.d.d.d.d.d.d.d.d.d.d."
};
