/* XPM */
static char *_104b288658b4f3be5245df1d0de3e15Z933792xKdKJkcIp[] = {
/* columns rows colors chars-per-pixel */
"48 48 149 2 ",
"   c #6D3D49",
".  c #734446",
"X  c #774845",
"o  c #7A4A45",
"O  c #704048",
"+  c #6F6C4B",
"@  c #7E734F",
"#  c #7E7250",
"$  c #7D7D52",
"%  c #8E5F3D",
"&  c #97643B",
"*  c #AF7D37",
"=  c #854C46",
"-  c #914B44",
";  c #845542",
":  c #8C5446",
">  c #895941",
",  c #9A5545",
"<  c #9D5C46",
"1  c #9E5C48",
"2  c #A15E47",
"3  c #A05D48",
"4  c #9D644C",
"5  c #9F6C4F",
"6  c #916E51",
"7  c #8A7556",
"8  c #9B7150",
"9  c #A46146",
"0  c #A96446",
"q  c #A66E47",
"w  c #AA6947",
"e  c #A6624A",
"r  c #AC634C",
"t  c #A5684D",
"y  c #AD694A",
"u  c #B36643",
"i  c #B56C44",
"p  c #B86D42",
"a  c #BE7443",
"s  c #B17148",
"d  c #B67A49",
"f  c #BB7F49",
"g  c #AB6B52",
"h  c #B16650",
"j  c #AB7552",
"k  c #A97357",
"l  c #C07743",
"z  c #C47B42",
"x  c #C87F42",
"c  c #C27554",
"v  c #C07B50",
"b  c #7F8153",
"n  c #799756",
"m  c #769E57",
"M  c #799E57",
"N  c #7A9F58",
"B  c #78A158",
"V  c #BE8C2E",
"C  c #BE8C33",
"Z  c #BD8339",
"A  c #C5942F",
"S  c #CE9E2E",
"D  c #D29F2D",
"F  c #C18E30",
"G  c #C4883B",
"H  c #C09130",
"J  c #CC9A31",
"K  c #D09F38",
"L  c #D6A639",
"P  c #ECB73D",
"I  c #868A55",
"U  c #9D8656",
"Y  c #8D9256",
"T  c #959559",
"R  c #9A965D",
"E  c #979859",
"W  c #9A9A5C",
"Q  c #BD8241",
"!  c #BB804A",
"~  c #9AA65C",
"^  c #9FB35F",
"/  c #A1AE5F",
"(  c #A59F60",
")  c #A6A461",
"_  c #AAA564",
"`  c #A1AF62",
"'  c #ACAD64",
"]  c #A4BF63",
"[  c #B6BE69",
"{  c #C68344",
"}  c #C98446",
"|  c #C88841",
" . c #C1874B",
".. c #C4884E",
"X. c #CE8F4E",
"o. c #D08F40",
"O. c #D08F49",
"+. c #C69442",
"@. c #CF9349",
"#. c #D39142",
"$. c #D2944A",
"%. c #D69F4E",
"&. c #D99D4A",
"*. c #D18B55",
"=. c #D19554",
"-. c #DC9C52",
";. c #DBA34B",
":. c #DEA354",
">. c #E4B542",
",. c #E6B845",
"<. c #EDBC4F",
"1. c #E3A755",
"2. c #E7AB54",
"3. c #EBAB56",
"4. c #E6A45C",
"5. c #EEAE58",
"6. c #E8B750",
"7. c #ECBA51",
"8. c #EDB45A",
"9. c #F2BE53",
"0. c #F1B35C",
"q. c #FBBB5B",
"w. c #A4C263",
"e. c #B6C36A",
"r. c #BECE6E",
"t. c #BFD16F",
"y. c #BFD370",
"u. c #F4C54F",
"i. c #EFC250",
"p. c #F5C551",
"a. c #F7C951",
"s. c #FBCD51",
"d. c #F9C35D",
"f. c #FFD753",
"g. c #FFD95C",
"h. c #FFE45B",
"j. c #FFEC5D",
"k. c #FFF35D",
"l. c #C0D06F",
"z. c #C0D470",
"x. c #FFD462",
"c. c #7F8E88",
"v. c #969986",
"b. c #A09B89",
"n. c #9AA690",
"m. c #99B6A7",
"M. c #9BD0BF",
"N. c #B1E0BE",
"B. c #9BD4C3",
/* pixels */
"B B B B B B B B B B B B B B N B B B B B B B B B N.N.N.N.N.N.N.N.B.B.B.B.B.B.B.B.B.B.B.B.B.B.B.B.",
"B B B B B B B B B B B B B M B B $ 7 @ @ # # # # v.v.v.v.v.v.b.n.B.B.M.B.B.B.B.B.B.B.B.B.B.B.B.B.",
"B B B B B B B B B B B B B B m I t c y y y y y y y y y y y y c t m.B.B.B.B.B.B.B.B.B.B.B.B.B.B.B.",
"B B B B B B B B B B B N B B + g 8.x.d.d.d.d.d.d.d.d.d.d.d.d.x.8.k c.B.B.M.B.B.B.B.B.B.B.B.B.B.B.",
"w.w.w.w.w.w.w.w.w.w.w.] n I j 4.g.k.j.j.j.j.j.j.j.j.j.j.j.j.k.g.4.j I n M.B.B.B.B.B.B.B.B.B.B.B.",
"w.w.w.w.w.w.w.w.w.] w.w.$ < 8.h.a.<.p.p.p.p.p.p.p.p.p.p.p.p.<.a.h.8.< $ B.B.B.B.B.B.B.B.B.B.B.B.",
"w.w.w.w.w.w.w.w.w.] w.w.$ e 0.h.s.;.f d ! f f f f f f ! d f ;.s.h.0.e $ B.B.M.B.B.B.B.B.B.B.B.B.",
"w.w.w.w.w.w.w.w.w.] w.w.b 1 -.p.7. ., , 2 3 3 3 3 3 3 2 , ,  .7.p.-.1 b B.B.B.B.B.B.B.B.B.B.B.B.",
"w.w.w.w.w.w.w.w.w.] w.w.T < 1.7.f < 3 i a p p p p p p a i 3 < f 7.1.< $ B B N B B.B.B.B.B.B.B.B.",
"w.w.w.w.w.w.w.w.w.] w.w.T < 2.6.w - 0 i a x x x x x x a i 0 - w 6.2.< $ B B N B B.B.B.B.B.B.B.B.",
"w.w.w.w.w.w.w.w.w.] w.w.T < 3.7.s , 9 < 0 a l a a l a 0 < 9 , s 7.3.< $ B B N B B.B.B.B.B.B.B.B.",
"w.w.w.w.w.w.w.w.w.] w.w.T r q.i.w - 9 3 3 0 0 0 0 0 0 3 3 9 - w i.q.r $ B B M B B.B.B.B.B.B.B.B.",
"w.w.w.w.w.w.w.w.w.w.w.w.~ 8 =.:...w 9 9 9 3 3 3 3 3 3 9 9 9 w ..:.=.8 ~ B B B B B B B B B.B.B.B.",
"w.w.w.w.w.w.w.w.w.w.w.] w.w.6 v 7.%.3 < 9 9 3 9 9 3 9 9 < 3 %.7.v 6 w.w.N B B B B B B B B.B.B.B.",
"w.w.w.w.w.w.w.w.w.w.w.w.` U q G P +.= = : : : : : : : : = = +.P G q U ` B B B B B B B B B.B.B.B.",
"w.w.w.w.w.w.w.w.w.] w.w.R r #.S V & . O X X X X X X X X O . & V S #.r R B B M B B B B B B.B.B.B.",
"w.w.w.w.z.z.z.z.w.] w.w.R 3 #.H % X X X X X X X X X X X X X X % H #.3 R B B N B B B B B B.B.B.B.",
"w.w.w.w.z.z.z.z.w.] w.w.W 1 o.C o   X o X X X X X X X X o o   o C o.1 W B B N B B B B B B.B.B.B.",
"w.w.w.w.z.z.z.z.w.] w.w.W 1 o.C > O X X X X X X X X X X X X O > C o.1 W B B N B B B B B B.B.B.B.",
"w.w.w.w.z.z.z.z.w.] w.w.W 1 o.C > O X X X X X X X X X X X X O > C o.1 W B B N B B B B B B.B.B.B.",
"z.z.z.z.z.z.z.z.z.t.z.z._ 1 #.C ;   X X X X X X X X X X o X   ; C #.1 W B B N B B B B B B.B.B.B.",
"z.z.z.z.z.z.z.z.z.t.z.z._ 1 #.C ;   X X X X X X X X X X o X   ; C #.1 W B B N B B B B B B.B.B.B.",
"z.z.z.z.z.z.z.z.z.t.z.z._ 3 | A * >     O             O     > * A | 3 W B B N B B B B B B.B.B.B.",
"z.z.z.z.z.z.z.z.z.t.z.z._ 3 { S D * > ; > > > > > > > > ; > * D S { 3 W B B N B B B B B B.B.B.B.",
"z.z.z.z.z.z.z.z.z.t.z.z._ < O.L J F C C C C C C C C C C C C F J L O.< E w.w.] w.B B B B B B B B ",
"z.z.z.z.z.z.z.z.z.t.z.z._ < -.,.K C Z Z Z Z Z Z Z Z Z Z Z Z C K ,.-.< E w.w.] w.B B B B B B B B ",
"z.z.z.z.z.z.z.z.z.t.z.z._ < :.u.>.Q 3 < 3 3 3 3 3 3 3 3 < 3 Q >.u.:.< T w.w.] w.B B B B B B B B ",
"z.z.z.z.z.z.z.z.z.t.z.z._ < -.s.u.@.u u i i i i i i i i u u @.u.s.-.< T w.w.] w.B B B B B B B B ",
"z.z.z.z.z.z.z.z.z.t.z.z._ 1 -.a.p.;.l l x z z z z z z x l l ;.a.a.-.1 E w.w.] w.B B B B B B B B ",
"z.z.z.z.z.z.z.z.z.t.z.z._ 1 -.a.a.&.a a l l l l l l l l a a &.a.a.-.1 E w.w.] w.B B B B B B B B ",
"z.z.z.z.z.z.z.z.z.t.z.z.( r 3.f.p.$.u u p p p p p p p p u u $.p.f.3.r T w.w.] w.B B B B B B B B ",
"z.z.z.z.z.z.z.z.z.z.z.y.' 4 =.9.a.;.} { } } } } } } } } { } ;.a.9.=.4 W w.w.w.w.B B B B B B B B ",
"w.w.w.w.z.z.z.z.z.y.z.r.r.[ k *.9.s.<.<.<.<.<.<.<.<.<.<.<.<.s.9.*.5 / ] ] w.w.w.w.w.w.w.B B B B ",
"w.w.w.w.z.z.z.z.z.z.z.t.z.z.W k X.5.1.1.1.1.1.1.1.1.1.1.1.1.5.X.k Y w.w.] w.w.w.w.w.w.w.B B B B ",
"w.w.w.w.z.z.z.z.z.z.z.z.t.l.z.e.4 h < < < < < < < < < < < < h 4 ^ w.] w.w.w.w.w.w.w.w.w.B B B B ",
"w.w.w.w.z.z.z.z.z.z.z.z.y.t.z.z.' _ ) ) ) ) ) ) ) ) ) ) ) ) _ ' w.w.w.w.w.w.w.w.w.w.w.w.B B B B ",
"z.z.z.z.z.z.z.z.z.z.z.z.z.z.t.z.z.z.z.z.w.w.w.w.z.z.z.z.z.z.z.z.w.] w.w.w.w.w.w.w.w.w.w.B B B B ",
"z.z.z.z.z.z.z.z.z.z.z.z.z.z.z.z.z.z.z.z.w.w.w.w.z.z.z.z.z.z.z.z.w.w.w.w.w.w.w.w.w.w.w.w.B B B B ",
"z.z.z.z.z.z.z.z.z.z.z.z.z.z.z.y.y.t.t.t.] ] ] ] t.t.t.t.t.t.t.y.w.w.w.w.w.w.w.w.w.w.w.w.B B B B ",
"z.z.z.z.z.z.z.z.z.z.z.z.z.z.z.z.z.z.z.z.w.w.w.w.z.z.z.z.z.z.z.z.w.w.w.w.w.w.w.w.w.w.w.w.B B B B ",
"z.z.z.z.z.z.z.z.z.z.z.z.z.z.z.z.z.z.z.z.z.z.z.z.z.z.z.z.z.z.z.z.z.z.z.z.w.w.w.w.B B B B B B B B ",
"z.z.z.z.z.z.z.z.z.z.z.z.z.z.z.z.z.z.z.z.z.z.z.z.z.z.z.z.z.z.z.z.z.z.z.z.w.w.w.w.B B B B B B B B ",
"z.z.z.z.z.z.z.z.z.z.z.z.z.z.z.z.z.z.z.z.z.z.z.z.z.z.z.z.z.z.z.z.z.z.z.z.w.w.w.w.B B B B B B B B ",
"z.z.z.z.z.z.z.z.z.z.z.z.z.z.z.z.z.z.z.z.z.z.z.z.z.z.z.z.z.z.z.z.z.z.z.z.w.w.w.w.B B B B B B B B ",
"z.z.z.z.z.z.z.z.z.z.z.z.z.z.z.z.z.z.z.z.z.z.z.z.z.z.z.z.z.z.z.z.w.w.w.w.w.w.w.w.B B B B B B B B ",
"z.z.z.z.z.z.z.z.z.z.z.z.z.z.z.z.z.z.z.z.z.z.z.z.z.z.z.z.z.z.z.z.w.w.w.w.w.w.w.w.B B B B B B B B ",
"z.z.z.z.z.z.z.z.z.z.z.z.z.z.z.z.z.z.z.z.z.z.z.z.z.z.z.z.z.z.z.z.w.w.w.w.w.w.w.w.B B B B B B B B ",
"z.z.z.z.z.z.z.z.z.z.z.z.z.z.z.z.z.z.z.z.z.z.z.z.z.z.z.z.z.z.z.z.w.w.w.w.w.w.w.w.B B B B B B B B "
};
