/* XPM */
static char *_bfa5bd7425d470de172b7a81e96de15njqpmSIL5crwiWDJ[] = {
/* columns rows colors chars-per-pixel */
"48 48 156 2 ",
"   c #7F6E4F",
".  c #964C3D",
"X  c #984E3E",
"o  c #9D553E",
"O  c #A15A3F",
"+  c #AA6934",
"@  c #BE7F33",
"#  c #805A4B",
"$  c #905247",
"%  c #9B5241",
"&  c #975B47",
"*  c #9E5C46",
"=  c #88664D",
"-  c #806C4E",
";  c #8D7E4E",
":  c #806F50",
">  c #8F7D52",
",  c #937552",
"<  c #947B54",
"1  c #A96347",
"2  c #A2674D",
"3  c #AB654A",
"4  c #A5694A",
"5  c #AB694A",
"6  c #BC6E42",
"7  c #B26E4B",
"8  c #BD7242",
"9  c #B8704F",
"0  c #BE7552",
"q  c #B57B57",
"w  c #B87E56",
"e  c #B17A60",
"r  c #C57E45",
"t  c #CA7D58",
"y  c #7C8B54",
"u  c #759454",
"i  c #7B9F57",
"p  c #7A9F59",
"a  c #7CA057",
"s  c #78A158",
"d  c #C5912D",
"f  c #CB8D3E",
"g  c #D8AA37",
"h  c #D7A63E",
"j  c #DBAF3A",
"k  c #DEB13E",
"l  c #8A8353",
"z  c #958255",
"x  c #958B56",
"c  c #998854",
"v  c #968558",
"b  c #9A8559",
"n  c #9B8B5A",
"m  c #97995A",
"M  c #9D9A5A",
"N  c #A28957",
"B  c #A18E5A",
"V  c #BD8457",
"C  c #BD8458",
"Z  c #A3935E",
"A  c #9BA75C",
"S  c #9BAB5C",
"D  c #9BB25E",
"F  c #9EB85F",
"G  c #A0A25B",
"H  c #A0A95E",
"J  c #A69161",
"K  c #A6A461",
"L  c #AAA663",
"P  c #B1AF64",
"I  c #A4BF62",
"U  c #B4B767",
"Y  c #C68244",
"T  c #C88446",
"R  c #C78A44",
"E  c #CB8A47",
"W  c #CE8C48",
"Q  c #D48C4E",
"!  c #CD9241",
"~  c #D19546",
"^  c #D7904E",
"/  c #D69C4C",
"(  c #DA9D4A",
")  c #C08451",
"_  c #C18958",
"`  c #D58B51",
"'  c #D98F53",
"]  c #DA8D5D",
"[  c #CA9652",
"{  c #DB9452",
"}  c #DE9A53",
"|  c #E39F53",
" . c #E69D5B",
".. c #D8A740",
"X. c #DDAE45",
"o. c #D8A04D",
"O. c #DEB142",
"+. c #DFA454",
"@. c #DAA659",
"#. c #EEBC4F",
"$. c #F0BE4E",
"%. c #E4A454",
"&. c #E4AA54",
"*. c #EAAE54",
"=. c #E9A55B",
"-. c #E3AE5C",
";. c #EDB455",
":. c #EBB950",
">. c #EFB059",
",. c #F2BA56",
"<. c #F5BC5B",
"1. c #DC9260",
"2. c #EEAB63",
"3. c #F0AD61",
"4. c #EBBC62",
"5. c #F8B76A",
"6. c #FCBB6D",
"7. c #A4C263",
"8. c #BCCD6E",
"9. c #BED16F",
"0. c #BFD270",
"q. c #F0C847",
"w. c #F5C84F",
"e. c #FCCF4E",
"r. c #F2C050",
"t. c #FAC354",
"y. c #F7C951",
"u. c #FCCC56",
"i. c #FAC45C",
"p. c #FECB5C",
"a. c #FFD357",
"s. c #FFDE5B",
"d. c #FFE356",
"f. c #FFE15D",
"g. c #FFEE58",
"h. c #FFF05B",
"j. c #C0D16F",
"k. c #C0D470",
"l. c #FAC462",
"z. c #FFD760",
"x. c #FFC271",
"c. c #FFD578",
"v. c #FFE169",
"b. c #FFEC6C",
"n. c #FFF260",
"m. c #FFF965",
"M. c #FFF46F",
"N. c #FFF96F",
"B. c #FFEB74",
"V. c #FFE77A",
"C. c #FFEB7A",
"Z. c #FFF772",
"A. c #FFF97D",
"S. c #B1E0BE",
"D. c #FFF281",
"F. c #9BD4C3",
/* pixels */
"s s s s s s s s s s s s s s s s s s s s s s s s S.S.S.S.S.S.S.S.F.F.F.F.F.F.F.F.F.F.F.F.F.F.F.F.",
"s s s s s s s s s s s s s s s s s s s s s s s s S.S.S.S.S.S.S.S.F.F.F.F.F.F.F.F.F.F.F.F.F.F.F.F.",
"s s s s s s s s s s s s s s s s s s s s s s s s S.S.S.S.S.S.S.S.F.F.F.F.F.F.F.F.F.F.F.F.F.F.F.F.",
"s s s s s s s s s s s s s s s s s s s s s s s s S.S.S.S.S.S.S.S.F.F.F.F.F.F.F.F.F.F.F.F.F.F.F.F.",
"7.7.7.7.7.7.7.7.7.7.7.7.s s s s s s s s s s s s s s s s s s s s s s s s F.F.F.F.F.F.F.F.F.F.F.F.",
"7.7.7.7.7.7.7.7.7.7.7.7.s s s s s s s s s s s s s s s s s s s s s s s s F.F.F.F.F.F.F.F.F.F.F.F.",
"7.7.7.7.7.7.7.7.7.7.7.7.s s s s s s s s s s s s s s s s s s s s s s s s F.F.F.F.F.F.F.F.F.F.F.F.",
"7.7.7.7.7.7.7.7.7.7.7.7.s s s s s s s s s s s s s s s s s s s s s s s s F.F.F.F.F.F.F.F.F.F.F.F.",
"7.7.7.7.7.7.7.7.7.7.7.7.7.7.7.7.7.7.7.7.7.7.7.7.7.7.7.7.s s s s s s s s s s s s F.F.F.F.F.F.F.F.",
"7.7.7.7.7.7.7.7.7.7.7.7.7.7.7.7.7.7.7.7.7.7.7.7.7.7.7.7.s s s s s s s s s s s s F.F.F.F.F.F.F.F.",
"7.7.7.7.7.7.7.7.7.7.7.7.7.7.7.7.7.7.7.7.7.7.7.7.7.7.7.7.s s s s s s s s s s s s F.F.F.F.F.F.F.F.",
"7.7.7.7.7.7.7.7.7.7.7.7.7.I I I 7.7.7.7.7.7.7.7.7.7.7.7.s s s s i p p s s s s s F.F.F.F.F.F.F.F.",
"7.7.7.7.7.7.7.7.7.7.7.7.7.7.7.7.7.7.7.7.7.7.7.7.7.7.7.7.7.7.7.7.7.7.7.7.s s s s s s s s F.F.F.F.",
"7.7.7.7.7.7.7.7.7.7.7.7.7.7.7.7.7.7.7.7.7.7.7.7.7.7.7.7.7.7.7.7.7.7.7.7.s s s s s s s s F.F.F.F.",
"7.7.7.7.7.7.7.7.7.I I 7.F , e z 7.7.7.7.7.7.7.7.7.7.7.7.7.7.7.7.z e , F s a i s s s s s F.F.F.F.",
"7.7.7.7.7.7.7.7.7.7.7.D B 7 ] 5 M S S A S S S S S S S S A S S M 5 ] 7 B u s s s s s s s F.F.F.F.",
"7.7.7.7.k.k.k.k.I 7.7.= 0 &.t./ 4 $ & & & & & & & & & & & & $ 4 / t.&.0 # s s i s s s s F.F.F.F.",
"7.7.7.7.k.k.j.k.I A N ) <.a.g.u.` t 1.1.1.] ] ] ] ] ] 1.1.1.t ` u.g.a.<.) < y i s s s s F.F.F.F.",
"7.7.7.7.k.k.9.k.7.> 7 i.n.s.f.p.|  .6.6.5.6.6.6.6.6.6.5.6.6. .| p.f.s.n.i.7 - s s p s s F.F.F.F.",
"7.7.7.7.k.k.8.k.7.> 9 p.m.f.<.%.}  .=.=.3.6.x.6.6.x.6.3.=.=. .} %.<.f.m.p.9 - s s p s s F.F.F.F.",
"k.k.k.k.k.k.9.k.k.n 5 <.n.s.*.` { { ^ Q } 2.2.2.2.2.2.} Q ^ { { ` *.s.n.<.5   s s p s s F.F.F.F.",
"k.k.k.k.k.k.9.k.k.n 5 <.n.f.;.{ { } { { { } } } } } } { { { } { { ;.f.n.<.5 - s s p s s F.F.F.F.",
"k.k.k.k.k.k.9.k.k.n 5 ,.h.f.*.` ` { ' ' ` ` Q ` ` Q ` ` ' ' { ` ` *.f.h.,.5 : s s p s s F.F.F.F.",
"k.k.k.k.k.k.9.k.k.n 5 l.m.s.;.} } %.| | | %.%.%.%.%.%.| | | %.} } ;.s.m.l.5   s s p s s F.F.F.F.",
"k.k.k.k.k.k.9.k.k.c 5 c.A.s.y.u.u.u.u.u.u.u.u.a.u.u.u.u.u.u.u.u.u.y.s.A.c.5 ; 7.s p s s s s s s ",
"k.k.k.k.k.k.9.k.k.B 3 -.v.B.Z.N.N.N.N.N.N.N.M.b.b.M.N.N.N.N.N.N.N.Z.B.v.-.3 z 7.s p s s s s s s ",
"k.k.k.k.k.k.9.k.k.J 1 @ O.B.D.V.V.V.V.V.V.V.V.C.C.V.V.V.V.V.V.V.V.D.B.O.@ 1 n 7.s p s s s s s s ",
"k.k.k.k.k.k.9.k.k.Z 3 f g X.[ C C C C _ w V 4.b.z.@.C V _ C C C C [ X.g f 3 b 7.s p s s s s s s ",
"k.k.k.k.k.k.9.k.k.B 3 / j d + % o o o O . o o.d.e.R o X O o o o % + d j / 3 v 7.s p s s s s s s ",
"k.k.k.k.k.k.9.k.k.B 3 ~ k h R 8 8 8 8 8 6 8 ( y.y.( 8 6 8 8 8 8 8 R h k ~ 3 v 7.s p s s s s s s ",
"k.k.k.k.k.k.8.k.k.b 0 *.q...Y 6 6 8 8 8 6 6 r E W r 6 6 8 8 8 6 6 Y ..q.*.0 < 7.s p s s s s s s ",
"k.k.k.k.k.k.0.k.k.Z 5 } $.X.! T T T T T T T T r r T T T T T T T T ! X.$.} 5 x 7.s s s s s s s s ",
"7.7.7.7.k.k.k.k.9.8.U 2 { r.w.:.#.#.#.#.#.#.#.#.#.#.#.#.#.#.#.#.:.w.r.{ 2 H I I 7.7.7.7.s s s s ",
"7.7.7.7.k.k.k.k.9.k.k.n q } >.+.%.%.%.%.%.%.&.&.&.&.%.%.%.%.%.%.+.>.} q l 7.7.I 7.7.7.7.s s s s ",
"7.7.7.7.k.k.k.k.k.j.k.k.P * 3 * * * * * * * * * * * * * * * * * * 3 * G 7.7.I 7.7.7.7.7.s s s s ",
"7.7.7.7.k.k.k.k.k.j.0.k.9.L L L K K K K K K K K K K K K K K K K m M m I 7.7.7.7.7.7.7.7.s s s s ",
"k.k.k.k.k.k.k.k.k.k.k.9.k.k.k.k.k.k.k.k.7.7.7.7.k.k.k.k.k.k.k.k.7.7.7.7.I 7.7.7.7.7.7.7.s s s s ",
"k.k.k.k.k.k.k.k.k.k.k.k.k.k.k.k.k.k.k.k.7.7.7.7.k.k.k.k.k.k.k.k.7.7.7.7.7.7.7.7.7.7.7.7.s s s s ",
"k.k.k.k.k.k.k.k.k.k.k.k.k.9.9.9.9.9.9.9.I I I I 9.9.9.9.9.9.9.9.I I I 7.7.7.7.7.7.7.7.7.s s s s ",
"k.k.k.k.k.k.k.k.k.k.k.k.k.k.k.k.k.k.k.k.7.7.7.7.k.k.k.k.k.k.k.k.7.7.7.7.7.7.7.7.7.7.7.7.s s s s ",
"k.k.k.k.k.k.k.k.k.k.k.k.k.k.k.k.k.k.k.k.k.k.k.k.k.k.k.k.k.k.k.k.k.k.k.k.7.7.7.7.s s s s s s s s ",
"k.k.k.k.k.k.k.k.k.k.k.k.k.k.k.k.k.k.k.k.k.k.k.k.k.k.k.k.k.k.k.k.k.k.k.k.7.7.7.7.s s s s s s s s ",
"k.k.k.k.k.k.k.k.k.k.k.k.k.k.k.k.k.k.k.k.k.k.k.k.k.k.k.k.k.k.k.k.k.k.k.k.7.7.7.7.s s s s s s s s ",
"k.k.k.k.k.k.k.k.k.k.k.k.k.k.k.k.k.k.k.k.k.k.k.k.k.k.k.k.k.k.k.k.k.k.k.k.7.7.7.7.s s s s s s s s ",
"k.k.k.k.k.k.k.k.k.k.k.k.k.k.k.k.k.k.k.k.k.k.k.k.k.k.k.k.k.k.k.k.7.7.7.7.7.7.7.7.s s s s s s s s ",
"k.k.k.k.k.k.k.k.k.k.k.k.k.k.k.k.k.k.k.k.k.k.k.k.k.k.k.k.k.k.k.k.7.7.7.7.7.7.7.7.s s s s s s s s ",
"k.k.k.k.k.k.k.k.k.k.k.k.k.k.k.k.k.k.k.k.k.k.k.k.k.k.k.k.k.k.k.k.7.7.7.7.7.7.7.7.s s s s s s s s ",
"k.k.k.k.k.k.k.k.k.k.k.k.k.k.k.k.k.k.k.k.k.k.k.k.k.k.k.k.k.k.k.k.7.7.7.7.7.7.7.7.s s s s s s s s "
};
