/* XPM */
static char *e3097f3d198b49cba398ae2e9f80d9a3PVEy77HTgYjpla2k[] = {
/* columns rows colors chars-per-pixel */
"48 48 148 2 ",
"   c #6D3D49",
".  c #734446",
"X  c #774845",
"o  c #7A4A45",
"O  c #704048",
"+  c #6F6C4B",
"@  c #7E734F",
"#  c #7E7250",
"$  c #7D7D52",
"%  c #8E5F3D",
"&  c #97643B",
"*  c #AF7D37",
"=  c #854C46",
"-  c #914B44",
";  c #845542",
":  c #8C5446",
">  c #895941",
",  c #9A5545",
"<  c #9D5C46",
"1  c #9E5C48",
"2  c #A15E47",
"3  c #A05D48",
"4  c #9D634C",
"5  c #9F6C4F",
"6  c #916E51",
"7  c #8A7556",
"8  c #9B7150",
"9  c #A46146",
"0  c #A96446",
"q  c #A66E47",
"w  c #AA6947",
"e  c #A6634B",
"r  c #AC634C",
"t  c #AD694A",
"y  c #B36643",
"u  c #B56C44",
"i  c #B86D42",
"p  c #BE7443",
"a  c #B17148",
"s  c #B67A49",
"d  c #BB7F49",
"f  c #AB6B52",
"g  c #B16650",
"h  c #AB7552",
"j  c #A97357",
"k  c #C07743",
"l  c #C47B42",
"z  c #C87F42",
"x  c #C27554",
"c  c #C07B50",
"v  c #7F8153",
"b  c #799756",
"n  c #769E57",
"m  c #799E57",
"M  c #7A9F58",
"N  c #78A158",
"B  c #BE8C2E",
"V  c #BE8C33",
"C  c #BD8339",
"Z  c #C5942F",
"A  c #CE9E2E",
"S  c #D29F2D",
"D  c #C18E30",
"F  c #C4883B",
"G  c #C09130",
"H  c #CC9A31",
"J  c #D09F38",
"K  c #D6A639",
"L  c #ECB73D",
"P  c #868A55",
"I  c #9D8656",
"U  c #8D9256",
"Y  c #959659",
"T  c #9A955D",
"R  c #979859",
"E  c #9B9A5C",
"W  c #BD8241",
"Q  c #BB804A",
"!  c #9AA45C",
"~  c #9FB35F",
"^  c #A1AE5F",
"/  c #A59F60",
"(  c #A6A461",
")  c #AAA564",
"_  c #A1AF62",
"`  c #ACAD64",
"'  c #A4BF63",
"]  c #B6BE69",
"[  c #C68344",
"{  c #C98446",
"}  c #C88841",
"|  c #C1874B",
" . c #C4884E",
".. c #CE8F4E",
"X. c #D08F40",
"o. c #D08F49",
"O. c #C69442",
"+. c #CF9349",
"@. c #D39142",
"#. c #D2944A",
"$. c #D69F4E",
"%. c #D99D4A",
"&. c #D18B55",
"*. c #D19554",
"=. c #DC9C52",
"-. c #DBA34B",
";. c #DEA354",
":. c #E4B542",
">. c #E6B845",
",. c #EDBC4F",
"<. c #E3A755",
"1. c #E7AB54",
"2. c #EBAB56",
"3. c #E6A45C",
"4. c #EEAE58",
"5. c #E8B750",
"6. c #ECBA51",
"7. c #EDB45A",
"8. c #F2BE53",
"9. c #F1B35C",
"0. c #FBBB5B",
"q. c #A4C263",
"w. c #B6C36A",
"e. c #BECE6E",
"r. c #BFD16F",
"t. c #BFD370",
"y. c #F4C54F",
"u. c #EFC250",
"i. c #F5C551",
"p. c #F7C951",
"a. c #FBCD51",
"s. c #F9C35D",
"d. c #FFD753",
"f. c #FFD95C",
"g. c #FFE45B",
"h. c #FFEC5D",
"j. c #FFF35D",
"k. c #C0D06F",
"l. c #C0D470",
"z. c #FFD462",
"x. c #7F8E88",
"c. c #8C9289",
"v. c #97938C",
"b. c #8E9D93",
"n. c #99B6A7",
"m. c #9BD0BF",
"M. c #B1E0BE",
"N. c #9BD4C3",
/* pixels */
"N.N.N.N.N.N.N.N.N.N.N.N.N.N.N.N.N.N.N.N.N.N.N.N.N N N N N N N N N M N N N N N N N N N N N N N N ",
"N.N.N.N.N.N.N.N.N.N.N.N.N.m.N.N.b.v.c.c.c.c.c.c.# # # # @ @ 7 $ N N m N N N N N N N N N N N N N ",
"N.N.N.N.N.N.N.N.N.N.N.N.N.N.N.n.e x t t t t t t t t t t t t x e P n N N N N N N N N N N N N N N ",
"N.N.N.N.N.N.N.N.N.N.N.m.N.N.x.j 7.z.s.s.s.s.s.s.s.s.s.s.s.s.z.7.f + N N M N N N N N N N N N N N ",
"N.N.N.N.N.N.N.N.N.N.N.m.b P h 3.f.j.h.h.h.h.h.h.h.h.h.h.h.h.j.f.3.h P b ' q.q.q.q.q.q.q.q.q.q.q.",
"N.N.N.N.N.N.N.N.N.N.N.N.$ < 7.g.p.,.i.i.i.i.i.i.i.i.i.i.i.i.,.p.g.7.< $ q.q.' q.q.q.q.q.q.q.q.q.",
"N.N.N.N.N.N.N.N.N.m.N.N.$ e 9.g.a.-.d s Q d d d d d d Q s d -.a.g.9.e $ q.q.' q.q.q.q.q.q.q.q.q.",
"N.N.N.N.N.N.N.N.N.N.N.N.v 1 =.i.6.| , , 2 3 3 3 3 3 3 2 , , | 6.i.=.1 v q.q.' q.q.q.q.q.q.q.q.q.",
"M.M.M.M.M.M.M.M.N M N N $ < <.6.d < 3 u p i i i i i i p u 3 < d 6.<.1 R q.q.' q.q.q.q.q.q.q.q.q.",
"M.M.M.M.M.M.M.M.N M N N $ < 1.5.w - 0 u p z z z z z z p u 0 - w 5.1.< R q.q.' q.q.q.q.q.q.q.q.q.",
"M.M.M.M.M.M.M.M.N M N N $ < 2.6.a , 9 1 0 p k p p k p 0 1 9 , a 6.2.< R q.q.' q.q.q.q.q.q.q.q.q.",
"M.M.M.M.M.M.M.M.N m N N $ r 0.u.w - 9 3 3 0 0 0 0 0 0 3 3 9 - w u.0.r Y q.q.' q.q.q.q.q.q.q.q.q.",
"N.N.N.N.N N N N N N N N ! 8 *.;. .w 9 9 9 3 3 3 3 3 3 9 9 9 w  .;.*.8 ! q.q.q.q.q.q.q.q.q.q.q.q.",
"N.N.N.N.N N N N N N N M q.q.6 c 6.$.3 < 9 9 3 9 9 3 9 9 < 3 $.6.c 6 q.q.' q.q.q.q.q.q.q.q.q.q.q.",
"N.N.N.N.N N N N N N N N _ I q F L O.= = : : : : : : : : = = O.L F q I _ q.q.q.q.q.q.q.q.q.q.q.q.",
"N.N.N.N.N N N N N m N N T r @.A B & . O X X X X X X X X O . & B A @.r T q.q.' q.q.q.q.q.q.q.q.q.",
"N.N.N.N.N N N N q.' q.q.T 3 @.G % X X X X X X X X X X X X X X % G @.3 ) q.q.' q.l.l.l.l.l.l.l.l.",
"N.N.N.N.N N N N q.' q.q.E 1 X.V o   X o X X X X X X X X o o   o V X.1 ) q.q.' q.l.l.l.l.l.l.l.l.",
"N.N.N.N.N N N N q.' q.q.E 1 X.V > O X X X X X X X X X X X X O > V X.1 ) q.q.' q.l.l.l.l.l.l.l.l.",
"N.N.N.N.N N N N q.' q.q.E 1 X.V > O X X X X X X X X X X X X O > V X.1 ) q.q.' q.l.l.l.l.l.l.l.l.",
"N.N.N.N.N N N N N M N N E 1 @.V ;   X X X X X X X X X X o X   ; V @.1 ) l.l.r.l.l.l.l.l.q.q.q.q.",
"N.N.N.N.N N N N N M N N E 1 @.V ;   X X X X X X X X X X o X   ; V @.1 ) l.l.r.l.l.l.l.l.q.q.q.q.",
"N.N.N.N.N N N N N M N N E 3 } Z * >     O             O     > * Z } 3 ) l.l.r.l.l.l.l.l.q.q.q.q.",
"N.N.N.N.N N N N N M N N E 3 [ A S * > ; > > > > > > > > ; > * S A [ 3 ) l.l.r.l.l.l.l.l.q.q.q.q.",
"N N N N N N N N N M N N R 1 o.K H D V V V V V V V V V V V V D H K o.1 ) l.l.r.l.l.l.l.l.l.l.l.l.",
"N N N N N N N N N M N N R 1 =.>.J V C C C C C C C C C C C C V J >.=.1 ) l.l.r.l.l.l.l.l.l.l.l.l.",
"N N N N N N N N N M N N R 1 ;.y.:.W 3 < 3 3 3 3 3 3 3 3 < 3 W :.y.;.1 ) l.l.r.l.l.l.l.l.l.l.l.l.",
"N N N N N N N N N M N N R 1 =.a.y.+.y y u u u u u u u u y y +.y.a.=.1 ) l.l.r.l.l.l.l.l.l.l.l.l.",
"N N N N N N N N q.' q.q.R 1 =.p.i.-.k k z l l l l l l z k k -.p.p.=.1 ) l.l.r.l.l.l.l.l.l.l.l.l.",
"N N N N N N N N q.' q.q.R 1 =.p.p.%.p p k k k k k k k k p p %.p.p.=.1 ) l.l.r.l.l.l.l.l.l.l.l.l.",
"N N N N N N N N q.' q.q.Y r 2.d.i.#.y y i i i i i i i i y y #.i.d.2.r / l.l.r.l.l.l.l.l.l.l.l.l.",
"N N N N N N N N q.q.q.q.E 4 *.8.p.-.{ [ { { { { { { { { [ { -.p.8.*.4 ` t.l.l.l.l.l.l.l.l.l.l.l.",
"N N N N N N N N q.q.q.' ' ^ 5 &.8.a.,.,.,.,.,.,.,.,.,.,.,.,.a.8.&.j ] e.e.l.t.l.l.l.l.l.l.l.l.l.",
"N N N N N N N N q.q.q.' q.q.U j ..4.<.<.<.<.<.<.<.<.<.<.<.<.4...j E l.l.r.l.l.l.l.l.l.l.l.l.l.l.",
"N N N N N N N N q.q.q.q.q.' q.~ 4 g 1 1 1 1 1 1 1 1 1 1 1 1 g 4 w.l.k.r.l.l.l.l.l.l.l.l.l.l.l.l.",
"N N N N N N N N q.q.q.q.q.q.q.q.! E R R R R R R ( ( ( ( ( ( ) ` l.l.r.t.l.l.l.l.l.l.l.l.l.l.l.l.",
"N N N N q.q.q.q.q.q.q.q.q.q.' q.l.l.l.l.l.l.l.l.l.l.l.l.l.l.l.l.l.r.l.l.l.l.l.l.l.l.l.l.l.l.l.l.",
"N N N N q.q.q.q.q.q.q.q.q.q.q.q.l.l.l.l.l.l.l.l.l.l.l.l.l.l.l.l.t.l.l.l.l.l.l.l.l.l.l.l.l.l.l.l.",
"N N N N q.q.q.q.q.q.q.q.q.q.q.q.t.r.r.r.r.r.r.r.r.r.r.r.r.r.r.t.t.l.l.l.l.l.l.l.l.l.l.l.l.l.l.l.",
"N N N N q.q.q.q.q.q.q.q.q.q.q.q.l.l.l.l.l.l.l.l.l.l.l.l.l.l.l.l.l.l.l.l.l.l.l.l.l.l.l.l.l.l.l.l.",
"N N N N q.q.q.q.q.q.q.q.q.q.q.q.l.l.l.l.l.l.l.l.l.l.l.l.l.l.l.l.l.l.l.l.l.l.l.l.l.l.l.l.q.q.q.q.",
"N N N N q.q.q.q.q.q.q.q.q.q.q.q.l.l.l.l.l.l.l.l.l.l.l.l.l.l.l.l.l.l.l.l.l.l.l.l.l.l.l.l.q.q.q.q.",
"N N N N q.q.q.q.q.q.q.q.q.q.q.q.l.l.l.l.l.l.l.l.l.l.l.l.l.l.l.l.l.l.l.l.l.l.l.l.l.l.l.l.q.q.q.q.",
"N N N N q.q.q.q.q.q.q.q.q.q.q.q.l.l.l.l.l.l.l.l.l.l.l.l.l.l.l.l.l.l.l.l.l.l.l.l.l.l.l.l.q.q.q.q.",
"N N N N q.q.q.q.q.q.q.q.q.q.q.q.l.l.l.l.q.q.q.q.l.l.l.l.l.l.l.l.l.l.l.l.l.l.l.l.l.l.l.l.l.l.l.l.",
"N N N N q.q.q.q.q.q.q.q.q.q.q.q.l.l.l.l.q.q.q.q.l.l.l.l.l.l.l.l.l.l.l.l.l.l.l.l.l.l.l.l.l.l.l.l.",
"N N N N q.q.q.q.q.q.q.q.q.q.q.q.l.l.l.l.q.q.q.q.l.l.l.l.l.l.l.l.l.l.l.l.l.l.l.l.l.l.l.l.l.l.l.l.",
"N N N N q.q.q.q.q.q.q.q.q.q.q.q.l.l.l.l.q.q.q.q.l.l.l.l.l.l.l.l.l.l.l.l.l.l.l.l.l.l.l.l.l.l.l.l."
};
