/* XPM */
static char *f423f2c349cf4b348c99f124c30cf5abQiWQG1FevlLXpPGw[] = {
/* columns rows colors chars-per-pixel */
"48 48 147 2 ",
"   c #964C3D",
".  c #984E3E",
"X  c #9D553E",
"o  c #A15A3F",
"O  c #AA6934",
"+  c #BE7F33",
"@  c #905447",
"#  c #9B5241",
"$  c #975B45",
"%  c #9C5C46",
"&  c #8D7E4E",
"*  c #8F6C50",
"=  c #937552",
"-  c #9B7D56",
";  c #A96347",
":  c #A2674D",
">  c #AB654A",
",  c #A66A4A",
"<  c #AB694A",
"1  c #BC6E42",
"2  c #B26E4B",
"3  c #BD7242",
"4  c #B8704F",
"5  c #BE7552",
"6  c #B57B57",
"7  c #B87E56",
"8  c #B17A60",
"9  c #C57E45",
"0  c #CA7D58",
"q  c #78A158",
"w  c #C5912D",
"e  c #CB8D3E",
"r  c #D8AA37",
"t  c #D7A63E",
"y  c #DBAF3A",
"u  c #DEB13E",
"i  c #8A8353",
"p  c #958154",
"a  c #9A8557",
"s  c #998854",
"d  c #9B8559",
"f  c #9B8A59",
"g  c #959759",
"h  c #97995A",
"j  c #9E9A5B",
"k  c #A18E5B",
"l  c #BD8457",
"z  c #BD8458",
"x  c #A2945E",
"c  c #AB925C",
"v  c #AC985F",
"b  c #9BAB5C",
"n  c #9BB25E",
"m  c #9EB85F",
"M  c #A0A25B",
"N  c #A0A95E",
"B  c #B68062",
"V  c #A69161",
"C  c #A6A461",
"Z  c #AAA663",
"A  c #ADA861",
"S  c #A4BF62",
"D  c #B0B566",
"F  c #B1BA67",
"G  c #C68244",
"H  c #C88446",
"J  c #C78A44",
"K  c #CB8A47",
"L  c #CE8C48",
"P  c #D48C4E",
"I  c #CD9241",
"U  c #D19546",
"Y  c #D7904E",
"T  c #D69C4C",
"R  c #DA9D4A",
"E  c #C08451",
"W  c #C18958",
"Q  c #D58B51",
"!  c #D98F53",
"~  c #DA8D5D",
"^  c #CA9652",
"/  c #DB9452",
"(  c #DE9A53",
")  c #E39F53",
"_  c #E69D5B",
"`  c #D8A740",
"'  c #DDAE45",
"]  c #D8A04D",
"[  c #DEB142",
"{  c #DFA454",
"}  c #DAA659",
"|  c #EEBC4F",
" . c #F0BE4E",
".. c #E4A454",
"X. c #E4AA54",
"o. c #EAAE54",
"O. c #E9A55B",
"+. c #E3AE5C",
"@. c #EDB455",
"#. c #EBB950",
"$. c #EFB059",
"%. c #F2BA56",
"&. c #F5BC5B",
"*. c #DC9260",
"=. c #EEAB63",
"-. c #F0AD61",
";. c #EBBC62",
":. c #F8B76A",
">. c #FCBB6D",
",. c #A4C263",
"<. c #BCCE6D",
"1. c #BED06F",
"2. c #BED170",
"3. c #F0C847",
"4. c #F5C84F",
"5. c #FCCF4E",
"6. c #F2C050",
"7. c #FAC354",
"8. c #F7C951",
"9. c #FCCC56",
"0. c #FAC45C",
"q. c #FECB5C",
"w. c #FFD357",
"e. c #FFDE5B",
"r. c #FFE356",
"t. c #FFE15D",
"y. c #FFEE58",
"u. c #FFF05B",
"i. c #C0D26F",
"p. c #C0D470",
"a. c #FAC462",
"s. c #FFD760",
"d. c #FFC271",
"f. c #FFD578",
"g. c #FFE169",
"h. c #FFEC6C",
"j. c #FFF260",
"k. c #FFF965",
"l. c #FFF46F",
"z. c #FFF96F",
"x. c #FFEB74",
"c. c #FFE77A",
"v. c #FFE97A",
"b. c #FFED7A",
"n. c #FFF772",
"m. c #FFF97D",
"M. c #FFF281",
/* pixels */
"q q q q q q q q q q q q q q q q q q q q q q q q q q q q q q q q q q q q q q q q q q q q q q q q ",
"q q q q q q q q q q q q q q q q q q q q q q q q q q q q q q q q q q q q q q q q q q q q q q q q ",
"q q q q q q q q q q q q q q q q q q q q q q q q q q q q q q q q q q q q q q q q q q q q q q q q ",
"q q q q q q q q q q q q q q q q q q q q q q q q q q q q q q q q q q q q q q q q q q q q q q q q ",
",.,.,.,.,.,.,.,.,.,.,.,.q q q q q q q q q q q q ,.,.,.,.,.,.,.,.,.,.,.,.,.,.,.,.,.,.,.,.q q q q ",
",.,.,.,.,.,.,.,.,.,.,.,.q q q q q q q q q q q q ,.,.,.,.,.,.,.,.,.,.,.,.,.,.,.,.,.,.,.,.q q q q ",
",.,.,.,.,.,.,.,.,.,.,.,.q q q q q q q q q q q q ,.,.,.,.,.,.,.,.,.,.,.,.,.,.,.,.,.,.,.,.q q q q ",
",.,.,.,.,.,.,.,.,.,.,.,.q q q q q q q q q q q q ,.,.,.,.,.,.,.,.,.,.,.,.,.,.,.,.,.,.,.,.q q q q ",
",.,.,.,.,.,.,.,.,.,.,.,.,.,.,.,.,.,.,.,.,.,.,.,.,.,.,.,.,.,.,.,.,.,.,.,.,.,.,.,.,.,.,.,.,.,.,.,.",
",.,.,.,.,.,.,.,.,.,.,.,.,.,.,.,.,.,.,.,.,.,.,.,.,.,.,.,.,.,.,.,.,.,.,.,.,.,.,.,.,.,.,.,.,.,.,.,.",
",.,.,.,.,.,.,.,.,.,.,.,.,.,.,.,.,.,.,.,.,.,.,.,.,.,.,.,.,.,.,.,.,.,.,.,.,.,.,.,.,.,.,.,.,.,.,.,.",
",.,.,.,.,.,.,.,.,.,.,.,.,.S S S ,.,.,.,.,.,.,.,.,.,.,.,.,.,.,.,.S S S ,.,.,.,.,.,.,.,.,.,.,.,.,.",
"p.p.p.p.,.,.,.,.,.,.,.,.,.,.,.,.,.,.,.,.,.,.,.,.i.i.i.i.1.1.i.p.p.p.p.p.,.,.,.,.p.p.p.p.p.p.p.p.",
"p.p.p.p.,.,.,.,.,.,.,.,.,.,.,.,.,.,.,.,.,.,.,.,.i.i.i.i.i.i.i.p.p.p.p.p.,.,.,.,.p.p.p.p.p.p.p.p.",
"p.p.p.p.,.,.,.,.,.S S ,.m = 8 p ,.,.,.,.,.,.,.,.p.p.p.p.p.p.p.p.f B - <.,.S S ,.p.p.p.p.p.p.p.p.",
"p.p.p.p.,.,.,.,.,.,.,.n k 2 ~ < j b b b b b b b F F F F F F F A < ~ 2 v n ,.,.,.p.p.p.p.p.p.p.p.",
"p.p.p.p.p.p.p.p.1.p.p.* 5 X.7.T , @ $ $ $ $ $ $ $ $ $ $ $ $ @ , T 7.X.5 * p.p.1.p.p.p.p.p.p.p.p.",
"p.p.p.p.p.p.i.p.1.D c E &.w.y.9.Q 0 *.*.*.~ ~ ~ ~ ~ ~ *.*.*.0 Q 9.y.w.&.E c D 1.p.i.p.p.p.p.p.p.",
"p.p.p.p.p.p.1.p.p.f 2 0.j.e.t.q.) _ >.>.:.>.>.>.>.>.>.:.>.>._ ) q.t.e.j.0.2 f p.p.1.p.p.p.p.p.p.",
"p.p.p.p.p.p.<.p.p.a 4 q.k.t.&...( _ O.O.-.>.d.>.>.d.>.-.O.O._ ( ..&.t.k.q.4 a p.p.<.p.p.p.p.p.p.",
"p.p.p.p.p.p.1.p.p.f < &.j.e.o.Q / / Y P ( =.=.=.=.=.=.( P Y / / Q o.e.j.&.< f p.p.1.p.p.p.p.p.p.",
"p.p.p.p.p.p.1.p.p.f < &.j.t.@./ / ( / / / ( ( ( ( ( ( / / / ( / / @.t.j.&.< f p.p.1.p.p.p.p.p.p.",
"p.p.p.p.p.p.1.p.p.f < %.u.t.o.Q Q / ! ! Q Q P Q Q P Q Q ! ! / Q Q o.t.u.%.< f p.p.1.p.p.p.p.p.p.",
"p.p.p.p.p.p.1.p.p.f < a.k.e.@.( ( ..) ) ) ............) ) ) ..( ( @.e.k.a.< f p.p.1.p.p.p.p.p.p.",
"p.p.p.p.p.p.1.p.p.s < f.m.e.8.9.9.9.9.9.9.9.9.w.9.9.9.9.9.9.9.9.9.8.e.m.f.< & ,.p.1.p.p.p.p.p.p.",
"p.p.p.p.p.p.1.p.p.k > +.g.x.n.z.z.z.z.z.z.z.l.h.h.l.z.z.z.z.z.z.z.n.x.g.+.> p ,.p.1.p.p.p.p.p.p.",
"p.p.p.p.p.p.1.p.p.V ; + [ x.M.c.c.c.c.v.c.c.v.b.b.v.c.c.c.c.c.c.c.M.x.[ + ; f ,.p.1.p.p.p.p.p.p.",
"p.p.p.p.p.p.1.p.p.x > e r ' ^ z z z z W 7 l ;.h.s.} z l W z z z z ^ ' r e > d ,.p.1.p.p.p.p.p.p.",
"p.p.p.p.p.p.1.p.p.k > T y w O # X X X o   X ] r.5.J X . o X X X # O w y T > k p.p.1.p.p.p.p.p.p.",
"p.p.p.p.p.p.1.p.p.k > U u t J 3 3 3 3 3 1 3 R 8.8.R 3 1 3 3 3 3 3 J t u U > k p.p.1.p.p.p.p.p.p.",
"p.p.p.p.p.p.<.p.p.d 5 o.3.` G 1 1 3 3 3 1 1 9 K L 9 1 1 3 3 3 1 1 G ` 3.o.5 d p.p.<.p.p.p.p.p.p.",
"p.p.p.p.p.p.2.p.p.x < (  .' I H H H H H H H H 9 9 H H H H H H H H I '  .( < x p.p.2.p.p.p.p.p.p.",
"p.p.p.p.p.p.p.p.S S N : / 6.4.#.| | | | | | | | | | | | | | | | #.4.6./ : N S S ,.,.,.,.,.,.,.,.",
"p.p.p.p.p.p.p.p.S ,.,.i 6 ( $.{ ............X.X.X.X.............{ $.( 6 i ,.,.S ,.,.,.,.,.,.,.,.",
"p.p.p.p.p.p.p.p.,.S ,.,.M % > % % % % % % % % % % % % % % % % % % > % D ,.,.S ,.,.,.,.,.,.,.,.,.",
"p.p.p.p.p.p.p.p.,.,.,.,.S h j h g g g g g g h g C C C C C C C C Z Z Z 1.,.,.,.,.,.,.,.,.,.,.,.,.",
",.,.,.,.,.,.,.,.,.,.,.S ,.,.,.,.,.,.,.,.,.,.,.,.,.,.,.,.,.,.,.,.,.,.,.,.S ,.,.,.,.,.,.,.,.,.,.,.",
",.,.,.,.,.,.,.,.,.,.,.,.,.,.,.,.,.,.,.,.,.,.,.,.,.,.,.,.,.,.,.,.,.,.,.,.,.,.,.,.,.,.,.,.,.,.,.,.",
",.,.,.,.,.,.,.,.,.,.,.,.,.S S S S S S S S S S S S S S S S S S S S S S ,.,.,.,.,.,.,.,.,.,.,.,.,.",
",.,.,.,.,.,.,.,.,.,.,.,.,.,.,.,.,.,.,.,.,.,.,.,.,.,.,.,.,.,.,.,.,.,.,.,.,.,.,.,.,.,.,.,.,.,.,.,.",
",.,.,.,.,.,.,.,.q q q q q q q q q q q q ,.,.,.,.,.,.,.,.,.,.,.,.,.,.,.,.,.,.,.,.q q q q q q q q ",
",.,.,.,.,.,.,.,.q q q q q q q q q q q q ,.,.,.,.,.,.,.,.,.,.,.,.,.,.,.,.,.,.,.,.q q q q q q q q ",
",.,.,.,.,.,.,.,.q q q q q q q q q q q q ,.,.,.,.,.,.,.,.,.,.,.,.,.,.,.,.,.,.,.,.q q q q q q q q ",
",.,.,.,.,.,.,.,.q q q q q q q q q q q q ,.,.,.,.,.,.,.,.,.,.,.,.,.,.,.,.,.,.,.,.q q q q q q q q ",
"q q q q q q q q q q q q q q q q q q q q q q q q q q q q q q q q q q q q q q q q q q q q q q q q ",
"q q q q q q q q q q q q q q q q q q q q q q q q q q q q q q q q q q q q q q q q q q q q q q q q ",
"q q q q q q q q q q q q q q q q q q q q q q q q q q q q q q q q q q q q q q q q q q q q q q q q ",
"q q q q q q q q q q q q q q q q q q q q q q q q q q q q q q q q q q q q q q q q q q q q q q q q "
};
