/* XPM */
static char *_8e9bb636a024a15ba40a6da77c3fe87xfPqbfSTE92uZs9N[] = {
/* columns rows colors chars-per-pixel */
"48 48 137 2 ",
"   c #6D3D49",
".  c #734446",
"X  c #774845",
"o  c #7A4A45",
"O  c #704048",
"+  c #8E5F3D",
"@  c #97643B",
"#  c #AF7D37",
"$  c #854C46",
"%  c #914B44",
"&  c #845542",
"*  c #8C5446",
"=  c #895941",
"-  c #9A5545",
";  c #9D5C46",
":  c #9E5D48",
">  c #A15E47",
",  c #A05D48",
"<  c #9C624B",
"1  c #9F6C4F",
"2  c #916E51",
"3  c #9B7150",
"4  c #A46146",
"5  c #A96446",
"6  c #A66E47",
"7  c #AA6947",
"8  c #A6644B",
"9  c #AC634C",
"0  c #AD694A",
"q  c #B36643",
"w  c #B56C44",
"e  c #B86D42",
"r  c #BE7443",
"t  c #B17148",
"y  c #B67A49",
"u  c #BB7F49",
"i  c #AD6E53",
"p  c #B16650",
"a  c #AA7355",
"s  c #AE7951",
"d  c #B07B52",
"f  c #C07743",
"g  c #C47B42",
"h  c #C87F42",
"j  c #C27554",
"k  c #C07B50",
"l  c #799E57",
"z  c #7A9F58",
"x  c #78A158",
"c  c #BE8C2E",
"v  c #BE8C33",
"b  c #BD8339",
"n  c #C5942F",
"m  c #CE9E2E",
"M  c #D29F2D",
"N  c #C18E30",
"B  c #C4883B",
"V  c #C09130",
"C  c #CC9A31",
"Z  c #D09F38",
"A  c #D6A639",
"S  c #ECB73D",
"D  c #848250",
"F  c #9D8656",
"G  c #938E57",
"H  c #8D9256",
"J  c #959659",
"K  c #9D935C",
"L  c #979859",
"P  c #9A9A5C",
"I  c #BD8241",
"U  c #BB804A",
"Y  c #A39E5E",
"T  c #9AA35C",
"R  c #9FA85D",
"E  c #9FB45F",
"W  c #A1AE5F",
"Q  c #A79360",
"!  c #A5A561",
"~  c #A9A661",
"^  c #A1AF62",
"/  c #AFAB63",
"(  c #A4BF63",
")  c #B3B666",
"_  c #C68344",
"`  c #C98446",
"'  c #C88841",
"]  c #C1874B",
"[  c #C4884E",
"{  c #CE8F4E",
"}  c #D08F40",
"|  c #D08F49",
" . c #C69442",
".. c #CF9349",
"X. c #D39142",
"o. c #D2944A",
"O. c #D69F4E",
"+. c #D99D4A",
"@. c #D18B55",
"#. c #D19554",
"$. c #DC9C52",
"%. c #DBA34B",
"&. c #DEA354",
"*. c #E4B542",
"=. c #E6B845",
"-. c #EDBC4F",
";. c #E3A755",
":. c #E7AB54",
">. c #EBAB56",
",. c #E6A45C",
"<. c #EEAE58",
"1. c #E8B750",
"2. c #ECBA51",
"3. c #EDB45A",
"4. c #F2BE53",
"5. c #F1B35C",
"6. c #FBBB5B",
"7. c #A4C263",
"8. c #B8C66B",
"9. c #BED06F",
"0. c #F4C54F",
"q. c #EFC250",
"w. c #F5C551",
"e. c #F7C951",
"r. c #FBCD51",
"t. c #F9C35D",
"y. c #FFD753",
"u. c #FFD95C",
"i. c #FFE45B",
"p. c #FFEC5D",
"a. c #FFF35D",
"s. c #C0D26F",
"d. c #C1D370",
"f. c #C0D470",
"g. c #FFD462",
"h. c #B1E0BE",
"j. c #9BD4C3",
/* pixels */
"x x x x x x x x 7.7.7.7.f.f.9.s.f.f.f.f.f.f.f.f.f.f.f.f.f.f.f.f.7.7.7.7.7.7.7.7.7.7.7.7.x x x x ",
"x x x x x x x x 7.7.7.7.s.9.f.f.Y Q K K K K K K K K K K K K Q Y 7.7.( 7.7.7.7.7.7.7.7.7.x x x x ",
"x x x x x x x x 7.7.7.7.d.f.9.) 8 j 0 0 0 0 0 0 0 0 0 0 0 0 j 8 R ( 7.7.7.7.7.7.7.7.7.7.x x x x ",
"x x x x x x x x 7.7.7.( f.f.G a 3.g.t.t.t.t.t.t.t.t.t.t.t.t.g.3.i D 7.7.( 7.7.7.7.7.7.7.x x x x ",
"x x x x x x x x 7.7.7.( 8./ d ,.u.a.p.p.p.p.p.p.p.p.p.p.p.p.a.u.,.s P E ( 7.7.7.7.7.7.7.x x x x ",
"x x x x x x x x 7.( 7.7.! ; 3.i.e.-.w.w.w.w.w.w.w.w.w.w.w.w.-.e.i.3.- J 7.7.( 7.7.7.7.7.x x x x ",
"x x x x x x x x 7.( 7.7.Y 8 5.i.r.%.u y U u u u u u u U y u %.r.i.5.8 J 7.7.( 7.7.7.7.7.x x x x ",
"x x x x x x x x 7.( 7.7.~ : $.w.2.] - - > , , , , , , > - - ] 2.w.$.: L 7.7.( 7.7.7.7.7.x x x x ",
"x x x x 7.7.7.7.7.( 7.7.J ; ;.2.u - , w r e e e e e e r w , - u 2.;.; J 7.7.( 7.7.7.7.7.x x x x ",
"x x x x 7.7.7.7.7.( 7.7.J ; :.1.7 % 5 w r h h h h h h r w 5 % 7 1.:.; J 7.7.( 7.7.7.7.7.x x x x ",
"x x x x 7.7.7.7.7.( 7.7.J ; >.2.t - 4 ; 5 r f r r f r 5 ; 4 - t 2.>.; J 7.7.( 7.7.7.7.7.x x x x ",
"x x x x 7.7.7.7.7.( 7.7.J 9 6.q.7 % 4 , , 5 5 5 5 5 5 , , 4 % 7 q.6.9 J 7.7.( 7.7.7.7.7.x x x x ",
"x x x x 7.7.7.7.7.7.7.7.T 3 #.&.[ 7 4 4 4 , , , , , , 4 4 4 7 [ &.#.3 T 7.7.7.7.x x x x x x x x ",
"x x x x 7.7.7.7.7.7.7.( 7.7.2 k 2.O., ; 4 4 , 4 4 , 4 4 ; , O.2.k 2 7.7.( 7.7.7.x x x x x x x x ",
"x x x x 7.7.7.7.7.7.7.7.^ F 6 B S  .$ $ * * * * * * * * $ $  .S B 6 F ^ 7.7.7.7.x x x x x x x x ",
"x x x x 7.7.7.7.7.( 7.7.K 9 X.m c @ . O X X X X X X X X O . @ c m X.9 K 7.7.( 7.x x x x x x x x ",
"x x x x x x x x 7.( 7.7.K , X.V + X X X X X X X X X X X X X X + V X., K 7.7.( 7.x x x x x x x x ",
"x x x x x x x x 7.( 7.7.P : } v o   X o X X X X X X X X o o   o v } : P 7.7.( 7.x x x x x x x x ",
"x x x x x x x x 7.( 7.7.P : } v = O X X X X X X X X X X X X O = v } : P 7.7.( 7.x x x x x x x x ",
"x x x x x x x x 7.( 7.7.P : } v = O X X X X X X X X X X X X O = v } : P 7.7.( 7.x x x x x x x x ",
"x x x x x x x x 7.( 7.7.P : X.v &   X X X X X X X X X X o X   & v X.: P 7.7.( 7.x x x x x x x x ",
"x x x x x x x x 7.( 7.7.P : X.v &   X X X X X X X X X X o X   & v X.: P 7.7.( 7.x x x x x x x x ",
"x x x x x x x x 7.( 7.7.P , ' n # =     O             O     = # n ' , P 7.7.( 7.x x x x x x x x ",
"x x x x x x x x 7.( 7.7.P , _ m M # = & = = = = = = = = & = # M m _ , P 7.7.( 7.x x x x x x x x ",
"j.j.j.j.x x x x 7.( 7.7.L ; | A C N v v v v v v v v v v v v N C A | ; L x x z x x x x x j.j.j.j.",
"j.j.j.j.x x x x 7.( 7.7.L ; $.=.Z v b b b b b b b b b b b b v Z =.$.; L x x z x x x x x j.j.j.j.",
"j.j.j.j.x x x x 7.( 7.7.J ; &.0.*.I , ; , , , , , , , , ; , I *.0.&.; J x x z x x x x x j.j.j.j.",
"j.j.j.j.x x x x 7.( 7.7.J ; $.r.0...q q w w w w w w w w q q ..0.r.$.; J x x z x x x x x j.j.j.j.",
"j.j.j.j.x x x x x z x x L : $.e.w.%.f f h g g g g g g h f f %.e.e.$.: L x x z x x x x x j.j.j.j.",
"j.j.j.j.x x x x x z x x L : $.e.e.+.r r f f f f f f f f r r +.e.e.$.: L x x z x x x x x j.j.j.j.",
"j.j.j.j.x x x x x l x x J 9 >.y.w.o.q q e e e e e e e e q q o.w.y.>.9 J x x l x x x x x j.j.j.j.",
"j.j.j.j.x x x x x x x x P < #.4.e.%.` _ ` ` ` ` ` ` ` ` _ ` %.e.4.#.< P x x x x x x x x j.j.j.j.",
"j.j.j.j.x x x x x x x z ( W 1 @.4.r.-.-.-.-.-.-.-.-.-.-.-.-.r.4.@.1 W ( z x x x x x x x j.j.j.j.",
"j.j.j.j.x x x x x x x l 7.7.H a { <.;.;.;.;.;.;.;.;.;.;.;.;.<.{ a H 7.7.l x x x x x x x j.j.j.j.",
"j.j.j.j.x x x x x x x x 7.( 7.E < p ; ; ; ; ; ; ; ; ; ; ; ; p < E 7.( 7.x x x x x x x x j.j.j.j.",
"j.j.j.j.x x x x x x x x 7.7.7.7.T P J J J J J J J J J J J J P T 7.7.7.7.x x x x x x x x j.j.j.j.",
"j.j.j.j.j.j.j.j.x x x x x x z x 7.7.7.7.7.7.7.7.7.7.7.7.7.7.7.7.x z x x x x x x j.j.j.j.j.j.j.j.",
"j.j.j.j.j.j.j.j.x x x x x x x x 7.7.7.7.7.7.7.7.7.7.7.7.7.7.7.7.x x x x x x x x j.j.j.j.j.j.j.j.",
"j.j.j.j.j.j.j.j.x x x x x x x x 7.( ( ( ( ( ( ( ( ( ( ( ( ( ( 7.x x x x x x x x j.j.j.j.j.j.j.j.",
"j.j.j.j.j.j.j.j.x x x x x x x x 7.7.7.7.7.7.7.7.7.7.7.7.7.7.7.7.x x x x x x x x j.j.j.j.j.j.j.j.",
"j.j.j.j.j.j.j.j.j.j.j.j.x x x x x x x x x x x x x x x x x x x x x x x x j.j.j.j.j.j.j.j.h.h.h.h.",
"j.j.j.j.j.j.j.j.j.j.j.j.x x x x x x x x x x x x x x x x x x x x x x x x j.j.j.j.j.j.j.j.h.h.h.h.",
"j.j.j.j.j.j.j.j.j.j.j.j.x x x x x x x x x x x x x x x x x x x x x x x x j.j.j.j.j.j.j.j.h.h.h.h.",
"j.j.j.j.j.j.j.j.j.j.j.j.x x x x x x x x x x x x x x x x x x x x x x x x j.j.j.j.j.j.j.j.h.h.h.h.",
"j.j.j.j.j.j.j.j.j.j.j.j.j.j.j.j.x x x x x x x x x x x x x x x x j.j.j.j.j.j.j.j.j.j.j.j.j.j.j.j.",
"j.j.j.j.j.j.j.j.j.j.j.j.j.j.j.j.x x x x x x x x x x x x x x x x j.j.j.j.j.j.j.j.j.j.j.j.j.j.j.j.",
"j.j.j.j.j.j.j.j.j.j.j.j.j.j.j.j.x x x x x x x x x x x x x x x x j.j.j.j.j.j.j.j.j.j.j.j.j.j.j.j.",
"j.j.j.j.j.j.j.j.j.j.j.j.j.j.j.j.x x x x x x x x x x x x x x x x j.j.j.j.j.j.j.j.j.j.j.j.j.j.j.j."
};
