/* XPM */
static char *_42f5b2e0f0a4051803b787935a6f215Hu61lId1j9IyHYBU[] = {
/* columns rows colors chars-per-pixel */
"48 48 140 2 ",
"   c #964C3D",
".  c #984E3E",
"X  c #9D553E",
"o  c #A15A3F",
"O  c #AA6934",
"+  c #BE7F33",
"@  c #905447",
"#  c #9B5241",
"$  c #975B46",
"%  c #9C5C46",
"&  c #88664D",
"*  c #8F6C50",
"=  c #8F7D52",
"-  c #937552",
";  c #A96347",
":  c #AB654A",
">  c #A5694C",
",  c #AB694A",
"<  c #BC6E42",
"1  c #B26E4B",
"2  c #BD7242",
"3  c #B8704F",
"4  c #BE7552",
"5  c #B67C57",
"6  c #B87E56",
"7  c #B17A60",
"8  c #C57E45",
"9  c #CA7D58",
"0  c #78A158",
"q  c #C5912D",
"w  c #CB8D3E",
"e  c #D8AA37",
"r  c #D7A63E",
"t  c #DBAF3A",
"y  c #DEB13E",
"u  c #958055",
"i  c #9A8557",
"p  c #998854",
"a  c #9C8458",
"s  c #9A8B59",
"d  c #9D9B59",
"f  c #A28957",
"g  c #A18E5B",
"h  c #BD8457",
"j  c #BD8458",
"k  c #A3935E",
"l  c #AB925C",
"z  c #9BA75C",
"x  c #9BAA5C",
"c  c #9BB25E",
"v  c #9EB85F",
"b  c #A69161",
"n  c #A6A461",
"m  c #AAA663",
"M  c #B1AF64",
"N  c #A5BF62",
"B  c #B3B667",
"V  c #B2BB67",
"C  c #C68244",
"Z  c #C88446",
"A  c #C78A44",
"S  c #CB8A47",
"D  c #CE8C48",
"F  c #D48C4E",
"G  c #CD9241",
"H  c #D19546",
"J  c #D7904E",
"K  c #D69C4C",
"L  c #DA9D4A",
"P  c #C08451",
"I  c #C18958",
"U  c #D58B51",
"Y  c #D98F53",
"T  c #DA8D5D",
"R  c #CA9652",
"E  c #DB9452",
"W  c #DE9A53",
"Q  c #E39F53",
"!  c #E69D5B",
"~  c #D8A740",
"^  c #DDAE45",
"/  c #D8A04D",
"(  c #DEB142",
")  c #DFA454",
"_  c #DAA659",
"`  c #EEBC4F",
"'  c #F0BE4E",
"]  c #E4A454",
"[  c #E4AA54",
"{  c #EAAE54",
"}  c #E9A55B",
"|  c #E3AE5C",
" . c #EDB455",
".. c #EBB950",
"X. c #EFB059",
"o. c #F2BA56",
"O. c #F5BC5B",
"+. c #DC9260",
"@. c #EEAB63",
"#. c #F0AD61",
"$. c #EBBC62",
"%. c #F8B76A",
"&. c #FCBB6D",
"*. c #A4C263",
"=. c #BCCD6E",
"-. c #BED06F",
";. c #BFD270",
":. c #F0C847",
">. c #F5C84F",
",. c #FCCF4E",
"<. c #F2C050",
"1. c #FAC354",
"2. c #F7C951",
"3. c #FCCC56",
"4. c #FAC45C",
"5. c #FECB5C",
"6. c #FFD357",
"7. c #FFDE5B",
"8. c #FFE356",
"9. c #FFE15D",
"0. c #FFEE58",
"q. c #FFF05B",
"w. c #C0D26F",
"e. c #C0D470",
"r. c #FAC462",
"t. c #FFD760",
"y. c #FFC271",
"u. c #FFD578",
"i. c #FFE169",
"p. c #FFEC6C",
"a. c #FFF260",
"s. c #FFF965",
"d. c #FFF46F",
"f. c #FFF96F",
"g. c #FFEB74",
"h. c #FFE77A",
"j. c #FFEB7A",
"k. c #FFF772",
"l. c #FFF97D",
"z. c #FFF281",
/* pixels */
"0 0 0 0 0 0 0 0 0 0 0 0 0 0 0 0 0 0 0 0 0 0 0 0 0 0 0 0 0 0 0 0 0 0 0 0 0 0 0 0 0 0 0 0 0 0 0 0 ",
"0 0 0 0 0 0 0 0 0 0 0 0 0 0 0 0 0 0 0 0 0 0 0 0 0 0 0 0 0 0 0 0 0 0 0 0 0 0 0 0 0 0 0 0 0 0 0 0 ",
"0 0 0 0 0 0 0 0 0 0 0 0 0 0 0 0 0 0 0 0 0 0 0 0 0 0 0 0 0 0 0 0 0 0 0 0 0 0 0 0 0 0 0 0 0 0 0 0 ",
"0 0 0 0 0 0 0 0 0 0 0 0 0 0 0 0 0 0 0 0 0 0 0 0 0 0 0 0 0 0 0 0 0 0 0 0 0 0 0 0 0 0 0 0 0 0 0 0 ",
"*.*.*.*.0 0 0 0 0 0 0 0 0 0 0 0 *.*.*.*.*.*.*.*.*.*.*.*.*.*.*.*.*.*.*.*.0 0 0 0 0 0 0 0 *.*.*.*.",
"*.*.*.*.0 0 0 0 0 0 0 0 0 0 0 0 *.*.*.*.*.*.*.*.*.*.*.*.*.*.*.*.*.*.*.*.0 0 0 0 0 0 0 0 *.*.*.*.",
"*.*.*.*.0 0 0 0 0 0 0 0 0 0 0 0 *.*.*.*.*.*.*.*.*.*.*.*.*.*.*.*.*.*.*.*.0 0 0 0 0 0 0 0 *.*.*.*.",
"*.*.*.*.0 0 0 0 0 0 0 0 0 0 0 0 *.*.*.*.*.*.*.*.*.*.*.*.*.*.*.*.*.*.*.*.0 0 0 0 0 0 0 0 *.*.*.*.",
"*.*.*.*.*.*.*.*.*.*.*.*.*.*.*.*.*.*.*.*.*.*.*.*.*.*.*.*.*.*.*.*.*.*.*.*.*.*.*.*.*.*.*.*.*.*.*.*.",
"*.*.*.*.*.*.*.*.*.*.*.*.*.*.*.*.*.*.*.*.*.*.*.*.*.*.*.*.*.*.*.*.*.*.*.*.*.*.*.*.*.*.*.*.*.*.*.*.",
"*.*.*.*.*.*.*.*.*.*.*.*.*.*.*.*.*.*.*.*.*.*.*.*.*.*.*.*.*.*.*.*.*.*.*.*.*.*.*.*.*.*.*.*.*.*.*.*.",
"*.*.*.*.*.*.*.*.*.*.*.*.*.N N N *.*.*.*.*.*.*.*.*.*.*.*.*.*.*.*.N N N *.*.*.*.*.*.*.*.*.*.*.*.*.",
"*.*.*.*.*.*.*.*.*.*.*.*.*.*.*.*.*.*.*.*.*.*.*.*.w.w.w.w.*.*.*.*.*.*.*.*.*.*.*.*.*.*.*.*.*.*.*.*.",
"*.*.*.*.*.*.*.*.*.*.*.*.*.*.*.*.*.*.*.*.*.*.*.*.w.w.w.w.*.*.*.*.*.*.*.*.*.*.*.*.*.*.*.*.*.*.*.*.",
"*.*.*.*.*.*.*.*.*.N N *.v - 7 u *.*.*.*.*.*.*.*.e.e.e.e.*.*.*.*.u 7 - v *.N N *.*.*.*.*.*.*.*.*.",
"*.*.*.*.*.*.*.*.*.*.*.c g 1 T , d x x x x x x x V V V V x x x d , T 1 g c *.*.*.*.*.*.*.*.*.*.*.",
"e.e.e.e.e.e.e.e.N *.*.& 4 [ 1.K > @ $ $ $ $ $ $ $ $ $ $ $ $ @ > K 1.[ 4 * e.e.-.e.e.e.e.e.e.e.e.",
"e.e.e.e.e.e.w.e.N z f P O.6.0.3.U 9 +.+.+.T T T T T T +.+.+.9 U 3.0.6.O.P l B -.e.w.e.e.e.e.e.e.",
"e.e.e.e.e.e.-.e.*.= 1 4.a.7.9.5.Q ! &.&.%.&.&.&.&.&.&.%.&.&.! Q 5.9.7.a.4.1 s e.e.-.e.e.e.e.e.e.",
"e.e.e.e.e.e.=.e.*.= 3 5.s.9.O.] W ! } } #.&.y.&.&.y.&.#.} } ! W ] O.9.s.5.3 i e.e.=.e.e.e.e.e.e.",
"*.*.*.*.e.e.-.e.e.s , O.a.7.{ U E E J F W @.@.@.@.@.@.W F J E E U { 7.a.O., s e.e.-.e.e.*.*.*.*.",
"*.*.*.*.e.e.-.e.e.s , O.a.9. .E E W E E E W W W W W W E E E W E E  .9.a.O., s e.e.-.e.e.*.*.*.*.",
"*.*.*.*.e.e.-.e.e.s , o.q.9.{ U U E Y Y U U F U U F U U Y Y E U U { 9.q.o., s e.e.-.e.e.*.*.*.*.",
"*.*.*.*.e.e.-.e.e.s , r.s.7. .W W ] Q Q Q ] ] ] ] ] ] Q Q Q ] W W  .7.s.r., s e.e.-.e.e.*.*.*.*.",
"e.e.e.e.e.e.-.e.e.p , u.l.7.2.3.3.3.3.3.3.3.3.6.3.3.3.3.3.3.3.3.3.2.7.l.u., p e.e.-.e.e.e.e.e.e.",
"e.e.e.e.e.e.-.e.e.g : | i.g.k.f.f.f.f.f.f.f.d.p.p.d.f.f.f.f.f.f.f.k.g.i.| : g e.e.-.e.e.e.e.e.e.",
"e.e.e.e.e.e.-.e.e.b ; + ( g.z.h.h.h.h.h.h.h.h.j.j.h.h.h.h.h.h.h.h.z.g.( + ; b e.e.-.e.e.e.e.e.e.",
"e.e.e.e.e.e.-.e.e.k : w e ^ R j j j j I 6 h $.p.t._ j h I j j j j R ^ e w : k e.e.-.e.e.e.e.e.e.",
"e.e.e.e.e.e.-.e.e.g : K t q O # X X X o   X / 8.,.A X . o X X X # O q t K : g e.e.-.e.e.e.e.e.e.",
"e.e.e.e.e.e.-.e.e.g : H y r A 2 2 2 2 2 < 2 L 2.2.L 2 < 2 2 2 2 2 A r y H : g e.e.-.e.e.e.e.e.e.",
"e.e.e.e.e.e.=.e.e.a 4 { :.~ C < < 2 2 2 < < 8 S D 8 < < 2 2 2 < < C ~ :.{ 4 a e.e.=.e.e.e.e.e.e.",
"e.e.e.e.e.e.;.e.e.k , W ' ^ G Z Z Z Z Z Z Z Z 8 8 Z Z Z Z Z Z Z Z G ^ ' W , k e.e.;.e.e.e.e.e.e.",
"e.e.e.e.e.e.e.e.-.=.B > E <.>...` ` ` ` ` ` ` ` ` ` ` ` ` ` ` ` ..>.<.E > B =.-.e.e.e.e.e.e.e.e.",
"e.e.e.e.e.e.e.e.-.e.e.s 5 W X.) ] ] ] ] ] ] [ [ [ [ ] ] ] ] ] ] ) X.W 5 s e.e.-.e.e.e.e.e.e.e.e.",
"e.e.e.e.e.e.e.e.e.w.e.e.M % : % % % % % % % % % % % % % % % % % % : % B e.e.w.e.e.e.e.e.e.e.e.e.",
"e.e.e.e.e.e.e.e.e.w.;.e.-.m m m n n n n n n n n n n n n n n n n m m m -.e.;.w.e.e.e.e.e.e.e.e.e.",
"e.e.e.e.e.e.e.e.e.e.e.-.e.e.e.e.e.e.e.e.e.e.e.e.e.e.e.e.e.e.e.e.e.e.e.e.-.e.e.e.e.e.e.e.e.e.e.e.",
"e.e.e.e.e.e.e.e.e.e.e.e.e.e.e.e.e.e.e.e.e.e.e.e.e.e.e.e.e.e.e.e.e.e.e.e.e.e.e.e.e.e.e.e.e.e.e.e.",
"e.e.e.e.e.e.e.e.e.e.e.e.e.-.-.-.-.-.-.-.-.-.-.-.-.-.-.-.-.-.-.-.-.-.-.e.e.e.e.e.e.e.e.e.e.e.e.e.",
"e.e.e.e.e.e.e.e.e.e.e.e.e.e.e.e.e.e.e.e.e.e.e.e.e.e.e.e.e.e.e.e.e.e.e.e.e.e.e.e.e.e.e.e.e.e.e.e.",
"e.e.e.e.e.e.e.e.e.e.e.e.e.e.e.e.e.e.e.e.e.e.e.e.e.e.e.e.e.e.e.e.e.e.e.e.e.e.e.e.e.e.e.e.e.e.e.e.",
"e.e.e.e.e.e.e.e.e.e.e.e.e.e.e.e.e.e.e.e.e.e.e.e.e.e.e.e.e.e.e.e.e.e.e.e.e.e.e.e.e.e.e.e.e.e.e.e.",
"e.e.e.e.e.e.e.e.e.e.e.e.e.e.e.e.e.e.e.e.e.e.e.e.e.e.e.e.e.e.e.e.e.e.e.e.e.e.e.e.e.e.e.e.e.e.e.e.",
"e.e.e.e.e.e.e.e.e.e.e.e.e.e.e.e.e.e.e.e.e.e.e.e.e.e.e.e.e.e.e.e.e.e.e.e.e.e.e.e.e.e.e.e.e.e.e.e.",
"e.e.e.e.e.e.e.e.e.e.e.e.e.e.e.e.e.e.e.e.e.e.e.e.e.e.e.e.e.e.e.e.e.e.e.e.e.e.e.e.e.e.e.e.e.e.e.e.",
"e.e.e.e.e.e.e.e.e.e.e.e.e.e.e.e.e.e.e.e.e.e.e.e.e.e.e.e.e.e.e.e.e.e.e.e.e.e.e.e.e.e.e.e.e.e.e.e.",
"e.e.e.e.e.e.e.e.e.e.e.e.e.e.e.e.e.e.e.e.e.e.e.e.e.e.e.e.e.e.e.e.e.e.e.e.e.e.e.e.e.e.e.e.e.e.e.e.",
"e.e.e.e.e.e.e.e.e.e.e.e.e.e.e.e.e.e.e.e.e.e.e.e.e.e.e.e.e.e.e.e.e.e.e.e.e.e.e.e.e.e.e.e.e.e.e.e."
};
