/* XPM */
static char *c5c3ba53d9e84300e4835626057d45ffLZhitpyqf1VUQPpT[] = {
/* columns rows colors chars-per-pixel */
"48 48 139 2 ",
"   c #6E3E48",
".  c #744546",
"X  c #7A4A45",
"o  c #704048",
"O  c #797E51",
"+  c #92613C",
"@  c #9A6A3C",
"#  c #804D45",
"$  c #8F4D45",
"%  c #934E46",
"&  c #865741",
"*  c #8D5B43",
"=  c #8C5548",
"-  c #965145",
";  c #9A5746",
":  c #9E5C46",
">  c #91574A",
",  c #9B5649",
"<  c #935B4C",
"1  c #995C4F",
"2  c #A35F46",
"3  c #95644E",
"4  c #98644E",
"5  c #84744F",
"6  c #966352",
"7  c #9A6753",
"8  c #9C6953",
"9  c #9A7353",
"0  c #977854",
"q  c #9F7A57",
"w  c #A46146",
"e  c #AA6346",
"r  c #AA6A47",
"t  c #A5604A",
"y  c #AD644D",
"u  c #AE6A48",
"i  c #B16240",
"p  c #B56C44",
"a  c #BB6F42",
"s  c #B26D4B",
"d  c #B77144",
"f  c #BC7343",
"g  c #B5764D",
"h  c #B67849",
"j  c #BE7949",
"k  c #B57E54",
"l  c #C07743",
"z  c #C37B43",
"x  c #C87D42",
"c  c #C27D4D",
"v  c #768252",
"b  c #769C57",
"n  c #789C57",
"m  c #7A9E58",
"M  c #79A057",
"N  c #78A158",
"B  c #B88A2E",
"V  c #BD8537",
"C  c #BE8C33",
"Z  c #BD8339",
"A  c #C28E34",
"S  c #C69133",
"D  c #C99433",
"F  c #CC9A35",
"G  c #CB973F",
"H  c #D39F3E",
"J  c #D5A42D",
"K  c #D2A233",
"L  c #DCA833",
"P  c #DBAD3D",
"I  c #959258",
"U  c #929B59",
"Y  c #BD804E",
"T  c #A28257",
"R  c #AE8D5A",
"E  c #BB8559",
"W  c #BD885A",
"Q  c #AA955D",
"!  c #99A05A",
"~  c #A6A461",
"^  c #AAA563",
"/  c #A3BD62",
"(  c #B2BD68",
")  c #C78145",
"_  c #C98446",
"`  c #CF8D46",
"'  c #C2874B",
"]  c #C78D4B",
"[  c #C98F4B",
"{  c #C9904A",
"}  c #C38353",
"|  c #C98452",
" . c #CE8B53",
".. c #D28D55",
"X. c #CB9150",
"o. c #D79155",
"O. c #DC9F55",
"+. c #DC9459",
"@. c #DF9A5B",
"#. c #DDA84D",
"$. c #E2AB4D",
"%. c #E8AD4F",
"&. c #E5B24D",
"*. c #E9B54F",
"=. c #EEBD4F",
"-. c #E4A755",
";. c #E7AE51",
":. c #E9AB56",
">. c #E9AE5A",
",. c #EBB650",
"<. c #EEBA52",
"1. c #F0BE51",
"2. c #A4C263",
"3. c #B4C66A",
"4. c #B8C46A",
"5. c #BCCD6E",
"6. c #BED16F",
"7. c #BFD370",
"8. c #F0C347",
"9. c #F3C253",
"0. c #F4C151",
"q. c #F7C651",
"w. c #FBCF50",
"e. c #FACC53",
"r. c #FED353",
"t. c #FCD054",
"y. c #FFDC54",
"u. c #FFD45B",
"i. c #FFD05C",
"p. c #FFDA58",
"a. c #FFD85C",
"s. c #FFDD5D",
"d. c #FFE358",
"f. c #FFE459",
"g. c #FFE25D",
"h. c #FFE45E",
"j. c #C0D26F",
"k. c #C1D370",
"l. c #C0D470",
/* pixels */
"N N N N N N N N N N N N N N m m m m m m m m m m m m m m m m m m m m N N N N N N N N N N N N N N ",
"N N N N N N N N N N N N N N N N N N N N N N N N N N N N N N N N N N N N N N N N N N N N N N N N ",
"N N N N N N N N N N N N N N m m m n n n n n n n n n n n n n n m m m N N N N N N N N N N N N N N ",
"N N N N N N N N N N N n N N 5 1 < = = = = = = = = = = = = = = < 1 5 N N n N N N N N N N N N N N ",
"2.2.2.2.N N N N N N N N b O k @.+. ......................... .+.@.k U / N N N N N N N N 2.2.2.2.",
"2.2.2.2.N N N N N m N N v ; >.h.s.u.a.a.a.a.a.a.a.a.a.a.a.a.u.s.h.>.; U N N m N N N N N 2.2.2.2.",
"2.2.2.2.N N N N M N m 5 E >.i.p.d.d.f.f.f.f.f.f.f.f.f.f.f.f.d.d.p.i.>.W 5 m N M N N N N 2.2.2.2.",
"2.2.2.2.N N N N m N b = +.g.y.&.#.#.#.#.#.#.#.#.#.#.#.#.#.#.#.#.&.y.g.+.= b N m N N N N 2.2.2.2.",
"2.2.2.2.2.2.2.2./ 2./ < ..9.y.&.h w u r r r r r r r r r r u w h &.y.9...< / 2./ 2.2.2.2.2.2.2.2.",
"2.2.2.2.2.2.2.2./ 2./ 3 | *.,.' 2 % ; 2 e 2 2 2 2 2 2 e 2 ; % 2 ' ,.*.| 3 / 2./ 2.2.2.2.2.2.2.2.",
"2.2.2.2.2.2.2.2./ 2./ <  .1.[ - : w w d z l l l l l l z d w w : - [ 1. .< / 2./ 2.2.2.2.2.2.2.2.",
"2.2.2.2.2.2.2.2./ 2./ <  .<.] - : w w e p z x z z x z p e w w : - ] <. .< / 2./ 2.2.2.2.2.2.2.2.",
"2.2.2.2.2.2.2.2./ 2./ > +.q.{ - : w 2 : w p d p p d p w : 2 w : - { q.+.> / 2./ 2.2.2.2.2.2.2.2.",
"2.2.2.2.2.2.2.2./ 2./ < o.0.[ - : w 2 2 2 w w w w w w 2 2 2 w : - [ 0.o.< / 2./ 2.2.2.2.2.2.2.2.",
"2.2.2.2.2.2.2.2.2.2.2.! R Y O.X.u 2 e e w 2 2 2 2 2 2 w e e 2 u X.O.Y R ! 2.2.2.2.2.2.2.2.2.2.2.",
"2.2.2.2.2.2.2.2.2./ 2./ I ; %.=.u $ : : : : : : : : : : : : $ u =.%.; I / 2./ 2.2.2.2.2.2.2.2.2.",
"l.l.l.l.l.l.l.k./ 2./ 9 g V L F * o # # # # # # # # # # # # o * F L V g q 5.k.6.k.l.l.l.l.l.l.l.",
"l.l.l.l.l.l.l.k./ 2./ 1 ..F B + X o . . . . . . . . . . . . o X + B F ..1 5.l.5.k.l.l.l.l.l.l.l.",
"l.l.l.l.l.l.l.k./ 2./ 6 z D @   . X X X X X X X X X X X X X X .   @ D z 7 5.l.6.k.l.l.l.l.l.l.l.",
"l.l.l.l.l.l.l.k./ 2./ 6 z D @   . X X X X X X X X X X X X X X .   @ D z 7 5.l.6.k.l.l.l.l.l.l.l.",
"2.2.2.2.l.l.l.k.6.l.5.7 z D @   . X X X X X X X X X X X X X X .   @ D z 7 5.l.6.k.l.l.l.2.2.2.2.",
"2.2.2.2.l.l.l.k.6.l.5.7 z D @   . X X X X X X X X X X X X X X .   @ D z 7 5.l.6.k.l.l.l.2.2.2.2.",
"2.2.2.2.l.l.l.k.6.l.5.8 j S C @ .   o o                 o o   . @ C S j 8 5.l.6.k.l.l.l.2.2.2.2.",
"2.2.2.2.l.l.l.k.6.l.5.8 j S J A + X & & & & & & & & & & & & X + A J S j 8 5.l.6.k.l.l.l.2.2.2.2.",
"l.l.l.l.l.l.l.k.6.l.5.7 c H K S C C C C C C C C C C C C C C C C S K H c 7 5.l.6.k.l.l.l.l.l.l.l.",
"l.l.l.l.l.l.l.k.6.l.5.4 | &.P A V Z Z Z Z Z Z Z Z Z Z Z Z Z Z V A P &.| 4 5.l.6.k.l.l.l.l.l.l.l.",
"l.l.l.l.l.l.l.k.6.l.5.3 | <.8.G e , 2 2 2 2 2 2 2 2 2 2 2 2 , e G 8.<.| 3 5.l.6.k.l.l.l.l.l.l.l.",
"l.l.l.l.l.l.l.k.6.l.5.3 | <.e.#.f e p p p p p p p p p p p p e f #.e.<.| 3 5.l.6.k.l.l.l.l.l.l.l.",
"l.l.l.l.l.l.l.k.6.l.5.3 | ,.t.*._ f z z z z z z z z z z z z f _ *.t.,.| 3 5.l.6.k.l.l.l.l.l.l.l.",
"l.l.l.l.l.l.l.k.6.l.5.3 | ,.t.&.) a l l l l l l l l l l l l a ) &.t.,.| 3 5.l.6.k.l.l.l.l.l.l.l.",
"l.l.l.l.l.l.l.k.5.l.5.< +.q.r.$.f i p p p p p p p p p p p p i f $.r.q.+.< 5.l.5.k.l.l.l.l.l.l.l.",
"l.l.l.l.l.l.l.k.6.k.5.9 } ;.e.*.` z _ _ _ _ _ _ _ _ _ _ _ _ z ` *.e.;.} 9 5.k.6.k.l.l.l.l.l.l.l.",
"l.l.l.l.l.l.l.l.k.6.7.4.Q s :.e.9.*.=.=.=.=.=.=.=.=.=.=.=.=.*.9.e.:.s Q 4.7.6.k.l.l.l.l.l.l.l.l.",
"l.l.l.l.l.l.l.l.l.j.l.l.3.0 } :.:.-.-.-.-.-.-.-.-.-.-.-.-.-.-.:.:.} 0 3.l.l.j.l.l.l.l.l.l.l.l.l.",
"l.l.l.l.l.l.l.l.l.l.l.5.l.l.T y t : : : : : : : : : : : : : : t y T l.l.5.l.l.l.l.l.l.l.l.l.l.l.",
"l.l.l.l.l.l.l.l.l.l.l.6.l.l.( ^ ^ ^ ~ ~ ~ ~ ~ ~ ~ ~ ~ ~ ~ ~ ^ ^ ^ ( l.l.6.l.l.l.l.l.l.l.l.l.l.l.",
"l.l.l.l.l.l.l.l.l.l.l.l.7.5.l.l.l.l.l.l.l.l.l.l.l.l.l.l.l.l.l.l.l.l.5.7.l.l.l.l.l.l.l.l.l.l.l.l.",
"l.l.l.l.l.l.l.l.l.l.l.l.l.l.l.l.l.l.l.l.l.l.l.l.l.l.l.l.l.l.l.l.l.l.l.l.l.l.l.l.l.l.l.l.l.l.l.l.",
"l.l.l.l.l.l.l.l.l.l.l.l.l.l.j.6.6.6.6.6.6.6.6.6.6.6.6.6.6.6.6.6.6.j.l.l.l.l.l.l.l.l.l.l.l.l.l.l.",
"l.l.l.l.l.l.l.l.l.l.l.l.l.l.l.l.l.l.l.l.l.l.l.l.l.l.l.l.l.l.l.l.l.l.l.l.l.l.l.l.l.l.l.l.l.l.l.l.",
"l.l.l.l.l.l.l.l.l.l.l.l.l.l.l.l.l.l.l.l.l.l.l.l.l.l.l.l.l.l.l.l.l.l.l.l.l.l.l.l.l.l.l.l.l.l.l.l.",
"l.l.l.l.l.l.l.l.l.l.l.l.l.l.l.l.l.l.l.l.l.l.l.l.l.l.l.l.l.l.l.l.l.l.l.l.l.l.l.l.l.l.l.l.l.l.l.l.",
"l.l.l.l.l.l.l.l.l.l.l.l.l.l.l.l.l.l.l.l.l.l.l.l.l.l.l.l.l.l.l.l.l.l.l.l.l.l.l.l.l.l.l.l.l.l.l.l.",
"l.l.l.l.l.l.l.l.l.l.l.l.l.l.l.l.l.l.l.l.l.l.l.l.l.l.l.l.l.l.l.l.l.l.l.l.l.l.l.l.l.l.l.l.l.l.l.l.",
"l.l.l.l.l.l.l.l.l.l.l.l.l.l.l.l.l.l.l.l.l.l.l.l.l.l.l.l.l.l.l.l.l.l.l.l.l.l.l.l.l.l.l.l.l.l.l.l.",
"l.l.l.l.l.l.l.l.l.l.l.l.l.l.l.l.l.l.l.l.l.l.l.l.l.l.l.l.l.l.l.l.l.l.l.l.l.l.l.l.l.l.l.l.l.l.l.l.",
"l.l.l.l.l.l.l.l.l.l.l.l.l.l.l.l.l.l.l.l.l.l.l.l.l.l.l.l.l.l.l.l.l.l.l.l.l.l.l.l.l.l.l.l.l.l.l.l.",
"l.l.l.l.l.l.l.l.l.l.l.l.l.l.l.l.l.l.l.l.l.l.l.l.l.l.l.l.l.l.l.l.l.l.l.l.l.l.l.l.l.l.l.l.l.l.l.l."
};
