/* XPM */
static char *_1f725c1fbe14269b204ab431ff97836UXSabsQgeMO6EkbE[] = {
/* columns rows colors chars-per-pixel */
"48 48 144 2 ",
"   c #6D3D49",
".  c #734446",
"X  c #774845",
"o  c #7A4A45",
"O  c #704048",
"+  c #8E5F3D",
"@  c #97643B",
"#  c #AF7D37",
"$  c #854C46",
"%  c #914B44",
"&  c #845542",
"*  c #8C5446",
"=  c #895941",
"-  c #9A5545",
";  c #9D5C46",
":  c #9E5D48",
">  c #A15E47",
",  c #A05D48",
"<  c #9C624B",
"1  c #9F6C4F",
"2  c #916E51",
"3  c #9B7452",
"4  c #A46146",
"5  c #A96446",
"6  c #A66E47",
"7  c #AA6947",
"8  c #A6644A",
"9  c #AC634C",
"0  c #AD694A",
"q  c #B36643",
"w  c #B56C44",
"e  c #B86D42",
"r  c #A77048",
"t  c #BE7443",
"y  c #B17148",
"u  c #B67A49",
"i  c #BB7F49",
"p  c #AD6E53",
"a  c #B16650",
"s  c #AA7355",
"d  c #AE7951",
"f  c #C07743",
"g  c #C47B42",
"h  c #C87F42",
"j  c #C27554",
"k  c #C07B50",
"l  c #799E57",
"z  c #7A9F58",
"x  c #78A158",
"c  c #BE8C2E",
"v  c #BE8C33",
"b  c #BD8339",
"n  c #C5942F",
"m  c #CE9E2E",
"M  c #D29F2D",
"N  c #C18E30",
"B  c #C4883B",
"V  c #C09130",
"C  c #CC9A31",
"Z  c #D09F38",
"A  c #D6A639",
"S  c #ECB73D",
"D  c #848250",
"F  c #9D8656",
"G  c #928A55",
"H  c #9A885A",
"J  c #8D9256",
"K  c #929156",
"L  c #959659",
"P  c #9D925B",
"I  c #979959",
"U  c #9B9A5C",
"Y  c #BD8241",
"T  c #BB804A",
"R  c #A78F5B",
"E  c #A29D5E",
"W  c #99A25B",
"Q  c #9FA85D",
"!  c #9FB55F",
"~  c #A1AE5F",
"^  c #A79360",
"/  c #A49D60",
"(  c #A6A461",
")  c #AAA564",
"_  c #A1AF62",
"`  c #AFB466",
"'  c #A4BF63",
"]  c #B3B666",
"[  c #B7BE6C",
"{  c #C68344",
"}  c #C98446",
"|  c #C88841",
" . c #C1874B",
".. c #C4884E",
"X. c #CE8F4E",
"o. c #D08F40",
"O. c #D08F49",
"+. c #C69442",
"@. c #CF9349",
"#. c #D39142",
"$. c #D2944A",
"%. c #D69F4E",
"&. c #D99D4A",
"*. c #D18B55",
"=. c #D19453",
"-. c #D19857",
";. c #DC9C52",
":. c #DBA34B",
">. c #DEA354",
",. c #E4B542",
"<. c #E6B845",
"1. c #EDBC4F",
"2. c #E3A755",
"3. c #E7AB54",
"4. c #EBAB56",
"5. c #E6A45C",
"6. c #EEAE58",
"7. c #E8B750",
"8. c #ECBA51",
"9. c #EDB45A",
"0. c #F2BE53",
"q. c #F1B35C",
"w. c #FBBB5B",
"e. c #A4C263",
"r. c #BFCF6E",
"t. c #BFD16F",
"y. c #BFD370",
"u. c #F4C54F",
"i. c #EFC250",
"p. c #F5C551",
"a. c #F7C951",
"s. c #FBCD51",
"d. c #F9C35D",
"f. c #FFD753",
"g. c #FFD95C",
"h. c #FFE45B",
"j. c #FFEC5D",
"k. c #FFF35D",
"l. c #C1D26F",
"z. c #C1D370",
"x. c #C0D470",
"c. c #FFD462",
"v. c #B1E0BE",
"b. c #9BD4C3",
/* pixels */
"x x x x x x x x e.e.e.e.e.e.' e.e.e.e.e.x.x.x.x.x.x.x.x.x.x.x.x.l.t.x.x.x.x.x.x.x.x.x.x.x.x.x.x.",
"x x x x x x x x e.e.e.e.e.' e.e.K H G G P P P P P P P P P P ^ E x.x.t.l.x.x.x.x.x.x.x.x.x.x.x.x.",
"x x x x x x x x e.e.e.e.e.e.' Q 8 j 0 0 0 0 0 0 0 0 0 0 0 0 j 8 ] t.x.z.x.x.x.x.x.x.x.x.x.x.x.x.",
"x x x x x x x x e.e.e.' e.e.D p 9.c.d.d.d.d.d.d.d.d.d.d.d.d.c.9.s G x.x.t.x.x.x.x.x.x.x.x.x.x.x.",
"x x x x x x x x e.e.e.' ! U d 5.g.k.j.j.j.j.j.j.j.j.j.j.j.j.k.g.5.d U ! t.x.x.x.x.x.x.x.x.x.x.x.",
"x x x x x x x x e.' e.e.L ; 9.h.a.1.p.p.p.p.p.p.p.p.p.p.p.p.1.a.h.9.; L x.x.t.x.x.x.x.x.x.x.x.x.",
"x x x x x x x x e.' e.e.K 8 q.h.s.:.i u T i i i i i i T u i :.s.h.q.8 K x.x.t.x.x.x.x.x.x.x.x.x.",
"x x x x x x x x e.' e.e.I : ;.p.8. .- - > , , , , , , > - -  .8.p.;.: I x.x.t.x.x.x.x.x.x.x.x.x.",
"x x x x e.e.e.e.e.' e.e.L ; 2.8.i ; , w t e e e e e e t w , ; i 8.2.; ( x.x.t.x.x.x.x.x.x.x.x.x.",
"x x x x e.e.e.e.e.' e.e.L ; 3.7.7 % 5 w t h h h h h h t w 5 % 7 7.3.; ( x.x.t.x.x.x.x.x.x.x.x.x.",
"x x x x e.e.e.e.e.' e.e.L ; 4.8.y - 4 ; 5 t f t t f t 5 ; 4 - y 8.4.; ( x.x.t.x.x.x.x.x.x.x.x.x.",
"x x x x e.e.e.e.e.' e.e.K 9 w.i.7 % 4 , , 5 5 5 5 5 5 , , 4 % 7 i.w.9 / x.x.t.x.x.x.x.x.x.x.x.x.",
"x x x x e.e.e.e.e.e.e.e.W 3 -.>...7 4 4 4 , , , , , , 4 4 4 7 ..>.-.3 ` l.x.l.x.x.x.x.x.e.e.e.e.",
"x x x x e.e.e.e.e.e.e.' e.e.2 k 8.%., ; 4 4 , 4 4 , 4 4 ; , %.8.k 3 y.x.r.x.x.x.x.x.x.x.e.e.e.e.",
"x x x x e.e.e.e.e.e.e.e._ F 6 B S +.$ $ * * * * * * * * $ $ +.S B r R [ z.x.y.x.x.x.x.x.e.e.e.e.",
"x x x x e.e.e.e.e.' e.e.P 9 #.m c @ . O X X X X X X X X O . @ c m #.9 ) x.x.t.x.x.x.x.x.e.e.e.e.",
"x x x x x x x x e.' e.e.P , #.V + X X X X X X X X X X X X X X + V #., ) x.x.t.x.x.x.x.x.x.x.x.x.",
"x x x x x x x x e.' e.e.U : o.v o   X o X X X X X X X X o o   o v o.: ) x.x.t.x.x.x.x.x.x.x.x.x.",
"x x x x x x x x e.' e.e.U : o.v = O X X X X X X X X X X X X O = v o.: ) x.x.t.x.x.x.x.x.x.x.x.x.",
"x x x x x x x x e.' e.e.U : o.v = O X X X X X X X X X X X X O = v o.: ) x.x.t.x.x.x.x.x.x.x.x.x.",
"x x x x x x x x e.' e.e.U : #.v &   X X X X X X X X X X o X   & v #.: ) x.x.t.x.x.x.x.x.x.x.x.x.",
"x x x x x x x x e.' e.e.U : #.v &   X X X X X X X X X X o X   & v #.: ) x.x.t.x.x.x.x.x.x.x.x.x.",
"x x x x x x x x e.' e.e.U , | n # =     O             O     = # n | , ) x.x.t.x.x.x.x.x.x.x.x.x.",
"x x x x x x x x e.' e.e.U , { m M # = & = = = = = = = = & = # M m { , ) x.x.t.x.x.x.x.x.x.x.x.x.",
"b.b.b.b.x x x x e.' e.e.I ; O.A C N v v v v v v v v v v v v N C A O.; ( e.e.' e.x.x.x.x.x.x.x.x.",
"b.b.b.b.x x x x e.' e.e.I ; ;.<.Z v b b b b b b b b b b b b v Z <.;.; ( e.e.' e.x.x.x.x.x.x.x.x.",
"b.b.b.b.x x x x e.' e.e.L ; >.u.,.Y , ; , , , , , , , , ; , Y ,.u.>.; ( e.e.' e.x.x.x.x.x.x.x.x.",
"b.b.b.b.x x x x e.' e.e.L ; ;.s.u.@.q q w w w w w w w w q q @.u.s.;.; ( e.e.' e.x.x.x.x.x.x.x.x.",
"b.b.b.b.x x x x x z x x I : ;.a.p.:.f f h g g g g g g h f f :.a.a.;.: I x.x.t.x.x.x.x.x.x.x.x.x.",
"b.b.b.b.x x x x x z x x I : ;.a.a.&.t t f f f f f f f f t t &.a.a.;.: I x.x.t.x.x.x.x.x.x.x.x.x.",
"b.b.b.b.x x x x x l x x K 9 4.f.p.$.q q e e e e e e e e q q $.p.f.4.9 K x.x.t.x.x.x.x.x.x.x.x.x.",
"b.b.b.b.x x x x x x x x U < =.0.a.:.} { } } } } } } } } { } :.a.0.=.< U y.x.z.x.x.x.x.x.x.x.x.x.",
"b.b.b.b.x x x x x x x z ' ~ 1 *.0.s.1.1.1.1.1.1.1.1.1.1.1.1.s.0.*.1 ~ ' ' e.e.e.e.e.e.e.x.x.x.x.",
"b.b.b.b.x x x x x x x l e.e.J s X.6.2.2.2.2.2.2.2.2.2.2.2.2.6.X.s J e.e.' e.e.e.e.e.e.e.x.x.x.x.",
"b.b.b.b.x x x x x x x x e.' e.! < a ; ; ; ; ; ; ; ; ; ; ; ; a < ! e.' e.e.e.e.e.e.e.e.e.x.x.x.x.",
"b.b.b.b.x x x x x x x x e.e.e.e.W U L L L L L L L L L L L L U W e.e.e.e.e.e.e.e.e.e.e.e.x.x.x.x.",
"b.b.b.b.b.b.b.b.x x x x x x z x e.e.e.e.e.e.e.e.e.e.e.e.e.e.e.e.e.' e.e.e.e.e.e.e.e.e.e.e.e.e.e.",
"b.b.b.b.b.b.b.b.x x x x x x x x e.e.e.e.e.e.e.e.e.e.e.e.e.e.e.e.e.e.e.e.e.e.e.e.e.e.e.e.e.e.e.e.",
"b.b.b.b.b.b.b.b.x x x x x x x x e.' ' ' ' ' ' ' ' ' ' ' ' ' ' e.e.e.e.e.e.e.e.e.e.e.e.e.e.e.e.e.",
"b.b.b.b.b.b.b.b.x x x x x x x x e.e.e.e.e.e.e.e.e.e.e.e.e.e.e.e.e.e.e.e.e.e.e.e.e.e.e.e.e.e.e.e.",
"b.b.b.b.b.b.b.b.b.b.b.b.x x x x x x x x x x x x x x x x x x x x x x x x e.e.e.e.x x x x x x x x ",
"b.b.b.b.b.b.b.b.b.b.b.b.x x x x x x x x x x x x x x x x x x x x x x x x e.e.e.e.x x x x x x x x ",
"b.b.b.b.b.b.b.b.b.b.b.b.x x x x x x x x x x x x x x x x x x x x x x x x e.e.e.e.x x x x x x x x ",
"b.b.b.b.b.b.b.b.b.b.b.b.x x x x x x x x x x x x x x x x x x x x x x x x e.e.e.e.x x x x x x x x ",
"b.b.b.b.b.b.b.b.b.b.b.b.b.b.b.b.b.b.b.b.v.v.v.v.x x x x x x x x x x x x x x x x x x x x x x x x ",
"b.b.b.b.b.b.b.b.b.b.b.b.b.b.b.b.b.b.b.b.v.v.v.v.x x x x x x x x x x x x x x x x x x x x x x x x ",
"b.b.b.b.b.b.b.b.b.b.b.b.b.b.b.b.b.b.b.b.v.v.v.v.x x x x x x x x x x x x x x x x x x x x x x x x ",
"b.b.b.b.b.b.b.b.b.b.b.b.b.b.b.b.b.b.b.b.v.v.v.v.x x x x x x x x x x x x x x x x x x x x x x x x "
};
