/* XPM */
static char *_57ff2d6a9b84801be69110864429316OCJzwrf5Kt0pjucF[] = {
/* columns rows colors chars-per-pixel */
"48 48 150 2 ",
"   c #6E3E48",
".  c #744546",
"X  c #7A4A45",
"o  c #704048",
"O  c #797E51",
"+  c #92613C",
"@  c #9A6A3C",
"#  c #804D45",
"$  c #8F4D45",
"%  c #934E46",
"&  c #865741",
"*  c #8D5B43",
"=  c #8D5549",
"-  c #8E5A4C",
";  c #965145",
":  c #9A5746",
">  c #9E5C46",
",  c #92574A",
"<  c #9B5649",
"1  c #935B4C",
"2  c #995B4F",
"3  c #935D51",
"4  c #A35F46",
"5  c #95624D",
"6  c #98644E",
"7  c #82764F",
"8  c #966251",
"9  c #996652",
"0  c #946B51",
"q  c #9C6953",
"w  c #916259",
"e  c #9B635D",
"r  c #8F7051",
"t  c #9A7354",
"y  c #977854",
"u  c #9B7B53",
"i  c #A46146",
"p  c #AA6346",
"a  c #AA6A47",
"s  c #A5604A",
"d  c #AD644D",
"f  c #AE6A48",
"g  c #B16240",
"h  c #B56C44",
"j  c #BB6F42",
"k  c #B26D4B",
"l  c #B77144",
"z  c #BC7343",
"x  c #B5754D",
"c  c #B67849",
"v  c #BE7949",
"b  c #B47C53",
"n  c #C07743",
"m  c #C37B43",
"M  c #C87D42",
"N  c #C27D4D",
"B  c #768252",
"V  c #7E8753",
"C  c #769D57",
"Z  c #799D57",
"A  c #7A9E58",
"S  c #77A058",
"D  c #78A158",
"F  c #B88A2E",
"G  c #BD8537",
"H  c #BE8C33",
"J  c #BD8339",
"K  c #C28E34",
"L  c #C69133",
"P  c #C99433",
"I  c #CC9A35",
"U  c #CB973F",
"Y  c #D39F3E",
"T  c #D5A42D",
"R  c #D2A233",
"E  c #DCA833",
"W  c #DBAD3D",
"Q  c #948454",
"!  c #9F8B58",
"~  c #969058",
"^  c #9E995D",
"/  c #BD804E",
"(  c #A28257",
")  c #AE8D5A",
"_  c #BB8559",
"`  c #AA955D",
"'  c #99A05A",
"]  c #9BAD5E",
"[  c #9AB55E",
"{  c #A1B45F",
"}  c #A6A461",
"|  c #AAA563",
" . c #A3BD62",
".. c #B2BD68",
"X. c #C78145",
"o. c #C98446",
"O. c #CF8D46",
"+. c #C2874B",
"@. c #C78D4B",
"#. c #C98F4B",
"$. c #C9904A",
"%. c #C38252",
"&. c #C98452",
"*. c #CE8B53",
"=. c #D28D55",
"-. c #CB9150",
";. c #D79155",
":. c #DC9F55",
">. c #DC9459",
",. c #DF9A5B",
"<. c #DDA84D",
"1. c #E2AB4D",
"2. c #E8AD4F",
"3. c #E5B24D",
"4. c #E9B54F",
"5. c #EEBD4F",
"6. c #E4A755",
"7. c #E7AE51",
"8. c #E9AB56",
"9. c #E9AE5A",
"0. c #EBB650",
"q. c #EEBA52",
"w. c #F0BE51",
"e. c #A4C263",
"r. c #B4C66A",
"t. c #B8C46A",
"y. c #BCCD6E",
"u. c #BFD16F",
"i. c #BFD370",
"p. c #F0C347",
"a. c #F5C352",
"s. c #FACD52",
"d. c #FDD253",
"f. c #FFDD55",
"g. c #FFD25C",
"h. c #FFD95C",
"j. c #FFE45A",
"k. c #C0D26F",
"l. c #C0D470",
"z. c #918E85",
"x. c #90958A",
"c. c #9ACDBD",
"v. c #9AD0BF",
"b. c #ADD8B7",
"n. c #AFDBBA",
"m. c #B1DBBA",
"M. c #B1E0BE",
"N. c #9AD2C1",
"B. c #9CD3C2",
"V. c #9BD4C3",
/* pixels */
"D D D D D D D D D D D D D D A A A A A A A A A A n.n.n.n.n.n.n.m.c.N.V.V.V.V.V.V.V.V.V.V.V.V.V.V.",
"D D D D D D D D D D D D D D D D D D D D D D D D M.M.M.M.M.M.m.M.V.V.N.B.V.V.V.V.V.V.V.V.V.V.V.V.",
"D D D D D D D D D D D D D D Z Z Z Z Z Z Z Z Z Z n.n.n.n.n.n.b.n.c.N.V.V.N.V.V.V.V.V.V.V.V.V.V.V.",
"D D D D D D D D D D D Z D D 7 2 1 = = = = = = = w w w w w w w e e x.V.V.c.V.V.V.V.V.V.V.V.V.V.V.",
"e.e.e.e.e.e.e.e.e.e.e.e.C O b ,.>.*.=.=.=.=.=.=.=.=.=.=.=.=.*.>.,.b O C V.V.N.V.V.V.V.V.V.V.V.V.",
"e.e.e.e.e.e.e.e.e. .e.e.B : 9.j.h.g.h.h.h.h.h.h.h.h.h.h.h.h.g.h.j.9.: B V.V.N.V.V.V.V.V.V.V.V.V.",
"e.e.e.e.e.e.e.e.e.e. .Q _ 9.g.h.j.j.j.j.j.j.j.j.j.j.j.j.j.j.j.j.h.g.9._ z.v.B.N.B.V.V.V.V.V.V.V.",
"e.e.e.e.e.e.e.e. .e. ., >.j.f.3.<.<.<.<.<.<.<.<.<.<.<.<.<.<.<.<.3.f.j.>.3 c.V.c.B.V.V.V.V.V.V.V.",
"e.e.e.e.e.e.e.e. .e. .1 =.a.f.3.c i f a a a a a a a a a a f i c 3.f.a.=.1 Z D Z B.V.V.V.V.V.V.V.",
"e.e.e.e.e.e.e.e. .e. .5 &.4.0.+.4 % : 4 p 4 4 4 4 4 4 p 4 : % 4 +.0.4.&.- Z D Z B.V.V.V.V.V.V.V.",
"e.e.e.e.e.e.e.e. .e. .1 *.w.#.; > i i l m n n n n n n m l i i > ; #.w.*.= Z D Z B.V.V.V.V.V.V.V.",
"e.e.e.e.e.e.e.e. .e. .1 *.q.@.; > i i p h m M m m M m h p i i > ; @.q.*.- Z D Z B.V.V.V.V.V.V.V.",
"e.e.e.e.e.e.e.e. .e. ., >.a.$.; > i 4 > i h l h h l h i > 4 i > ; $.a.>.= C D Z D D D D V.V.V.V.",
"e.e.e.e.e.e.e.e. .e. .1 ;.a.#.; > i 4 4 4 i i i i i i 4 4 4 i > ; #.a.;.= C D Z D D D D V.V.V.V.",
"e.e.e.e.e.e.e.e.e.e.e.' ) / :.-.f 4 p p i 4 4 4 4 4 4 i p p 4 f -.:./ ) V S D D D D D D V.V.V.V.",
"e.e.e.e.e.e.e.e.e. .e. .~ : 2.5.f $ > > > > > > > > > > > > $ f 5.2.: ~ A D A D D D D D V.V.V.V.",
"e.e.e.e.l.l.l.l. .e. .t x G E I * o # # # # # # # # # # # # o * I E G x 0 Z D Z D D D D V.V.V.V.",
"e.e.e.e.l.l.l.l. .e. .2 =.I F + X o . . . . . . . . . . . . o X + F I =.1 Z D A D D D D V.V.V.V.",
"e.e.e.e.l.l.l.l. .e. .8 m P @   . X X X X X X X X X X X X X X .   @ P m 3 Z D Z D D D D V.V.V.V.",
"e.e.e.e.l.l.l.l. .e. .8 m P @   . X X X X X X X X X X X X X X .   @ P m 3 Z D Z D D D D V.V.V.V.",
"l.l.l.l.l.l.l.l.u.l.y.9 m P @   . X X X X X X X X X X X X X X .   @ P m 3 Z D Z D D D D V.V.V.V.",
"l.l.l.l.l.l.l.l.u.l.y.9 m P @   . X X X X X X X X X X X X X X .   @ P m 3 Z D Z D D D D V.V.V.V.",
"l.l.l.l.l.l.l.l.u.l.y.q v L H @ .   o o                 o o   . @ H L v 3 Z D Z D D D D V.V.V.V.",
"l.l.l.l.l.l.l.l.u.l.y.q v L T K + X & & & & & & & & & & & & X + K T L v 8 Z D Z D D D D V.V.V.V.",
"l.l.l.l.l.l.l.l.u.l.y.9 N Y R L H H H H H H H H H H H H H H H H L R Y N 8  .e. .D D D D D D D D ",
"l.l.l.l.l.l.l.l.u.l.y.6 &.3.W K G J J J J J J J J J J J J J J G K W 3.&.5  .e. .D D D D D D D D ",
"l.l.l.l.l.l.l.l.u.l.y.5 &.q.p.U p < 4 4 4 4 4 4 4 4 4 4 4 4 < p U p.q.&.1  .e. .D D D D D D D D ",
"l.l.l.l.l.l.l.l.u.l.y.6 &.q.s.<.z p h h h h h h h h h h h h p z <.s.q.&.5  .e. .D D D D D D D D ",
"l.l.l.l.l.l.l.l.u.l.y.6 &.0.d.4.o.z m m m m m m m m m m m m z o.4.d.0.&.5  .e. .D D D D D D D D ",
"l.l.l.l.l.l.l.l.u.l.y.6 &.0.d.3.X.j n n n n n n n n n n n n j X.3.d.0.&.5  .e. .D D D D D D D D ",
"l.l.l.l.l.l.l.l.y.l.y.1 >.a.d.1.z g h h h h h h h h h h h h g z 1.d.a.>.,  .e. .D D D D D D D D ",
"l.l.l.l.l.l.l.l.u.l.y.t %.7.s.4.O.m o.o.o.o.o.o.o.o.o.o.o.o.m O.4.s.7.%.0  .e. .D D D D D D D D ",
"e.e.e.e.l.l.l.l.l.u.i.t.` k 8.s.a.4.5.5.5.5.5.5.5.5.5.5.5.5.4.a.s.8.k ! { e. .e.e.e.e.e.D D D D ",
"e.e.e.e.l.l.l.l.l.k.l.l.r.y %.8.8.6.6.6.6.6.6.6.6.6.6.6.6.6.6.8.8.%.r [ e.e.e.e.e.e.e.e.D D D D ",
"e.e.e.e.l.l.l.l.l.l.l.y.l.l.( d s > > > > > > > > > > > > > > s d u e.e. .e.e.e.e.e.e.e.D D D D ",
"e.e.e.e.l.l.l.l.l.l.l.u.l.l...| | | } } } } } } } } } } } } | | ^ ] e.e. .e.e.e.e.e.e.e.D D D D ",
"l.l.l.l.l.l.l.l.l.l.l.l.i.y.l.l.l.l.l.l.e.e.e.e.l.l.l.l.l.l.l.l.e.e. .e.e.e.e.e.e.e.e.e.D D D D ",
"l.l.l.l.l.l.l.l.l.l.l.l.l.l.l.l.l.l.l.l.e.e.e.e.l.l.l.l.l.l.l.l.e.e.e.e.e.e.e.e.e.e.e.e.D D D D ",
"l.l.l.l.l.l.l.l.l.l.l.l.l.l.k.u.u.u.u.u. . . . .u.u.u.u.u.u.u.u. .e.e.e.e.e.e.e.e.e.e.e.D D D D ",
"l.l.l.l.l.l.l.l.l.l.l.l.l.l.l.l.l.l.l.l.e.e.e.e.l.l.l.l.l.l.l.l.e.e.e.e.e.e.e.e.e.e.e.e.D D D D ",
"l.l.l.l.l.l.l.l.l.l.l.l.l.l.l.l.l.l.l.l.l.l.l.l.l.l.l.l.l.l.l.l.l.l.l.l.e.e.e.e.D D D D D D D D ",
"l.l.l.l.l.l.l.l.l.l.l.l.l.l.l.l.l.l.l.l.l.l.l.l.l.l.l.l.l.l.l.l.l.l.l.l.e.e.e.e.D D D D D D D D ",
"l.l.l.l.l.l.l.l.l.l.l.l.l.l.l.l.l.l.l.l.l.l.l.l.l.l.l.l.l.l.l.l.l.l.l.l.e.e.e.e.D D D D D D D D ",
"l.l.l.l.l.l.l.l.l.l.l.l.l.l.l.l.l.l.l.l.l.l.l.l.l.l.l.l.l.l.l.l.l.l.l.l.e.e.e.e.D D D D D D D D ",
"l.l.l.l.l.l.l.l.l.l.l.l.l.l.l.l.l.l.l.l.l.l.l.l.l.l.l.l.l.l.l.l.e.e.e.e.e.e.e.e.D D D D D D D D ",
"l.l.l.l.l.l.l.l.l.l.l.l.l.l.l.l.l.l.l.l.l.l.l.l.l.l.l.l.l.l.l.l.e.e.e.e.e.e.e.e.D D D D D D D D ",
"l.l.l.l.l.l.l.l.l.l.l.l.l.l.l.l.l.l.l.l.l.l.l.l.l.l.l.l.l.l.l.l.e.e.e.e.e.e.e.e.D D D D D D D D ",
"l.l.l.l.l.l.l.l.l.l.l.l.l.l.l.l.l.l.l.l.l.l.l.l.l.l.l.l.l.l.l.l.e.e.e.e.e.e.e.e.D D D D D D D D "
};
