/* XPM */
static char *_c8ac7292ad649fd81afcd47e46cc91exZbClHiTqmjLEi0L[] = {
/* columns rows colors chars-per-pixel */
"48 48 145 2 ",
"   c #AA5F3E",
".  c #AD613F",
"X  c #B36C3E",
"o  c #8F5B46",
"O  c #975142",
"+  c #9B5545",
"@  c #915D47",
"#  c #9E5C46",
"$  c #915549",
"%  c #925C4B",
"&  c #A25F44",
"*  c #AC5F42",
"=  c #8C6D4B",
"-  c #94614C",
";  c #98634F",
":  c #916E4B",
">  c #91704D",
",  c #8B6E50",
"<  c #9A6651",
"1  c #966C50",
"2  c #9D6B55",
"3  c #8F7051",
"4  c #947150",
"5  c #9B7253",
"6  c #9B7B53",
"7  c #A36142",
"8  c #AE6540",
"9  c #A5604A",
"0  c #AD644D",
"q  c #B46441",
"w  c #B66B42",
"e  c #B46D4D",
"r  c #BC7345",
"t  c #B5724D",
"y  c #B47C4C",
"u  c #B46A51",
"i  c #BD7452",
"p  c #C07743",
"a  c #C37B44",
"s  c #C37F4E",
"d  c #C07953",
"f  c #7D9656",
"g  c #7A9E58",
"h  c #78A158",
"j  c #BC8532",
"k  c #C28C2F",
"l  c #C78E37",
"z  c #CF9A3D",
"x  c #D6A733",
"c  c #D8AD38",
"v  c #9C8054",
"b  c #9F8B58",
"n  c #959759",
"m  c #99975B",
"M  c #96985A",
"N  c #9E995D",
"B  c #A18D5A",
"V  c #A19A5F",
"C  c #9BAD5E",
"Z  c #9CB35E",
"A  c #A1B45F",
"S  c #9EB060",
"D  c #A3BE62",
"F  c #C98445",
"G  c #C68B47",
"H  c #CF8D46",
"J  c #C4804F",
"K  c #D68D4F",
"L  c #D19446",
"P  c #D5954A",
"I  c #D9924F",
"U  c #D99E4A",
"Y  c #C28151",
"T  c #CA8552",
"R  c #CE8C55",
"E  c #D58C52",
"W  c #D08E5C",
"Q  c #DA9352",
"!  c #DE9A53",
"~  c #D7955F",
"^  c #DD925A",
"/  c #E29E55",
"(  c #E49D59",
")  c #D6A242",
"_  c #D8A345",
"`  c #DCA845",
"'  c #DAA250",
"]  c #E3AD4D",
"[  c #E1B742",
"{  c #E5B846",
"}  c #EABE46",
"|  c #E6B04F",
" . c #EDBC4F",
".. c #E4A755",
"X. c #E6AE51",
"o. c #EAAB56",
"O. c #E5A159",
"+. c #EDA95F",
"@. c #EEB653",
"#. c #ECB851",
"$. c #F0B752",
"%. c #F1BA53",
"&. c #DCAB67",
"*. c #DDAD68",
"=. c #DFB068",
"-. c #E8A164",
";. c #F1AB67",
":. c #E3B469",
">. c #F4B267",
",. c #F7B56C",
"<. c #FEBD6B",
"1. c #A4C263",
"2. c #BCCD6E",
"3. c #BED06E",
"4. c #F8D04E",
"5. c #F2C250",
"6. c #FBCC53",
"7. c #FAC65B",
"8. c #FDCD5B",
"9. c #FFD754",
"0. c #FFDB54",
"q. c #FFD55B",
"w. c #FFDF5C",
"e. c #FFE65C",
"r. c #FFE95F",
"t. c #FFF15F",
"y. c #C0D470",
"u. c #F1C865",
"i. c #F0C369",
"p. c #FED762",
"a. c #FBD16F",
"s. c #FFC373",
"d. c #FFDE73",
"f. c #FFE462",
"g. c #FFEA64",
"h. c #FFE16E",
"j. c #FFF461",
"k. c #FFF46D",
"l. c #FFED76",
"z. c #FFEE7A",
"x. c #FFF47A",
"c. c #FFF97B",
"v. c #B1E0BE",
"b. c #FFF983",
"n. c #9BD4C3",
/* pixels */
"n.n.n.n.n.n.n.n.n.n.n.n.n.n.n.n.n.n.n.n.v.v.v.v.h h h h h h h h h h h h h h h h h h h h h h h h ",
"n.n.n.n.n.n.n.n.n.n.n.n.n.n.n.n.n.n.n.n.v.v.v.v.h h h h h h h h h h h h h h h h h h h h h h h h ",
"n.n.n.n.n.n.n.n.n.n.n.n.n.n.n.n.n.n.n.n.v.v.v.v.h h h h h h h h h h h h h h h h h h h h h h h h ",
"n.n.n.n.n.n.n.n.n.n.n.n.n.n.n.n.n.n.n.n.v.v.v.v.h h h h h h h h h h h h h h h h h h h h h h h h ",
"n.n.n.n.n.n.n.n.n.n.n.n.h h h h h h h h h h h h h h h h h h h h h h h h 1.1.1.1.1.1.1.1.1.1.1.1.",
"n.n.n.n.n.n.n.n.n.n.n.n.h h h h h h h h h h h h h h h h h h h h h h h h 1.1.1.1.1.1.1.1.1.1.1.1.",
"n.n.n.n.n.n.n.n.n.n.n.n.h h h h h h h h h h h h h h h h h h h h h h h h 1.1.1.1.1.1.1.1.1.1.1.1.",
"n.n.n.n.n.n.n.n.n.n.n.n.h h h h h h h h h h h h h h h h h h h h h h h h 1.1.1.1.1.1.1.1.1.1.1.1.",
"n.n.n.n.n.n.n.n.h h h h h h h h 1.1.1.1.1.1.1.1.1.1.1.1.1.1.1.1.1.1.1.1.1.1.1.1.1.1.1.1.1.1.1.1.",
"n.n.n.n.n.n.n.n.h h h h h h h g D 1.1.1.1.1.1.1.1.1.1.1.1.1.1.D D 1.1.1.1.1.1.1.1.1.1.1.1.1.1.1.",
"n.n.n.n.n.n.n.n.h h h h h h h h 1.1.1.1.1.1.1.1.1.1.1.1.1.1.1.1.1.1.1.1.1.1.1.1.1.1.1.1.1.1.1.1.",
"n.n.n.n.n.n.n.n.h h h h h g h h 1.1.D D D D D D D D D D D D 1.1.1.1.D 1.1.1.1.1.1.1.1.1.1.1.1.1.",
"v.v.v.v.h h h h h h h g 1.1.Z V V S 1.1.1.1.1.1.1.1.1.1.1.1.S V V Z 1.1.D 1.1.1.y.y.y.y.y.y.y.y.",
"v.v.v.v.h h h h h h h g 1.1.v u u v 1.1.1.1.1.1.1.1.1.1.1.1.v u u v 1.1.D 1.1.1.y.y.y.y.y.y.y.y.",
"v.v.v.v.h h h h h h h h Z , Y o.o.y 4 = : : > : : > : : = 4 y o.o.Y , Z 1.1.1.1.y.y.y.y.y.y.y.y.",
"v.v.v.v.h h h h h g h f B t o.0.0.' e u d i i i i i i d u e ' 0.0.o.t B Z 1.D 1.y.y.y.y.y.y.y.y.",
"h h h h h h h h D 1.D : R 7.w.w.e.%.Q -.,.;.;.;.;.;.;.,.-.Q %.e.w.w.7.R 4 2.y.3.y.y.y.y.1.1.1.1.",
"h h h h h h h h D 1.D $ ( r.j.q.7.o./ +.<.s.s.s.s.s.s.<.+./ o.7.q.j.r.( $ 2.y.2.y.y.y.y.1.1.1.1.",
"h h h h h h h h D 1.D % R q.t.8.! E Q I / >.,.>.>.,.>./ I Q E ! 8.t.q.R - 2.y.3.y.y.y.y.1.1.1.1.",
"h h h h h h h h D 1.D % R q.j.8.! E ! Q ! ( O.( ( O.( ! Q ! E ! 8.j.q.R - 2.y.3.y.y.y.y.1.1.1.1.",
"h h h h h h h h D 1.D % R q.t.8./ E Q Q Q K K K K K K Q Q Q E / 8.t.q.R - 2.y.3.y.y.y.y.y.y.y.y.",
"h h h h h h h h D 1.D % E q.t.8./ E Q Q Q Q Q Q Q Q Q Q Q Q E / 8.t.q.E - 2.y.3.y.y.y.y.y.y.y.y.",
"h h h h h h h h D 1.D o ~ l.k.6.%.@.%.%.$.%.%.%.%.%.%.%.%.%.@.%.6.k.l.~ @ 2.y.3.y.y.y.y.y.y.y.y.",
"h h h h h h h h D 1.D o W d.k.f.g.g.g.g.g.g.f.f.f.g.g.g.g.g.g.g.f.k.d.W - 2.y.3.y.y.y.y.y.y.y.y.",
"h h h h h h h h D 1.D < r z p.b.c.c.c.c.c.c.c.z.x.c.c.c.c.c.c.c.b.p.z r 2 2.y.3.y.y.y.y.y.y.y.y.",
"h h h h h h h h D 1.D < r k { u.:.&.=.:.&.*.a.l.h.i.*.*.:.=.&.:.u.{ k r 2 2.y.3.y.y.y.y.y.y.y.y.",
"h h h h h h h h D 1.D - J _ x j 7 + # 7 O + ' e.6.G + + & # + 7 j x _ J < 2.y.3.y.y.y.y.y.y.y.y.",
"h h h h h h h h D 1.D ; s ) c l X * 8 q   . U 9.6.L .   q 8 * X l c ) s < 2.y.3.y.y.y.y.y.y.y.y.",
"h h h h h h h h D 1.D - s ` [ ) F a a F a a P ] | P a a F a a F ) [ ` s < 2.y.3.y.y.y.y.y.y.y.y.",
"h h h h h h h h D 1.D - T #.} z a r p p p p p a a a p p p p r a z } #.T - 2.y.3.y.y.y.y.y.y.y.y.",
"h h h h h h h h D 1.D $ ^ 6.4._ r q w w w w q q q q w w w w q r _ 4.6.^ $ 2.y.2.y.y.y.y.y.y.y.y.",
"h h h h h h h h D 1.D 1 Y X.6. .H a F F F F F F F F F F F F a H  .6.X.Y 5 2.y.3.y.y.y.y.y.y.y.y.",
"n.n.n.n.h h h h h g h f b e o.6.5. . . . . . . . . . . . . . .5.6.o.e b A 1.D 1.1.1.1.1.y.y.y.y.",
"n.n.n.n.h h h h h h h h Z 3 Y o.o.............................o.o.Y 3 Z 1.1.1.1.1.1.1.1.y.y.y.y.",
"n.n.n.n.h h h h h h h g 1.1.6 0 9 # # # # # # # # # # # # # # 9 0 6 1.1.D 1.1.1.1.1.1.1.y.y.y.y.",
"n.n.n.n.h h h h h h h g 1.1.C N m M n n n n n n n n n n n n M m N C 1.1.D 1.1.1.1.1.1.1.y.y.y.y.",
"n.n.n.n.n.n.n.n.h h h h h g h h 1.1.1.1.1.1.1.1.1.1.1.1.1.1.1.1.1.1.D 1.1.1.1.1.1.1.1.1.1.1.1.1.",
"n.n.n.n.n.n.n.n.h h h h h h h h 1.1.1.1.1.1.1.1.1.1.1.1.1.1.1.1.1.1.1.1.1.1.1.1.1.1.1.1.1.1.1.1.",
"n.n.n.n.n.n.n.n.h h h h h h h g D D D D D D D D D D D D D D D D D 1.1.1.1.1.1.1.1.1.1.1.1.1.1.1.",
"n.n.n.n.n.n.n.n.h h h h h h h h 1.1.1.1.1.1.1.1.1.1.1.1.1.1.1.1.1.1.1.1.1.1.1.1.1.1.1.1.1.1.1.1.",
"n.n.n.n.n.n.n.n.n.n.n.n.h h h h h h h h h h h h h h h h h h h h h h h h 1.1.1.1.h h h h h h h h ",
"n.n.n.n.n.n.n.n.n.n.n.n.h h h h h h h h h h h h h h h h h h h h h h h h 1.1.1.1.h h h h h h h h ",
"n.n.n.n.n.n.n.n.n.n.n.n.h h h h h h h h h h h h h h h h h h h h h h h h 1.1.1.1.h h h h h h h h ",
"n.n.n.n.n.n.n.n.n.n.n.n.h h h h h h h h h h h h h h h h h h h h h h h h 1.1.1.1.h h h h h h h h ",
"n.n.n.n.n.n.n.n.n.n.n.n.n.n.n.n.n.n.n.n.v.v.v.v.h h h h h h h h h h h h h h h h h h h h h h h h ",
"n.n.n.n.n.n.n.n.n.n.n.n.n.n.n.n.n.n.n.n.v.v.v.v.h h h h h h h h h h h h h h h h h h h h h h h h ",
"n.n.n.n.n.n.n.n.n.n.n.n.n.n.n.n.n.n.n.n.v.v.v.v.h h h h h h h h h h h h h h h h h h h h h h h h ",
"n.n.n.n.n.n.n.n.n.n.n.n.n.n.n.n.n.n.n.n.v.v.v.v.h h h h h h h h h h h h h h h h h h h h h h h h "
};
