/* XPM */
static char *cfeb7fa0a7194f91a3c39793be6d344fczsqyvXWs4buHHPC[] = {
/* columns rows colors chars-per-pixel */
"48 48 139 2 ",
"   c #673644",
".  c #6B3B43",
"X  c #6E3E48",
"o  c #703F43",
"O  c #6F4044",
"+  c #744444",
"@  c #7B4B45",
"#  c #704048",
"$  c #90603E",
"%  c #9A6A3B",
"&  c #855542",
"*  c #955445",
"=  c #9A5746",
"-  c #9E5C46",
";  c #9B5649",
":  c #945A4B",
">  c #A15E47",
",  c #96634D",
"<  c #98644E",
"1  c #9F6E49",
"2  c #9A6752",
"3  c #9D6A54",
"4  c #8F7051",
"5  c #9B7253",
"6  c #977854",
"7  c #9B7B53",
"8  c #AB6546",
"9  c #A5604A",
"0  c #AD644D",
"q  c #B16240",
"w  c #B66B44",
"e  c #BB6F42",
"r  c #B26D4B",
"t  c #A6744E",
"y  c #AA774F",
"u  c #BC7443",
"i  c #BE7949",
"p  c #AA6B57",
"a  c #AF7952",
"s  c #C07743",
"d  c #C37C44",
"f  c #C47D4A",
"g  c #78A158",
"h  c #BB842B",
"j  c #BD8537",
"k  c #BE8C33",
"l  c #BD8339",
"z  c #C28E34",
"x  c #C69133",
"c  c #CA9534",
"v  c #CB973F",
"b  c #C7983F",
"n  c #D39F3C",
"m  c #D5A42D",
"M  c #D2A233",
"N  c #D3A23E",
"B  c #DBAD3D",
"V  c #91834E",
"C  c #928354",
"Z  c #9F8B58",
"A  c #949356",
"S  c #949759",
"D  c #9A9359",
"F  c #969A5A",
"G  c #9E995D",
"H  c #B5844A",
"J  c #A28257",
"K  c #AA955D",
"L  c #A59F5E",
"P  c #9BAD5E",
"I  c #9AB55E",
"U  c #A3A25F",
"Y  c #A1B45F",
"T  c #A5A461",
"R  c #AAA563",
"E  c #A8A963",
"W  c #A3BE62",
"Q  c #B2BD68",
"!  c #C78145",
"~  c #C98446",
"^  c #CF8D46",
"/  c #C88D4B",
"(  c #CA9E48",
")  c #C38252",
"_  c #C98452",
"`  c #C28C5B",
"'  c #C49651",
"]  c #C69952",
"[  c #C99B52",
"{  c #D79652",
"}  c #DB9058",
"|  c #DEAA4C",
" . c #CDA25C",
".. c #E2AB4D",
"X. c #E4B14C",
"o. c #E9B54F",
"O. c #EEBC4F",
"+. c #E4A755",
"@. c #E7AE51",
"#. c #E9AB56",
"$. c #E7AB59",
"%. c #E8AD59",
"&. c #ECB751",
"*. c #EDBB53",
"=. c #EEB35C",
"-. c #C48F65",
";. c #DD9861",
":. c #D3AD6E",
">. c #A4C263",
",. c #B4C66A",
"<. c #BCCC6E",
"1. c #BED06E",
"2. c #F0C347",
"3. c #FFD54E",
"4. c #F4C452",
"5. c #F9C751",
"6. c #FBCD52",
"7. c #F4C158",
"8. c #FED253",
"9. c #FFDA56",
"0. c #FFD35F",
"q. c #FFDA5A",
"w. c #FFE45E",
"e. c #FFEA5E",
"r. c #FFED5D",
"t. c #FFF15F",
"y. c #C1D370",
"u. c #C0D470",
"i. c #FFD867",
"p. c #F6C073",
"a. c #FFE262",
"s. c #FFE564",
"d. c #FFEA62",
"f. c #FFEE60",
"g. c #FFF060",
"h. c #FFF36D",
"j. c #FFEB77",
"k. c #FFF971",
"l. c #FFF981",
/* pixels */
"g g g g g g g g g g g g g g g g g g g g g g g g g g g g g g g g g g g g g g g g g g g g g g g g ",
"g g g g g g g g g g g g g g g g g g g g g g g g g g g g g g g g g g g g g g g g g g g g g g g g ",
"g g g g g g g g g g g g g g g g g g g g g g g g g g g g g g g g g g g g g g g g g g g g g g g g ",
"g g g g g g g g g g g g g g g g g g g g g g g g g g g g g g g g g g g g g g g g g g g g g g g g ",
">.>.>.>.>.>.>.>.>.>.>.>.g g g g g g g g g g g g >.>.>.>.>.>.>.>.>.>.>.>.>.>.>.>.>.>.>.>.g g g g ",
">.>.>.>.>.>.>.>.>.>.>.>.g g g g g g g g g g g g >.>.>.>.>.>.>.>.>.>.>.>.>.>.>.>.>.>.>.>.g g g g ",
">.>.>.>.>.>.>.>.>.>.>.>.g g g g g g g g g g g g >.>.>.>.>.>.>.>.>.>.>.>.>.>.>.>.>.>.>.>.g g g g ",
">.>.>.>.>.>.>.>.>.>.>.>.g g g g g g g g g g g g >.>.>.>.>.>.>.>.>.>.>.>.>.>.>.>.>.>.>.>.g g g g ",
">.>.>.>.>.>.>.>.>.>.>.>.>.>.>.W W >.>.>.>.>.>.>.>.>.>.>.>.>.>.W W >.>.>.>.>.>.>.>.>.>.>.>.>.>.>.",
">.>.>.>.>.>.>.>.>.>.>.>.>.W >.>.>.>.W W >.W W W W W W >.W W >.>.>.>.W >.>.>.>.>.>.>.>.>.>.>.>.>.",
">.>.>.>.>.>.>.>.>.>.>.>.>.>.>.W W >.>.>.>.>.>.>.>.>.>.>.>.>.>.W W >.>.>.>.>.>.>.>.>.>.>.>.>.>.>.",
">.>.>.>.>.>.>.>.>.>.>.W >.>.A p p D >.>.>.>.>.>.>.>.>.>.>.>.D p p A >.>.W >.>.>.>.>.>.>.>.>.>.>.",
"u.u.u.u.>.>.>.>.>.>.>.>.W A y } } t S A A S S S T T T L U T y } } a T 1.>.>.>.>.u.u.u.u.u.u.u.u.",
"u.u.u.u.>.>.>.>.>.W >.>.F = { 4.4./ = * - - - - - - - - * = / 4.4.{ = E >.>.W >.u.u.u.u.u.u.u.u.",
"u.u.u.u.>.>.>.>.>.>.W V -.p.i.3.8.7.$.$.%.%.%.=.=.=.%.%.$.$.7.9.9.0.=.` C W >.>.y.u.u.u.u.u.u.u.",
"u.u.u.u.>.>.>.>.W >.W * ;.j.k.a.s.d.g.g.g.g.f.e.e.e.g.g.g.g.e.w.w.r.q.} : W >.W y.u.u.u.u.u.u.u.",
"u.u.u.u.u.u.u.y.1.u.<.2 f N a.l.l.h.r.r.r.r.e.q.4.8.t.t.r.r.e.f.f.3.n f 2 <.u.1.y.u.u.u.u.u.u.u.",
"u.u.u.u.u.u.u.y.1.u.<.3 u h ( :.:. .[ [ ' ] *.9.6.| ] ] [ [ [ [ [ b h u 3 <.u.1.y.u.u.u.u.u.u.u.",
"u.u.u.u.u.u.u.y.1.u.<.2 f c % . o + + @ . # H 5.5.H O   @ + + # . % c d 2 <.u.1.y.u.u.u.u.u.u.u.",
"u.u.u.u.u.u.u.y.1.u.<.2 f c %     o . o . . & 1 1 & .   o . + .   % c d 2 <.u.1.y.u.u.u.u.u.u.u.",
"u.u.u.u.u.u.u.y.1.u.<.2 d c % # @ & @ @ & @ +     + @ & @ @ & @ # % c d 2 <.u.1.y.u.u.u.u.u.u.u.",
"u.u.u.u.u.u.u.y.1.u.<.2 d c % X + @ @ @ @ @ @ @ @ @ @ @ @ @ @ + X % c d 2 <.u.1.y.u.u.u.u.u.u.u.",
"u.u.u.u.u.u.u.y.1.u.<.2 i x k % + . # # X X # # # # X X # # . + % k x i 2 <.u.1.y.u.u.u.u.u.u.u.",
"u.u.u.u.u.u.u.y.1.u.<.3 i x m z $ @ & & & & & & & & & & & & @ $ z m x i 3 <.y.<.y.u.u.u.u.u.u.u.",
"u.u.u.u.u.u.u.y.1.u.<.2 f n M x k k k k k k k k k k k k k k k k x M n f 2 W >.W y.u.u.u.u.u.u.u.",
"u.u.u.u.u.u.u.y.1.u.<.< _ X.B z j l l l l l l l l l l l l l l j z B X._ , W >.W y.u.u.u.u.u.u.u.",
"u.u.u.u.u.u.u.y.1.u.<., _ *.2.v 8 ; > > > > > > > > > > > > ; 8 v 2.*._ : W >.W y.u.u.u.u.u.u.u.",
"u.u.u.u.u.u.u.y.1.u.<., _ *.6.| u 8 w w w w w w w w w w w w 8 u | 6.*._ , W >.W y.u.u.u.u.u.u.u.",
"u.u.u.u.u.u.u.y.1.u.<., _ &.8.o.~ u d d d d d d d d d d d d u ~ o.8.&._ , <.u.1.y.u.u.u.u.u.u.u.",
"u.u.u.u.u.u.u.y.1.u.<., _ &.8.X.! e s s s s s s s s s s s s e ! X.8.&._ , <.u.1.y.u.u.u.u.u.u.u.",
"u.u.u.u.u.u.u.y.<.u.<.: } 4.8...u q w w w w w w w w w w w w q u ..8.4.} : <.u.<.y.u.u.u.u.u.u.u.",
"u.u.u.u.u.u.u.y.1.y.<.5 ) @.6.o.^ d ~ ~ ~ ~ ~ ~ ~ ~ ~ ~ ~ ~ d ^ o.6.@.) 5 <.y.1.y.u.u.u.u.u.u.u.",
"u.u.u.u.u.u.u.u.>.W >.Y Z r #.6.4.o.O.O.O.O.O.O.O.O.O.O.O.O.o.4.6.#.r K Y >.W >.>.>.>.>.>.>.>.>.",
"u.u.u.u.u.u.u.u.>.>.>.>.I 4 ) #.#.+.+.+.+.+.+.+.+.+.+.+.+.+.+.#.#.) 6 ,.>.>.>.>.>.>.>.>.>.>.>.>.",
"u.u.u.u.u.u.u.u.>.>.>.W >.>.7 0 9 - - - - - - - - - - - - - - 9 0 J u.u.W >.>.>.>.>.>.>.>.>.>.>.",
"u.u.u.u.u.u.u.u.>.>.>.W >.>.P G F F S S S S S S T T T T T T R R R Q u.u.W >.>.>.>.>.>.>.>.>.>.>.",
">.>.>.>.>.>.>.>.>.>.>.>.>.W >.>.>.>.>.>.>.>.>.>.>.>.>.>.>.>.>.>.>.>.W >.>.>.>.>.>.>.>.>.>.>.>.>.",
">.>.>.>.>.>.>.>.>.>.>.>.>.>.>.>.>.>.>.>.>.>.>.>.>.>.>.>.>.>.>.>.>.>.>.>.>.>.>.>.>.>.>.>.>.>.>.>.",
">.>.>.>.>.>.>.>.>.>.>.>.>.>.>.W W W W W W W W W W W W W W W W W W >.>.>.>.>.>.>.>.>.>.>.>.>.>.>.",
">.>.>.>.>.>.>.>.>.>.>.>.>.>.>.>.>.>.>.>.>.>.>.>.>.>.>.>.>.>.>.>.>.>.>.>.>.>.>.>.>.>.>.>.>.>.>.>.",
">.>.>.>.>.>.>.>.g g g g g g g g g g g g >.>.>.>.>.>.>.>.>.>.>.>.>.>.>.>.>.>.>.>.g g g g g g g g ",
">.>.>.>.>.>.>.>.g g g g g g g g g g g g >.>.>.>.>.>.>.>.>.>.>.>.>.>.>.>.>.>.>.>.g g g g g g g g ",
">.>.>.>.>.>.>.>.g g g g g g g g g g g g >.>.>.>.>.>.>.>.>.>.>.>.>.>.>.>.>.>.>.>.g g g g g g g g ",
">.>.>.>.>.>.>.>.g g g g g g g g g g g g >.>.>.>.>.>.>.>.>.>.>.>.>.>.>.>.>.>.>.>.g g g g g g g g ",
"g g g g g g g g g g g g g g g g g g g g g g g g g g g g g g g g g g g g g g g g g g g g g g g g ",
"g g g g g g g g g g g g g g g g g g g g g g g g g g g g g g g g g g g g g g g g g g g g g g g g ",
"g g g g g g g g g g g g g g g g g g g g g g g g g g g g g g g g g g g g g g g g g g g g g g g g ",
"g g g g g g g g g g g g g g g g g g g g g g g g g g g g g g g g g g g g g g g g g g g g g g g g "
};
