/* XPM */
static char *_8b3a0cc43814b34c40213b5f03cf1c2OolF55PazBQPXJdY[] = {
/* columns rows colors chars-per-pixel */
"48 48 153 2 ",
"   c #AA5F3E",
".  c #AD613F",
"X  c #B36C3E",
"o  c #8F5B46",
"O  c #975142",
"+  c #9B5545",
"@  c #915D47",
"#  c #9E5C46",
"$  c #915449",
"%  c #925C4C",
"&  c #A25F44",
"*  c #AC5F42",
"=  c #8F624E",
"-  c #94614C",
";  c #926A4E",
":  c #96754F",
">  c #98744D",
",  c #8B6E50",
"<  c #976252",
"1  c #9A6650",
"2  c #9D6B55",
"3  c #8F7051",
"4  c #967551",
"5  c #9B7253",
"6  c #9A7A53",
"7  c #A36142",
"8  c #AE6540",
"9  c #A5604A",
"0  c #AD644D",
"q  c #B46441",
"w  c #B66B42",
"e  c #B46D4D",
"r  c #BC7345",
"t  c #B5724D",
"y  c #B47D4C",
"u  c #B46A51",
"i  c #BD7452",
"p  c #C07743",
"a  c #C37B44",
"s  c #C37F4E",
"d  c #C07953",
"f  c #7E9656",
"g  c #799D57",
"h  c #7A9E58",
"j  c #79A057",
"k  c #78A158",
"l  c #BC8532",
"z  c #C28C2F",
"x  c #C78E37",
"c  c #CF9A3D",
"v  c #D6A733",
"b  c #D8AD38",
"n  c #9C8054",
"m  c #9F8B58",
"M  c #959759",
"N  c #99975B",
"B  c #96985A",
"V  c #9E995D",
"C  c #A38758",
"Z  c #A18D5A",
"A  c #AB965F",
"S  c #A19A5F",
"D  c #9BAD5E",
"F  c #9CB45E",
"G  c #B1A767",
"H  c #A3BE62",
"J  c #C98445",
"K  c #C68B47",
"L  c #CF8D46",
"P  c #C4804F",
"I  c #D68D4F",
"U  c #D19446",
"Y  c #D5954A",
"T  c #D9924F",
"R  c #D99E4A",
"E  c #C28151",
"W  c #CA8552",
"Q  c #CE8C55",
"!  c #D58C52",
"~  c #D08E5C",
"^  c #DA9352",
"/  c #DE9A53",
"(  c #D7955F",
")  c #DD925A",
"_  c #E29E55",
"`  c #E49D59",
"'  c #D6A242",
"]  c #D8A345",
"[  c #DCA845",
"{  c #DAA250",
"}  c #E3AD4D",
"|  c #E1B742",
" . c #E5B846",
".. c #EABE46",
"X. c #E6B04F",
"o. c #EDBC4F",
"O. c #E4A755",
"+. c #E6AE51",
"@. c #EAAB56",
"#. c #E5A159",
"$. c #EDA95F",
"%. c #EEB653",
"&. c #ECB851",
"*. c #F0B752",
"=. c #F1BA53",
"-. c #DCAB67",
";. c #DDAD68",
":. c #DFB068",
">. c #E8A164",
",. c #F1AB67",
"<. c #E3B469",
"1. c #F4B267",
"2. c #F7B56C",
"3. c #FEBD6B",
"4. c #A4C263",
"5. c #B5C26A",
"6. c #B8C46A",
"7. c #BDCD6E",
"8. c #BED06E",
"9. c #BFD370",
"0. c #F8D04E",
"q. c #F2C250",
"w. c #FBCC53",
"e. c #FAC65B",
"r. c #FDCD5B",
"t. c #FFD754",
"y. c #FFDB54",
"u. c #FFD55B",
"i. c #FFDF5C",
"p. c #FFE65C",
"a. c #FFE95F",
"s. c #FFF15F",
"d. c #C0D26F",
"f. c #C0D470",
"g. c #F1C865",
"h. c #F0C369",
"j. c #FED762",
"k. c #FBD16F",
"l. c #FFC373",
"z. c #FFDE73",
"x. c #FFE462",
"c. c #FFEA64",
"v. c #FFE16E",
"b. c #FFF461",
"n. c #FFF46D",
"m. c #FFED76",
"M. c #FFEE7A",
"N. c #FFF47A",
"B. c #FFF97B",
"V. c #FFF97D",
"C. c #B1E0BE",
"Z. c #FFF983",
"A. c #9BD4C3",
/* pixels */
"f.f.f.f.f.f.f.f.f.f.f.f.4.4.4.4.f.f.f.f.f.f.f.f.f.f.f.f.4.4.4.4.4.4.4.4.4.4.4.4.4.4.4.4.k k k k ",
"f.f.f.f.f.f.f.f.f.f.f.f.4.4.4.4.f.f.f.f.f.f.f.f.f.f.f.f.4.4.4.4.4.4.4.4.4.4.4.4.4.4.4.4.k k k k ",
"f.f.f.f.f.f.f.f.f.f.f.f.4.4.4.4.f.f.f.f.f.f.f.f.f.f.f.f.4.4.4.4.4.4.4.4.4.4.4.4.4.4.4.4.k k k k ",
"f.f.f.f.f.f.f.f.f.f.f.f.4.4.4.4.f.f.f.f.f.f.f.f.f.f.f.f.4.4.4.4.4.4.4.4.4.4.4.4.4.4.4.4.k k k k ",
"f.f.f.f.f.f.f.f.f.f.f.f.f.f.f.f.f.f.f.f.f.f.f.f.f.f.f.f.f.f.f.f.4.4.4.4.4.4.4.4.4.4.4.4.k k k k ",
"f.f.f.f.f.f.f.f.f.f.f.f.f.f.f.f.f.f.f.f.f.f.f.f.f.f.f.f.f.f.f.f.4.4.4.4.4.4.4.4.4.4.4.4.k k k k ",
"f.f.f.f.f.f.f.f.f.f.f.f.f.f.f.f.f.f.f.f.f.f.f.f.f.f.f.f.f.f.f.f.4.4.4.4.4.4.4.4.4.4.4.4.k k k k ",
"f.f.f.f.f.f.f.f.f.f.f.f.f.f.f.f.f.f.f.f.f.f.f.f.f.f.f.f.f.f.f.f.4.4.4.4.4.4.4.4.4.4.4.4.k k k k ",
"f.f.f.f.f.f.f.f.f.f.f.f.f.f.f.f.f.f.f.f.f.f.f.f.f.f.f.f.4.4.4.4.4.4.4.4.4.4.4.4.4.4.4.4.k k k k ",
"f.f.f.f.f.f.f.f.f.f.f.f.f.f.d.8.8.d.f.f.f.f.f.f.f.f.f.f.4.4.4.H H 4.4.4.4.4.4.4.4.4.4.4.k k k k ",
"f.f.f.f.f.f.f.f.f.f.f.f.f.f.f.f.f.f.f.f.f.f.f.f.f.f.f.f.4.4.4.4.4.4.4.4.4.4.4.4.4.4.4.4.k k k k ",
"f.f.f.f.f.f.f.f.f.f.f.f.9.7.f.f.f.f.7.7.8.7.7.7.7.7.7.8.H H 4.4.4.4.H 4.4.4.4.4.4.4.4.4.k k k k ",
"f.f.f.f.f.f.f.f.f.f.f.8.f.f.6.G G 6.f.f.f.f.f.f.f.f.f.f.f.f.6.G S F 4.4.H 4.4.4.k k k k k k k k ",
"f.f.f.f.f.f.f.f.f.f.f.7.f.f.C u u C f.f.f.f.f.f.f.f.f.f.f.f.C u u n 4.4.H 4.4.4.k k k k k k k k ",
"f.f.f.f.f.f.f.f.f.d.f.f.5.4 E @.@.y 6 : > : 4 : : 4 : > : 6 y @.@.E , F 4.4.4.4.k k k k k k k k ",
"f.f.f.f.f.f.f.f.f.8.9.6.A t @.y.y.{ e u d i i i i i i d u e { y.y.@.t Z F 4.H 4.k k k k k k k k ",
"f.f.f.f.f.f.f.f.8.f.7.4 Q e.i.i.p.=.^ >.2.,.,.,.,.,.,.2.>.^ =.p.i.i.e.Q ; H 4.H k k k k k k k k ",
"f.f.f.f.f.f.f.f.7.f.7.$ ` a.b.u.e.@._ $.3.l.l.l.l.l.l.3.$._ @.e.u.b.a.` $ H 4.H k k k k k k k k ",
"f.f.f.f.f.f.f.f.8.f.7.- Q u.s.r./ ! ^ T _ 1.2.1.1.2.1._ T ^ ! / r.s.u.Q % H 4.H k k k k k k k k ",
"f.f.f.f.f.f.f.f.8.f.7.- Q u.b.r./ ! / ^ / ` #.` ` #.` / ^ / ! / r.b.u.Q % H 4.H k k k k k k k k ",
"f.f.f.f.4.4.4.4.8.f.7.- Q u.s.r._ ! ^ ^ ^ I I I I I I ^ ^ ^ ! _ r.s.u.Q % H 4.H k k k k k k k k ",
"f.f.f.f.4.4.4.4.8.f.7.- ! u.s.r._ ! ^ ^ ^ ^ ^ ^ ^ ^ ^ ^ ^ ^ ! _ r.s.u.! % H 4.H k k k k k k k k ",
"f.f.f.f.4.4.4.4.8.f.7.@ ( m.n.w.=.%.=.=.*.=.=.=.=.=.=.=.=.=.%.=.w.n.m.( o H 4.H k k k k k k k k ",
"f.f.f.f.4.4.4.4.8.f.7.- ~ z.n.x.c.c.c.c.c.c.x.x.x.c.c.c.c.c.c.c.x.n.z.~ o H 4.H k k k k k k k k ",
"f.f.f.f.f.f.f.f.8.f.7.2 r c j.Z.V.B.B.B.V.B.B.M.N.B.B.B.B.B.B.V.Z.j.c r < g k g k k k k A.A.A.A.",
"f.f.f.f.f.f.f.f.8.f.7.2 r z  .g.<.-.:.<.-.;.k.m.v.h.;.;.<.:.-.<.g. .z r < g k g k k k k A.A.A.A.",
"f.f.f.f.f.f.f.f.8.f.7.1 P ] v l 7 + # 7 O + { p.w.K + + & # + 7 l v ] P % g k g k k k k A.A.A.A.",
"f.f.f.f.f.f.f.f.8.f.7.1 s ' b x X * 8 q   . R t.w.U .   q 8 * X x b ' s % g k g k k k k A.A.A.A.",
"f.f.f.f.f.f.f.f.8.f.7.1 s [ | ' J a a J a a Y } X.Y a a J a a J ' | [ s % g k g k k k k A.A.A.A.",
"f.f.f.f.f.f.f.f.8.f.7.- W &...c a r p p p p p a a a p p p p r a c ..&.W % g k g k k k k A.A.A.A.",
"f.f.f.f.f.f.f.f.7.f.7.% ) w.0.] r q w w w w q q q q w w w w q r ] 0.w.) $ g k g k k k k A.A.A.A.",
"f.f.f.f.f.f.f.f.8.f.7.5 E +.w.o.L a J J J J J J J J J J J J a L o.w.+.E = g k j k k k k A.A.A.A.",
"4.4.4.4.f.f.f.f.f.8.9.6.m e @.w.q.o.o.o.o.o.o.o.o.o.o.o.o.o.o.q.w.@.e m f k h k k k k k A.A.A.A.",
"4.4.4.4.f.f.f.f.f.d.f.f.F 3 E @.@.O.O.O.O.O.O.O.O.O.O.O.O.O.O.@.@.E 3 F k k k k k k k k A.A.A.A.",
"4.4.4.4.f.f.f.f.f.f.f.7.4.4.6 0 9 # # # # # # # # # # # # # # 9 0 6 4.4.h k k k k k k k A.A.A.A.",
"4.4.4.4.f.f.f.f.f.f.f.8.4.4.D V N B M M M M M M M M M M M M B N V D 4.4.h k k k k k k k A.A.A.A.",
"4.4.4.4.4.4.4.4.4.4.4.4.4.H 4.4.4.4.4.4.4.4.4.4.4.4.4.4.4.4.4.4.k k h k k k k k A.A.A.A.A.A.A.A.",
"4.4.4.4.4.4.4.4.4.4.4.4.4.4.4.4.4.4.4.4.4.4.4.4.4.4.4.4.4.4.4.4.k k k k k k k k A.A.A.A.A.A.A.A.",
"4.4.4.4.4.4.4.4.4.4.4.4.4.4.4.H H H H H H H H H H H H H H H H H h k k k k k k k A.A.A.A.A.A.A.A.",
"4.4.4.4.4.4.4.4.4.4.4.4.4.4.4.4.4.4.4.4.4.4.4.4.4.4.4.4.4.4.4.4.k k k k k k k k A.A.A.A.A.A.A.A.",
"k k k k k k k k 4.4.4.4.4.4.4.4.k k k k k k k k k k k k k k k k k k k k A.A.A.A.A.A.A.A.C.C.C.C.",
"k k k k k k k k 4.4.4.4.4.4.4.4.k k k k k k k k k k k k k k k k k k k k A.A.A.A.A.A.A.A.C.C.C.C.",
"k k k k k k k k 4.4.4.4.4.4.4.4.k k k k k k k k k k k k k k k k k k k k A.A.A.A.A.A.A.A.C.C.C.C.",
"k k k k k k k k 4.4.4.4.4.4.4.4.k k k k k k k k k k k k k k k k k k k k A.A.A.A.A.A.A.A.C.C.C.C.",
"k k k k k k k k k k k k k k k k k k k k k k k k C.C.C.C.C.C.C.C.A.A.A.A.A.A.A.A.A.A.A.A.A.A.A.A.",
"k k k k k k k k k k k k k k k k k k k k k k k k C.C.C.C.C.C.C.C.A.A.A.A.A.A.A.A.A.A.A.A.A.A.A.A.",
"k k k k k k k k k k k k k k k k k k k k k k k k C.C.C.C.C.C.C.C.A.A.A.A.A.A.A.A.A.A.A.A.A.A.A.A.",
"k k k k k k k k k k k k k k k k k k k k k k k k C.C.C.C.C.C.C.C.A.A.A.A.A.A.A.A.A.A.A.A.A.A.A.A."
};
