/* XPM */
static char *_20ce5701e3a4e9784aa6f52d1cdd8b7dJ60ujK5L1M1dBi6[] = {
/* columns rows colors chars-per-pixel */
"48 48 12 1 ",
"  c #4A3B1F",
". c #78A158",
"X c #E5AB3D",
"o c #A4C263",
"O c #C0D470",
"+ c #FDC760",
"@ c #2379EA",
"# c #D8B78F",
"$ c #B1E0BE",
"% c #FFD7A8",
"& c #9BD4C3",
"* c white",
/* pixels */
"........ooooooooooooOOOOOOOOOOOOOOOOOOOOOOOOOOOO",
"........ooooooooooooOOOOOOOOOOOOOOOOOOOOOOOOOOOO",
"........ooooooooooooOOOOOOOOOOOOOOOOOOOOOOOOOOOO",
"........ooooooooooooOOOOOOOOOOOOOOOOOOOOOOOOOOOO",
"........ooooooooOOOOOOOOOOOOOOOOooooOOOOOOOOOOOO",
"........ooooooooOOOOOOOOOOOOOOOOooooOOOOOOOOOOOO",
"........ooooooooOOOOOOOOOOOOOOOOooooOOOOOOOOOOOO",
"........ooooo                        OOOOOOOOOOO",
"....ooooooooo                        OOOOOOOOOOO",
"....ooooooo    XXXXXXXX++++++++++++++  OOOOOOOOO",
"....ooooooo    XXXXXXXX++++++++++++++  OOOOOOOOO",
"....ooooo  @@  XXXXXXXXXX++++XXXXXX++  OOOOOOOOO",
"....ooooo  @@  XXXXXXXXXX++++XXXXXX++  OOOOOoooo",
"....ooooo  @@  XX******XX++  ++++++    OOOOOoooo",
"....ooooo  @@  XX******XX++  ++++++    OOOOOoooo",
"....ooooo      XX**  **XX++++++++++++  OOOOOoooo",
"........o      XX**  **XX++++++++++++  OOOOOOOOO",
"........ooo  @@  ******XX++++++++++++  OOOOOOOOO",
"........ooo  @@  ******XX++++++++++++  OOOOOOOOO",
"........ooo  @@  XXXXXXXX++++++++++++  OOOOOOOOO",
"........ooo  @@  XXXXXXXX++++++++++++  OOOOOOOOO",
"........ooo      XXXXXXXXXX++          OOOOOOOOO",
"........ooo      XXXXXXXXXX++          OOOOOOOOO",
"........ooooooo    XXXX++++++++  OOOOOOOOOOOOOOO",
"&&&&....ooooooo    XXXX++++++++  OOOooooOOOOOOOO",
"&&&&....ooooo  oo  XX##%%%%%%%%  OOOooooOOOOOOOO",
"&&&&....ooooo  oo  XX##%%%%%%%%  OOOooooOOOOOOOO",
"&&&&....ooooo      XX##%%%%%%%%  OOOooooOOOOOOOO",
"&&&&........o      XX##%%%%%%%%  oooOOOOOOOOOOOO",
"&&&&........o  ++++XX##%%%%%%%%  oooOOOOOOOOOOOO",
"&&&&........o  ++++XX##%%%%%%%%  oooOOOOOOOOOOOO",
"&&&&........o    XXXXXX++####++  oooOOOOOOOOOOOO",
"&&&&........o    XXXXXX++####++  oooooooooooOOOO",
"&&&&........ooo    XX++++++++++  oooooooooooOOOO",
"&&&&........ooo    XX++++++++++  oooooooooooOOOO",
"&&&&........ooooo  XX++    XX++  oooooooooooOOOO",
"&&&&&&&&........o  XX++    XX++  ooooooooooooooo",
"&&&&&&&&........o  XX  oo  XX  ooooooooooooooooo",
"&&&&&&&&........o  XX  oo  XX  ooooooooooooooooo",
"&&&&&&&&........o    oooo    ooooooooooooooooooo",
"&&&&&&&&&&&&.....    ....    .......oooo........",
"&&&&&&&&&&&&........................oooo........",
"&&&&&&&&&&&&........................oooo........",
"&&&&&&&&&&&&........................oooo........",
"&&&&&&&&&&&&&&&&&&&&$$$$........................",
"&&&&&&&&&&&&&&&&&&&&$$$$........................",
"&&&&&&&&&&&&&&&&&&&&$$$$........................",
"&&&&&&&&&&&&&&&&&&&&$$$$........................"
};
