/* XPM */
static char *_5b3767fbdf64b02a36dd4e44ec461924s6Gixfe2NJPT38w[] = {
/* columns rows colors chars-per-pixel */
"48 48 10 1 ",
"  c #4A3B1F",
". c #78A158",
"X c #E5AB3D",
"o c #A4C263",
"O c #C0D470",
"+ c #FDC760",
"@ c #2379EA",
"# c #D8B78F",
"$ c #FFD7A8",
"% c white",
/* pixels */
"................................................",
"................................................",
"................................................",
"................................................",
"oooooooooooo............oooooooooooooooooooo....",
"oooooooooooo............oooooooooooooooooooo....",
"oooooooooooo............oooooooooooooooooooo....",
"oooooooooooo.                        ooooooo....",
"ooooooooooooo                        ooooooooooo",
"ooooooooooo    XXXXXXXX++++++++++++++  ooooooooo",
"ooooooooooo    XXXXXXXX++++++++++++++  ooooooooo",
"ooooooooo  @@  XXXXXXXXXX++++XXXXXX++  ooooooooo",
"OOOOooooo  @@  XXXXXXXXXX++++XXXXXX++  oOOOOOOOO",
"OOOOooooo  @@  XX%%%%%%XX++  ++++++    oOOOOOOOO",
"OOOOooooo  @@  XX%%%%%%XX++  ++++++    oOOOOOOOO",
"OOOOooooo      XX%%  %%XX++++++++++++  oOOOOOOOO",
"OOOOOOOOO      XX%%  %%XX++++++++++++  OOOOOOOOO",
"OOOOOOOOOOO  @@  %%%%%%XX++++++++++++  OOOOOOOOO",
"OOOOOOOOOOO  @@  %%%%%%XX++++++++++++  OOOOOOOOO",
"OOOOOOOOOOO  @@  XXXXXXXX++++++++++++  OOOOOOOOO",
"OOOOOOOOOOO  @@  XXXXXXXX++++++++++++  OOOOOOOOO",
"OOOOOOOOOOO      XXXXXXXXXX++          OOOOOOOOO",
"OOOOOOOOOOO      XXXXXXXXXX++          OOOOOOOOO",
"OOOOOOOOOOOOOOO    XXXX++++++++  OOOOOOOOOOOOOOO",
"OOOOOOOOOOOOOOO    XXXX++++++++  OOOooooOOOOOOOO",
"OOOOOOOOOOOOO  OO  XX##$$$$$$$$  OOOooooOOOOOOOO",
"OOOOOOOOOOOOO  OO  XX##$$$$$$$$  OOOooooOOOOOOOO",
"OOOOOOOOOOOOO      XX##$$$$$$$$  OOOooooOOOOOOOO",
"OOOOOOOOOOOOo      XX##$$$$$$$$  OOOOOOOOOOOOOOO",
"OOOOOOOOOOOOo  ++++XX##$$$$$$$$  OOOOOOOOOOOOOOO",
"OOOOOOOOOOOOo  ++++XX##$$$$$$$$  OOOOOOOOOOOOOOO",
"OOOOOOOOOOOOo    XXXXXX++####++  OOOOOOOOOOOOOOO",
"OOOOOOOOooooo    XXXXXX++####++  OOOoooooooooooo",
"OOOOOOOOooooooo    XX++++++++++  OOOoooooooooooo",
"OOOOOOOOooooooo    XX++++++++++  OOOoooooooooooo",
"OOOOOOOOooooooooo  XX++    XX++  OOOoooooooooooo",
"ooooooooooooooooo  XX++    XX++  ooooooooooooooo",
"ooooooooooooooooo  XX  oo  XX  ooooooooooooooooo",
"ooooooooooooooooo  XX  oo  XX  ooooooooooooooooo",
"ooooooooooooooooo    oooo    ooooooooooooooooooo",
"oooooooo.........    oooo    ooooooooooo........",
"oooooooo............oooooooooooooooooooo........",
"oooooooo............oooooooooooooooooooo........",
"oooooooo............oooooooooooooooooooo........",
"................................................",
"................................................",
"................................................",
"................................................"
};
