/* XPM */
static char *_6df370473644d27c51f79edf85e6321071KQEpOq2xy7TOu[] = {
/* columns rows colors chars-per-pixel */
"48 48 12 1 ",
"  c #4A3B1F",
". c #78A158",
"X c #E5AB3D",
"o c #A4C263",
"O c #C0D470",
"+ c #FDC760",
"@ c #2379EA",
"# c #D8B78F",
"$ c #B1E0BE",
"% c #FFD7A8",
"& c #9BD4C3",
"* c white",
/* pixels */
"........ooooOOOOOOOOOOOOOOOOOOOOoooooooooooo....",
"........ooooOOOOOOOOOOOOOOOOOOOOoooooooooooo....",
"........ooooOOOOOOOOOOOOOOOOOOOOoooooooooooo....",
"........ooooOOOOOOOOOOOOOOOOOOOOoooooooooooo....",
"........ooooOOOOOOOOooooOOOOOOOOoooooooooooo....",
"........ooooOOOOOOOOooooOOOOOOOOoooooooooooo....",
"........ooooOOOOOOOOooooOOOOOOOOoooooooooooo....",
"........ooooO                        ooooooo....",
"....ooooooooo                        ooooooo....",
"....ooooooo    XXXXXXXX++++++++++++++  ooooo....",
"....ooooooo    XXXXXXXX++++++++++++++  ooooo....",
"....ooooo  @@  XXXXXXXXXX++++XXXXXX++  ooooo....",
"....ooooo  @@  XXXXXXXXXX++++XXXXXX++  o........",
"....ooooo  @@  XX******XX++  ++++++    o........",
"....ooooo  @@  XX******XX++  ++++++    o........",
"....ooooo      XX**  **XX++++++++++++  o........",
"........o      XX**  **XX++++++++++++  o........",
"........ooo  @@  ******XX++++++++++++  o........",
"........ooo  @@  ******XX++++++++++++  o........",
"........ooo  @@  XXXXXXXX++++++++++++  o........",
"........ooo  @@  XXXXXXXX++++++++++++  o........",
"........ooo      XXXXXXXXXX++          o........",
"........ooo      XXXXXXXXXX++          o........",
"........ooooooo    XXXX++++++++  ooooooo........",
"&&&&....ooooooo    XXXX++++++++  ooo........&&&&",
"&&&&....ooooo  oo  XX##%%%%%%%%  ooo........&&&&",
"&&&&....ooooo  oo  XX##%%%%%%%%  ooo........&&&&",
"&&&&....ooooo      XX##%%%%%%%%  ooo........&&&&",
"&&&&........o      XX##%%%%%%%%  ooo........&&&&",
"&&&&........o  ++++XX##%%%%%%%%  ooo........&&&&",
"&&&&........o  ++++XX##%%%%%%%%  ooo........&&&&",
"&&&&........o    XXXXXX++####++  ooo........&&&&",
"&&&&........o    XXXXXX++####++  ooo........&&&&",
"&&&&........ooo    XX++++++++++  ooo........&&&&",
"&&&&........ooo    XX++++++++++  ooo........&&&&",
"&&&&........ooooo  XX++    XX++  ooo........&&&&",
"&&&&&&&&........o  XX++    XX++  .......&&&&&&&&",
"&&&&&&&&........o  XX  oo  XX  o........&&&&&&&&",
"&&&&&&&&........o  XX  oo  XX  o........&&&&&&&&",
"&&&&&&&&........o    oooo    ooo........&&&&&&&&",
"&&&&&&&&&&&&.....    ....    .......&&&&&&&&$$$$",
"&&&&&&&&&&&&........................&&&&&&&&$$$$",
"&&&&&&&&&&&&........................&&&&&&&&$$$$",
"&&&&&&&&&&&&........................&&&&&&&&$$$$",
"&&&&&&&&&&&&&&&&................&&&&&&&&&&&&&&&&",
"&&&&&&&&&&&&&&&&................&&&&&&&&&&&&&&&&",
"&&&&&&&&&&&&&&&&................&&&&&&&&&&&&&&&&",
"&&&&&&&&&&&&&&&&................&&&&&&&&&&&&&&&&"
};
