/* XPM */
static char *c376aa514e2c4d81bd46452292c37a14tKnDdHELNIkcm1vY[] = {
/* columns rows colors chars-per-pixel */
"48 48 10 1 ",
"  c #4A3B1F",
". c #78A158",
"X c #E5AB3D",
"o c #A4C263",
"O c #C0D470",
"+ c #FDC760",
"@ c #2379EA",
"# c #D8B78F",
"$ c #FFD7A8",
"% c white",
/* pixels */
"OOOOOOOOOOOOOOOOOOOOOOOOOOOOoooooooooooo........",
"OOOOOOOOOOOOOOOOOOOOOOOOOOOOoooooooooooo........",
"OOOOOOOOOOOOOOOOOOOOOOOOOOOOoooooooooooo........",
"OOOOOOOOOOOOOOOOOOOOOOOOOOOOoooooooooooo........",
"OOOOOOOOOOOOOOOOOOOOOOOOOOOOOOOOoooooooo........",
"OOOOOOOOOOOOOOOOOOOOOOOOOOOOOOOOoooooooo........",
"OOOOOOOOOOOOOOOOOOOOOOOOOOOOOOOOoooooooo........",
"OOOOOOOOOOOOO                        ooo........",
"OOOOOOOOOOOOO                        ooo........",
"OOOOOOOOOOO    XXXXXXXX++++++++++++++  o........",
"OOOOOOOOOOO    XXXXXXXX++++++++++++++  o........",
"OOOOOOOOO  @@  XXXXXXXXXX++++XXXXXX++  o........",
"OOOOOOOOO  @@  XXXXXXXXXX++++XXXXXX++  ooooo....",
"OOOOOOOOO  @@  XX%%%%%%XX++  ++++++    ooooo....",
"OOOOOOOOO  @@  XX%%%%%%XX++  ++++++    ooooo....",
"OOOOOOOOO      XX%%  %%XX++++++++++++  ooooo....",
"OOOOOOOOO      XX%%  %%XX++++++++++++  ooooo....",
"OOOOOOOOOOO  @@  %%%%%%XX++++++++++++  ooooo....",
"OOOOOOOOOOO  @@  %%%%%%XX++++++++++++  ooooo....",
"OOOOOOOOOOO  @@  XXXXXXXX++++++++++++  ooooo....",
"OOOOOOOOOOO  @@  XXXXXXXX++++++++++++  ooooo....",
"OOOOOOOOOOO      XXXXXXXXXX++          ooooo....",
"OOOOOOOOOOO      XXXXXXXXXX++          ooooo....",
"OOOOOOOOOOOOOOO    XXXX++++++++  ooooooooooo....",
"OOOOOOOOOOOOOOO    XXXX++++++++  ooooooooooo....",
"OOOOOOOOOOOOO  OO  XX##$$$$$$$$  ooooooooooo....",
"OOOOOOOOOOOOO  OO  XX##$$$$$$$$  ooooooooooo....",
"OOOOOOOOOOOOO      XX##$$$$$$$$  ooooooooooo....",
"OOOOOOOOOOOOO      XX##$$$$$$$$  ooooooooooo....",
"OOOOOOOOOOOOO  ++++XX##$$$$$$$$  ooooooooooo....",
"OOOOOOOOOOOOO  ++++XX##$$$$$$$$  ooooooooooo....",
"OOOOOOOOOOOOO    XXXXXX++####++  ooooooooooo....",
"OOOOOOOOooooO    XXXXXX++####++  ooooooooooo....",
"OOOOOOOOooooOOO    XX++++++++++  ooooooooooo....",
"OOOOOOOOooooOOO    XX++++++++++  ooooooooooo....",
"OOOOOOOOooooOOOOO  XX++    XX++  ooooooooooo....",
"OOOOOOOOOOOOOOOOO  XX++    XX++  ooooooo........",
"OOOOOOOOOOOOOOOOO  XX  OO  XX  Ooooooooo........",
"OOOOOOOOOOOOOOOOO  XX  OO  XX  Ooooooooo........",
"OOOOOOOOOOOOOOOOO    OOOO    OOOoooooooo........",
"OOOOOOOOOOOOOOOOO    oooO    OOOOOOOoooo........",
"OOOOOOOOOOOOOOOOOOOOooooOOOOOOOOOOOOoooo........",
"OOOOOOOOOOOOOOOOOOOOooooOOOOOOOOOOOOoooo........",
"OOOOOOOOOOOOOOOOOOOOooooOOOOOOOOOOOOoooo........",
"OOOOOOOOOOOOOOOOOOOOOOOOOOOOOOOOOOOOoooooooo....",
"OOOOOOOOOOOOOOOOOOOOOOOOOOOOOOOOOOOOoooooooo....",
"OOOOOOOOOOOOOOOOOOOOOOOOOOOOOOOOOOOOoooooooo....",
"OOOOOOOOOOOOOOOOOOOOOOOOOOOOOOOOOOOOoooooooo...."
};
