/* XPM */
static char *_97b4f5076374cc8eaacf10197cc1583VQGkSEZMrFUhe5O5[] = {
/* columns rows colors chars-per-pixel */
"48 48 10 1 ",
"  c #4A3B1F",
". c #78A158",
"X c #E5AB3D",
"o c #A4C263",
"O c #C0D470",
"+ c #FDC760",
"@ c #2379EA",
"# c #D8B78F",
"$ c #FFD7A8",
"% c white",
/* pixels */
"....ooooooooOOOOOOOOOOOOOOOOOOOOOOOOoooooooo....",
"....ooooooooOOOOOOOOOOOOOOOOOOOOOOOOoooooooo....",
"....ooooooooOOOOOOOOOOOOOOOOOOOOOOOOoooooooo....",
"....ooooooooOOOOOOOOOOOOOOOOOOOOOOOOoooooooo....",
"....ooooooooOOOOOOOOOOOOOOOOOOOOOOOOoooooooo....",
"....ooooooooOOOOOOOOOOOOOOOOOOOOOOOOoooooooo....",
"....ooooooooOOOOOOOOOOOOOOOOOOOOOOOOoooooooo....",
"....ooooooooO                        ooooooo....",
"....ooooooooO                        ooooooo....",
"....ooooooo    XXXXXXXX++++++++++++++  ooooo....",
"....ooooooo    XXXXXXXX++++++++++++++  ooooo....",
"....ooooo  @@  XXXXXXXXXX++++XXXXXX++  ooooo....",
"........o  @@  XXXXXXXXXX++++XXXXXX++  o........",
"........o  @@  XX%%%%%%XX++  ++++++    o........",
"........o  @@  XX%%%%%%XX++  ++++++    o........",
"........o      XX%%  %%XX++++++++++++  o........",
"........o      XX%%  %%XX++++++++++++  o........",
"........ooo  @@  %%%%%%XX++++++++++++  o........",
"........ooo  @@  %%%%%%XX++++++++++++  o........",
"........ooo  @@  XXXXXXXX++++++++++++  o........",
"........ooo  @@  XXXXXXXX++++++++++++  o........",
"........ooo      XXXXXXXXXX++          o........",
"........ooo      XXXXXXXXXX++          o........",
"........ooooooo    XXXX++++++++  ooooooo........",
"....ooooooooooo    XXXX++++++++  ooooooooooo....",
"....ooooooooo  oO  XX##$$$$$$$$  ooooooooooo....",
"....ooooooooo  oO  XX##$$$$$$$$  ooooooooooo....",
"....ooooooooo      XX##$$$$$$$$  ooooooooooo....",
"....ooooooooO      XX##$$$$$$$$  OOOoooooooo....",
"....ooooooooO  ++++XX##$$$$$$$$  OOOoooooooo....",
"....ooooooooO  ++++XX##$$$$$$$$  OOOoooooooo....",
"....ooooooooO    XXXXXX++####++  OOOoooooooo....",
"....ooooooooO    XXXXXX++####++  OOOoooooooo....",
"....ooooooooOOO    XX++++++++++  OOOoooooooo....",
"....ooooooooOOO    XX++++++++++  OOOoooooooo....",
"....ooooooooOOOOO  XX++    XX++  OOOoooooooo....",
"....ooooooooooooO  XX++    XX++  OOOoooooooo....",
"....ooooooooooooO  XX  OO  XX  OOOOOoooooooo....",
"....ooooooooooooO  XX  OO  XX  OOOOOoooooooo....",
"....ooooooooooooO    OOOO    OOOOOOOoooooooo....",
"........ooooooooO    OOOO    OOOoooooooooooo....",
"........ooooooooOOOOOOOOOOOOOOOOoooooooooooo....",
"........ooooooooOOOOOOOOOOOOOOOOoooooooooooo....",
"........ooooooooOOOOOOOOOOOOOOOOoooooooooooo....",
"........ooooooooooooOOOOOOOOOOOOoooooooooooo....",
"........ooooooooooooOOOOOOOOOOOOoooooooooooo....",
"........ooooooooooooOOOOOOOOOOOOoooooooooooo....",
"........ooooooooooooOOOOOOOOOOOOoooooooooooo...."
};
