/* XPM */
static char *defe81171fc940bd828bb4a75d796d82w1pP2DWKIOcziLNI[] = {
/* columns rows colors chars-per-pixel */
"48 48 12 1 ",
"  c #4A3B1F",
". c #78A158",
"X c #E5AB3D",
"o c #A4C263",
"O c #C0D470",
"+ c #FDC760",
"@ c #2379EA",
"# c #D8B78F",
"$ c #B1E0BE",
"% c #FFD7A8",
"& c #9BD4C3",
"* c white",
/* pixels */
"OOOOOOOOOOOOooooOOOOOOOOOOOOoooooooooooooooo....",
"OOOOOOOOOOOOooooOOOOOOOOOOOOoooooooooooooooo....",
"OOOOOOOOOOOOooooOOOOOOOOOOOOoooooooooooooooo....",
"OOOOOOOOOOOOooooOOOOOOOOOOOOoooooooooooooooo....",
"OOOOOOOOOOOOOOOOOOOOOOOOOOOOOOOOoooooooooooo....",
"OOOOOOOOOOOOOOOOOOOOOOOOOOOOOOOOoooooooooooo....",
"OOOOOOOOOOOOOOOOOOOOOOOOOOOOOOOOoooooooooooo....",
"OOOOOOOOOOOOO                        ooooooo....",
"OOOOOOOOOOOOO                        ooooooo....",
"OOOOOOOOOOO    XXXXXXXX++++++++++++++  ooooo....",
"OOOOOOOOOOO    XXXXXXXX++++++++++++++  ooooo....",
"OOOOOOOOO  @@  XXXXXXXXXX++++XXXXXX++  ooooo....",
"OOOOOOOOO  @@  XXXXXXXXXX++++XXXXXX++  o........",
"OOOOOOOOO  @@  XX******XX++  ++++++    o........",
"OOOOOOOOO  @@  XX******XX++  ++++++    o........",
"OOOOOOOOO      XX**  **XX++++++++++++  o........",
"OOOOOOOOO      XX**  **XX++++++++++++  o........",
"OOOOOOOOOOO  @@  ******XX++++++++++++  o........",
"OOOOOOOOOOO  @@  ******XX++++++++++++  o........",
"OOOOOOOOOOO  @@  XXXXXXXX++++++++++++  o........",
"OOOOooooOOO  @@  XXXXXXXX++++++++++++  o........",
"OOOOooooOOO      XXXXXXXXXX++          o........",
"OOOOooooOOO      XXXXXXXXXX++          o........",
"OOOOooooOOOOOOO    XXXX++++++++  ooooooo........",
"OOOOOOOOOOOOOOO    XXXX++++++++  ooo........&&&&",
"OOOOOOOOOOOOO  OO  XX##%%%%%%%%  ooo........&&&&",
"OOOOOOOOOOOOO  OO  XX##%%%%%%%%  ooo........&&&&",
"OOOOOOOOOOOOO      XX##%%%%%%%%  ooo........&&&&",
"OOOOOOOOOOOOO      XX##%%%%%%%%  ooo........&&&&",
"OOOOOOOOOOOOO  ++++XX##%%%%%%%%  ooo........&&&&",
"OOOOOOOOOOOOO  ++++XX##%%%%%%%%  ooo........&&&&",
"OOOOOOOOOOOOO    XXXXXX++####++  ooo........&&&&",
"ooooOOOOOOOOo    XXXXXX++####++  ooo........&&&&",
"ooooOOOOOOOOooo    XX++++++++++  ooo........&&&&",
"ooooOOOOOOOOooo    XX++++++++++  ooo........&&&&",
"ooooOOOOOOOOooooo  XX++    XX++  ooo........&&&&",
"ooooooooooooooooo  XX++    XX++  .......&&&&&&&&",
"ooooooooooooooooo  XX  oo  XX  o........&&&&&&&&",
"ooooooooooooooooo  XX  oo  XX  o........&&&&&&&&",
"ooooooooooooooooo    oooo    ooo........&&&&&&&&",
"........oooooooo.    ....    .......&&&&&&&&$$$$",
"........oooooooo....................&&&&&&&&$$$$",
"........oooooooo....................&&&&&&&&$$$$",
"........oooooooo....................&&&&&&&&$$$$",
"........................$$$$$$$$&&&&&&&&&&&&&&&&",
"........................$$$$$$$$&&&&&&&&&&&&&&&&",
"........................$$$$$$$$&&&&&&&&&&&&&&&&",
"........................$$$$$$$$&&&&&&&&&&&&&&&&"
};
