/* XPM */
static char *a3eee68298604711f3cd4a494ce8faa0UfvkhreNAWObSiON[] = {
/* columns rows colors chars-per-pixel */
"48 48 10 1 ",
"  c #4A3B1F",
". c #78A158",
"X c #E5AB3D",
"o c #A4C263",
"O c #C0D470",
"+ c #FDC760",
"@ c #2379EA",
"# c #D8B78F",
"$ c #FFD7A8",
"% c white",
/* pixels */
"................................................",
"................................................",
"................................................",
"................................................",
"oooo............oooooooooooooooooooo........oooo",
"oooo............oooooooooooooooooooo........oooo",
"oooo............oooooooooooooooooooo........oooo",
"oooo.........                        .......oooo",
"ooooooooooooo                        ooooooooooo",
"ooooooooooo    XXXXXXXX++++++++++++++  ooooooooo",
"ooooooooooo    XXXXXXXX++++++++++++++  ooooooooo",
"ooooooooo  @@  XXXXXXXXXX++++XXXXXX++  ooooooooo",
"ooooooooo  @@  XXXXXXXXXX++++XXXXXX++  ooooooooo",
"ooooooooo  @@  XX%%%%%%XX++  ++++++    ooooooooo",
"ooooooooo  @@  XX%%%%%%XX++  ++++++    ooooooooo",
"ooooooooo      XX%%  %%XX++++++++++++  ooooooooo",
"OOOOOOOOo      XX%%  %%XX++++++++++++  OOOOOOOOO",
"OOOOOOOOooo  @@  %%%%%%XX++++++++++++  OOOOOOOOO",
"OOOOOOOOooo  @@  %%%%%%XX++++++++++++  OOOOOOOOO",
"OOOOOOOOooo  @@  XXXXXXXX++++++++++++  OOOOOOOOO",
"ooooOOOOOOO  @@  XXXXXXXX++++++++++++  OOOOOoooo",
"ooooOOOOOOO      XXXXXXXXXX++          OOOOOoooo",
"ooooOOOOOOO      XXXXXXXXXX++          OOOOOoooo",
"ooooOOOOOOOOOOO    XXXX++++++++  OOOOOOOOOOOoooo",
"OOOOOOOOOOOOOOO    XXXX++++++++  OOOOOOOOOOOOOOO",
"OOOOOOOOOOOOO  OO  XX##$$$$$$$$  OOOOOOOOOOOOOOO",
"OOOOOOOOOOOOO  OO  XX##$$$$$$$$  OOOOOOOOOOOOOOO",
"OOOOOOOOOOOOO      XX##$$$$$$$$  OOOOOOOOOOOOOOO",
"OOOOOOOOOOOOO      XX##$$$$$$$$  OOOOOOOOOOOOOOO",
"OOOOOOOOOOOOO  ++++XX##$$$$$$$$  OOOOOOOOOOOOOOO",
"OOOOOOOOOOOOO  ++++XX##$$$$$$$$  OOOOOOOOOOOOOOO",
"OOOOOOOOOOOOO    XXXXXX++####++  OOOOOOOOOOOOOOO",
"OOOOOOOOOOOOO    XXXXXX++####++  OOOOOOOOOOOOOOO",
"OOOOOOOOOOOOOOO    XX++++++++++  OOOOOOOOOOOOOOO",
"OOOOOOOOOOOOOOO    XX++++++++++  OOOOOOOOOOOOOOO",
"OOOOOOOOOOOOOOOOO  XX++    XX++  OOOOOOOOOOOOOOO",
"OOOOOOOOOOOOOOOOO  XX++    XX++  OOOOOOOOOOOOOOO",
"OOOOOOOOOOOOOOOOO  XX  OO  XX  OOOOOOOOOOOOOOOOO",
"OOOOOOOOOOOOOOOOO  XX  OO  XX  OOOOOOOOOOOOOOOOO",
"OOOOOOOOOOOOOOOOO    OOOO    OOOOOOOOOOOOOOOOOOO",
"OOOOOOOOOOOOOOOOO    OOOO    OOOOOOOOOOOOOOOOOOO",
"OOOOOOOOOOOOOOOOOOOOOOOOOOOOOOOOOOOOOOOOOOOOOOOO",
"OOOOOOOOOOOOOOOOOOOOOOOOOOOOOOOOOOOOOOOOOOOOOOOO",
"OOOOOOOOOOOOOOOOOOOOOOOOOOOOOOOOOOOOOOOOOOOOOOOO",
"OOOOOOOOOOOOOOOOOOOOOOOOOOOOOOOOOOOOOOOOOOOOOOOO",
"OOOOOOOOOOOOOOOOOOOOOOOOOOOOOOOOOOOOOOOOOOOOOOOO",
"OOOOOOOOOOOOOOOOOOOOOOOOOOOOOOOOOOOOOOOOOOOOOOOO",
"OOOOOOOOOOOOOOOOOOOOOOOOOOOOOOOOOOOOOOOOOOOOOOOO"
};
