/* XPM */
static char *xpm_[] = {
/* columns rows colors chars-per-pixel */
"48 48 3 1 ",
"  c #78A158",
". c #A4C263",
"X c #C0D470",
/* pixels */
"XXXXXXXXXXXXXXXXXXXXXXXXXXXXXXXXXXXXXXXXXXXXXXXX",
"XXXXXXXXXXXXXXXXXXXXXXXXXXXXXXXXXXXXXXXXXXXXXXXX",
"XXXXXXXXXXXXXXXXXXXXXXXXXXXXXXXXXXXXXXXXXXXXXXXX",
"XXXXXXXXXXXXXXXXXXXXXXXXXXXXXXXXXXXXXXXXXXXXXXXX",
"XXXXXXXXXXXXXXXXXXXXXXXXXXXXXXXXXXXXXXXXXXXXXXXX",
"XXXXXXXXXXXXXXXXXXXXXXXXXXXXXXXXXXXXXXXXXXXXXXXX",
"XXXXXXXXXXXXXXXXXXXXXXXXXXXXXXXXXXXXXXXXXXXXXXXX",
"XXXXXXXXXXXXXXXXXXXXXXXXXXXXXXXXXXXXXXXXXXXXXXXX",
"XXXXXXXXXXXXXXXXXXXXXXXXXXXXXXXXXXXXXXXXXXXXXXXX",
"XXXXXXXXXXXXXXXXXXXXXXXXXXXXXXXXXXXXXXXXXXXXXXXX",
"XXXXXXXXXXXXXXXXXXXXXXXXXXXXXXXXXXXXXXXXXXXXXXXX",
"XXXXXXXXXXXXXXXXXXXXXXXXXXXXXXXXXXXXXXXXXXXXXXXX",
"XXXXXXXXXXXXXXXXXXXXXXXXXXXXXXXXXXXXXXXXXXXXXXXX",
"XXXXXXXXXXXXXXXXXXXXXXXXXXXXXXXXXXXXXXXXXXXXXXXX",
"XXXXXXXXXXXXXXXXXXXXXXXXXXXXXXXXXXXXXXXXXXXXXXXX",
"XXXXXXXXXXXXXXXXXXXXXXXXXXXXXXXXXXXXXXXXXXXXXXXX",
"....XXXXXXXXXXXXXXXXXXXXXXXXXXXXXXXXXXXX....XXXX",
"....XXXXXXXXXXXXXXXXXXXXXXXXXXXXXXXXXXXX....XXXX",
"....XXXXXXXXXXXXXXXXXXXXXXXXXXXXXXXXXXXX....XXXX",
"....XXXXXXXXXXXXXXXXXXXXXXXXXXXXXXXXXXXX....XXXX",
"XXXXXXXXXXXXXXXXXXXXXXXXXXXXXXXXXXXXXXXXXXXXXXXX",
"XXXXXXXXXXXXXXXXXXXXXXXXXXXXXXXXXXXXXXXXXXXXXXXX",
"XXXXXXXXXXXXXXXXXXXXXXXXXXXXXXXXXXXXXXXXXXXXXXXX",
"XXXXXXXXXXXXXXXXXXXXXXXXXXXXXXXXXXXXXXXXXXXXXXXX",
"XXXXXXXXXXXXXXXX....XXXXXXXXXXXXXXXXXXXXXXXXXXXX",
"XXXXXXXXXXXXXXXX....XXXXXXXXXXXXXXXXXXXXXXXXXXXX",
"XXXXXXXXXXXXXXXX....XXXXXXXXXXXXXXXXXXXXXXXXXXXX",
"XXXXXXXXXXXXXXXX....XXXXXXXXXXXXXXXXXXXXXXXXXXXX",
"XXXX....XXXXXXXXXXXXXXXXXXXXXXXX....XXXXXXXX....",
"XXXX....XXXXXXXXXXXXXXXXXXXXXXXX....XXXXXXXX....",
"XXXX....XXXXXXXXXXXXXXXXXXXXXXXX....XXXXXXXX....",
"XXXX....XXXXXXXXXXXXXXXXXXXXXXXX....XXXXXXXX....",
"................XXXXXXXXXXXX....................",
"................XXXXXXXXXXXX....................",
"................XXXXXXXXXXXX....................",
"................XXXXXXXXXXXX....................",
"................................................",
"................................................",
"................................................",
"................................................",
"            ....................            ....",
"            ....................            ....",
"            ....................            ....",
"            ....................            ....",
"                                                ",
"                                                ",
"                                                ",
"                                                "
};
