/* XPM */
static char *xpm_[] = {
/* columns rows colors chars-per-pixel */
"48 48 5 1 ",
"  c #78A158",
". c #A4C263",
"X c #C0D470",
"o c #B1E0BE",
"O c #9BD4C3",
/* pixels */
"                        ooooooooOOOOOOOOOOOOOOOO",
"                        ooooooooOOOOOOOOOOOOOOOO",
"                        ooooooooOOOOOOOOOOOOOOOO",
"                        ooooooooOOOOOOOOOOOOOOOO",
"............                        OOOOOOOOOOOO",
"............                        OOOOOOOOOOOO",
"............                        OOOOOOOOOOOO",
"............                        OOOOOOOOOOOO",
"............................            OOOOOOOO",
"............................            OOOOOOOO",
"............................            OOOOOOOO",
"............................            OOOOOOOO",
"XXXXXXXXXXXX........................        OOOO",
"XXXXXXXXXXXX........................        OOOO",
"XXXXXXXXXXXX........................        OOOO",
"XXXXXXXXXXXX........................        OOOO",
"....XXXXXXXXXXXXXXXXXXXX................        ",
"....XXXXXXXXXXXXXXXXXXXX................        ",
"....XXXXXXXXXXXXXXXXXXXX................        ",
"....XXXXXXXXXXXXXXXXXXXX................        ",
"XXXXXXXXXXXXXXXXXXXXXXXXXXXX............        ",
"XXXXXXXXXXXXXXXXXXXXXXXXXXXX............        ",
"XXXXXXXXXXXXXXXXXXXXXXXXXXXX............        ",
"XXXXXXXXXXXXXXXXXXXXXXXXXXXX............        ",
"XXXXXXXXXXXXXXXXXXXXXXXXXXXX............        ",
"XXXXXXXXXXXXXXXXXXXXXXXXXXXX............        ",
"XXXXXXXXXXXXXXXXXXXXXXXXXXXX............        ",
"XXXXXXXXXXXXXXXXXXXXXXXXXXXX............        ",
"XXXXXXXXXXXXXXXXXXXXXXXX................        ",
"XXXXXXXXXXXXXXXXXXXXXXXX................        ",
"XXXXXXXXXXXXXXXXXXXXXXXX................        ",
"XXXXXXXXXXXXXXXXXXXXXXXX................        ",
"....XXXXXXXX........................        OOOO",
"....XXXXXXXX........................        OOOO",
"....XXXXXXXX........................        OOOO",
"....XXXXXXXX........................        OOOO",
"............................            OOOOOOOO",
"............................            OOOOOOOO",
"............................            OOOOOOOO",
"............................            OOOOOOOO",
"        ........                    OOOOOOOOoooo",
"        ........                    OOOOOOOOoooo",
"        ........                    OOOOOOOOoooo",
"        ........                    OOOOOOOOoooo",
"                        ooooooooOOOOOOOOOOOOOOOO",
"                        ooooooooOOOOOOOOOOOOOOOO",
"                        ooooooooOOOOOOOOOOOOOOOO",
"                        ooooooooOOOOOOOOOOOOOOOO"
};
