/* XPM */
static char *xpm_[] = {
/* columns rows colors chars-per-pixel */
"48 48 5 1 ",
"  c #78A158",
". c #A4C263",
"X c #C0D470",
"o c #B1E0BE",
"O c #9BD4C3",
/* pixels */
"OOOOOOOOOOOOOOOOOOOOoooo                        ",
"OOOOOOOOOOOOOOOOOOOOoooo                        ",
"OOOOOOOOOOOOOOOOOOOOoooo                        ",
"OOOOOOOOOOOOOOOOOOOOoooo                        ",
"OOOOOOOOOOOO                        ............",
"OOOOOOOOOOOO                        ............",
"OOOOOOOOOOOO                        ............",
"OOOOOOOOOOOO                        ............",
"OOOOOOOO        ................................",
"OOOOOOOO        ................................",
"OOOOOOOO        ................................",
"OOOOOOOO        ................................",
"oooo        ............................XXXXXXXX",
"oooo        ............................XXXXXXXX",
"oooo        ............................XXXXXXXX",
"oooo        ............................XXXXXXXX",
"        ................XXXXXXXXXXXXXXXXXXXX....",
"        ................XXXXXXXXXXXXXXXXXXXX....",
"        ................XXXXXXXXXXXXXXXXXXXX....",
"        ................XXXXXXXXXXXXXXXXXXXX....",
"        ............XXXXXXXXXXXXXXXXXXXXXXXXXXXX",
"        ............XXXXXXXXXXXXXXXXXXXXXXXXXXXX",
"        ............XXXXXXXXXXXXXXXXXXXXXXXXXXXX",
"        ............XXXXXXXXXXXXXXXXXXXXXXXXXXXX",
"        ............XXXXXXXXXXXXXXXXXXXXXXXXXXXX",
"        ............XXXXXXXXXXXXXXXXXXXXXXXXXXXX",
"        ............XXXXXXXXXXXXXXXXXXXXXXXXXXXX",
"        ............XXXXXXXXXXXXXXXXXXXXXXXXXXXX",
"        ................XXXXXXXX....XXXXXXXXXXXX",
"        ................XXXXXXXX....XXXXXXXXXXXX",
"        ................XXXXXXXX....XXXXXXXXXXXX",
"        ................XXXXXXXX....XXXXXXXXXXXX",
"OOOO        ................................XXXX",
"OOOO        ................................XXXX",
"OOOO        ................................XXXX",
"OOOO        ................................XXXX",
"OOOOOOOO        ................................",
"OOOOOOOO        ................................",
"OOOOOOOO        ................................",
"OOOOOOOO        ................................",
"OOOOOOOOOOOO                        ....        ",
"OOOOOOOOOOOO                        ....        ",
"OOOOOOOOOOOO                        ....        ",
"OOOOOOOOOOOO                        ....        ",
"OOOOOOOOOOOOOOOOOOOOoooo                        ",
"OOOOOOOOOOOOOOOOOOOOoooo                        ",
"OOOOOOOOOOOOOOOOOOOOoooo                        ",
"OOOOOOOOOOOOOOOOOOOOoooo                        "
};
