/* XPM */
static char *xpm_[] = {
/* columns rows colors chars-per-pixel */
"48 48 5 1 ",
"  c #78A158",
". c #A4C263",
"X c #C0D470",
"o c #B1E0BE",
"O c #9BD4C3",
/* pixels */
"        ....XXXXXXXXXXXXXXXXXXXX............    ",
"        ....XXXXXXXXXXXXXXXXXXXX............    ",
"        ....XXXXXXXXXXXXXXXXXXXX............    ",
"        ....XXXXXXXXXXXXXXXXXXXX............    ",
"        ....XXXXXXXX....XXXXXXXX............    ",
"        ....XXXXXXXX....XXXXXXXX............    ",
"        ....XXXXXXXX....XXXXXXXX............    ",
"        ....XXXXXXXX....XXXXXXXX............    ",
"    ............XXXXXXXXXXXX................    ",
"    ............XXXXXXXXXXXX................    ",
"    ............XXXXXXXXXXXX................    ",
"    ............XXXXXXXXXXXX................    ",
"    ............XXXXXXXXXXXXXXXX........        ",
"    ............XXXXXXXXXXXXXXXX........        ",
"    ............XXXXXXXXXXXXXXXX........        ",
"    ............XXXXXXXXXXXXXXXX........        ",
"        ........XXXXXXXXXXXXXXXX........        ",
"        ........XXXXXXXXXXXXXXXX........        ",
"        ........XXXXXXXXXXXXXXXX........        ",
"        ........XXXXXXXXXXXXXXXX........        ",
"        ........XXXXXXXXXXXX............        ",
"        ........XXXXXXXXXXXX............        ",
"        ........XXXXXXXXXXXX............        ",
"        ........XXXXXXXXXXXX............        ",
"OOOO    ............XXXXXXXX........        OOOO",
"OOOO    ............XXXXXXXX........        OOOO",
"OOOO    ............XXXXXXXX........        OOOO",
"OOOO    ............XXXXXXXX........        OOOO",
"OOOO        ........XXXXXXXX........        OOOO",
"OOOO        ........XXXXXXXX........        OOOO",
"OOOO        ........XXXXXXXX........        OOOO",
"OOOO        ........XXXXXXXX........        OOOO",
"OOOO        ........................        OOOO",
"OOOO        ........................        OOOO",
"OOOO        ........................        OOOO",
"OOOO        ........................        OOOO",
"OOOOOOOO        ................        OOOOOOOO",
"OOOOOOOO        ................        OOOOOOOO",
"OOOOOOOO        ................        OOOOOOOO",
"OOOOOOOO        ................        OOOOOOOO",
"OOOOOOOOOOOO                        OOOOOOOOoooo",
"OOOOOOOOOOOO                        OOOOOOOOoooo",
"OOOOOOOOOOOO                        OOOOOOOOoooo",
"OOOOOOOOOOOO                        OOOOOOOOoooo",
"OOOOOOOOOOOOOOOO                OOOOOOOOOOOOOOOO",
"OOOOOOOOOOOOOOOO                OOOOOOOOOOOOOOOO",
"OOOOOOOOOOOOOOOO                OOOOOOOOOOOOOOOO",
"OOOOOOOOOOOOOOOO                OOOOOOOOOOOOOOOO"
};
