/* XPM */
static char *xpm_[] = {
/* columns rows colors chars-per-pixel */
"48 48 5 1 ",
"  c #78A158",
". c #A4C263",
"X c #C0D470",
"o c #B1E0BE",
"O c #9BD4C3",
/* pixels */
"OOOOOOOOOOOOOO                    OOOOOOOOOOOOOO",
"OOOOOOOOOOOOOO                    OOOOOOOOOOOOOO",
"OOOOOOOOOOOOOO                    OOOOOOOOOOOOOO",
"OOOOOOO          ..........              OOOOOOO",
"OOOOOOO          ..........              OOOOOOO",
"OOOOOOO          ..........              OOOOOOO",
"OOOOOOO          ..........              OOOOOOO",
"OOO       ............................       OOO",
"OOO       ............................       OOO",
"OOO       ............................       OOO",
"OOO    ..............XXXXXXXXXX..........    OOO",
"OOO    ..............XXXXXXXXXX..........    OOO",
"OOO    ..............XXXXXXXXXX..........    OOO",
"OOO    ..............XXXXXXXXXX..........    OOO",
"       .......XXXXXXXXXXXXXXXXXXXX.......       ",
"       .......XXXXXXXXXXXXXXXXXXXX.......       ",
"       .......XXXXXXXXXXXXXXXXXXXX.......       ",
"   .......XXXXXXXXXXXXXX...XXXXXXXXXXX.......   ",
"   .......XXXXXXXXXXXXXX...XXXXXXXXXXX.......   ",
"   .......XXXXXXXXXXXXXX...XXXXXXXXXXX.......   ",
"   .......XXXXXXXXXXXXXX...XXXXXXXXXXX.......   ",
"   .......XXXXXXXXXXXXXXXXXXXXXXXXXXXX.......   ",
"   .......XXXXXXXXXXXXXXXXXXXXXXXXXXXX.......   ",
"   .......XXXXXXXXXXXXXXXXXXXXXXXXXXXX.......   ",
"   .......XXXXXXXXXXXXXXXXX....XXXXXXX.......   ",
"   .......XXXXXXXXXXXXXXXXX....XXXXXXX.......   ",
"   .......XXXXXXXXXXXXXXXXX....XXXXXXX.......   ",
"       .......XXX....XXXXXXXXXXXXXXXXX.......   ",
"       .......XXX....XXXXXXXXXXXXXXXXX.......   ",
"       .......XXX....XXXXXXXXXXXXXXXXX.......   ",
"       .......XXX....XXXXXXXXXXXXXXXXX.......   ",
"       .......XXXXXXXXXXXXXXXXXXXX.......       ",
"       .......XXXXXXXXXXXXXXXXXXXX.......       ",
"       .......XXXXXXXXXXXXXXXXXXXX.......       ",
"OOO    ..............XXXXXX..............    OOO",
"OOO    ..............XXXXXX..............    OOO",
"OOO    ..............XXXXXX..............    OOO",
"OOO    ..............XXXXXX..............    OOO",
"OOO       ............................       ooo",
"OOO       ............................       ooo",
"OOO       ............................       ooo",
"OOOOOOO          ..............          OOOOOOO",
"OOOOOOO          ..............          OOOOOOO",
"OOOOOOO          ..............          OOOOOOO",
"OOOOOOO          ..............          OOOOOOO",
"OOOOOOOOOOOOOO                    OOOOOOOOOOOOOO",
"OOOOOOOOOOOOOO                    OOOOOOOOOOOOOO",
"OOOOOOOOOOOOOO                    OOOOOOOOOOOOOO"
};
