/* XPM */
static char *xpm_[] = {
/* columns rows colors chars-per-pixel */
"48 48 5 1 ",
"  c #78A158",
". c #A4C263",
"X c #C0D470",
"o c #B1E0BE",
"O c #9BD4C3",
/* pixels */
"OOOOOOOOOOOOOOOOOOOOOOOO                        ",
"OOOOOOOOOOOOOOOOOOOOOOOO                        ",
"OOOOOOOOOOOOOOOOOOOOOOOO                        ",
"OOOOOOOOOOOOOOOOOOOOOOOO                        ",
"OOOOOOOOOOOO                        ............",
"OOOOOOOOOOOO                        ............",
"OOOOOOOOOOOO                        ............",
"OOOOOOOOOOOO                        ............",
"oooooooo        ................................",
"oooooooo        ................................",
"oooooooo        ................................",
"oooooooo        ................................",
"OOOO        ....................................",
"OOOO        ....................................",
"OOOO        ....................................",
"OOOO        ....................................",
"OOOO    ........................XXXX....XXXXXXXX",
"OOOO    ........................XXXX....XXXXXXXX",
"OOOO    ........................XXXX....XXXXXXXX",
"OOOO    ........................XXXX....XXXXXXXX",
"OOOO        ................XXXXXXXXXXXXXXXX....",
"OOOO        ................XXXXXXXXXXXXXXXX....",
"OOOO        ................XXXXXXXXXXXXXXXX....",
"OOOO        ................XXXXXXXXXXXXXXXX....",
"            ............XXXXXXXXXXXXXXXXXXXXXXXX",
"            ............XXXXXXXXXXXXXXXXXXXXXXXX",
"            ............XXXXXXXXXXXXXXXXXXXXXXXX",
"            ............XXXXXXXXXXXXXXXXXXXXXXXX",
"        ............XXXXXXXXXXXXXXXXXXXXXXXXXXXX",
"        ............XXXXXXXXXXXXXXXXXXXXXXXXXXXX",
"        ............XXXXXXXXXXXXXXXXXXXXXXXXXXXX",
"        ............XXXXXXXXXXXXXXXXXXXXXXXXXXXX",
"        ................XXXXXXXXXXXXXXXXXXXXXXXX",
"        ................XXXXXXXXXXXXXXXXXXXXXXXX",
"        ................XXXXXXXXXXXXXXXXXXXXXXXX",
"        ................XXXXXXXXXXXXXXXXXXXXXXXX",
"    ............XXXXXXXXXXXXXXXXXXXXXXXXXXXXXXXX",
"    ............XXXXXXXXXXXXXXXXXXXXXXXXXXXXXXXX",
"    ............XXXXXXXXXXXXXXXXXXXXXXXXXXXXXXXX",
"    ............XXXXXXXXXXXXXXXXXXXXXXXXXXXXXXXX",
"    ............XXXXXXXXXXXXXXXXXXXXXXXXXXXX....",
"    ............XXXXXXXXXXXXXXXXXXXXXXXXXXXX....",
"    ............XXXXXXXXXXXXXXXXXXXXXXXXXXXX....",
"    ............XXXXXXXXXXXXXXXXXXXXXXXXXXXX....",
"    ............XXXX....XXXXXXXXXXXXXXXXXXXXXXXX",
"    ............XXXX....XXXXXXXXXXXXXXXXXXXXXXXX",
"    ............XXXX....XXXXXXXXXXXXXXXXXXXXXXXX",
"    ............XXXX....XXXXXXXXXXXXXXXXXXXXXXXX"
};
