/* XPM */
static char *_02237e3fedd4151f24c50db3fd7ff30KgH8q9JALGMZUEgG[] = {
/* columns rows colors chars-per-pixel */
"48 48 2 1 ",
"  c #B1E0BE",
". c #9BD4C3",
/* pixels */
"..................         .....................",
"..................         .....................",
"..................         .....................",
"................................................",
"................................................",
"................................................",
"      ..........................................",
"      ..........................................",
"      ..........................................",
"................................................",
"................................................",
"................................................",
"................................................",
"................................................",
"................................................",
"........................            ............",
"........................            ............",
"........................            ............",
"................................................",
"................................................",
"................................................",
"................................................",
"................................................",
"................................................",
"......            ..............................",
"......            ..............................",
"......            ..............................",
"................................................",
"................................................",
"................................................",
".......................................      ...",
".......................................      ...",
".......................................      ...",
"................................................",
"................................................",
"................................................",
"...............            .....................",
"...............            .....................",
"...............            .....................",
"         .......................................",
"         .......................................",
"         .......................................",
"................................................",
"................................................",
"................................................",
"................................................",
"................................................",
"................................................"
};
