/* XPM */
static char *_bedf4e3dbe24c51a2cecfeb324c2a10KpseROCbJAfgfiIr[] = {
/* columns rows colors chars-per-pixel */
"48 48 129 2 ",
"   c #673644",
".  c #6B3B43",
"X  c #6E3E48",
"o  c #703F43",
"O  c #6F4044",
"+  c #744444",
"@  c #7B4B45",
"#  c #704048",
"$  c #90603E",
"%  c #9A6A3B",
"&  c #855542",
"*  c #975345",
"=  c #9A5746",
"-  c #935845",
";  c #9E5C46",
":  c #9B5649",
">  c #945A4B",
",  c #A15E47",
"<  c #96644E",
"1  c #98644E",
"2  c #9F6E49",
"3  c #9A6753",
"4  c #9D6A54",
"5  c #9B7253",
"6  c #977854",
"7  c #AB6546",
"8  c #A5604A",
"9  c #AD644D",
"0  c #B16240",
"q  c #B66B44",
"w  c #BB6F42",
"e  c #B26D4B",
"r  c #A8774F",
"t  c #BC7443",
"y  c #BE7949",
"u  c #AB6D57",
"i  c #AC6E58",
"p  c #AF7951",
"a  c #C07743",
"s  c #C37C44",
"d  c #C47D4A",
"f  c #BB842B",
"g  c #BD8537",
"h  c #BE8C33",
"j  c #BD8339",
"k  c #C28E34",
"l  c #C69133",
"z  c #CA9534",
"x  c #CB973F",
"c  c #C7983F",
"v  c #D39F3C",
"b  c #D5A42D",
"n  c #D2A233",
"m  c #D3A23E",
"M  c #DBAD3D",
"N  c #9D8D54",
"B  c #9E8E59",
"V  c #B5844A",
"C  c #A28257",
"Z  c #AA955D",
"A  c #A59E5E",
"S  c #A89D5F",
"D  c #A3A35E",
"F  c #A5A461",
"G  c #AAA563",
"H  c #A8A963",
"J  c #B2BD68",
"K  c #C78145",
"L  c #C98446",
"P  c #CF8D46",
"I  c #C88D4B",
"U  c #CA9E48",
"Y  c #C38353",
"T  c #C98452",
"R  c #C28C5B",
"E  c #C49651",
"W  c #C69952",
"Q  c #C99B52",
"!  c #D79652",
"~  c #DB9058",
"^  c #DEAA4C",
"/  c #CDA25C",
"(  c #E2AB4D",
")  c #E4B14C",
"_  c #E9B54F",
"`  c #EEBC4F",
"'  c #E4A755",
"]  c #E7AE51",
"[  c #E9AB56",
"{  c #E7AB59",
"}  c #E8AD59",
"|  c #ECB751",
" . c #EDBB53",
".. c #EEB35C",
"X. c #C69266",
"o. c #DD9861",
"O. c #D3AD6E",
"+. c #B4C66A",
"@. c #B8C46A",
"#. c #BCCD6E",
"$. c #BFD16F",
"%. c #BFD370",
"&. c #F0C347",
"*. c #FFD54E",
"=. c #F4C452",
"-. c #F9C751",
";. c #FBCD52",
":. c #F4C158",
">. c #FED253",
",. c #FFDA56",
"<. c #FFD35F",
"1. c #FFDA5A",
"2. c #FFE45E",
"3. c #FFEC5E",
"4. c #FFF15F",
"5. c #C0D26F",
"6. c #C1D370",
"7. c #C0D470",
"8. c #FFD867",
"9. c #F6C073",
"0. c #FFE262",
"q. c #FFE564",
"w. c #FFEA62",
"e. c #FFEE60",
"r. c #FFF060",
"t. c #FFF36D",
"y. c #FFEB77",
"u. c #FFF971",
"i. c #FFF981",
/* pixels */
"7.7.7.7.7.7.7.7.7.7.7.7.7.7.7.7.7.7.7.7.7.7.7.7.7.7.7.7.7.7.7.7.7.7.7.7.7.7.7.7.7.7.7.7.7.7.7.7.",
"7.7.7.7.7.7.7.7.7.7.7.7.7.7.7.7.7.7.7.7.7.7.7.7.7.7.7.7.7.7.7.7.7.7.7.7.7.7.7.7.7.7.7.7.7.7.7.7.",
"7.7.7.7.7.7.7.7.7.7.7.7.7.7.7.7.7.7.7.7.7.7.7.7.7.7.7.7.7.7.7.7.7.7.7.7.7.7.7.7.7.7.7.7.7.7.7.7.",
"7.7.7.7.7.7.7.7.7.7.7.7.7.7.7.7.7.7.7.7.7.7.7.7.7.7.7.7.7.7.7.7.7.7.7.7.7.7.7.7.7.7.7.7.7.7.7.7.",
"7.7.7.7.7.7.7.7.7.7.7.7.7.7.7.7.7.7.7.7.7.7.7.7.7.7.7.7.7.7.7.7.7.7.7.7.7.7.7.7.7.7.7.7.7.7.7.7.",
"7.7.7.7.7.7.7.7.7.7.7.7.7.7.7.7.7.7.7.7.7.7.7.7.7.7.7.7.7.7.7.7.7.7.7.7.7.7.7.7.7.7.7.7.7.7.7.7.",
"7.7.7.7.7.7.7.7.7.7.7.7.7.7.7.7.7.7.7.7.7.7.7.7.7.7.7.7.7.7.7.7.7.7.7.7.7.7.7.7.7.7.7.7.7.7.7.7.",
"7.7.7.7.7.7.7.7.7.7.7.7.7.7.%.6.6.%.7.7.7.7.7.7.7.7.7.7.7.7.%.6.6.%.7.7.7.7.7.7.7.7.7.7.7.7.7.7.",
"7.7.7.7.7.7.7.7.7.7.7.7.7.7.$.$.$.$.7.7.7.7.7.7.7.7.7.7.7.7.$.$.$.$.7.7.7.7.7.7.7.7.7.7.7.7.7.7.",
"7.7.7.7.7.7.7.7.7.7.7.7.6.$.7.7.7.7.$.$.%.$.$.$.$.$.$.%.$.$.7.7.7.7.$.6.7.7.7.7.7.7.7.7.7.7.7.7.",
"7.7.7.7.7.7.7.7.7.7.7.%.7.7.$.#.#.$.7.7.7.7.7.7.7.7.7.7.7.7.$.#.#.$.7.7.%.7.7.7.7.7.7.7.7.7.7.7.",
"7.7.7.7.7.7.7.7.7.7.7.#.7.7.A u i S 7.7.7.7.7.7.7.7.7.7.7.7.S i u A 7.7.#.7.7.7.7.7.7.7.7.7.7.7.",
"7.7.7.7.7.7.7.7.7.%.7.7.$.D p ~ ~ r F D A F F F F F F A D F r ~ ~ p F $.7.7.%.7.7.7.7.7.7.7.7.7.",
"7.7.7.7.7.7.7.7.7.$.7.7.H = ! =.=.I = * ; ; ; ; ; ; ; ; * = I =.=.! = H 7.7.$.7.7.7.7.7.7.7.7.7.",
"7.7.7.7.7.7.7.6.$.5.$.N X.9.8.*.>.:.{ { } } } ......} } { { :.,.,.<...R B $.5.$.6.7.7.7.7.7.7.7.",
"7.7.7.7.7.7.7.6.#.7.#.- o.y.u.0.q.w.r.r.r.r.e.3.2.3.r.r.r.r.2.2.2.3.1.~ > #.7.#.6.7.7.7.7.7.7.7.",
"7.7.7.7.7.7.7.6.$.7.#.3 d m 0.i.i.t.3.3.3.3.3.1.=.>.4.4.3.3.3.e.e.*.v d 3 #.7.$.6.7.7.7.7.7.7.7.",
"7.7.7.7.7.7.7.6.$.7.#.4 t f U O.O./ Q Q E W  .,.;.^ W W Q Q Q Q Q c f t 4 #.7.$.6.7.7.7.7.7.7.7.",
"7.7.7.7.7.7.7.6.$.7.#.3 d z % . o + + @ . # V -.-.V O   @ + + # . % z s 3 #.7.$.6.7.7.7.7.7.7.7.",
"7.7.7.7.7.7.7.6.$.7.#.3 d z %     o . o . . & 2 2 & .   o . + .   % z s 3 #.7.$.6.7.7.7.7.7.7.7.",
"7.7.7.7.7.7.7.6.$.7.#.3 s z % # @ & @ @ & @ +     + @ & @ @ & @ # % z s 3 #.7.$.6.7.7.7.7.7.7.7.",
"7.7.7.7.7.7.7.6.$.7.#.3 s z % X + @ @ @ @ @ @ @ @ @ @ @ @ @ @ + X % z s 3 #.7.$.6.7.7.7.7.7.7.7.",
"7.7.7.7.7.7.7.6.$.7.#.3 y l h % + . # # X X # # # # X X # # . + % h l y 3 #.7.$.6.7.7.7.7.7.7.7.",
"7.7.7.7.7.7.7.6.$.7.#.4 y l b k $ @ & & & & & & & & & & & & @ $ k b l y 4 #.7.$.6.7.7.7.7.7.7.7.",
"7.7.7.7.7.7.7.6.$.7.#.3 d v n l h h h h h h h h h h h h h h h h l n v d 3 #.7.$.6.7.7.7.7.7.7.7.",
"7.7.7.7.7.7.7.6.$.7.#.1 T ) M k g j j j j j j j j j j j j j j g k M ) T 1 #.7.$.6.7.7.7.7.7.7.7.",
"7.7.7.7.7.7.7.6.$.7.#.< T  .&.x 7 : , , , , , , , , , , , , : 7 x &. .T < #.7.$.6.7.7.7.7.7.7.7.",
"7.7.7.7.7.7.7.6.$.7.#.< T  .;.^ t 7 q q q q q q q q q q q q 7 t ^ ;. .T < #.7.$.6.7.7.7.7.7.7.7.",
"7.7.7.7.7.7.7.6.$.7.#.< T | >._ L t s s s s s s s s s s s s t L _ >.| T < #.7.$.6.7.7.7.7.7.7.7.",
"7.7.7.7.7.7.7.6.$.7.#.< T | >.) K w a a a a a a a a a a a a w K ) >.| T < #.7.$.6.7.7.7.7.7.7.7.",
"7.7.7.7.7.7.7.6.#.7.#.> ~ =.>.( t 0 q q q q q q q q q q q q 0 t ( >.=.~ > #.7.#.6.7.7.7.7.7.7.7.",
"7.7.7.7.7.7.7.6.$.6.#.5 Y ] ;._ P s L L L L L L L L L L L L s P _ ;.] Y 5 #.6.$.6.7.7.7.7.7.7.7.",
"7.7.7.7.7.7.7.7.6.$.%.@.Z e [ ;.=._ ` ` ` ` ` ` ` ` ` ` ` ` _ =.;.[ e Z @.%.$.6.7.7.7.7.7.7.7.7.",
"7.7.7.7.7.7.7.7.7.5.7.7.+.6 Y [ [ ' ' ' ' ' ' ' ' ' ' ' ' ' ' [ [ Y 6 +.7.7.5.7.7.7.7.7.7.7.7.7.",
"7.7.7.7.7.7.7.7.7.7.7.#.7.7.C 9 8 ; ; ; ; ; ; ; ; ; ; ; ; ; ; 8 9 C 7.7.#.7.7.7.7.7.7.7.7.7.7.7.",
"7.7.7.7.7.7.7.7.7.7.7.$.7.7.J G G G F F F F F F F F F F F F G G G J 7.7.$.7.7.7.7.7.7.7.7.7.7.7.",
"7.7.7.7.7.7.7.7.7.7.7.7.%.#.7.7.7.7.7.7.7.7.7.7.7.7.7.7.7.7.7.7.7.7.#.%.7.7.7.7.7.7.7.7.7.7.7.7.",
"7.7.7.7.7.7.7.7.7.7.7.7.7.7.7.7.7.7.7.7.7.7.7.7.7.7.7.7.7.7.7.7.7.7.7.7.7.7.7.7.7.7.7.7.7.7.7.7.",
"7.7.7.7.7.7.7.7.7.7.7.7.7.7.5.$.$.$.$.$.$.$.$.$.$.$.$.$.$.$.$.$.$.5.7.7.7.7.7.7.7.7.7.7.7.7.7.7.",
"7.7.7.7.7.7.7.7.7.7.7.7.7.7.7.7.7.7.7.7.7.7.7.7.7.7.7.7.7.7.7.7.7.7.7.7.7.7.7.7.7.7.7.7.7.7.7.7.",
"7.7.7.7.7.7.7.7.7.7.7.7.7.7.7.7.7.7.7.7.7.7.7.7.7.7.7.7.7.7.7.7.7.7.7.7.7.7.7.7.7.7.7.7.7.7.7.7.",
"7.7.7.7.7.7.7.7.7.7.7.7.7.7.7.7.7.7.7.7.7.7.7.7.7.7.7.7.7.7.7.7.7.7.7.7.7.7.7.7.7.7.7.7.7.7.7.7.",
"7.7.7.7.7.7.7.7.7.7.7.7.7.7.7.7.7.7.7.7.7.7.7.7.7.7.7.7.7.7.7.7.7.7.7.7.7.7.7.7.7.7.7.7.7.7.7.7.",
"7.7.7.7.7.7.7.7.7.7.7.7.7.7.7.7.7.7.7.7.7.7.7.7.7.7.7.7.7.7.7.7.7.7.7.7.7.7.7.7.7.7.7.7.7.7.7.7.",
"7.7.7.7.7.7.7.7.7.7.7.7.7.7.7.7.7.7.7.7.7.7.7.7.7.7.7.7.7.7.7.7.7.7.7.7.7.7.7.7.7.7.7.7.7.7.7.7.",
"7.7.7.7.7.7.7.7.7.7.7.7.7.7.7.7.7.7.7.7.7.7.7.7.7.7.7.7.7.7.7.7.7.7.7.7.7.7.7.7.7.7.7.7.7.7.7.7.",
"7.7.7.7.7.7.7.7.7.7.7.7.7.7.7.7.7.7.7.7.7.7.7.7.7.7.7.7.7.7.7.7.7.7.7.7.7.7.7.7.7.7.7.7.7.7.7.7.",
"7.7.7.7.7.7.7.7.7.7.7.7.7.7.7.7.7.7.7.7.7.7.7.7.7.7.7.7.7.7.7.7.7.7.7.7.7.7.7.7.7.7.7.7.7.7.7.7."
};
