/* XPM */
static char *_2acc8cbcc0e4262ed4cc18fa1a8d3a7J9qIj0FNfojo6FX5[] = {
/* columns rows colors chars-per-pixel */
"48 48 146 2 ",
"   c #6D3D49",
".  c #734446",
"X  c #774845",
"o  c #7A4A45",
"O  c #704048",
"+  c #8E5F3D",
"@  c #97643B",
"#  c #AF7D37",
"$  c #854C46",
"%  c #914B44",
"&  c #845542",
"*  c #8C5446",
"=  c #895941",
"-  c #9A5545",
";  c #9D5C46",
":  c #9E5D48",
">  c #A15E47",
",  c #A05D48",
"<  c #9D634C",
"1  c #9F6C4F",
"2  c #916E51",
"3  c #9B7452",
"4  c #A46146",
"5  c #A96446",
"6  c #A66E47",
"7  c #AA6947",
"8  c #A6644A",
"9  c #AC634C",
"0  c #AD694A",
"q  c #B36643",
"w  c #B56C44",
"e  c #B86D42",
"r  c #A77048",
"t  c #BE7443",
"y  c #B17148",
"u  c #B67A49",
"i  c #BB7F49",
"p  c #AD6E53",
"a  c #B16650",
"s  c #A27051",
"d  c #AB7355",
"f  c #AE7951",
"g  c #AC7958",
"h  c #B07B52",
"j  c #C07743",
"k  c #C47B42",
"l  c #C87F42",
"z  c #C27554",
"x  c #C07B50",
"c  c #78A158",
"v  c #BE8C2E",
"b  c #BE8C33",
"n  c #BD8339",
"m  c #C5942F",
"M  c #CE9E2E",
"N  c #D29F2D",
"B  c #C18E30",
"V  c #C4883B",
"C  c #C09130",
"Z  c #CC9A31",
"A  c #D09F38",
"S  c #D6A639",
"D  c #ECB73D",
"F  c #848250",
"G  c #9D8656",
"H  c #928A55",
"J  c #9A885A",
"K  c #8D9256",
"L  c #929156",
"P  c #959559",
"I  c #9D925B",
"U  c #979959",
"Y  c #9B9A5C",
"T  c #BD8241",
"R  c #BB804A",
"E  c #A78F5B",
"W  c #A49E5F",
"Q  c #9AA35C",
"!  c #9FA85D",
"~  c #9FB55F",
"^  c #A1AE5F",
"/  c #A79360",
"(  c #A59E60",
")  c #A6A461",
"_  c #AAA564",
"`  c #A1AF62",
"'  c #ADAC64",
"]  c #AFB466",
"[  c #A4BF63",
"{  c #B3B666",
"}  c #B7BE6B",
"|  c #C68344",
" . c #C98446",
".. c #C88841",
"X. c #C1874B",
"o. c #C4884E",
"O. c #CE8F4E",
"+. c #D08F40",
"@. c #D08F49",
"#. c #C69442",
"$. c #CF9349",
"%. c #D39142",
"&. c #D2944A",
"*. c #D69F4E",
"=. c #D99D4A",
"-. c #D18B55",
";. c #D19453",
":. c #D19857",
">. c #DC9C52",
",. c #DBA34B",
"<. c #DEA354",
"1. c #E4B542",
"2. c #E6B845",
"3. c #EDBC4F",
"4. c #E3A755",
"5. c #E7AB54",
"6. c #EBAB56",
"7. c #E6A45C",
"8. c #EEAE58",
"9. c #E8B750",
"0. c #ECBA51",
"q. c #EDB45A",
"w. c #F2BE53",
"e. c #F1B35C",
"r. c #FBBB5B",
"t. c #A4C263",
"y. c #B6C36A",
"u. c #B8C66B",
"i. c #BECE6E",
"p. c #BFD16F",
"a. c #BFD370",
"s. c #F4C54F",
"d. c #EFC250",
"f. c #F5C551",
"g. c #F7C951",
"h. c #FBCD51",
"j. c #F9C35D",
"k. c #FFD753",
"l. c #FFD95C",
"z. c #FFE45B",
"x. c #FFEC5D",
"c. c #FFF35D",
"v. c #C0D26F",
"b. c #C0D270",
"n. c #C0D470",
"m. c #FFD462",
/* pixels */
"n.n.n.n.n.n.n.n.n.n.n.n.n.n.p.v.n.n.n.n.n.n.n.n.n.n.n.n.t.t.t.t.t.t.t.t.t.t.t.t.c c c c c c c c ",
"n.n.n.n.n.n.n.n.n.n.n.n.v.p.n.n.W / I I I I I I I I I I H H J L t.t.[ t.t.t.t.t.c c c c c c c c ",
"n.n.n.n.n.n.n.n.n.n.n.n.b.n.p.{ 8 z 0 0 0 0 0 0 0 0 0 0 0 0 z 8 ! [ t.t.t.t.t.t.c c c c c c c c ",
"n.n.n.n.n.n.n.n.n.n.n.p.n.n.H d q.m.j.j.j.j.j.j.j.j.j.j.j.j.m.q.p F t.t.[ t.t.t.c c c c c c c c ",
"n.n.n.n.n.n.n.n.n.n.n.p.u.' h 7.l.c.x.x.x.x.x.x.x.x.x.x.x.x.c.l.7.f Y ~ [ t.t.t.c c c c c c c c ",
"n.n.n.n.n.n.n.n.n.p.n.n.) ; q.z.g.3.f.f.f.f.f.f.f.f.f.f.f.f.3.g.z.q.- P t.t.[ t.c c c c c c c c ",
"n.n.n.n.n.n.n.n.n.p.n.n.W 8 e.z.h.,.i u R i i i i i i R u i ,.h.z.e.8 P t.t.[ t.c c c c c c c c ",
"n.n.n.n.n.n.n.n.n.p.n.n._ : >.f.0.X.- - > , , , , , , > - - X.0.f.>.: U t.t.[ t.c c c c c c c c ",
"n.n.n.n.n.n.n.n.n.p.n.n.) ; 4.0.i - , w t e e e e e e t w , - i 0.4.; P t.t.[ t.c c c c c c c c ",
"n.n.n.n.n.n.n.n.n.p.n.n.) ; 5.9.7 % 5 w t l l l l l l t w 5 % 7 9.5.; P t.t.[ t.c c c c c c c c ",
"n.n.n.n.n.n.n.n.n.p.n.n.) ; 6.0.y - 4 ; 5 t j t t j t 5 ; 4 - y 0.6.; P t.t.[ t.c c c c c c c c ",
"n.n.n.n.n.n.n.n.n.p.n.n.( 9 r.d.7 % 4 , , 5 5 5 5 5 5 , , 4 % 7 d.r.9 P t.t.[ t.c c c c c c c c ",
"n.n.n.n.n.n.n.n.n.v.n.v.] 3 :.<.o.7 4 4 4 , , , , , , 4 4 4 7 o.<.:.3 Q t.t.t.t.t.t.t.t.c c c c ",
"n.n.n.n.n.n.n.n.n.n.n.i.n.a.3 x 0.*., ; 4 4 , 4 4 , 4 4 ; , *.0.x 2 t.t.[ t.t.t.t.t.t.t.c c c c ",
"n.n.n.n.n.n.n.n.n.a.n.b.} E r V D #.$ $ * * * * * * * * $ $ #.D V 6 G ` t.t.t.t.t.t.t.t.c c c c ",
"n.n.n.n.n.n.n.n.n.p.n.n._ 9 %.M v @ . O X X X X X X X X O . @ v M %.9 Y t.t.[ t.t.t.t.t.c c c c ",
"n.n.n.n.n.n.n.n.n.p.n.n._ , %.C + X X X X X X X X X X X X X X + C %., Y t.t.[ t.t.t.t.t.c c c c ",
"n.n.n.n.n.n.n.n.n.p.n.n._ : +.b o   X o X X X X X X X X o o   o b +.: Y t.t.[ t.t.t.t.t.c c c c ",
"n.n.n.n.n.n.n.n.n.p.n.n._ : +.b = O X X X X X X X X X X X X O = b +.: Y t.t.[ t.t.t.t.t.c c c c ",
"n.n.n.n.n.n.n.n.n.p.n.n._ : +.b = O X X X X X X X X X X X X O = b +.: Y t.t.[ t.t.t.t.t.c c c c ",
"n.n.n.n.n.n.n.n.n.p.n.n._ : %.b &   X X X X X X X X X X o X   & b %.: Y t.t.[ t.t.t.t.t.c c c c ",
"n.n.n.n.n.n.n.n.n.p.n.n._ : %.b &   X X X X X X X X X X o X   & b %.: Y t.t.[ t.t.t.t.t.c c c c ",
"n.n.n.n.n.n.n.n.n.p.n.n._ , ..m # =     O             O     = # m .., Y t.t.[ t.t.t.t.t.c c c c ",
"n.n.n.n.n.n.n.n.n.p.n.n._ , | M N # = & = = = = = = = = & = # N M | , Y t.t.[ t.t.t.t.t.c c c c ",
"n.n.n.n.n.n.n.n.n.p.n.n._ ; @.S Z B b b b b b b b b b b b b B Z S @.; U t.t.[ t.t.t.t.t.c c c c ",
"n.n.n.n.n.n.n.n.n.p.n.n._ ; >.2.A b n n n n n n n n n n n n b A 2.>.; U t.t.[ t.t.t.t.t.c c c c ",
"n.n.n.n.n.n.n.n.n.p.n.n._ ; <.s.1.T , ; , , , , , , , , ; , T 1.s.<.; P t.t.[ t.t.t.t.t.c c c c ",
"n.n.n.n.n.n.n.n.n.p.n.n._ ; >.h.s.$.q q w w w w w w w w q q $.s.h.>.; P t.t.[ t.t.t.t.t.c c c c ",
"n.n.n.n.n.n.n.n.n.p.n.n._ : >.g.f.,.j j l k k k k k k l j j ,.g.g.>.: U t.t.[ t.t.t.t.t.c c c c ",
"n.n.n.n.n.n.n.n.n.p.n.n._ : >.g.g.=.t t j j j j j j j j t t =.g.g.>.: U t.t.[ t.t.t.t.t.c c c c ",
"n.n.n.n.n.n.n.n.n.p.n.n.( 9 6.k.f.&.q q e e e e e e e e q q &.f.k.6.9 P t.t.[ t.t.t.t.t.c c c c ",
"n.n.n.n.n.n.n.n.n.b.n.a.' < ;.w.g.,. .|  . . . . . . . .|  .,.g.w.;.< Y t.t.t.t.t.t.t.t.c c c c ",
"n.n.n.n.n.n.n.n.t.t.t.[ i.} s -.w.h.3.3.3.3.3.3.3.3.3.3.3.3.h.w.-.1 ^ [ [ t.t.t.t.t.t.t.c c c c ",
"n.n.n.n.n.n.n.n.t.t.t.[ n.n.Y g O.8.4.4.4.4.4.4.4.4.4.4.4.4.8.O.d K t.t.[ t.t.t.t.t.t.t.c c c c ",
"n.n.n.n.n.n.n.n.t.t.t.t.p.v.n.y.< a ; ; ; ; ; ; ; ; ; ; ; ; a < ~ t.[ t.t.t.t.t.t.t.t.t.c c c c ",
"n.n.n.n.n.n.n.n.t.t.t.t.a.p.n.n.' _ ) ) ) ) ) ) ) ) ) ) P P Y Q t.t.t.t.t.t.t.t.t.t.t.t.c c c c ",
"n.n.n.n.n.n.n.n.n.n.n.n.n.n.p.n.n.n.n.n.n.n.n.n.n.n.n.n.n.n.n.n.t.[ t.t.t.t.t.t.c c c c c c c c ",
"n.n.n.n.n.n.n.n.n.n.n.n.n.n.n.n.n.n.n.n.n.n.n.n.n.n.n.n.n.n.n.n.t.t.t.t.t.t.t.t.c c c c c c c c ",
"n.n.n.n.n.n.n.n.n.n.n.n.n.n.n.a.a.p.p.p.p.p.p.p.p.p.p.p.p.p.p.a.t.t.t.t.t.t.t.t.c c c c c c c c ",
"n.n.n.n.n.n.n.n.n.n.n.n.n.n.n.n.n.n.n.n.n.n.n.n.n.n.n.n.n.n.n.n.t.t.t.t.t.t.t.t.c c c c c c c c ",
"n.n.n.n.n.n.n.n.n.n.n.n.n.n.n.n.n.n.n.n.t.t.t.t.n.n.n.n.n.n.n.n.n.n.n.n.t.t.t.t.c c c c c c c c ",
"n.n.n.n.n.n.n.n.n.n.n.n.n.n.n.n.n.n.n.n.t.t.t.t.n.n.n.n.n.n.n.n.n.n.n.n.t.t.t.t.c c c c c c c c ",
"n.n.n.n.n.n.n.n.n.n.n.n.n.n.n.n.n.n.n.n.t.t.t.t.n.n.n.n.n.n.n.n.n.n.n.n.t.t.t.t.c c c c c c c c ",
"n.n.n.n.n.n.n.n.n.n.n.n.n.n.n.n.n.n.n.n.t.t.t.t.n.n.n.n.n.n.n.n.n.n.n.n.t.t.t.t.c c c c c c c c ",
"n.n.n.n.n.n.n.n.n.n.n.n.n.n.n.n.n.n.n.n.n.n.n.n.n.n.n.n.n.n.n.n.n.n.n.n.t.t.t.t.t.t.t.t.c c c c ",
"n.n.n.n.n.n.n.n.n.n.n.n.n.n.n.n.n.n.n.n.n.n.n.n.n.n.n.n.n.n.n.n.n.n.n.n.t.t.t.t.t.t.t.t.c c c c ",
"n.n.n.n.n.n.n.n.n.n.n.n.n.n.n.n.n.n.n.n.n.n.n.n.n.n.n.n.n.n.n.n.n.n.n.n.t.t.t.t.t.t.t.t.c c c c ",
"n.n.n.n.n.n.n.n.n.n.n.n.n.n.n.n.n.n.n.n.n.n.n.n.n.n.n.n.n.n.n.n.n.n.n.n.t.t.t.t.t.t.t.t.c c c c "
};
