/* XPM */
static char *_e097a36a3f8405b98d54f9f9cbfe2a8qRdvgplf8lud8Jcu[] = {
/* columns rows colors chars-per-pixel */
"48 48 135 2 ",
"   c #AA5F3E",
".  c #AD613F",
"X  c #B36C3E",
"o  c #975142",
"O  c #9B5545",
"+  c #915D47",
"@  c #9E5C46",
"#  c #915549",
"$  c #94584A",
"%  c #A25F44",
"&  c #AC5F42",
"*  c #94614C",
"=  c #96754F",
"-  c #98744D",
";  c #9A6650",
":  c #9D6B55",
">  c #967451",
",  c #9B7253",
"<  c #977854",
"1  c #997853",
"2  c #A36142",
"3  c #AE6540",
"4  c #A5604A",
"5  c #AD644D",
"6  c #B46441",
"7  c #B66B42",
"8  c #B46D4D",
"9  c #BC7345",
"0  c #B5724D",
"q  c #B47D4C",
"w  c #B46A51",
"e  c #BD7452",
"r  c #C07743",
"t  c #C37B44",
"y  c #C37F4E",
"u  c #C07953",
"i  c #BC8532",
"p  c #C28C2F",
"a  c #C78E37",
"s  c #CF9A3D",
"d  c #D6A733",
"f  c #D8AD38",
"g  c #A28257",
"h  c #A38758",
"j  c #AB965E",
"k  c #A6A461",
"l  c #AAA563",
"z  c #B1A767",
"x  c #B2BD68",
"c  c #C98445",
"v  c #C68B47",
"b  c #CF8D46",
"n  c #C4804F",
"m  c #D68D4F",
"M  c #D19446",
"N  c #D5954A",
"B  c #D9924F",
"V  c #D99E4A",
"C  c #C28152",
"Z  c #CA8552",
"A  c #CE8C55",
"S  c #D58C52",
"D  c #D08E5C",
"F  c #DA9352",
"G  c #DE9A53",
"H  c #D7955F",
"J  c #DD925A",
"K  c #E29E55",
"L  c #E49D59",
"P  c #D6A242",
"I  c #D8A345",
"U  c #DCA845",
"Y  c #DAA250",
"T  c #E3AD4D",
"R  c #E1B742",
"E  c #E5B846",
"W  c #EABE46",
"Q  c #E6B04F",
"!  c #EDBC4F",
"~  c #E4A755",
"^  c #E6AE51",
"/  c #EAAB56",
"(  c #E5A159",
")  c #EDA95F",
"_  c #EEB653",
"`  c #ECB851",
"'  c #F0B752",
"]  c #F1BA53",
"[  c #DCAB67",
"{  c #DDAD68",
"}  c #DFB068",
"|  c #E8A164",
" . c #F1AB67",
".. c #E3B469",
"X. c #F4B267",
"o. c #F7B56C",
"O. c #FEBD6B",
"+. c #B5C36A",
"@. c #B8C46A",
"#. c #BCCD6E",
"$. c #BFD16F",
"%. c #BFD370",
"&. c #F8D04E",
"*. c #F2C250",
"=. c #FBCC53",
"-. c #FAC65B",
";. c #FDCD5B",
":. c #FFD754",
">. c #FFDB54",
",. c #FFD55B",
"<. c #FFDF5C",
"1. c #FFE65C",
"2. c #FFE95F",
"3. c #FFF15F",
"4. c #C0D26F",
"5. c #C0D470",
"6. c #F1C865",
"7. c #F0C369",
"8. c #FED762",
"9. c #FBD16F",
"0. c #FFC373",
"q. c #FFDE73",
"w. c #FFE462",
"e. c #FFEA64",
"r. c #FFE16E",
"t. c #FFF461",
"y. c #FFF46D",
"u. c #FFED73",
"i. c #FFED77",
"p. c #FFEE7A",
"a. c #FFF17A",
"s. c #FFF77B",
"d. c #FFF97B",
"f. c #FFF97E",
"g. c #FFF983",
/* pixels */
"5.5.5.5.5.5.5.5.5.5.5.5.5.5.5.5.5.5.5.5.5.5.5.5.5.5.5.5.5.5.5.5.5.5.5.5.5.5.5.5.5.5.5.5.5.5.5.5.",
"5.5.5.5.5.5.5.5.5.5.5.5.5.5.5.5.5.5.5.5.5.5.5.5.5.5.5.5.5.5.5.5.5.5.5.5.5.5.5.5.5.5.5.5.5.5.5.5.",
"5.5.5.5.5.5.5.5.5.5.5.5.5.5.5.5.5.5.5.5.5.5.5.5.5.5.5.5.5.5.5.5.5.5.5.5.5.5.5.5.5.5.5.5.5.5.5.5.",
"5.5.5.5.5.5.5.5.5.5.5.5.5.5.5.5.5.5.5.5.5.5.5.5.5.5.5.5.5.5.5.5.5.5.5.5.5.5.5.5.5.5.5.5.5.5.5.5.",
"5.5.5.5.5.5.5.5.5.5.5.5.5.5.5.5.5.5.5.5.5.5.5.5.5.5.5.5.5.5.5.5.5.5.5.5.5.5.5.5.5.5.5.5.5.5.5.5.",
"5.5.5.5.5.5.5.5.5.5.5.5.5.5.5.5.5.5.5.5.5.5.5.5.5.5.5.5.5.5.5.5.5.5.5.5.5.5.5.5.5.5.5.5.5.5.5.5.",
"5.5.5.5.5.5.5.5.5.5.5.5.5.5.5.5.5.5.5.5.5.5.5.5.5.5.5.5.5.5.5.5.5.5.5.5.5.5.5.5.5.5.5.5.5.5.5.5.",
"5.5.5.5.5.5.5.5.5.5.5.5.5.5.5.5.5.5.5.5.5.5.5.5.5.5.5.5.5.5.5.5.5.5.5.5.5.5.5.5.5.5.5.5.5.5.5.5.",
"5.5.5.5.5.5.5.5.5.5.5.5.5.5.5.5.5.5.5.5.5.5.5.5.5.5.5.5.5.5.5.5.5.5.5.5.5.5.5.5.5.5.5.5.5.5.5.5.",
"5.5.5.5.5.5.5.5.5.5.5.5.5.5.4.$.$.4.5.5.5.5.5.5.5.5.5.5.5.5.4.$.$.4.5.5.5.5.5.5.5.5.5.5.5.5.5.5.",
"5.5.5.5.5.5.5.5.5.5.5.5.5.5.5.5.5.5.5.5.5.5.5.5.5.5.5.5.5.5.5.5.5.5.5.5.5.5.5.5.5.5.5.5.5.5.5.5.",
"5.5.5.5.5.5.5.5.5.5.5.5.%.#.5.5.5.5.#.#.$.#.#.#.#.#.#.$.#.#.5.5.5.5.#.%.5.5.5.5.5.5.5.5.5.5.5.5.",
"5.5.5.5.5.5.5.5.5.5.5.$.5.5.@.z z @.5.5.5.5.5.5.5.5.5.5.5.5.@.z z @.5.5.$.5.5.5.5.5.5.5.5.5.5.5.",
"5.5.5.5.5.5.5.5.5.5.5.#.5.5.h w w h 5.5.5.5.5.5.5.5.5.5.5.5.h w w h 5.5.#.5.5.5.5.5.5.5.5.5.5.5.",
"5.5.5.5.5.5.5.5.5.4.5.5.+.> C / / q 1 = - = > = = > = - = 1 q / / C > +.5.5.4.5.5.5.5.5.5.5.5.5.",
"5.5.5.5.5.5.5.5.5.$.%.@.j 0 / >.>.Y 8 w u e e e e e e u w 8 Y >.>./ 0 j @.%.$.5.5.5.5.5.5.5.5.5.",
"5.5.5.5.5.5.5.5.$.5.#.> A -.<.<.1.] F | o. . . . . . .o.| F ] 1.<.<.-.A > #.5.$.5.5.5.5.5.5.5.5.",
"5.5.5.5.5.5.5.5.#.5.#.# L 2.t.,.-./ K ) O.0.0.0.0.0.0.O.) K / -.,.t.2.L # #.5.#.5.5.5.5.5.5.5.5.",
"5.5.5.5.5.5.5.5.$.5.#.* A ,.3.;.G S F B K X.o.X.X.o.X.K B F S G ;.3.,.A * #.5.$.5.5.5.5.5.5.5.5.",
"5.5.5.5.5.5.5.5.$.5.#.* A ,.t.;.G S G F G L ( L L ( L G F G S G ;.t.,.A * #.5.$.5.5.5.5.5.5.5.5.",
"5.5.5.5.5.5.5.5.$.5.#.* A ,.3.;.K S F F F m m m m m m F F F S K ;.3.,.A * #.5.$.5.5.5.5.5.5.5.5.",
"5.5.5.5.5.5.5.5.$.5.#.* S ,.3.;.K S F F F F F F F F F F F F S K ;.3.,.S * #.5.$.5.5.5.5.5.5.5.5.",
"5.5.5.5.5.5.5.5.$.5.#.+ H i.y.=.] _ ] ] ' ] ] ] ] ] ] ] ] ] _ ] =.y.i.H + #.5.$.5.5.5.5.5.5.5.5.",
"5.5.5.5.5.5.5.5.$.5.#.* D q.y.w.e.e.e.e.e.e.w.w.w.e.e.e.e.e.e.e.w.y.q.D * #.5.$.5.5.5.5.5.5.5.5.",
"5.5.5.5.5.5.5.5.$.5.#.: 9 s 8.g.f.d.d.d.f.d.s.p.a.s.d.d.d.d.d.f.g.8.s 9 : #.5.$.5.5.5.5.5.5.5.5.",
"5.5.5.5.5.5.5.5.$.5.#.: 9 p E 6...[ } ..[ { 9.u.r.7.{ { ..} [ ..6.E p 9 : #.5.$.5.5.5.5.5.5.5.5.",
"5.5.5.5.5.5.5.5.$.5.#.; n I d i 2 O @ 2 o O Y 1.=.v O O % @ O 2 i d I n ; #.5.$.5.5.5.5.5.5.5.5.",
"5.5.5.5.5.5.5.5.$.5.#.; y P f a X & 3 6   . V :.=.M .   6 3 & X a f P y ; #.5.$.5.5.5.5.5.5.5.5.",
"5.5.5.5.5.5.5.5.$.5.#.; y U R P c t t c t t N T Q N t t c t t c P R U y ; #.5.$.5.5.5.5.5.5.5.5.",
"5.5.5.5.5.5.5.5.$.5.#.* Z ` W s t 9 r r r r r t t t r r r r 9 t s W ` Z * #.5.$.5.5.5.5.5.5.5.5.",
"5.5.5.5.5.5.5.5.#.5.#.$ J =.&.I 9 6 7 7 7 7 6 6 6 6 7 7 7 7 6 9 I &.=.J $ #.5.#.5.5.5.5.5.5.5.5.",
"5.5.5.5.5.5.5.5.$.5.#., C ^ =.! b t c c c c c c c c c c c c t b ! =.^ C , #.5.$.5.5.5.5.5.5.5.5.",
"5.5.5.5.5.5.5.5.5.$.%.@.j 8 / =.*.! ! ! ! ! ! ! ! ! ! ! ! ! ! *.=./ 8 j @.%.$.5.5.5.5.5.5.5.5.5.",
"5.5.5.5.5.5.5.5.5.4.5.5.+.< C / / ~ ~ ~ ~ ~ ~ ~ ~ ~ ~ ~ ~ ~ ~ / / C < +.5.5.4.5.5.5.5.5.5.5.5.5.",
"5.5.5.5.5.5.5.5.5.5.5.#.5.5.g 5 4 @ @ @ @ @ @ @ @ @ @ @ @ @ @ 4 5 g 5.5.#.5.5.5.5.5.5.5.5.5.5.5.",
"5.5.5.5.5.5.5.5.5.5.5.$.5.5.x l l l k k k k k k k k k k k k l l l x 5.5.$.5.5.5.5.5.5.5.5.5.5.5.",
"5.5.5.5.5.5.5.5.5.5.5.5.%.#.5.5.5.5.5.5.5.5.5.5.5.5.5.5.5.5.5.5.5.5.#.%.5.5.5.5.5.5.5.5.5.5.5.5.",
"5.5.5.5.5.5.5.5.5.5.5.5.5.5.5.5.5.5.5.5.5.5.5.5.5.5.5.5.5.5.5.5.5.5.5.5.5.5.5.5.5.5.5.5.5.5.5.5.",
"5.5.5.5.5.5.5.5.5.5.5.5.5.5.4.$.$.$.$.$.$.$.$.$.$.$.$.$.$.$.$.$.$.4.5.5.5.5.5.5.5.5.5.5.5.5.5.5.",
"5.5.5.5.5.5.5.5.5.5.5.5.5.5.5.5.5.5.5.5.5.5.5.5.5.5.5.5.5.5.5.5.5.5.5.5.5.5.5.5.5.5.5.5.5.5.5.5.",
"5.5.5.5.5.5.5.5.5.5.5.5.5.5.5.5.5.5.5.5.5.5.5.5.5.5.5.5.5.5.5.5.5.5.5.5.5.5.5.5.5.5.5.5.5.5.5.5.",
"5.5.5.5.5.5.5.5.5.5.5.5.5.5.5.5.5.5.5.5.5.5.5.5.5.5.5.5.5.5.5.5.5.5.5.5.5.5.5.5.5.5.5.5.5.5.5.5.",
"5.5.5.5.5.5.5.5.5.5.5.5.5.5.5.5.5.5.5.5.5.5.5.5.5.5.5.5.5.5.5.5.5.5.5.5.5.5.5.5.5.5.5.5.5.5.5.5.",
"5.5.5.5.5.5.5.5.5.5.5.5.5.5.5.5.5.5.5.5.5.5.5.5.5.5.5.5.5.5.5.5.5.5.5.5.5.5.5.5.5.5.5.5.5.5.5.5.",
"5.5.5.5.5.5.5.5.5.5.5.5.5.5.5.5.5.5.5.5.5.5.5.5.5.5.5.5.5.5.5.5.5.5.5.5.5.5.5.5.5.5.5.5.5.5.5.5.",
"5.5.5.5.5.5.5.5.5.5.5.5.5.5.5.5.5.5.5.5.5.5.5.5.5.5.5.5.5.5.5.5.5.5.5.5.5.5.5.5.5.5.5.5.5.5.5.5.",
"5.5.5.5.5.5.5.5.5.5.5.5.5.5.5.5.5.5.5.5.5.5.5.5.5.5.5.5.5.5.5.5.5.5.5.5.5.5.5.5.5.5.5.5.5.5.5.5.",
"5.5.5.5.5.5.5.5.5.5.5.5.5.5.5.5.5.5.5.5.5.5.5.5.5.5.5.5.5.5.5.5.5.5.5.5.5.5.5.5.5.5.5.5.5.5.5.5."
};
