/* XPM */
static char *_37a3807b1464294dd489d2d745737c4NjVgc96ptkExwbok[] = {
/* columns rows colors chars-per-pixel */
"48 48 155 2 ",
"   c #AA5F3E",
".  c #AD613F",
"X  c #B36C3E",
"o  c #8B5545",
"O  c #8D5549",
"+  c #975142",
"@  c #9B5545",
"#  c #915D47",
"$  c #9E5C46",
"%  c #925549",
"&  c #925B4B",
"*  c #A25F44",
"=  c #AC5F42",
"-  c #8B604B",
";  c #8C6D4B",
":  c #95614D",
">  c #98634F",
",  c #916E4B",
"<  c #91704D",
"1  c #8B6E50",
"2  c #9A6651",
"3  c #966C50",
"4  c #9D6B55",
"5  c #8F7051",
"6  c #927150",
"7  c #9B7753",
"8  c #977854",
"9  c #A36142",
"0  c #AE6540",
"q  c #A5604A",
"w  c #AD644D",
"e  c #B46441",
"r  c #B66B42",
"t  c #B46D4D",
"y  c #BC7345",
"u  c #B5724D",
"i  c #B47C4C",
"p  c #B46A51",
"a  c #BD7452",
"s  c #C07743",
"d  c #C37B44",
"f  c #C37F4E",
"g  c #C07953",
"h  c #7B9556",
"j  c #799D57",
"k  c #7A9E58",
"l  c #79A057",
"z  c #78A158",
"x  c #BC8532",
"c  c #C28C2F",
"v  c #C78E37",
"b  c #CF9A3D",
"n  c #D6A733",
"m  c #D8AD38",
"M  c #9C8054",
"N  c #9F8B58",
"B  c #9E995D",
"V  c #A28257",
"C  c #A18D5A",
"Z  c #AA955D",
"A  c #A19A5F",
"S  c #9BAD5E",
"D  c #9CB35E",
"F  c #A1B45F",
"G  c #9EB060",
"H  c #A6A461",
"J  c #AAA563",
"K  c #A3BE62",
"L  c #B2BD68",
"P  c #C98445",
"I  c #C68B47",
"U  c #CF8D46",
"Y  c #C4804F",
"T  c #D68D4F",
"R  c #D19446",
"E  c #D5954A",
"W  c #D9924F",
"Q  c #D99E4A",
"!  c #C28151",
"~  c #CA8552",
"^  c #CE8C55",
"/  c #D58C52",
"(  c #D08E5C",
")  c #DA9352",
"_  c #DE9A53",
"`  c #D7955F",
"'  c #DD925A",
"]  c #E29E55",
"[  c #E49D59",
"{  c #D6A242",
"}  c #D8A345",
"|  c #DCA845",
" . c #DAA250",
".. c #E3AD4D",
"X. c #E1B742",
"o. c #E5B846",
"O. c #EABE46",
"+. c #E6B04F",
"@. c #EDBC4F",
"#. c #E4A755",
"$. c #E6AE51",
"%. c #EAAB56",
"&. c #E5A159",
"*. c #EDA95F",
"=. c #EEB653",
"-. c #ECB851",
";. c #F0B752",
":. c #F1BA53",
">. c #DCAB67",
",. c #DDAD68",
"<. c #DFB068",
"1. c #E8A164",
"2. c #F1AB67",
"3. c #E3B469",
"4. c #F4B267",
"5. c #F7B56C",
"6. c #FEBD6B",
"7. c #A4C263",
"8. c #B4C66A",
"9. c #B8C46A",
"0. c #BCCD6E",
"q. c #BFD16F",
"w. c #BFD370",
"e. c #F8D04E",
"r. c #F2C250",
"t. c #FBCC53",
"y. c #FAC65B",
"u. c #FDCD5B",
"i. c #FFD754",
"p. c #FFDB54",
"a. c #FFD55B",
"s. c #FFDF5C",
"d. c #FFE65C",
"f. c #FFE95F",
"g. c #FFF15F",
"h. c #C0D26F",
"j. c #C0D470",
"k. c #F1C865",
"l. c #F0C369",
"z. c #FED762",
"x. c #FBD16F",
"c. c #FFC373",
"v. c #FFDE73",
"b. c #FFE462",
"n. c #FFEA64",
"m. c #FFE16E",
"M. c #FFF461",
"N. c #FFF46D",
"B. c #FFED76",
"V. c #FFEE7A",
"C. c #FFF47A",
"Z. c #FFF97B",
"A. c #B1E0BE",
"S. c #FFF983",
"D. c #9BD4C3",
/* pixels */
"z z z z z z z z z z z z z z z z z z z z z z z z A.A.A.A.A.A.A.A.D.D.D.D.D.D.D.D.D.D.D.D.D.D.D.D.",
"z z z z z z z z z z z z z z z z z z z z z z z z A.A.A.A.A.A.A.A.D.D.D.D.D.D.D.D.D.D.D.D.D.D.D.D.",
"z z z z z z z z z z z z z z z z z z z z z z z z A.A.A.A.A.A.A.A.D.D.D.D.D.D.D.D.D.D.D.D.D.D.D.D.",
"z z z z z z z z z z z z z z z z z z z z z z z z A.A.A.A.A.A.A.A.D.D.D.D.D.D.D.D.D.D.D.D.D.D.D.D.",
"7.7.7.7.7.7.7.7.7.7.7.7.z z z z z z z z z z z z z z z z z z z z z z z z D.D.D.D.D.D.D.D.D.D.D.D.",
"7.7.7.7.7.7.7.7.7.7.7.7.z z z z z z z z z z z z z z z z z z z z z z z z D.D.D.D.D.D.D.D.D.D.D.D.",
"7.7.7.7.7.7.7.7.7.7.7.7.z z z z z z z z z z z z z z z z z z z z z z z z D.D.D.D.D.D.D.D.D.D.D.D.",
"7.7.7.7.7.7.7.7.7.7.7.7.z z z z z z z z z z z z z z z z z z z z z z z z D.D.D.D.D.D.D.D.D.D.D.D.",
"7.7.7.7.7.7.7.7.7.7.7.7.7.7.7.7.7.7.7.7.7.7.7.7.7.7.7.7.z z z z z z z z z z z z D.D.D.D.D.D.D.D.",
"7.7.7.7.7.7.7.7.7.7.7.7.7.7.7.K K 7.7.7.7.7.7.7.7.7.7.7.z z z k k z z z z z z z D.D.D.D.D.D.D.D.",
"7.7.7.7.7.7.7.7.7.7.7.7.7.7.7.7.7.7.7.7.7.7.7.7.7.7.7.7.z z z z z z z z z z z z D.D.D.D.D.D.D.D.",
"7.7.7.7.7.7.7.7.7.7.7.7.7.K 7.7.7.7.K K K K K K K K K K k k z z z z k z z z z z D.D.D.D.D.D.D.D.",
"7.7.7.7.7.7.7.7.7.7.7.K 7.7.D A A G 7.7.7.7.7.7.7.7.7.7.7.7.G A A D 7.7.k z z z z z z z D.D.D.D.",
"7.7.7.7.7.7.7.7.7.7.7.K 7.7.M p p M 7.7.7.7.7.7.7.7.7.7.7.7.M p p M 7.7.k z z z z z z z D.D.D.D.",
"7.7.7.7.7.7.7.7.7.7.7.7.D 1 ! %.%.i 6 ; , , < , , < , , ; 6 i %.%.! 1 D z z z z z z z z D.D.D.D.",
"7.7.7.7.7.7.7.7.7.K 7.D C u %.p.p. .t p g a a a a a a g p t  .p.p.%.u C h z k z z z z z D.D.D.D.",
"7.7.7.7.j.j.j.j.K 7.K , ^ y.s.s.d.:.) 1.5.2.2.2.2.2.2.5.1.) :.d.s.s.y.^ - k k l z z z z D.D.D.D.",
"7.7.7.7.j.j.j.j.K 7.K % [ f.M.a.y.%.] *.6.c.c.c.c.c.c.6.*.] %.y.a.M.f.[ O j z k z z z z D.D.D.D.",
"7.7.7.7.j.j.j.j.K 7.K & ^ a.g.u._ / ) W ] 4.5.4.4.5.4.] W ) / _ u.g.a.^ O j z k z z z z D.D.D.D.",
"7.7.7.7.j.j.j.j.K 7.K & ^ a.M.u._ / _ ) _ [ &.[ [ &.[ _ ) _ / _ u.M.a.^ O j z k z z z z D.D.D.D.",
"j.j.j.j.j.j.j.j.q.j.0.: ^ a.g.u.] / ) ) ) T T T T T T ) ) ) / ] u.g.a.^ O j z k z z z z D.D.D.D.",
"j.j.j.j.j.j.j.j.0.j.0.: / a.g.u.] / ) ) ) ) ) ) ) ) ) ) ) ) / ] u.g.a./ O j z k z z z z D.D.D.D.",
"j.j.j.j.j.j.j.j.q.j.0.# ` B.N.t.:.=.:.:.;.:.:.:.:.:.:.:.:.:.=.:.t.N.B.` o j z k z z z z D.D.D.D.",
"j.j.j.j.j.j.j.j.q.j.0.: ( v.N.b.n.n.n.n.n.n.b.b.b.n.n.n.n.n.n.n.b.N.v.( o j z k z z z z D.D.D.D.",
"j.j.j.j.j.j.j.j.q.j.0.4 y b z.S.Z.Z.Z.Z.Z.Z.Z.V.C.Z.Z.Z.Z.Z.Z.Z.S.z.b y 2 K 7.K z z z z z z z z ",
"j.j.j.j.j.j.j.j.q.j.0.4 y c o.k.3.>.<.3.>.,.x.B.m.l.,.,.3.<.>.3.k.o.c y 2 K 7.K z z z z z z z z ",
"j.j.j.j.j.j.j.j.q.j.0.2 Y } n x 9 @ $ 9 + @  .d.t.I @ @ * $ @ 9 x n } Y : K 7.K z z z z z z z z ",
"j.j.j.j.j.j.j.j.q.j.0.2 f { m v X = 0 e   . Q i.t.R .   e 0 = X v m { f > K 7.K z z z z z z z z ",
"j.j.j.j.j.j.j.j.q.j.0.2 f | X.{ P d d P d d E ..+.E d d P d d P { X.| f : K 7.K z z z z z z z z ",
"j.j.j.j.j.j.j.j.q.j.0.: ~ -.O.b d y s s s s s d d d s s s s y d b O.-.~ : K 7.K z z z z z z z z ",
"j.j.j.j.j.j.j.j.0.j.0.% ' t.e.} y e r r r r e e e e r r r r e y } e.t.' % K 7.K z z z z z z z z ",
"j.j.j.j.j.j.j.j.q.j.0.7 ! $.t.@.U d P P P P P P P P P P P P d U @.t.$.! 3 K 7.K z z z z z z z z ",
"7.7.7.7.j.j.j.j.j.q.w.9.Z t %.t.r.@.@.@.@.@.@.@.@.@.@.@.@.@.@.r.t.%.t N F 7.K 7.7.7.7.7.z z z z ",
"7.7.7.7.j.j.j.j.j.h.j.j.8.8 ! %.%.#.#.#.#.#.#.#.#.#.#.#.#.#.#.%.%.! 5 D 7.7.7.7.7.7.7.7.z z z z ",
"7.7.7.7.j.j.j.j.j.j.j.0.j.j.V w q $ $ $ $ $ $ $ $ $ $ $ $ $ $ q w 7 7.7.K 7.7.7.7.7.7.7.z z z z ",
"7.7.7.7.j.j.j.j.j.j.j.q.j.j.L J J J H H H H H H H H H H H H J J B S 7.7.K 7.7.7.7.7.7.7.z z z z ",
"j.j.j.j.j.j.j.j.j.j.j.j.w.0.j.j.j.j.j.j.7.7.7.7.j.j.j.j.j.j.j.j.7.7.K 7.7.7.7.7.7.7.7.7.z z z z ",
"j.j.j.j.j.j.j.j.j.j.j.j.j.j.j.j.j.j.j.j.7.7.7.7.j.j.j.j.j.j.j.j.7.7.7.7.7.7.7.7.7.7.7.7.z z z z ",
"j.j.j.j.j.j.j.j.j.j.j.j.j.j.h.q.q.q.q.q.K K K K q.q.q.q.q.q.q.q.K 7.7.7.7.7.7.7.7.7.7.7.z z z z ",
"j.j.j.j.j.j.j.j.j.j.j.j.j.j.j.j.j.j.j.j.7.7.7.7.j.j.j.j.j.j.j.j.7.7.7.7.7.7.7.7.7.7.7.7.z z z z ",
"j.j.j.j.j.j.j.j.j.j.j.j.j.j.j.j.j.j.j.j.j.j.j.j.j.j.j.j.j.j.j.j.j.j.j.j.7.7.7.7.z z z z z z z z ",
"j.j.j.j.j.j.j.j.j.j.j.j.j.j.j.j.j.j.j.j.j.j.j.j.j.j.j.j.j.j.j.j.j.j.j.j.7.7.7.7.z z z z z z z z ",
"j.j.j.j.j.j.j.j.j.j.j.j.j.j.j.j.j.j.j.j.j.j.j.j.j.j.j.j.j.j.j.j.j.j.j.j.7.7.7.7.z z z z z z z z ",
"j.j.j.j.j.j.j.j.j.j.j.j.j.j.j.j.j.j.j.j.j.j.j.j.j.j.j.j.j.j.j.j.j.j.j.j.7.7.7.7.z z z z z z z z ",
"j.j.j.j.j.j.j.j.j.j.j.j.j.j.j.j.j.j.j.j.j.j.j.j.j.j.j.j.j.j.j.j.7.7.7.7.7.7.7.7.z z z z z z z z ",
"j.j.j.j.j.j.j.j.j.j.j.j.j.j.j.j.j.j.j.j.j.j.j.j.j.j.j.j.j.j.j.j.7.7.7.7.7.7.7.7.z z z z z z z z ",
"j.j.j.j.j.j.j.j.j.j.j.j.j.j.j.j.j.j.j.j.j.j.j.j.j.j.j.j.j.j.j.j.7.7.7.7.7.7.7.7.z z z z z z z z ",
"j.j.j.j.j.j.j.j.j.j.j.j.j.j.j.j.j.j.j.j.j.j.j.j.j.j.j.j.j.j.j.j.7.7.7.7.7.7.7.7.z z z z z z z z "
};
