/* XPM */
static char *b187008430a84377cf80f33f6f4ef5da9JiqXmCAk7j6r4Gd[] = {
/* columns rows colors chars-per-pixel */
"48 48 145 2 ",
"   c #673644",
".  c #6B3B43",
"X  c #6E3E48",
"o  c #703F43",
"O  c #6F4044",
"+  c #744444",
"@  c #7B4B45",
"#  c #704048",
"$  c #90603E",
"%  c #9A6A3B",
"&  c #855542",
"*  c #975345",
"=  c #9A5746",
"-  c #935845",
";  c #9E5C46",
":  c #91554A",
">  c #9B5649",
",  c #925B4B",
"<  c #A15E47",
"1  c #8F624E",
"2  c #96644E",
"3  c #98644E",
"4  c #9F6E49",
"5  c #966352",
"6  c #9A6652",
"7  c #9D6A54",
"8  c #8F7051",
"9  c #9B7253",
"0  c #9B7B53",
"q  c #AB6546",
"w  c #A5604A",
"e  c #AD644D",
"r  c #B16240",
"t  c #B66B44",
"y  c #BB6F42",
"u  c #B26D4B",
"i  c #A8774F",
"p  c #BC7443",
"a  c #BE7949",
"s  c #AA6B57",
"d  c #AC6E58",
"f  c #AD7751",
"g  c #AE7950",
"h  c #C07743",
"j  c #C37C44",
"k  c #C47D4A",
"l  c #7E9656",
"z  c #799D57",
"x  c #7A9E58",
"c  c #79A057",
"v  c #78A158",
"b  c #BB842B",
"n  c #BD8537",
"m  c #BE8C33",
"M  c #BD8339",
"N  c #C28E34",
"B  c #C69133",
"V  c #CA9534",
"C  c #CB973F",
"Z  c #C7983F",
"A  c #D39F3C",
"S  c #D5A42D",
"D  c #D2A233",
"F  c #D3A23E",
"G  c #DBAD3D",
"H  c #928354",
"J  c #9D8D54",
"K  c #9F8B58",
"L  c #979057",
"P  c #959759",
"I  c #9A955A",
"U  c #96995A",
"Y  c #9E995D",
"T  c #B5844A",
"R  c #A59E5E",
"E  c #A89D5F",
"W  c #9BAD5E",
"Q  c #9AB55E",
"!  c #A3A35E",
"~  c #A5A360",
"^  c #A8A962",
"/  c #A4BE62",
"(  c #C78145",
")  c #C98446",
"_  c #CF8D46",
"`  c #C88D4B",
"'  c #CA9E48",
"]  c #C38252",
"[  c #C98452",
"{  c #C0895A",
"}  c #C49651",
"|  c #C69952",
" . c #C99B52",
".. c #D79652",
"X. c #DB9058",
"o. c #DEAA4C",
"O. c #CDA25C",
"+. c #E2AB4D",
"@. c #E4B14C",
"#. c #E9B54F",
"$. c #EEBC4F",
"%. c #E4A755",
"&. c #E7AE51",
"*. c #E9AB56",
"=. c #E7AB59",
"-. c #E8AD59",
";. c #ECB751",
":. c #EDBB53",
">. c #EEB35C",
",. c #C69266",
"<. c #DD9861",
"1. c #D3AD6E",
"2. c #A4C263",
"3. c #B8C46A",
"4. c #BCCC6E",
"5. c #BED16F",
"6. c #BFD370",
"7. c #F0C347",
"8. c #FFD54E",
"9. c #F4C452",
"0. c #F9C751",
"q. c #FBCD52",
"w. c #F4C158",
"e. c #FED253",
"r. c #FFDA56",
"t. c #FFD35F",
"y. c #FFDA5A",
"u. c #FFE45E",
"i. c #FFEC5E",
"p. c #FFF15F",
"a. c #C0D26F",
"s. c #C0D470",
"d. c #FFD867",
"f. c #F6C073",
"g. c #FFE262",
"h. c #FFE564",
"j. c #FFEA62",
"k. c #FFED60",
"l. c #FFF160",
"z. c #FFF36D",
"x. c #FFEB77",
"c. c #FFF971",
"v. c #B1E0BE",
"b. c #FFF982",
"n. c #9BD4C3",
/* pixels */
"s.s.s.s.s.s.s.s.s.s.s.s.2.2.2.2.s.s.s.s.s.s.s.s.s.s.s.s.2.2.2.2.2.2.2.2.2.2.2.2.2.2.2.2.v v v v ",
"s.s.s.s.s.s.s.s.s.s.s.s.2.2.2.2.s.s.s.s.s.s.s.s.s.s.s.s.2.2.2.2.2.2.2.2.2.2.2.2.2.2.2.2.v v v v ",
"s.s.s.s.s.s.s.s.s.s.s.s.2.2.2.2.s.s.s.s.s.s.s.s.s.s.s.s.2.2.2.2.2.2.2.2.2.2.2.2.2.2.2.2.v v v v ",
"s.s.s.s.s.s.s.s.s.s.s.s.2.2.2.2.s.s.s.s.s.s.s.s.s.s.s.s.2.2.2.2.2.2.2.2.2.2.2.2.2.2.2.2.v v v v ",
"s.s.s.s.s.s.s.s.s.s.s.s.s.s.s.s.s.s.s.s.s.s.s.s.s.s.s.s.s.s.s.s.2.2.2.2.2.2.2.2.2.2.2.2.v v v v ",
"s.s.s.s.s.s.s.s.s.s.s.s.s.s.s.s.s.s.s.s.s.s.s.s.s.s.s.s.s.s.s.s.2.2.2.2.2.2.2.2.2.2.2.2.v v v v ",
"s.s.s.s.s.s.s.s.s.s.s.s.s.s.s.s.s.s.s.s.s.s.s.s.s.s.s.s.s.s.s.s.2.2.2.2.2.2.2.2.2.2.2.2.v v v v ",
"s.s.s.s.s.s.s.s.s.s.s.s.s.s.6.s.s.6.s.s.s.s.s.s.s.s.s.s.s.s.6.s.2.2.2.2.2.2.2.2.2.2.2.2.v v v v ",
"s.s.s.s.s.s.s.s.s.s.s.s.s.s.5.5.5.5.s.s.s.s.s.s.s.s.s.s.2.2.2./ / 2.2.2.2.2.2.2.2.2.2.2.v v v v ",
"s.s.s.s.s.s.s.s.s.s.s.s.s.5.s.s.s.s.5.5.6.5.5.5.5.5.5.6./ / 2.2.2.2./ 2.2.2.2.2.2.2.2.2.v v v v ",
"s.s.s.s.s.s.s.s.s.s.s.6.s.s.5.4.4.5.s.s.s.s.s.s.s.s.s.s.2.2.2./ / 2.2.2.2.2.2.2.2.2.2.2.v v v v ",
"s.s.s.s.s.s.s.s.s.s.s.4.s.s.R s d E s.s.s.s.s.s.s.s.s.s.2.2.L s s L 2.2./ 2.2.2.2.2.2.2.v v v v ",
"s.s.s.s.s.s.s.s.s.6.s.s.5.! g X.X.i ~ ! R ~ ~ ~ ~ ~ ~ R ! ~ i X.X.f P / 2.2.2.2.v v v v v v v v ",
"s.s.s.s.s.s.s.s.s.5.s.s.^ = ..9.9.` = * ; ; ; ; ; ; ; ; * = ` 9.9...= U 2.2./ 2.v v v v v v v v ",
"s.s.s.s.s.s.s.s.5.a.5.J ,.f.d.8.e.w.=.=.-.-.-.>.>.>.-.-.=.=.w.r.r.t.>.{ H / 2.2.v v v v v v v v ",
"s.s.s.s.s.s.s.s.4.s.4.- <.x.c.g.h.j.l.l.l.l.k.i.u.i.l.l.l.l.u.u.u.i.y.X., / 2./ v v v v v v v v ",
"s.s.s.s.s.s.s.s.5.s.4.6 k F g.b.b.z.i.i.i.i.i.y.9.e.p.p.i.i.i.k.k.8.A k 6 / 2./ x v v v v v v v ",
"s.s.s.s.s.s.s.s.5.s.4.7 p b ' 1.1.O. . .} | :.r.q.o.| |  . . . . .Z b p 7 / 2./ v v v v v v v v ",
"s.s.s.s.s.s.s.s.5.s.4.6 k V % . o + + @ . # T 0.0.T O   @ + + # . % V j 5 / 2./ v v v v v v v v ",
"s.s.s.s.s.s.s.s.5.s.4.6 k V %     o . o . . & 4 4 & .   o . + .   % V j 5 / 2./ v v v v v v v v ",
"s.s.s.s.2.2.2.2.5.s.4.6 j V % # @ & @ @ & @ +     + @ & @ @ & @ # % V j 5 / 2./ v v v v v v v v ",
"s.s.s.s.2.2.2.2.5.s.4.6 j V % X + @ @ @ @ @ @ @ @ @ @ @ @ @ @ + X % V j 5 / 2./ v v v v v v v v ",
"s.s.s.s.2.2.2.2.5.s.4.6 a B m % + . # # X X # # # # X X # # . + % m B a 6 / 2./ v v v v v v v v ",
"s.s.s.s.2.2.2.2.5.s.4.7 a B S N $ @ & & & & & & & & & & & & @ $ N S B a 6 / 2./ v v v v v v v v ",
"s.s.s.s.s.s.s.s.5.s.4.6 k A D B m m m m m m m m m m m m m m m m B D A k , z v z v v v v n.n.n.n.",
"s.s.s.s.s.s.s.s.5.s.4.3 [ @.G N n M M M M M M M M M M M M M M n N G @.[ , z v z v v v v n.n.n.n.",
"s.s.s.s.s.s.s.s.5.s.4.2 [ :.7.C q > < < < < < < < < < < < < > q C 7.:.[ , z v z v v v v n.n.n.n.",
"s.s.s.s.s.s.s.s.5.s.4.2 [ :.q.o.p q t t t t t t t t t t t t q p o.q.:.[ , z v z v v v v n.n.n.n.",
"s.s.s.s.s.s.s.s.5.s.4.2 [ ;.e.#.) p j j j j j j j j j j j j p ) #.e.;.[ , z v z v v v v n.n.n.n.",
"s.s.s.s.s.s.s.s.5.s.4.2 [ ;.e.@.( y h h h h h h h h h h h h y ( @.e.;.[ , z v z v v v v n.n.n.n.",
"s.s.s.s.s.s.s.s.4.s.4., X.9.e.+.p r t t t t t t t t t t t t r p +.e.9.X.: z v z v v v v n.n.n.n.",
"s.s.s.s.s.s.s.s.5.s.4.9 ] &.q.#._ j ) ) ) ) ) ) ) ) ) ) ) ) j _ #.q.&.] 1 z v c v v v v n.n.n.n.",
"2.2.2.2.s.s.s.s.s.5.6.3.K u *.q.9.#.$.$.$.$.$.$.$.$.$.$.$.$.#.9.q.*.u K l v x v v v v v n.n.n.n.",
"2.2.2.2.s.s.s.s.s.a.s.s.Q 8 ] *.*.%.%.%.%.%.%.%.%.%.%.%.%.%.%.*.*.] 8 Q v v v v v v v v n.n.n.n.",
"2.2.2.2.s.s.s.s.s.s.s.4.2.2.0 e w ; ; ; ; ; ; ; ; ; ; ; ; ; ; w e 0 2.2.x v v v v v v v n.n.n.n.",
"2.2.2.2.s.s.s.s.s.s.s.5.2.2.W Y I U P P P P P P P P P P P P U I Y W 2.2.x v v v v v v v n.n.n.n.",
"2.2.2.2.2.2.2.2.2.2.2.2.2./ 2.2.2.2.2.2.2.2.2.2.2.2.2.2.2.2.2.2.v v x v v v v v n.n.n.n.n.n.n.n.",
"2.2.2.2.2.2.2.2.2.2.2.2.2.2.2.2.2.2.2.2.2.2.2.2.2.2.2.2.2.2.2.2.v v v v v v v v n.n.n.n.n.n.n.n.",
"2.2.2.2.2.2.2.2.2.2.2.2.2.2.2./ / / / / / / / / / / / / / / / / x v v v v v v v n.n.n.n.n.n.n.n.",
"2.2.2.2.2.2.2.2.2.2.2.2.2.2.2.2.2.2.2.2.2.2.2.2.2.2.2.2.2.2.2.2.v v v v v v v v n.n.n.n.n.n.n.n.",
"v v v v v v v v 2.2.2.2.2.2.2.2.v v v v v v v v v v v v v v v v v v v v n.n.n.n.n.n.n.n.v.v.v.v.",
"v v v v v v v v 2.2.2.2.2.2.2.2.v v v v v v v v v v v v v v v v v v v v n.n.n.n.n.n.n.n.v.v.v.v.",
"v v v v v v v v 2.2.2.2.2.2.2.2.v v v v v v v v v v v v v v v v v v v v n.n.n.n.n.n.n.n.v.v.v.v.",
"v v v v v v v v 2.2.2.2.2.2.2.2.v v v v v v v v v v v v v v v v v v v v n.n.n.n.n.n.n.n.v.v.v.v.",
"v v v v v v v v v v v v v v v v v v v v v v v v v.v.v.v.v.v.v.v.n.n.n.n.n.n.n.n.n.n.n.n.n.n.n.n.",
"v v v v v v v v v v v v v v v v v v v v v v v v v.v.v.v.v.v.v.v.n.n.n.n.n.n.n.n.n.n.n.n.n.n.n.n.",
"v v v v v v v v v v v v v v v v v v v v v v v v v.v.v.v.v.v.v.v.n.n.n.n.n.n.n.n.n.n.n.n.n.n.n.n.",
"v v v v v v v v v v v v v v v v v v v v v v v v v.v.v.v.v.v.v.v.n.n.n.n.n.n.n.n.n.n.n.n.n.n.n.n."
};
