/* XPM */
static char *_cd85cd6931e4a6edd1b51700ef12e143upBhq3dVifbUicJ[] = {
/* columns rows colors chars-per-pixel */
"48 48 128 2 ",
"   c #6E3E48",
".  c #744546",
"X  c #7A4A45",
"o  c #704048",
"O  c #92613C",
"+  c #9A6A3C",
"@  c #804D45",
"#  c #8F4D45",
"$  c #934E46",
"%  c #865741",
"&  c #8D5B43",
"*  c #965145",
"=  c #9A5746",
"-  c #9E5C46",
";  c #9B5649",
":  c #935C4B",
">  c #995E4E",
",  c #A35F46",
"<  c #95634E",
"1  c #99634F",
"2  c #9A6652",
"3  c #9C6953",
"4  c #9B7253",
"5  c #977854",
"6  c #9F7A57",
"7  c #A46146",
"8  c #AA6346",
"9  c #AA6A47",
"0  c #A5604A",
"q  c #AD644D",
"w  c #AE6A48",
"e  c #B16240",
"r  c #B56C44",
"t  c #BB6F42",
"y  c #B26D4B",
"u  c #B77144",
"i  c #BC7343",
"p  c #B5764D",
"a  c #B67849",
"s  c #BE7949",
"d  c #C07743",
"f  c #C37B43",
"g  c #C87D42",
"h  c #C27D4D",
"j  c #B88A2E",
"k  c #BD8537",
"l  c #BE8C33",
"z  c #BD8339",
"x  c #C28E34",
"c  c #C69133",
"v  c #C99433",
"b  c #CC9A35",
"n  c #CB973F",
"m  c #D39F3E",
"M  c #D5A42D",
"N  c #D2A233",
"B  c #DCA833",
"V  c #DBAD3D",
"C  c #BD804E",
"Z  c #A28257",
"A  c #A08E59",
"S  c #B88155",
"D  c #BF8B5B",
"F  c #A1955B",
"G  c #AA955D",
"H  c #A59D5F",
"J  c #B5945E",
"K  c #A6A461",
"L  c #AAA563",
"P  c #A6A962",
"I  c #ACAE63",
"U  c #B2BD68",
"Y  c #C78145",
"T  c #C98446",
"R  c #CF8D46",
"E  c #C2874B",
"W  c #C78D4B",
"Q  c #C98F4B",
"!  c #C9904A",
"~  c #C38353",
"^  c #C98452",
"/  c #CE8B53",
"(  c #D28D55",
")  c #CB9150",
"_  c #D79155",
"`  c #DC9F55",
"'  c #DC9459",
"]  c #DF9A5B",
"[  c #DDA84D",
"{  c #E2AB4D",
"}  c #E8AD4F",
"|  c #E5B24D",
" . c #E9B54F",
".. c #EEBD4F",
"X. c #E4A755",
"o. c #E7AE51",
"O. c #E9AB56",
"+. c #E9AE5A",
"@. c #EBB650",
"#. c #EEBA52",
"$. c #F0BE51",
"%. c #B4C66A",
"&. c #B8C46A",
"*. c #BCCD6E",
"=. c #BED16E",
"-. c #BFD370",
";. c #F0C347",
":. c #F3C253",
">. c #F4C151",
",. c #F7C651",
"<. c #F9CA53",
"1. c #FBCF50",
"2. c #FCD053",
"3. c #FFD552",
"4. c #FCD054",
"5. c #FFDC54",
"6. c #FFD45B",
"7. c #FFD05C",
"8. c #FFDA58",
"9. c #FFD85C",
"0. c #FFDD5D",
"q. c #FFE358",
"w. c #FFE459",
"e. c #FFE25D",
"r. c #FFE45E",
"t. c #C0D26F",
"y. c #C1D370",
"u. c #C0D470",
/* pixels */
"u.u.u.u.u.u.u.u.u.u.u.u.u.u.=.*.*.*.*.*.*.*.*.*.*.*.*.*.*.*.*.*.*.=.u.u.u.u.u.u.u.u.u.u.u.u.u.u.",
"u.u.u.u.u.u.u.u.u.u.u.u.y.-.u.u.u.u.u.u.u.u.u.u.u.u.u.u.u.u.u.u.u.u.-.y.u.u.u.u.u.u.u.u.u.u.u.u.",
"u.u.u.u.u.u.u.u.u.u.u.-.u.u.=.*.*.*.*.*.*.*.*.*.*.*.*.*.*.*.*.*.*.=.u.u.-.u.u.u.u.u.u.u.u.u.u.u.",
"u.u.u.u.u.u.u.u.u.u.u.*.u.u.F 2 1 < : : : : : : : : : : : : < 1 2 F u.u.*.u.u.u.u.u.u.u.u.u.u.u.",
"u.u.u.u.u.u.u.u.u.-.u.u.=.K S ] ' / ( ( ( ( ( ( ( ( ( ( ( ( / ' ] S K =.u.u.-.u.u.u.u.u.u.u.u.u.",
"u.u.u.u.u.u.u.u.u.=.u.u.P = +.r.0.6.9.9.9.9.9.9.9.9.9.9.9.9.6.0.r.+.= P u.u.=.u.u.u.u.u.u.u.u.u.",
"u.u.u.u.u.u.u.y.=.t.=.A D +.7.8.q.q.w.w.w.w.w.w.w.w.w.w.w.w.q.q.8.7.+.D A =.t.=.y.u.u.u.u.u.u.u.",
"u.u.u.u.u.u.u.y.*.u.*.: ' e.5.| [ [ [ [ [ [ [ [ [ [ [ [ [ [ [ [ | 5.e.' : *.u.*.y.u.u.u.u.u.u.u.",
"u.u.u.u.u.u.u.y.=.u.*.< ( :.5.| a 7 w 9 9 9 9 9 9 9 9 9 9 w 7 a | 5.:.( < *.u.=.y.u.u.u.u.u.u.u.",
"u.u.u.u.u.u.u.y.=.u.*.< ^  .@.E , $ = , 8 , , , , , , 8 , = $ , E @. .^ < *.u.=.y.u.u.u.u.u.u.u.",
"u.u.u.u.u.u.u.y.=.u.*.< / $.Q * - 7 7 u f d d d d d d f u 7 7 - * Q $./ < *.u.=.y.u.u.u.u.u.u.u.",
"u.u.u.u.u.u.u.y.=.u.*.< / #.W * - 7 7 8 r f g f f g f r 8 7 7 - * W #./ < *.u.=.y.u.u.u.u.u.u.u.",
"u.u.u.u.u.u.u.y.*.u.*.: ' ,.! * - 7 , - 7 r u r r u r 7 - , 7 - * ! ,.' : *.u.*.y.u.u.u.u.u.u.u.",
"u.u.u.u.u.u.u.y.=.u.*.: _ >.Q * - 7 , , , 7 7 7 7 7 7 , , , 7 - * Q >._ : *.u.=.y.u.u.u.u.u.u.u.",
"u.u.u.u.u.u.u.u.-.t.=.I J C ` ) w , 8 8 7 , , , , , , 7 8 8 , w ) ` C J I =.t.-.u.u.u.u.u.u.u.u.",
"u.u.u.u.u.u.u.u.u.=.-.*.H = } ..w # - - - - - - - - - - - - # w ..} = H *.-.=.u.u.u.u.u.u.u.u.u.",
"u.u.u.u.u.u.u.y.=.y.*.6 p k B b & o @ @ @ @ @ @ @ @ @ @ @ @ o & b B k p 6 *.y.=.y.u.u.u.u.u.u.u.",
"u.u.u.u.u.u.u.y.*.u.*.> ( b j O X o . . . . . . . . . . . . o X O j b ( > *.u.*.y.u.u.u.u.u.u.u.",
"u.u.u.u.u.u.u.y.=.u.*.2 f v +   . X X X X X X X X X X X X X X .   + v f 2 *.u.=.y.u.u.u.u.u.u.u.",
"u.u.u.u.u.u.u.y.=.u.*.2 f v +   . X X X X X X X X X X X X X X .   + v f 2 *.u.=.y.u.u.u.u.u.u.u.",
"u.u.u.u.u.u.u.y.=.u.*.2 f v +   . X X X X X X X X X X X X X X .   + v f 2 *.u.=.y.u.u.u.u.u.u.u.",
"u.u.u.u.u.u.u.y.=.u.*.2 f v +   . X X X X X X X X X X X X X X .   + v f 2 *.u.=.y.u.u.u.u.u.u.u.",
"u.u.u.u.u.u.u.y.=.u.*.3 s c l + .   o o                 o o   . + l c s 3 *.u.=.y.u.u.u.u.u.u.u.",
"u.u.u.u.u.u.u.y.=.u.*.3 s c M x O X % % % % % % % % % % % % X O x M c s 3 *.u.=.y.u.u.u.u.u.u.u.",
"u.u.u.u.u.u.u.y.=.u.*.2 h m N c l l l l l l l l l l l l l l l l c N m h 2 *.u.=.y.u.u.u.u.u.u.u.",
"u.u.u.u.u.u.u.y.=.u.*.1 ^ | V x k z z z z z z z z z z z z z z k x V | ^ 1 *.u.=.y.u.u.u.u.u.u.u.",
"u.u.u.u.u.u.u.y.=.u.*.< ^ #.;.n 8 ; , , , , , , , , , , , , ; 8 n ;.#.^ < *.u.=.y.u.u.u.u.u.u.u.",
"u.u.u.u.u.u.u.y.=.u.*.< ^ #.1.[ i 8 r r r r r r r r r r r r 8 i [ 1.#.^ < *.u.=.y.u.u.u.u.u.u.u.",
"u.u.u.u.u.u.u.y.=.u.*.< ^ @.4. .T i f f f f f f f f f f f f i T  .4.@.^ < *.u.=.y.u.u.u.u.u.u.u.",
"u.u.u.u.u.u.u.y.=.u.*.< ^ @.2.| Y t d d d d d d d d d d d d t Y | 2.@.^ < *.u.=.y.u.u.u.u.u.u.u.",
"u.u.u.u.u.u.u.y.*.u.*.: ' ,.3.{ i e r r r r r r r r r r r r e i { 3.,.' : *.u.*.y.u.u.u.u.u.u.u.",
"u.u.u.u.u.u.u.y.=.y.*.4 ~ o.<. .R f T T T T T T T T T T T T f R  .<.o.~ 4 *.y.=.y.u.u.u.u.u.u.u.",
"u.u.u.u.u.u.u.u.y.=.-.&.G y O.1.:. ......................... .:.1.O.y G &.-.=.y.u.u.u.u.u.u.u.u.",
"u.u.u.u.u.u.u.u.u.t.u.u.%.5 ~ O.O.X.X.X.X.X.X.X.X.X.X.X.X.X.X.O.O.~ 5 %.u.u.t.u.u.u.u.u.u.u.u.u.",
"u.u.u.u.u.u.u.u.u.u.u.*.u.u.Z q 0 - - - - - - - - - - - - - - 0 q Z u.u.*.u.u.u.u.u.u.u.u.u.u.u.",
"u.u.u.u.u.u.u.u.u.u.u.=.u.u.U L L L K K K K K K K K K K K K L L L U u.u.=.u.u.u.u.u.u.u.u.u.u.u.",
"u.u.u.u.u.u.u.u.u.u.u.u.-.*.u.u.u.u.u.u.u.u.u.u.u.u.u.u.u.u.u.u.u.u.*.-.u.u.u.u.u.u.u.u.u.u.u.u.",
"u.u.u.u.u.u.u.u.u.u.u.u.u.u.u.u.u.u.u.u.u.u.u.u.u.u.u.u.u.u.u.u.u.u.u.u.u.u.u.u.u.u.u.u.u.u.u.u.",
"u.u.u.u.u.u.u.u.u.u.u.u.u.u.t.=.=.=.=.=.=.=.=.=.=.=.=.=.=.=.=.=.=.t.u.u.u.u.u.u.u.u.u.u.u.u.u.u.",
"u.u.u.u.u.u.u.u.u.u.u.u.u.u.u.u.u.u.u.u.u.u.u.u.u.u.u.u.u.u.u.u.u.u.u.u.u.u.u.u.u.u.u.u.u.u.u.u.",
"u.u.u.u.u.u.u.u.u.u.u.u.u.u.u.u.u.u.u.u.u.u.u.u.u.u.u.u.u.u.u.u.u.u.u.u.u.u.u.u.u.u.u.u.u.u.u.u.",
"u.u.u.u.u.u.u.u.u.u.u.u.u.u.u.u.u.u.u.u.u.u.u.u.u.u.u.u.u.u.u.u.u.u.u.u.u.u.u.u.u.u.u.u.u.u.u.u.",
"u.u.u.u.u.u.u.u.u.u.u.u.u.u.u.u.u.u.u.u.u.u.u.u.u.u.u.u.u.u.u.u.u.u.u.u.u.u.u.u.u.u.u.u.u.u.u.u.",
"u.u.u.u.u.u.u.u.u.u.u.u.u.u.u.u.u.u.u.u.u.u.u.u.u.u.u.u.u.u.u.u.u.u.u.u.u.u.u.u.u.u.u.u.u.u.u.u.",
"u.u.u.u.u.u.u.u.u.u.u.u.u.u.u.u.u.u.u.u.u.u.u.u.u.u.u.u.u.u.u.u.u.u.u.u.u.u.u.u.u.u.u.u.u.u.u.u.",
"u.u.u.u.u.u.u.u.u.u.u.u.u.u.u.u.u.u.u.u.u.u.u.u.u.u.u.u.u.u.u.u.u.u.u.u.u.u.u.u.u.u.u.u.u.u.u.u.",
"u.u.u.u.u.u.u.u.u.u.u.u.u.u.u.u.u.u.u.u.u.u.u.u.u.u.u.u.u.u.u.u.u.u.u.u.u.u.u.u.u.u.u.u.u.u.u.u.",
"u.u.u.u.u.u.u.u.u.u.u.u.u.u.u.u.u.u.u.u.u.u.u.u.u.u.u.u.u.u.u.u.u.u.u.u.u.u.u.u.u.u.u.u.u.u.u.u."
};
