/* XPM */
static char *d74a2ade063e4283daffddb57ea95b0918ui9YorBW1aYvdx[] = {
/* columns rows colors chars-per-pixel */
"48 48 143 2 ",
"   c #6D3D49",
".  c #734446",
"X  c #774845",
"o  c #7A4A45",
"O  c #704048",
"+  c #7E734F",
"@  c #7E7250",
"#  c #7D7D52",
"$  c #8E5F3D",
"%  c #97643B",
"&  c #AF7D37",
"*  c #854C46",
"=  c #914B44",
"-  c #845542",
";  c #8C5446",
":  c #895941",
">  c #9A5545",
",  c #9D5B46",
"<  c #9E5C48",
"1  c #A15E47",
"2  c #A05D48",
"3  c #9D634C",
"4  c #9F6C4F",
"5  c #916E51",
"6  c #8A7556",
"7  c #9B7150",
"8  c #A46146",
"9  c #A96446",
"0  c #A66E47",
"q  c #AA6947",
"w  c #A6624A",
"e  c #AC634C",
"r  c #A5684D",
"t  c #AD694A",
"y  c #B36643",
"u  c #B56C44",
"i  c #B86D42",
"p  c #BE7443",
"a  c #B17148",
"s  c #B67A49",
"d  c #BB7F49",
"f  c #B16650",
"g  c #AA7553",
"h  c #AC705B",
"j  c #C07743",
"k  c #C47B42",
"l  c #C87F42",
"z  c #C27554",
"x  c #C07B50",
"c  c #7F8153",
"v  c #799756",
"b  c #799E57",
"n  c #7A9F58",
"m  c #78A158",
"M  c #BE8C2E",
"N  c #BE8C33",
"B  c #BD8339",
"V  c #C5942F",
"C  c #CE9E2E",
"Z  c #D29F2D",
"A  c #C18E30",
"S  c #C4883B",
"D  c #C09130",
"F  c #CC9A31",
"G  c #D09F38",
"H  c #D6A639",
"J  c #ECB73D",
"K  c #878854",
"L  c #9D8656",
"P  c #8D9256",
"I  c #979559",
"U  c #9A965D",
"Y  c #979859",
"T  c #9A995C",
"R  c #BD8241",
"E  c #BB804A",
"W  c #9AA65C",
"Q  c #9FB35F",
"!  c #A1AE5F",
"~  c #A6A461",
"^  c #AFA667",
"/  c #A1AF62",
"(  c #ACAE64",
")  c #A4BF63",
"_  c #C68344",
"`  c #C98446",
"'  c #C88841",
"]  c #C1874B",
"[  c #C4884E",
"{  c #CE8F4E",
"}  c #D08F40",
"|  c #D08F49",
" . c #C69442",
".. c #CF9349",
"X. c #D39142",
"o. c #D2944A",
"O. c #D69F4E",
"+. c #D99D4A",
"@. c #D18B55",
"#. c #D19554",
"$. c #DC9C52",
"%. c #DBA34B",
"&. c #DEA354",
"*. c #E4B542",
"=. c #E6B845",
"-. c #EDBC4F",
";. c #E3A755",
":. c #E7AB54",
">. c #EBAB56",
",. c #E6A45C",
"<. c #EEAE58",
"1. c #E8B750",
"2. c #ECBA51",
"3. c #EDB45A",
"4. c #F2BE53",
"5. c #F1B35C",
"6. c #FBBB5B",
"7. c #A4C263",
"8. c #BFD16F",
"9. c #BFD270",
"0. c #F4C54F",
"q. c #EFC250",
"w. c #F5C551",
"e. c #F7C951",
"r. c #FBCD51",
"t. c #F9C35D",
"y. c #FFD753",
"u. c #FFD95C",
"i. c #FFE45B",
"p. c #FFEC5D",
"a. c #FFF35D",
"s. c #C0D470",
"d. c #FFD462",
"f. c #7F8E88",
"g. c #979A87",
"h. c #A09B89",
"j. c #9AA690",
"k. c #99B6A7",
"l. c #9BD0BF",
"z. c #B1E0BE",
"x. c #9BD1C1",
"c. c #9BD4C3",
"v. c #9CD4C3",
/* pixels */
"c.c.c.c.c.c.c.c.c.c.c.c.c.c.x.x.m m m m m m m m m m m m z.z.z.z.x.x.c.c.c.c.c.c.c.c.c.c.c.c.c.c.",
"c.c.c.c.c.c.c.c.c.c.c.c.x.l.c.c.# 6 + + @ @ @ @ @ @ @ @ g.g.h.j.c.c.l.x.c.c.c.c.c.c.c.c.c.c.c.c.",
"c.c.c.c.c.c.c.c.c.c.c.c.x.c.x.k.r z t t t t t t t t t t t t z r k.x.c.x.c.c.c.c.c.c.c.c.c.c.c.c.",
"c.c.c.c.c.c.c.c.c.c.c.l.c.c.f.h 3.d.t.t.t.t.t.t.t.t.t.t.t.t.d.3.h f.c.c.l.c.c.c.c.c.c.c.c.c.c.c.",
"c.c.c.c.c.c.c.c.c.v.c.l.v K g ,.u.a.p.p.p.p.p.p.p.p.p.p.p.p.a.u.,.g K v l.c.v.c.c.c.c.c.c.c.c.c.",
"c.c.c.c.c.c.c.c.c.x.c.c.# , 3.i.e.-.w.w.w.w.w.w.w.w.w.w.w.w.-.e.i.3., # c.c.x.c.c.c.c.c.c.c.c.c.",
"c.c.c.c.c.c.c.c.c.l.c.c.# w 5.i.r.%.d s E d d d d d d E s d %.r.i.5.w # c.c.l.c.c.c.c.c.c.c.c.c.",
"c.c.c.c.c.c.c.c.c.x.c.c.c < $.w.2.] > > 1 2 2 2 2 2 2 1 > > ] 2.w.$.< c c.c.x.c.c.c.c.c.c.c.c.c.",
"c.c.c.c.c.c.c.c.m n m m # , ;.2.d , 2 u p i i i i i i p u 2 , d 2.;., # m m n m c.c.c.c.c.c.c.c.",
"c.c.c.c.c.c.c.c.m n m m # , :.1.q = 9 u p l l l l l l p u 9 = q 1.:., # m m n m c.c.c.c.c.c.c.c.",
"c.c.c.c.c.c.c.c.m n m m # , >.2.a > 8 < 9 p j p p j p 9 < 8 > a 2.>., # m m n m c.c.c.c.c.c.c.c.",
"c.c.c.c.c.c.c.c.m b m m # e 6.q.q = 8 2 2 9 9 9 9 9 9 2 2 8 = q q.6.e # m m b m c.c.c.c.c.c.c.c.",
"z.z.z.z.m m m m m m m m W 7 #.&.[ q 8 8 8 2 2 2 2 2 2 8 8 8 q [ &.#.7 W m m m m m m m m c.c.c.c.",
"z.z.z.z.m m m m m m m n 7.7.5 x 2.O.2 , 8 8 2 8 8 2 8 8 , 2 O.2.x 5 7.7.n m m m m m m m c.c.c.c.",
"z.z.z.z.m m m m m m m m / L 0 S J  .* * ; ; ; ; ; ; ; ; * *  .J S 0 L / m m m m m m m m c.c.c.c.",
"z.z.z.z.m m m m m b m m U e X.C M % . O X X X X X X X X O . % M C X.e U m m b m m m m m c.c.c.c.",
"c.c.c.c.m m m m 7.) 7.7.U 2 X.D $ X X X X X X X X X X X X X X $ D X.2 U m m n m m m m m c.c.c.c.",
"c.c.c.c.m m m m 7.) 7.7.T < } N o   X o X X X X X X X X o o   o N } < T m m n m m m m m c.c.c.c.",
"c.c.c.c.m m m m 7.) 7.7.T < } N : O X X X X X X X X X X X X O : N } < T m m n m m m m m c.c.c.c.",
"c.c.c.c.m m m m 7.) 7.7.T < } N : O X X X X X X X X X X X X O : N } < T m m n m m m m m c.c.c.c.",
"c.c.c.c.m m m m m n m m T < X.N -   X X X X X X X X X X o X   - N X.< T m m n m m m m m c.c.c.c.",
"c.c.c.c.m m m m m n m m T < X.N -   X X X X X X X X X X o X   - N X.< T m m n m m m m m c.c.c.c.",
"c.c.c.c.m m m m m n m m T 2 ' V & :     O             O     : & V ' 2 T m m n m m m m m c.c.c.c.",
"c.c.c.c.m m m m m n m m T 2 _ C Z & : - : : : : : : : : - : & Z C _ 2 T m m n m m m m m c.c.c.c.",
"m m m m m m m m m n m m Y < | H F A N N N N N N N N N N N N A F H | < Y 7.7.) 7.m m m m m m m m ",
"m m m m m m m m m n m m Y < $.=.G N B B B B B B B B B B B B N G =.$.< Y 7.7.) 7.m m m m m m m m ",
"m m m m m m m m m n m m Y < &.0.*.R 2 , 2 2 2 2 2 2 2 2 , 2 R *.0.&.< Y 7.7.) 7.m m m m m m m m ",
"m m m m m m m m m n m m Y < $.r.0...y y u u u u u u u u y y ..0.r.$.< Y 7.7.) 7.m m m m m m m m ",
"m m m m m m m m 7.) 7.7.Y < $.e.w.%.j j l k k k k k k l j j %.e.e.$.< Y 7.7.) 7.m m m m m m m m ",
"m m m m m m m m 7.) 7.7.Y < $.e.e.+.p p j j j j j j j j p p +.e.e.$.< Y 7.7.) 7.m m m m m m m m ",
"m m m m m m m m 7.) 7.7.I e >.y.w.o.y y i i i i i i i i y y o.w.y.>.e I 7.7.) 7.m m m m m m m m ",
"m m m m m m m m 7.7.7.7.T 3 #.4.e.%.` _ ` ` ` ` ` ` ` ` _ ` %.e.4.#.3 T 7.7.7.7.m m m m m m m m ",
"m m m m m m m m 7.7.7.) ) ! 4 @.4.r.-.-.-.-.-.-.-.-.-.-.-.-.r.4.@.4 ! ) ) 7.7.7.7.7.7.7.m m m m ",
"m m m m m m m m 7.7.7.) 7.7.P g { <.;.;.;.;.;.;.;.;.;.;.;.;.<.{ g P 7.7.) 7.7.7.7.7.7.7.m m m m ",
"m m m m m m m m 7.7.7.7.7.) 7.Q 3 f < < < < < < < < < < < < f 3 Q 7.) 7.7.7.7.7.7.7.7.7.m m m m ",
"m m m m m m m m 7.7.7.7.7.7.7.7.( ^ ~ ~ ~ ~ ~ ~ ~ ~ ~ ~ ~ ~ ^ ( 7.7.7.7.7.7.7.7.7.7.7.7.m m m m ",
"m m m m 7.7.7.7.7.7.7.7.7.7.) 7.s.s.s.s.s.s.s.s.s.s.s.s.s.s.s.s.7.) 7.7.7.7.7.7.7.7.7.7.m m m m ",
"m m m m 7.7.7.7.7.7.7.7.7.7.7.7.s.s.s.s.s.s.s.s.s.s.s.s.s.s.s.s.7.7.7.7.7.7.7.7.7.7.7.7.m m m m ",
"m m m m 7.7.7.7.7.7.7.7.7.7.7.7.9.8.8.8.8.8.8.8.8.8.8.8.8.8.8.9.7.7.7.7.7.7.7.7.7.7.7.7.m m m m ",
"m m m m 7.7.7.7.7.7.7.7.7.7.7.7.s.s.s.s.s.s.s.s.s.s.s.s.s.s.s.s.7.7.7.7.7.7.7.7.7.7.7.7.m m m m ",
"m m m m 7.7.7.7.7.7.7.7.7.7.7.7.s.s.s.s.7.7.7.7.s.s.s.s.s.s.s.s.s.s.s.s.7.7.7.7.m m m m m m m m ",
"m m m m 7.7.7.7.7.7.7.7.7.7.7.7.s.s.s.s.7.7.7.7.s.s.s.s.s.s.s.s.s.s.s.s.7.7.7.7.m m m m m m m m ",
"m m m m 7.7.7.7.7.7.7.7.7.7.7.7.s.s.s.s.7.7.7.7.s.s.s.s.s.s.s.s.s.s.s.s.7.7.7.7.m m m m m m m m ",
"m m m m 7.7.7.7.7.7.7.7.7.7.7.7.s.s.s.s.7.7.7.7.s.s.s.s.s.s.s.s.s.s.s.s.7.7.7.7.m m m m m m m m ",
"m m m m 7.7.7.7.7.7.7.7.7.7.7.7.s.s.s.s.s.s.s.s.s.s.s.s.s.s.s.s.s.s.s.s.7.7.7.7.m m m m m m m m ",
"m m m m 7.7.7.7.7.7.7.7.7.7.7.7.s.s.s.s.s.s.s.s.s.s.s.s.s.s.s.s.s.s.s.s.7.7.7.7.m m m m m m m m ",
"m m m m 7.7.7.7.7.7.7.7.7.7.7.7.s.s.s.s.s.s.s.s.s.s.s.s.s.s.s.s.s.s.s.s.7.7.7.7.m m m m m m m m ",
"m m m m 7.7.7.7.7.7.7.7.7.7.7.7.s.s.s.s.s.s.s.s.s.s.s.s.s.s.s.s.s.s.s.s.7.7.7.7.m m m m m m m m "
};
