/* XPM */
static char *_0f987c8f6164987e2a2336885d754beoO9peNP9I27nw25v[] = {
/* columns rows colors chars-per-pixel */
"48 48 144 2 ",
"   c #6E3E48",
".  c #744546",
"X  c #7A4A45",
"o  c #704048",
"O  c #797E51",
"+  c #92613C",
"@  c #9A6A3C",
"#  c #804D45",
"$  c #8F4D45",
"%  c #934E46",
"&  c #865741",
"*  c #8D5B43",
"=  c #8D5549",
"-  c #8E5A4C",
";  c #965145",
":  c #9A5746",
">  c #9E5C46",
",  c #92574A",
"<  c #9B5649",
"1  c #935B4C",
"2  c #995D4F",
"3  c #8E5E59",
"4  c #915853",
"5  c #A35F46",
"6  c #95624D",
"7  c #98644E",
"8  c #82764F",
"9  c #8E615B",
"0  c #966352",
"q  c #996652",
"w  c #966C50",
"e  c #9C6953",
"r  c #916159",
"t  c #9B635D",
"y  c #8F7051",
"u  c #9A7354",
"i  c #9C7B54",
"p  c #A46146",
"a  c #AA6346",
"s  c #AA6A47",
"d  c #A5604A",
"f  c #AD644D",
"g  c #AE6A48",
"h  c #B16240",
"j  c #B56C44",
"k  c #BB6F42",
"l  c #B26D4B",
"z  c #B77144",
"x  c #BC7343",
"c  c #B5764D",
"v  c #B67849",
"b  c #BE7949",
"n  c #B47C53",
"m  c #C07743",
"M  c #C37B43",
"N  c #C87D42",
"B  c #C27D4D",
"V  c #768252",
"C  c #7E8753",
"Z  c #7E9656",
"A  c #769D57",
"S  c #799D57",
"D  c #7A9E58",
"F  c #77A058",
"G  c #78A158",
"H  c #B88A2E",
"J  c #BD8537",
"K  c #BE8C33",
"L  c #BD8339",
"P  c #C28E34",
"I  c #C69133",
"U  c #C99433",
"Y  c #CC9A35",
"T  c #CB973F",
"R  c #D39F3E",
"E  c #D5A42D",
"W  c #D2A233",
"Q  c #DCA833",
"!  c #DBAD3D",
"~  c #948454",
"^  c #9F8B58",
"/  c #959659",
"(  c #99975B",
")  c #96985A",
"_  c #9E995D",
"`  c #BD804E",
"'  c #AE8D5A",
"]  c #BB8559",
"[  c #99A05A",
"{  c #9BAD5E",
"}  c #9AB55E",
"|  c #A1B45F",
" . c #A3BE62",
".. c #C78145",
"X. c #C98446",
"o. c #CF8D46",
"O. c #C2874B",
"+. c #C78D4B",
"@. c #C98F4B",
"#. c #C9904A",
"$. c #C38252",
"%. c #C98452",
"&. c #CE8B53",
"*. c #D28D55",
"=. c #CB9150",
"-. c #D79155",
";. c #DC9F55",
":. c #DC9459",
">. c #DF9A5B",
",. c #DDA84D",
"<. c #E2AB4D",
"1. c #E8AD4F",
"2. c #E5B24D",
"3. c #E9B54F",
"4. c #EEBD4F",
"5. c #E4A755",
"6. c #E7AE51",
"7. c #E9AB56",
"8. c #E9AE5A",
"9. c #EBB650",
"0. c #EEBA52",
"q. c #F0BE51",
"w. c #A4C263",
"e. c #BCCD6E",
"r. c #BED06E",
"t. c #F0C347",
"y. c #F5C352",
"u. c #FACD52",
"i. c #FDD253",
"p. c #FFDD55",
"a. c #FFD25C",
"s. c #FFD95C",
"d. c #FFE45A",
"f. c #C0D470",
"g. c #918E85",
"h. c #90958A",
"j. c #99CDBD",
"k. c #9CCFBE",
"l. c #9AD0BF",
"z. c #ADD8B8",
"x. c #B1E0BE",
"c. c #9AD2C1",
"v. c #9CD3C2",
"b. c #9BD4C3",
/* pixels */
"b.b.b.b.b.b.b.b.b.b.b.b.b.b.c.k.k.j.j.j.z.z.z.z.D D D D D D D D D D G G G G G G G G G G G G G G ",
"b.b.b.b.b.b.b.b.b.b.b.b.v.c.b.b.b.b.b.b.x.x.x.x.G G G G G G G G G G G G G G G G G G G G G G G G ",
"b.b.b.b.b.b.b.b.b.b.b.c.b.b.c.j.j.j.j.j.z.z.z.z.S S S S S S S D D D G G G G G G G G G G G G G G ",
"b.b.b.b.b.b.b.b.b.b.b.j.b.b.h.t r 9 3 3 r r r r = = = = = = = , 2 8 G G S G G G G G G G G G G G ",
"b.b.b.b.b.b.b.b.b.c.b.b.A O n >.:.&.*.*.*.*.*.*.*.*.*.*.*.*.&.:.>.n O A w.w.w.w.w.w.w.w.w.w.w.w.",
"b.b.b.b.b.b.b.b.b.c.b.b.V : 8.d.s.a.s.s.s.s.s.s.s.s.s.s.s.s.a.s.d.8.: V w.w. .w.w.w.w.w.w.w.w.w.",
"b.b.b.b.b.b.b.v.c.v.l.g.] 8.a.s.d.d.d.d.d.d.d.d.d.d.d.d.d.d.d.d.s.a.8.] ~  .w.w.w.w.w.w.w.w.w.w.",
"b.b.b.b.b.b.b.v.j.b.j.4 :.d.p.2.,.,.,.,.,.,.,.,.,.,.,.,.,.,.,.,.2.p.d.:.,  .w. .w.w.w.w.w.w.w.w.",
"b.b.b.b.b.b.b.v.D G D , *.y.p.2.v p g s s s s s s s s s s g p v 2.p.y.*.1  .w. .w.w.w.w.w.w.w.w.",
"b.b.b.b.b.b.b.v.D G D - %.3.9.O.5 % : 5 a 5 5 5 5 5 5 a 5 : % 5 O.9.3.%.6  .w. .w.w.w.w.w.w.w.w.",
"b.b.b.b.b.b.b.v.D G D = &.q.@.; > p p z M m m m m m m M z p p > ; @.q.&.1  .w. .w.w.w.w.w.w.w.w.",
"b.b.b.b.b.b.b.v.D G D - &.0.+.; > p p a j M N M M N M j a p p > ; +.0.&.1  .w. .w.w.w.w.w.w.w.w.",
"x.x.x.x.G G G G D G A = :.y.#.; > p 5 > p j z j j z j p > 5 p > ; #.y.:.,  .w. .f.f.f.f.f.f.f.f.",
"x.x.x.x.G G G G D G A = -.y.@.; > p 5 5 5 p p p p p p 5 5 5 p > ; @.y.-.,  .w. .f.f.f.f.f.f.f.f.",
"x.x.x.x.G G G G G G F C ' ` ;.=.g 5 a a p 5 5 5 5 5 5 p a a 5 g =.;.` ' [ w.w.w.f.f.f.f.f.f.f.f.",
"x.x.x.x.G G G G G D G D / > 1.4.g $ > > > > > > > > > > > > $ g 4.1.> /  .w. .w.f.f.f.f.f.f.f.f.",
"G G G G G G G G  .w. .u c J Q Y * o # # # # # # # # # # # # o * Y Q J c i e.f.r.f.f.f.f.w.w.w.w.",
"G G G G G G G G  .w. .2 *.Y H + X o . . . . . . . . . . . . o X + H Y *.2 e.f.e.f.f.f.f.w.w.w.w.",
"G G G G G G G G  .w. .0 M U @   . X X X X X X X X X X X X X X .   @ U M q e.f.r.f.f.f.f.w.w.w.w.",
"G G G G G G G G  .w. .0 M U @   . X X X X X X X X X X X X X X .   @ U M q e.f.r.f.f.f.f.w.w.w.w.",
"G G G G G G G G  .w. .0 M U @   . X X X X X X X X X X X X X X .   @ U M q e.f.r.f.f.f.f.f.f.f.f.",
"G G G G G G G G  .w. .0 M U @   . X X X X X X X X X X X X X X .   @ U M q e.f.r.f.f.f.f.f.f.f.f.",
"G G G G G G G G  .w. .q b I K @ .   o o                 o o   . @ K I b e e.f.r.f.f.f.f.f.f.f.f.",
"G G G G G G G G  .w. .q b I E P + X & & & & & & & & & & & & X + P E I b e e.f.r.f.f.f.f.f.f.f.f.",
"G G G G G G G G  .w. .0 B R W I K K K K K K K K K K K K K K K K I W R B q e.f.r.f.f.f.f.f.f.f.f.",
"G G G G G G G G  .w. .6 %.2.! P J L L L L L L L L L L L L L L J P ! 2.%.7 e.f.r.f.f.f.f.f.f.f.f.",
"G G G G G G G G  .w. .1 %.0.t.T a < 5 5 5 5 5 5 5 5 5 5 5 5 < a T t.0.%.6 e.f.r.f.f.f.f.f.f.f.f.",
"G G G G G G G G  .w. .6 %.0.u.,.x a j j j j j j j j j j j j a x ,.u.0.%.7 e.f.r.f.f.f.f.f.f.f.f.",
"G G G G G G G G  .w. .6 %.9.i.3.X.x M M M M M M M M M M M M x X.3.i.9.%.7 e.f.r.f.f.f.f.f.f.f.f.",
"G G G G G G G G  .w. .6 %.9.i.2...k m m m m m m m m m m m m k ..2.i.9.%.7 e.f.r.f.f.f.f.f.f.f.f.",
"G G G G G G G G  .w. ., :.y.i.<.x h j j j j j j j j j j j j h x <.i.y.:.1 e.f.e.f.f.f.f.f.f.f.f.",
"G G G G G G G G  .w. .w $.6.u.3.o.M X.X.X.X.X.X.X.X.X.X.X.X.M o.3.u.6.$.u e.f.r.f.f.f.f.f.f.f.f.",
"b.b.b.b.G G G G G D G Z ^ l 7.u.y.3.4.4.4.4.4.4.4.4.4.4.4.4.3.y.u.7.l ^ | w. .w.w.w.w.w.f.f.f.f.",
"b.b.b.b.G G G G G G G G } y $.7.7.5.5.5.5.5.5.5.5.5.5.5.5.5.5.7.7.$.y } w.w.w.w.w.w.w.w.f.f.f.f.",
"b.b.b.b.G G G G G G G D w.w.i f d > > > > > > > > > > > > > > d f i w.w. .w.w.w.w.w.w.w.f.f.f.f.",
"b.b.b.b.G G G G G G G D w.w.{ _ ( ) / / / / / / / / / / / / ) ( _ { w.w. .w.w.w.w.w.w.w.f.f.f.f.",
"b.b.b.b.b.b.b.b.G G G G G D G G w.w.w.w.w.w.w.w.w.w.w.w.w.w.w.w.w.w. .w.w.w.w.w.w.w.w.w.w.w.w.w.",
"b.b.b.b.b.b.b.b.G G G G G G G G w.w.w.w.w.w.w.w.w.w.w.w.w.w.w.w.w.w.w.w.w.w.w.w.w.w.w.w.w.w.w.w.",
"b.b.b.b.b.b.b.b.G G G G G G G D  . . . . . . . . . . . . . . . . .w.w.w.w.w.w.w.w.w.w.w.w.w.w.w.",
"b.b.b.b.b.b.b.b.G G G G G G G G w.w.w.w.w.w.w.w.w.w.w.w.w.w.w.w.w.w.w.w.w.w.w.w.w.w.w.w.w.w.w.w.",
"b.b.b.b.b.b.b.b.b.b.b.b.G G G G G G G G G G G G G G G G G G G G G G G G w.w.w.w.G G G G G G G G ",
"b.b.b.b.b.b.b.b.b.b.b.b.G G G G G G G G G G G G G G G G G G G G G G G G w.w.w.w.G G G G G G G G ",
"b.b.b.b.b.b.b.b.b.b.b.b.G G G G G G G G G G G G G G G G G G G G G G G G w.w.w.w.G G G G G G G G ",
"b.b.b.b.b.b.b.b.b.b.b.b.G G G G G G G G G G G G G G G G G G G G G G G G w.w.w.w.G G G G G G G G ",
"b.b.b.b.b.b.b.b.b.b.b.b.b.b.b.b.b.b.b.b.x.x.x.x.G G G G G G G G G G G G G G G G G G G G G G G G ",
"b.b.b.b.b.b.b.b.b.b.b.b.b.b.b.b.b.b.b.b.x.x.x.x.G G G G G G G G G G G G G G G G G G G G G G G G ",
"b.b.b.b.b.b.b.b.b.b.b.b.b.b.b.b.b.b.b.b.x.x.x.x.G G G G G G G G G G G G G G G G G G G G G G G G ",
"b.b.b.b.b.b.b.b.b.b.b.b.b.b.b.b.b.b.b.b.x.x.x.x.G G G G G G G G G G G G G G G G G G G G G G G G "
};
