/* XPM */
static char *_cc88f5789444fac9246d24117fa83e4ZiljchG3CHiTxQAO[] = {
/* columns rows colors chars-per-pixel */
"48 48 141 2 ",
"   c #6D3D49",
".  c #734446",
"X  c #774845",
"o  c #7A4A45",
"O  c #704048",
"+  c #6F6C4B",
"@  c #7E734F",
"#  c #7E7250",
"$  c #7C7C51",
"%  c #8E5F3D",
"&  c #97643B",
"*  c #AF7D37",
"=  c #854C46",
"-  c #914B44",
";  c #845542",
":  c #8C5446",
">  c #895941",
",  c #9A5545",
"<  c #9D5C46",
"1  c #9E5D48",
"2  c #A15E47",
"3  c #A05D48",
"4  c #9E644C",
"5  c #916E51",
"6  c #8A7556",
"7  c #9B7150",
"8  c #A46146",
"9  c #A96446",
"0  c #A66E47",
"q  c #AA6947",
"w  c #A6634A",
"e  c #AC634C",
"r  c #AD694A",
"t  c #B36643",
"y  c #B56C44",
"u  c #B86D42",
"i  c #BE7443",
"p  c #B17148",
"a  c #B67A49",
"s  c #BB7F49",
"d  c #AB6B52",
"f  c #B16650",
"g  c #A27051",
"h  c #AC7550",
"j  c #AE7951",
"k  c #AC7958",
"l  c #C07743",
"z  c #C47B42",
"x  c #C87F42",
"c  c #C27554",
"v  c #C07B50",
"b  c #7F8153",
"n  c #799756",
"m  c #769E57",
"M  c #799E57",
"N  c #7A9F58",
"B  c #78A158",
"V  c #BE8C2E",
"C  c #BE8C33",
"Z  c #BD8339",
"A  c #C5942F",
"S  c #CE9E2E",
"D  c #D29F2D",
"F  c #C18E30",
"G  c #C4883B",
"H  c #C09130",
"J  c #CC9A31",
"K  c #D09F38",
"L  c #D6A639",
"P  c #ECB73D",
"I  c #848D55",
"U  c #9D8656",
"Y  c #959559",
"T  c #9A955D",
"R  c #979959",
"E  c #9D9C5D",
"W  c #BD8241",
"Q  c #BB804A",
"!  c #9AA65C",
"~  c #9FB65F",
"^  c #A59F60",
"/  c #A6A461",
"(  c #AAA564",
")  c #A1AF62",
"_  c #ACAD64",
"`  c #A4BF63",
"'  c #B6BE69",
"]  c #C68344",
"[  c #C98446",
"{  c #C88841",
"}  c #C1874B",
"|  c #C4884E",
" . c #CE8F4E",
".. c #D08F40",
"X. c #D08F49",
"o. c #C69442",
"O. c #CF9349",
"+. c #D39142",
"@. c #D2944A",
"#. c #D69F4E",
"$. c #D99D4A",
"%. c #D18B55",
"&. c #D19554",
"*. c #DC9C52",
"=. c #DBA34B",
"-. c #DEA354",
";. c #E4B542",
":. c #E6B845",
">. c #EDBC4F",
",. c #E3A755",
"<. c #E7AB54",
"1. c #EBAB56",
"2. c #E6A45C",
"3. c #EEAE58",
"4. c #E8B750",
"5. c #ECBA51",
"6. c #EDB45A",
"7. c #F2BE53",
"8. c #F1B35C",
"9. c #FBBB5B",
"0. c #A4C263",
"q. c #B6C36A",
"w. c #BECE6E",
"e. c #BFD16F",
"r. c #BFD370",
"t. c #F4C54F",
"y. c #EFC250",
"u. c #F5C551",
"i. c #F7C951",
"p. c #FBCD51",
"a. c #F9C35D",
"s. c #FFD753",
"d. c #FFD95C",
"f. c #FFE759",
"g. c #FFE15C",
"h. c #FFEB5D",
"j. c #FFEC5D",
"k. c #FFF35D",
"l. c #C0D06F",
"z. c #C0D470",
"x. c #FFD462",
/* pixels */
"B B B B B B B B B B B B B B N B B B B B B B B B B B B B B B B B B N B B B B B B B B B B B B B B ",
"B B B B B B B B B B B B B M B B $ 6 @ @ # # # # # # # # @ @ 6 $ B B M B B B B B B B B B B B B B ",
"B B B B B B B B B B B B B B m I w c r r r r r r r r r r r r c w I m B B B B B B B B B B B B B B ",
"B B B B B B B B B B B N B B + d 6.x.a.a.a.a.a.a.a.a.a.a.a.a.x.6.d + B B N B B B B B B B B B B B ",
"0.0.0.0.B B B B B B B N n I h 2.d.k.h.j.j.j.j.j.j.j.j.j.j.h.k.d.2.j E ~ N B B B B B B B 0.0.0.0.",
"0.0.0.0.B B B B B N B B $ < 6.g.i.>.u.u.u.u.u.u.u.u.u.u.u.u.>.i.g.6.< Y B B N B B B B B 0.0.0.0.",
"0.0.0.0.B B B B B M B B $ w 8.f.p.=.s a Q s s s s s s Q a s =.p.f.8.w Y B B M B B B B B 0.0.0.0.",
"0.0.0.0.B B B B B N B B b 1 *.u.5.} , , 2 3 3 3 3 3 3 2 , , } 5.u.*.1 R B B N B B B B B 0.0.0.0.",
"0.0.0.0.0.0.0.0.0.` 0.0.Y < ,.5.s < 3 y i u u u u u u i y 3 < s 5.,.< Y 0.0.` 0.0.0.0.0.0.0.0.0.",
"0.0.0.0.0.0.0.0.0.` 0.0.Y < <.4.q - 9 y i x x x x x x i y 9 - q 4.<.< Y 0.0.` 0.0.0.0.0.0.0.0.0.",
"0.0.0.0.0.0.0.0.0.` 0.0.Y < 1.5.p , 8 < 9 i l i i l i 9 < 8 , p 5.1.< Y 0.0.` 0.0.0.0.0.0.0.0.0.",
"0.0.0.0.0.0.0.0.0.` 0.0.Y e 9.y.q - 8 3 3 9 9 9 9 9 9 3 3 8 - q y.9.e Y 0.0.` 0.0.0.0.0.0.0.0.0.",
"0.0.0.0.0.0.0.0.0.0.0.0.! 7 &.-.| q 8 8 8 3 3 3 3 3 3 8 8 8 q | -.&.7 ! 0.0.0.0.0.0.0.0.0.0.0.0.",
"0.0.0.0.0.0.0.0.0.0.0.` 0.0.5 v 5.#.3 < 8 8 3 8 8 3 8 8 < 3 #.5.v 5 0.0.` 0.0.0.0.0.0.0.0.0.0.0.",
"0.0.0.0.0.0.0.0.0.0.0.0.) U 0 G P o.= = : : : : : : : : = = o.P G 0 U ) 0.0.0.0.0.0.0.0.0.0.0.0.",
"0.0.0.0.0.0.0.0.0.` 0.0.T e +.S V & . O X X X X X X X X O . & V S +.e T 0.0.` 0.0.0.0.0.0.0.0.0.",
"z.z.z.z.z.z.z.z.0.` 0.0.( 3 +.H % X X X X X X X X X X X X X X % H +.3 T z.z.e.z.z.z.z.z.z.z.z.z.",
"z.z.z.z.z.z.z.z.0.` 0.0.( 1 ..C o   X o X X X X X X X X o o   o C ..1 E z.z.e.z.z.z.z.z.z.z.z.z.",
"z.z.z.z.z.z.z.z.0.` 0.0.( 1 ..C > O X X X X X X X X X X X X O > C ..1 E z.z.e.z.z.z.z.z.z.z.z.z.",
"z.z.z.z.z.z.z.z.0.` 0.0.( 1 ..C > O X X X X X X X X X X X X O > C ..1 E z.z.e.z.z.z.z.z.z.z.z.z.",
"0.0.0.0.z.z.z.z.z.e.z.z.( 1 +.C ;   X X X X X X X X X X o X   ; C +.1 ( z.z.e.z.z.z.z.z.0.0.0.0.",
"0.0.0.0.z.z.z.z.z.e.z.z.( 1 +.C ;   X X X X X X X X X X o X   ; C +.1 ( z.z.e.z.z.z.z.z.0.0.0.0.",
"0.0.0.0.z.z.z.z.z.e.z.z.( 3 { A * >     O             O     > * A { 3 ( z.z.e.z.z.z.z.z.0.0.0.0.",
"0.0.0.0.z.z.z.z.z.e.z.z.( 3 ] S D * > ; > > > > > > > > ; > * D S ] 3 ( z.z.e.z.z.z.z.z.0.0.0.0.",
"z.z.z.z.z.z.z.z.z.e.z.z.( < X.L J F C C C C C C C C C C C C F J L X.< ( z.z.e.z.z.z.z.z.z.z.z.z.",
"z.z.z.z.z.z.z.z.z.e.z.z.( < *.:.K C Z Z Z Z Z Z Z Z Z Z Z Z C K :.*.< ( z.z.e.z.z.z.z.z.z.z.z.z.",
"z.z.z.z.z.z.z.z.z.e.z.z.( < -.t.;.W 3 < 3 3 3 3 3 3 3 3 < 3 W ;.t.-.< ( z.z.e.z.z.z.z.z.z.z.z.z.",
"z.z.z.z.z.z.z.z.z.e.z.z.( < *.p.t.O.t t y y y y y y y y t t O.t.p.*.< ( z.z.e.z.z.z.z.z.z.z.z.z.",
"z.z.z.z.z.z.z.z.z.e.z.z.( 1 *.i.u.=.l l x z z z z z z x l l =.i.i.*.1 ( z.z.e.z.z.z.z.z.z.z.z.z.",
"z.z.z.z.z.z.z.z.z.e.z.z.( 1 *.i.i.$.i i l l l l l l l l i i $.i.i.*.1 ( z.z.e.z.z.z.z.z.z.z.z.z.",
"z.z.z.z.z.z.z.z.z.e.z.z.^ e 1.s.u.@.t t u u u u u u u u t t @.u.s.1.e ^ z.z.e.z.z.z.z.z.z.z.z.z.",
"z.z.z.z.z.z.z.z.z.z.z.r._ 4 &.7.i.=.[ ] [ [ [ [ [ [ [ [ ] [ =.i.7.&.4 _ r.z.z.z.z.z.z.z.z.z.z.z.",
"z.z.z.z.z.z.z.z.z.r.z.w.w.' g %.7.p.>.>.>.>.>.>.>.>.>.>.>.>.p.7.%.g ' w.w.z.r.z.z.z.z.z.z.z.z.z.",
"z.z.z.z.z.z.z.z.z.z.z.e.z.z.E k  .3.,.,.,.,.,.,.,.,.,.,.,.,.3. .k E z.z.e.z.z.z.z.z.z.z.z.z.z.z.",
"z.z.z.z.z.z.z.z.z.z.z.z.e.l.z.q.4 f < < < < < < < < < < < < f 4 q.z.l.e.z.z.z.z.z.z.z.z.z.z.z.z.",
"z.z.z.z.z.z.z.z.z.z.z.z.r.e.z.z._ ( / / / / / / / / / / / / ( _ z.z.e.r.z.z.z.z.z.z.z.z.z.z.z.z.",
"z.z.z.z.z.z.z.z.z.z.z.z.z.z.e.z.z.z.z.z.z.z.z.z.z.z.z.z.z.z.z.z.z.e.z.z.z.z.z.z.z.z.z.z.z.z.z.z.",
"z.z.z.z.z.z.z.z.z.z.z.z.z.z.z.z.z.z.z.z.z.z.z.z.z.z.z.z.z.z.z.z.z.z.z.z.z.z.z.z.z.z.z.z.z.z.z.z.",
"z.z.z.z.z.z.z.z.z.z.z.z.z.z.z.r.r.e.e.e.e.e.e.e.e.e.e.e.e.e.e.r.r.z.z.z.z.z.z.z.z.z.z.z.z.z.z.z.",
"z.z.z.z.z.z.z.z.z.z.z.z.z.z.z.z.z.z.z.z.z.z.z.z.z.z.z.z.z.z.z.z.z.z.z.z.z.z.z.z.z.z.z.z.z.z.z.z.",
"z.z.z.z.z.z.z.z.z.z.z.z.z.z.z.z.z.z.z.z.z.z.z.z.z.z.z.z.z.z.z.z.z.z.z.z.z.z.z.z.z.z.z.z.z.z.z.z.",
"z.z.z.z.z.z.z.z.z.z.z.z.z.z.z.z.z.z.z.z.z.z.z.z.z.z.z.z.z.z.z.z.z.z.z.z.z.z.z.z.z.z.z.z.z.z.z.z.",
"z.z.z.z.z.z.z.z.z.z.z.z.z.z.z.z.z.z.z.z.z.z.z.z.z.z.z.z.z.z.z.z.z.z.z.z.z.z.z.z.z.z.z.z.z.z.z.z.",
"z.z.z.z.z.z.z.z.z.z.z.z.z.z.z.z.z.z.z.z.z.z.z.z.z.z.z.z.z.z.z.z.z.z.z.z.z.z.z.z.z.z.z.z.z.z.z.z.",
"z.z.z.z.z.z.z.z.z.z.z.z.z.z.z.z.z.z.z.z.z.z.z.z.z.z.z.z.z.z.z.z.z.z.z.z.z.z.z.z.z.z.z.z.z.z.z.z.",
"z.z.z.z.z.z.z.z.z.z.z.z.z.z.z.z.z.z.z.z.z.z.z.z.z.z.z.z.z.z.z.z.z.z.z.z.z.z.z.z.z.z.z.z.z.z.z.z.",
"z.z.z.z.z.z.z.z.z.z.z.z.z.z.z.z.z.z.z.z.z.z.z.z.z.z.z.z.z.z.z.z.z.z.z.z.z.z.z.z.z.z.z.z.z.z.z.z.",
"z.z.z.z.z.z.z.z.z.z.z.z.z.z.z.z.z.z.z.z.z.z.z.z.z.z.z.z.z.z.z.z.z.z.z.z.z.z.z.z.z.z.z.z.z.z.z.z."
};
