/* XPM */
static char *_7e90fe161674658ca4e54bbb6a25dafAfUJ878jywDCgw0I[] = {
/* columns rows colors chars-per-pixel */
"48 48 151 2 ",
"   c #AA5F3E",
".  c #AD613F",
"X  c #B36C3E",
"o  c #975142",
"O  c #9B5545",
"+  c #915D47",
"@  c #9E5C46",
"#  c #915549",
"$  c #94584A",
"%  c #A25F44",
"&  c #AC5F42",
"*  c #8C6D4B",
"=  c #94614C",
"-  c #98634F",
";  c #916E4B",
":  c #95744F",
">  c #98744D",
",  c #8B6E50",
"<  c #9A6651",
"1  c #9D6B55",
"2  c #8F7051",
"3  c #957351",
"4  c #9B7253",
"5  c #977854",
"6  c #9A7A53",
"7  c #A36142",
"8  c #AE6540",
"9  c #A5604A",
"0  c #AD644D",
"q  c #B46441",
"w  c #B66B42",
"e  c #B46D4D",
"r  c #BC7345",
"t  c #B5724D",
"y  c #B47D4C",
"u  c #B46A51",
"i  c #BD7452",
"p  c #C07743",
"a  c #C37B44",
"s  c #C37F4E",
"d  c #C07953",
"f  c #78A158",
"g  c #BC8532",
"h  c #C28C2F",
"j  c #C78E37",
"k  c #CF9A3D",
"l  c #D6A733",
"z  c #D8AD38",
"x  c #9C8054",
"c  c #9F8B58",
"v  c #959759",
"b  c #99975B",
"n  c #96985A",
"m  c #9E995D",
"M  c #A28257",
"N  c #A38758",
"B  c #A18D5A",
"V  c #AB965E",
"C  c #A19A5F",
"Z  c #9BAD5E",
"A  c #9DB35E",
"S  c #A1B45F",
"D  c #9EB060",
"F  c #A6A461",
"G  c #AAA563",
"H  c #B1A767",
"J  c #A4BE62",
"K  c #B2BD68",
"L  c #C98445",
"P  c #C68B47",
"I  c #CF8D46",
"U  c #C4804F",
"Y  c #D68D4F",
"T  c #D19446",
"R  c #D5954A",
"E  c #D9924F",
"W  c #D99E4A",
"Q  c #C28151",
"!  c #CA8552",
"~  c #CE8C55",
"^  c #D58C52",
"/  c #D08E5C",
"(  c #DA9352",
")  c #DE9A53",
"_  c #D7955F",
"`  c #DD925A",
"'  c #E29E55",
"]  c #E49D59",
"[  c #D6A242",
"{  c #D8A345",
"}  c #DCA845",
"|  c #DAA250",
" . c #E3AD4D",
".. c #E1B742",
"X. c #E5B846",
"o. c #EABE46",
"O. c #E6B04F",
"+. c #EDBC4F",
"@. c #E4A755",
"#. c #E6AE51",
"$. c #EAAB56",
"%. c #E5A159",
"&. c #EDA95F",
"*. c #EEB653",
"=. c #ECB851",
"-. c #F0B752",
";. c #F1BA53",
":. c #DCAB67",
">. c #DDAD68",
",. c #DFB068",
"<. c #E8A164",
"1. c #F1AB67",
"2. c #E3B469",
"3. c #F4B267",
"4. c #F7B56C",
"5. c #FEBD6B",
"6. c #A4C263",
"7. c #B5C36A",
"8. c #BCCD6E",
"9. c #BED06E",
"0. c #F8D04E",
"q. c #F2C250",
"w. c #FBCC53",
"e. c #FAC65B",
"r. c #FDCD5B",
"t. c #FFD754",
"y. c #FFDB54",
"u. c #FFD55B",
"i. c #FFDF5C",
"p. c #FFE65C",
"a. c #FFE95F",
"s. c #FFF15F",
"d. c #C0D470",
"f. c #F1C865",
"g. c #F0C369",
"h. c #FED762",
"j. c #FBD16F",
"k. c #FFC373",
"l. c #FFDE73",
"z. c #FFE462",
"x. c #FFEA64",
"c. c #FFE16E",
"v. c #FFF461",
"b. c #FFF46D",
"n. c #FFED76",
"m. c #FFEE7A",
"M. c #FFF17A",
"N. c #FFF67B",
"B. c #FFF97B",
"V. c #FFF97E",
"C. c #FFF983",
/* pixels */
"f f f f f f f f f f f f f f f f f f f f f f f f f f f f f f f f f f f f f f f f f f f f f f f f ",
"f f f f f f f f f f f f f f f f f f f f f f f f f f f f f f f f f f f f f f f f f f f f f f f f ",
"f f f f f f f f f f f f f f f f f f f f f f f f f f f f f f f f f f f f f f f f f f f f f f f f ",
"f f f f f f f f f f f f f f f f f f f f f f f f f f f f f f f f f f f f f f f f f f f f f f f f ",
"6.6.6.6.6.6.6.6.6.6.6.6.f f f f f f f f f f f f 6.6.6.6.6.6.6.6.6.6.6.6.6.6.6.6.6.6.6.6.f f f f ",
"6.6.6.6.6.6.6.6.6.6.6.6.f f f f f f f f f f f f 6.6.6.6.6.6.6.6.6.6.6.6.6.6.6.6.6.6.6.6.f f f f ",
"6.6.6.6.6.6.6.6.6.6.6.6.f f f f f f f f f f f f 6.6.6.6.6.6.6.6.6.6.6.6.6.6.6.6.6.6.6.6.f f f f ",
"6.6.6.6.6.6.6.6.6.6.6.6.f f f f f f f f f f f f 6.6.6.6.6.6.6.6.6.6.6.6.6.6.6.6.6.6.6.6.f f f f ",
"6.6.6.6.6.6.6.6.6.6.6.6.6.6.6.6.6.6.6.6.6.6.6.6.6.6.6.6.6.6.6.6.6.6.6.6.6.6.6.6.6.6.6.6.6.6.6.6.",
"6.6.6.6.6.6.6.6.6.6.6.6.6.6.6.J J 6.6.6.6.6.6.6.6.6.6.6.6.6.6.J J 6.6.6.6.6.6.6.6.6.6.6.6.6.6.6.",
"6.6.6.6.6.6.6.6.6.6.6.6.6.6.6.6.6.6.6.6.6.6.6.6.6.6.6.6.6.6.6.6.6.6.6.6.6.6.6.6.6.6.6.6.6.6.6.6.",
"6.6.6.6.6.6.6.6.6.6.6.6.6.J 6.6.6.6.J J J J J J J J J J J J 6.6.6.6.J 6.6.6.6.6.6.6.6.6.6.6.6.6.",
"d.d.d.d.6.6.6.6.6.6.6.J 6.6.A C C D 6.6.6.6.6.6.d.d.d.d.d.d.7.H H 7.d.d.J 6.6.6.d.d.d.d.d.d.d.d.",
"d.d.d.d.6.6.6.6.6.6.6.J 6.6.x u u x 6.6.6.6.6.6.d.d.d.d.d.d.N u u N d.d.J 6.6.6.d.d.d.d.d.d.d.d.",
"d.d.d.d.6.6.6.6.6.6.6.6.A , Q $.$.y 3 * ; ; : ; > 5 > > : 6 y $.$.Q 5 7.6.6.6.6.d.d.d.d.d.d.d.d.",
"d.d.d.d.6.6.6.6.6.J 6.A B t $.y.y.| e u d i i i i i i d u e | y.y.$.t V A 6.J 6.d.d.d.d.d.d.d.d.",
"d.d.d.d.d.d.d.d.9.d.8.3 ~ e.i.i.p.;.( <.4.1.1.1.1.1.1.4.<.( ;.p.i.i.e.~ 3 8.d.9.d.d.9.d.d.d.d.d.",
"d.d.d.d.d.d.d.d.8.d.8.# ] a.v.u.e.$.' &.5.k.k.k.k.k.k.5.&.' $.e.u.v.a.] # 8.d.8.d.d.d.d.d.d.d.d.",
"d.d.d.d.d.d.d.d.9.d.8.- ~ u.s.r.) ^ ( E ' 3.4.3.3.4.3.' E ( ^ ) r.s.u.~ - 8.d.9.d.d.d.d.d.d.d.d.",
"d.d.d.d.d.d.d.d.9.d.8.- ~ u.v.r.) ^ ) ( ) ] %.] ] %.] ) ( ) ^ ) r.v.u.~ - 8.d.9.d.d.d.d.d.d.d.d.",
"d.d.d.d.d.d.d.d.9.d.8.- ~ u.s.r.' ^ ( ( ( Y Y Y Y Y Y ( ( ( ^ ' r.s.u.~ - 8.d.9.d.d.d.d.d.d.d.d.",
"d.d.d.d.d.d.d.d.9.d.8.- ^ u.s.r.' ^ ( ( ( ( ( ( ( ( ( ( ( ( ^ ' r.s.u.^ - 8.d.9.d.d.d.d.d.d.d.d.",
"d.d.d.d.d.d.d.d.9.d.8.+ _ n.b.w.;.*.;.;.-.;.;.;.;.;.;.;.;.;.*.;.w.b.n._ + 8.d.9.d.d.d.d.d.d.d.d.",
"d.d.d.d.9.9.d.d.9.d.8.= / l.b.z.x.x.x.x.x.x.z.z.z.x.x.x.x.x.x.x.z.b.l./ = 8.d.9.d.d.d.d.d.d.d.d.",
"d.d.d.d.d.d.d.d.9.d.8.1 r k h.C.V.B.B.B.V.B.N.m.M.N.B.B.B.B.B.V.C.h.k r < J 6.J d.d.d.d.d.d.d.d.",
"d.d.d.d.d.d.d.d.9.d.8.1 r h X.f.2.:.,.2.:.>.j.n.c.g.>.>.2.,.:.2.f.X.h r < J 6.J d.d.d.d.d.d.d.d.",
"d.d.d.d.d.d.d.d.9.d.8.< U { l g 7 O @ 7 o O | p.w.P O O % @ O 7 g l { U - J 6.J d.d.d.d.d.d.d.d.",
"d.d.d.d.d.d.d.d.9.d.8.< s [ z j X & 8 q   . W t.w.T .   q 8 & X j z [ s - J 6.J d.d.d.d.d.d.d.d.",
"d.d.d.d.d.d.d.d.9.d.8.< s } ..[ L a a L a a R  .O.R a a L a a L [ ..} s < 8.d.9.d.d.d.d.d.d.d.d.",
"d.d.d.d.d.d.d.d.9.d.8.- ! =.o.k a r p p p p p a a a p p p p r a k o.=.! - 8.d.9.d.d.d.d.d.d.d.d.",
"d.d.d.d.d.d.d.d.8.d.8.$ ` w.0.{ r q w w w w q q q q w w w w q r { 0.w.` $ 8.d.8.d.d.d.d.d.d.d.d.",
"d.d.d.d.d.d.d.d.9.d.8.4 Q #.w.+.I a L L L L L L L L L L L L a I +.w.#.Q 4 8.d.9.d.d.d.d.d.d.d.d.",
"d.d.d.d.d.d.d.d.6.J 6.S c e $.w.q.+.+.+.+.+.+.+.+.+.+.+.+.+.+.q.w.$.e V S 6.J 6.6.6.6.6.6.6.6.6.",
"d.d.d.d.d.d.d.d.6.6.6.6.A 2 Q $.$.@.@.@.@.@.@.@.@.@.@.@.@.@.@.$.$.Q 5 7.6.6.6.6.6.6.6.6.6.6.6.6.",
"d.d.d.d.d.d.d.d.6.6.6.J 6.6.6 0 9 @ @ @ @ @ @ @ @ @ @ @ @ @ @ 9 0 M d.d.J 6.6.6.6.6.6.6.6.6.6.6.",
"d.d.d.d.d.d.d.d.6.6.6.J 6.6.Z m b n v v v v v v F F F F F F G G G K d.d.J 6.6.6.6.6.6.6.6.6.6.6.",
"6.6.6.6.6.6.6.6.6.6.6.6.6.J 6.6.6.6.6.6.6.6.6.6.6.6.6.6.6.6.6.6.6.6.J 6.6.6.6.6.6.6.6.6.6.6.6.6.",
"6.6.6.6.6.6.6.6.6.6.6.6.6.6.6.6.6.6.6.6.6.6.6.6.6.6.6.6.6.6.6.6.6.6.6.6.6.6.6.6.6.6.6.6.6.6.6.6.",
"6.6.6.6.6.6.6.6.6.6.6.6.6.6.6.J J J J J J J J J J J J J J J J J J 6.6.6.6.6.6.6.6.6.6.6.6.6.6.6.",
"6.6.6.6.6.6.6.6.6.6.6.6.6.6.6.6.6.6.6.6.6.6.6.6.6.6.6.6.6.6.6.6.6.6.6.6.6.6.6.6.6.6.6.6.6.6.6.6.",
"6.6.6.6.6.6.6.6.f f f f f f f f f f f f 6.6.6.6.6.6.6.6.6.6.6.6.6.6.6.6.6.6.6.6.f f f f f f f f ",
"6.6.6.6.6.6.6.6.f f f f f f f f f f f f 6.6.6.6.6.6.6.6.6.6.6.6.6.6.6.6.6.6.6.6.f f f f f f f f ",
"6.6.6.6.6.6.6.6.f f f f f f f f f f f f 6.6.6.6.6.6.6.6.6.6.6.6.6.6.6.6.6.6.6.6.f f f f f f f f ",
"6.6.6.6.6.6.6.6.f f f f f f f f f f f f 6.6.6.6.6.6.6.6.6.6.6.6.6.6.6.6.6.6.6.6.f f f f f f f f ",
"f f f f f f f f f f f f f f f f f f f f f f f f f f f f f f f f f f f f f f f f f f f f f f f f ",
"f f f f f f f f f f f f f f f f f f f f f f f f f f f f f f f f f f f f f f f f f f f f f f f f ",
"f f f f f f f f f f f f f f f f f f f f f f f f f f f f f f f f f f f f f f f f f f f f f f f f ",
"f f f f f f f f f f f f f f f f f f f f f f f f f f f f f f f f f f f f f f f f f f f f f f f f "
};
