/* XPM */
static char *_bce8a07c7474e98c4165e391f5e6535nfrVYDJs7TkskfjR[] = {
/* columns rows colors chars-per-pixel */
"48 48 138 2 ",
"   c #673644",
".  c #6B3B43",
"X  c #6E3E48",
"o  c #703F43",
"O  c #6F4044",
"+  c #744444",
"@  c #7B4B45",
"#  c #704048",
"$  c #90603E",
"%  c #9A6A3B",
"&  c #855542",
"*  c #955445",
"=  c #9A5746",
"-  c #9E5C46",
";  c #91554A",
":  c #9B5649",
">  c #915B4B",
",  c #A15E47",
"<  c #8F624E",
"1  c #95604C",
"2  c #9F6E49",
"3  c #966352",
"4  c #996451",
"5  c #9C6A55",
"6  c #8F7051",
"7  c #9B7B53",
"8  c #AB6546",
"9  c #A5604A",
"0  c #AD644D",
"q  c #B16240",
"w  c #B66B44",
"e  c #BB6F42",
"r  c #B26D4B",
"t  c #A9774F",
"y  c #BC7443",
"u  c #BE7949",
"i  c #A96A56",
"p  c #AC6E58",
"a  c #AD7751",
"s  c #C07743",
"d  c #C37C44",
"f  c #C47D4A",
"g  c #7E9656",
"h  c #799D57",
"j  c #7A9E58",
"k  c #79A057",
"l  c #78A158",
"z  c #BB842B",
"x  c #BD8537",
"c  c #BE8C33",
"v  c #BD8339",
"b  c #C28E34",
"n  c #C69133",
"m  c #CA9534",
"M  c #CB973F",
"N  c #C7983F",
"B  c #D39F3C",
"V  c #D5A42D",
"C  c #D2A233",
"Z  c #D3A23E",
"A  c #DBAD3D",
"S  c #91834E",
"D  c #928354",
"F  c #9F8B58",
"G  c #959356",
"H  c #959759",
"J  c #9A955A",
"K  c #969A5A",
"L  c #9E995D",
"P  c #B5844A",
"I  c #A59F5E",
"U  c #A89D5F",
"Y  c #9BAD5E",
"T  c #9AB55E",
"R  c #A3A25F",
"E  c #A5A360",
"W  c #A3BE62",
"Q  c #C78145",
"!  c #C98446",
"~  c #CF8D46",
"^  c #C88D4B",
"/  c #CA9E48",
"(  c #C38252",
")  c #C98452",
"_  c #C0895A",
"`  c #C49651",
"'  c #C69952",
"]  c #C99B52",
"[  c #D79652",
"{  c #DB9058",
"}  c #DEAA4C",
"|  c #CDA25C",
" . c #E2AB4D",
".. c #E4B14C",
"X. c #E9B54F",
"o. c #EEBC4F",
"O. c #E4A755",
"+. c #E7AE51",
"@. c #E9AB56",
"#. c #E7AB59",
"$. c #E8AD59",
"%. c #ECB751",
"&. c #EDBB53",
"*. c #EEB35C",
"=. c #C48F65",
"-. c #DD9861",
";. c #D3AD6E",
":. c #A4C263",
">. c #BDCC6E",
",. c #BFD16F",
"<. c #BFD370",
"1. c #F0C347",
"2. c #FFD54E",
"3. c #F4C452",
"4. c #F9C751",
"5. c #FBCD52",
"6. c #F4C158",
"7. c #FED253",
"8. c #FFDA56",
"9. c #FFD35F",
"0. c #FFDA5A",
"q. c #FFE45E",
"w. c #FFEC5E",
"e. c #FFF15F",
"r. c #C0D470",
"t. c #FFD867",
"y. c #F6C073",
"u. c #FFE262",
"i. c #FFE564",
"p. c #FFEA62",
"a. c #FFEE60",
"s. c #FFF060",
"d. c #FFF36D",
"f. c #FFEB77",
"g. c #FFF971",
"h. c #B1E0BE",
"j. c #FFF981",
"k. c #9BD4C3",
/* pixels */
"l l l l l l l l :.:.:.:.r.r.r.r.r.r.r.r.r.r.r.r.r.r.r.r.r.r.r.r.:.:.:.:.:.:.:.:.:.:.:.:.l l l l ",
"l l l l l l l l :.:.:.:.r.r.r.r.r.r.r.r.r.r.r.r.r.r.r.r.r.r.r.r.:.:.:.:.:.:.:.:.:.:.:.:.l l l l ",
"l l l l l l l l :.:.:.:.r.r.r.r.r.r.r.r.r.r.r.r.r.r.r.r.r.r.r.r.:.:.:.:.:.:.:.:.:.:.:.:.l l l l ",
"l l l l l l l l :.:.:.:.r.r.r.r.r.r.r.r.r.r.r.r.r.r.r.r.r.r.r.r.:.:.:.:.:.:.:.:.:.:.:.:.l l l l ",
"l l l l l l l l :.:.:.:.r.r.r.r.r.r.r.r.:.:.:.:.r.r.r.r.r.r.r.r.:.:.:.:.:.:.:.:.:.:.:.:.l l l l ",
"l l l l l l l l :.:.:.:.r.r.r.r.r.r.r.r.:.:.:.:.r.r.r.r.r.r.r.r.:.:.:.:.:.:.:.:.:.:.:.:.l l l l ",
"l l l l l l l l :.:.:.:.r.r.r.r.r.r.r.r.:.:.:.:.r.r.r.r.r.r.r.r.:.:.:.:.:.:.:.:.:.:.:.:.l l l l ",
"l l l l l l l l :.:.:.:.r.r.<.r.r.<.r.r.:.:.:.:.r.r.r.r.r.r.<.r.:.:.:.:.:.:.:.:.:.:.:.:.l l l l ",
"l l l l :.:.:.:.:.:.:.:.:.:.:.W ,.,.r.r.r.r.r.r.r.r.r.r.:.:.:.W W :.:.:.:.:.:.:.:.:.:.:.l l l l ",
"l l l l :.:.:.:.:.:.:.:.:.W :.:.r.r.,.,.<.,.,.,.,.,.,.<.W W :.:.:.:.W :.:.:.:.:.:.:.:.:.l l l l ",
"l l l l :.:.:.:.:.:.:.:.:.:.:.W >.,.r.r.r.r.r.r.r.r.r.r.:.:.:.W W :.:.:.:.:.:.:.:.:.:.:.l l l l ",
"l l l l :.:.:.:.:.:.:.W :.:.G i p U r.r.r.r.r.r.r.r.r.r.:.:.J i i G :.:.W :.:.:.:.:.:.:.l l l l ",
"l l l l :.:.:.:.:.:.:.:.W G t { { t E R I E E E E E E I R E t { { a H W :.:.:.:.l l l l l l l l ",
"l l l l :.:.:.:.:.W :.:.K = [ 3.3.^ = * - - - - - - - - * = ^ 3.3.[ = K :.:.W :.l l l l l l l l ",
"l l l l :.:.:.:.:.:.W S =.y.t.2.7.6.#.#.$.$.$.*.*.*.$.$.#.#.6.8.8.9.*._ D W :.:.l l l l l l l l ",
"l l l l :.:.:.:.W :.W * -.f.g.u.i.p.s.s.s.s.a.w.q.w.s.s.s.s.q.q.q.w.0.{ > W :.W l l l l l l l l ",
"l l l l l l l l W :.W 4 f Z u.j.j.d.w.w.w.w.w.0.3.7.e.e.w.w.w.a.a.2.B f 4 W :.W l l l l l l l l ",
"l l l l l l l l W :.W 5 y z / ;.;.| ] ] ` ' &.8.5.} ' ' ] ] ] ] ] N z y 5 W :.W l l l l l l l l ",
"l l l l l l l l W :.W 3 f m % . o + + @ . # P 4.4.P O   @ + + # . % m d 3 W :.W l l l l l l l l ",
"l l l l l l l l W :.W 3 f m %     o . o . . & 2 2 & .   o . + .   % m d 3 W :.W l l l l l l l l ",
"l l l l l l l l W :.W 3 d m % # @ & @ @ & @ +     + @ & @ @ & @ # % m d 3 W :.W l l l l l l l l ",
"l l l l l l l l W :.W 3 d m % X + @ @ @ @ @ @ @ @ @ @ @ @ @ @ + X % m d 3 W :.W l l l l l l l l ",
"l l l l l l l l W :.W 4 u n c % + . # # X X # # # # X X # # . + % c n u 4 W :.W l l l l l l l l ",
"l l l l l l l l W :.W 4 u n V b $ @ & & & & & & & & & & & & @ $ b V n u 4 W :.W l l l l l l l l ",
"k.k.k.k.l l l l W :.W 4 f B C n c c c c c c c c c c c c c c c c n C B f > h l h l l l l k.k.k.k.",
"k.k.k.k.l l l l W :.W 1 ) ..A b x v v v v v v v v v v v v v v x b A ..) > h l h l l l l k.k.k.k.",
"k.k.k.k.l l l l W :.W > ) &.1.M 8 : , , , , , , , , , , , , : 8 M 1.&.) > h l h l l l l k.k.k.k.",
"k.k.k.k.l l l l W :.W 1 ) &.5.} y 8 w w w w w w w w w w w w 8 y } 5.&.) > h l h l l l l k.k.k.k.",
"k.k.k.k.l l l l h l h > ) %.7.X.! y d d d d d d d d d d d d y ! X.7.%.) > h l h l l l l k.k.k.k.",
"k.k.k.k.l l l l h l h > ) %.7...Q e s s s s s s s s s s s s e Q ..7.%.) > h l h l l l l k.k.k.k.",
"k.k.k.k.l l l l h l h ; { 3.7. .y q w w w w w w w w w w w w q y  .7.3.{ ; h l h l l l l k.k.k.k.",
"k.k.k.k.l l l l k l h < ( +.5.X.~ d ! ! ! ! ! ! ! ! ! ! ! ! d ~ X.5.+.( < h l k l l l l k.k.k.k.",
"k.k.k.k.l l l l l j l g F r @.5.3.X.o.o.o.o.o.o.o.o.o.o.o.o.X.3.5.@.r F g l j l l l l l k.k.k.k.",
"k.k.k.k.l l l l l l l l T 6 ( @.@.O.O.O.O.O.O.O.O.O.O.O.O.O.O.@.@.( 6 T l l l l l l l l k.k.k.k.",
"k.k.k.k.l l l l l l l j :.:.7 0 9 - - - - - - - - - - - - - - 9 0 7 :.:.j l l l l l l l k.k.k.k.",
"k.k.k.k.l l l l l l l j :.:.Y L J K H H H H H H H H H H H H K J L Y :.:.j l l l l l l l k.k.k.k.",
"k.k.k.k.k.k.k.k.l l l l l j l l :.:.:.:.:.:.:.:.:.:.:.:.:.:.:.:.l l j l l l l l k.k.k.k.k.k.k.k.",
"k.k.k.k.k.k.k.k.l l l l l l l l :.:.:.:.:.:.:.:.:.:.:.:.:.:.:.:.l l l l l l l l k.k.k.k.k.k.k.k.",
"k.k.k.k.k.k.k.k.l l l l l l l j W W W W W W W W W W W W W W W W j l l l l l l l k.k.k.k.k.k.k.k.",
"k.k.k.k.k.k.k.k.l l l l l l l l :.:.:.:.:.:.:.:.:.:.:.:.:.:.:.:.l l l l l l l l k.k.k.k.k.k.k.k.",
"k.k.k.k.k.k.k.k.k.k.k.k.l l l l l l l l l l l l l l l l l l l l l l l l k.k.k.k.k.k.k.k.h.h.h.h.",
"k.k.k.k.k.k.k.k.k.k.k.k.l l l l l l l l l l l l l l l l l l l l l l l l k.k.k.k.k.k.k.k.h.h.h.h.",
"k.k.k.k.k.k.k.k.k.k.k.k.l l l l l l l l l l l l l l l l l l l l l l l l k.k.k.k.k.k.k.k.h.h.h.h.",
"k.k.k.k.k.k.k.k.k.k.k.k.l l l l l l l l l l l l l l l l l l l l l l l l k.k.k.k.k.k.k.k.h.h.h.h.",
"k.k.k.k.k.k.k.k.k.k.k.k.k.k.k.k.l l l l l l l l l l l l l l l l k.k.k.k.k.k.k.k.k.k.k.k.k.k.k.k.",
"k.k.k.k.k.k.k.k.k.k.k.k.k.k.k.k.l l l l l l l l l l l l l l l l k.k.k.k.k.k.k.k.k.k.k.k.k.k.k.k.",
"k.k.k.k.k.k.k.k.k.k.k.k.k.k.k.k.l l l l l l l l l l l l l l l l k.k.k.k.k.k.k.k.k.k.k.k.k.k.k.k.",
"k.k.k.k.k.k.k.k.k.k.k.k.k.k.k.k.l l l l l l l l l l l l l l l l k.k.k.k.k.k.k.k.k.k.k.k.k.k.k.k."
};
