/* XPM */
static char *b040cd83391040a4e5f6e4d9eec3b160qTNOazLgKzflG7aN[] = {
/* columns rows colors chars-per-pixel */
"48 48 142 2 ",
"   c #6E3E48",
".  c #744546",
"X  c #7A4A45",
"o  c #704048",
"O  c #92613C",
"+  c #9A6A3C",
"@  c #804D45",
"#  c #8F4D45",
"$  c #934E46",
"%  c #865741",
"&  c #8D5B43",
"*  c #8F5C4A",
"=  c #965145",
"-  c #9A5746",
";  c #9E5C46",
":  c #91564A",
">  c #9B5649",
",  c #935D4B",
"<  c #995E4E",
"1  c #A35F46",
"2  c #8F624E",
"3  c #95624D",
"4  c #99614F",
"5  c #966352",
"6  c #9A6552",
"7  c #9C6953",
"8  c #8F7051",
"9  c #9A7354",
"0  c #9C7B54",
"q  c #A46146",
"w  c #AA6346",
"e  c #AA6A47",
"r  c #A5604A",
"t  c #AD644D",
"y  c #AE6A48",
"u  c #B16240",
"i  c #B56C44",
"p  c #BB6F42",
"a  c #B26D4B",
"s  c #B77144",
"d  c #BC7343",
"f  c #B5764D",
"g  c #B67849",
"h  c #BE7949",
"j  c #B67F54",
"k  c #C07743",
"l  c #C37B43",
"z  c #C87D42",
"x  c #C27D4D",
"c  c #7E9656",
"v  c #799D57",
"b  c #7A9E58",
"n  c #79A057",
"m  c #78A158",
"M  c #B88A2E",
"N  c #BD8537",
"B  c #BE8C33",
"V  c #BD8339",
"C  c #C28E34",
"Z  c #C69133",
"A  c #C99433",
"S  c #CC9A35",
"D  c #CB973F",
"F  c #D39F3E",
"G  c #D5A42D",
"H  c #D2A233",
"J  c #DCA833",
"K  c #DBAD3D",
"L  c #948454",
"P  c #948A54",
"I  c #9F8B58",
"U  c #959759",
"Y  c #99975B",
"T  c #949A5A",
"R  c #9E995D",
"E  c #BD804E",
"W  c #A08E59",
"Q  c #AE8D5A",
"!  c #BD885A",
"~  c #A1955B",
"^  c #A59D5F",
"/  c #B5945E",
"(  c #99A05A",
")  c #9BAD5E",
"_  c #9AB55E",
"`  c #A1B45F",
"'  c #ACAE63",
"]  c #A3BD62",
"[  c #C78145",
"{  c #C98446",
"}  c #CF8D46",
"|  c #C2874B",
" . c #C78D4B",
".. c #C98F4B",
"X. c #C9904A",
"o. c #C38252",
"O. c #C98452",
"+. c #CE8B53",
"@. c #D28D55",
"#. c #CB9150",
"$. c #D79155",
"%. c #DC9F55",
"&. c #DC9459",
"*. c #DF9A5B",
"=. c #DDA84D",
"-. c #E2AB4D",
";. c #E8AD4F",
":. c #E5B24D",
">. c #E9B54F",
",. c #EEBD4F",
"<. c #E4A755",
"1. c #E7AE51",
"2. c #E9AB56",
"3. c #E9AE5A",
"4. c #EBB650",
"5. c #EEBA52",
"6. c #F0BE51",
"7. c #A4C263",
"8. c #BCCD6E",
"9. c #BED06E",
"0. c #BFD370",
"q. c #F0C347",
"w. c #F3C253",
"e. c #F4C151",
"r. c #F7C651",
"t. c #FACD52",
"y. c #FDD253",
"u. c #FFDC54",
"i. c #FFD45B",
"p. c #FFD05C",
"a. c #FFDA58",
"s. c #FFD85C",
"d. c #FFDD5D",
"f. c #FFE358",
"g. c #FFE459",
"h. c #FFE25D",
"j. c #FFE45E",
"k. c #C0D26F",
"l. c #C1D370",
"z. c #C0D470",
"x. c #B1E0BE",
"c. c #9BD4C3",
/* pixels */
"m m m m m m m m 7.7.7.7.7.7.] ] ] ] ] ] 8.8.8.8.8.8.8.8.8.8.8.8.8.9.z.z.z.z.z.z.z.z.z.z.z.z.z.z.",
"m m m m m m m m 7.7.7.7.7.7.7.7.7.7.7.7.z.z.z.z.z.z.z.z.z.z.z.z.z.z.0.l.z.z.z.z.z.z.z.z.z.z.z.z.",
"m m m m m m m m 7.7.7.7.7.7.] ] ] ] ] ] 8.8.8.8.8.8.8.8.8.8.8.8.8.9.z.z.0.z.z.z.z.z.z.z.z.z.z.z.",
"m m m m m m m m 7.7.7.] 7.7.P 6 < * * * , , , , , , , , , , 3 4 6 ~ z.z.8.z.z.z.z.z.z.z.z.z.z.z.",
"m m m m m m m m 7.7.7.7.] U j *.$.+.@.@.@.@.@.@.@.@.@.@.@.@.+.$.*.j U ] z.z.0.z.z.z.z.z.z.z.z.z.",
"m m m m m m m m 7.] 7.7.T - 3.j.d.i.s.s.s.s.s.s.s.s.s.s.s.s.i.d.j.3.- T z.z.9.z.z.z.z.z.z.z.z.z.",
"m m m m m m m m 7.7.] L ! 3.p.a.f.f.g.g.g.g.g.g.g.g.g.g.g.g.f.f.a.p.3.! W 9.k.9.l.z.z.z.z.z.z.z.",
"m m m m m m m m ] 7.] : &.h.u.:.=.=.=.=.=.=.=.=.=.=.=.=.=.=.=.=.:.u.h.&., 8.z.8.l.z.z.z.z.z.z.z.",
"m m m m 7.7.7.7.] 7.] , @.w.u.:.g q y e e e e e e e e e e y q g :.u.w.@.3 8.z.9.l.z.z.z.z.z.z.z.",
"m m m m 7.7.7.7.] 7.] 3 O.>.4.| 1 $ - 1 w 1 1 1 1 1 1 w 1 - $ 1 | 4.>.O.3 8.z.9.l.z.z.z.z.z.z.z.",
"m m m m 7.7.7.7.] 7.] , +.6...= ; q q s l k k k k k k l s q q ; = ..6.+.3 8.z.9.l.z.z.z.z.z.z.z.",
"m m m m 7.7.7.7.] 7.] , +.5. .= ; q q w i l z l l z l i w q q ; =  .5.+.3 8.z.9.l.z.z.z.z.z.z.z.",
"m m m m 7.7.7.7.] 7.] : &.r.X.= ; q 1 ; q i s i i s i q ; 1 q ; = X.r.&., 8.z.8.l.z.z.z.7.7.7.7.",
"m m m m 7.7.7.7.] 7.] , $.e...= ; q 1 1 1 q q q q q q 1 1 1 q ; = ..e.$., 8.z.9.l.z.z.z.7.7.7.7.",
"m m m m 7.7.7.7.7.7.7.( Q E %.#.y 1 w w q 1 1 1 1 1 1 q w w 1 y #.%.E / ' 9.k.0.z.z.z.z.7.7.7.7.",
"m m m m 7.7.7.7.7.] 7.] U - ;.,.y # ; ; ; ; ; ; ; ; ; ; ; ; # y ,.;.- ^ 8.0.9.z.z.z.z.z.7.7.7.7.",
"m m m m m m m m ] 7.] 9 f N J S & o @ @ @ @ @ @ @ @ @ @ @ @ o & S J N f 0 8.l.9.l.z.z.z.z.z.z.z.",
"m m m m m m m m ] 7.] < @.S M O X o . . . . . . . . . . . . o X O M S @.< 8.z.8.l.z.z.z.z.z.z.z.",
"m m m m m m m m ] 7.] 5 l A +   . X X X X X X X X X X X X X X .   + A l 6 8.z.9.l.z.z.z.z.z.z.z.",
"m m m m m m m m ] 7.] 5 l A +   . X X X X X X X X X X X X X X .   + A l 6 8.z.9.l.z.z.z.z.z.z.z.",
"m m m m m m m m ] 7.] 5 l A +   . X X X X X X X X X X X X X X .   + A l 6 8.z.9.l.z.z.z.z.z.z.z.",
"m m m m m m m m ] 7.] 5 l A +   . X X X X X X X X X X X X X X .   + A l 6 8.z.9.l.z.z.z.z.z.z.z.",
"m m m m m m m m ] 7.] 6 h Z B + .   o o                 o o   . + B Z h 7 8.z.9.l.z.z.z.z.z.z.z.",
"m m m m m m m m ] 7.] 6 h Z G C O X % % % % % % % % % % % % X O C G Z h 7 8.z.9.l.z.z.z.z.z.z.z.",
"c.c.c.c.m m m m ] 7.] 5 x F H Z B B B B B B B B B B B B B B B B Z H F x 5 ] 7.] l.z.z.z.z.z.z.z.",
"c.c.c.c.m m m m ] 7.] 3 O.:.K C N V V V V V V V V V V V V V V N C K :.O.3 ] 7.] l.z.z.z.z.z.z.z.",
"c.c.c.c.m m m m ] 7.] , O.5.q.D w > 1 1 1 1 1 1 1 1 1 1 1 1 > w D q.5.O., ] 7.] l.z.z.z.z.z.z.z.",
"c.c.c.c.m m m m ] 7.] 3 O.5.t.=.d w i i i i i i i i i i i i w d =.t.5.O.3 ] 7.] l.z.z.z.z.z.z.z.",
"c.c.c.c.m m m m v m v , O.4.y.>.{ d l l l l l l l l l l l l d { >.y.4.O.3 8.z.9.l.z.z.z.z.z.z.z.",
"c.c.c.c.m m m m v m v , O.4.y.:.[ p k k k k k k k k k k k k p [ :.y.4.O.3 8.z.9.l.z.z.z.z.z.z.z.",
"c.c.c.c.m m m m v m v : $.r.y.-.d u i i i i i i i i i i i i u d -.y.r.$., 8.z.8.l.z.z.z.z.z.z.z.",
"c.c.c.c.m m m m n m v 2 o.1.t.>.} l { { { { { { { { { { { { l } >.t.1.o.9 8.l.9.l.z.z.z.z.z.z.z.",
"c.c.c.c.m m m m m b m c I a 2.t.w.>.,.,.,.,.,.,.,.,.,.,.,.,.>.w.t.2.a I ` 7.] 7.7.7.7.7.z.z.z.z.",
"c.c.c.c.m m m m m m m m _ 8 o.2.2.<.<.<.<.<.<.<.<.<.<.<.<.<.<.2.2.o.8 _ 7.7.7.7.7.7.7.7.z.z.z.z.",
"c.c.c.c.m m m m m m m b 7.7.0 t r ; ; ; ; ; ; ; ; ; ; ; ; ; ; r t 0 7.7.] 7.7.7.7.7.7.7.z.z.z.z.",
"c.c.c.c.m m m m m m m b 7.7.) R Y U U U U U U U U U U U U U U Y R ) 7.7.] 7.7.7.7.7.7.7.z.z.z.z.",
"c.c.c.c.c.c.c.c.m m m m m b m m 7.7.7.7.7.7.7.7.7.7.7.7.7.7.7.7.7.7.] 7.7.7.7.7.7.7.7.7.7.7.7.7.",
"c.c.c.c.c.c.c.c.m m m m m m m m 7.7.7.7.7.7.7.7.7.7.7.7.7.7.7.7.7.7.7.7.7.7.7.7.7.7.7.7.7.7.7.7.",
"c.c.c.c.c.c.c.c.m m m m m m m b ] ] ] ] ] ] ] ] ] ] ] ] ] ] ] ] ] 7.7.7.7.7.7.7.7.7.7.7.7.7.7.7.",
"c.c.c.c.c.c.c.c.m m m m m m m m 7.7.7.7.7.7.7.7.7.7.7.7.7.7.7.7.7.7.7.7.7.7.7.7.7.7.7.7.7.7.7.7.",
"c.c.c.c.c.c.c.c.c.c.c.c.m m m m m m m m m m m m m m m m m m m m m m m m 7.7.7.7.m m m m m m m m ",
"c.c.c.c.c.c.c.c.c.c.c.c.m m m m m m m m m m m m m m m m m m m m m m m m 7.7.7.7.m m m m m m m m ",
"c.c.c.c.c.c.c.c.c.c.c.c.m m m m m m m m m m m m m m m m m m m m m m m m 7.7.7.7.m m m m m m m m ",
"c.c.c.c.c.c.c.c.c.c.c.c.m m m m m m m m m m m m m m m m m m m m m m m m 7.7.7.7.m m m m m m m m ",
"c.c.c.c.c.c.c.c.c.c.c.c.c.c.c.c.c.c.c.c.x.x.x.x.m m m m m m m m m m m m m m m m m m m m m m m m ",
"c.c.c.c.c.c.c.c.c.c.c.c.c.c.c.c.c.c.c.c.x.x.x.x.m m m m m m m m m m m m m m m m m m m m m m m m ",
"c.c.c.c.c.c.c.c.c.c.c.c.c.c.c.c.c.c.c.c.x.x.x.x.m m m m m m m m m m m m m m m m m m m m m m m m ",
"c.c.c.c.c.c.c.c.c.c.c.c.c.c.c.c.c.c.c.c.x.x.x.x.m m m m m m m m m m m m m m m m m m m m m m m m "
};
