/* XPM */
static char *d3bad8de1b1b4e10fb460183b70609b9NUh08koVNz5jomtL[] = {
/* columns rows colors chars-per-pixel */
"48 48 155 2 ",
"   c #7E6D4D",
".  c #964C3D",
"X  c #984E3E",
"o  c #9D553E",
"O  c #A15A3F",
"+  c #AA6934",
"@  c #BE7F33",
"#  c #905247",
"$  c #9B5241",
"%  c #975B47",
"&  c #9E5C46",
"*  c #88664D",
"=  c #806E4F",
"-  c #86704F",
";  c #806F50",
":  c #897556",
">  c #8F7D52",
",  c #8D7758",
"<  c #937552",
"1  c #927B53",
"2  c #A96347",
"3  c #A2674D",
"4  c #AB654A",
"5  c #A5694A",
"6  c #AB694A",
"7  c #BC6E42",
"8  c #B26E4B",
"9  c #BD7242",
"0  c #B8704F",
"q  c #BE7552",
"w  c #B57B57",
"e  c #B87E56",
"r  c #B17A60",
"t  c #C57E45",
"y  c #CA7D58",
"u  c #759454",
"i  c #7B9F57",
"p  c #7A9F59",
"a  c #7CA057",
"s  c #78A158",
"d  c #C5912D",
"f  c #CB8D3E",
"g  c #D8AA37",
"h  c #D7A63E",
"j  c #DBAF3A",
"k  c #DEB13E",
"l  c #8A8353",
"z  c #958155",
"x  c #998854",
"c  c #998857",
"v  c #968558",
"b  c #9A8C59",
"n  c #959759",
"m  c #97995A",
"M  c #9D9A5A",
"N  c #A28957",
"B  c #A18E5A",
"V  c #BD8457",
"C  c #BD8458",
"Z  c #A3935E",
"A  c #9BA75C",
"S  c #9BAB5C",
"D  c #9BB25E",
"F  c #9EB85F",
"G  c #A0A25B",
"H  c #A0A95E",
"J  c #A69161",
"K  c #A6A461",
"L  c #AAA663",
"P  c #A4BF62",
"I  c #B4B767",
"U  c #C68244",
"Y  c #C88446",
"T  c #C78A44",
"R  c #CB8A47",
"E  c #CE8C48",
"W  c #D48C4E",
"Q  c #CD9241",
"!  c #D19546",
"~  c #D7904E",
"^  c #D69C4C",
"/  c #DA9D4A",
"(  c #C08451",
")  c #C18958",
"_  c #D58B51",
"`  c #D98F53",
"'  c #DA8D5D",
"]  c #CA9652",
"[  c #DB9452",
"{  c #DE9A53",
"}  c #E39F53",
"|  c #E69D5B",
" . c #D8A740",
".. c #DDAE45",
"X. c #D8A04D",
"o. c #DEB142",
"O. c #DFA454",
"+. c #DAA659",
"@. c #EEBC4F",
"#. c #F0BE4E",
"$. c #E4A454",
"%. c #E4AA54",
"&. c #EAAE54",
"*. c #E9A55B",
"=. c #E3AE5C",
"-. c #EDB455",
";. c #EBB950",
":. c #EFB059",
">. c #F2BA56",
",. c #F5BC5B",
"<. c #DC9260",
"1. c #EEAB63",
"2. c #F0AD61",
"3. c #EBBC62",
"4. c #F8B76A",
"5. c #FCBB6D",
"6. c #A4C263",
"7. c #BCCD6E",
"8. c #BFD16F",
"9. c #BFD270",
"0. c #F0C847",
"q. c #F5C84F",
"w. c #FCCF4E",
"e. c #F2C050",
"r. c #FAC354",
"t. c #F7C951",
"y. c #FCCC56",
"u. c #FAC45C",
"i. c #FECB5C",
"p. c #FFD357",
"a. c #FFDE5B",
"s. c #FFE356",
"d. c #FFE15D",
"f. c #FFEE58",
"g. c #FFF05B",
"h. c #C0D16F",
"j. c #C0D470",
"k. c #FAC462",
"l. c #FFD760",
"z. c #FFC271",
"x. c #FFD578",
"c. c #FFE169",
"v. c #FFEC6C",
"b. c #FFF260",
"n. c #FFF965",
"m. c #FFF46F",
"M. c #FFF96F",
"N. c #FFEB74",
"B. c #FFE77A",
"V. c #FFEB7A",
"C. c #FFF772",
"Z. c #FFF97D",
"A. c #B1E0BE",
"S. c #FFF281",
"D. c #9BD4C3",
/* pixels */
"D.D.D.D.D.D.D.D.D.D.D.D.D.D.D.D.D.D.D.D.D.D.D.D.s s s s s s s s s s s s s s s s s s s s s s s s ",
"D.D.D.D.D.D.D.D.D.D.D.D.D.D.D.D.D.D.D.D.D.D.D.D.s s s s s s s s s s s s s s s s s s s s s s s s ",
"D.D.D.D.D.D.D.D.D.D.D.D.D.D.D.D.D.D.D.D.D.D.D.D.s s s s s s s s s s s s s s s s s s s s s s s s ",
"D.D.D.D.D.D.D.D.D.D.D.D.D.D.D.D.D.D.D.D.D.D.D.D.s s s s s s s s s s s s s s s s s s s s s s s s ",
"D.D.D.D.D.D.D.D.D.D.D.D.s s s s s s s s s s s s s s s s s s s s s s s s 6.6.6.6.6.6.6.6.6.6.6.6.",
"D.D.D.D.D.D.D.D.D.D.D.D.s s s s s s s s s s s s s s s s s s s s s s s s 6.6.6.6.6.6.6.6.6.6.6.6.",
"D.D.D.D.D.D.D.D.D.D.D.D.s s s s s s s s s s s s s s s s s s s s s s s s 6.6.6.6.6.6.6.6.6.6.6.6.",
"D.D.D.D.D.D.D.D.D.D.D.D.s s s s s s s s s s s s s s s s s s s s s s s s 6.6.6.6.6.6.6.6.6.6.6.6.",
"A.A.A.A.A.A.A.A.s s s s s s s s 6.6.6.6.6.6.6.6.6.6.6.6.6.6.6.6.6.6.6.6.6.6.6.6.6.6.6.6.6.6.6.6.",
"A.A.A.A.A.A.A.A.s s s s s s s s 6.6.6.6.6.6.6.6.6.6.6.6.6.6.6.6.6.6.6.6.6.6.6.6.6.6.6.6.6.6.6.6.",
"A.A.A.A.A.A.A.A.s s s s s s s s 6.6.6.6.6.6.6.6.6.6.6.6.6.6.6.6.6.6.6.6.6.6.6.6.6.6.6.6.6.6.6.6.",
"A.A.A.A.A.A.A.A.s s s s s p i i 6.6.6.6.6.6.6.6.6.6.6.6.6.6.6.6.P P P 6.6.6.6.6.6.6.6.6.6.6.6.6.",
"D.D.D.D.s s s s s s s s 6.6.6.6.6.6.6.6.6.6.6.6.6.6.6.6.6.6.6.6.6.6.6.6.6.6.6.6.6.6.6.6.6.6.6.6.",
"D.D.D.D.s s s s s s s s 6.6.6.6.6.6.6.6.6.6.6.6.6.6.6.6.6.6.6.6.6.6.6.6.6.6.6.6.6.6.6.6.6.6.6.6.",
"D.D.D.D.s s s s s i a s F < r z 6.6.6.6.6.6.6.6.6.6.6.6.6.6.6.6.z r < F 6.P P 6.6.6.6.6.6.6.6.6.",
"D.D.D.D.s s s s s s s u B 8 ' 6 M S S A S S S S S S S S A S S M 6 ' 8 B D 6.6.6.6.6.6.6.6.6.6.6.",
"D.D.D.D.s s s s P 6.6.* q %.r.^ 5 # % % % % % % % % % % % % # 5 ^ r.%.q * 6.6.P j.j.j.j.j.j.j.j.",
"D.D.D.D.s s s s P A N ( ,.p.f.y._ y <.<.<.' ' ' ' ' ' <.<.<.y _ y.f.p.,.( N A P j.h.j.j.j.j.j.j.",
"D.D.D.D.s s p s 6.> 8 u.b.a.d.i.} | 5.5.4.5.5.5.5.5.5.4.5.5.| } i.d.a.b.u.8 > 6.j.8.j.j.j.j.j.j.",
"D.D.D.D.s s p s 6.> 0 i.n.d.,.$.{ | *.*.2.5.z.5.5.z.5.2.*.*.| { $.,.d.n.i.0 > 6.j.7.j.j.j.j.j.j.",
"D.D.D.D.s s p s s   6 ,.b.a.&._ [ [ ~ W { 1.1.1.1.1.1.{ W ~ [ [ _ &.a.b.,.6 b j.j.8.j.j.6.6.6.6.",
"D.D.D.D.s s p s s = 6 ,.b.d.-.[ [ { [ [ [ { { { { { { [ [ [ { [ [ -.d.b.,.6 b j.j.8.j.j.6.6.6.6.",
"D.D.D.D.s s p s s ; 6 >.g.d.&._ _ [ ` ` _ _ W _ _ W _ _ ` ` [ _ _ &.d.g.>.6 b j.j.8.j.j.6.6.6.6.",
"D.D.D.D.s s p s s   6 k.n.a.-.{ { $.} } } $.$.$.$.$.$.} } } $.{ { -.a.n.k.6 b j.j.8.j.j.6.6.6.6.",
"s s s s s s p s s   6 x.Z.a.t.y.y.y.y.y.y.y.y.p.y.y.y.y.y.y.y.y.y.t.a.Z.x.6 c j.j.8.j.j.j.j.j.j.",
"s s s s s s p s s - 4 =.c.N.C.M.M.M.M.M.M.M.m.v.v.m.M.M.M.M.M.M.M.C.N.c.=.4 B j.j.8.j.j.j.j.j.j.",
"s s s s s s p s s , 2 @ o.N.S.B.B.B.B.B.B.B.B.V.V.B.B.B.B.B.B.B.B.S.N.o.@ 2 J j.j.8.j.j.j.j.j.j.",
"s s s s s s p s s : 4 f g ..] C C C C ) e V 3.v.l.+.C V ) C C C C ] ..g f 4 Z j.j.8.j.j.j.j.j.j.",
"s s s s s s p s 6.v 4 ^ j d + $ o o o O . o X.s.w.T o X O o o o $ + d j ^ 4 B j.j.8.j.j.j.j.j.j.",
"s s s s s s p s 6.v 4 ! k h T 9 9 9 9 9 7 9 / t.t./ 9 7 9 9 9 9 9 T h k ! 4 B j.j.8.j.j.j.j.j.j.",
"s s s s s s p s 6.1 q &.0. .U 7 7 9 9 9 7 7 t R E t 7 7 9 9 9 7 7 U  .0.&.q c j.j.7.j.j.j.j.j.j.",
"s s s s s s s s 6.c 6 { #...Q Y Y Y Y Y Y Y Y t t Y Y Y Y Y Y Y Y Q ..#.{ 6 Z j.j.9.j.j.j.j.j.j.",
"s s s s s s s s P P H 3 [ e.q.;.@.@.@.@.@.@.@.@.@.@.@.@.@.@.@.@.;.q.e.[ 3 I 7.8.j.j.j.j.j.j.j.j.",
"s s s s s s s s P 6.6.l w { :.O.$.$.$.$.$.$.%.%.%.%.$.$.$.$.$.$.O.:.{ w b j.j.8.j.j.j.j.j.j.j.j.",
"s s s s s s s s 6.P 6.6.G & 4 & & & & & & & & & & & & & & & & & & 4 & I j.j.h.j.j.j.j.j.j.j.j.j.",
"s s s s s s s s 6.6.6.6.P m M m n n n n n n m n K K K K K K K K L L L 8.j.9.h.j.j.j.j.j.j.j.j.j.",
"s s s s 6.6.6.6.6.6.6.P 6.6.6.6.j.j.j.j.j.j.j.j.j.j.j.j.j.j.j.j.j.j.j.j.8.j.j.j.j.j.j.j.j.j.j.j.",
"s s s s 6.6.6.6.6.6.6.6.6.6.6.6.j.j.j.j.j.j.j.j.j.j.j.j.j.j.j.j.j.j.j.j.j.j.j.j.j.j.j.j.j.j.j.j.",
"s s s s 6.6.6.6.6.6.6.6.6.P P P 8.8.8.8.8.8.8.8.8.8.8.8.8.8.8.8.8.8.8.j.j.j.j.j.j.j.j.j.j.j.j.j.",
"s s s s 6.6.6.6.6.6.6.6.6.6.6.6.j.j.j.j.j.j.j.j.j.j.j.j.j.j.j.j.j.j.j.j.j.j.j.j.j.j.j.j.j.j.j.j.",
"s s s s 6.6.6.6.6.6.6.6.6.6.6.6.j.j.j.j.j.j.j.j.j.j.j.j.j.j.j.j.j.j.j.j.j.j.j.j.j.j.j.j.6.6.6.6.",
"s s s s 6.6.6.6.6.6.6.6.6.6.6.6.j.j.j.j.j.j.j.j.j.j.j.j.j.j.j.j.j.j.j.j.j.j.j.j.j.j.j.j.6.6.6.6.",
"s s s s 6.6.6.6.6.6.6.6.6.6.6.6.j.j.j.j.j.j.j.j.j.j.j.j.j.j.j.j.j.j.j.j.j.j.j.j.j.j.j.j.6.6.6.6.",
"s s s s 6.6.6.6.6.6.6.6.6.6.6.6.j.j.j.j.j.j.j.j.j.j.j.j.j.j.j.j.j.j.j.j.j.j.j.j.j.j.j.j.6.6.6.6.",
"s s s s 6.6.6.6.6.6.6.6.6.6.6.6.j.j.j.j.6.6.6.6.j.j.j.j.j.j.j.j.j.j.j.j.j.j.j.j.j.j.j.j.j.j.j.j.",
"s s s s 6.6.6.6.6.6.6.6.6.6.6.6.j.j.j.j.6.6.6.6.j.j.j.j.j.j.j.j.j.j.j.j.j.j.j.j.j.j.j.j.j.j.j.j.",
"s s s s 6.6.6.6.6.6.6.6.6.6.6.6.j.j.j.j.6.6.6.6.j.j.j.j.j.j.j.j.j.j.j.j.j.j.j.j.j.j.j.j.j.j.j.j.",
"s s s s 6.6.6.6.6.6.6.6.6.6.6.6.j.j.j.j.6.6.6.6.j.j.j.j.j.j.j.j.j.j.j.j.j.j.j.j.j.j.j.j.j.j.j.j."
};
