/* XPM */
static char *db206bd6ee6648a4b7b8759df70503d5oLx60LjPQ1bPhftx[] = {
/* columns rows colors chars-per-pixel */
"48 48 145 2 ",
"   c #6D3D49",
".  c #734446",
"X  c #774845",
"o  c #7A4A45",
"O  c #704048",
"+  c #8E5F3D",
"@  c #97643B",
"#  c #AF7D37",
"$  c #854C46",
"%  c #914B44",
"&  c #845542",
"*  c #8C5446",
"=  c #895941",
"-  c #9A5545",
";  c #9D5C46",
":  c #9E5D48",
">  c #A15E47",
",  c #A05D48",
"<  c #9D634B",
"1  c #9F6C4F",
"2  c #916E51",
"3  c #9B7452",
"4  c #A46146",
"5  c #A96446",
"6  c #A66E47",
"7  c #AA6947",
"8  c #A6644A",
"9  c #AC634C",
"0  c #AD694A",
"q  c #B36643",
"w  c #B56C44",
"e  c #B86D42",
"r  c #A77048",
"t  c #BE7443",
"y  c #B17148",
"u  c #B67A49",
"i  c #BB7F49",
"p  c #AD6E53",
"a  c #B16650",
"s  c #A87556",
"d  c #AE7951",
"f  c #B07B52",
"g  c #C07743",
"h  c #C47B42",
"j  c #C87F42",
"k  c #C27554",
"l  c #C07B50",
"z  c #799E57",
"x  c #7A9F58",
"c  c #78A158",
"v  c #BE8C2E",
"b  c #BE8C33",
"n  c #BD8339",
"m  c #C5942F",
"M  c #CE9E2E",
"N  c #D29F2D",
"B  c #C18E30",
"V  c #C4883B",
"C  c #C09130",
"Z  c #CC9A31",
"A  c #D09F38",
"S  c #D6A639",
"D  c #ECB73D",
"F  c #848250",
"G  c #9D8656",
"H  c #918854",
"J  c #9A885A",
"K  c #8D9256",
"L  c #929156",
"P  c #959659",
"I  c #9D925B",
"U  c #979959",
"Y  c #9B9A5C",
"T  c #BD8241",
"R  c #BB804A",
"E  c #A78F5B",
"W  c #A49E5F",
"Q  c #99A25B",
"!  c #9FA85D",
"~  c #9FB45F",
"^  c #A1AE5F",
"/  c #A79360",
"(  c #A59E60",
")  c #A6A461",
"_  c #AAA563",
"`  c #A1AF62",
"'  c #AEAC64",
"]  c #AFB466",
"[  c #A4BF63",
"{  c #B7BE6C",
"}  c #C68344",
"|  c #C98446",
" . c #C88841",
".. c #C1874B",
"X. c #C4884E",
"o. c #CE8F4E",
"O. c #D08F40",
"+. c #D08F49",
"@. c #C69442",
"#. c #CF9349",
"$. c #D39142",
"%. c #D2944A",
"&. c #D69F4E",
"*. c #D99D4A",
"=. c #D18B55",
"-. c #D19453",
";. c #D19857",
":. c #DC9C52",
">. c #DBA34B",
",. c #DEA354",
"<. c #E4B542",
"1. c #E6B845",
"2. c #EDBC4F",
"3. c #E3A755",
"4. c #E7AB54",
"5. c #EBAB56",
"6. c #E6A45C",
"7. c #EEAE58",
"8. c #E8B750",
"9. c #ECBA51",
"0. c #EDB45A",
"q. c #F2BE53",
"w. c #F1B35C",
"e. c #FBBB5B",
"r. c #A4C263",
"t. c #B8C66B",
"y. c #BFCF6E",
"u. c #BFD16F",
"i. c #BFD370",
"p. c #F4C54F",
"a. c #EFC250",
"s. c #F5C551",
"d. c #F7C951",
"f. c #FBCD51",
"g. c #F9C35D",
"h. c #FFD753",
"j. c #FFD95C",
"k. c #FFE45B",
"l. c #FFEC5D",
"z. c #FFF35D",
"x. c #C0D26F",
"c. c #C0D470",
"v. c #FFD462",
"b. c #B1E0BE",
"n. c #9BD4C3",
/* pixels */
"c.c.c.c.c.c.c.c.c.c.c.c.r.r.[ r.c.c.c.c.c.c.c.c.c.c.c.c.r.r.r.r.r.r.r.r.r.r.r.r.r.r.r.r.c c c c ",
"c.c.c.c.c.c.c.c.c.c.c.c.r.[ r.r.W / I I I I I I I I I I H H J L r.r.[ r.r.r.r.r.r.r.r.r.c c c c ",
"c.c.c.c.c.c.c.c.c.c.c.c.r.r.[ ! 8 k 0 0 0 0 0 0 0 0 0 0 0 0 k 8 ! [ r.r.r.r.r.r.r.r.r.r.c c c c ",
"c.c.c.c.c.c.c.c.c.c.c.u.r.r.F p 0.v.g.g.g.g.g.g.g.g.g.g.g.g.v.0.p F r.r.[ r.r.r.r.r.r.r.c c c c ",
"c.c.c.c.c.c.c.c.c.c.c.u.t.' f 6.j.z.l.l.l.l.l.l.l.l.l.l.l.l.z.j.6.d Y ~ [ r.r.r.r.r.r.r.c c c c ",
"c.c.c.c.c.c.c.c.c.u.c.c.) ; 0.k.d.2.s.s.s.s.s.s.s.s.s.s.s.s.2.d.k.0.- P r.r.[ r.r.r.r.r.c c c c ",
"c.c.c.c.c.c.c.c.c.u.c.c.W 8 w.k.f.>.i u R i i i i i i R u i >.f.k.w.8 P r.r.[ r.r.r.r.r.c c c c ",
"c.c.c.c.c.c.c.c.c.u.c.c._ : :.s.9...- - > , , , , , , > - - ..9.s.:.: U r.r.[ r.r.r.r.r.c c c c ",
"c.c.c.c.c.c.c.c.c.u.c.c.) ; 3.9.i - , w t e e e e e e t w , - i 9.3.; P r.r.[ r.r.r.r.r.c c c c ",
"c.c.c.c.c.c.c.c.c.u.c.c.) ; 4.8.7 % 5 w t j j j j j j t w 5 % 7 8.4.; P r.r.[ r.r.r.r.r.c c c c ",
"c.c.c.c.c.c.c.c.c.u.c.c.) ; 5.9.y - 4 ; 5 t g t t g t 5 ; 4 - y 9.5.; P r.r.[ r.r.r.r.r.c c c c ",
"c.c.c.c.c.c.c.c.c.u.c.c.( 9 e.a.7 % 4 , , 5 5 5 5 5 5 , , 4 % 7 a.e.9 P r.r.[ r.r.r.r.r.c c c c ",
"c.c.c.c.c.c.c.c.c.x.c.x.] 3 ;.,.X.7 4 4 4 , , , , , , 4 4 4 7 X.,.;.3 Q r.r.r.r.c c c c c c c c ",
"c.c.c.c.c.c.c.c.c.c.c.y.c.i.3 l 9.&., ; 4 4 , 4 4 , 4 4 ; , &.9.l 2 r.r.[ r.r.r.c c c c c c c c ",
"c.c.c.c.c.c.c.c.c.i.c.c.{ E r V D @.$ $ * * * * * * * * $ $ @.D V 6 G ` r.r.r.r.c c c c c c c c ",
"c.c.c.c.c.c.c.c.c.u.c.c._ 9 $.M v @ . O X X X X X X X X O . @ v M $.9 Y r.r.[ r.c c c c c c c c ",
"c.c.c.c.c.c.c.c.c.u.c.c._ , $.C + X X X X X X X X X X X X X X + C $., Y r.r.[ r.c c c c c c c c ",
"c.c.c.c.c.c.c.c.c.u.c.c._ : O.b o   X o X X X X X X X X o o   o b O.: Y r.r.[ r.c c c c c c c c ",
"c.c.c.c.c.c.c.c.c.u.c.c._ : O.b = O X X X X X X X X X X X X O = b O.: Y r.r.[ r.c c c c c c c c ",
"c.c.c.c.c.c.c.c.c.u.c.c._ : O.b = O X X X X X X X X X X X X O = b O.: Y r.r.[ r.c c c c c c c c ",
"c.c.c.c.r.r.r.r.c.u.c.c._ : $.b &   X X X X X X X X X X o X   & b $.: Y r.r.[ r.c c c c c c c c ",
"c.c.c.c.r.r.r.r.c.u.c.c._ : $.b &   X X X X X X X X X X o X   & b $.: Y r.r.[ r.c c c c c c c c ",
"c.c.c.c.r.r.r.r.c.u.c.c._ ,  .m # =     O             O     = # m  ., Y r.r.[ r.c c c c c c c c ",
"c.c.c.c.r.r.r.r.c.u.c.c._ , } M N # = & = = = = = = = = & = # N M } , Y r.r.[ r.c c c c c c c c ",
"c.c.c.c.c.c.c.c.c.u.c.c._ ; +.S Z B b b b b b b b b b b b b B Z S +.; U c c z c c c c c n.n.n.n.",
"c.c.c.c.c.c.c.c.c.u.c.c._ ; :.1.A b n n n n n n n n n n n n b A 1.:.; U c c z c c c c c n.n.n.n.",
"c.c.c.c.c.c.c.c.c.u.c.c._ ; ,.p.<.T , ; , , , , , , , , ; , T <.p.,.; P c c z c c c c c n.n.n.n.",
"c.c.c.c.c.c.c.c.c.u.c.c._ ; :.f.p.#.q q w w w w w w w w q q #.p.f.:.; P c c z c c c c c n.n.n.n.",
"c.c.c.c.c.c.c.c.c.u.c.c._ : :.d.s.>.g g j h h h h h h j g g >.d.d.:.: U c c z c c c c c n.n.n.n.",
"c.c.c.c.c.c.c.c.c.u.c.c._ : :.d.d.*.t t g g g g g g g g t t *.d.d.:.: U c c z c c c c c n.n.n.n.",
"c.c.c.c.c.c.c.c.c.u.c.c.( 9 5.h.s.%.q q e e e e e e e e q q %.s.h.5.9 P c c z c c c c c n.n.n.n.",
"c.c.c.c.c.c.c.c.c.c.c.i.' < -.q.d.>.| } | | | | | | | | } | >.d.q.-.< Y c c c c c c c c n.n.n.n.",
"r.r.r.r.c.c.c.c.c.i.c.y.[ ^ 1 =.q.f.2.2.2.2.2.2.2.2.2.2.2.2.f.q.=.1 ^ [ x c c c c c c c n.n.n.n.",
"r.r.r.r.c.c.c.c.c.c.c.u.r.r.K s o.7.3.3.3.3.3.3.3.3.3.3.3.3.7.o.s K r.r.z c c c c c c c n.n.n.n.",
"r.r.r.r.c.c.c.c.c.c.c.c.r.[ r.~ < a ; ; ; ; ; ; ; ; ; ; ; ; a < ~ r.[ r.c c c c c c c c n.n.n.n.",
"r.r.r.r.c.c.c.c.c.c.c.c.r.r.r.r.Q Y P P P P P P P P P P P P Y Q r.r.r.r.c c c c c c c c n.n.n.n.",
"r.r.r.r.r.r.r.r.r.r.r.r.r.r.[ r.r.r.r.r.r.r.r.r.r.r.r.r.r.r.r.r.c z c c c c c c n.n.n.n.n.n.n.n.",
"r.r.r.r.r.r.r.r.r.r.r.r.r.r.r.r.r.r.r.r.r.r.r.r.r.r.r.r.r.r.r.r.c c c c c c c c n.n.n.n.n.n.n.n.",
"r.r.r.r.r.r.r.r.r.r.r.r.r.r.r.r.r.[ [ [ [ [ [ [ [ [ [ [ [ [ [ r.c c c c c c c c n.n.n.n.n.n.n.n.",
"r.r.r.r.r.r.r.r.r.r.r.r.r.r.r.r.r.r.r.r.r.r.r.r.r.r.r.r.r.r.r.r.c c c c c c c c n.n.n.n.n.n.n.n.",
"c c c c c c c c r.r.r.r.r.r.r.r.c c c c c c c c c c c c c c c c c c c c n.n.n.n.n.n.n.n.b.b.b.b.",
"c c c c c c c c r.r.r.r.r.r.r.r.c c c c c c c c c c c c c c c c c c c c n.n.n.n.n.n.n.n.b.b.b.b.",
"c c c c c c c c r.r.r.r.r.r.r.r.c c c c c c c c c c c c c c c c c c c c n.n.n.n.n.n.n.n.b.b.b.b.",
"c c c c c c c c r.r.r.r.r.r.r.r.c c c c c c c c c c c c c c c c c c c c n.n.n.n.n.n.n.n.b.b.b.b.",
"c c c c c c c c c c c c c c c c c c c c c c c c b.b.b.b.b.b.b.b.n.n.n.n.n.n.n.n.n.n.n.n.n.n.n.n.",
"c c c c c c c c c c c c c c c c c c c c c c c c b.b.b.b.b.b.b.b.n.n.n.n.n.n.n.n.n.n.n.n.n.n.n.n.",
"c c c c c c c c c c c c c c c c c c c c c c c c b.b.b.b.b.b.b.b.n.n.n.n.n.n.n.n.n.n.n.n.n.n.n.n.",
"c c c c c c c c c c c c c c c c c c c c c c c c b.b.b.b.b.b.b.b.n.n.n.n.n.n.n.n.n.n.n.n.n.n.n.n."
};
