/* XPM */
static char *dbb38a499b604ce1cc900ebdde37e0e9okEatJiUnCvTmqkX[] = {
/* columns rows colors chars-per-pixel */
"48 48 152 2 ",
"   c #6E3E48",
".  c #744546",
"X  c #7A4A45",
"o  c #704048",
"O  c #797E51",
"+  c #92613C",
"@  c #9A6A3C",
"#  c #804D45",
"$  c #8F4D45",
"%  c #934E46",
"&  c #865741",
"*  c #8D5B43",
"=  c #8D5549",
"-  c #8E5A4C",
";  c #965145",
":  c #9A5746",
">  c #9E5C46",
",  c #92574A",
"<  c #9B5649",
"1  c #935B4C",
"2  c #995B4F",
"3  c #8E5E59",
"4  c #935D52",
"5  c #A35F46",
"6  c #95634D",
"7  c #98644E",
"8  c #82764F",
"9  c #8E615B",
"0  c #966252",
"q  c #9A6752",
"w  c #966C50",
"e  c #9C6953",
"r  c #98625D",
"t  c #8F7051",
"y  c #9A7354",
"u  c #977854",
"i  c #9B7B53",
"p  c #A46146",
"a  c #AA6346",
"s  c #AA6A47",
"d  c #A5604A",
"f  c #AD644D",
"g  c #AE6A48",
"h  c #B16240",
"j  c #B56C44",
"k  c #BB6F42",
"l  c #B26D4B",
"z  c #B77144",
"x  c #BC7343",
"c  c #B5764D",
"v  c #B67849",
"b  c #BE7949",
"n  c #B47C53",
"m  c #C07743",
"M  c #C37B43",
"N  c #C87D42",
"B  c #C27D4D",
"V  c #768252",
"C  c #7E8753",
"Z  c #769D57",
"A  c #799D57",
"S  c #7A9E58",
"D  c #77A058",
"F  c #78A158",
"G  c #B88A2E",
"H  c #BD8537",
"J  c #BE8C33",
"K  c #BD8339",
"L  c #C28E34",
"P  c #C69133",
"I  c #C99433",
"U  c #CC9A35",
"Y  c #CB973F",
"T  c #D39F3E",
"R  c #D5A42D",
"E  c #D2A233",
"W  c #DCA833",
"Q  c #DBAD3D",
"!  c #948454",
"~  c #9F8B58",
"^  c #959559",
"/  c #99975B",
"(  c #96985A",
")  c #9E995D",
"_  c #BD804E",
"`  c #A28257",
"'  c #AE8D5A",
"]  c #BB8559",
"[  c #AA955D",
"{  c #99A05A",
"}  c #9BAD5E",
"|  c #9AB55E",
" . c #A1B45F",
".. c #A6A461",
"X. c #AAA563",
"o. c #A3BD62",
"O. c #B2BD68",
"+. c #C78145",
"@. c #C98446",
"#. c #CF8D46",
"$. c #C2874B",
"%. c #C78D4B",
"&. c #C98F4B",
"*. c #C9904A",
"=. c #C38252",
"-. c #C98452",
";. c #CE8B53",
":. c #D28D55",
">. c #CB9150",
",. c #D79155",
"<. c #DC9F55",
"1. c #DC9459",
"2. c #DF9A5B",
"3. c #DDA84D",
"4. c #E2AB4D",
"5. c #E8AD4F",
"6. c #E5B24D",
"7. c #E9B54F",
"8. c #EEBD4F",
"9. c #E4A755",
"0. c #E7AE51",
"q. c #E9AB56",
"w. c #E9AE5A",
"e. c #EBB650",
"r. c #EEBA52",
"t. c #F0BE51",
"y. c #A4C263",
"u. c #B4C66A",
"i. c #B8C46A",
"p. c #BCCD6E",
"a. c #BFD16F",
"s. c #BFD370",
"d. c #F0C347",
"f. c #F5C352",
"g. c #FACD52",
"h. c #FDD253",
"j. c #FFDD55",
"k. c #FFD25C",
"l. c #FFD95C",
"z. c #FFE45A",
"x. c #C0D26F",
"c. c #C0D470",
"v. c #918E85",
"b. c #90958A",
"n. c #99CDBD",
"m. c #9CCFBE",
"M. c #9AD0BF",
"N. c #B2DFBD",
"B. c #B1E0BE",
"V. c #9AD2C1",
"C. c #9CD3C2",
"Z. c #9BD4C3",
/* pixels */
"Z.Z.Z.Z.Z.Z.Z.Z.Z.Z.Z.Z.Z.Z.V.m.m.n.n.n.n.n.n.n.S S S S S S S S S S F F F F F F F F F F F F F F ",
"Z.Z.Z.Z.Z.Z.Z.Z.Z.Z.Z.Z.C.V.Z.Z.Z.Z.Z.Z.Z.Z.Z.Z.F F F F F F F F F F F F F F F F F F F F F F F F ",
"Z.Z.Z.Z.Z.Z.Z.Z.Z.Z.Z.V.Z.Z.V.n.n.n.n.n.n.n.n.n.A A A A A A A S S S F F F F F F F F F F F F F F ",
"Z.Z.Z.Z.Z.Z.Z.Z.Z.Z.Z.n.Z.Z.b.r r 9 3 3 3 3 3 3 = = = = = = = , 2 8 F F A F F F F F F F F F F F ",
"Z.Z.Z.Z.Z.Z.Z.Z.Z.V.Z.Z.Z O n 2.1.;.:.:.:.:.:.:.:.:.:.:.:.:.;.1.2.n O Z y.y.y.y.y.y.y.y.y.y.y.y.",
"Z.Z.Z.Z.Z.Z.Z.Z.Z.V.Z.Z.V : w.z.l.k.l.l.l.l.l.l.l.l.l.l.l.l.k.l.z.w.: V y.y.o.y.y.y.y.y.y.y.y.y.",
"Z.Z.Z.Z.Z.Z.Z.C.V.C.M.v.] w.k.l.z.z.z.z.z.z.z.z.z.z.z.z.z.z.z.z.l.k.w.] ! o.y.y.y.y.y.y.y.y.y.y.",
"Z.Z.Z.Z.Z.Z.Z.C.n.Z.n.4 1.z.j.6.3.3.3.3.3.3.3.3.3.3.3.3.3.3.3.3.6.j.z.1., o.y.o.y.y.y.y.y.y.y.y.",
"B.B.B.B.B.B.B.N.S F S , :.f.j.6.v p g s s s s s s s s s s g p v 6.j.f.:.1 o.y.o.y.y.y.y.y.y.y.y.",
"B.B.B.B.B.B.B.N.S F S - -.7.e.$.5 % : 5 a 5 5 5 5 5 5 a 5 : % 5 $.e.7.-.6 o.y.o.y.y.y.y.y.y.y.y.",
"B.B.B.B.B.B.B.N.S F S = ;.t.&.; > p p z M m m m m m m M z p p > ; &.t.;.1 o.y.o.y.y.y.y.y.y.y.y.",
"B.B.B.B.B.B.B.N.S F S - ;.r.%.; > p p a j M N M M N M j a p p > ; %.r.;.1 o.y.o.y.y.y.y.y.y.y.y.",
"Z.Z.Z.Z.F F F F S F Z = 1.f.*.; > p 5 > p j z j j z j p > 5 p > ; *.f.1., o.y.o.y.y.y.y.y.y.y.y.",
"Z.Z.Z.Z.F F F F S F Z = ,.f.&.; > p 5 5 5 p p p p p p 5 5 5 p > ; &.f.,., o.y.o.y.y.y.y.y.y.y.y.",
"Z.Z.Z.Z.F F F F F F D C ' _ <.>.g 5 a a p 5 5 5 5 5 5 p a a 5 g >.<._ ' { y.y.y.y.y.y.y.y.y.y.y.",
"Z.Z.Z.Z.F F F F F S F S ^ > 5.8.g $ > > > > > > > > > > > > $ g 8.5.> ^ o.y.o.y.y.y.y.y.y.y.y.y.",
"Z.Z.Z.Z.F F F F o.y.o.y c H W U * o # # # # # # # # # # # # o * U W H c y o.y.o.c.c.c.c.c.c.c.c.",
"Z.Z.Z.Z.F F F F o.y.o.1 :.U G + X o . . . . . . . . . . . . o X + G U :.1 o.y.o.c.c.c.c.c.c.c.c.",
"Z.Z.Z.Z.F F F F o.y.o.0 M I @   . X X X X X X X X X X X X X X .   @ I M 0 o.y.o.c.c.c.c.c.c.c.c.",
"Z.Z.Z.Z.F F F F o.y.o.0 M I @   . X X X X X X X X X X X X X X .   @ I M 0 o.y.o.c.c.c.c.c.c.c.c.",
"Z.Z.Z.Z.F F F F S F S 4 M I @   . X X X X X X X X X X X X X X .   @ I M q p.c.a.c.c.c.c.y.y.y.y.",
"Z.Z.Z.Z.F F F F S F S 4 M I @   . X X X X X X X X X X X X X X .   @ I M q p.c.a.c.c.c.c.y.y.y.y.",
"Z.Z.Z.Z.F F F F S F S 4 b P J @ .   o o                 o o   . @ J P b e p.c.a.c.c.c.c.y.y.y.y.",
"Z.Z.Z.Z.F F F F S F S 0 b P R L + X & & & & & & & & & & & & X + L R P b e p.c.a.c.c.c.c.y.y.y.y.",
"F F F F F F F F S F S 1 B T E P J J J J J J J J J J J J J J J J P E T B q p.c.a.c.c.c.c.c.c.c.c.",
"F F F F F F F F S F S , -.6.Q L H K K K K K K K K K K K K K K H L Q 6.-.7 p.c.a.c.c.c.c.c.c.c.c.",
"F F F F F F F F S F S , -.r.d.Y a < 5 5 5 5 5 5 5 5 5 5 5 5 < a Y d.r.-.6 p.c.a.c.c.c.c.c.c.c.c.",
"F F F F F F F F S F S , -.r.g.3.x a j j j j j j j j j j j j a x 3.g.r.-.7 p.c.a.c.c.c.c.c.c.c.c.",
"F F F F F F F F o.y.o.6 -.e.h.7.@.x M M M M M M M M M M M M x @.7.h.e.-.7 p.c.a.c.c.c.c.c.c.c.c.",
"F F F F F F F F o.y.o.6 -.e.h.6.+.k m m m m m m m m m m m m k +.6.h.e.-.7 p.c.a.c.c.c.c.c.c.c.c.",
"F F F F F F F F o.y.o., 1.f.h.4.x h j j j j j j j j j j j j h x 4.h.f.1.1 p.c.p.c.c.c.c.c.c.c.c.",
"F F F F F F F F o.y.o.w =.0.g.7.#.M @.@.@.@.@.@.@.@.@.@.@.@.M #.7.g.0.=.y p.c.a.c.c.c.c.c.c.c.c.",
"F F F F F F F F y.o.y. .~ l q.g.f.7.8.8.8.8.8.8.8.8.8.8.8.8.7.f.g.q.l [ i.s.a.c.c.c.c.c.c.c.c.c.",
"F F F F F F F F y.y.y.y.| t =.q.q.9.9.9.9.9.9.9.9.9.9.9.9.9.9.q.q.=.u u.c.c.x.c.c.c.c.c.c.c.c.c.",
"F F F F F F F F y.y.y.o.y.y.i f d > > > > > > > > > > > > > > d f ` c.c.p.c.c.c.c.c.c.c.c.c.c.c.",
"F F F F F F F F y.y.y.o.y.y.} ) / ( ( ( ( ( ( ( ............X.X.X.O.c.c.a.c.c.c.c.c.c.c.c.c.c.c.",
"F F F F y.y.y.y.y.y.y.y.y.o.y.y.c.c.c.c.c.c.c.c.c.c.c.c.c.c.c.c.c.c.p.s.c.c.c.c.c.c.c.c.c.c.c.c.",
"F F F F y.y.y.y.y.y.y.y.y.y.y.y.c.c.c.c.c.c.c.c.c.c.c.c.c.c.c.c.c.c.c.c.c.c.c.c.c.c.c.c.c.c.c.c.",
"F F F F y.y.y.y.y.y.y.y.y.y.y.o.a.a.a.a.a.a.a.a.a.a.a.a.a.a.a.a.a.x.c.c.c.c.c.c.c.c.c.c.c.c.c.c.",
"F F F F y.y.y.y.y.y.y.y.y.y.y.y.c.c.c.c.c.c.c.c.c.c.c.c.c.c.c.c.c.c.c.c.c.c.c.c.c.c.c.c.c.c.c.c.",
"F F F F y.y.y.y.y.y.y.y.y.y.y.y.c.c.c.c.c.c.c.c.c.c.c.c.c.c.c.c.c.c.c.c.c.c.c.c.c.c.c.c.y.y.y.y.",
"F F F F y.y.y.y.y.y.y.y.y.y.y.y.c.c.c.c.c.c.c.c.c.c.c.c.c.c.c.c.c.c.c.c.c.c.c.c.c.c.c.c.y.y.y.y.",
"F F F F y.y.y.y.y.y.y.y.y.y.y.y.c.c.c.c.c.c.c.c.c.c.c.c.c.c.c.c.c.c.c.c.c.c.c.c.c.c.c.c.y.y.y.y.",
"F F F F y.y.y.y.y.y.y.y.y.y.y.y.c.c.c.c.c.c.c.c.c.c.c.c.c.c.c.c.c.c.c.c.c.c.c.c.c.c.c.c.y.y.y.y.",
"F F F F y.y.y.y.y.y.y.y.y.y.y.y.c.c.c.c.y.y.y.y.c.c.c.c.c.c.c.c.c.c.c.c.c.c.c.c.c.c.c.c.c.c.c.c.",
"F F F F y.y.y.y.y.y.y.y.y.y.y.y.c.c.c.c.y.y.y.y.c.c.c.c.c.c.c.c.c.c.c.c.c.c.c.c.c.c.c.c.c.c.c.c.",
"F F F F y.y.y.y.y.y.y.y.y.y.y.y.c.c.c.c.y.y.y.y.c.c.c.c.c.c.c.c.c.c.c.c.c.c.c.c.c.c.c.c.c.c.c.c.",
"F F F F y.y.y.y.y.y.y.y.y.y.y.y.c.c.c.c.y.y.y.y.c.c.c.c.c.c.c.c.c.c.c.c.c.c.c.c.c.c.c.c.c.c.c.c."
};
