/* XPM */
static char *_1d5a5ff6b49414d92a1f027b1d732cbkGhWIwUlIeTHAePT[] = {
/* columns rows colors chars-per-pixel */
"48 48 153 2 ",
"   c #776F4E",
".  c #964C3D",
"X  c #984E3E",
"o  c #9D553E",
"O  c #A15A3F",
"+  c #AA6934",
"@  c #BE7F33",
"#  c #905347",
"$  c #9B5241",
"%  c #975B46",
"&  c #9D5C46",
"*  c #88664D",
"=  c #8D7E4E",
"-  c #8F6C50",
";  c #8F7D52",
":  c #937552",
">  c #927B53",
",  c #A96347",
"<  c #A2664D",
"1  c #AB654A",
"2  c #A66A4A",
"3  c #AB694A",
"4  c #BC6E42",
"5  c #B26E4B",
"6  c #BD7242",
"7  c #B8704F",
"8  c #BE7552",
"9  c #B47A56",
"0  c #B87E56",
"q  c #B17A60",
"w  c #C57E45",
"e  c #CA7D58",
"r  c #759454",
"t  c #7B9E57",
"y  c #7A9F59",
"u  c #7CA057",
"i  c #78A158",
"p  c #C5912D",
"a  c #CB8D3E",
"s  c #D8AA37",
"d  c #D7A63E",
"f  c #DBAF3A",
"g  c #DEB13E",
"h  c #8D8253",
"j  c #948155",
"k  c #998854",
"l  c #988857",
"z  c #968558",
"x  c #9A8559",
"c  c #9B8A59",
"v  c #849056",
"b  c #959759",
"n  c #97995A",
"m  c #9E9A5B",
"M  c #A28957",
"N  c #A18E5A",
"B  c #BD8457",
"V  c #BD8458",
"C  c #A3935E",
"Z  c #AB925C",
"A  c #9BA75C",
"S  c #9BAB5C",
"D  c #9BB25E",
"F  c #9EB85F",
"G  c #A0A25B",
"H  c #A0A95E",
"J  c #A69161",
"K  c #A4BF62",
"L  c #B0B566",
"P  c #C68244",
"I  c #C88446",
"U  c #C78A44",
"Y  c #CB8A47",
"T  c #CE8C48",
"R  c #D48C4E",
"E  c #CD9241",
"W  c #D19546",
"Q  c #D7904E",
"!  c #D69C4C",
"~  c #DA9D4A",
"^  c #C08451",
"/  c #C18958",
"(  c #D58B51",
")  c #D98F53",
"_  c #DA8D5D",
"`  c #CA9652",
"'  c #DB9452",
"]  c #DE9A53",
"[  c #E39F53",
"{  c #E69D5B",
"}  c #D8A740",
"|  c #DDAE45",
" . c #D8A04D",
".. c #DEB142",
"X. c #DFA454",
"o. c #DAA659",
"O. c #EEBC4F",
"+. c #F0BE4E",
"@. c #E4A454",
"#. c #E4AA54",
"$. c #EAAE54",
"%. c #E9A55B",
"&. c #E3AE5C",
"*. c #EDB455",
"=. c #EBB950",
"-. c #EFB059",
";. c #F2BA56",
":. c #F5BC5B",
">. c #DC9260",
",. c #EEAB63",
"<. c #F0AD61",
"1. c #EBBC62",
"2. c #F8B76A",
"3. c #FCBB6D",
"4. c #A4C263",
"5. c #BDCF6E",
"6. c #BED06F",
"7. c #BED170",
"8. c #F0C847",
"9. c #F5C84F",
"0. c #FCCF4E",
"q. c #F2C050",
"w. c #FAC354",
"e. c #F7C951",
"r. c #FCCC56",
"t. c #FAC45C",
"y. c #FECB5C",
"u. c #FFD357",
"i. c #FFDE5B",
"p. c #FFE356",
"a. c #FFE15D",
"s. c #FFEE58",
"d. c #FFF05B",
"f. c #C0D26F",
"g. c #C0D470",
"h. c #FAC462",
"j. c #FFD760",
"k. c #FFC271",
"l. c #FFD578",
"z. c #FFE169",
"x. c #FFEC6C",
"c. c #FFF260",
"v. c #FFF965",
"b. c #FFF46F",
"n. c #FFF96F",
"m. c #FFEB74",
"M. c #FFE77A",
"N. c #FFEB7A",
"B. c #FFF772",
"V. c #FFF97D",
"C. c #B1E0BE",
"Z. c #FFF281",
"A. c #9BD4C3",
/* pixels */
"A.A.A.A.A.A.A.A.A.A.A.A.A.A.A.A.A.A.A.A.C.C.C.C.i i i i i i i i i i i i i i i i i i i i i i i i ",
"A.A.A.A.A.A.A.A.A.A.A.A.A.A.A.A.A.A.A.A.C.C.C.C.i i i i i i i i i i i i i i i i i i i i i i i i ",
"A.A.A.A.A.A.A.A.A.A.A.A.A.A.A.A.A.A.A.A.C.C.C.C.i i i i i i i i i i i i i i i i i i i i i i i i ",
"A.A.A.A.A.A.A.A.A.A.A.A.A.A.A.A.A.A.A.A.C.C.C.C.i i i i i i i i i i i i i i i i i i i i i i i i ",
"A.A.A.A.A.A.A.A.A.A.A.A.i i i i i i i i i i i i i i i i i i i i i i i i 4.4.4.4.4.4.4.4.4.4.4.4.",
"A.A.A.A.A.A.A.A.A.A.A.A.i i i i i i i i i i i i i i i i i i i i i i i i 4.4.4.4.4.4.4.4.4.4.4.4.",
"A.A.A.A.A.A.A.A.A.A.A.A.i i i i i i i i i i i i i i i i i i i i i i i i 4.4.4.4.4.4.4.4.4.4.4.4.",
"A.A.A.A.A.A.A.A.A.A.A.A.i i i i i i i i i i i i i i i i i i i i i i i i 4.4.4.4.4.4.4.4.4.4.4.4.",
"A.A.A.A.A.A.A.A.i i i i i i i i 4.4.4.4.4.4.4.4.4.4.4.4.4.4.4.4.4.4.4.4.4.4.4.4.4.4.4.4.4.4.4.4.",
"A.A.A.A.A.A.A.A.i i i i i i i i 4.4.4.4.4.4.4.4.4.4.4.4.4.4.4.4.4.4.4.4.4.4.4.4.4.4.4.4.4.4.4.4.",
"A.A.A.A.A.A.A.A.i i i i i i i i 4.4.4.4.4.4.4.4.4.4.4.4.4.4.4.4.4.4.4.4.4.4.4.4.4.4.4.4.4.4.4.4.",
"A.A.A.A.A.A.A.A.i i i i i y y t 4.4.4.4.4.4.4.4.4.4.4.4.4.4.4.4.K K K 4.4.4.4.4.4.4.4.4.4.4.4.4.",
"C.C.C.C.i i i i i i i i 4.4.4.4.4.4.4.4.4.4.4.4.4.4.4.4.4.4.4.4.4.4.4.4.4.4.4.4.g.g.g.g.g.g.g.g.",
"C.C.C.C.i i i i i i i i 4.4.4.4.4.4.4.4.4.4.4.4.4.4.4.4.4.4.4.4.4.4.4.4.4.4.4.4.g.g.g.g.g.g.g.g.",
"C.C.C.C.i i i i i t u i F : q j 4.4.4.4.4.4.4.4.4.4.4.4.4.4.4.4.j q : F 4.K K 4.g.g.g.g.g.g.g.g.",
"C.C.C.C.i i i i i i i r N 5 _ 3 m S S A S S S S S S S S A S S m 3 _ 5 N D 4.4.4.g.g.g.g.g.g.g.g.",
"i i i i i i i i K 4.4.* 8 #.w.! 2 # % % % % % % % % % % % % # 2 ! w.#.8 - g.g.6.g.g.g.g.4.4.4.4.",
"i i i i i i i i K A M ^ :.u.s.r.( e >.>.>._ _ _ _ _ _ >.>.>.e ( r.s.u.:.^ Z L 6.g.f.g.g.4.4.4.4.",
"i i i i i i y i 4.; 5 t.c.i.a.y.[ { 3.3.2.3.3.3.3.3.3.2.3.3.{ [ y.a.i.c.t.5 c g.g.6.g.g.4.4.4.4.",
"i i i i i i y i 4.; 7 y.v.a.:.@.] { %.%.<.3.k.3.3.k.3.<.%.%.{ ] @.:.a.v.y.7 x g.g.5.g.g.4.4.4.4.",
"i i i i i i y i 4.h 3 :.c.i.$.( ' ' Q R ] ,.,.,.,.,.,.] R Q ' ' ( $.i.c.:.3 c g.g.6.g.g.g.g.g.g.",
"i i i i i i y i 4.j 3 :.c.a.*.' ' ] ' ' ' ] ] ] ] ] ] ' ' ' ] ' ' *.a.c.:.3 c g.g.6.g.g.g.g.g.g.",
"i i i i i i y i 4.j 3 ;.d.a.$.( ( ' ) ) ( ( R ( ( R ( ( ) ) ' ( ( $.a.d.;.3 c g.g.6.g.g.g.g.g.g.",
"i i i i i i y i 4.h 3 h.v.i.*.] ] @.[ [ [ @.@.@.@.@.@.[ [ [ @.] ] *.i.v.h.3 c g.g.6.g.g.g.g.g.g.",
"i i i i i i y i 4.= 3 l.V.i.e.r.r.r.r.r.r.r.r.u.r.r.r.r.r.r.r.r.r.e.i.V.l.3 l g.g.6.g.g.g.g.g.g.",
"i i i i i i y i 4.j 1 &.z.m.B.n.n.n.n.n.n.n.b.x.x.b.n.n.n.n.n.n.n.B.m.z.&.1 N g.g.6.g.g.g.g.g.g.",
"i i i i i i y i 4.c , @ ..m.Z.M.M.M.M.M.M.M.M.N.N.M.M.M.M.M.M.M.M.Z.m...@ , J g.g.6.g.g.g.g.g.g.",
"i i i i i i y i 4.x 1 a s | ` V V V V / 0 B 1.x.j.o.V B / V V V V ` | s a 1 C g.g.6.g.g.g.g.g.g.",
"i i i i i i y i 4.z 1 ! f p + $ o o o O . o  .p.0.U o X O o o o $ + p f ! 1 N g.g.6.g.g.g.g.g.g.",
"i i i i i i y i 4.z 1 W g d U 6 6 6 6 6 4 6 ~ e.e.~ 6 4 6 6 6 6 6 U d g W 1 N g.g.6.g.g.g.g.g.g.",
"i i i i i i y i 4.> 8 $.8.} P 4 4 6 6 6 4 4 w Y T w 4 4 6 6 6 4 4 P } 8.$.8 x g.g.5.g.g.g.g.g.g.",
"i i i i i i i i 4.l 3 ] +.| E I I I I I I I I w w I I I I I I I I E | +.] 3 C g.g.7.g.g.g.g.g.g.",
"A.A.A.A.i i i i t t v < ' q.9.=.O.O.O.O.O.O.O.O.O.O.O.O.O.O.O.O.=.9.q.' < H K K 4.4.4.4.g.g.g.g.",
"A.A.A.A.i i i i t i i   9 ] -.X.@.@.@.@.@.@.#.#.#.#.@.@.@.@.@.@.X.-.] 9 h 4.4.K 4.4.4.4.g.g.g.g.",
"A.A.A.A.i i i i i t u i G & 1 & & & & & & & & & & & & & & & & & & 1 & G 4.4.K 4.4.4.4.4.g.g.g.g.",
"A.A.A.A.i i i i i i i i K n m n b b b b b b n b b b b b b b b b n m n K 4.4.4.4.4.4.4.4.g.g.g.g.",
"A.A.A.A.A.A.A.A.i i i t i i i i 4.4.4.4.4.4.4.4.4.4.4.4.4.4.4.4.4.4.4.4.K 4.4.4.4.4.4.4.4.4.4.4.",
"A.A.A.A.A.A.A.A.i i i i i i i i 4.4.4.4.4.4.4.4.4.4.4.4.4.4.4.4.4.4.4.4.4.4.4.4.4.4.4.4.4.4.4.4.",
"A.A.A.A.A.A.A.A.i i i i i y y y K K K K K K K K K K K K K K K K K K K 4.4.4.4.4.4.4.4.4.4.4.4.4.",
"A.A.A.A.A.A.A.A.i i i i i i i i 4.4.4.4.4.4.4.4.4.4.4.4.4.4.4.4.4.4.4.4.4.4.4.4.4.4.4.4.4.4.4.4.",
"A.A.A.A.A.A.A.A.A.A.A.A.i i i i i i i i i i i i i i i i i i i i i i i i 4.4.4.4.i i i i i i i i ",
"A.A.A.A.A.A.A.A.A.A.A.A.i i i i i i i i i i i i i i i i i i i i i i i i 4.4.4.4.i i i i i i i i ",
"A.A.A.A.A.A.A.A.A.A.A.A.i i i i i i i i i i i i i i i i i i i i i i i i 4.4.4.4.i i i i i i i i ",
"A.A.A.A.A.A.A.A.A.A.A.A.i i i i i i i i i i i i i i i i i i i i i i i i 4.4.4.4.i i i i i i i i ",
"A.A.A.A.A.A.A.A.A.A.A.A.A.A.A.A.A.A.A.A.C.C.C.C.i i i i i i i i i i i i i i i i i i i i i i i i ",
"A.A.A.A.A.A.A.A.A.A.A.A.A.A.A.A.A.A.A.A.C.C.C.C.i i i i i i i i i i i i i i i i i i i i i i i i ",
"A.A.A.A.A.A.A.A.A.A.A.A.A.A.A.A.A.A.A.A.C.C.C.C.i i i i i i i i i i i i i i i i i i i i i i i i ",
"A.A.A.A.A.A.A.A.A.A.A.A.A.A.A.A.A.A.A.A.C.C.C.C.i i i i i i i i i i i i i i i i i i i i i i i i "
};
