/* XPM */
static char *_b40492bfa3d4672d0e61978f45c03591WT8EVSzkF0rf0aP[] = {
/* columns rows colors chars-per-pixel */
"48 48 146 2 ",
"   c #AA5F3E",
".  c #AD613F",
"X  c #B36C3E",
"o  c #8B5545",
"O  c #8D5549",
"+  c #975142",
"@  c #9B5545",
"#  c #9E5C46",
"$  c #925649",
"%  c #935D4D",
"&  c #A25F44",
"*  c #AC5F42",
"=  c #8B604B",
"-  c #8C6D4B",
";  c #95624D",
":  c #98634F",
">  c #916E4B",
",  c #91704D",
"<  c #8B6E50",
"1  c #976252",
"2  c #9A6753",
"3  c #966C50",
"4  c #8F7051",
"5  c #927150",
"6  c #9B7B53",
"7  c #A36142",
"8  c #AE6540",
"9  c #A5604A",
"0  c #AD644D",
"q  c #B46441",
"w  c #B66B42",
"e  c #B46D4D",
"r  c #BC7345",
"t  c #B5724D",
"y  c #B47C4C",
"u  c #B46A51",
"i  c #BD7452",
"p  c #C07743",
"a  c #C37B44",
"s  c #C37F4E",
"d  c #C07953",
"f  c #7B9556",
"g  c #799D57",
"h  c #7A9E58",
"j  c #79A057",
"k  c #78A158",
"l  c #BC8532",
"z  c #C28C2F",
"x  c #C78E37",
"c  c #CF9A3D",
"v  c #D6A733",
"b  c #D8AD38",
"n  c #9C8054",
"m  c #9F8B58",
"M  c #9E995D",
"N  c #A18D5A",
"B  c #A19A5F",
"V  c #9BAD5E",
"C  c #9BB35E",
"Z  c #A1B45F",
"A  c #9EB060",
"S  c #A6A461",
"D  c #A9A563",
"F  c #A3BE62",
"G  c #C98445",
"H  c #C68B47",
"J  c #CF8D46",
"K  c #C4804F",
"L  c #D68D4F",
"P  c #D19446",
"I  c #D5954A",
"U  c #D9924F",
"Y  c #D99E4A",
"T  c #C28151",
"R  c #CA8552",
"E  c #CE8C55",
"W  c #D58C52",
"Q  c #D08E5C",
"!  c #DA9352",
"~  c #DE9A53",
"^  c #D7955F",
"/  c #DD925A",
"(  c #E29E55",
")  c #E49D59",
"_  c #D6A242",
"`  c #D8A345",
"'  c #DCA845",
"]  c #DAA250",
"[  c #E3AD4D",
"{  c #E1B742",
"}  c #E5B846",
"|  c #EABE46",
" . c #E6B04F",
".. c #EDBC4F",
"X. c #E4A755",
"o. c #E6AE51",
"O. c #EAAB56",
"+. c #E5A159",
"@. c #EDA95F",
"#. c #EEB653",
"$. c #ECB851",
"%. c #F0B752",
"&. c #F1BA53",
"*. c #DCAB67",
"=. c #DDAD68",
"-. c #DFB068",
";. c #E8A164",
":. c #F1AB67",
">. c #E3B469",
",. c #F4B267",
"<. c #F7B56C",
"1. c #FEBD6B",
"2. c #A4C263",
"3. c #BFD16F",
"4. c #F8D04E",
"5. c #F2C250",
"6. c #FBCC53",
"7. c #FAC65B",
"8. c #FDCD5B",
"9. c #FFD754",
"0. c #FFDB54",
"q. c #FFD55B",
"w. c #FFDF5C",
"e. c #FFE65C",
"r. c #FFE95F",
"t. c #FFF15F",
"y. c #C0D470",
"u. c #F1C865",
"i. c #F0C369",
"p. c #FED762",
"a. c #FBD16F",
"s. c #FFC373",
"d. c #FFDE73",
"f. c #FFE462",
"g. c #FFEA64",
"h. c #FFE16E",
"j. c #FFF461",
"k. c #FFF46D",
"l. c #FFED76",
"z. c #FFEE7A",
"x. c #FFF47A",
"c. c #FFF97B",
"v. c #FFF97D",
"b. c #B1E0BE",
"n. c #FFF983",
"m. c #9BD4C3",
/* pixels */
"m.m.m.m.m.m.m.m.m.m.m.m.m.m.m.m.k k k k k k k k k k k k b.b.b.b.m.m.m.m.m.m.m.m.m.m.m.m.m.m.m.m.",
"m.m.m.m.m.m.m.m.m.m.m.m.m.m.m.m.k k k k k k k k k k k k b.b.b.b.m.m.m.m.m.m.m.m.m.m.m.m.m.m.m.m.",
"m.m.m.m.m.m.m.m.m.m.m.m.m.m.m.m.k k k k k k k k k k k k b.b.b.b.m.m.m.m.m.m.m.m.m.m.m.m.m.m.m.m.",
"m.m.m.m.m.m.m.m.m.m.m.m.m.m.m.m.k k k k k k k k k k k k b.b.b.b.m.m.m.m.m.m.m.m.m.m.m.m.m.m.m.m.",
"m.m.m.m.m.m.m.m.m.m.m.m.k k k k k k k k k k k k k k k k k k k k k k k k m.m.m.m.m.m.m.m.m.m.m.m.",
"m.m.m.m.m.m.m.m.m.m.m.m.k k k k k k k k k k k k k k k k k k k k k k k k m.m.m.m.m.m.m.m.m.m.m.m.",
"m.m.m.m.m.m.m.m.m.m.m.m.k k k k k k k k k k k k k k k k k k k k k k k k m.m.m.m.m.m.m.m.m.m.m.m.",
"m.m.m.m.m.m.m.m.m.m.m.m.k k k k k k k k k k k k k k k k k k k k k k k k m.m.m.m.m.m.m.m.m.m.m.m.",
"m.m.m.m.m.m.m.m.k k k k k k k k 2.2.2.2.2.2.2.2.2.2.2.2.k k k k k k k k k k k k m.m.m.m.m.m.m.m.",
"m.m.m.m.m.m.m.m.k k k k k k k h F 2.2.2.2.2.2.2.2.2.2.2.k k k h h k k k k k k k m.m.m.m.m.m.m.m.",
"m.m.m.m.m.m.m.m.k k k k k k k k 2.2.2.2.2.2.2.2.2.2.2.2.k k k k k k k k k k k k m.m.m.m.m.m.m.m.",
"m.m.m.m.m.m.m.m.k k k k k h k k 2.2.F F F F F F F F F F h h k k k k h k k k k k m.m.m.m.m.m.m.m.",
"b.b.b.b.k k k k k k k h 2.2.C B B A 2.2.2.2.2.2.2.2.2.2.2.2.A B B C 2.2.h k k k k k k k m.m.m.m.",
"b.b.b.b.k k k k k k k h 2.2.n u u n 2.2.2.2.2.2.2.2.2.2.2.2.n u u n 2.2.h k k k k k k k m.m.m.m.",
"b.b.b.b.k k k k k k k k C < T O.O.y 5 - > > , > > , > > - 5 y O.O.T < C k k k k k k k k m.m.m.m.",
"b.b.b.b.k k k k k h k f N t O.0.0.] e u d i i i i i i d u e ] 0.0.O.t N f k h k k k k k m.m.m.m.",
"m.m.m.m.k k k k F 2.F > E 7.w.w.e.&.! ;.<.:.:.:.:.:.:.<.;.! &.e.w.w.7.E = g h j k k k k m.m.m.m.",
"m.m.m.m.k k k k F 2.F $ ) r.j.q.7.O.( @.1.s.s.s.s.s.s.1.@.( O.7.q.j.r.) O g k g k k k k m.m.m.m.",
"m.m.m.m.k k k k F 2.F % E q.t.8.~ W ! U ( ,.<.,.,.<.,.( U ! W ~ 8.t.q.E O g k g k k k k m.m.m.m.",
"m.m.m.m.k k k k F 2.F % E q.j.8.~ W ~ ! ~ ) +.) ) +.) ~ ! ~ W ~ 8.j.q.E O g k g k k k k m.m.m.m.",
"m.m.m.m.k k k k g k g O E q.t.8.( W ! ! ! L L L L L L ! ! ! W ( 8.t.q.E O g k g k k k k m.m.m.m.",
"m.m.m.m.k k k k g k g O W q.t.8.( W ! ! ! ! ! ! ! ! ! ! ! ! W ( 8.t.q.W O g k g k k k k m.m.m.m.",
"m.m.m.m.k k k k g k g o ^ l.k.6.&.#.&.&.%.&.&.&.&.&.&.&.&.&.#.&.6.k.l.^ o g k g k k k k m.m.m.m.",
"m.m.m.m.k k k k g k g o Q d.k.f.g.g.g.g.g.g.f.f.f.g.g.g.g.g.g.g.f.k.d.Q o g k g k k k k m.m.m.m.",
"k k k k k k k k g k g 1 r c p.n.v.c.c.c.v.c.c.z.x.c.c.c.c.c.c.v.n.p.c r 2 F 2.F k k k k k k k k ",
"k k k k k k k k g k g 1 r z } u.>.*.-.>.*.=.a.l.h.i.=.=.>.-.*.>.u.} z r 2 F 2.F k k k k k k k k ",
"k k k k k k k k g k g % K ` v l 7 @ # 7 + @ ] e.6.H @ @ & # @ 7 l v ` K ; F 2.F k k k k k k k k ",
"k k k k k k k k g k g % s _ b x X * 8 q   . Y 9.6.P .   q 8 * X x b _ s : F 2.F k k k k k k k k ",
"k k k k k k k k F 2.F ; s ' { _ G a a G a a I [  .I a a G a a G _ { ' s ; F 2.F k k k k k k k k ",
"k k k k k k k k F 2.F ; R $.| c a r p p p p p a a a p p p p r a c | $.R ; F 2.F k k k k k k k k ",
"k k k k k k k k F 2.F $ / 6.4.` r q w w w w q q q q w w w w q r ` 4.6./ $ F 2.F k k k k k k k k ",
"k k k k k k k k F 2.F 3 T o.6...J a G G G G G G G G G G G G a J ..6.o.T 3 F 2.F k k k k k k k k ",
"k k k k k k k k 2.F 2.Z m e O.6.5.............................5.6.O.e m Z 2.F 2.2.2.2.2.k k k k ",
"k k k k k k k k 2.2.2.2.C 4 T O.O.X.X.X.X.X.X.X.X.X.X.X.X.X.X.O.O.T 4 C 2.2.2.2.2.2.2.2.k k k k ",
"k k k k k k k k 2.2.2.F 2.2.6 0 9 # # # # # # # # # # # # # # 9 0 6 2.2.F 2.2.2.2.2.2.2.k k k k ",
"k k k k k k k k 2.2.2.F 2.2.V M D D S S S S S S S S S S S S D D M V 2.2.F 2.2.2.2.2.2.2.k k k k ",
"k k k k 2.2.2.2.2.2.2.2.2.F 2.2.y.y.y.y.y.y.y.y.y.y.y.y.y.y.y.y.2.2.F 2.2.2.2.2.2.2.2.2.k k k k ",
"k k k k 2.2.2.2.2.2.2.2.2.2.2.2.y.y.y.y.y.y.y.y.y.y.y.y.y.y.y.y.2.2.2.2.2.2.2.2.2.2.2.2.k k k k ",
"k k k k 2.2.2.2.2.2.2.2.2.2.2.F 3.3.3.3.3.3.3.3.3.3.3.3.3.3.3.3.F 2.2.2.2.2.2.2.2.2.2.2.k k k k ",
"k k k k 2.2.2.2.2.2.2.2.2.2.2.2.y.y.y.y.y.y.y.y.y.y.y.y.y.y.y.y.2.2.2.2.2.2.2.2.2.2.2.2.k k k k ",
"k k k k 2.2.2.2.2.2.2.2.2.2.2.2.y.y.y.y.2.2.2.2.y.y.y.y.y.y.y.y.y.y.y.y.2.2.2.2.k k k k k k k k ",
"k k k k 2.2.2.2.2.2.2.2.2.2.2.2.y.y.y.y.2.2.2.2.y.y.y.y.y.y.y.y.y.y.y.y.2.2.2.2.k k k k k k k k ",
"k k k k 2.2.2.2.2.2.2.2.2.2.2.2.y.y.y.y.2.2.2.2.y.y.y.y.y.y.y.y.y.y.y.y.2.2.2.2.k k k k k k k k ",
"k k k k 2.2.2.2.2.2.2.2.2.2.2.2.y.y.y.y.2.2.2.2.y.y.y.y.y.y.y.y.y.y.y.y.2.2.2.2.k k k k k k k k ",
"k k k k 2.2.2.2.2.2.2.2.2.2.2.2.y.y.y.y.y.y.y.y.y.y.y.y.y.y.y.y.y.y.y.y.2.2.2.2.k k k k k k k k ",
"k k k k 2.2.2.2.2.2.2.2.2.2.2.2.y.y.y.y.y.y.y.y.y.y.y.y.y.y.y.y.y.y.y.y.2.2.2.2.k k k k k k k k ",
"k k k k 2.2.2.2.2.2.2.2.2.2.2.2.y.y.y.y.y.y.y.y.y.y.y.y.y.y.y.y.y.y.y.y.2.2.2.2.k k k k k k k k ",
"k k k k 2.2.2.2.2.2.2.2.2.2.2.2.y.y.y.y.y.y.y.y.y.y.y.y.y.y.y.y.y.y.y.y.2.2.2.2.k k k k k k k k "
};
