/* XPM */
static char *_3eef18d5d0a460efff09cda8cd7dd88vwaHAL8W5FHnWojN[] = {
/* columns rows colors chars-per-pixel */
"48 48 146 2 ",
"   c #6D3D49",
".  c #734446",
"X  c #774845",
"o  c #7A4A45",
"O  c #704048",
"+  c #6F6C4B",
"@  c #7E734F",
"#  c #7E7250",
"$  c #7D7D52",
"%  c #8E5F3D",
"&  c #97643B",
"*  c #AF7D37",
"=  c #854C46",
"-  c #914B44",
";  c #845542",
":  c #8C5446",
">  c #895941",
",  c #9A5545",
"<  c #9D5C46",
"1  c #9E5C48",
"2  c #A15E47",
"3  c #A05D48",
"4  c #9D634B",
"5  c #9F6C4F",
"6  c #916E51",
"7  c #8A7556",
"8  c #9B7150",
"9  c #A46146",
"0  c #A96446",
"q  c #A66E47",
"w  c #AA6947",
"e  c #A6624A",
"r  c #AC634C",
"t  c #A5684D",
"y  c #AD694A",
"u  c #B36643",
"i  c #B56C44",
"p  c #B86D42",
"a  c #BE7443",
"s  c #B17148",
"d  c #B67A49",
"f  c #BB7F49",
"g  c #AB6B52",
"h  c #B16650",
"j  c #AA7553",
"k  c #AC705B",
"l  c #C07743",
"z  c #C47B42",
"x  c #C87F42",
"c  c #C27554",
"v  c #C07B50",
"b  c #7F8153",
"n  c #799756",
"m  c #769E57",
"M  c #799E57",
"N  c #7A9F58",
"B  c #78A158",
"V  c #BE8C2E",
"C  c #BE8C33",
"Z  c #BD8339",
"A  c #C5942F",
"S  c #CE9E2E",
"D  c #D29F2D",
"F  c #C18E30",
"G  c #C4883B",
"H  c #C09130",
"J  c #CC9A31",
"K  c #D09F38",
"L  c #D6A639",
"P  c #ECB73D",
"I  c #868A55",
"U  c #9D8656",
"Y  c #8D9256",
"T  c #959659",
"R  c #9A955D",
"E  c #979859",
"W  c #9B995D",
"Q  c #BD8241",
"!  c #BB804A",
"~  c #9AA35C",
"^  c #9FB35F",
"/  c #A1AE5F",
"(  c #A59F60",
")  c #AAA564",
"_  c #A1AF62",
"`  c #ACAC64",
"'  c #A4BF63",
"]  c #C68344",
"[  c #C98446",
"{  c #C88841",
"}  c #C1874B",
"|  c #C4884E",
" . c #CE8F4E",
".. c #D08F40",
"X. c #D08F49",
"o. c #C69442",
"O. c #CF9349",
"+. c #D39142",
"@. c #D2944A",
"#. c #D69F4E",
"$. c #D99D4A",
"%. c #D18B55",
"&. c #D19554",
"*. c #DC9C52",
"=. c #DBA34B",
"-. c #DEA354",
";. c #E4B542",
":. c #E6B845",
">. c #EDBC4F",
",. c #E3A755",
"<. c #E7AB54",
"1. c #EBAB56",
"2. c #E6A45C",
"3. c #EEAE58",
"4. c #E8B750",
"5. c #ECBA51",
"6. c #EDB45A",
"7. c #F2BE53",
"8. c #F1B35C",
"9. c #FBBB5B",
"0. c #A4C263",
"q. c #BFCF6E",
"w. c #BFD16F",
"e. c #BFD370",
"r. c #F4C54F",
"t. c #EFC250",
"y. c #F5C551",
"u. c #F7C951",
"i. c #FBCD51",
"p. c #F9C35D",
"a. c #FFD753",
"s. c #FFD95C",
"d. c #FFE45B",
"f. c #FFEC5D",
"g. c #FFF35D",
"h. c #C0D26F",
"j. c #C0D470",
"k. c #FFD462",
"l. c #7F8E88",
"z. c #969986",
"x. c #A09B89",
"c. c #9AA690",
"v. c #99B6A7",
"b. c #9BD0BF",
"n. c #B1E0BE",
"m. c #9BD4C3",
/* pixels */
"B B B B B B B B B B B B B B N B B B B B B B B B n.n.n.n.n.n.n.n.m.m.m.m.m.m.m.m.m.m.m.m.m.m.m.m.",
"B B B B B B B B B B B B B M B B $ 7 @ @ # # # # z.z.z.z.z.z.x.c.m.m.b.m.m.m.m.m.m.m.m.m.m.m.m.m.",
"B B B B B B B B B B B B B B m I t c y y y y y y y y y y y y c t v.m.m.m.m.m.m.m.m.m.m.m.m.m.m.m.",
"B B B B B B B B B B B N B B + g 6.k.p.p.p.p.p.p.p.p.p.p.p.p.k.6.k l.m.m.b.m.m.m.m.m.m.m.m.m.m.m.",
"0.0.0.0.0.0.0.0.0.0.0.' n I j 2.s.g.f.f.f.f.f.f.f.f.f.f.f.f.g.s.2.j I n b.m.m.m.m.m.m.m.m.m.m.m.",
"0.0.0.0.0.0.0.0.0.' 0.0.$ < 6.d.u.>.y.y.y.y.y.y.y.y.y.y.y.y.>.u.d.6.< $ m.m.m.m.m.m.m.m.m.m.m.m.",
"0.0.0.0.0.0.0.0.0.' 0.0.$ e 8.d.i.=.f d ! f f f f f f ! d f =.i.d.8.e $ m.m.b.m.m.m.m.m.m.m.m.m.",
"0.0.0.0.0.0.0.0.0.' 0.0.b 1 *.y.5.} , , 2 3 3 3 3 3 3 2 , , } 5.y.*.1 b m.m.m.m.m.m.m.m.m.m.m.m.",
"0.0.0.0.0.0.0.0.0.' 0.0.T < ,.5.f < 3 i a p p p p p p a i 3 < f 5.,.< $ B B N B m.m.m.m.m.m.m.m.",
"0.0.0.0.0.0.0.0.0.' 0.0.T < <.4.w - 0 i a x x x x x x a i 0 - w 4.<.< $ B B N B m.m.m.m.m.m.m.m.",
"0.0.0.0.0.0.0.0.0.' 0.0.T < 1.5.s , 9 < 0 a l a a l a 0 < 9 , s 5.1.< $ B B N B m.m.m.m.m.m.m.m.",
"0.0.0.0.0.0.0.0.0.' 0.0.T r 9.t.w - 9 3 3 0 0 0 0 0 0 3 3 9 - w t.9.r $ B B M B m.m.m.m.m.m.m.m.",
"j.j.j.j.j.j.j.j.j.h.j.h.~ 8 &.-.| w 9 9 9 3 3 3 3 3 3 9 9 9 w | -.&.8 ~ B B B B B B B B m.m.m.m.",
"j.j.j.j.j.j.j.j.j.j.j.q.0.0.6 v 5.#.3 < 9 9 3 9 9 3 9 9 < 3 #.5.v 6 0.0.N B B B B B B B m.m.m.m.",
"j.j.j.j.j.j.j.j.j.e.j.j._ U q G P o.= = : : : : : : : : = = o.P G q U _ B B B B B B B B m.m.m.m.",
"j.j.j.j.j.j.j.j.j.w.j.j.R r +.S V & . O X X X X X X X X O . & V S +.r R B B M B B B B B m.m.m.m.",
"0.0.0.0.j.j.j.j.j.w.j.j.) 3 +.H % X X X X X X X X X X X X X X % H +.3 R 0.0.' 0.B B B B B B B B ",
"0.0.0.0.j.j.j.j.j.w.j.j.) 1 ..C o   X o X X X X X X X X o o   o C ..1 W 0.0.' 0.B B B B B B B B ",
"0.0.0.0.j.j.j.j.j.w.j.j.) 1 ..C > O X X X X X X X X X X X X O > C ..1 W 0.0.' 0.B B B B B B B B ",
"0.0.0.0.j.j.j.j.j.w.j.j.) 1 ..C > O X X X X X X X X X X X X O > C ..1 W 0.0.' 0.B B B B B B B B ",
"j.j.j.j.j.j.j.j.j.w.j.j.) 1 +.C ;   X X X X X X X X X X o X   ; C +.1 W 0.0.' 0.B B B B B B B B ",
"j.j.j.j.j.j.j.j.j.w.j.j.) 1 +.C ;   X X X X X X X X X X o X   ; C +.1 W 0.0.' 0.B B B B B B B B ",
"j.j.j.j.j.j.j.j.j.w.j.j.) 3 { A * >     O             O     > * A { 3 W 0.0.' 0.B B B B B B B B ",
"j.j.j.j.j.j.j.j.j.w.j.j.) 3 ] S D * > ; > > > > > > > > ; > * D S ] 3 W 0.0.' 0.B B B B B B B B ",
"j.j.j.j.j.j.j.j.j.w.j.j.) < X.L J F C C C C C C C C C C C C F J L X.< E 0.0.' 0.B B B B B B B B ",
"j.j.j.j.j.j.j.j.j.w.j.j.) < *.:.K C Z Z Z Z Z Z Z Z Z Z Z Z C K :.*.< E 0.0.' 0.B B B B B B B B ",
"j.j.j.j.j.j.j.j.j.w.j.j.) < -.r.;.Q 3 < 3 3 3 3 3 3 3 3 < 3 Q ;.r.-.< T 0.0.' 0.B B B B B B B B ",
"j.j.j.j.j.j.j.j.j.w.j.j.) < *.i.r.O.u u i i i i i i i i u u O.r.i.*.< T 0.0.' 0.B B B B B B B B ",
"j.j.j.j.j.j.j.j.j.w.j.j.) 1 *.u.y.=.l l x z z z z z z x l l =.u.u.*.1 E 0.0.' 0.B B B B B B B B ",
"j.j.j.j.j.j.j.j.j.w.j.j.) 1 *.u.u.$.a a l l l l l l l l a a $.u.u.*.1 E 0.0.' 0.B B B B B B B B ",
"j.j.j.j.j.j.j.j.j.w.j.j.( r 1.a.y.@.u u p p p p p p p p u u @.y.a.1.r T 0.0.' 0.B B B B B B B B ",
"j.j.j.j.j.j.j.j.j.j.j.e.` 4 &.7.u.=.[ ] [ [ [ [ [ [ [ [ ] [ =.u.7.&.4 W 0.0.0.0.B B B B B B B B ",
"0.0.0.0.j.j.j.j.j.e.j.q.' / 5 %.7.i.>.>.>.>.>.>.>.>.>.>.>.>.i.7.%.5 / ' N B B B B B B B m.m.m.m.",
"0.0.0.0.j.j.j.j.j.j.j.w.0.0.Y j  .3.,.,.,.,.,.,.,.,.,.,.,.,.3. .j Y 0.0.M B B B B B B B m.m.m.m.",
"0.0.0.0.j.j.j.j.j.j.j.j.0.' 0.^ 4 h < < < < < < < < < < < < h 4 ^ 0.' 0.B B B B B B B B m.m.m.m.",
"0.0.0.0.j.j.j.j.j.j.j.j.0.0.0.0.~ W T T T T T T T T T T T T W ~ 0.0.0.0.B B B B B B B B m.m.m.m.",
"0.0.0.0.0.0.0.0.0.0.0.0.0.0.' 0.0.0.0.0.0.0.0.0.0.0.0.0.B B B B B N B B B B B B m.m.m.m.m.m.m.m.",
"0.0.0.0.0.0.0.0.0.0.0.0.0.0.0.0.0.0.0.0.0.0.0.0.0.0.0.0.B B B B B B B B B B B B m.m.m.m.m.m.m.m.",
"0.0.0.0.0.0.0.0.0.0.0.0.0.0.0.0.0.' ' ' ' ' ' ' ' ' ' ' N N N B B B B B B B B B m.m.m.m.m.m.m.m.",
"0.0.0.0.0.0.0.0.0.0.0.0.0.0.0.0.0.0.0.0.0.0.0.0.0.0.0.0.B B B B B B B B B B B B m.m.m.m.m.m.m.m.",
"B B B B B B B B 0.0.0.0.0.0.0.0.B B B B B B B B B B B B B B B B B B B B m.m.m.m.m.m.m.m.n.n.n.n.",
"B B B B B B B B 0.0.0.0.0.0.0.0.B B B B B B B B B B B B B B B B B B B B m.m.m.m.m.m.m.m.n.n.n.n.",
"B B B B B B B B 0.0.0.0.0.0.0.0.B B B B B B B B B B B B B B B B B B B B m.m.m.m.m.m.m.m.n.n.n.n.",
"B B B B B B B B 0.0.0.0.0.0.0.0.B B B B B B B B B B B B B B B B B B B B m.m.m.m.m.m.m.m.n.n.n.n.",
"B B B B B B B B B B B B B B B B B B B B B B B B n.n.n.n.n.n.n.n.m.m.m.m.m.m.m.m.m.m.m.m.m.m.m.m.",
"B B B B B B B B B B B B B B B B B B B B B B B B n.n.n.n.n.n.n.n.m.m.m.m.m.m.m.m.m.m.m.m.m.m.m.m.",
"B B B B B B B B B B B B B B B B B B B B B B B B n.n.n.n.n.n.n.n.m.m.m.m.m.m.m.m.m.m.m.m.m.m.m.m.",
"B B B B B B B B B B B B B B B B B B B B B B B B n.n.n.n.n.n.n.n.m.m.m.m.m.m.m.m.m.m.m.m.m.m.m.m."
};
