/* XPM */
static char *_72fbecfe6774fa38358e89f790e02bdHQDVjo2JCXxX88QG[] = {
/* columns rows colors chars-per-pixel */
"48 48 152 2 ",
"   c #AA5F3E",
".  c #AD613F",
"X  c #B36C3E",
"o  c #8F5B46",
"O  c #975142",
"+  c #9B5545",
"@  c #915D47",
"#  c #9E5C46",
"$  c #915449",
"%  c #925C4B",
"&  c #A25F44",
"*  c #AC5F42",
"=  c #8F624E",
"-  c #95614D",
";  c #98634F",
":  c #926A4E",
">  c #96754F",
",  c #98744D",
"<  c #8B6E50",
"1  c #9A6752",
"2  c #8F7051",
"3  c #967551",
"4  c #9B7253",
"5  c #9A7A53",
"6  c #A36142",
"7  c #AE6540",
"8  c #A5604A",
"9  c #AD644D",
"0  c #B46441",
"q  c #B66B42",
"w  c #B46D4D",
"e  c #BC7345",
"r  c #B5724D",
"t  c #B47D4C",
"y  c #B46A51",
"u  c #BD7452",
"i  c #C07743",
"p  c #C37B44",
"a  c #C37F4E",
"s  c #C07953",
"d  c #7E9656",
"f  c #799D57",
"g  c #7A9E58",
"h  c #79A057",
"j  c #78A158",
"k  c #BC8532",
"l  c #C28C2F",
"z  c #C78E37",
"x  c #CF9A3D",
"c  c #D6A733",
"v  c #D8AD38",
"b  c #9C8054",
"n  c #9F8B58",
"m  c #959759",
"M  c #99975B",
"N  c #96985A",
"B  c #9E995D",
"V  c #A38758",
"C  c #A18D5A",
"Z  c #AB965F",
"A  c #A19A5F",
"S  c #9BAD5E",
"D  c #9CB45E",
"F  c #A1B45F",
"G  c #B1A767",
"H  c #A3BE62",
"J  c #C98445",
"K  c #C68B47",
"L  c #CF8D46",
"P  c #C4804F",
"I  c #D68D4F",
"U  c #D19446",
"Y  c #D5954A",
"T  c #D9924F",
"R  c #D99E4A",
"E  c #C28151",
"W  c #CA8552",
"Q  c #CE8C55",
"!  c #D58C52",
"~  c #D08E5C",
"^  c #DA9352",
"/  c #DE9A53",
"(  c #D7955F",
")  c #DD925A",
"_  c #E29E55",
"`  c #E49D59",
"'  c #D6A242",
"]  c #D8A345",
"[  c #DCA845",
"{  c #DAA250",
"}  c #E3AD4D",
"|  c #E1B742",
" . c #E5B846",
".. c #EABE46",
"X. c #E6B04F",
"o. c #EDBC4F",
"O. c #E4A755",
"+. c #E6AE51",
"@. c #EAAB56",
"#. c #E5A159",
"$. c #EDA95F",
"%. c #EEB653",
"&. c #ECB851",
"*. c #F0B752",
"=. c #F1BA53",
"-. c #DCAB67",
";. c #DDAD68",
":. c #DFB068",
">. c #E8A164",
",. c #F1AB67",
"<. c #E3B469",
"1. c #F4B267",
"2. c #F7B56C",
"3. c #FEBD6B",
"4. c #A4C263",
"5. c #B5C26A",
"6. c #BDCE6E",
"7. c #BED06E",
"8. c #BFD370",
"9. c #F8D04E",
"0. c #F2C250",
"q. c #FBCC53",
"w. c #FAC65B",
"e. c #FDCD5B",
"r. c #FFD754",
"t. c #FFDB54",
"y. c #FFD55B",
"u. c #FFDF5C",
"i. c #FFE65C",
"p. c #FFE95F",
"a. c #FFF15F",
"s. c #C0D26F",
"d. c #C0D470",
"f. c #F1C865",
"g. c #F0C369",
"h. c #FED762",
"j. c #FBD16F",
"k. c #FFC373",
"l. c #FFDE73",
"z. c #FFE462",
"x. c #FFEA64",
"c. c #FFE16E",
"v. c #FFF461",
"b. c #FFF46D",
"n. c #FFED76",
"m. c #FFEE7A",
"M. c #FFF47A",
"N. c #FFF97B",
"B. c #FFF97D",
"V. c #B1E0BE",
"C. c #FFF983",
"Z. c #9BD4C3",
/* pixels */
"j j j j j j j j 4.4.4.4.4.4.4.4.4.4.4.4.d.d.d.d.d.d.d.d.d.d.d.d.d.d.d.d.d.d.d.d.d.d.d.d.d.d.d.d.",
"j j j j j j j j 4.4.4.4.4.4.4.4.4.4.4.4.d.d.d.d.d.d.d.d.d.d.d.d.d.d.d.d.d.d.d.d.d.d.d.d.d.d.d.d.",
"j j j j j j j j 4.4.4.4.4.4.4.4.4.4.4.4.d.d.d.d.d.d.d.d.d.d.d.d.d.d.d.d.d.d.d.d.d.d.d.d.d.d.d.d.",
"j j j j j j j j 4.4.4.4.4.4.4.4.4.4.4.4.d.d.d.d.d.d.d.d.d.d.d.d.d.d.d.d.d.d.d.d.d.d.d.d.d.d.d.d.",
"j j j j j j j j 4.4.4.4.4.4.4.4.d.d.d.d.d.d.d.d.d.d.d.d.d.d.d.d.4.4.4.4.d.d.d.d.d.d.d.d.d.d.d.d.",
"j j j j j j j j 4.4.4.4.4.4.4.4.d.d.d.d.d.d.d.d.d.d.d.d.d.d.d.d.4.4.4.4.d.d.d.d.d.d.d.d.d.d.d.d.",
"j j j j j j j j 4.4.4.4.4.4.4.4.d.d.d.d.d.d.d.d.d.d.d.d.d.d.d.d.4.4.4.4.d.d.d.d.d.d.d.d.d.d.d.d.",
"j j j j j j j j 4.4.4.4.4.4.4.4.d.d.d.d.d.d.d.d.d.d.d.d.d.d.d.d.4.4.4.4.d.d.d.d.d.d.d.d.d.d.d.d.",
"j j j j 4.4.4.4.4.4.4.4.4.4.4.4.4.4.4.4.d.d.d.d.d.d.d.d.d.d.d.d.d.d.d.d.d.d.d.d.d.d.d.d.d.d.d.d.",
"j j j j 4.4.4.4.4.4.4.4.4.4.4.H H 4.4.4.d.d.d.d.d.d.d.d.d.d.s.7.7.s.d.d.d.d.d.d.d.d.d.d.d.d.d.d.",
"j j j j 4.4.4.4.4.4.4.4.4.4.4.4.4.4.4.4.d.d.d.d.d.d.d.d.d.d.d.d.d.d.d.d.d.d.d.d.d.d.d.d.d.d.d.d.",
"j j j j 4.4.4.4.4.4.4.4.4.H 4.4.4.4.H H 7.6.6.6.6.6.6.7.6.6.d.d.d.d.6.8.d.d.d.d.d.d.d.d.d.d.d.d.",
"j j j j 4.4.4.4.4.4.4.H 4.4.D A G 5.d.d.d.d.d.d.d.d.d.d.d.d.5.G G 5.d.d.7.d.d.d.d.d.d.d.4.4.4.4.",
"j j j j 4.4.4.4.4.4.4.H 4.4.b y y V d.d.d.d.d.d.d.d.d.d.d.d.V y y V d.d.6.d.d.d.d.d.d.d.4.4.4.4.",
"j j j j 4.4.4.4.4.4.4.4.D < E @.@.t 5 > , > 3 > > 3 > , > 5 t @.@.E 3 5.d.d.s.d.d.d.d.d.4.4.4.4.",
"j j j j 4.4.4.4.4.H 4.D C r @.t.t.{ w y s u u u u u u s y w { t.t.@.r Z 5.8.7.d.d.d.d.d.4.4.4.4.",
"j j j j j j j j H 4.H : Q w.u.u.i.=.^ >.2.,.,.,.,.,.,.2.>.^ =.i.u.u.w.Q 3 6.d.7.d.8.8.d.d.d.d.d.",
"j j j j j j j j H 4.H $ ` p.v.y.w.@._ $.3.k.k.k.k.k.k.3.$._ @.w.y.v.p.` $ 6.d.6.d.d.d.d.d.d.d.d.",
"j j j j j j j j H 4.H % Q y.a.e./ ! ^ T _ 1.2.1.1.2.1._ T ^ ! / e.a.y.Q ; 6.d.7.d.d.d.d.d.d.d.d.",
"j j j j j j j j H 4.H % Q y.v.e./ ! / ^ / ` #.` ` #.` / ^ / ! / e.v.y.Q ; 6.d.7.d.d.d.d.d.d.d.d.",
"j j j j j j j j H 4.H % Q y.a.e._ ! ^ ^ ^ I I I I I I ^ ^ ^ ! _ e.a.y.Q ; 6.d.7.d.d.d.d.d.d.d.d.",
"j j j j j j j j H 4.H % ! y.a.e._ ! ^ ^ ^ ^ ^ ^ ^ ^ ^ ^ ^ ^ ! _ e.a.y.! ; 6.d.7.d.d.d.d.d.d.d.d.",
"j j j j j j j j H 4.H o ( n.b.q.=.%.=.=.*.=.=.=.=.=.=.=.=.=.%.=.q.b.n.( @ 6.d.7.d.d.d.d.d.d.d.d.",
"j j j j j j j j H 4.H o ~ l.b.z.x.x.x.x.x.x.z.z.z.x.x.x.x.x.x.x.z.b.l.~ - 6.d.7.d.d.d.d.d.d.d.d.",
"Z.Z.Z.Z.j j j j H 4.H 1 e x h.C.B.N.N.N.B.N.N.m.M.N.N.N.N.N.N.B.C.h.x e 1 H 4.H d.d.d.d.d.d.d.d.",
"Z.Z.Z.Z.j j j j H 4.H 1 e l  .f.<.-.:.<.-.;.j.n.c.g.;.;.<.:.-.<.f. .l e 1 H 4.H d.d.d.d.d.d.d.d.",
"Z.Z.Z.Z.j j j j H 4.H ; P ] c k 6 + # 6 O + { i.q.K + + & # + 6 k c ] a ; H 4.H d.d.d.d.d.d.d.d.",
"Z.Z.Z.Z.j j j j H 4.H ; a ' v z X * 7 0   . R r.q.U .   0 7 * X z v ' a ; H 4.H d.d.d.d.d.d.d.d.",
"Z.Z.Z.Z.j j j j f j f % a [ | ' J p p J p p Y } X.Y p p J p p J ' | [ a 1 6.d.7.d.d.d.d.d.d.d.d.",
"Z.Z.Z.Z.j j j j f j f % W &...x p e i i i i i p p p i i i i e p x ..&.W ; 6.d.7.d.d.d.d.d.d.d.d.",
"Z.Z.Z.Z.j j j j f j f $ ) q.9.] e 0 q q q q 0 0 0 0 q q q q 0 e ] 9.q.) % 6.d.6.d.d.d.d.d.d.d.d.",
"Z.Z.Z.Z.j j j j h j f = E +.q.o.L p J J J J J J J J J J J J p L o.q.+.E 4 6.d.7.d.d.d.d.d.d.d.d.",
"Z.Z.Z.Z.j j j j j g j d n w @.q.0.o.o.o.o.o.o.o.o.o.o.o.o.o.o.0.q.@.w n F 4.H 4.4.4.4.4.d.d.d.d.",
"Z.Z.Z.Z.j j j j j j j j D 2 E @.@.O.O.O.O.O.O.O.O.O.O.O.O.O.O.@.@.E 2 D 4.4.4.4.4.4.4.4.d.d.d.d.",
"Z.Z.Z.Z.j j j j j j j g 4.4.5 9 8 # # # # # # # # # # # # # # 8 9 5 4.4.H 4.4.4.4.4.4.4.d.d.d.d.",
"Z.Z.Z.Z.j j j j j j j g 4.4.S B M N m m m m m m m m m m m m N M B S 4.4.H 4.4.4.4.4.4.4.d.d.d.d.",
"Z.Z.Z.Z.Z.Z.Z.Z.j j j j j g j j 4.4.4.4.4.4.4.4.4.4.4.4.4.4.4.4.4.4.H 4.4.4.4.4.4.4.4.4.4.4.4.4.",
"Z.Z.Z.Z.Z.Z.Z.Z.j j j j j j j j 4.4.4.4.4.4.4.4.4.4.4.4.4.4.4.4.4.4.4.4.4.4.4.4.4.4.4.4.4.4.4.4.",
"Z.Z.Z.Z.Z.Z.Z.Z.j j j j j j j g H H H H H H H H H H H H H H H H H 4.4.4.4.4.4.4.4.4.4.4.4.4.4.4.",
"Z.Z.Z.Z.Z.Z.Z.Z.j j j j j j j j 4.4.4.4.4.4.4.4.4.4.4.4.4.4.4.4.4.4.4.4.4.4.4.4.4.4.4.4.4.4.4.4.",
"Z.Z.Z.Z.Z.Z.Z.Z.Z.Z.Z.Z.j j j j j j j j j j j j j j j j j j j j j j j j 4.4.4.4.j j j j j j j j ",
"Z.Z.Z.Z.Z.Z.Z.Z.Z.Z.Z.Z.j j j j j j j j j j j j j j j j j j j j j j j j 4.4.4.4.j j j j j j j j ",
"Z.Z.Z.Z.Z.Z.Z.Z.Z.Z.Z.Z.j j j j j j j j j j j j j j j j j j j j j j j j 4.4.4.4.j j j j j j j j ",
"Z.Z.Z.Z.Z.Z.Z.Z.Z.Z.Z.Z.j j j j j j j j j j j j j j j j j j j j j j j j 4.4.4.4.j j j j j j j j ",
"Z.Z.Z.Z.Z.Z.Z.Z.Z.Z.Z.Z.Z.Z.Z.Z.Z.Z.Z.Z.V.V.V.V.j j j j j j j j j j j j j j j j j j j j j j j j ",
"Z.Z.Z.Z.Z.Z.Z.Z.Z.Z.Z.Z.Z.Z.Z.Z.Z.Z.Z.Z.V.V.V.V.j j j j j j j j j j j j j j j j j j j j j j j j ",
"Z.Z.Z.Z.Z.Z.Z.Z.Z.Z.Z.Z.Z.Z.Z.Z.Z.Z.Z.Z.V.V.V.V.j j j j j j j j j j j j j j j j j j j j j j j j ",
"Z.Z.Z.Z.Z.Z.Z.Z.Z.Z.Z.Z.Z.Z.Z.Z.Z.Z.Z.Z.V.V.V.V.j j j j j j j j j j j j j j j j j j j j j j j j "
};
