/* XPM */
static char *c0f1429d182c4a23ac653424a64b66dcyibyG2mjdS2iUmVm[] = {
/* columns rows colors chars-per-pixel */
"48 48 138 2 ",
"   c #673644",
".  c #6B3B43",
"X  c #6E3E48",
"o  c #703F43",
"O  c #6F4044",
"+  c #744444",
"@  c #7B4B45",
"#  c #704048",
"$  c #90603E",
"%  c #9A6A3B",
"&  c #855542",
"*  c #8F5243",
"=  c #975345",
"-  c #9A5746",
";  c #9E5C46",
":  c #92564A",
">  c #9B5649",
",  c #925C4C",
"<  c #945E51",
"1  c #A15E47",
"2  c #94614C",
"3  c #9F6E49",
"4  c #82714C",
"5  c #966251",
"6  c #996351",
"7  c #966C50",
"8  c #9C6B55",
"9  c #8F7051",
"0  c #847D52",
"q  c #887D53",
"w  c #9B7B53",
"e  c #AB6546",
"r  c #A5604A",
"t  c #AD644D",
"y  c #B16240",
"u  c #B66B44",
"i  c #BB6F42",
"p  c #B26D4B",
"a  c #A6744E",
"s  c #AC774F",
"d  c #BC7443",
"f  c #BE7949",
"g  c #A66555",
"h  c #AA6B57",
"j  c #AD7751",
"k  c #C07743",
"l  c #C37C44",
"z  c #C47D4A",
"x  c #7A9E57",
"c  c #7A9F58",
"v  c #79A057",
"b  c #78A158",
"n  c #BB842B",
"m  c #BD8537",
"M  c #BE8C33",
"N  c #BD8339",
"B  c #C28E34",
"V  c #C69133",
"C  c #CA9534",
"Z  c #CB973F",
"A  c #C7983F",
"S  c #D39F3C",
"D  c #D5A42D",
"F  c #D2A233",
"G  c #D3A23E",
"H  c #DBAD3D",
"J  c #9F8B58",
"K  c #939456",
"L  c #939659",
"P  c #9B9258",
"I  c #969C5A",
"U  c #9E995D",
"Y  c #B5844A",
"T  c #9BAD5E",
"R  c #9AB55E",
"E  c #A1B45F",
"W  c #A6A461",
"Q  c #A9A563",
"!  c #A3BE62",
"~  c #C78145",
"^  c #C98446",
"/  c #CF8D46",
"(  c #C88D4B",
")  c #CA9E48",
"_  c #C38252",
"`  c #C98452",
"'  c #C0895A",
"]  c #C49651",
"[  c #C69952",
"{  c #C99B52",
"}  c #D79652",
"|  c #DB9058",
" . c #DEAA4C",
".. c #CDA25C",
"X. c #E2AB4D",
"o. c #E4B14C",
"O. c #E9B54F",
"+. c #EEBC4F",
"@. c #E4A755",
"#. c #E7AE51",
"$. c #E9AB56",
"%. c #E7AB59",
"&. c #E8AD59",
"*. c #ECB751",
"=. c #EDBB53",
"-. c #EEB35C",
";. c #C48F65",
":. c #DD9861",
">. c #D3AD6E",
",. c #A4C263",
"<. c #BFD16F",
"1. c #F0C347",
"2. c #FFD54E",
"3. c #F4C452",
"4. c #F9C751",
"5. c #FBCD52",
"6. c #F4C158",
"7. c #FED253",
"8. c #FFDA56",
"9. c #FFD35F",
"0. c #FFDA5A",
"q. c #FFE45E",
"w. c #FFEC5E",
"e. c #FFF15F",
"r. c #C0D470",
"t. c #FFD867",
"y. c #F6C073",
"u. c #FFE262",
"i. c #FFE564",
"p. c #FFEA62",
"a. c #FFEE60",
"s. c #FFF060",
"d. c #FFF36D",
"f. c #FFEB77",
"g. c #FFF971",
"h. c #B1E0BE",
"j. c #FFF981",
"k. c #9BD4C3",
/* pixels */
"k.k.k.k.k.k.k.k.k.k.k.k.k.k.k.k.b b b b b b b b b b b b h.h.h.h.k.k.k.k.k.k.k.k.k.k.k.k.k.k.k.k.",
"k.k.k.k.k.k.k.k.k.k.k.k.k.k.k.k.b b b b b b b b b b b b h.h.h.h.k.k.k.k.k.k.k.k.k.k.k.k.k.k.k.k.",
"k.k.k.k.k.k.k.k.k.k.k.k.k.k.k.k.b b b b b b b b b b b b h.h.h.h.k.k.k.k.k.k.k.k.k.k.k.k.k.k.k.k.",
"k.k.k.k.k.k.k.k.k.k.k.k.k.k.k.k.b b b b b b b b b b b b h.h.h.h.k.k.k.k.k.k.k.k.k.k.k.k.k.k.k.k.",
"k.k.k.k.k.k.k.k.k.k.k.k.b b b b b b b b b b b b b b b b b b b b b b b b k.k.k.k.k.k.k.k.k.k.k.k.",
"k.k.k.k.k.k.k.k.k.k.k.k.b b b b b b b b b b b b b b b b b b b b b b b b k.k.k.k.k.k.k.k.k.k.k.k.",
"k.k.k.k.k.k.k.k.k.k.k.k.b b b b b b b b b b b b b b b b b b b b b b b b k.k.k.k.k.k.k.k.k.k.k.k.",
"k.k.k.k.k.k.k.k.k.k.k.k.b b b b b b b b b b b b b b b b b b b b b b b b k.k.k.k.k.k.k.k.k.k.k.k.",
"k.k.k.k.k.k.k.k.b b b b b b x c ! ,.,.,.,.,.,.,.,.,.,.,.b b x c c x b b b b b b k.k.k.k.k.k.k.k.",
"k.k.k.k.k.k.k.k.b b b b b c b b ,.,.! ! ,.! ! ! ! ! ! ,.c c b b b b c b b b b b k.k.k.k.k.k.k.k.",
"k.k.k.k.k.k.k.k.b b b b b b x x ! ,.,.,.,.,.,.,.,.,.,.,.b b x x x x b b b b b b k.k.k.k.k.k.k.k.",
"k.k.k.k.k.k.k.k.b b b x b b 0 g h P ,.,.,.,.,.,.,.,.,.,.b b q g g 0 b b x b b b k.k.k.k.k.k.k.k.",
"h.h.h.h.b b b b b b b b ! K s | | a L K K L L L L L L K K L a | | j L ! b b b b b b b b k.k.k.k.",
"h.h.h.h.b b b b b c b b I - } 3.3.( - = ; ; ; ; ; ; ; ; = - ( 3.3.} - I b b c b b b b b k.k.k.k.",
"h.h.h.h.b b b b v b x 4 ;.y.t.2.7.6.%.%.&.&.&.-.-.-.&.&.%.%.6.8.8.9.-.' 4 x b v b b b b k.k.k.k.",
"h.h.h.h.b b b b x b x * :.f.g.u.i.p.s.s.s.s.a.w.q.w.s.s.s.s.q.q.q.w.0.| : x b x b b b b k.k.k.k.",
"k.k.k.k.b b b b ! ,.! 6 z G u.j.j.d.w.w.w.w.w.0.3.7.e.e.w.w.w.a.a.2.S z < x b x b b b b k.k.k.k.",
"k.k.k.k.b b b b ! ,.! 8 d n ) >.>...{ { ] [ =.8.5. .[ [ { { { { { A n d 6 x b x b b b b k.k.k.k.",
"k.k.k.k.b b b b ! ,.! 5 z C % . o + + @ . # Y 4.4.Y O   @ + + # . % C l < x b x b b b b k.k.k.k.",
"k.k.k.k.b b b b ! ,.! 5 z C %     o . o . . & 3 3 & .   o . + .   % C l < x b x b b b b k.k.k.k.",
"k.k.k.k.b b b b x b x < l C % # @ & @ @ & @ +     + @ & @ @ & @ # % C l < x b x b b b b k.k.k.k.",
"k.k.k.k.b b b b x b x < l C % X + @ @ @ @ @ @ @ @ @ @ @ @ @ @ + X % C l < x b x b b b b k.k.k.k.",
"k.k.k.k.b b b b x b x < f V M % + . # # X X # # # # X X # # . + % M V f < x b x b b b b k.k.k.k.",
"k.k.k.k.b b b b x b x 5 f V D B $ @ & & & & & & & & & & & & @ $ B D V f 5 x b x b b b b k.k.k.k.",
"b b b b b b b b x b x , z S F V M M M M M M M M M M M M M M M M V F S z 6 ! ,.! b b b b b b b b ",
"b b b b b b b b x b x , ` o.H B m N N N N N N N N N N N N N N m B H o.` 2 ! ,.! b b b b b b b b ",
"b b b b b b b b x b x , ` =.1.Z e > 1 1 1 1 1 1 1 1 1 1 1 1 > e Z 1.=.` , ! ,.! b b b b b b b b ",
"b b b b b b b b x b x , ` =.5. .d e u u u u u u u u u u u u e d  .5.=.` 2 ! ,.! b b b b b b b b ",
"b b b b b b b b ! ,.! 2 ` *.7.O.^ d l l l l l l l l l l l l d ^ O.7.*.` 2 ! ,.! b b b b b b b b ",
"b b b b b b b b ! ,.! 2 ` *.7.o.~ i k k k k k k k k k k k k i ~ o.7.*.` 2 ! ,.! b b b b b b b b ",
"b b b b b b b b ! ,.! : | 3.7.X.d y u u u u u u u u u u u u y d X.7.3.| : ! ,.! b b b b b b b b ",
"b b b b b b b b ! ,.! 7 _ #.5.O./ l ^ ^ ^ ^ ^ ^ ^ ^ ^ ^ ^ ^ l / O.5.#._ 7 ! ,.! b b b b b b b b ",
"b b b b b b b b ,.! ,.E J p $.5.3.O.+.+.+.+.+.+.+.+.+.+.+.+.O.3.5.$.p J E ,.! ,.,.,.,.,.b b b b ",
"b b b b b b b b ,.,.,.,.R 9 _ $.$.@.@.@.@.@.@.@.@.@.@.@.@.@.@.$.$._ 9 R ,.,.,.,.,.,.,.,.b b b b ",
"b b b b b b b b ,.,.,.! ,.,.w t r ; ; ; ; ; ; ; ; ; ; ; ; ; ; r t w ,.,.! ,.,.,.,.,.,.,.b b b b ",
"b b b b b b b b ,.,.,.! ,.,.T U Q Q W W W W W W W W W W W W Q Q U T ,.,.! ,.,.,.,.,.,.,.b b b b ",
"b b b b ,.,.,.,.,.,.,.,.,.! ,.,.r.r.r.r.r.r.r.r.r.r.r.r.r.r.r.r.,.,.! ,.,.,.,.,.,.,.,.,.b b b b ",
"b b b b ,.,.,.,.,.,.,.,.,.,.,.,.r.r.r.r.r.r.r.r.r.r.r.r.r.r.r.r.,.,.,.,.,.,.,.,.,.,.,.,.b b b b ",
"b b b b ,.,.,.,.,.,.,.,.,.,.,.! <.<.<.<.<.<.<.<.<.<.<.<.<.<.<.<.! ,.,.,.,.,.,.,.,.,.,.,.b b b b ",
"b b b b ,.,.,.,.,.,.,.,.,.,.,.,.r.r.r.r.r.r.r.r.r.r.r.r.r.r.r.r.,.,.,.,.,.,.,.,.,.,.,.,.b b b b ",
"b b b b ,.,.,.,.,.,.,.,.,.,.,.,.r.r.r.r.,.,.,.,.r.r.r.r.r.r.r.r.r.r.r.r.,.,.,.,.b b b b b b b b ",
"b b b b ,.,.,.,.,.,.,.,.,.,.,.,.r.r.r.r.,.,.,.,.r.r.r.r.r.r.r.r.r.r.r.r.,.,.,.,.b b b b b b b b ",
"b b b b ,.,.,.,.,.,.,.,.,.,.,.,.r.r.r.r.,.,.,.,.r.r.r.r.r.r.r.r.r.r.r.r.,.,.,.,.b b b b b b b b ",
"b b b b ,.,.,.,.,.,.,.,.,.,.,.,.r.r.r.r.,.,.,.,.r.r.r.r.r.r.r.r.r.r.r.r.,.,.,.,.b b b b b b b b ",
"b b b b ,.,.,.,.,.,.,.,.,.,.,.,.r.r.r.r.r.r.r.r.r.r.r.r.r.r.r.r.r.r.r.r.,.,.,.,.b b b b b b b b ",
"b b b b ,.,.,.,.,.,.,.,.,.,.,.,.r.r.r.r.r.r.r.r.r.r.r.r.r.r.r.r.r.r.r.r.,.,.,.,.b b b b b b b b ",
"b b b b ,.,.,.,.,.,.,.,.,.,.,.,.r.r.r.r.r.r.r.r.r.r.r.r.r.r.r.r.r.r.r.r.,.,.,.,.b b b b b b b b ",
"b b b b ,.,.,.,.,.,.,.,.,.,.,.,.r.r.r.r.r.r.r.r.r.r.r.r.r.r.r.r.r.r.r.r.,.,.,.,.b b b b b b b b "
};
