/* XPM */
static char *_3209b8c846b4b99a6edbc887e032703Z5RODcCCyZpGjg46[] = {
/* columns rows colors chars-per-pixel */
"48 48 154 2 ",
"   c #AA5F3E",
".  c #AD613F",
"X  c #B36C3E",
"o  c #8F5B46",
"O  c #975142",
"+  c #9B5545",
"@  c #915D47",
"#  c #9E5C46",
"$  c #915549",
"%  c #925C4B",
"&  c #A25F44",
"*  c #AC5F42",
"=  c #8C6D4B",
"-  c #94614C",
";  c #98634F",
":  c #926A4E",
">  c #96764F",
",  c #98744D",
"<  c #8B6E50",
"1  c #9A6651",
"2  c #966C50",
"3  c #9D6B55",
"4  c #8F7051",
"5  c #957451",
"6  c #9B7253",
"7  c #977854",
"8  c #9A7A53",
"9  c #A36142",
"0  c #AE6540",
"q  c #A5604A",
"w  c #AD644D",
"e  c #B46441",
"r  c #B66B42",
"t  c #B46D4D",
"y  c #BC7345",
"u  c #B5724D",
"i  c #B47D4C",
"p  c #B46A51",
"a  c #BD7452",
"s  c #C07743",
"d  c #C37B44",
"f  c #C37F4E",
"g  c #C07953",
"h  c #78A158",
"j  c #BC8532",
"k  c #C28C2F",
"l  c #C78E37",
"z  c #CF9A3D",
"x  c #D6A733",
"c  c #D8AD38",
"v  c #9C8054",
"b  c #9F8B58",
"n  c #959759",
"m  c #99975B",
"M  c #96985A",
"N  c #9E995D",
"B  c #A28257",
"V  c #A38758",
"C  c #A18D5A",
"Z  c #AB965E",
"A  c #A19A5F",
"S  c #9BAD5E",
"D  c #9CB35E",
"F  c #A1B45F",
"G  c #9EB060",
"H  c #A6A461",
"J  c #AAA563",
"K  c #B1A767",
"L  c #A3BD62",
"P  c #B2BD68",
"I  c #C98445",
"U  c #C68B47",
"Y  c #CF8D46",
"T  c #C4804F",
"R  c #D68D4F",
"E  c #D19446",
"W  c #D5954A",
"Q  c #D9924F",
"!  c #D99E4A",
"~  c #C28151",
"^  c #CA8552",
"/  c #CE8C55",
"(  c #D58C52",
")  c #D08E5C",
"_  c #DA9352",
"`  c #DE9A53",
"'  c #D7955F",
"]  c #DD925A",
"[  c #E29E55",
"{  c #E49D59",
"}  c #D6A242",
"|  c #D8A345",
" . c #DCA845",
".. c #DAA250",
"X. c #E3AD4D",
"o. c #E1B742",
"O. c #E5B846",
"+. c #EABE46",
"@. c #E6B04F",
"#. c #EDBC4F",
"$. c #E4A755",
"%. c #E6AE51",
"&. c #EAAB56",
"*. c #E5A159",
"=. c #EDA95F",
"-. c #EEB653",
";. c #ECB851",
":. c #F0B752",
">. c #F1BA53",
",. c #DCAB67",
"<. c #DDAD68",
"1. c #DFB068",
"2. c #E8A164",
"3. c #F1AB67",
"4. c #E3B469",
"5. c #F4B267",
"6. c #F7B56C",
"7. c #FEBD6B",
"8. c #A4C263",
"9. c #B5C36A",
"0. c #BDCD6E",
"q. c #BFD16F",
"w. c #BFD370",
"e. c #F8D04E",
"r. c #F2C250",
"t. c #FBCC53",
"y. c #FAC65B",
"u. c #FDCD5B",
"i. c #FFD754",
"p. c #FFDB54",
"a. c #FFD55B",
"s. c #FFDF5C",
"d. c #FFE65C",
"f. c #FFE95F",
"g. c #FFF15F",
"h. c #C0D26F",
"j. c #C0D470",
"k. c #F1C865",
"l. c #F0C369",
"z. c #FED762",
"x. c #FBD16F",
"c. c #FFC373",
"v. c #FFDE73",
"b. c #FFE462",
"n. c #FFEA64",
"m. c #FFE16E",
"M. c #FFF461",
"N. c #FFF46D",
"B. c #FFED76",
"V. c #FFEE7A",
"C. c #FFF47A",
"Z. c #FFF97B",
"A. c #FFF97D",
"S. c #FFF983",
/* pixels */
"j.j.j.j.j.j.j.j.j.j.j.j.j.j.j.j.j.j.j.j.j.j.j.j.j.j.j.j.8.8.8.8.8.8.8.8.8.8.8.8.h h h h h h h h ",
"j.j.j.j.j.j.j.j.j.j.j.j.j.j.j.j.j.j.j.j.j.j.j.j.j.j.j.j.8.8.8.8.8.8.8.8.8.8.8.8.h h h h h h h h ",
"j.j.j.j.j.j.j.j.j.j.j.j.j.j.j.j.j.j.j.j.j.j.j.j.j.j.j.j.8.8.8.8.8.8.8.8.8.8.8.8.h h h h h h h h ",
"j.j.j.j.j.j.j.j.j.j.j.j.j.j.j.j.j.j.j.j.j.j.j.j.j.j.j.j.8.8.8.8.8.8.8.8.8.8.8.8.h h h h h h h h ",
"j.j.j.j.j.j.j.j.j.j.j.j.j.j.j.j.j.j.j.j.j.j.j.j.j.j.j.j.j.j.j.j.8.8.8.8.8.8.8.8.h h h h h h h h ",
"j.j.j.j.j.j.j.j.j.j.j.j.j.j.j.j.j.j.j.j.j.j.j.j.j.j.j.j.j.j.j.j.8.8.8.8.8.8.8.8.h h h h h h h h ",
"j.j.j.j.j.j.j.j.j.j.j.j.j.j.j.j.j.j.j.j.j.j.j.j.j.j.j.j.j.j.j.j.8.8.8.8.8.8.8.8.h h h h h h h h ",
"j.j.j.j.j.j.j.j.j.j.j.j.j.j.j.j.j.j.j.j.j.j.j.j.j.j.j.j.j.j.j.j.8.8.8.8.8.8.8.8.h h h h h h h h ",
"j.j.j.j.j.j.j.j.j.j.j.j.j.j.j.j.j.j.j.j.j.j.j.j.j.j.j.j.8.8.8.8.8.8.8.8.8.8.8.8.h h h h h h h h ",
"j.j.j.j.j.j.j.j.j.j.j.j.j.j.h.q.q.h.j.j.j.j.j.j.j.j.j.j.8.8.8.L L 8.8.8.8.8.8.8.h h h h h h h h ",
"j.j.j.j.j.j.j.j.j.j.j.j.j.j.j.j.j.j.j.j.j.j.j.j.j.j.j.j.8.8.8.8.8.8.8.8.8.8.8.8.h h h h h h h h ",
"j.j.j.j.j.j.j.j.j.j.j.j.w.0.j.j.j.j.0.0.q.0.0.0.0.0.0.q.L L 8.8.8.8.L 8.8.8.8.8.h h h h h h h h ",
"j.j.j.j.j.j.j.j.j.j.j.q.j.j.9.K K 9.j.j.j.j.j.j.j.j.j.j.8.8.G A A D 8.8.L 8.8.8.8.8.8.8.h h h h ",
"j.j.j.j.j.j.j.j.j.j.j.0.j.j.V p p V j.j.j.j.j.j.j.j.j.j.8.8.v p p v 8.8.L 8.8.8.8.8.8.8.h h h h ",
"j.j.j.j.j.j.j.j.j.h.j.j.9.5 ~ &.&.i 8 > , > 5 > > 5 > , = 5 i &.&.~ < D 8.8.8.8.8.8.8.8.h h h h ",
"j.j.j.j.j.j.j.j.j.q.w.9.Z u &.p.p...t p g a a a a a a g p t ..p.p.&.u C D 8.L 8.8.8.8.8.h h h h ",
"j.j.j.j.j.j.j.j.q.j.0.5 / y.s.s.d.>._ 2.6.3.3.3.3.3.3.6.2._ >.d.s.s.y./ : L 8.L 8.8.8.8.h h h h ",
"j.j.j.j.j.j.j.j.0.j.0.$ { f.M.a.y.&.[ =.7.c.c.c.c.c.c.7.=.[ &.y.a.M.f.{ $ L 8.L 8.8.8.8.h h h h ",
"j.j.j.j.j.j.j.j.q.j.0.- / a.g.u.` ( _ Q [ 5.6.5.5.6.5.[ Q _ ( ` u.g.a./ % L 8.L 8.8.8.8.h h h h ",
"j.j.j.j.j.j.j.j.q.j.0.- / a.M.u.` ( ` _ ` { *.{ { *.{ ` _ ` ( ` u.M.a./ % L 8.L 8.8.8.8.h h h h ",
"j.j.j.j.j.j.j.j.q.j.0.- / a.g.u.[ ( _ _ _ R R R R R R _ _ _ ( [ u.g.a./ % L 8.L 8.8.8.8.h h h h ",
"j.j.j.j.j.j.j.j.q.j.0.- ( a.g.u.[ ( _ _ _ _ _ _ _ _ _ _ _ _ ( [ u.g.a.( % L 8.L 8.8.8.8.h h h h ",
"j.j.j.j.j.j.j.j.q.j.0.@ ' B.N.t.>.-.>.>.:.>.>.>.>.>.>.>.>.>.-.>.t.N.B.' o L 8.L 8.8.8.8.h h h h ",
"j.j.j.j.j.j.j.j.q.j.0.- ) v.N.b.n.n.n.n.n.n.b.b.b.n.n.n.n.n.n.n.b.N.v.) o L 8.L 8.8.8.8.h h h h ",
"j.j.j.j.j.j.j.j.q.j.0.3 y z z.S.A.Z.Z.Z.A.Z.Z.V.C.Z.Z.Z.Z.Z.Z.A.S.z.z y 1 L 8.L 8.8.8.8.h h h h ",
"j.j.j.j.j.j.j.j.q.j.0.3 y k O.k.4.,.1.4.,.<.x.B.m.l.<.<.4.1.,.4.k.O.k y 1 L 8.L 8.8.8.8.h h h h ",
"j.j.j.j.j.j.j.j.q.j.0.1 T | x j 9 + # 9 O + ..d.t.U + + & # + 9 j x | T - L 8.L 8.8.8.8.h h h h ",
"j.j.j.j.j.j.j.j.q.j.0.1 f } c l X * 0 e   . ! i.t.E .   e 0 * X l c } f ; L 8.L 8.8.8.8.h h h h ",
"j.j.j.j.j.j.j.j.q.j.0.1 f  .o.} I d d I d d W X.@.W d d I d d I } o. .f - L 8.L 8.8.8.8.h h h h ",
"j.j.j.j.j.j.j.j.q.j.0.- ^ ;.+.z d y s s s s s d d d s s s s y d z +.;.^ - L 8.L 8.8.8.8.h h h h ",
"j.j.j.j.j.j.j.j.0.j.0.$ ] t.e.| y e r r r r e e e e r r r r e y | e.t.] $ L 8.L 8.8.8.8.h h h h ",
"j.j.j.j.j.j.j.j.q.j.0.6 ~ %.t.#.Y d I I I I I I I I I I I I d Y #.t.%.~ 2 L 8.L 8.8.8.8.h h h h ",
"j.j.j.j.j.j.j.j.8.L 8.F Z t &.t.r.#.#.#.#.#.#.#.#.#.#.#.#.#.#.r.t.&.t b F 8.L 8.8.8.8.8.h h h h ",
"j.j.j.j.j.j.j.j.8.8.8.8.9.7 ~ &.&.$.$.$.$.$.$.$.$.$.$.$.$.$.$.&.&.~ 4 D 8.8.8.8.8.8.8.8.h h h h ",
"j.j.j.j.j.j.j.j.8.8.8.L j.j.B w q # # # # # # # # # # # # # # q w 8 8.8.L 8.8.8.8.8.8.8.h h h h ",
"j.j.j.j.j.j.j.j.8.8.8.L j.j.P J J J H H H H H H H H H H n n M m N S 8.8.L 8.8.8.8.8.8.8.h h h h ",
"j.j.j.j.j.j.j.j.j.j.j.j.w.0.j.j.j.j.j.j.j.j.j.j.j.j.j.j.j.j.j.j.8.8.L 8.8.8.8.8.h h h h h h h h ",
"j.j.j.j.j.j.j.j.j.j.j.j.j.j.j.j.j.j.j.j.j.j.j.j.j.j.j.j.j.j.j.j.8.8.8.8.8.8.8.8.h h h h h h h h ",
"j.j.j.j.j.j.j.j.j.j.j.j.j.j.h.q.q.q.q.q.q.q.q.q.q.q.q.q.q.q.q.q.L 8.8.8.8.8.8.8.h h h h h h h h ",
"j.j.j.j.j.j.j.j.j.j.j.j.j.j.j.j.j.j.j.j.j.j.j.j.j.j.j.j.j.j.j.j.8.8.8.8.8.8.8.8.h h h h h h h h ",
"j.j.j.j.j.j.j.j.j.j.j.j.j.j.j.j.j.j.j.j.8.8.8.8.j.j.j.j.j.j.j.j.j.j.j.j.8.8.8.8.h h h h h h h h ",
"j.j.j.j.j.j.j.j.j.j.j.j.j.j.j.j.j.j.j.j.8.8.8.8.j.j.j.j.j.j.j.j.j.j.j.j.8.8.8.8.h h h h h h h h ",
"j.j.j.j.j.j.j.j.j.j.j.j.j.j.j.j.j.j.j.j.8.8.8.8.j.j.j.j.j.j.j.j.j.j.j.j.8.8.8.8.h h h h h h h h ",
"j.j.j.j.j.j.j.j.j.j.j.j.j.j.j.j.j.j.j.j.8.8.8.8.j.j.j.j.j.j.j.j.j.j.j.j.8.8.8.8.h h h h h h h h ",
"j.j.j.j.j.j.j.j.j.j.j.j.j.j.j.j.j.j.j.j.j.j.j.j.j.j.j.j.j.j.j.j.j.j.j.j.8.8.8.8.8.8.8.8.h h h h ",
"j.j.j.j.j.j.j.j.j.j.j.j.j.j.j.j.j.j.j.j.j.j.j.j.j.j.j.j.j.j.j.j.j.j.j.j.8.8.8.8.8.8.8.8.h h h h ",
"j.j.j.j.j.j.j.j.j.j.j.j.j.j.j.j.j.j.j.j.j.j.j.j.j.j.j.j.j.j.j.j.j.j.j.j.8.8.8.8.8.8.8.8.h h h h ",
"j.j.j.j.j.j.j.j.j.j.j.j.j.j.j.j.j.j.j.j.j.j.j.j.j.j.j.j.j.j.j.j.j.j.j.j.8.8.8.8.8.8.8.8.h h h h "
};
