/* XPM */
static char *_ba4e6ae8afa4fdde47e35b7253aa88dzwVpO175X54qfgf6[] = {
/* columns rows colors chars-per-pixel */
"48 48 152 2 ",
"   c #776F4E",
".  c #964C3D",
"X  c #984E3E",
"o  c #9D553E",
"O  c #A15A3F",
"+  c #AA6934",
"@  c #BE7F33",
"#  c #905447",
"$  c #9B5241",
"%  c #975B45",
"&  c #9C5C46",
"*  c #88664D",
"=  c #8D7E4E",
"-  c #866B50",
";  c #8F6C50",
":  c #857452",
">  c #8F7D52",
",  c #977954",
"<  c #A96347",
"1  c #A2664D",
"2  c #AB654A",
"3  c #A66A4A",
"4  c #AB694A",
"5  c #BC6E42",
"6  c #B26E4B",
"7  c #BD7242",
"8  c #B8704F",
"9  c #BE7552",
"0  c #B47A56",
"q  c #B87E56",
"w  c #B17A60",
"e  c #C57E45",
"r  c #CA7D58",
"t  c #7A9E57",
"y  c #7A9F59",
"u  c #78A158",
"i  c #C5912D",
"p  c #CB8D3E",
"a  c #D8AA37",
"s  c #D7A63E",
"d  c #DBAF3A",
"f  c #DEB13E",
"g  c #8D8253",
"h  c #938154",
"j  c #9A8557",
"k  c #998559",
"l  c #9B8A5A",
"z  c #849056",
"x  c #959759",
"c  c #97995A",
"v  c #9E995D",
"b  c #A28957",
"n  c #A18F5B",
"m  c #BD8457",
"M  c #BD8458",
"N  c #A7945D",
"B  c #AC985F",
"V  c #9BA75C",
"C  c #9BB25E",
"Z  c #9EB85F",
"A  c #A0A25B",
"S  c #A0A95E",
"D  c #B68062",
"F  c #ADA861",
"G  c #A4BF62",
"H  c #B0B566",
"J  c #B1BA67",
"K  c #C68244",
"L  c #C88446",
"P  c #C78A44",
"I  c #CB8A47",
"U  c #CE8C48",
"Y  c #D48C4E",
"T  c #CD9241",
"R  c #D19546",
"E  c #D7904E",
"W  c #D69C4C",
"Q  c #DA9D4A",
"!  c #C08451",
"~  c #C18958",
"^  c #D58B51",
"/  c #D98F53",
"(  c #DA8D5D",
")  c #CA9652",
"_  c #DB9452",
"`  c #DE9A53",
"'  c #E39F53",
"]  c #E69D5B",
"[  c #D8A740",
"{  c #DDAE45",
"}  c #D8A04D",
"|  c #DEB142",
" . c #DFA454",
".. c #DAA659",
"X. c #EEBC4F",
"o. c #F0BE4E",
"O. c #E4A454",
"+. c #E4AA54",
"@. c #EAAE54",
"#. c #E9A55B",
"$. c #E3AE5C",
"%. c #EDB455",
"&. c #EBB950",
"*. c #EFB059",
"=. c #F2BA56",
"-. c #F5BC5B",
";. c #DC9260",
":. c #EEAB63",
">. c #F0AD61",
",. c #EBBC62",
"<. c #F8B76A",
"1. c #FCBB6D",
"2. c #A4C263",
"3. c #B4C269",
"4. c #BCCE6D",
"5. c #BED16F",
"6. c #BFD370",
"7. c #F0C847",
"8. c #F5C84F",
"9. c #FCCF4E",
"0. c #F2C050",
"q. c #FAC354",
"w. c #F7C951",
"e. c #FCCC56",
"r. c #FAC45C",
"t. c #FECB5C",
"y. c #FFD357",
"u. c #FFDE5B",
"i. c #FFE356",
"p. c #FFE15D",
"a. c #FFEE58",
"s. c #FFF05B",
"d. c #C0D26F",
"f. c #C0D470",
"g. c #FAC462",
"h. c #FFD760",
"j. c #FFC271",
"k. c #FFD578",
"l. c #FFE169",
"z. c #FFEC6C",
"x. c #FFF260",
"c. c #FFF965",
"v. c #FFF46F",
"b. c #FFF96F",
"n. c #FFEB74",
"m. c #FFE77A",
"M. c #FFEB7A",
"N. c #FFF772",
"B. c #FFF97D",
"V. c #B1E0BE",
"C. c #FFF281",
"Z. c #9BD4C3",
/* pixels */
"u u u u u u u u 2.2.2.2.2.2.2.2.2.2.2.2.f.f.f.f.f.f.f.f.f.f.f.f.f.f.f.f.f.f.f.f.f.f.f.f.f.f.f.f.",
"u u u u u u u u 2.2.2.2.2.2.2.2.2.2.2.2.f.f.f.f.f.f.f.f.f.f.f.f.f.f.f.f.f.f.f.f.f.f.f.f.f.f.f.f.",
"u u u u u u u u 2.2.2.2.2.2.2.2.2.2.2.2.f.f.f.f.f.f.f.f.f.f.f.f.f.f.f.f.f.f.f.f.f.f.f.f.f.f.f.f.",
"u u u u u u u u 2.2.2.2.2.2.2.2.2.2.2.2.f.f.f.f.f.f.f.f.f.f.f.f.f.f.f.f.f.f.f.f.f.f.f.f.f.f.f.f.",
"u u u u u u u u 2.2.2.2.2.2.2.2.f.f.f.f.f.f.f.f.f.f.f.f.f.f.f.f.2.2.2.2.f.f.f.f.f.f.f.f.f.f.f.f.",
"u u u u u u u u 2.2.2.2.2.2.2.2.f.f.f.f.f.f.f.f.f.f.f.f.f.f.f.f.2.2.2.2.f.f.f.f.f.f.f.f.f.f.f.f.",
"u u u u u u u u 2.2.2.2.2.2.2.2.f.f.f.f.f.f.f.f.f.f.f.f.f.f.f.f.2.2.2.2.f.f.f.f.f.f.f.f.f.f.f.f.",
"u u u u u u u u 2.2.2.2.2.2.2.2.f.f.f.f.f.f.f.f.f.f.f.f.f.f.f.f.2.2.2.2.f.f.f.f.f.f.f.f.f.f.f.f.",
"u u u u 2.2.2.2.2.2.2.2.2.2.2.2.2.2.2.2.f.f.f.f.f.f.f.f.f.f.f.f.f.f.f.f.f.f.f.f.f.f.f.f.f.f.f.f.",
"u u u u 2.2.2.2.2.2.2.2.2.2.2.2.2.2.2.2.f.f.f.f.f.f.f.f.f.f.f.f.f.f.f.f.f.f.f.f.f.f.f.f.f.f.f.f.",
"u u u u 2.2.2.2.2.2.2.2.2.2.2.2.2.2.2.2.f.f.f.f.f.f.f.f.f.f.f.f.f.f.f.f.f.f.f.f.f.f.f.f.f.f.f.f.",
"u u u u 2.2.2.2.2.2.2.2.2.G G G 2.2.2.2.f.f.f.f.f.f.f.f.f.f.f.f.5.f.4.6.f.f.f.f.f.f.f.f.f.f.f.f.",
"u u u u 2.2.2.2.2.2.2.2.2.2.2.2.f.d.5.5.d.d.d.d.d.d.d.d.5.5.d.f.f.f.f.f.6.f.f.f.f.f.f.f.2.2.2.2.",
"u u u u 2.2.2.2.2.2.2.2.2.2.2.2.f.d.d.d.d.d.d.d.d.d.d.d.d.d.d.f.f.f.f.f.6.f.f.f.f.f.f.f.2.2.2.2.",
"u u u u 2.2.2.2.2.G G 2.Z , w h f.f.f.f.f.f.f.f.f.f.f.f.f.f.f.f.l D , 4.f.d.d.f.f.f.f.f.2.2.2.2.",
"u u u u 2.2.2.2.2.2.2.C n 6 ( 4 F J J J J J J J J J J J J J J F 4 ( 6 B 3.f.f.f.f.f.f.f.2.2.2.2.",
"u u u u u u u u G 2.2.* 9 +.q.W 3 # % % % % % % % % % % % % # 3 W q.+.9 ; f.f.5.f.f.f.f.f.f.f.f.",
"u u u u u u u u G V b ! -.y.a.e.^ r ;.;.;.( ( ( ( ( ( ;.;.;.r ^ e.a.y.-.! N H 5.f.d.f.f.f.f.f.f.",
"u u u u u u y u 2.> 6 r.x.u.p.t.' ] 1.1.<.1.1.1.1.1.1.<.1.1.] ' t.p.u.x.r.6 l f.f.5.f.f.f.f.f.f.",
"u u u u u u y u 2.> 8 t.c.p.-.O.` ] #.#.>.1.j.1.1.j.1.>.#.#.] ` O.-.p.c.t.8 j f.f.4.f.f.f.f.f.f.",
"u u u u u u y u 2.g 4 -.x.u.@.^ _ _ E Y ` :.:.:.:.:.:.` Y E _ _ ^ @.u.x.-.4 l f.f.5.f.f.f.f.f.f.",
"u u u u u u y u 2.h 4 -.x.p.%._ _ ` _ _ _ ` ` ` ` ` ` _ _ _ ` _ _ %.p.x.-.4 l f.f.5.f.f.f.f.f.f.",
"u u u u u u y u 2.h 4 =.s.p.@.^ ^ _ / / ^ ^ Y ^ ^ Y ^ ^ / / _ ^ ^ @.p.s.=.4 l f.f.5.f.f.f.f.f.f.",
"u u u u u u y u 2.g 4 g.c.u.%.` ` O.' ' ' O.O.O.O.O.O.' ' ' O.` ` %.u.c.g.4 l f.f.5.f.f.f.f.f.f.",
"Z.Z.Z.Z.u u y u 2.= 4 k.B.u.w.e.e.e.e.e.e.e.e.y.e.e.e.e.e.e.e.e.e.w.u.B.k.4 = 2.f.5.f.f.f.f.f.f.",
"Z.Z.Z.Z.u u y u 2.h 2 $.l.n.N.b.b.b.b.b.b.b.v.z.z.v.b.b.b.b.b.b.b.N.n.l.$.2 h 2.f.5.f.f.f.f.f.f.",
"Z.Z.Z.Z.u u y u 2.l < @ | n.C.m.m.m.m.m.m.m.m.M.M.m.m.m.m.m.m.m.m.C.n.| @ < l 2.f.5.f.f.f.f.f.f.",
"Z.Z.Z.Z.u u y u 2.k 2 p a { ) M M M M ~ q m ,.z.h...M m ~ M M M M ) { a p 2 k 2.f.5.f.f.f.f.f.f.",
"Z.Z.Z.Z.u u y u u : 2 W d i + $ o o o O . o } i.9.P o X O o o o $ + i d W 2 n f.f.5.f.f.f.f.f.f.",
"Z.Z.Z.Z.u u y u u : 2 R f s P 7 7 7 7 7 5 7 Q w.w.Q 7 5 7 7 7 7 7 P s f R 2 n f.f.5.f.f.f.f.f.f.",
"Z.Z.Z.Z.u u y u u - 9 @.7.[ K 5 5 7 7 7 5 5 e I U e 5 5 7 7 7 5 5 K [ 7.@.9 j f.f.4.f.f.f.f.f.f.",
"Z.Z.Z.Z.u u u u u : 3 ` o.{ T L L L L L L L L e e L L L L L L L L T { o.` 3 N f.f.6.f.f.f.f.f.f.",
"Z.Z.Z.Z.u u u u t t z 1 _ 0.8.&.X.X.X.X.X.X.X.X.X.X.X.X.X.X.X.X.&.8.0._ 1 S G G 2.2.2.2.f.f.f.f.",
"Z.Z.Z.Z.u u u u t u u   0 ` *. .O.O.O.O.O.O.+.+.+.+.O.O.O.O.O.O. .*.` 0 g 2.2.G 2.2.2.2.f.f.f.f.",
"Z.Z.Z.Z.u u u u u t u u A & 2 & & & & & & & & & & & & & & & & & & 2 & A 2.2.G 2.2.2.2.2.f.f.f.f.",
"Z.Z.Z.Z.u u u u u u u u G c v c x x x x x x c x x x x x x x x x c v c G 2.2.2.2.2.2.2.2.f.f.f.f.",
"Z.Z.Z.Z.Z.Z.Z.Z.u u u t u u u u 2.2.2.2.2.2.2.2.2.2.2.2.2.2.2.2.2.2.2.2.G 2.2.2.2.2.2.2.2.2.2.2.",
"Z.Z.Z.Z.Z.Z.Z.Z.u u u u u u u u 2.2.2.2.2.2.2.2.2.2.2.2.2.2.2.2.2.2.2.2.2.2.2.2.2.2.2.2.2.2.2.2.",
"Z.Z.Z.Z.Z.Z.Z.Z.u u u u u y y y G G G G G G G G G G G G G G G G G G G 2.2.2.2.2.2.2.2.2.2.2.2.2.",
"Z.Z.Z.Z.Z.Z.Z.Z.u u u u u u u u 2.2.2.2.2.2.2.2.2.2.2.2.2.2.2.2.2.2.2.2.2.2.2.2.2.2.2.2.2.2.2.2.",
"Z.Z.Z.Z.Z.Z.Z.Z.Z.Z.Z.Z.u u u u u u u u u u u u u u u u u u u u u u u u 2.2.2.2.u u u u u u u u ",
"Z.Z.Z.Z.Z.Z.Z.Z.Z.Z.Z.Z.u u u u u u u u u u u u u u u u u u u u u u u u 2.2.2.2.u u u u u u u u ",
"Z.Z.Z.Z.Z.Z.Z.Z.Z.Z.Z.Z.u u u u u u u u u u u u u u u u u u u u u u u u 2.2.2.2.u u u u u u u u ",
"Z.Z.Z.Z.Z.Z.Z.Z.Z.Z.Z.Z.u u u u u u u u u u u u u u u u u u u u u u u u 2.2.2.2.u u u u u u u u ",
"Z.Z.Z.Z.Z.Z.Z.Z.Z.Z.Z.Z.Z.Z.Z.Z.Z.Z.Z.Z.V.V.V.V.u u u u u u u u u u u u u u u u u u u u u u u u ",
"Z.Z.Z.Z.Z.Z.Z.Z.Z.Z.Z.Z.Z.Z.Z.Z.Z.Z.Z.Z.V.V.V.V.u u u u u u u u u u u u u u u u u u u u u u u u ",
"Z.Z.Z.Z.Z.Z.Z.Z.Z.Z.Z.Z.Z.Z.Z.Z.Z.Z.Z.Z.V.V.V.V.u u u u u u u u u u u u u u u u u u u u u u u u ",
"Z.Z.Z.Z.Z.Z.Z.Z.Z.Z.Z.Z.Z.Z.Z.Z.Z.Z.Z.Z.V.V.V.V.u u u u u u u u u u u u u u u u u u u u u u u u "
};
