/* XPM */
static char *a7c258d7a83c48b3d88d4de9571838edSSa2JhuJrTs5POB6[] = {
/* columns rows colors chars-per-pixel */
"48 48 142 2 ",
"   c #6D3D49",
".  c #734446",
"X  c #774845",
"o  c #7A4A45",
"O  c #704048",
"+  c #8E5F3D",
"@  c #97643B",
"#  c #AF7D37",
"$  c #854C46",
"%  c #914B44",
"&  c #845542",
"*  c #8C5446",
"=  c #895941",
"-  c #9A5545",
";  c #9D5C46",
":  c #9E5D48",
">  c #A15E47",
",  c #A05D48",
"<  c #9D644C",
"1  c #9F6C4F",
"2  c #916E51",
"3  c #9B7452",
"4  c #A46146",
"5  c #A96446",
"6  c #A66E47",
"7  c #AA6947",
"8  c #A6644B",
"9  c #AC634C",
"0  c #AD694A",
"q  c #B36643",
"w  c #B56C44",
"e  c #B86D42",
"r  c #A77048",
"t  c #BE7443",
"y  c #B17148",
"u  c #B67A49",
"i  c #BB7F49",
"p  c #B16650",
"a  c #A27051",
"s  c #AC7255",
"d  c #AE7951",
"f  c #AC7958",
"g  c #B07B52",
"h  c #C07743",
"j  c #C47B42",
"k  c #C87F42",
"l  c #C27554",
"z  c #C07B50",
"x  c #78A158",
"c  c #BE8C2E",
"v  c #BE8C33",
"b  c #BD8339",
"n  c #C5942F",
"m  c #CE9E2E",
"M  c #D29F2D",
"N  c #C18E30",
"B  c #C4883B",
"V  c #C09130",
"C  c #CC9A31",
"Z  c #D09F38",
"A  c #D6A639",
"S  c #ECB73D",
"D  c #9D8656",
"F  c #938E57",
"G  c #8D9256",
"H  c #959559",
"J  c #9D925B",
"K  c #979959",
"L  c #9B9B5C",
"P  c #BD8241",
"I  c #BB804A",
"U  c #A78F5B",
"Y  c #A39E5E",
"T  c #9AA65C",
"R  c #9FB55F",
"E  c #A1AE5F",
"W  c #A79360",
"Q  c #A59E60",
"!  c #A6A461",
"~  c #AAA564",
"^  c #A1AF62",
"/  c #ADAD64",
"(  c #AFB466",
")  c #A4BF63",
"_  c #B3B666",
"`  c #B7BE6B",
"'  c #C68344",
"]  c #C98446",
"[  c #C88841",
"{  c #C1874B",
"}  c #C4884E",
"|  c #CE8F4E",
" . c #D08F40",
".. c #D08F49",
"X. c #C69442",
"o. c #CF9349",
"O. c #D39142",
"+. c #D2944A",
"@. c #D69F4E",
"#. c #D99D4A",
"$. c #D18B55",
"%. c #D19453",
"&. c #D19857",
"*. c #DC9C52",
"=. c #DBA34B",
"-. c #DEA354",
";. c #E4B542",
":. c #E6B845",
">. c #EDBC4F",
",. c #E3A755",
"<. c #E7AB54",
"1. c #EBAB56",
"2. c #E6A45C",
"3. c #EEAE58",
"4. c #E8B750",
"5. c #ECBA51",
"6. c #EDB45A",
"7. c #F2BE53",
"8. c #F1B35C",
"9. c #FBBB5B",
"0. c #A4C263",
"q. c #B6C36A",
"w. c #B8C66B",
"e. c #BECE6E",
"r. c #BFD16F",
"t. c #BFD370",
"y. c #F4C54F",
"u. c #EFC250",
"i. c #F5C551",
"p. c #F7C951",
"a. c #FBCD51",
"s. c #F9C35D",
"d. c #FFD753",
"f. c #FFD95C",
"g. c #FFE45B",
"h. c #FFEB5D",
"j. c #FFEC5D",
"k. c #FFF35D",
"l. c #C0D26F",
"z. c #C1D370",
"x. c #C0D470",
"c. c #FFD462",
/* pixels */
"x x x x 0.0.0.0.0.0.0.0.x.x.r.l.x.x.x.x.x.x.x.x.x.x.x.x.x.x.x.x.l.r.x.x.x.x.x.x.x.x.x.x.x.x.x.x.",
"x x x x 0.0.0.0.0.0.0.0.l.r.x.x.Y W J J J J J J J J J J J J W Y x.x.r.l.x.x.x.x.x.x.x.x.x.x.x.x.",
"x x x x 0.0.0.0.0.0.0.0.z.x.r._ 8 l 0 0 0 0 0 0 0 0 0 0 0 0 l 8 _ r.x.z.x.x.x.x.x.x.x.x.x.x.x.x.",
"x x x x 0.0.0.0.0.0.0.) x.x.F s 6.c.s.s.s.s.s.s.s.s.s.s.s.s.c.6.s F x.x.r.x.x.x.x.x.x.x.x.x.x.x.",
"x x x x x x x x 0.0.0.) R L d 2.f.k.h.j.j.j.j.j.j.j.j.j.j.h.k.f.2.g / w.) 0.0.0.x.x.x.x.x.x.x.x.",
"x x x x x x x x 0.) 0.0.H ; 6.g.p.>.i.i.i.i.i.i.i.i.i.i.i.i.>.p.g.6.; ! 0.0.) 0.x.x.x.x.x.x.x.x.",
"x x x x x x x x 0.) 0.0.H 8 8.g.a.=.i u I i i i i i i I u i =.a.g.8.8 Y 0.0.) 0.x.x.x.x.x.x.x.x.",
"x x x x x x x x 0.) 0.0.K : *.i.5.{ - - > , , , , , , > - - { 5.i.*.: ~ 0.0.) 0.x.x.x.x.x.x.x.x.",
"x x x x x x x x 0.) 0.0.H ; ,.5.i ; , w t e e e e e e t w , ; i 5.,.; ! x.x.r.x.x.x.x.x.x.x.x.x.",
"x x x x x x x x 0.) 0.0.H ; <.4.7 % 5 w t k k k k k k t w 5 % 7 4.<.; ! x.x.r.x.x.x.x.x.x.x.x.x.",
"x x x x x x x x 0.) 0.0.H ; 1.5.y - 4 ; 5 t h t t h t 5 ; 4 - y 5.1.; ! x.x.r.x.x.x.x.x.x.x.x.x.",
"x x x x x x x x 0.) 0.0.H 9 9.u.7 % 4 , , 5 5 5 5 5 5 , , 4 % 7 u.9.9 Q x.x.r.x.x.x.x.x.x.x.x.x.",
"x x x x x x x x 0.0.0.0.T 3 &.-.} 7 4 4 4 , , , , , , 4 4 4 7 } -.&.3 ( l.x.l.x.x.x.x.x.x.x.x.x.",
"x x x x x x x x 0.0.0.) 0.0.2 z 5.@., ; 4 4 , 4 4 , 4 4 ; , @.5.z 3 t.x.e.x.x.x.x.x.x.x.x.x.x.x.",
"x x x x x x x x 0.0.0.0.^ D 6 B S X.$ $ * * * * * * * * $ $ X.S B r U ` z.x.t.x.x.x.x.x.x.x.x.x.",
"x x x x x x x x 0.) 0.0.J 9 O.m c @ . O X X X X X X X X O . @ c m O.9 ~ x.x.r.x.x.x.x.x.x.x.x.x.",
"x x x x 0.0.0.0.0.) 0.0.J , O.V + X X X X X X X X X X X X X X + V O., ~ x.x.r.x.x.x.x.x.x.x.x.x.",
"x x x x 0.0.0.0.0.) 0.0.L :  .v o   X o X X X X X X X X o o   o v  .: ~ x.x.r.x.x.x.x.x.x.x.x.x.",
"x x x x 0.0.0.0.0.) 0.0.L :  .v = O X X X X X X X X X X X X O = v  .: ~ x.x.r.x.x.x.x.x.x.x.x.x.",
"x x x x 0.0.0.0.0.) 0.0.L :  .v = O X X X X X X X X X X X X O = v  .: ~ x.x.r.x.x.x.x.x.x.x.x.x.",
"x x x x 0.0.0.0.0.) 0.0.~ : O.v &   X X X X X X X X X X o X   & v O.: ~ x.x.r.x.x.x.x.x.x.x.x.x.",
"x x x x 0.0.0.0.0.) 0.0.~ : O.v &   X X X X X X X X X X o X   & v O.: ~ x.x.r.x.x.x.x.x.x.x.x.x.",
"x x x x 0.0.0.0.0.) 0.0.~ , [ n # =     O             O     = # n [ , ~ x.x.r.x.x.x.x.x.x.x.x.x.",
"x x x x 0.0.0.0.0.) 0.0.~ , ' m M # = & = = = = = = = = & = # M m ' , ~ x.x.r.x.x.x.x.x.x.x.x.x.",
"x x x x 0.0.0.0.0.) 0.0.~ ; ..A C N v v v v v v v v v v v v N C A ..; ~ x.x.r.x.x.x.x.x.x.x.x.x.",
"x x x x 0.0.0.0.0.) 0.0.~ ; *.:.Z v b b b b b b b b b b b b v Z :.*.; ~ x.x.r.x.x.x.x.x.x.x.x.x.",
"x x x x 0.0.0.0.0.) 0.0.~ ; -.y.;.P , ; , , , , , , , , ; , P ;.y.-.; ~ x.x.r.x.x.x.x.x.x.x.x.x.",
"x x x x 0.0.0.0.0.) 0.0.~ ; *.a.y.o.q q w w w w w w w w q q o.y.a.*.; ~ x.x.r.x.x.x.x.x.x.x.x.x.",
"x x x x 0.0.0.0.0.) 0.0.K : *.p.i.=.h h k j j j j j j k h h =.p.p.*.: ~ x.x.r.x.x.x.x.x.x.x.x.x.",
"x x x x 0.0.0.0.0.) 0.0.K : *.p.p.#.t t h h h h h h h h t t #.p.p.*.: ~ x.x.r.x.x.x.x.x.x.x.x.x.",
"x x x x 0.0.0.0.0.) 0.0.H 9 1.d.i.+.q q e e e e e e e e q q +.i.d.1.9 Q x.x.r.x.x.x.x.x.x.x.x.x.",
"x x x x 0.0.0.0.0.0.0.0.L < %.7.p.=.] ' ] ] ] ] ] ] ] ] ' ] =.p.7.%.< / t.x.z.x.x.x.x.x.x.x.x.x.",
"x x x x x x x x 0.0.0.) ) E 1 $.7.a.>.>.>.>.>.>.>.>.>.>.>.>.a.7.$.a ` e.e.x.t.x.x.x.x.x.x.x.x.x.",
"x x x x x x x x 0.0.0.) 0.0.G s | 3.,.,.,.,.,.,.,.,.,.,.,.,.3.| f L x.x.r.x.x.x.x.x.x.x.x.x.x.x.",
"x x x x x x x x 0.0.0.0.0.) 0.R < p ; ; ; ; ; ; ; ; ; ; ; ; p < q.x.l.r.x.x.x.x.x.x.x.x.x.x.x.x.",
"x x x x x x x x 0.0.0.0.0.0.0.0./ ~ ! ! ! ! ! ! ! ! ! ! ! ! ~ / x.x.r.t.x.x.x.x.x.x.x.x.x.x.x.x.",
"x x x x x x x x 0.0.0.0.0.0.) 0.x.x.x.x.x.x.x.x.x.x.x.x.x.x.x.x.x.r.x.x.x.x.x.x.x.x.x.x.x.x.x.x.",
"x x x x x x x x 0.0.0.0.0.0.0.0.x.x.x.x.x.x.x.x.x.x.x.x.x.x.x.x.x.x.x.x.x.x.x.x.x.x.x.x.x.x.x.x.",
"x x x x x x x x 0.0.0.0.0.0.0.0.t.r.r.r.r.r.r.r.r.r.r.r.r.r.r.t.t.x.x.x.x.x.x.x.x.x.x.x.x.x.x.x.",
"x x x x x x x x 0.0.0.0.0.0.0.0.x.x.x.x.x.x.x.x.x.x.x.x.x.x.x.x.x.x.x.x.x.x.x.x.x.x.x.x.x.x.x.x.",
"x x x x 0.0.0.0.0.0.0.0.0.0.0.0.0.0.0.0.x.x.x.x.x.x.x.x.0.0.0.0.x.x.x.x.x.x.x.x.x.x.x.x.x.x.x.x.",
"x x x x 0.0.0.0.0.0.0.0.0.0.0.0.0.0.0.0.x.x.x.x.x.x.x.x.0.0.0.0.x.x.x.x.x.x.x.x.x.x.x.x.x.x.x.x.",
"x x x x 0.0.0.0.0.0.0.0.0.0.0.0.0.0.0.0.x.x.x.x.x.x.x.x.0.0.0.0.x.x.x.x.x.x.x.x.x.x.x.x.x.x.x.x.",
"x x x x 0.0.0.0.0.0.0.0.0.0.0.0.0.0.0.0.x.x.x.x.x.x.x.x.0.0.0.0.x.x.x.x.x.x.x.x.x.x.x.x.x.x.x.x.",
"x x x x 0.0.0.0.0.0.0.0.0.0.0.0.x.x.x.x.x.x.x.x.x.x.x.x.x.x.x.x.x.x.x.x.x.x.x.x.x.x.x.x.x.x.x.x.",
"x x x x 0.0.0.0.0.0.0.0.0.0.0.0.x.x.x.x.x.x.x.x.x.x.x.x.x.x.x.x.x.x.x.x.x.x.x.x.x.x.x.x.x.x.x.x.",
"x x x x 0.0.0.0.0.0.0.0.0.0.0.0.x.x.x.x.x.x.x.x.x.x.x.x.x.x.x.x.x.x.x.x.x.x.x.x.x.x.x.x.x.x.x.x.",
"x x x x 0.0.0.0.0.0.0.0.0.0.0.0.x.x.x.x.x.x.x.x.x.x.x.x.x.x.x.x.x.x.x.x.x.x.x.x.x.x.x.x.x.x.x.x."
};
