/* XPM */
static char *cb62d7591f914d9eda85b0d420ced95cz3Q51ZX8J7bLdAVj[] = {
/* columns rows colors chars-per-pixel */
"48 48 153 2 ",
"   c #776F4E",
".  c #964C3D",
"X  c #984E3E",
"o  c #9D553E",
"O  c #A15A3F",
"+  c #AA6934",
"@  c #BE7F33",
"#  c #905347",
"$  c #9B5241",
"%  c #975B46",
"&  c #9D5C46",
"*  c #88664D",
"=  c #8D7E4E",
"-  c #8F6C50",
";  c #8F7D52",
":  c #937552",
">  c #927B53",
",  c #A96347",
"<  c #A1654C",
"1  c #AB654A",
"2  c #A5694B",
"3  c #AB694A",
"4  c #BC6E42",
"5  c #B26E4B",
"6  c #BD7242",
"7  c #B8704F",
"8  c #BE7552",
"9  c #B47A56",
"0  c #B87E56",
"q  c #B17A60",
"w  c #C57E45",
"e  c #CA7D58",
"r  c #759454",
"t  c #7B9E57",
"y  c #7A9F59",
"u  c #7CA057",
"i  c #78A158",
"p  c #C5912D",
"a  c #CB8D3E",
"s  c #D8AA37",
"d  c #D7A63E",
"f  c #DBAF3A",
"g  c #DEB13E",
"h  c #8F8154",
"j  c #948155",
"k  c #9A8557",
"l  c #958B56",
"z  c #998854",
"x  c #968558",
"c  c #9A8559",
"v  c #9A8B59",
"b  c #849056",
"n  c #959759",
"m  c #97995A",
"M  c #9E9A5B",
"N  c #A28957",
"B  c #A18E5A",
"V  c #BD8457",
"C  c #BD8458",
"Z  c #A3935E",
"A  c #AB925C",
"S  c #9BA75C",
"D  c #9BAB5C",
"F  c #9EB85F",
"G  c #A0A25B",
"H  c #A69161",
"J  c #A4BF63",
"K  c #B2B667",
"L  c #C68244",
"P  c #C88446",
"I  c #C78A44",
"U  c #CB8A47",
"Y  c #CE8C48",
"T  c #D48C4E",
"R  c #CD9241",
"E  c #D19546",
"W  c #D7904E",
"Q  c #D69C4C",
"!  c #DA9D4A",
"~  c #C08451",
"^  c #C18958",
"/  c #D58B51",
"(  c #D98F53",
")  c #DA8D5D",
"_  c #CA9652",
"`  c #DB9452",
"'  c #DE9A53",
"]  c #E39F53",
"[  c #E69D5B",
"{  c #D8A740",
"}  c #DDAE45",
"|  c #D8A04D",
" . c #DEB142",
".. c #DFA454",
"X. c #DAA659",
"o. c #EEBC4F",
"O. c #F0BE4E",
"+. c #E4A454",
"@. c #E4AA54",
"#. c #EAAE54",
"$. c #E9A55B",
"%. c #E3AE5C",
"&. c #EDB455",
"*. c #EBB950",
"=. c #EFB059",
"-. c #F2BA56",
";. c #F5BC5B",
":. c #DC9260",
">. c #EEAB63",
",. c #F0AD61",
"<. c #EBBC62",
"1. c #F8B76A",
"2. c #FCBB6D",
"3. c #A4C263",
"4. c #B4C269",
"5. c #BCCD6E",
"6. c #BED06F",
"7. c #BFD370",
"8. c #F0C847",
"9. c #F5C84F",
"0. c #FCCF4E",
"q. c #F2C050",
"w. c #FAC354",
"e. c #F7C951",
"r. c #FCCC56",
"t. c #FAC45C",
"y. c #FECB5C",
"u. c #FFD357",
"i. c #FFDE5B",
"p. c #FFE356",
"a. c #FFE15D",
"s. c #FFEE58",
"d. c #FFF05B",
"f. c #C0D16F",
"g. c #C0D470",
"h. c #FAC462",
"j. c #FFD760",
"k. c #FFC271",
"l. c #FFD578",
"z. c #FFE169",
"x. c #FFEC6C",
"c. c #FFF260",
"v. c #FFF965",
"b. c #FFF46F",
"n. c #FFF96F",
"m. c #FFEB74",
"M. c #FFE77A",
"N. c #FFEB7A",
"B. c #FFF772",
"V. c #FFF97D",
"C. c #B1E0BE",
"Z. c #FFF281",
"A. c #9BD4C3",
/* pixels */
"i i i i i i i i i i i i i i i i i i i i i i i i C.C.C.C.C.C.C.C.A.A.A.A.A.A.A.A.A.A.A.A.A.A.A.A.",
"i i i i i i i i i i i i i i i i i i i i i i i i C.C.C.C.C.C.C.C.A.A.A.A.A.A.A.A.A.A.A.A.A.A.A.A.",
"i i i i i i i i i i i i i i i i i i i i i i i i C.C.C.C.C.C.C.C.A.A.A.A.A.A.A.A.A.A.A.A.A.A.A.A.",
"i i i i i i i i i i i i i i i i i i i i i i i i C.C.C.C.C.C.C.C.A.A.A.A.A.A.A.A.A.A.A.A.A.A.A.A.",
"3.3.3.3.3.3.3.3.3.3.3.3.i i i i i i i i i i i i i i i i i i i i i i i i A.A.A.A.A.A.A.A.A.A.A.A.",
"3.3.3.3.3.3.3.3.3.3.3.3.i i i i i i i i i i i i i i i i i i i i i i i i A.A.A.A.A.A.A.A.A.A.A.A.",
"3.3.3.3.3.3.3.3.3.3.3.3.i i i i i i i i i i i i i i i i i i i i i i i i A.A.A.A.A.A.A.A.A.A.A.A.",
"3.3.3.3.3.3.3.3.3.3.3.3.i i i i i i i i i i i i i i i i i i i i i i i i A.A.A.A.A.A.A.A.A.A.A.A.",
"3.3.3.3.3.3.3.3.3.3.3.3.3.3.3.3.3.3.3.3.3.3.3.3.3.3.3.3.i i i i i i i i i i i i A.A.A.A.A.A.A.A.",
"3.3.3.3.3.3.3.3.3.3.3.3.3.3.3.3.3.3.3.3.3.3.3.3.3.3.3.3.i i i i i i i i i i i i A.A.A.A.A.A.A.A.",
"3.3.3.3.3.3.3.3.3.3.3.3.3.3.3.3.3.3.3.3.3.3.3.3.3.3.3.3.i i i i i i i i i i i i A.A.A.A.A.A.A.A.",
"3.3.3.3.3.3.3.3.3.3.3.3.3.J J J 3.3.3.3.3.3.3.3.3.3.3.3.i i i i t y y i i i i i A.A.A.A.A.A.A.A.",
"g.g.g.g.g.g.g.g.g.g.g.7.3.3.3.3.3.3.3.3.3.3.3.3.3.3.3.3.3.3.3.3.3.3.3.3.i i i i i i i i A.A.A.A.",
"g.g.g.g.g.g.g.g.g.g.g.7.3.3.3.3.3.3.3.3.3.3.3.3.3.3.3.3.3.3.3.3.3.3.3.3.i i i i i i i i A.A.A.A.",
"g.g.g.g.g.g.g.g.g.f.f.g.F : q j 3.3.3.3.3.3.3.3.3.3.3.3.3.3.3.3.j q : F i u t i i i i i A.A.A.A.",
"g.g.g.g.g.g.g.g.g.g.g.4.B 5 ) 3 M D D S D D D D D D D D S D D M 3 ) 5 B r i i i i i i i A.A.A.A.",
"3.3.3.3.g.g.g.g.6.g.g.- 8 @.w.Q 2 # % % % % % % % % % % % % # 2 Q w.@.8 * 3.3.J i i i i i i i i ",
"3.3.3.3.g.g.f.g.6.K A ~ ;.u.s.r./ e :.:.:.) ) ) ) ) ) :.:.:.e / r.s.u.;.~ N S J i i i i i i i i ",
"3.3.3.3.g.g.6.g.g.c 5 t.c.i.a.y.] [ 2.2.1.2.2.2.2.2.2.1.2.2.[ ] y.a.i.c.t.5 ; 3.i y i i i i i i ",
"3.3.3.3.g.g.5.g.g.k 7 y.v.a.;.+.' [ $.$.,.2.k.2.2.k.2.,.$.$.[ ' +.;.a.v.y.7 ; 3.i y i i i i i i ",
"g.g.g.g.g.g.6.g.g.v 3 ;.c.i.#./ ` ` W T ' >.>.>.>.>.>.' T W ` ` / #.i.c.;.3 h 3.i y i i i i i i ",
"g.g.g.g.g.g.6.g.g.c 3 ;.c.a.&.` ` ' ` ` ` ' ' ' ' ' ' ` ` ` ' ` ` &.a.c.;.3 j 3.i y i i i i i i ",
"g.g.g.g.g.g.6.g.g.c 3 -.d.a.#./ / ` ( ( / / T / / T / / ( ( ` / / #.a.d.-.3 j 3.i y i i i i i i ",
"g.g.g.g.g.g.6.g.g.c 3 h.v.i.&.' ' +.] ] ] +.+.+.+.+.+.] ] ] +.' ' &.i.v.h.3 h 3.i y i i i i i i ",
"g.g.g.g.g.g.6.g.g.z 3 l.V.i.e.r.r.r.r.r.r.r.r.u.r.r.r.r.r.r.r.r.r.e.i.V.l.3 = 3.i y i i i i i i ",
"g.g.g.g.g.g.6.g.g.B 1 %.z.m.B.n.n.n.n.n.n.n.b.x.x.b.n.n.n.n.n.n.n.B.m.z.%.1 j 3.i y i i i i i i ",
"g.g.g.g.g.g.6.g.g.H , @  .m.Z.M.M.M.M.M.M.M.M.N.N.M.M.M.M.M.M.M.M.Z.m. .@ , v 3.i y i i i i i i ",
"g.g.g.g.g.g.6.g.g.Z 1 a s } _ C C C C ^ 0 V <.x.j.X.C V ^ C C C C _ } s a 1 c 3.i y i i i i i i ",
"g.g.g.g.g.g.6.g.g.B 1 Q f p + $ o o o O . o | p.0.I o X O o o o $ + p f Q 1 x 3.i y i i i i i i ",
"g.g.g.g.g.g.6.g.g.B 1 E g d I 6 6 6 6 6 4 6 ! e.e.! 6 4 6 6 6 6 6 I d g E 1 x 3.i y i i i i i i ",
"g.g.g.g.g.g.5.g.g.k 8 #.8.{ L 4 4 6 6 6 4 4 w U Y w 4 4 6 6 6 4 4 L { 8.#.8 > 3.i y i i i i i i ",
"g.g.g.g.g.g.7.g.g.Z 3 ' O.} R P P P P P P P P w w P P P P P P P P R } O.' 3 l 3.i i i i i i i i ",
"3.3.3.3.g.g.g.g.6.5.K 2 ` q.9.*.o.o.o.o.o.o.o.o.o.o.o.o.o.o.o.o.*.9.q.` < b t t i i i i A.A.A.A.",
"3.3.3.3.g.g.g.g.6.g.g.v 9 ' =...+.+.+.+.+.+.@.@.@.@.+.+.+.+.+.+...=.' 9   i i t i i i i A.A.A.A.",
"3.3.3.3.g.g.g.g.g.f.g.g.G & 1 & & & & & & & & & & & & & & & & & & 1 & G i u t i i i i i A.A.A.A.",
"3.3.3.3.g.g.g.g.g.f.7.g.J m M m n n n n n n m n n n n n n n n n m M m J i i i i i i i i A.A.A.A.",
"3.3.3.3.3.3.3.3.3.3.3.J 3.3.3.3.3.3.3.3.3.3.3.3.3.3.3.3.i i i i i i i i t i i i A.A.A.A.A.A.A.A.",
"3.3.3.3.3.3.3.3.3.3.3.3.3.3.3.3.3.3.3.3.3.3.3.3.3.3.3.3.i i i i i i i i i i i i A.A.A.A.A.A.A.A.",
"3.3.3.3.3.3.3.3.3.3.3.3.3.J J J J J J J J J J J J J J J y y y y y y y i i i i i A.A.A.A.A.A.A.A.",
"3.3.3.3.3.3.3.3.3.3.3.3.3.3.3.3.3.3.3.3.3.3.3.3.3.3.3.3.i i i i i i i i i i i i A.A.A.A.A.A.A.A.",
"i i i i i i i i 3.3.3.3.3.3.3.3.i i i i i i i i i i i i i i i i i i i i A.A.A.A.A.A.A.A.C.C.C.C.",
"i i i i i i i i 3.3.3.3.3.3.3.3.i i i i i i i i i i i i i i i i i i i i A.A.A.A.A.A.A.A.C.C.C.C.",
"i i i i i i i i 3.3.3.3.3.3.3.3.i i i i i i i i i i i i i i i i i i i i A.A.A.A.A.A.A.A.C.C.C.C.",
"i i i i i i i i 3.3.3.3.3.3.3.3.i i i i i i i i i i i i i i i i i i i i A.A.A.A.A.A.A.A.C.C.C.C.",
"i i i i i i i i i i i i i i i i i i i i i i i i C.C.C.C.C.C.C.C.A.A.A.A.A.A.A.A.A.A.A.A.A.A.A.A.",
"i i i i i i i i i i i i i i i i i i i i i i i i C.C.C.C.C.C.C.C.A.A.A.A.A.A.A.A.A.A.A.A.A.A.A.A.",
"i i i i i i i i i i i i i i i i i i i i i i i i C.C.C.C.C.C.C.C.A.A.A.A.A.A.A.A.A.A.A.A.A.A.A.A.",
"i i i i i i i i i i i i i i i i i i i i i i i i C.C.C.C.C.C.C.C.A.A.A.A.A.A.A.A.A.A.A.A.A.A.A.A."
};
