/* XPM */
static char *e3ec39f0b45d4b56f91925486520658dSHgO2c2H1BrwyIyq[] = {
/* columns rows colors chars-per-pixel */
"48 48 132 2 ",
"   c #964C3D",
".  c #984E3E",
"X  c #9D553E",
"o  c #A15A3F",
"O  c #AA6934",
"+  c #BE7F33",
"@  c #905447",
"#  c #9B5241",
"$  c #975B45",
"%  c #9C5C46",
"&  c #8F6C50",
"*  c #9B7D56",
"=  c #A96347",
"-  c #AB654A",
";  c #A5694C",
":  c #AB694A",
">  c #BC6E42",
",  c #B26E4B",
"<  c #BD7242",
"1  c #B8704F",
"2  c #BE7552",
"3  c #B67C57",
"4  c #B87E56",
"5  c #C57E45",
"6  c #CA7D58",
"7  c #C5912D",
"8  c #CB8D3E",
"9  c #D8AA37",
"0  c #D7A63E",
"q  c #DBAF3A",
"w  c #DEB13E",
"e  c #9A8557",
"r  c #998854",
"t  c #9C8458",
"y  c #9B8B59",
"u  c #A18E5B",
"i  c #BD8457",
"p  c #BD8458",
"a  c #A3935E",
"s  c #AB925C",
"d  c #AC985F",
"f  c #B68062",
"g  c #A69161",
"h  c #A6A461",
"j  c #AAA663",
"k  c #ADA861",
"l  c #B1AF64",
"z  c #B2B667",
"x  c #B1BA67",
"c  c #C68244",
"v  c #C88446",
"b  c #C78A44",
"n  c #CB8A47",
"m  c #CE8C48",
"M  c #D48C4E",
"N  c #CD9241",
"B  c #D19546",
"V  c #D7904E",
"C  c #D69C4C",
"Z  c #DA9D4A",
"A  c #C08451",
"S  c #C18958",
"D  c #D58B51",
"F  c #D98F53",
"G  c #DA8D5D",
"H  c #CA9652",
"J  c #DB9452",
"K  c #DE9A53",
"L  c #E39F53",
"P  c #E69D5B",
"I  c #D8A740",
"U  c #DDAE45",
"Y  c #D8A04D",
"T  c #DEB142",
"R  c #DFA454",
"E  c #DAA659",
"W  c #EEBC4F",
"Q  c #F0BE4E",
"!  c #E4A454",
"~  c #E4AA54",
"^  c #EAAE54",
"/  c #E9A55B",
"(  c #E3AE5C",
")  c #EDB455",
"_  c #EBB950",
"`  c #EFB059",
"'  c #F2BA56",
"]  c #F5BC5B",
"[  c #DC9260",
"{  c #EEAB63",
"}  c #F0AD61",
"|  c #EBBC62",
" . c #F8B76A",
".. c #FCBB6D",
"X. c #B4C269",
"o. c #BCCD6D",
"O. c #BED16F",
"+. c #BFD370",
"@. c #F0C847",
"#. c #F5C84F",
"$. c #FCCF4E",
"%. c #F2C050",
"&. c #FAC354",
"*. c #F7C951",
"=. c #FCCC56",
"-. c #FAC45C",
";. c #FECB5C",
":. c #FFD357",
">. c #FFDE5B",
",. c #FFE356",
"<. c #FFE15D",
"1. c #FFEE58",
"2. c #FFF05B",
"3. c #C0D26F",
"4. c #C0D470",
"5. c #FAC462",
"6. c #FFD760",
"7. c #FFC271",
"8. c #FFD578",
"9. c #FFE169",
"0. c #FFEC6C",
"q. c #FFF260",
"w. c #FFF965",
"e. c #FFF46F",
"r. c #FFF96F",
"t. c #FFEB74",
"y. c #FFE77A",
"u. c #FFE97A",
"i. c #FFED7A",
"p. c #FFF772",
"a. c #FFF97D",
"s. c #FFF281",
/* pixels */
"4.4.4.4.4.4.4.4.4.4.4.4.4.4.4.4.4.4.4.4.4.4.4.4.4.4.4.4.4.4.4.4.4.4.4.4.4.4.4.4.4.4.4.4.4.4.4.4.",
"4.4.4.4.4.4.4.4.4.4.4.4.4.4.4.4.4.4.4.4.4.4.4.4.4.4.4.4.4.4.4.4.4.4.4.4.4.4.4.4.4.4.4.4.4.4.4.4.",
"4.4.4.4.4.4.4.4.4.4.4.4.4.4.4.4.4.4.4.4.4.4.4.4.4.4.4.4.4.4.4.4.4.4.4.4.4.4.4.4.4.4.4.4.4.4.4.4.",
"4.4.4.4.4.4.4.4.4.4.4.4.4.4.4.4.4.4.4.4.4.4.4.4.4.4.4.4.4.4.4.4.4.4.4.4.4.4.4.4.4.4.4.4.4.4.4.4.",
"4.4.4.4.4.4.4.4.4.4.4.4.4.4.4.4.4.4.4.4.4.4.4.4.4.4.4.4.4.4.4.4.4.4.4.4.4.4.4.4.4.4.4.4.4.4.4.4.",
"4.4.4.4.4.4.4.4.4.4.4.4.4.4.4.4.4.4.4.4.4.4.4.4.4.4.4.4.4.4.4.4.4.4.4.4.4.4.4.4.4.4.4.4.4.4.4.4.",
"4.4.4.4.4.4.4.4.4.4.4.4.4.4.4.4.4.4.4.4.4.4.4.4.4.4.4.4.4.4.4.4.4.4.4.4.4.4.4.4.4.4.4.4.4.4.4.4.",
"4.4.4.4.4.4.4.4.4.4.4.4.4.4.4.4.4.4.4.4.4.4.4.4.4.4.4.4.4.4.4.4.4.4.4.4.4.4.4.4.4.4.4.4.4.4.4.4.",
"4.4.4.4.4.4.4.4.4.4.4.4.4.4.4.4.4.4.4.4.4.4.4.4.4.4.4.4.4.4.4.4.4.4.4.4.4.4.4.4.4.4.4.4.4.4.4.4.",
"4.4.4.4.4.4.4.4.4.4.4.4.4.4.4.4.4.4.4.4.4.4.4.4.4.4.4.4.4.4.4.4.4.4.4.4.4.4.4.4.4.4.4.4.4.4.4.4.",
"4.4.4.4.4.4.4.4.4.4.4.4.4.4.4.4.4.4.4.4.4.4.4.4.4.4.4.4.4.4.4.4.4.4.4.4.4.4.4.4.4.4.4.4.4.4.4.4.",
"4.4.4.4.4.4.4.4.4.4.4.4.+.o.4.O.4.4.4.4.4.4.4.4.4.4.4.4.4.4.4.4.O.4.o.+.4.4.4.4.4.4.4.4.4.4.4.4.",
"4.4.4.4.4.4.4.4.4.4.4.+.4.4.4.4.4.3.O.O.3.3.3.3.3.3.3.3.O.O.3.4.4.4.4.4.+.4.4.4.4.4.4.4.4.4.4.4.",
"4.4.4.4.4.4.4.4.4.4.4.+.4.4.4.4.4.3.3.3.3.3.3.3.3.3.3.3.3.3.3.4.4.4.4.4.+.4.4.4.4.4.4.4.4.4.4.4.",
"4.4.4.4.4.4.4.4.4.3.3.4.o.* f y 4.4.4.4.4.4.4.4.4.4.4.4.4.4.4.4.y f * o.4.3.3.4.4.4.4.4.4.4.4.4.",
"4.4.4.4.4.4.4.4.4.4.4.X.d , G : k x x x x x x x x x x x x x x k : G , d X.4.4.4.4.4.4.4.4.4.4.4.",
"4.4.4.4.4.4.4.4.O.4.4.& 2 ~ &.C ; @ $ $ $ $ $ $ $ $ $ $ $ $ @ ; C &.~ 2 & 4.4.O.4.4.4.4.4.4.4.4.",
"4.4.4.4.4.4.3.4.O.z s A ] :.1.=.D 6 [ [ [ G G G G G G [ [ [ 6 D =.1.:.] A s z O.4.3.4.4.4.4.4.4.",
"4.4.4.4.4.4.O.4.4.e , -.q.>.<.;.L P .... ............. .....P L ;.<.>.q.-., e 4.4.O.4.4.4.4.4.4.",
"4.4.4.4.4.4.o.4.4.e 1 ;.w.<.] ! K P / / } ..7.....7...} / / P K ! ] <.w.;.1 e 4.4.o.4.4.4.4.4.4.",
"4.4.4.4.4.4.O.4.4.y : ] q.>.^ D J J V M K { { { { { { K M V J J D ^ >.q.] : y 4.4.O.4.4.4.4.4.4.",
"4.4.4.4.4.4.O.4.4.e : ] q.<.) J J K J J J K K K K K K J J J K J J ) <.q.] : e 4.4.O.4.4.4.4.4.4.",
"4.4.4.4.4.4.O.4.4.e : ' 2.<.^ D D J F F D D M D D M D D F F J D D ^ <.2.' : e 4.4.O.4.4.4.4.4.4.",
"4.4.4.4.4.4.O.4.4.e : 5.w.>.) K K ! L L L ! ! ! ! ! ! L L L ! K K ) >.w.5.: e 4.4.O.4.4.4.4.4.4.",
"4.4.4.4.4.4.O.4.4.r : 8.a.>.*.=.=.=.=.=.=.=.=.:.=.=.=.=.=.=.=.=.=.*.>.a.8.: r 4.4.O.4.4.4.4.4.4.",
"4.4.4.4.4.4.O.4.4.u - ( 9.t.p.r.r.r.r.r.r.r.e.0.0.e.r.r.r.r.r.r.r.p.t.9.( - u 4.4.O.4.4.4.4.4.4.",
"4.4.4.4.4.4.O.4.4.g = + T t.s.y.y.y.y.u.y.y.u.i.i.u.y.y.y.y.y.y.y.s.t.T + = g 4.4.O.4.4.4.4.4.4.",
"4.4.4.4.4.4.O.4.4.a - 8 9 U H p p p p S 4 i | 0.6.E p i S p p p p H U 9 8 - a 4.4.O.4.4.4.4.4.4.",
"4.4.4.4.4.4.O.4.4.u - C q 7 O # X X X o   X Y ,.$.b X . o X X X # O 7 q C - u 4.4.O.4.4.4.4.4.4.",
"4.4.4.4.4.4.O.4.4.u - B w 0 b < < < < < > < Z *.*.Z < > < < < < < b 0 w B - u 4.4.O.4.4.4.4.4.4.",
"4.4.4.4.4.4.o.4.4.t 2 ^ @.I c > > < < < > > 5 n m 5 > > < < < > > c I @.^ 2 t 4.4.o.4.4.4.4.4.4.",
"4.4.4.4.4.4.+.4.4.a : K Q U N v v v v v v v v 5 5 v v v v v v v v N U Q K : a 4.4.+.4.4.4.4.4.4.",
"4.4.4.4.4.4.4.4.O.o.z ; J %.#._ W W W W W W W W W W W W W W W W _ #.%.J ; z o.O.4.4.4.4.4.4.4.4.",
"4.4.4.4.4.4.4.4.O.4.4.y 3 K ` R ! ! ! ! ! ! ~ ~ ~ ~ ! ! ! ! ! ! R ` K 3 y 4.4.O.4.4.4.4.4.4.4.4.",
"4.4.4.4.4.4.4.4.4.3.4.4.l % - % % % % % % % % % % % % % % % % % % - % l 4.4.3.4.4.4.4.4.4.4.4.4.",
"4.4.4.4.4.4.4.4.4.3.+.4.O.j j j h h h h h h h h h h h h h h h h j j j O.4.+.3.4.4.4.4.4.4.4.4.4.",
"4.4.4.4.4.4.4.4.4.4.4.O.4.4.4.4.4.4.4.4.4.4.4.4.4.4.4.4.4.4.4.4.4.4.4.4.O.4.4.4.4.4.4.4.4.4.4.4.",
"4.4.4.4.4.4.4.4.4.4.4.4.4.4.4.4.4.4.4.4.4.4.4.4.4.4.4.4.4.4.4.4.4.4.4.4.4.4.4.4.4.4.4.4.4.4.4.4.",
"4.4.4.4.4.4.4.4.4.4.4.4.4.O.O.O.O.O.O.O.O.O.O.O.O.O.O.O.O.O.O.O.O.O.O.4.4.4.4.4.4.4.4.4.4.4.4.4.",
"4.4.4.4.4.4.4.4.4.4.4.4.4.4.4.4.4.4.4.4.4.4.4.4.4.4.4.4.4.4.4.4.4.4.4.4.4.4.4.4.4.4.4.4.4.4.4.4.",
"4.4.4.4.4.4.4.4.4.4.4.4.4.4.4.4.4.4.4.4.4.4.4.4.4.4.4.4.4.4.4.4.4.4.4.4.4.4.4.4.4.4.4.4.4.4.4.4.",
"4.4.4.4.4.4.4.4.4.4.4.4.4.4.4.4.4.4.4.4.4.4.4.4.4.4.4.4.4.4.4.4.4.4.4.4.4.4.4.4.4.4.4.4.4.4.4.4.",
"4.4.4.4.4.4.4.4.4.4.4.4.4.4.4.4.4.4.4.4.4.4.4.4.4.4.4.4.4.4.4.4.4.4.4.4.4.4.4.4.4.4.4.4.4.4.4.4.",
"4.4.4.4.4.4.4.4.4.4.4.4.4.4.4.4.4.4.4.4.4.4.4.4.4.4.4.4.4.4.4.4.4.4.4.4.4.4.4.4.4.4.4.4.4.4.4.4.",
"4.4.4.4.4.4.4.4.4.4.4.4.4.4.4.4.4.4.4.4.4.4.4.4.4.4.4.4.4.4.4.4.4.4.4.4.4.4.4.4.4.4.4.4.4.4.4.4.",
"4.4.4.4.4.4.4.4.4.4.4.4.4.4.4.4.4.4.4.4.4.4.4.4.4.4.4.4.4.4.4.4.4.4.4.4.4.4.4.4.4.4.4.4.4.4.4.4.",
"4.4.4.4.4.4.4.4.4.4.4.4.4.4.4.4.4.4.4.4.4.4.4.4.4.4.4.4.4.4.4.4.4.4.4.4.4.4.4.4.4.4.4.4.4.4.4.4.",
"4.4.4.4.4.4.4.4.4.4.4.4.4.4.4.4.4.4.4.4.4.4.4.4.4.4.4.4.4.4.4.4.4.4.4.4.4.4.4.4.4.4.4.4.4.4.4.4."
};
