/* XPM */
static char *f207196a34c74acebdd594906a03b554BxohfDDKiYoXhtu2[] = {
/* columns rows colors chars-per-pixel */
"48 48 146 2 ",
"   c #776F4E",
".  c #7D6B49",
"X  c #964C3D",
"o  c #984E3E",
"O  c #9D553E",
"+  c #A15A3F",
"@  c #AA6934",
"#  c #BE7F33",
"$  c #905447",
"%  c #9B5241",
"&  c #975B45",
"*  c #9C5C46",
"=  c #88664D",
"-  c #86704F",
";  c #8D7E4E",
":  c #866B50",
">  c #857452",
",  c #897556",
"<  c #8F7D52",
"1  c #8D7758",
"2  c #937552",
"3  c #A96347",
"4  c #A1654C",
"5  c #AB654A",
"6  c #A66A4A",
"7  c #AB694A",
"8  c #BC6E42",
"9  c #B26E4B",
"0  c #BD7242",
"q  c #B8704F",
"w  c #BE7552",
"e  c #B47A56",
"r  c #B87E56",
"t  c #B17A60",
"y  c #C57E45",
"u  c #CA7D58",
"i  c #7A9E57",
"p  c #7A9F59",
"a  c #78A158",
"s  c #C5912D",
"d  c #CB8D3E",
"f  c #D8AA37",
"g  c #D7A63E",
"h  c #DBAF3A",
"j  c #DEB13E",
"k  c #8F8154",
"l  c #928154",
"z  c #98865A",
"x  c #9B885C",
"c  c #849056",
"v  c #959759",
"b  c #97995A",
"n  c #9E995D",
"m  c #A28957",
"M  c #A18F59",
"N  c #BD8457",
"B  c #BD8458",
"V  c #9BA75C",
"C  c #9BB25E",
"Z  c #9EB85F",
"A  c #A0A25B",
"S  c #ADA861",
"D  c #A4BF62",
"F  c #B1BA67",
"G  c #C68244",
"H  c #C88446",
"J  c #C78A44",
"K  c #CB8A47",
"L  c #CE8C48",
"P  c #D48C4E",
"I  c #CD9241",
"U  c #D19546",
"Y  c #D7904E",
"T  c #D69C4C",
"R  c #DA9D4A",
"E  c #C08451",
"W  c #C18958",
"Q  c #D58B51",
"!  c #D98F53",
"~  c #DA8D5D",
"^  c #CA9652",
"/  c #DB9452",
"(  c #DE9A53",
")  c #E39F53",
"_  c #E69D5B",
"`  c #D8A740",
"'  c #DDAE45",
"]  c #D8A04D",
"[  c #DEB142",
"{  c #DFA454",
"}  c #DAA659",
"|  c #EEBC4F",
" . c #F0BE4E",
".. c #E4A454",
"X. c #E4AA54",
"o. c #EAAE54",
"O. c #E9A55B",
"+. c #E3AE5C",
"@. c #EDB455",
"#. c #EBB950",
"$. c #EFB059",
"%. c #F2BA56",
"&. c #F5BC5B",
"*. c #DC9260",
"=. c #EEAB63",
"-. c #F0AD61",
";. c #EBBC62",
":. c #F8B76A",
">. c #FCBB6D",
",. c #A4C263",
"<. c #BED26F",
"1. c #F0C847",
"2. c #F5C84F",
"3. c #FCCF4E",
"4. c #F2C050",
"5. c #FAC354",
"6. c #F7C951",
"7. c #FCCC56",
"8. c #FAC45C",
"9. c #FECB5C",
"0. c #FFD357",
"q. c #FFDE5B",
"w. c #FFE356",
"e. c #FFE15D",
"r. c #FFEE58",
"t. c #FFF05B",
"y. c #C0D26F",
"u. c #C0D470",
"i. c #FAC462",
"p. c #FFD760",
"a. c #FFC271",
"s. c #FFD578",
"d. c #FFE169",
"f. c #FFEC6C",
"g. c #FFF260",
"h. c #FFF965",
"j. c #FFF46F",
"k. c #FFF96F",
"l. c #FFEB74",
"z. c #FFE77A",
"x. c #FFEB7A",
"c. c #FFF772",
"v. c #FFF97D",
"b. c #B1E0BE",
"n. c #FFF281",
"m. c #9BD4C3",
/* pixels */
"a a a a a a a a ,.,.,.,.u.u.u.u.u.u.u.u.u.u.u.u.u.u.u.u.u.u.u.u.,.,.,.,.,.,.,.,.,.,.,.,.a a a a ",
"a a a a a a a a ,.,.,.,.u.u.u.u.u.u.u.u.u.u.u.u.u.u.u.u.u.u.u.u.,.,.,.,.,.,.,.,.,.,.,.,.a a a a ",
"a a a a a a a a ,.,.,.,.u.u.u.u.u.u.u.u.u.u.u.u.u.u.u.u.u.u.u.u.,.,.,.,.,.,.,.,.,.,.,.,.a a a a ",
"a a a a a a a a ,.,.,.,.u.u.u.u.u.u.u.u.u.u.u.u.u.u.u.u.u.u.u.u.,.,.,.,.,.,.,.,.,.,.,.,.a a a a ",
"a a a a a a a a ,.,.,.,.u.u.u.u.u.u.u.u.,.,.,.,.u.u.u.u.u.u.u.u.,.,.,.,.,.,.,.,.,.,.,.,.a a a a ",
"a a a a a a a a ,.,.,.,.u.u.u.u.u.u.u.u.,.,.,.,.u.u.u.u.u.u.u.u.,.,.,.,.,.,.,.,.,.,.,.,.a a a a ",
"a a a a a a a a ,.,.,.,.u.u.u.u.u.u.u.u.,.,.,.,.u.u.u.u.u.u.u.u.,.,.,.,.,.,.,.,.,.,.,.,.a a a a ",
"a a a a a a a a ,.,.,.,.u.u.u.u.u.u.u.u.,.,.,.,.u.u.u.u.u.u.u.u.,.,.,.,.,.,.,.,.,.,.,.,.a a a a ",
"a a a a ,.,.,.,.,.,.,.,.,.,.,.,.u.u.u.u.u.u.u.u.u.u.u.u.,.,.,.,.,.,.,.,.,.,.,.,.,.,.,.,.a a a a ",
"a a a a ,.,.,.,.,.,.,.,.,.,.,.,.u.u.u.u.u.u.u.u.u.u.u.u.,.,.,.,.,.,.,.,.,.,.,.,.,.,.,.,.a a a a ",
"a a a a ,.,.,.,.,.,.,.,.,.,.,.,.u.u.u.u.u.u.u.u.u.u.u.u.,.,.,.,.,.,.,.,.,.,.,.,.,.,.,.,.a a a a ",
"a a a a ,.,.,.,.,.,.,.,.,.D D D u.u.u.u.u.u.u.u.u.u.u.u.,.,.,.,.D D D ,.,.,.,.,.,.,.,.,.a a a a ",
"a a a a ,.,.,.,.,.,.,.,.,.,.,.,.u.y.<.<.y.y.y.y.y.y.y.y.<.<.y.u.,.,.,.,.,.,.,.,.a a a a a a a a ",
"a a a a ,.,.,.,.,.,.,.,.,.,.,.,.u.y.y.y.y.y.y.y.y.y.y.y.y.y.y.u.,.,.,.,.,.,.,.,.a a a a a a a a ",
"a a a a ,.,.,.,.,.D D ,.Z 2 t l u.u.u.u.u.u.u.u.u.u.u.u.u.u.u.u.l t 2 Z ,.D D ,.a a a a a a a a ",
"a a a a ,.,.,.,.,.,.,.C M 9 ~ 7 S F F F F F F F F F F F F F F S 7 ~ 9 M C ,.,.,.a a a a a a a a ",
"a a a a a a a a D ,.,.= w X.5.T 6 $ & & & & & & & & & & & & $ 6 T 5.X.w = ,.,.D a a a a a a a a ",
"a a a a a a a a D V m E &.0.r.7.Q u *.*.*.~ ~ ~ ~ ~ ~ *.*.*.u Q 7.r.0.&.E m V D a a a a a a a a ",
"a a a a a a p a ,.< 9 8.g.q.e.9.) _ >.>.:.>.>.>.>.>.>.:.>.>._ ) 9.e.q.g.8.9 < ,.a p a a a a a a ",
"a a a a a a p a ,.< q 9.h.e.&...( _ O.O.-.>.a.>.>.a.>.-.O.O._ ( ..&.e.h.9.q < ,.a p a a a a a a ",
"a a a a a a p a ,.k 7 &.g.q.o.Q / / Y P ( =.=.=.=.=.=.( P Y / / Q o.q.g.&.7 k ,.a p a a a a a a ",
"a a a a a a p a ,.l 7 &.g.e.@./ / ( / / / ( ( ( ( ( ( / / / ( / / @.e.g.&.7 l ,.a p a a a a a a ",
"a a a a a a p a ,.l 7 %.t.e.o.Q Q / ! ! Q Q P Q Q P Q Q ! ! / Q Q o.e.t.%.7 l ,.a p a a a a a a ",
"a a a a a a p a ,.k 7 i.h.q.@.( ( ..) ) ) ............) ) ) ..( ( @.q.h.i.7 k ,.a p a a a a a a ",
"m.m.m.m.a a p a ,.; 7 s.v.q.6.7.7.7.7.7.7.7.7.0.7.7.7.7.7.7.7.7.7.6.q.v.s.7 . a a p a a m.m.m.m.",
"m.m.m.m.a a p a ,.l 5 +.d.l.c.k.k.k.k.k.k.k.j.f.f.j.k.k.k.k.k.k.k.c.l.d.+.5 - a a p a a m.m.m.m.",
"m.m.m.m.a a p a ,.x 3 # [ l.n.z.z.z.z.z.z.z.z.x.x.z.z.z.z.z.z.z.z.n.l.[ # 3 1 a a p a a m.m.m.m.",
"m.m.m.m.a a p a ,.z 5 d f ' ^ B B B B W r N ;.f.p.} B N W B B B B ^ ' f d 5 , a a p a a m.m.m.m.",
"m.m.m.m.a a p a a > 5 T h s @ % O O O + X O ] w.3.J O o + O O O % @ s h T 5 > a a p a a m.m.m.m.",
"m.m.m.m.a a p a a > 5 U j g J 0 0 0 0 0 8 0 R 6.6.R 0 8 0 0 0 0 0 J g j U 5 > a a p a a m.m.m.m.",
"m.m.m.m.a a p a a : w o.1.` G 8 8 0 0 0 8 8 y K L y 8 8 0 0 0 8 8 G ` 1.o.w : a a p a a m.m.m.m.",
"m.m.m.m.a a a a a > 6 (  .' I H H H H H H H H y y H H H H H H H H I '  .( 6 > a a a a a m.m.m.m.",
"m.m.m.m.a a a a i i c 4 / 4.2.#.| | | | | | | | | | | | | | | | #.2.4./ 4 c i i a a a a m.m.m.m.",
"m.m.m.m.a a a a i a a   e ( $.{ ............X.X.X.X.............{ $.( e   a a i a a a a m.m.m.m.",
"m.m.m.m.a a a a a i a a A * 5 * * * * * * * * * * * * * * * * * * 5 * A a a i a a a a a m.m.m.m.",
"m.m.m.m.a a a a a a a a D b n b v v v v v v b v v v v v v v v v b n b D a a a a a a a a m.m.m.m.",
"m.m.m.m.m.m.m.m.a a a i a a a a ,.,.,.,.,.,.,.,.,.,.,.,.,.,.,.,.a a a a i a a a m.m.m.m.m.m.m.m.",
"m.m.m.m.m.m.m.m.a a a a a a a a ,.,.,.,.,.,.,.,.,.,.,.,.,.,.,.,.a a a a a a a a m.m.m.m.m.m.m.m.",
"m.m.m.m.m.m.m.m.a a a a a p p p D D D D D D D D D D D D D D D D p p p a a a a a m.m.m.m.m.m.m.m.",
"m.m.m.m.m.m.m.m.a a a a a a a a ,.,.,.,.,.,.,.,.,.,.,.,.,.,.,.,.a a a a a a a a m.m.m.m.m.m.m.m.",
"m.m.m.m.m.m.m.m.m.m.m.m.a a a a a a a a a a a a a a a a a a a a a a a a m.m.m.m.m.m.m.m.b.b.b.b.",
"m.m.m.m.m.m.m.m.m.m.m.m.a a a a a a a a a a a a a a a a a a a a a a a a m.m.m.m.m.m.m.m.b.b.b.b.",
"m.m.m.m.m.m.m.m.m.m.m.m.a a a a a a a a a a a a a a a a a a a a a a a a m.m.m.m.m.m.m.m.b.b.b.b.",
"m.m.m.m.m.m.m.m.m.m.m.m.a a a a a a a a a a a a a a a a a a a a a a a a m.m.m.m.m.m.m.m.b.b.b.b.",
"m.m.m.m.m.m.m.m.m.m.m.m.m.m.m.m.a a a a a a a a a a a a a a a a m.m.m.m.m.m.m.m.m.m.m.m.m.m.m.m.",
"m.m.m.m.m.m.m.m.m.m.m.m.m.m.m.m.a a a a a a a a a a a a a a a a m.m.m.m.m.m.m.m.m.m.m.m.m.m.m.m.",
"m.m.m.m.m.m.m.m.m.m.m.m.m.m.m.m.a a a a a a a a a a a a a a a a m.m.m.m.m.m.m.m.m.m.m.m.m.m.m.m.",
"m.m.m.m.m.m.m.m.m.m.m.m.m.m.m.m.a a a a a a a a a a a a a a a a m.m.m.m.m.m.m.m.m.m.m.m.m.m.m.m."
};
