/* XPM */
static char *_4fe8ca680b1410897bedbaa89889296n4LMTVzZxkE6g4Gt[] = {
/* columns rows colors chars-per-pixel */
"48 48 131 2 ",
"   c #6E3E48",
".  c #744546",
"X  c #7A4A45",
"o  c #704048",
"O  c #92613C",
"+  c #9A6A3C",
"@  c #804D45",
"#  c #8F4D45",
"$  c #934E46",
"%  c #865741",
"&  c #8D5B43",
"*  c #965145",
"=  c #9A5746",
"-  c #9E5C46",
";  c #92574A",
":  c #9B5649",
">  c #925E4B",
",  c #A35F46",
"<  c #94614C",
"1  c #99614F",
"2  c #966352",
"3  c #9A6451",
"4  c #966C50",
"5  c #997454",
"6  c #977854",
"7  c #A46146",
"8  c #AA6346",
"9  c #AA6A47",
"0  c #A5604A",
"q  c #AD644D",
"w  c #AE6A48",
"e  c #B16240",
"r  c #B56C44",
"t  c #BB6F42",
"y  c #B26D4B",
"u  c #B77144",
"i  c #BC7343",
"p  c #B5754D",
"a  c #B67849",
"s  c #BE7949",
"d  c #C07743",
"f  c #C37B43",
"g  c #C87D42",
"h  c #C27D4D",
"j  c #78A158",
"k  c #B88A2E",
"l  c #BD8537",
"z  c #BE8C33",
"x  c #BD8339",
"c  c #C28E34",
"v  c #C69133",
"b  c #C99433",
"n  c #CC9A35",
"m  c #CB973F",
"M  c #D39F3E",
"N  c #D5A42D",
"B  c #D2A233",
"V  c #DCA833",
"C  c #DBAD3D",
"Z  c #948454",
"A  c #959559",
"S  c #BD804E",
"D  c #A28257",
"F  c #AE8D5A",
"G  c #B88155",
"H  c #BF8B5B",
"J  c #A1955B",
"K  c #AA955D",
"L  c #99A05A",
"P  c #A1B45F",
"I  c #A6A461",
"U  c #AAA563",
"Y  c #A6A962",
"T  c #A3BD62",
"R  c #B2BD68",
"E  c #C78145",
"W  c #C98446",
"Q  c #CF8D46",
"!  c #C2874B",
"~  c #C78D4B",
"^  c #C98F4B",
"/  c #C9904A",
"(  c #C38353",
")  c #C98452",
"_  c #CE8B53",
"`  c #D28D55",
"'  c #CB9150",
"]  c #D79155",
"[  c #DC9F55",
"{  c #DC9459",
"}  c #DF9A5B",
"|  c #DDA84D",
" . c #E2AB4D",
".. c #E8AD4F",
"X. c #E5B24D",
"o. c #E9B54F",
"O. c #EEBD4F",
"+. c #E4A755",
"@. c #E7AE51",
"#. c #E9AB56",
"$. c #E9AE5A",
"%. c #EBB650",
"&. c #EEBA52",
"*. c #F0BE51",
"=. c #A4C263",
"-. c #B4C66A",
";. c #BCCE6E",
":. c #BFD16F",
">. c #BFD270",
",. c #F0C347",
"<. c #F3C253",
"1. c #F4C151",
"2. c #F7C651",
"3. c #FBCF50",
"4. c #FACC53",
"5. c #FCD053",
"6. c #FFD552",
"7. c #FCD054",
"8. c #FFDC54",
"9. c #FFD45B",
"0. c #FFD05C",
"q. c #FFDA58",
"w. c #FFD85C",
"e. c #FFDD5D",
"r. c #FFE358",
"t. c #FFE459",
"y. c #FFE25D",
"u. c #FFE45E",
"i. c #C0D26F",
"p. c #C1D370",
"a. c #C0D470",
/* pixels */
"j j j j =.=.=.=.=.=.=.=.a.a.:.;.;.;.;.;.;.;.;.;.;.;.;.;.;.;.;.;.;.:.a.a.=.=.=.=.=.=.=.=.j j j j ",
"j j j j =.=.=.=.=.=.=.=.p.>.a.a.a.a.a.a.a.a.a.a.a.a.a.a.a.a.a.a.a.a.>.p.=.=.=.=.=.=.=.=.j j j j ",
"j j j j =.=.=.=.=.=.=.=.a.a.:.;.;.;.;.;.;.;.;.;.;.;.;.;.;.;.;.;.;.:.a.a.=.=.=.=.=.=.=.=.j j j j ",
"j j j j =.=.=.=.=.=.=.T a.a.J 3 1 < > > > > > > > > > > > > < 1 3 J a.a.T =.=.=.=.=.=.=.j j j j ",
"j j j j =.=.=.=.=.=.=.=.:.I G } { _ ` ` ` ` ` ` ` ` ` ` ` ` _ { } G I :.=.=.=.=.=.=.=.=.j j j j ",
"j j j j =.=.=.=.=.T =.=.Y = $.u.e.9.w.w.w.w.w.w.w.w.w.w.w.w.9.e.u.$.= Y =.=.T =.=.=.=.=.j j j j ",
"j j j j =.=.=.=.=.=.T Z H $.0.q.r.r.t.t.t.t.t.t.t.t.t.t.t.t.r.r.q.0.$.H Z T =.=.=.=.=.=.j j j j ",
"j j j j =.=.=.=.T =.T ; { y.8.X.| | | | | | | | | | | | | | | | X.8.y.{ ; T =.T =.=.=.=.j j j j ",
"j j j j =.=.=.=.T =.T > ` <.8.X.a 7 w 9 9 9 9 9 9 9 9 9 9 w 7 a X.8.<.` > T =.T =.=.=.=.j j j j ",
"j j j j =.=.=.=.T =.T < ) o.%.! , $ = , 8 , , , , , , 8 , = $ , ! %.o.) < T =.T =.=.=.=.j j j j ",
"j j j j =.=.=.=.T =.T > _ *.^ * - 7 7 u f d d d d d d f u 7 7 - * ^ *._ > T =.T =.=.=.=.j j j j ",
"j j j j =.=.=.=.T =.T > _ &.~ * - 7 7 8 r f g f f g f r 8 7 7 - * ~ &._ > T =.T =.=.=.=.j j j j ",
"j j j j j j j j T =.T ; { 2./ * - 7 , - 7 r u r r u r 7 - , 7 - * / 2.{ ; T =.T j j j j j j j j ",
"j j j j j j j j T =.T ; ] 1.^ * - 7 , , , 7 7 7 7 7 7 , , , 7 - * ^ 1.] ; T =.T j j j j j j j j ",
"j j j j j j j j =.=.=.L F S [ ' w , 8 8 7 , , , , , , 7 8 8 , w ' [ S F L =.=.=.j j j j j j j j ",
"j j j j j j j j =.T =.T A = ..O.w # - - - - - - - - - - - - # w O...= A T =.T =.j j j j j j j j ",
"j j j j j j j j T =.T 5 p l V n & o @ @ @ @ @ @ @ @ @ @ @ @ o & n V l p 5 T =.T j j j j j j j j ",
"j j j j j j j j T =.T > ` n k O X o . . . . . . . . . . . . o X O k n ` > T =.T j j j j j j j j ",
"j j j j j j j j T =.T 2 f b +   . X X X X X X X X X X X X X X .   + b f 2 T =.T j j j j j j j j ",
"j j j j j j j j T =.T 2 f b +   . X X X X X X X X X X X X X X .   + b f 2 T =.T j j j j j j j j ",
"j j j j j j j j T =.T 2 f b +   . X X X X X X X X X X X X X X .   + b f 2 T =.T j j j j j j j j ",
"j j j j j j j j T =.T 2 f b +   . X X X X X X X X X X X X X X .   + b f 2 T =.T j j j j j j j j ",
"j j j j j j j j T =.T 3 s v z + .   o o                 o o   . + z v s 3 T =.T j j j j j j j j ",
"j j j j j j j j T =.T 3 s v N c O X % % % % % % % % % % % % X O c N v s 3 T =.T j j j j j j j j ",
"j j j j =.=.=.=.T =.T 3 h M B v z z z z z z z z z z z z z z z z v B M h 3 T =.T =.=.=.=.j j j j ",
"j j j j =.=.=.=.T =.T < ) X.C c l x x x x x x x x x x x x x x l c C X.) < T =.T =.=.=.=.j j j j ",
"j j j j =.=.=.=.T =.T > ) &.,.m 8 : , , , , , , , , , , , , : 8 m ,.&.) > T =.T =.=.=.=.j j j j ",
"j j j j =.=.=.=.T =.T < ) &.4.| i 8 r r r r r r r r r r r r 8 i | 4.&.) < T =.T =.=.=.=.j j j j ",
"j j j j =.=.=.=.T =.T < ) %.7.o.W i f f f f f f f f f f f f i W o.7.%.) < T =.T =.=.=.=.j j j j ",
"j j j j =.=.=.=.T =.T < ) %.5.X.E t d d d d d d d d d d d d t E X.5.%.) < T =.T =.=.=.=.j j j j ",
"j j j j =.=.=.=.T =.T ; { 2.6. .i e r r r r r r r r r r r r e i  .6.2.{ ; T =.T =.=.=.=.j j j j ",
"j j j j =.=.=.=.T =.T 4 ( @.4.o.Q f W W W W W W W W W W W W f Q o.4.@.( 4 T =.T =.=.=.=.j j j j ",
"j j j j =.=.=.=.=.T =.P K y #.4.<.o.O.O.O.O.O.O.O.O.O.O.O.O.o.<.4.#.y K P =.T =.=.=.=.=.j j j j ",
"j j j j =.=.=.=.=.=.=.=.-.6 ( #.#.+.+.+.+.+.+.+.+.+.+.+.+.+.+.#.#.( 6 -.=.=.=.=.=.=.=.=.j j j j ",
"j j j j =.=.=.=.=.=.=.T a.a.D q 0 - - - - - - - - - - - - - - 0 q D a.a.T =.=.=.=.=.=.=.j j j j ",
"j j j j =.=.=.=.=.=.=.T a.a.R U U U I I I I I I A A A A I I U U U R a.a.T =.=.=.=.=.=.=.j j j j ",
"j j j j =.=.=.=.=.=.=.=.=.T =.=.a.a.a.a.a.a.a.a.a.a.a.a.a.a.a.a.a.a.;.>.=.=.=.=.=.=.=.=.j j j j ",
"j j j j =.=.=.=.=.=.=.=.=.=.=.=.a.a.a.a.a.a.a.a.a.a.a.a.a.a.a.a.a.a.a.a.=.=.=.=.=.=.=.=.j j j j ",
"j j j j =.=.=.=.=.=.=.=.=.=.=.T :.:.:.:.:.:.:.:.:.:.:.:.:.:.:.:.:.i.a.a.=.=.=.=.=.=.=.=.j j j j ",
"j j j j =.=.=.=.=.=.=.=.=.=.=.=.a.a.a.a.a.a.a.a.a.a.a.a.a.a.a.a.a.a.a.a.=.=.=.=.=.=.=.=.j j j j ",
"j j j j j j j j =.=.=.=.=.=.=.=.a.a.a.a.a.a.a.a.a.a.a.a.a.a.a.a.=.=.=.=.=.=.=.=.=.=.=.=.j j j j ",
"j j j j j j j j =.=.=.=.=.=.=.=.a.a.a.a.a.a.a.a.a.a.a.a.a.a.a.a.=.=.=.=.=.=.=.=.=.=.=.=.j j j j ",
"j j j j j j j j =.=.=.=.=.=.=.=.a.a.a.a.a.a.a.a.a.a.a.a.a.a.a.a.=.=.=.=.=.=.=.=.=.=.=.=.j j j j ",
"j j j j j j j j =.=.=.=.=.=.=.=.a.a.a.a.a.a.a.a.a.a.a.a.a.a.a.a.=.=.=.=.=.=.=.=.=.=.=.=.j j j j ",
"j j j j j j j j =.=.=.=.=.=.=.=.=.=.=.=.a.a.a.a.a.a.a.a.a.a.a.a.=.=.=.=.=.=.=.=.=.=.=.=.j j j j ",
"j j j j j j j j =.=.=.=.=.=.=.=.=.=.=.=.a.a.a.a.a.a.a.a.a.a.a.a.=.=.=.=.=.=.=.=.=.=.=.=.j j j j ",
"j j j j j j j j =.=.=.=.=.=.=.=.=.=.=.=.a.a.a.a.a.a.a.a.a.a.a.a.=.=.=.=.=.=.=.=.=.=.=.=.j j j j ",
"j j j j j j j j =.=.=.=.=.=.=.=.=.=.=.=.a.a.a.a.a.a.a.a.a.a.a.a.=.=.=.=.=.=.=.=.=.=.=.=.j j j j "
};
