/* XPM */
static char *fd15df57bd4341e283046f9f692cfa1b3eGHx19zQth0dGF7[] = {
/* columns rows colors chars-per-pixel */
"48 48 134 2 ",
"   c #6D3D49",
".  c #734446",
"X  c #774845",
"o  c #7A4A45",
"O  c #704048",
"+  c #8E5F3D",
"@  c #97643B",
"#  c #AF7D37",
"$  c #854C46",
"%  c #914B44",
"&  c #845542",
"*  c #8C5446",
"=  c #895941",
"-  c #9A5545",
";  c #9D5C46",
":  c #9E5D48",
">  c #A15E47",
",  c #A05D48",
"<  c #9E644C",
"1  c #916E51",
"2  c #9B7150",
"3  c #A46146",
"4  c #A96446",
"5  c #A66E47",
"6  c #AA6947",
"7  c #A6644B",
"8  c #AC634C",
"9  c #AD694A",
"0  c #B36643",
"q  c #B56C44",
"w  c #B86D42",
"e  c #BE7443",
"r  c #B17148",
"t  c #B67A49",
"y  c #BB7F49",
"u  c #B16650",
"i  c #A27051",
"p  c #AE7054",
"a  c #AC7958",
"s  c #B07B52",
"d  c #C07743",
"f  c #C47B42",
"g  c #C87F42",
"h  c #C27554",
"j  c #C07B50",
"k  c #78A158",
"l  c #BE8C2E",
"z  c #BE8C33",
"x  c #BD8339",
"c  c #C5942F",
"v  c #CE9E2E",
"b  c #D29F2D",
"n  c #C18E30",
"m  c #C4883B",
"M  c #C09130",
"N  c #CC9A31",
"B  c #D09F38",
"V  c #D6A639",
"C  c #ECB73D",
"Z  c #9D8656",
"A  c #938E57",
"S  c #969659",
"D  c #9D935C",
"F  c #979859",
"G  c #9B9A5D",
"H  c #BD8241",
"J  c #BB804A",
"K  c #A49E5F",
"L  c #9AA65C",
"P  c #A79360",
"I  c #A59E60",
"U  c #A6A461",
"Y  c #ABA663",
"T  c #A1AF62",
"R  c #ADAC64",
"E  c #A4BF63",
"W  c #B3B666",
"Q  c #B6BE69",
"!  c #C68344",
"~  c #C98446",
"^  c #C88841",
"/  c #C1874B",
"(  c #C4884E",
")  c #CE8F4E",
"_  c #D08F40",
"`  c #D08F49",
"'  c #C69442",
"]  c #CF9349",
"[  c #D39142",
"{  c #D2944A",
"}  c #D69F4E",
"|  c #D99D4A",
" . c #D18B55",
".. c #D19554",
"X. c #DC9C52",
"o. c #DBA34B",
"O. c #DEA354",
"+. c #E4B542",
"@. c #E6B845",
"#. c #EDBC4F",
"$. c #E3A755",
"%. c #E7AB54",
"&. c #EBAB56",
"*. c #E6A45C",
"=. c #EEAE58",
"-. c #E8B750",
";. c #ECBA51",
":. c #EDB45A",
">. c #F2BE53",
",. c #F1B35C",
"<. c #FBBB5B",
"1. c #A4C263",
"2. c #B6C36A",
"3. c #B8C66B",
"4. c #BCCD6E",
"5. c #BFD16F",
"6. c #BFD370",
"7. c #F4C54F",
"8. c #EFC250",
"9. c #F5C551",
"0. c #F7C951",
"q. c #FBCD51",
"w. c #F9C35D",
"e. c #FFD753",
"r. c #FFD95C",
"t. c #FFE759",
"y. c #FFE15C",
"u. c #FFEB5D",
"i. c #FFEC5D",
"p. c #FFF35D",
"a. c #C0D26F",
"s. c #C1D370",
"d. c #C0D470",
"f. c #FFD462",
/* pixels */
"k k k k 1.1.1.1.1.1.1.1.d.d.5.a.d.d.d.d.d.d.d.d.d.d.d.d.d.d.d.d.a.5.d.d.1.1.1.1.1.1.1.1.k k k k ",
"k k k k 1.1.1.1.1.1.1.1.a.5.d.d.K P D D D D D D D D D D D D P K d.d.5.a.1.1.1.1.1.1.1.1.k k k k ",
"k k k k 1.1.1.1.1.1.1.1.s.d.5.W 7 h 9 9 9 9 9 9 9 9 9 9 9 9 h 7 W 5.d.s.1.1.1.1.1.1.1.1.k k k k ",
"k k k k 1.1.1.1.1.1.1.E d.d.A p :.f.w.w.w.w.w.w.w.w.w.w.w.w.f.:.p A d.d.E 1.1.1.1.1.1.1.k k k k ",
"k k k k 1.1.1.1.1.1.1.E 3.R s *.r.p.u.i.i.i.i.i.i.i.i.i.i.u.p.r.*.s R 3.E 1.1.1.1.1.1.1.k k k k ",
"k k k k 1.1.1.1.1.E 1.1.U ; :.y.0.#.9.9.9.9.9.9.9.9.9.9.9.9.#.0.y.:.; U 1.1.E 1.1.1.1.1.k k k k ",
"k k k k 1.1.1.1.1.E 1.1.K 7 ,.t.q.o.y t J y y y y y y J t y o.q.t.,.7 K 1.1.E 1.1.1.1.1.k k k k ",
"k k k k 1.1.1.1.1.E 1.1.Y : X.9.;./ - - > , , , , , , > - - / ;.9.X.: Y 1.1.E 1.1.1.1.1.k k k k ",
"k k k k 1.1.1.1.1.E 1.1.U ; $.;.y - , q e w w w w w w e q , - y ;.$.; F 1.1.E 1.1.1.1.1.k k k k ",
"k k k k 1.1.1.1.1.E 1.1.U ; %.-.6 % 4 q e g g g g g g e q 4 % 6 -.%.; F 1.1.E 1.1.1.1.1.k k k k ",
"k k k k 1.1.1.1.1.E 1.1.U ; &.;.r - 3 ; 4 e d e e d e 4 ; 3 - r ;.&.; F 1.1.E 1.1.1.1.1.k k k k ",
"k k k k 1.1.1.1.1.E 1.1.I 8 <.8.6 % 3 , , 4 4 4 4 4 4 , , 3 % 6 8.<.8 S 1.1.E 1.1.1.1.1.k k k k ",
"k k k k k k k k 1.1.1.1.L 2 ..O.( 6 3 3 3 , , , , , , 3 3 3 6 ( O...2 L 1.1.1.1.k k k k k k k k ",
"k k k k k k k k 1.1.1.E 1.1.1 j ;.} , ; 3 3 , 3 3 , 3 3 ; , } ;.j 1 1.1.E 1.1.1.k k k k k k k k ",
"k k k k k k k k 1.1.1.1.T Z 5 m C ' $ $ * * * * * * * * $ $ ' C m 5 Z T 1.1.1.1.k k k k k k k k ",
"k k k k k k k k 1.E 1.1.D 8 [ v l @ . O X X X X X X X X O . @ l v [ 8 D 1.1.E 1.k k k k k k k k ",
"k k k k k k k k 1.E 1.1.D , [ M + X X X X X X X X X X X X X X + M [ , D 1.1.E 1.k k k k k k k k ",
"k k k k k k k k 1.E 1.1.G : _ z o   X o X X X X X X X X o o   o z _ : G 1.1.E 1.k k k k k k k k ",
"k k k k k k k k 1.E 1.1.G : _ z = O X X X X X X X X X X X X O = z _ : G 1.1.E 1.k k k k k k k k ",
"k k k k k k k k 1.E 1.1.G : _ z = O X X X X X X X X X X X X O = z _ : G 1.1.E 1.k k k k k k k k ",
"k k k k k k k k 1.E 1.1.G : [ z &   X X X X X X X X X X o X   & z [ : G 1.1.E 1.k k k k k k k k ",
"k k k k k k k k 1.E 1.1.G : [ z &   X X X X X X X X X X o X   & z [ : G 1.1.E 1.k k k k k k k k ",
"k k k k k k k k 1.E 1.1.G , ^ c # =     O             O     = # c ^ , G 1.1.E 1.k k k k k k k k ",
"k k k k k k k k 1.E 1.1.G , ! v b # = & = = = = = = = = & = # b v ! , G 1.1.E 1.k k k k k k k k ",
"k k k k 1.1.1.1.1.E 1.1.G ; ` V N n z z z z z z z z z z z z n N V ` ; G 1.1.E 1.1.1.1.1.k k k k ",
"k k k k 1.1.1.1.1.E 1.1.F ; X.@.B z x x x x x x x x x x x x z B @.X.; F 1.1.E 1.1.1.1.1.k k k k ",
"k k k k 1.1.1.1.1.E 1.1.F ; O.7.+.H , ; , , , , , , , , ; , H +.7.O.; F 1.1.E 1.1.1.1.1.k k k k ",
"k k k k 1.1.1.1.1.E 1.1.F ; X.q.7.] 0 0 q q q q q q q q 0 0 ] 7.q.X.; F 1.1.E 1.1.1.1.1.k k k k ",
"k k k k 1.1.1.1.1.E 1.1.Y : X.0.9.o.d d g f f f f f f g d d o.0.0.X.: Y 1.1.E 1.1.1.1.1.k k k k ",
"k k k k 1.1.1.1.1.E 1.1.Y : X.0.0.| e e d d d d d d d d e e | 0.0.X.: Y 1.1.E 1.1.1.1.1.k k k k ",
"k k k k 1.1.1.1.1.E 1.1.I 8 &.e.9.{ 0 0 w w w w w w w w 0 0 { 9.e.&.8 I 1.1.E 1.1.1.1.1.k k k k ",
"k k k k 1.1.1.1.1.1.1.1.R < ..>.0.o.~ ! ~ ~ ~ ~ ~ ~ ~ ~ ! ~ o.0.>...< R 1.1.1.1.1.1.1.1.k k k k ",
"k k k k 1.1.1.1.1.1.1.E 4.Q i  .>.q.#.#.#.#.#.#.#.#.#.#.#.#.q.>. .i Q 4.E 1.1.1.1.1.1.1.k k k k ",
"k k k k 1.1.1.1.1.1.1.E d.d.G a ) =.$.$.$.$.$.$.$.$.$.$.$.$.=.) a G d.d.E 1.1.1.1.1.1.1.k k k k ",
"k k k k 1.1.1.1.1.1.1.1.5.a.d.2.< u ; ; ; ; ; ; ; ; ; ; ; ; u < 2.d.a.5.1.1.1.1.1.1.1.1.k k k k ",
"k k k k 1.1.1.1.1.1.1.1.6.5.d.d.R Y U U U U U U F F F F U U Y R d.d.5.6.1.1.1.1.1.1.1.1.k k k k ",
"k k k k 1.1.1.1.1.1.1.1.1.1.E 1.d.d.d.d.d.d.d.d.d.d.d.d.d.d.d.d.d.5.d.d.1.1.1.1.1.1.1.1.k k k k ",
"k k k k 1.1.1.1.1.1.1.1.1.1.1.1.d.d.d.d.d.d.d.d.d.d.d.d.d.d.d.d.d.d.d.d.1.1.1.1.1.1.1.1.k k k k ",
"k k k k 1.1.1.1.1.1.1.1.1.1.1.1.6.5.5.5.5.5.5.5.5.5.5.5.5.5.5.6.6.d.d.d.1.1.1.1.1.1.1.1.k k k k ",
"k k k k 1.1.1.1.1.1.1.1.1.1.1.1.d.d.d.d.d.d.d.d.d.d.d.d.d.d.d.d.d.d.d.d.1.1.1.1.1.1.1.1.k k k k ",
"k k k k k k k k 1.1.1.1.1.1.1.1.d.d.d.d.d.d.d.d.d.d.d.d.d.d.d.d.1.1.1.1.1.1.1.1.1.1.1.1.k k k k ",
"k k k k k k k k 1.1.1.1.1.1.1.1.d.d.d.d.d.d.d.d.d.d.d.d.d.d.d.d.1.1.1.1.1.1.1.1.1.1.1.1.k k k k ",
"k k k k k k k k 1.1.1.1.1.1.1.1.d.d.d.d.d.d.d.d.d.d.d.d.d.d.d.d.1.1.1.1.1.1.1.1.1.1.1.1.k k k k ",
"k k k k k k k k 1.1.1.1.1.1.1.1.d.d.d.d.d.d.d.d.d.d.d.d.d.d.d.d.1.1.1.1.1.1.1.1.1.1.1.1.k k k k ",
"k k k k k k k k 1.1.1.1.1.1.1.1.1.1.1.1.d.d.d.d.d.d.d.d.d.d.d.d.1.1.1.1.1.1.1.1.1.1.1.1.k k k k ",
"k k k k k k k k 1.1.1.1.1.1.1.1.1.1.1.1.d.d.d.d.d.d.d.d.d.d.d.d.1.1.1.1.1.1.1.1.1.1.1.1.k k k k ",
"k k k k k k k k 1.1.1.1.1.1.1.1.1.1.1.1.d.d.d.d.d.d.d.d.d.d.d.d.1.1.1.1.1.1.1.1.1.1.1.1.k k k k ",
"k k k k k k k k 1.1.1.1.1.1.1.1.1.1.1.1.d.d.d.d.d.d.d.d.d.d.d.d.1.1.1.1.1.1.1.1.1.1.1.1.k k k k "
};
