/* XPM */
static char *bf47ef8d59ac4466f9f23357ca5079e28EpLSZkje15cDRyU[] = {
/* columns rows colors chars-per-pixel */
"48 48 142 2 ",
"   c #673644",
".  c #6B3B43",
"X  c #6E3E48",
"o  c #703F43",
"O  c #6F4044",
"+  c #744444",
"@  c #7B4B45",
"#  c #704048",
"$  c #90603E",
"%  c #9A6A3B",
"&  c #855542",
"*  c #975345",
"=  c #9A5746",
"-  c #935845",
";  c #9E5C46",
":  c #92564A",
">  c #9B5649",
",  c #945C4B",
"<  c #A15E47",
"1  c #95624D",
"2  c #98644E",
"3  c #9F6E49",
"4  c #83714F",
"5  c #966352",
"6  c #996652",
"7  c #966C50",
"8  c #9D6A54",
"9  c #8F7051",
"0  c #847C52",
"q  c #887D53",
"w  c #9B7253",
"e  c #9B7B53",
"r  c #AB6546",
"t  c #A5604A",
"y  c #AD644D",
"u  c #B16240",
"i  c #B66B44",
"p  c #BB6F42",
"a  c #B26D4B",
"s  c #A6744E",
"d  c #AC774F",
"f  c #BC7443",
"g  c #BE7949",
"h  c #A76656",
"j  c #AA6B57",
"k  c #AD7751",
"l  c #C07743",
"z  c #C37C44",
"x  c #C47D4A",
"c  c #7E9656",
"v  c #7A9E57",
"b  c #7A9F58",
"n  c #79A057",
"m  c #78A158",
"M  c #BB842B",
"N  c #BD8537",
"B  c #BE8C33",
"V  c #BD8339",
"C  c #C28E34",
"Z  c #C69133",
"A  c #CA9534",
"S  c #CB973F",
"D  c #C7983F",
"F  c #D39F3C",
"G  c #D5A42D",
"H  c #D2A233",
"J  c #D3A23E",
"K  c #DBAD3D",
"L  c #9D8D54",
"P  c #9F8B58",
"I  c #939357",
"U  c #949759",
"Y  c #9A955A",
"T  c #969A5A",
"R  c #9E995D",
"E  c #B5844A",
"W  c #9BAD5E",
"Q  c #9AB55E",
"!  c #A3BE62",
"~  c #C78145",
"^  c #C98446",
"/  c #CF8D46",
"(  c #C88D4B",
")  c #CA9E48",
"_  c #C38252",
"`  c #C98452",
"'  c #C0895A",
"]  c #C49651",
"[  c #C69952",
"{  c #C99B52",
"}  c #D79652",
"|  c #DB9058",
" . c #DEAA4C",
".. c #CDA25C",
"X. c #E2AB4D",
"o. c #E4B14C",
"O. c #E9B54F",
"+. c #EEBC4F",
"@. c #E4A755",
"#. c #E7AE51",
"$. c #E9AB56",
"%. c #E7AB59",
"&. c #E8AD59",
"*. c #ECB751",
"=. c #EDBB53",
"-. c #EEB35C",
";. c #C48F65",
":. c #DD9861",
">. c #D3AD6E",
",. c #A4C263",
"<. c #B8C46A",
"1. c #BCCD6E",
"2. c #BED06E",
"3. c #BFD370",
"4. c #F0C347",
"5. c #FFD54E",
"6. c #F4C452",
"7. c #F9C751",
"8. c #FBCD52",
"9. c #F4C158",
"0. c #FED253",
"q. c #FFDA56",
"w. c #FFD35F",
"e. c #FFDA5A",
"r. c #FFE45E",
"t. c #FFEC5E",
"y. c #FFF15F",
"u. c #C0D26F",
"i. c #C0D470",
"p. c #FFD867",
"a. c #F6C073",
"s. c #FFE262",
"d. c #FFE564",
"f. c #FFEA62",
"g. c #FFEE60",
"h. c #FFF060",
"j. c #FFF36D",
"k. c #FFEB77",
"l. c #FFF971",
"z. c #B1E0BE",
"x. c #FFF982",
"c. c #9BD4C3",
/* pixels */
"m m m m m m m m m m m m m m m m m m m m m m m m z.z.z.z.z.z.z.z.c.c.c.c.c.c.c.c.c.c.c.c.c.c.c.c.",
"m m m m m m m m m m m m m m m m m m m m m m m m z.z.z.z.z.z.z.z.c.c.c.c.c.c.c.c.c.c.c.c.c.c.c.c.",
"m m m m m m m m m m m m m m m m m m m m m m m m z.z.z.z.z.z.z.z.c.c.c.c.c.c.c.c.c.c.c.c.c.c.c.c.",
"m m m m m m m m m m m m m m m m m m m m m m m m z.z.z.z.z.z.z.z.c.c.c.c.c.c.c.c.c.c.c.c.c.c.c.c.",
",.,.,.,.,.,.,.,.,.,.,.,.m m m m m m m m m m m m m m m m m m m m m m m m c.c.c.c.c.c.c.c.c.c.c.c.",
",.,.,.,.,.,.,.,.,.,.,.,.m m m m m m m m m m m m m m m m m m m m m m m m c.c.c.c.c.c.c.c.c.c.c.c.",
",.,.,.,.,.,.,.,.,.,.,.,.m m m m m m m m m m m m m m m m m m m m m m m m c.c.c.c.c.c.c.c.c.c.c.c.",
",.,.,.,.,.,.,.,.,.,.,.,.m m m m m m m m m m m m m m m m m m m m m m m m c.c.c.c.c.c.c.c.c.c.c.c.",
",.,.,.,.,.,.,.,.,.,.,.,.,.,.,.! ! ,.,.,.,.,.,.,.,.,.,.,.m m v b b v m m m m m m c.c.c.c.c.c.c.c.",
",.,.,.,.,.,.,.,.,.,.,.,.,.! ,.,.,.,.! ! ,.! ! ! ! ! ! ,.b b m m m m b m m m m m c.c.c.c.c.c.c.c.",
",.,.,.,.,.,.,.,.,.,.,.,.,.,.,.! ! ,.,.,.,.,.,.,.,.,.,.,.m m v v v v m m m m m m c.c.c.c.c.c.c.c.",
",.,.,.,.,.,.,.,.,.,.,.! ,.,.I j j Y ,.,.,.,.,.,.,.,.,.,.m m q h h 0 m m b m m m c.c.c.c.c.c.c.c.",
"i.i.i.i.i.i.i.i.i.3.i.i.! I d | | s U I I U U U U U U I I U s | | k U ! m m m m m m m m c.c.c.c.",
"i.i.i.i.i.i.i.i.i.2.i.i.T = } 6.6.( = * ; ; ; ; ; ; ; ; * = ( 6.6.} = T m m b m m m m m c.c.c.c.",
"i.i.i.i.i.i.i.i.2.u.2.L ;.a.p.5.0.9.%.%.&.&.&.-.-.-.&.&.%.%.9.q.q.w.-.' 4 v m n m m m m c.c.c.c.",
"i.i.i.i.i.i.i.i.1.i.1.- :.k.l.s.d.f.h.h.h.h.g.t.r.t.h.h.h.h.r.r.r.t.e.| : v m v m m m m c.c.c.c.",
",.,.,.,.i.i.i.i.2.i.1.6 x J s.x.x.j.t.t.t.t.t.e.6.0.y.y.t.t.t.g.g.5.F x 5 ! ,.! m m m m m m m m ",
",.,.,.,.i.i.i.i.2.i.1.8 f M ) >.>...{ { ] [ =.q.8. .[ [ { { { { { D M f 8 ! ,.! m m m m m m m m ",
",.,.,.,.i.i.i.i.2.i.1.6 x A % . o + + @ . # E 7.7.E O   @ + + # . % A z 5 ! ,.! m m m m m m m m ",
",.,.,.,.i.i.i.i.2.i.1.6 x A %     o . o . . & 3 3 & .   o . + .   % A z 5 ! ,.! m m m m m m m m ",
"i.i.i.i.i.i.i.i.2.i.1.6 z A % # @ & @ @ & @ +     + @ & @ @ & @ # % A z 5 ! ,.! m m m m m m m m ",
"i.i.i.i.i.i.i.i.2.i.1.6 z A % X + @ @ @ @ @ @ @ @ @ @ @ @ @ @ + X % A z 5 ! ,.! m m m m m m m m ",
"i.i.i.i.i.i.i.i.2.i.1.8 g Z B % + . # # X X # # # # X X # # . + % B Z g 6 ! ,.! m m m m m m m m ",
"i.i.i.i.i.i.i.i.2.i.1.8 g Z G C $ @ & & & & & & & & & & & & @ $ C G Z g 6 ! ,.! m m m m m m m m ",
"i.i.i.i.i.i.i.i.2.i.1.6 x F H Z B B B B B B B B B B B B B B B B Z H F x 5 ! ,.! m m m m m m m m ",
"i.i.i.i.i.i.i.i.2.i.1.2 ` o.K C N V V V V V V V V V V V V V V N C K o.` 1 ! ,.! m m m m m m m m ",
"i.i.i.i.i.i.i.i.2.i.1.1 ` =.4.S r > < < < < < < < < < < < < > r S 4.=.` , ! ,.! m m m m m m m m ",
"i.i.i.i.i.i.i.i.2.i.1.2 ` =.8. .f r i i i i i i i i i i i i r f  .8.=.` 1 ! ,.! m m m m m m m m ",
"i.i.i.i.i.i.i.i.2.i.1.2 ` *.0.O.^ f z z z z z z z z z z z z f ^ O.0.*.` 1 ! ,.! m m m m m m m m ",
"i.i.i.i.i.i.i.i.2.i.1.2 ` *.0.o.~ p l l l l l l l l l l l l p ~ o.0.*.` 1 ! ,.! m m m m m m m m ",
"i.i.i.i.i.i.i.i.1.i.1., | 6.0.X.f u i i i i i i i i i i i i u f X.0.6.| : ! ,.! m m m m m m m m ",
"i.i.i.i.i.i.i.i.2.i.1.w _ #.8.O./ z ^ ^ ^ ^ ^ ^ ^ ^ ^ ^ ^ ^ z / O.8.#._ 7 ! ,.! m m m m m m m m ",
",.,.,.,.i.i.i.i.i.2.3.<.P a $.8.6.O.+.+.+.+.+.+.+.+.+.+.+.+.O.6.8.$.a P c m b m m m m m c.c.c.c.",
",.,.,.,.i.i.i.i.i.u.i.i.Q 9 _ $.$.@.@.@.@.@.@.@.@.@.@.@.@.@.@.$.$._ 9 Q m m m m m m m m c.c.c.c.",
",.,.,.,.i.i.i.i.i.i.i.1.,.,.e y t ; ; ; ; ; ; ; ; ; ; ; ; ; ; t y e ,.,.b m m m m m m m c.c.c.c.",
",.,.,.,.i.i.i.i.i.i.i.2.,.,.W R Y T U U U U U U U U U U U U T Y R W ,.,.b m m m m m m m c.c.c.c.",
",.,.,.,.,.,.,.,.,.,.,.,.,.! ,.,.,.,.,.,.,.,.,.,.,.,.,.,.m m m m m m b m m m m m c.c.c.c.c.c.c.c.",
",.,.,.,.,.,.,.,.,.,.,.,.,.,.,.,.,.,.,.,.,.,.,.,.,.,.,.,.m m m m m m m m m m m m c.c.c.c.c.c.c.c.",
",.,.,.,.,.,.,.,.,.,.,.,.,.,.,.! ! ! ! ! ! ! ! ! ! ! ! ! b b b b b m m m m m m m c.c.c.c.c.c.c.c.",
",.,.,.,.,.,.,.,.,.,.,.,.,.,.,.,.,.,.,.,.,.,.,.,.,.,.,.,.m m m m m m m m m m m m c.c.c.c.c.c.c.c.",
"m m m m m m m m ,.,.,.,.,.,.,.,.m m m m m m m m m m m m m m m m m m m m c.c.c.c.c.c.c.c.z.z.z.z.",
"m m m m m m m m ,.,.,.,.,.,.,.,.m m m m m m m m m m m m m m m m m m m m c.c.c.c.c.c.c.c.z.z.z.z.",
"m m m m m m m m ,.,.,.,.,.,.,.,.m m m m m m m m m m m m m m m m m m m m c.c.c.c.c.c.c.c.z.z.z.z.",
"m m m m m m m m ,.,.,.,.,.,.,.,.m m m m m m m m m m m m m m m m m m m m c.c.c.c.c.c.c.c.z.z.z.z.",
"m m m m m m m m m m m m m m m m m m m m m m m m z.z.z.z.z.z.z.z.c.c.c.c.c.c.c.c.c.c.c.c.c.c.c.c.",
"m m m m m m m m m m m m m m m m m m m m m m m m z.z.z.z.z.z.z.z.c.c.c.c.c.c.c.c.c.c.c.c.c.c.c.c.",
"m m m m m m m m m m m m m m m m m m m m m m m m z.z.z.z.z.z.z.z.c.c.c.c.c.c.c.c.c.c.c.c.c.c.c.c.",
"m m m m m m m m m m m m m m m m m m m m m m m m z.z.z.z.z.z.z.z.c.c.c.c.c.c.c.c.c.c.c.c.c.c.c.c."
};
