/* XPM */
static char *c11a8c32c389424bce46da368591748elXRcpgmTGSrRIahl[] = {
/* columns rows colors chars-per-pixel */
"48 48 142 2 ",
"   c #AA5F3E",
".  c #AD613F",
"X  c #B36C3E",
"o  c #975142",
"O  c #9B5545",
"+  c #915D47",
"@  c #9E5C46",
"#  c #915449",
"$  c #935B4B",
"%  c #A25F44",
"&  c #AC5F42",
"*  c #8C6D4B",
"=  c #94614C",
"-  c #926D4C",
";  c #95744E",
":  c #98744D",
">  c #8B6E50",
",  c #9A6650",
"<  c #9D6B55",
"1  c #957250",
"2  c #9B7253",
"3  c #977854",
"4  c #A36142",
"5  c #AE6540",
"6  c #A5604A",
"7  c #AD644D",
"8  c #B46441",
"9  c #B66B42",
"0  c #B46D4D",
"q  c #BC7345",
"w  c #B5724D",
"e  c #B47C4C",
"r  c #B46A51",
"t  c #BD7452",
"y  c #C07743",
"u  c #C37B44",
"i  c #C37F4E",
"p  c #C07953",
"a  c #78A158",
"s  c #BC8532",
"d  c #C28C2F",
"f  c #C78E37",
"g  c #CF9A3D",
"h  c #D6A733",
"j  c #D8AD38",
"k  c #9C8054",
"l  c #A28257",
"z  c #A18D5A",
"x  c #AA955D",
"c  c #A19A5F",
"v  c #9DB35E",
"b  c #9EB060",
"n  c #A6A461",
"m  c #AAA563",
"M  c #A3BE62",
"N  c #B2BD68",
"B  c #C98445",
"V  c #C68B47",
"C  c #CF8D46",
"Z  c #C4804F",
"A  c #D68D4F",
"S  c #D19446",
"D  c #D5954A",
"F  c #D9924F",
"G  c #D99E4A",
"H  c #C28151",
"J  c #CA8552",
"K  c #CE8C55",
"L  c #D58C52",
"P  c #D08E5C",
"I  c #DA9352",
"U  c #DE9A53",
"Y  c #D7955F",
"T  c #DD925A",
"R  c #E29E55",
"E  c #E49D59",
"W  c #D6A242",
"Q  c #D8A345",
"!  c #DCA845",
"~  c #DAA250",
"^  c #E3AD4D",
"/  c #E1B742",
"(  c #E5B846",
")  c #EABE46",
"_  c #E6B04F",
"`  c #EDBC4F",
"'  c #E4A755",
"]  c #E6AE51",
"[  c #EAAB56",
"{  c #E5A159",
"}  c #EDA95F",
"|  c #EEB653",
" . c #ECB851",
".. c #F0B752",
"X. c #F1BA53",
"o. c #DCAB67",
"O. c #DDAD68",
"+. c #DFB068",
"@. c #E8A164",
"#. c #F1AB67",
"$. c #E3B469",
"%. c #F4B267",
"&. c #F7B56C",
"*. c #FEBD6B",
"=. c #A4C263",
"-. c #B4C66A",
";. c #B8C46A",
":. c #BCCD6E",
">. c #BED16F",
",. c #BFD370",
"<. c #F8D04E",
"1. c #F2C250",
"2. c #FBCC53",
"3. c #FAC65B",
"4. c #FDCD5B",
"5. c #FFD754",
"6. c #FFDB54",
"7. c #FFD55B",
"8. c #FFDF5C",
"9. c #FFE65C",
"0. c #FFE95F",
"q. c #FFF15F",
"w. c #C0D26F",
"e. c #C0D470",
"r. c #F1C865",
"t. c #F0C369",
"y. c #FED762",
"u. c #FBD16F",
"i. c #FFC373",
"p. c #FFDE73",
"a. c #FFE462",
"s. c #FFEA64",
"d. c #FFE16E",
"f. c #FFF461",
"g. c #FFF46D",
"h. c #FFED76",
"j. c #FFEE7A",
"k. c #FFF17A",
"l. c #FFF77B",
"z. c #FFF97B",
"x. c #FFF97E",
"c. c #FFF983",
/* pixels */
"a a a a a a a a a a a a a a a a a a a a a a a a a a a a a a a a a a a a a a a a a a a a a a a a ",
"a a a a a a a a a a a a a a a a a a a a a a a a a a a a a a a a a a a a a a a a a a a a a a a a ",
"a a a a a a a a a a a a a a a a a a a a a a a a a a a a a a a a a a a a a a a a a a a a a a a a ",
"a a a a a a a a a a a a a a a a a a a a a a a a a a a a a a a a a a a a a a a a a a a a a a a a ",
"=.=.=.=.a a a a a a a a a a a a =.=.=.=.=.=.=.=.=.=.=.=.=.=.=.=.=.=.=.=.a a a a a a a a =.=.=.=.",
"=.=.=.=.a a a a a a a a a a a a =.=.=.=.=.=.=.=.=.=.=.=.=.=.=.=.=.=.=.=.a a a a a a a a =.=.=.=.",
"=.=.=.=.a a a a a a a a a a a a =.=.=.=.=.=.=.=.=.=.=.=.=.=.=.=.=.=.=.=.a a a a a a a a =.=.=.=.",
"=.=.=.=.a a a a a a a a a a a a =.=.=.=.=.=.=.=.=.=.=.=.=.=.=.=.=.=.=.=.a a a a a a a a =.=.=.=.",
"=.=.=.=.=.=.=.=.=.=.=.=.=.=.=.=.=.=.=.=.=.=.=.=.=.=.=.=.=.=.=.=.=.=.=.=.=.=.=.=.=.=.=.=.=.=.=.=.",
"=.=.=.=.=.=.=.=.=.=.=.=.=.=.=.M M =.=.=.=.=.=.=.=.=.=.=.=.=.=.M M =.=.=.=.=.=.=.=.=.=.=.=.=.=.=.",
"=.=.=.=.=.=.=.=.=.=.=.=.=.=.=.=.=.=.=.=.=.=.=.=.=.=.=.=.=.=.=.=.=.=.=.=.=.=.=.=.=.=.=.=.=.=.=.=.",
"=.=.=.=.=.=.=.=.=.=.=.=.=.M =.=.=.=.M M M M M M M M M M M M =.=.=.=.M =.=.=.=.=.=.=.=.=.=.=.=.=.",
"=.=.=.=.=.=.=.=.=.=.=.M =.=.v c c b =.=.=.=.=.=.e.e.e.e.=.=.b c c v =.=.M =.=.=.=.=.=.=.=.=.=.=.",
"=.=.=.=.=.=.=.=.=.=.=.M =.=.k r r k =.=.=.=.=.=.e.e.e.e.=.=.k r r k =.=.M =.=.=.=.=.=.=.=.=.=.=.",
"=.=.=.=.=.=.=.=.=.=.=.=.v > H [ [ e 1 * - - ; - ; 3 ; : * 1 e [ [ H > v =.=.=.=.=.=.=.=.=.=.=.=.",
"=.=.=.=.=.=.=.=.=.M =.v z w [ 6.6.~ 0 r p t t t t t t p r 0 ~ 6.6.[ w z v =.M =.=.=.=.=.=.=.=.=.",
"e.e.e.e.e.e.e.e.M =.M - K 3.8.8.9.X.I @.&.#.#.#.#.#.#.&.@.I X.9.8.8.3.K 1 :.e.>.e.e.e.e.e.e.e.e.",
"e.e.e.e.e.e.e.e.M =.M # E 0.f.7.3.[ R } *.i.i.i.i.i.i.*.} R [ 3.7.f.0.E # :.e.:.e.e.e.e.e.e.e.e.",
"e.e.e.e.e.e.e.e.M =.M $ K 7.q.4.U L I F R %.&.%.%.&.%.R F I L U 4.q.7.K = :.e.>.e.e.e.e.e.e.e.e.",
"e.e.e.e.e.e.e.e.M =.M $ K 7.f.4.U L U I U E { E E { E U I U L U 4.f.7.K = :.e.>.e.e.e.e.e.e.e.e.",
"=.=.=.=.e.e.e.e.>.e.:.= K 7.q.4.R L I I I A A A A A A I I I L R 4.q.7.K = :.e.>.e.e.e.e.=.=.=.=.",
"=.=.=.=.e.e.e.e.>.e.:.= L 7.q.4.R L I I I I I I I I I I I I L R 4.q.7.L = :.e.>.e.e.e.e.=.=.=.=.",
"=.=.=.=.e.e.e.e.>.e.:.+ Y h.g.2.X.| X.X...X.X.X.X.X.X.X.X.X.| X.2.g.h.Y + :.e.>.e.e.e.e.=.=.=.=.",
"=.=.=.=.e.e.e.e.>.e.:.= P p.g.a.s.s.s.s.s.s.a.a.a.s.s.s.s.s.s.s.a.g.p.P = :.e.>.e.e.e.e.=.=.=.=.",
"e.e.e.e.e.e.e.e.>.e.:.< q g y.c.x.z.z.z.x.z.l.j.k.l.z.z.z.z.z.x.c.y.g q < :.e.>.e.e.e.e.e.e.e.e.",
"e.e.e.e.e.e.e.e.>.e.:.< q d ( r.$.o.+.$.o.O.u.h.d.t.O.O.$.+.o.$.r.( d q < :.e.>.e.e.e.e.e.e.e.e.",
"e.e.e.e.e.e.e.e.>.e.:., Z Q h s 4 O @ 4 o O ~ 9.2.V O O % @ O 4 s h Q Z , :.e.>.e.e.e.e.e.e.e.e.",
"e.e.e.e.e.e.e.e.>.e.:., i W j f X & 5 8   . G 5.2.S .   8 5 & X f j W i , :.e.>.e.e.e.e.e.e.e.e.",
"e.e.e.e.e.e.e.e.>.e.:., i ! / W B u u B u u D ^ _ D u u B u u B W / ! i , :.e.>.e.e.e.e.e.e.e.e.",
"e.e.e.e.e.e.e.e.>.e.:.= J  .) g u q y y y y y u u u y y y y q u g )  .J = :.e.>.e.e.e.e.e.e.e.e.",
"e.e.e.e.e.e.e.e.:.e.:.$ T 2.<.Q q 8 9 9 9 9 8 8 8 8 9 9 9 9 8 q Q <.2.T $ :.e.:.e.e.e.e.e.e.e.e.",
"e.e.e.e.e.e.e.e.>.e.:.2 H ] 2.` C u B B B B B B B B B B B B u C ` 2.] H 2 :.e.>.e.e.e.e.e.e.e.e.",
"e.e.e.e.e.e.e.e.e.>.,.;.x 0 [ 2.1.` ` ` ` ` ` ` ` ` ` ` ` ` ` 1.2.[ 0 x ;.,.>.e.e.e.e.e.e.e.e.e.",
"e.e.e.e.e.e.e.e.e.w.e.e.-.3 H [ [ ' ' ' ' ' ' ' ' ' ' ' ' ' ' [ [ H 3 -.e.e.w.e.e.e.e.e.e.e.e.e.",
"e.e.e.e.e.e.e.e.e.e.e.:.e.e.l 7 6 @ @ @ @ @ @ @ @ @ @ @ @ @ @ 6 7 l e.e.:.e.e.e.e.e.e.e.e.e.e.e.",
"e.e.e.e.e.e.e.e.e.e.e.>.e.e.N m m m n n n n n n n n n n n n m m m N e.e.>.e.e.e.e.e.e.e.e.e.e.e.",
"e.e.e.e.e.e.e.e.e.e.e.e.,.:.e.e.e.e.e.e.e.e.e.e.e.e.e.e.e.e.e.e.e.e.:.,.e.e.e.e.e.e.e.e.e.e.e.e.",
"e.e.e.e.e.e.e.e.e.e.e.e.e.e.e.e.e.e.e.e.e.e.e.e.e.e.e.e.e.e.e.e.e.e.e.e.e.e.e.e.e.e.e.e.e.e.e.e.",
"e.e.e.e.e.e.e.e.e.e.e.e.e.e.w.>.>.>.>.>.>.>.>.>.>.>.>.>.>.>.>.>.>.w.e.e.e.e.e.e.e.e.e.e.e.e.e.e.",
"e.e.e.e.e.e.e.e.e.e.e.e.e.e.e.e.e.e.e.e.e.e.e.e.e.e.e.e.e.e.e.e.e.e.e.e.e.e.e.e.e.e.e.e.e.e.e.e.",
"e.e.e.e.e.e.e.e.e.e.e.e.e.e.e.e.e.e.e.e.e.e.e.e.e.e.e.e.e.e.e.e.e.e.e.e.e.e.e.e.e.e.e.e.e.e.e.e.",
"e.e.e.e.e.e.e.e.e.e.e.e.e.e.e.e.e.e.e.e.e.e.e.e.e.e.e.e.e.e.e.e.e.e.e.e.e.e.e.e.e.e.e.e.e.e.e.e.",
"e.e.e.e.e.e.e.e.e.e.e.e.e.e.e.e.e.e.e.e.e.e.e.e.e.e.e.e.e.e.e.e.e.e.e.e.e.e.e.e.e.e.e.e.e.e.e.e.",
"e.e.e.e.e.e.e.e.e.e.e.e.e.e.e.e.e.e.e.e.e.e.e.e.e.e.e.e.e.e.e.e.e.e.e.e.e.e.e.e.e.e.e.e.e.e.e.e.",
"e.e.e.e.e.e.e.e.e.e.e.e.e.e.e.e.e.e.e.e.e.e.e.e.e.e.e.e.e.e.e.e.e.e.e.e.e.e.e.e.e.e.e.e.e.e.e.e.",
"e.e.e.e.e.e.e.e.e.e.e.e.e.e.e.e.e.e.e.e.e.e.e.e.e.e.e.e.e.e.e.e.e.e.e.e.e.e.e.e.e.e.e.e.e.e.e.e.",
"e.e.e.e.e.e.e.e.e.e.e.e.e.e.e.e.e.e.e.e.e.e.e.e.e.e.e.e.e.e.e.e.e.e.e.e.e.e.e.e.e.e.e.e.e.e.e.e.",
"e.e.e.e.e.e.e.e.e.e.e.e.e.e.e.e.e.e.e.e.e.e.e.e.e.e.e.e.e.e.e.e.e.e.e.e.e.e.e.e.e.e.e.e.e.e.e.e."
};
