/* XPM */
static char *c50e96428d304567ab374b51f8a9406bj0IagwWdSz4v9kW8[] = {
/* columns rows colors chars-per-pixel */
"48 48 157 2 ",
"   c #776F4E",
".  c #7D6B49",
"X  c #964C3D",
"o  c #984E3E",
"O  c #9D553E",
"+  c #A15A3F",
"@  c #AA6934",
"#  c #BE7F33",
"$  c #905447",
"%  c #9B5241",
"&  c #975B45",
"*  c #9C5C46",
"=  c #88664D",
"-  c #86704F",
";  c #866B50",
":  c #8F6C50",
">  c #857452",
",  c #897556",
"<  c #8F7D52",
"1  c #8D7758",
"2  c #977954",
"3  c #A96347",
"4  c #A1654C",
"5  c #AB654A",
"6  c #A5694B",
"7  c #AB694A",
"8  c #BC6E42",
"9  c #B26E4B",
"0  c #BD7242",
"q  c #B8704F",
"w  c #BE7552",
"e  c #B47A56",
"r  c #B87E56",
"t  c #B17A60",
"y  c #C57E45",
"u  c #CA7D58",
"i  c #7A9E57",
"p  c #7A9F59",
"a  c #78A158",
"s  c #C5912D",
"d  c #CB8D3E",
"f  c #D8AA37",
"g  c #D7A63E",
"h  c #DBAF3A",
"j  c #DEB13E",
"k  c #8F8154",
"l  c #928054",
"z  c #9A8557",
"x  c #998854",
"c  c #9C8458",
"v  c #9B8B59",
"b  c #849056",
"n  c #959759",
"m  c #97995A",
"M  c #9E995D",
"N  c #A28957",
"B  c #A18E5B",
"V  c #BD8457",
"C  c #BD8458",
"Z  c #A3935E",
"A  c #AB925C",
"S  c #AC985F",
"D  c #9BA75C",
"F  c #9BB25E",
"G  c #9EB85F",
"H  c #A0A25B",
"J  c #B68062",
"K  c #A69161",
"L  c #ADA861",
"P  c #A4BF63",
"I  c #B2B667",
"U  c #B1BA67",
"Y  c #C68244",
"T  c #C88446",
"R  c #C78A44",
"E  c #CB8A47",
"W  c #CE8C48",
"Q  c #D48C4E",
"!  c #CD9241",
"~  c #D19546",
"^  c #D7904E",
"/  c #D69C4C",
"(  c #DA9D4A",
")  c #C08451",
"_  c #C18958",
"`  c #D58B51",
"'  c #D98F53",
"]  c #DA8D5D",
"[  c #CA9652",
"{  c #DB9452",
"}  c #DE9A53",
"|  c #E39F53",
" . c #E69D5B",
".. c #D8A740",
"X. c #DDAE45",
"o. c #D8A04D",
"O. c #DEB142",
"+. c #DFA454",
"@. c #DAA659",
"#. c #EEBC4F",
"$. c #F0BE4E",
"%. c #E4A454",
"&. c #E4AA54",
"*. c #EAAE54",
"=. c #E9A55B",
"-. c #E3AE5C",
";. c #EDB455",
":. c #EBB950",
">. c #EFB059",
",. c #F2BA56",
"<. c #F5BC5B",
"1. c #DC9260",
"2. c #EEAB63",
"3. c #F0AD61",
"4. c #EBBC62",
"5. c #F8B76A",
"6. c #FCBB6D",
"7. c #A4C263",
"8. c #B4C269",
"9. c #BCCD6D",
"0. c #BED16F",
"q. c #BFD370",
"w. c #F0C847",
"e. c #F5C84F",
"r. c #FCCF4E",
"t. c #F2C050",
"y. c #FAC354",
"u. c #F7C951",
"i. c #FCCC56",
"p. c #FAC45C",
"a. c #FECB5C",
"s. c #FFD357",
"d. c #FFDE5B",
"f. c #FFE356",
"g. c #FFE15D",
"h. c #FFEE58",
"j. c #FFF05B",
"k. c #C0D26F",
"l. c #C0D470",
"z. c #FAC462",
"x. c #FFD760",
"c. c #FFC271",
"v. c #FFD578",
"b. c #FFE169",
"n. c #FFEC6C",
"m. c #FFF260",
"M. c #FFF965",
"N. c #FFF46F",
"B. c #FFF96F",
"V. c #FFEB74",
"C. c #FFE77A",
"Z. c #FFEB7A",
"A. c #FFF772",
"S. c #FFF97D",
"D. c #B1E0BE",
"F. c #FFF281",
"G. c #9BD4C3",
/* pixels */
"l.l.l.l.l.l.l.l.l.l.l.l.7.7.7.7.l.l.l.l.l.l.l.l.l.l.l.l.7.7.7.7.7.7.7.7.7.7.7.7.7.7.7.7.a a a a ",
"l.l.l.l.l.l.l.l.l.l.l.l.7.7.7.7.l.l.l.l.l.l.l.l.l.l.l.l.7.7.7.7.7.7.7.7.7.7.7.7.7.7.7.7.a a a a ",
"l.l.l.l.l.l.l.l.l.l.l.l.7.7.7.7.l.l.l.l.l.l.l.l.l.l.l.l.7.7.7.7.7.7.7.7.7.7.7.7.7.7.7.7.a a a a ",
"l.l.l.l.l.l.l.l.l.l.l.l.7.7.7.7.l.l.l.l.l.l.l.l.l.l.l.l.7.7.7.7.7.7.7.7.7.7.7.7.7.7.7.7.a a a a ",
"l.l.l.l.l.l.l.l.l.l.l.l.l.l.l.l.l.l.l.l.l.l.l.l.l.l.l.l.l.l.l.l.7.7.7.7.7.7.7.7.7.7.7.7.a a a a ",
"l.l.l.l.l.l.l.l.l.l.l.l.l.l.l.l.l.l.l.l.l.l.l.l.l.l.l.l.l.l.l.l.7.7.7.7.7.7.7.7.7.7.7.7.a a a a ",
"l.l.l.l.l.l.l.l.l.l.l.l.l.l.l.l.l.l.l.l.l.l.l.l.l.l.l.l.l.l.l.l.7.7.7.7.7.7.7.7.7.7.7.7.a a a a ",
"l.l.l.l.l.l.l.l.l.l.l.l.l.l.l.l.l.l.l.l.l.l.l.l.l.l.l.l.l.l.l.l.7.7.7.7.7.7.7.7.7.7.7.7.a a a a ",
"l.l.l.l.l.l.l.l.l.l.l.l.l.l.l.l.l.l.l.l.l.l.l.l.l.l.l.l.7.7.7.7.7.7.7.7.7.7.7.7.7.7.7.7.a a a a ",
"l.l.l.l.l.l.l.l.l.l.l.l.l.l.l.l.l.l.l.l.l.l.l.l.l.l.l.l.7.7.7.7.7.7.7.7.7.7.7.7.7.7.7.7.a a a a ",
"l.l.l.l.l.l.l.l.l.l.l.l.l.l.l.l.l.l.l.l.l.l.l.l.l.l.l.l.7.7.7.7.7.7.7.7.7.7.7.7.7.7.7.7.a a a a ",
"l.l.l.l.l.l.l.l.l.l.l.l.q.9.l.0.l.l.l.l.l.l.l.l.l.l.l.l.7.7.7.7.P P P 7.7.7.7.7.7.7.7.7.a a a a ",
"l.l.l.l.l.l.l.l.l.l.l.q.l.l.l.l.l.k.0.0.k.k.k.k.k.k.k.k.0.0.k.l.7.7.7.7.7.7.7.7.a a a a a a a a ",
"l.l.l.l.l.l.l.l.l.l.l.q.l.l.l.l.l.k.k.k.k.k.k.k.k.k.k.k.k.k.k.l.7.7.7.7.7.7.7.7.a a a a a a a a ",
"l.l.l.l.l.l.l.l.l.k.k.l.9.2 J v l.l.l.l.l.l.l.l.l.l.l.l.l.l.l.l.l t 2 G 7.P P 7.a a a a a a a a ",
"l.l.l.l.l.l.l.l.l.l.l.8.S 9 ] 7 L U U U U U U U U U U U U U U L 7 ] 9 B F 7.7.7.a a a a a a a a ",
"l.l.l.l.l.l.l.l.0.l.l.: w &.y./ 6 $ & & & & & & & & & & & & $ 6 / y.&.w = 7.7.P a a a a a a a a ",
"l.l.l.l.l.l.k.l.0.I A ) <.s.h.i.` u 1.1.1.] ] ] ] ] ] 1.1.1.u ` i.h.s.<.) N D P a a a a a a a a ",
"l.l.l.l.l.l.0.l.l.z 9 p.m.d.g.a.|  .6.6.5.6.6.6.6.6.6.5.6.6. .| a.g.d.m.p.9 < 7.a p a a a a a a ",
"l.l.l.l.l.l.9.l.l.z q a.M.g.<.%.}  .=.=.3.6.c.6.6.c.6.3.=.=. .} %.<.g.M.a.q < 7.a p a a a a a a ",
"l.l.l.l.7.7.7.7.l.v 7 <.m.d.*.` { { ^ Q } 2.2.2.2.2.2.} Q ^ { { ` *.d.m.<.7 k 7.a p a a a a a a ",
"l.l.l.l.7.7.P 7.l.z 7 <.m.g.;.{ { } { { { } } } } } } { { { } { { ;.g.m.<.7 l 7.a p a a a a a a ",
"l.l.l.l.7.7.7.7.l.z 7 ,.j.g.*.` ` { ' ' ` ` Q ` ` Q ` ` ' ' { ` ` *.g.j.,.7 l 7.a p a a a a a a ",
"l.l.l.l.7.7.P 7.l.z 7 z.M.d.;.} } %.| | | %.%.%.%.%.%.| | | %.} } ;.d.M.z.7 k 7.a p a a a a a a ",
"l.l.l.l.l.l.0.l.l.x 7 v.S.d.u.i.i.i.i.i.i.i.i.s.i.i.i.i.i.i.i.i.i.u.d.S.v.7 . a a p a a G.G.G.G.",
"l.l.l.l.l.l.0.l.l.B 5 -.b.V.A.B.B.B.B.B.B.B.N.n.n.N.B.B.B.B.B.B.B.A.V.b.-.5 - a a p a a G.G.G.G.",
"l.l.l.l.l.l.0.l.l.K 3 # O.V.F.C.C.C.C.C.C.C.C.Z.Z.C.C.C.C.C.C.C.C.F.V.O.# 3 1 a a p a a G.G.G.G.",
"l.l.l.l.l.l.0.l.l.Z 5 d f X.[ C C C C _ r V 4.n.x.@.C V _ C C C C [ X.f d 5 , a a p a a G.G.G.G.",
"l.l.l.l.l.l.0.l.l.B 5 / h s @ % O O O + X O o.f.r.R O o + O O O % @ s h / 5 > a a p a a G.G.G.G.",
"l.l.l.l.l.l.0.l.l.B 5 ~ j g R 0 0 0 0 0 8 0 ( u.u.( 0 8 0 0 0 0 0 R g j ~ 5 > a a p a a G.G.G.G.",
"l.l.l.l.l.l.9.l.l.c w *.w...Y 8 8 0 0 0 8 8 y E W y 8 8 0 0 0 8 8 Y ..w.*.w ; a a p a a G.G.G.G.",
"l.l.l.l.l.l.q.l.l.Z 7 } $.X.! T T T T T T T T y y T T T T T T T T ! X.$.} 7 > a a a a a G.G.G.G.",
"7.7.7.7.l.l.l.l.0.9.I 6 { t.e.:.#.#.#.#.#.#.#.#.#.#.#.#.#.#.#.#.:.e.t.{ 4 b i i a a a a G.G.G.G.",
"7.7.7.7.l.l.l.l.0.l.l.v e } >.+.%.%.%.%.%.%.&.&.&.&.%.%.%.%.%.%.+.>.} e   a a i a a a a G.G.G.G.",
"7.7.7.7.l.l.l.l.l.k.l.l.H * 5 * * * * * * * * * * * * * * * * * * 5 * H a a i a a a a a G.G.G.G.",
"7.7.7.7.l.l.l.l.l.k.q.l.P m M m n n n n n n m n n n n n n n n n m M m P a a a a a a a a G.G.G.G.",
"7.7.7.7.7.7.7.7.7.7.7.P 7.7.7.7.7.7.7.7.7.7.7.7.7.7.7.7.7.7.7.7.a a a a i a a a G.G.G.G.G.G.G.G.",
"7.7.7.7.7.7.7.7.7.7.7.7.7.7.7.7.7.7.7.7.7.7.7.7.7.7.7.7.7.7.7.7.a a a a a a a a G.G.G.G.G.G.G.G.",
"7.7.7.7.7.7.7.7.7.7.7.7.7.P P P P P P P P P P P P P P P P P P P p p p a a a a a G.G.G.G.G.G.G.G.",
"7.7.7.7.7.7.7.7.7.7.7.7.7.7.7.7.7.7.7.7.7.7.7.7.7.7.7.7.7.7.7.7.a a a a a a a a G.G.G.G.G.G.G.G.",
"a a a a a a a a 7.7.7.7.7.7.7.7.a a a a a a a a a a a a a a a a a a a a G.G.G.G.G.G.G.G.D.D.D.D.",
"a a a a a a a a 7.7.7.7.7.7.7.7.a a a a a a a a a a a a a a a a a a a a G.G.G.G.G.G.G.G.D.D.D.D.",
"a a a a a a a a 7.7.7.7.7.7.7.7.a a a a a a a a a a a a a a a a a a a a G.G.G.G.G.G.G.G.D.D.D.D.",
"a a a a a a a a 7.7.7.7.7.7.7.7.a a a a a a a a a a a a a a a a a a a a G.G.G.G.G.G.G.G.D.D.D.D.",
"a a a a a a a a a a a a a a a a a a a a a a a a D.D.D.D.D.D.D.D.G.G.G.G.G.G.G.G.G.G.G.G.G.G.G.G.",
"a a a a a a a a a a a a a a a a a a a a a a a a D.D.D.D.D.D.D.D.G.G.G.G.G.G.G.G.G.G.G.G.G.G.G.G.",
"a a a a a a a a a a a a a a a a a a a a a a a a D.D.D.D.D.D.D.D.G.G.G.G.G.G.G.G.G.G.G.G.G.G.G.G.",
"a a a a a a a a a a a a a a a a a a a a a a a a D.D.D.D.D.D.D.D.G.G.G.G.G.G.G.G.G.G.G.G.G.G.G.G."
};
