/* XPM */
static char *_e6fe8d2685b48059d5b27fc1cd0f617PVSSDAZ8SqWzUoGt[] = {
/* columns rows colors chars-per-pixel */
"48 48 153 2 ",
"   c #964C3D",
".  c #984E3E",
"X  c #9D553E",
"o  c #A15A3F",
"O  c #AA6934",
"+  c #BE7F33",
"@  c #905447",
"#  c #9B5241",
"$  c #975B46",
"%  c #9C5C46",
"&  c #88664D",
"*  c #8D7E4E",
"=  c #8F6C50",
"-  c #8F7D52",
";  c #937552",
":  c #927B53",
">  c #9B7D56",
",  c #A96347",
"<  c #A2674D",
"1  c #AB654A",
"2  c #A5694B",
"3  c #AB694A",
"4  c #BC6E42",
"5  c #B26E4B",
"6  c #BD7242",
"7  c #B8704F",
"8  c #BE7552",
"9  c #B57B57",
"0  c #B87E56",
"q  c #B17A60",
"w  c #C57E45",
"e  c #CA7D58",
"r  c #78A158",
"t  c #C5912D",
"y  c #CB8D3E",
"u  c #D8AA37",
"i  c #D7A63E",
"p  c #DBAF3A",
"a  c #DEB13E",
"s  c #8D8253",
"d  c #938154",
"f  c #9A8557",
"g  c #958B56",
"h  c #998854",
"j  c #968558",
"k  c #9A8559",
"l  c #9B8B59",
"z  c #97995A",
"x  c #9E995D",
"c  c #A28957",
"v  c #A18E5B",
"b  c #BD8457",
"n  c #BD8458",
"m  c #A3935E",
"M  c #AB925C",
"N  c #AC985F",
"B  c #9BA75C",
"V  c #9BB25E",
"C  c #9EB85F",
"Z  c #A0A25B",
"A  c #A0A95E",
"S  c #B68062",
"D  c #A69161",
"F  c #A6A461",
"G  c #AAA663",
"H  c #ADA861",
"J  c #A4BF62",
"K  c #B2B667",
"L  c #B1BA67",
"P  c #C68244",
"I  c #C88446",
"U  c #C78A44",
"Y  c #CB8A47",
"T  c #CE8C48",
"R  c #D48C4E",
"E  c #CD9241",
"W  c #D19546",
"Q  c #D7904E",
"!  c #D69C4C",
"~  c #DA9D4A",
"^  c #C08451",
"/  c #C18958",
"(  c #D58B51",
")  c #D98F53",
"_  c #DA8D5D",
"`  c #CA9652",
"'  c #DB9452",
"]  c #DE9A53",
"[  c #E39F53",
"{  c #E69D5B",
"}  c #D8A740",
"|  c #DDAE45",
" . c #D8A04D",
".. c #DEB142",
"X. c #DFA454",
"o. c #DAA659",
"O. c #EEBC4F",
"+. c #F0BE4E",
"@. c #E4A454",
"#. c #E4AA54",
"$. c #EAAE54",
"%. c #E9A55B",
"&. c #E3AE5C",
"*. c #EDB455",
"=. c #EBB950",
"-. c #EFB059",
";. c #F2BA56",
":. c #F5BC5B",
">. c #DC9260",
",. c #EEAB63",
"<. c #F0AD61",
"1. c #EBBC62",
"2. c #F8B76A",
"3. c #FCBB6D",
"4. c #A4C263",
"5. c #B4C269",
"6. c #BCCD6D",
"7. c #BED16F",
"8. c #BFD370",
"9. c #F0C847",
"0. c #F5C84F",
"q. c #FCCF4E",
"w. c #F2C050",
"e. c #FAC354",
"r. c #F7C951",
"t. c #FCCC56",
"y. c #FAC45C",
"u. c #FECB5C",
"i. c #FFD357",
"p. c #FFDE5B",
"a. c #FFE356",
"s. c #FFE15D",
"d. c #FFEE58",
"f. c #FFF05B",
"g. c #C0D26F",
"h. c #C0D470",
"j. c #FAC462",
"k. c #FFD760",
"l. c #FFC271",
"z. c #FFD578",
"x. c #FFE169",
"c. c #FFEC6C",
"v. c #FFF260",
"b. c #FFF965",
"n. c #FFF46F",
"m. c #FFF96F",
"M. c #FFEB74",
"N. c #FFE77A",
"B. c #FFE97A",
"V. c #FFEE7B",
"C. c #FFF772",
"Z. c #FFF97D",
"A. c #FFF281",
/* pixels */
"r r r r 4.4.4.4.4.4.4.4.h.h.h.h.h.h.h.h.h.h.h.h.h.h.h.h.h.h.h.h.h.h.h.h.h.h.h.h.h.h.h.h.h.h.h.h.",
"r r r r 4.4.4.4.4.4.4.4.h.h.h.h.h.h.h.h.h.h.h.h.h.h.h.h.h.h.h.h.h.h.h.h.h.h.h.h.h.h.h.h.h.h.h.h.",
"r r r r 4.4.4.4.4.4.4.4.h.h.h.h.h.h.h.h.h.h.h.h.h.h.h.h.h.h.h.h.h.h.h.h.h.h.h.h.h.h.h.h.h.h.h.h.",
"r r r r 4.4.4.4.4.4.4.4.h.h.h.h.h.h.h.h.h.h.h.h.h.h.h.h.h.h.h.h.h.h.h.h.h.h.h.h.h.h.h.h.h.h.h.h.",
"r r r r r r r r 4.4.4.4.4.4.4.4.h.h.h.h.h.h.h.h.h.h.h.h.h.h.h.h.h.h.h.h.4.4.4.4.h.h.h.h.h.h.h.h.",
"r r r r r r r r 4.4.4.4.4.4.4.4.h.h.h.h.h.h.h.h.h.h.h.h.h.h.h.h.h.h.h.h.4.4.4.4.h.h.h.h.h.h.h.h.",
"r r r r r r r r 4.4.4.4.4.4.4.4.h.h.h.h.h.h.h.h.h.h.h.h.h.h.h.h.h.h.h.h.4.4.4.4.h.h.h.h.h.h.h.h.",
"r r r r r r r r 4.4.4.4.4.4.4.4.h.h.h.h.h.h.h.h.h.h.h.h.h.h.h.h.h.h.h.h.4.4.4.4.h.h.h.h.h.h.h.h.",
"r r r r r r r r 4.4.4.4.4.4.4.4.4.4.4.4.h.h.h.h.h.h.h.h.h.h.h.h.h.h.h.h.h.h.h.h.h.h.h.h.h.h.h.h.",
"r r r r r r r r 4.4.4.4.4.4.4.4.4.4.4.4.h.h.h.h.h.h.h.h.h.h.h.h.h.h.h.h.h.h.h.h.h.h.h.h.h.h.h.h.",
"r r r r r r r r 4.4.4.4.4.4.4.4.4.4.4.4.h.h.h.h.h.h.h.h.h.h.h.h.h.h.h.h.h.h.h.h.h.h.h.h.h.h.h.h.",
"r r r r r r r r 4.4.4.4.4.J J J 4.4.4.4.h.h.h.h.h.h.h.h.h.h.h.h.7.h.6.8.h.h.h.h.h.h.h.h.h.h.h.h.",
"r r r r r r r r 4.4.4.4.4.4.4.4.h.g.7.7.g.g.g.g.g.g.g.g.7.7.g.h.h.h.h.h.8.h.h.h.h.h.h.h.h.h.h.h.",
"r r r r r r r r 4.4.4.4.4.4.4.4.h.g.g.g.g.g.g.g.g.g.g.g.g.g.g.h.h.h.h.h.8.h.h.h.h.h.h.h.h.h.h.h.",
"r r r r r r r r 4.J J 4.C ; q d h.h.h.h.h.h.h.h.h.h.h.h.h.h.h.h.l S > 6.h.g.g.h.h.h.h.h.h.h.h.h.",
"r r r r r r r r 4.4.4.V v 5 _ 3 H L L L L L L L L L L L L L L H 3 _ 5 N 5.h.h.h.h.h.h.h.h.h.h.h.",
"r r r r 4.4.4.4.J 4.4.& 8 #.e.! 2 @ $ $ $ $ $ $ $ $ $ $ $ $ @ 2 ! e.#.8 = h.h.7.h.h.h.h.h.h.h.h.",
"r r r r 4.4.4.4.J B c ^ :.i.d.t.( e >.>.>._ _ _ _ _ _ >.>.>.e ( t.d.i.:.^ M K 7.h.g.h.h.h.h.h.h.",
"r r r r 4.4.J 4.4.- 5 y.v.p.s.u.[ { 3.3.2.3.3.3.3.3.3.2.3.3.{ [ u.s.p.v.y.5 l h.h.7.h.h.h.h.h.h.",
"r r r r 4.4.J 4.4.- 7 u.b.s.:.@.] { %.%.<.3.l.3.3.l.3.<.%.%.{ ] @.:.s.b.u.7 f h.h.6.h.h.h.h.h.h.",
"r r r r 4.4.J 4.4.s 3 :.v.p.$.( ' ' Q R ] ,.,.,.,.,.,.] R Q ' ' ( $.p.v.:.3 l h.h.7.h.h.h.h.h.h.",
"r r r r 4.4.J 4.4.d 3 :.v.s.*.' ' ] ' ' ' ] ] ] ] ] ] ' ' ' ] ' ' *.s.v.:.3 l h.h.7.h.h.h.h.h.h.",
"r r r r 4.4.J 4.4.d 3 ;.f.s.$.( ( ' ) ) ( ( R ( ( R ( ( ) ) ' ( ( $.s.f.;.3 l h.h.7.h.h.h.h.h.h.",
"r r r r 4.4.J 4.4.s 3 j.b.p.*.] ] @.[ [ [ @.@.@.@.@.@.[ [ [ @.] ] *.p.b.j.3 l h.h.7.h.h.h.h.h.h.",
"r r r r 4.4.J 4.4.* 3 z.Z.p.r.t.t.t.t.t.t.t.t.i.t.t.t.t.t.t.t.t.t.r.p.Z.z.3 h h.h.7.h.h.h.h.h.h.",
"r r r r 4.4.J 4.4.d 1 &.x.M.C.m.m.m.m.m.m.m.n.c.c.n.m.m.m.m.m.m.m.C.M.x.&.1 v h.h.7.h.h.h.h.h.h.",
"r r r r 4.4.J 4.4.l , + ..M.A.N.N.N.N.B.N.N.B.V.V.B.N.N.N.N.N.N.N.A.M...+ , D h.h.7.h.h.h.h.h.h.",
"r r r r 4.4.J 4.4.k 1 y u | ` n n n n / 0 b 1.c.k.o.n b / n n n n ` | u y 1 m h.h.7.h.h.h.h.h.h.",
"r r r r 4.4.J 4.4.j 1 ! p t O # X X X o   X  .a.q.U X . o X X X # O t p ! 1 v h.h.7.h.h.h.h.h.h.",
"r r r r 4.4.J 4.4.j 1 W a i U 6 6 6 6 6 4 6 ~ r.r.~ 6 4 6 6 6 6 6 U i a W 1 v h.h.7.h.h.h.h.h.h.",
"r r r r 4.4.J 4.4.: 8 $.9.} P 4 4 6 6 6 4 4 w Y T w 4 4 6 6 6 4 4 P } 9.$.8 k h.h.6.h.h.h.h.h.h.",
"r r r r 4.4.J 4.4.g 3 ] +.| E I I I I I I I I w w I I I I I I I I E | +.] 3 m h.h.8.h.h.h.h.h.h.",
"r r r r r r r r J J A < ' w.0.=.O.O.O.O.O.O.O.O.O.O.O.O.O.O.O.O.=.0.w.' < K 6.7.h.h.h.h.h.h.h.h.",
"r r r r r r r r J 4.4.s 9 ] -.X.@.@.@.@.@.@.#.#.#.#.@.@.@.@.@.@.X.-.] 9 l h.h.7.h.h.h.h.h.h.h.h.",
"r r r r r r r r 4.J 4.4.Z % 1 % % % % % % % % % % % % % % % % % % 1 % K h.h.g.h.h.h.h.h.h.h.h.h.",
"r r r r r r r r 4.4.4.4.J z x z F F F F F F F F F F F F F F F F G G G 7.h.8.g.h.h.h.h.h.h.h.h.h.",
"r r r r r r r r 4.4.4.J 4.4.4.4.h.h.h.h.h.h.h.h.h.h.h.h.h.h.h.h.h.h.h.h.7.h.h.h.h.h.h.h.h.h.h.h.",
"r r r r r r r r 4.4.4.4.4.4.4.4.h.h.h.h.h.h.h.h.h.h.h.h.h.h.h.h.h.h.h.h.h.h.h.h.h.h.h.h.h.h.h.h.",
"r r r r r r r r 4.4.4.4.4.J J J 7.7.7.7.7.7.7.7.7.7.7.7.7.7.7.7.7.7.7.h.h.h.h.h.h.h.h.h.h.h.h.h.",
"r r r r r r r r 4.4.4.4.4.4.4.4.h.h.h.h.h.h.h.h.h.h.h.h.h.h.h.h.h.h.h.h.h.h.h.h.h.h.h.h.h.h.h.h.",
"r r r r 4.4.4.4.4.4.4.4.4.4.4.4.4.4.4.4.h.h.h.h.h.h.h.h.4.4.4.4.h.h.h.h.h.h.h.h.h.h.h.h.h.h.h.h.",
"r r r r 4.4.4.4.4.4.4.4.4.4.4.4.4.4.4.4.h.h.h.h.h.h.h.h.4.4.4.4.h.h.h.h.h.h.h.h.h.h.h.h.h.h.h.h.",
"r r r r 4.4.4.4.4.4.4.4.4.4.4.4.4.4.4.4.h.h.h.h.h.h.h.h.4.4.4.4.h.h.h.h.h.h.h.h.h.h.h.h.h.h.h.h.",
"r r r r 4.4.4.4.4.4.4.4.4.4.4.4.4.4.4.4.h.h.h.h.h.h.h.h.4.4.4.4.h.h.h.h.h.h.h.h.h.h.h.h.h.h.h.h.",
"r r r r 4.4.4.4.4.4.4.4.4.4.4.4.h.h.h.h.h.h.h.h.h.h.h.h.h.h.h.h.h.h.h.h.h.h.h.h.h.h.h.h.h.h.h.h.",
"r r r r 4.4.4.4.4.4.4.4.4.4.4.4.h.h.h.h.h.h.h.h.h.h.h.h.h.h.h.h.h.h.h.h.h.h.h.h.h.h.h.h.h.h.h.h.",
"r r r r 4.4.4.4.4.4.4.4.4.4.4.4.h.h.h.h.h.h.h.h.h.h.h.h.h.h.h.h.h.h.h.h.h.h.h.h.h.h.h.h.h.h.h.h.",
"r r r r 4.4.4.4.4.4.4.4.4.4.4.4.h.h.h.h.h.h.h.h.h.h.h.h.h.h.h.h.h.h.h.h.h.h.h.h.h.h.h.h.h.h.h.h."
};
