/* XPM */
static char *ac1bfa6867ed4967a1d44875f944e4525PAKhgECUgrj4dUx[] = {
/* columns rows colors chars-per-pixel */
"48 48 148 2 ",
"   c #6D3D49",
".  c #734446",
"X  c #774845",
"o  c #7A4A45",
"O  c #704048",
"+  c #6F6C4B",
"@  c #7E734F",
"#  c #7E7250",
"$  c #7C7C51",
"%  c #8E5F3D",
"&  c #97643B",
"*  c #AF7D37",
"=  c #854C46",
"-  c #914B44",
";  c #845542",
":  c #8C5446",
">  c #895941",
",  c #9A5545",
"<  c #9D5C46",
"1  c #9E5D48",
"2  c #A15E47",
"3  c #A05D48",
"4  c #9D634C",
"5  c #9F6C4F",
"6  c #916E51",
"7  c #8A7556",
"8  c #9B7452",
"9  c #A46146",
"0  c #A96446",
"q  c #A66E47",
"w  c #AA6947",
"e  c #A6634A",
"r  c #AC634C",
"t  c #AD694A",
"y  c #B36643",
"u  c #B56C44",
"i  c #B86D42",
"p  c #A77048",
"a  c #BE7443",
"s  c #B17148",
"d  c #B67A49",
"f  c #BB7F49",
"g  c #AB6B52",
"h  c #B16650",
"j  c #A27051",
"k  c #AA7553",
"l  c #AE7951",
"z  c #AC7958",
"x  c #C07743",
"c  c #C47B42",
"v  c #C87F42",
"b  c #C27554",
"n  c #C07B50",
"m  c #7F8153",
"M  c #799756",
"N  c #769E57",
"B  c #799E57",
"V  c #799F59",
"C  c #78A158",
"Z  c #BE8C2E",
"A  c #BE8C33",
"S  c #BD8339",
"D  c #C5942F",
"F  c #CE9E2E",
"G  c #D29F2D",
"H  c #C18E30",
"J  c #C4883B",
"K  c #C09130",
"L  c #CC9A31",
"P  c #D09F38",
"I  c #D6A639",
"U  c #ECB73D",
"Y  c #848D55",
"T  c #9D8656",
"R  c #8D9256",
"E  c #959659",
"W  c #9A945D",
"Q  c #979959",
"!  c #9C9C5C",
"~  c #BD8241",
"^  c #BB804A",
"/  c #A78F5B",
"(  c #9AA35C",
")  c #9FB55F",
"_  c #A1AE5F",
"`  c #A59F60",
"'  c #A6A461",
"]  c #AAA564",
"[  c #A1AF62",
"{  c #ACAD64",
"}  c #AFB466",
"|  c #A4BF63",
" . c #B7BE6B",
".. c #C68344",
"X. c #C98446",
"o. c #C88841",
"O. c #C1874B",
"+. c #C4884E",
"@. c #CE8F4E",
"#. c #D08F40",
"$. c #D08F49",
"%. c #C69442",
"&. c #CF9349",
"*. c #D39142",
"=. c #D2944A",
"-. c #D69F4E",
";. c #D99D4A",
":. c #D18B55",
">. c #D19453",
",. c #D19857",
"<. c #DC9C52",
"1. c #DBA34B",
"2. c #DEA354",
"3. c #E4B542",
"4. c #E6B845",
"5. c #EDBC4F",
"6. c #E3A755",
"7. c #E7AB54",
"8. c #EBAB56",
"9. c #E6A45C",
"0. c #EEAE58",
"q. c #E8B750",
"w. c #ECBA51",
"e. c #EDB45A",
"r. c #F2BE53",
"t. c #F1B35C",
"y. c #FBBB5B",
"u. c #A4C263",
"i. c #B6C36A",
"p. c #BCCD6E",
"a. c #BFD16F",
"s. c #BFD370",
"d. c #F4C54F",
"f. c #EFC250",
"g. c #F5C551",
"h. c #F7C951",
"j. c #FBCD51",
"k. c #F9C35D",
"l. c #FFD753",
"z. c #FFD95C",
"x. c #FFE759",
"c. c #FFE15C",
"v. c #FFEB5D",
"b. c #FFEC5D",
"n. c #FFF35D",
"m. c #C0D06F",
"M. c #C0D470",
"N. c #FFD462",
/* pixels */
"C C C C C C C C C C C C C C V C C C C C C C C C C C C C C C C C C V C C C C C C C C C C C C C C ",
"C C C C C C C C C C C C C B C C $ 7 @ @ # # # # # # # # @ @ 7 $ C C B C C C C C C C C C C C C C ",
"C C C C C C C C C C C C C C N Y e b t t t t t t t t t t t t b e Y N C C C C C C C C C C C C C C ",
"C C C C C C C C C C C V C C + g e.N.k.k.k.k.k.k.k.k.k.k.k.k.N.e.g + C C V C C C C C C C C C C C ",
"u.u.u.u.u.u.u.u.u.u.u.| M Y k 9.z.n.v.b.b.b.b.b.b.b.b.b.b.v.n.z.9.l ! ) | u.u.u.u.u.u.u.C C C C ",
"u.u.u.u.u.u.u.u.u.| u.u.$ < e.c.h.5.g.g.g.g.g.g.g.g.g.g.g.g.5.h.c.e.< E u.u.| u.u.u.u.u.C C C C ",
"u.u.u.u.u.u.u.u.u.| u.u.$ e t.x.j.1.f d ^ f f f f f f ^ d f 1.j.x.t.e E u.u.| u.u.u.u.u.C C C C ",
"u.u.u.u.u.u.u.u.u.| u.u.m 1 <.g.w.O., , 2 3 3 3 3 3 3 2 , , O.w.g.<.1 Q u.u.| u.u.u.u.u.C C C C ",
"u.u.u.u.u.u.u.u.u.| u.u.E < 6.w.f < 3 u a i i i i i i a u 3 < f w.6.< E u.u.| u.u.u.u.u.u.u.u.u.",
"u.u.u.u.u.u.u.u.u.| u.u.E < 7.q.w - 0 u a v v v v v v a u 0 - w q.7.< E u.u.| u.u.u.u.u.u.u.u.u.",
"u.u.u.u.u.u.u.u.u.| u.u.E < 8.w.s , 9 < 0 a x a a x a 0 < 9 , s w.8.< E u.u.| u.u.u.u.u.u.u.u.u.",
"u.u.u.u.u.u.u.u.u.| u.u.E r y.f.w - 9 3 3 0 0 0 0 0 0 3 3 9 - w f.y.r E u.u.| u.u.u.u.u.u.u.u.u.",
"M.M.M.M.u.u.u.u.u.u.u.u.( 8 ,.2.+.w 9 9 9 3 3 3 3 3 3 9 9 9 w +.2.,.8 } u.u.u.u.M.M.M.M.M.M.M.M.",
"M.M.M.M.u.u.u.u.u.u.u.| u.u.6 n w.-.3 < 9 9 3 9 9 3 9 9 < 3 -.w.n 8 s.M.| u.u.u.M.M.M.M.M.M.M.M.",
"M.M.M.M.u.u.u.u.u.u.u.u.[ T q J U %.= = : : : : : : : : = = %.U J p /  .u.u.u.u.M.M.M.M.M.M.M.M.",
"M.M.M.M.u.u.u.u.u.| u.u.W r *.F Z & . O X X X X X X X X O . & Z F *.r ] u.u.| u.M.M.M.M.M.M.M.M.",
"M.M.M.M.M.M.M.M.M.a.M.M.] 3 *.K % X X X X X X X X X X X X X X % K *.3 ] M.M.a.M.M.M.M.M.M.M.M.M.",
"M.M.M.M.M.M.M.M.M.a.M.M.] 1 #.A o   X o X X X X X X X X o o   o A #.1 ] M.M.a.M.M.M.M.M.M.M.M.M.",
"M.M.M.M.M.M.M.M.M.a.M.M.] 1 #.A > O X X X X X X X X X X X X O > A #.1 ] M.M.a.M.M.M.M.M.M.M.M.M.",
"M.M.M.M.M.M.M.M.M.a.M.M.] 1 #.A > O X X X X X X X X X X X X O > A #.1 ] M.M.a.M.M.M.M.M.M.M.M.M.",
"M.M.M.M.M.M.M.M.M.a.M.M.] 1 *.A ;   X X X X X X X X X X o X   ; A *.1 ] M.M.a.M.M.M.M.M.M.M.M.M.",
"M.M.M.M.M.M.M.M.M.a.M.M.] 1 *.A ;   X X X X X X X X X X o X   ; A *.1 ] M.M.a.M.M.M.M.M.M.M.M.M.",
"M.M.M.M.M.M.M.M.M.a.M.M.] 3 o.D * >     O             O     > * D o.3 ] M.M.a.M.M.M.M.M.M.M.M.M.",
"M.M.M.M.M.M.M.M.M.a.M.M.] 3 ..F G * > ; > > > > > > > > ; > * G F ..3 ] M.M.a.M.M.M.M.M.M.M.M.M.",
"M.M.M.M.M.M.M.M.M.a.M.M.] < $.I L H A A A A A A A A A A A A H L I $.< ] u.u.| u.M.M.M.M.M.M.M.M.",
"M.M.M.M.M.M.M.M.M.a.M.M.] < <.4.P A S S S S S S S S S S S S A P 4.<.< ] u.u.| u.M.M.M.M.M.M.M.M.",
"M.M.M.M.M.M.M.M.M.a.M.M.] < 2.d.3.~ 3 < 3 3 3 3 3 3 3 3 < 3 ~ 3.d.2.< ] u.u.| u.M.M.M.M.M.M.M.M.",
"M.M.M.M.M.M.M.M.M.a.M.M.] < <.j.d.&.y y u u u u u u u u y y &.d.j.<.< ] u.u.| u.M.M.M.M.M.M.M.M.",
"M.M.M.M.M.M.M.M.M.a.M.M.Q 1 <.h.g.1.x x v c c c c c c v x x 1.h.h.<.1 ] M.M.a.M.M.M.M.M.M.M.M.M.",
"M.M.M.M.M.M.M.M.M.a.M.M.Q 1 <.h.h.;.a a x x x x x x x x a a ;.h.h.<.1 ] M.M.a.M.M.M.M.M.M.M.M.M.",
"M.M.M.M.M.M.M.M.M.a.M.M.E r 8.l.g.=.y y i i i i i i i i y y =.g.l.8.r ` M.M.a.M.M.M.M.M.M.M.M.M.",
"M.M.M.M.M.M.M.M.M.M.M.s.! 4 >.r.h.1.X...X.X.X.X.X.X.X.X...X.1.h.r.>.4 { s.M.M.M.M.M.M.M.M.M.M.M.",
"M.M.M.M.M.M.M.M.u.u.u.| | _ 5 :.r.j.5.5.5.5.5.5.5.5.5.5.5.5.j.r.:.j  .p.| u.u.u.u.u.u.u.u.u.u.u.",
"M.M.M.M.M.M.M.M.u.u.u.| u.u.R k @.0.6.6.6.6.6.6.6.6.6.6.6.6.0.@.z ! M.M.| u.u.u.u.u.u.u.u.u.u.u.",
"M.M.M.M.M.M.M.M.u.u.u.u.u.| u.) 4 h < < < < < < < < < < < < h 4 i.M.m.a.u.u.u.u.u.u.u.u.u.u.u.u.",
"M.M.M.M.M.M.M.M.u.u.u.u.u.u.u.u.( ! E E E E E E ' ' ' ' ' ' ] { M.M.a.s.u.u.u.u.u.u.u.u.u.u.u.u.",
"u.u.u.u.u.u.u.u.u.u.u.u.u.u.| u.u.u.u.u.u.u.u.u.u.u.u.u.u.u.u.u.u.| u.u.u.u.u.u.u.u.u.u.u.u.u.u.",
"u.u.u.u.u.u.u.u.u.u.u.u.u.u.u.u.u.u.u.u.u.u.u.u.u.u.u.u.u.u.u.u.u.u.u.u.u.u.u.u.u.u.u.u.u.u.u.u.",
"u.u.u.u.u.u.u.u.u.u.u.u.u.u.u.u.u.| | | | | | | | | | | | | | u.u.u.u.u.u.u.u.u.u.u.u.u.u.u.u.u.",
"u.u.u.u.u.u.u.u.u.u.u.u.u.u.u.u.u.u.u.u.u.u.u.u.u.u.u.u.u.u.u.u.u.u.u.u.u.u.u.u.u.u.u.u.u.u.u.u.",
"u.u.u.u.u.u.u.u.C C C C C C C C C C C C u.u.u.u.u.u.u.u.u.u.u.u.u.u.u.u.u.u.u.u.C C C C C C C C ",
"u.u.u.u.u.u.u.u.C C C C C C C C C C C C u.u.u.u.u.u.u.u.u.u.u.u.u.u.u.u.u.u.u.u.C C C C C C C C ",
"u.u.u.u.u.u.u.u.C C C C C C C C C C C C u.u.u.u.u.u.u.u.u.u.u.u.u.u.u.u.u.u.u.u.C C C C C C C C ",
"u.u.u.u.u.u.u.u.C C C C C C C C C C C C u.u.u.u.u.u.u.u.u.u.u.u.u.u.u.u.u.u.u.u.C C C C C C C C ",
"C C C C C C C C C C C C C C C C C C C C C C C C C C C C C C C C C C C C C C C C C C C C C C C C ",
"C C C C C C C C C C C C C C C C C C C C C C C C C C C C C C C C C C C C C C C C C C C C C C C C ",
"C C C C C C C C C C C C C C C C C C C C C C C C C C C C C C C C C C C C C C C C C C C C C C C C ",
"C C C C C C C C C C C C C C C C C C C C C C C C C C C C C C C C C C C C C C C C C C C C C C C C "
};
