/* XPM */
static char *_7bb1efd83b140509070626e09804d56yxDDIA5YAtEV04X7[] = {
/* columns rows colors chars-per-pixel */
"48 48 135 2 ",
"   c #673644",
".  c #6B3B43",
"X  c #6E3E48",
"o  c #703F43",
"O  c #6F4044",
"+  c #744444",
"@  c #7B4B45",
"#  c #704048",
"$  c #90603E",
"%  c #9A6A3B",
"&  c #855542",
"*  c #975345",
"=  c #9A5746",
"-  c #935845",
";  c #9E5C46",
":  c #9B5649",
">  c #945A4B",
",  c #A15E47",
"<  c #96644E",
"1  c #98644E",
"2  c #9F6E49",
"3  c #9A6753",
"4  c #9D6A54",
"5  c #8F7051",
"6  c #9B7253",
"7  c #9B7B53",
"8  c #AB6546",
"9  c #A5604A",
"0  c #AD644D",
"q  c #B16240",
"w  c #B66B44",
"e  c #BB6F42",
"r  c #B26D4B",
"t  c #A8774F",
"y  c #BC7443",
"u  c #BE7949",
"i  c #AB6D57",
"p  c #AC6E58",
"a  c #AF7951",
"s  c #C07743",
"d  c #C37C44",
"f  c #C47D4A",
"g  c #78A158",
"h  c #BB842B",
"j  c #BD8537",
"k  c #BE8C33",
"l  c #BD8339",
"z  c #C28E34",
"x  c #C69133",
"c  c #CA9534",
"v  c #CB973F",
"b  c #C7983F",
"n  c #D39F3C",
"m  c #D5A42D",
"M  c #D2A233",
"N  c #D3A23E",
"B  c #DBAD3D",
"V  c #9D8D54",
"C  c #9F8C58",
"Z  c #959759",
"A  c #99975B",
"S  c #96985A",
"D  c #9E995D",
"F  c #B5844A",
"G  c #A59E5E",
"H  c #A89D5F",
"J  c #9BAD5E",
"K  c #9AB55E",
"L  c #A3A35E",
"P  c #A1B45F",
"I  c #A5A461",
"U  c #A9A563",
"Y  c #A8A963",
"T  c #A4BF63",
"R  c #C78145",
"E  c #C98446",
"W  c #CF8D46",
"Q  c #C88D4B",
"!  c #CA9E48",
"~  c #C38252",
"^  c #C98452",
"/  c #C28C5B",
"(  c #C49651",
")  c #C69952",
"_  c #C99B52",
"`  c #D79652",
"'  c #DB9058",
"]  c #DEAA4C",
"[  c #CDA25C",
"{  c #E2AB4D",
"}  c #E4B14C",
"|  c #E9B54F",
" . c #EEBC4F",
".. c #E4A755",
"X. c #E7AE51",
"o. c #E9AB56",
"O. c #E7AB59",
"+. c #E8AD59",
"@. c #ECB751",
"#. c #EDBB53",
"$. c #EEB35C",
"%. c #C69266",
"&. c #DD9861",
"*. c #D3AD6E",
"=. c #A4C263",
"-. c #BCCC6E",
";. c #BED06E",
":. c #BFD370",
">. c #F0C347",
",. c #FFD54E",
"<. c #F4C452",
"1. c #F9C751",
"2. c #FBCD52",
"3. c #F4C158",
"4. c #FED253",
"5. c #FFDA56",
"6. c #FFD35F",
"7. c #FFDA5A",
"8. c #FFE45E",
"9. c #FFEC5E",
"0. c #FFF15F",
"q. c #C0D26F",
"w. c #C1D370",
"e. c #C0D470",
"r. c #FFD867",
"t. c #F6C073",
"y. c #FFE262",
"u. c #FFE564",
"i. c #FFEA62",
"p. c #FFEE60",
"a. c #FFF060",
"s. c #FFF36D",
"d. c #FFEB77",
"f. c #FFF971",
"g. c #FFF981",
/* pixels */
"e.e.e.e.e.e.e.e.e.e.e.e.e.e.e.e.e.e.e.e.e.e.e.e.e.e.e.e.e.e.e.e.e.e.e.e.e.e.e.e.e.e.e.e.e.e.e.e.",
"e.e.e.e.e.e.e.e.e.e.e.e.e.e.e.e.e.e.e.e.e.e.e.e.e.e.e.e.e.e.e.e.e.e.e.e.e.e.e.e.e.e.e.e.e.e.e.e.",
"e.e.e.e.e.e.e.e.e.e.e.e.e.e.e.e.e.e.e.e.e.e.e.e.e.e.e.e.e.e.e.e.e.e.e.e.e.e.e.e.e.e.e.e.e.e.e.e.",
"e.e.e.e.e.e.e.e.e.e.e.e.e.e.e.e.e.e.e.e.e.e.e.e.e.e.e.e.e.e.e.e.e.e.e.e.e.e.e.e.e.e.e.e.e.e.e.e.",
"e.e.e.e.e.e.e.e.e.e.e.e.e.e.e.e.e.e.e.e.e.e.e.e.e.e.e.e.e.e.e.e.e.e.e.e.e.e.e.e.e.e.e.e.e.e.e.e.",
"e.e.e.e.e.e.e.e.e.e.e.e.e.e.e.e.e.e.e.e.e.e.e.e.e.e.e.e.e.e.e.e.e.e.e.e.e.e.e.e.e.e.e.e.e.e.e.e.",
"e.e.e.e.e.e.e.e.e.e.e.e.e.e.e.e.e.e.e.e.e.e.e.e.e.e.e.e.e.e.e.e.e.e.e.e.e.e.e.e.e.e.e.e.e.e.e.e.",
"e.e.e.e.e.e.e.e.e.e.e.e.e.e.:.w.w.:.e.e.e.e.e.e.e.e.e.e.e.e.:.w.w.:.e.e.e.e.e.e.e.e.e.e.e.e.e.e.",
"e.e.e.e.e.e.e.e.e.e.e.e.e.e.;.;.;.;.e.e.e.e.e.e.e.e.e.e.e.e.;.;.;.;.e.e.e.e.e.e.e.e.e.e.e.e.e.e.",
"e.e.e.e.e.e.e.e.e.e.e.e.w.;.e.e.e.e.;.;.:.;.;.;.;.;.;.:.;.;.e.e.e.e.;.w.e.e.e.e.e.e.e.e.e.e.e.e.",
"e.e.e.e.e.e.e.e.e.e.e.:.e.e.;.-.-.;.e.e.e.e.e.e.e.e.e.e.e.e.;.-.-.;.e.e.:.e.e.e.e.e.e.e.e.e.e.e.",
"e.e.e.e.e.e.e.e.e.e.e.-.e.e.G i p H e.e.e.e.e.e.e.e.e.e.e.e.H p i G e.e.-.e.e.e.e.e.e.e.e.e.e.e.",
"e.e.e.e.e.e.e.e.e.:.e.e.;.L a ' ' t I L G I I I I I I G L I t ' ' a I ;.e.e.:.e.e.e.e.e.e.e.e.e.",
"e.e.e.e.e.e.e.e.e.;.e.e.Y = ` <.<.Q = * ; ; ; ; ; ; ; ; * = Q <.<.` = Y e.e.;.e.e.e.e.e.e.e.e.e.",
"e.e.e.e.e.e.e.w.;.q.;.V %.t.r.,.4.3.O.O.+.+.+.$.$.$.+.+.O.O.3.5.5.6.$./ C ;.q.;.w.e.e.e.e.e.e.e.",
"e.e.e.e.e.e.e.w.-.e.-.- &.d.f.y.u.i.a.a.a.a.p.9.8.9.a.a.a.a.8.8.8.9.7.' > -.e.-.w.e.e.e.e.e.e.e.",
"=.=.=.=.e.e.e.w.;.e.-.3 f N y.g.g.s.9.9.9.9.9.7.<.4.0.0.9.9.9.p.p.,.n f 3 -.e.;.=.=.=.=.e.e.e.e.",
"=.=.=.=.e.e.e.w.;.e.-.4 y h ! *.*.[ _ _ ( ) #.5.2.] ) ) _ _ _ _ _ b h y 4 -.e.;.=.=.=.=.e.e.e.e.",
"=.=.=.=.e.e.e.w.;.e.-.3 f c % . o + + @ . # F 1.1.F O   @ + + # . % c d 3 -.e.;.=.=.=.=.e.e.e.e.",
"=.=.=.=.e.e.e.w.;.e.-.3 f c %     o . o . . & 2 2 & .   o . + .   % c d 3 -.e.;.=.=.=.=.e.e.e.e.",
"e.e.e.e.e.e.e.w.;.e.-.3 d c % # @ & @ @ & @ +     + @ & @ @ & @ # % c d 3 -.e.;.w.e.e.e.e.e.e.e.",
"e.e.e.e.e.e.e.w.;.e.-.3 d c % X + @ @ @ @ @ @ @ @ @ @ @ @ @ @ + X % c d 3 -.e.;.w.e.e.e.e.e.e.e.",
"e.e.e.e.e.e.e.w.;.e.-.3 u x k % + . # # X X # # # # X X # # . + % k x u 3 -.e.;.w.e.e.e.e.e.e.e.",
"e.e.e.e.e.e.e.w.;.e.-.4 u x m z $ @ & & & & & & & & & & & & @ $ z m x u 4 -.e.;.w.e.e.e.e.e.e.e.",
"e.e.e.e.e.e.e.w.;.e.-.3 f n M x k k k k k k k k k k k k k k k k x M n f 3 -.e.;.w.e.e.e.e.e.e.e.",
"e.e.e.e.e.e.e.w.;.e.-.1 ^ } B z j l l l l l l l l l l l l l l j z B } ^ 1 -.e.;.w.e.e.e.e.e.e.e.",
"e.e.e.e.e.e.e.w.;.e.-.< ^ #.>.v 8 : , , , , , , , , , , , , : 8 v >.#.^ < -.e.;.w.e.e.e.e.e.e.e.",
"e.e.e.e.e.e.e.w.;.e.-.< ^ #.2.] y 8 w w w w w w w w w w w w 8 y ] 2.#.^ < -.e.;.w.e.e.e.e.e.e.e.",
"e.e.e.e.=.=.=.=.;.e.-.< ^ @.4.| E y d d d d d d d d d d d d y E | 4.@.^ < -.e.;.w.e.e.e.=.=.=.=.",
"e.e.e.e.=.=.=.=.;.e.-.< ^ @.4.} R e s s s s s s s s s s s s e R } 4.@.^ < -.e.;.w.e.e.e.=.=.=.=.",
"e.e.e.e.=.=.=.=.-.e.-.> ' <.4.{ y q w w w w w w w w w w w w q y { 4.<.' > -.e.-.w.e.e.e.=.=.=.=.",
"e.e.e.e.=.=.=.=.;.w.-.6 ~ X.2.| W d E E E E E E E E E E E E d W | 2.X.~ 6 -.w.;.w.e.e.e.=.=.=.=.",
"=.=.=.=.=.=.=.=.=.T =.P C r o.2.<.|  . . . . . . . . . . . .| <.2.o.r C P =.T =.=.=.=.=.=.=.=.=.",
"=.=.=.=.=.=.=.=.=.=.=.=.K 5 ~ o.o.............................o.o.~ 5 K =.=.=.=.=.=.=.=.=.=.=.=.",
"=.=.=.=.=.=.=.=.=.=.=.T =.=.7 0 9 ; ; ; ; ; ; ; ; ; ; ; ; ; ; 9 0 7 =.=.T =.=.=.=.=.=.=.=.=.=.=.",
"=.=.=.=.=.=.=.=.=.=.=.T =.=.J D U U I I I I I I I I I I Z Z S A D J =.=.T =.=.=.=.=.=.=.=.=.=.=.",
"=.=.=.=.=.=.=.=.=.=.=.=.=.T =.=.=.=.=.=.=.=.=.=.=.=.=.=.=.=.=.=.=.=.T =.=.=.=.=.=.=.=.=.=.=.=.=.",
"=.=.=.=.=.=.=.=.=.=.=.=.=.=.=.=.=.=.=.=.=.=.=.=.=.=.=.=.=.=.=.=.=.=.=.=.=.=.=.=.=.=.=.=.=.=.=.=.",
"=.=.=.=.=.=.=.=.=.=.=.=.=.=.=.T T T T T T T T T T T T T T T T T T =.=.=.=.=.=.=.=.=.=.=.=.=.=.=.",
"=.=.=.=.=.=.=.=.=.=.=.=.=.=.=.=.=.=.=.=.=.=.=.=.=.=.=.=.=.=.=.=.=.=.=.=.=.=.=.=.=.=.=.=.=.=.=.=.",
"g g g g g g g g g g g g =.=.=.=.=.=.=.=.=.=.=.=.=.=.=.=.=.=.=.=.g g g g g g g g g g g g =.=.=.=.",
"g g g g g g g g g g g g =.=.=.=.=.=.=.=.=.=.=.=.=.=.=.=.=.=.=.=.g g g g g g g g g g g g =.=.=.=.",
"g g g g g g g g g g g g =.=.=.=.=.=.=.=.=.=.=.=.=.=.=.=.=.=.=.=.g g g g g g g g g g g g =.=.=.=.",
"g g g g g g g g g g g g =.=.=.=.=.=.=.=.=.=.=.=.=.=.=.=.=.=.=.=.g g g g g g g g g g g g =.=.=.=.",
"g g g g g g g g g g g g g g g g g g g g g g g g g g g g g g g g g g g g g g g g g g g g g g g g ",
"g g g g g g g g g g g g g g g g g g g g g g g g g g g g g g g g g g g g g g g g g g g g g g g g ",
"g g g g g g g g g g g g g g g g g g g g g g g g g g g g g g g g g g g g g g g g g g g g g g g g ",
"g g g g g g g g g g g g g g g g g g g g g g g g g g g g g g g g g g g g g g g g g g g g g g g g "
};
