/* XPM */
static char *dc58c4126d2c4676900299b549450f1aGE0beeCR4Paiw0eJ[] = {
/* columns rows colors chars-per-pixel */
"48 48 141 2 ",
"   c #673644",
".  c #6B3B43",
"X  c #6E3E48",
"o  c #703F43",
"O  c #6F4044",
"+  c #744444",
"@  c #7B4B45",
"#  c #704048",
"$  c #90603E",
"%  c #9A6A3B",
"&  c #855542",
"*  c #955445",
"=  c #9A5746",
"-  c #9E5C46",
";  c #91554A",
":  c #9B5649",
">  c #935C4B",
",  c #A15E47",
"<  c #8F624E",
"1  c #95624D",
"2  c #9F6E49",
"3  c #966352",
"4  c #996552",
"5  c #9D6A54",
"6  c #8F7051",
"7  c #9B7253",
"8  c #9B7B53",
"9  c #AB6546",
"0  c #A5604A",
"q  c #AD644D",
"w  c #B16240",
"e  c #B66B44",
"r  c #BB6F42",
"t  c #B26D4B",
"y  c #A9774F",
"u  c #BC7443",
"i  c #BE7949",
"p  c #AA6B57",
"a  c #AC6E58",
"s  c #AF7952",
"d  c #C07743",
"f  c #C37C44",
"g  c #C47D4A",
"h  c #7E9656",
"j  c #799D57",
"k  c #7A9E58",
"l  c #79A057",
"z  c #78A158",
"x  c #BB842B",
"c  c #BD8537",
"v  c #BE8C33",
"b  c #BD8339",
"n  c #C28E34",
"m  c #C69133",
"M  c #CA9534",
"N  c #CB973F",
"B  c #C7983F",
"V  c #D39F3C",
"C  c #D5A42D",
"Z  c #D2A233",
"A  c #D3A23E",
"S  c #DBAD3D",
"D  c #91834E",
"F  c #9F8C58",
"G  c #949456",
"H  c #959759",
"J  c #9A955A",
"K  c #96995A",
"L  c #9E995D",
"P  c #B5844A",
"I  c #A59E5E",
"U  c #A89C5F",
"Y  c #9BAD5E",
"T  c #9AB55E",
"R  c #A3A25F",
"E  c #A1B45F",
"W  c #A5A360",
"Q  c #A8A963",
"!  c #A3BE62",
"~  c #C78145",
"^  c #C98446",
"/  c #CF8D46",
"(  c #C88D4B",
")  c #CA9E48",
"_  c #C38252",
"`  c #C98452",
"'  c #C28C5B",
"]  c #C49651",
"[  c #C69952",
"{  c #C99B52",
"}  c #D79652",
"|  c #DB9058",
" . c #DEAA4C",
".. c #CDA25C",
"X. c #E2AB4D",
"o. c #E4B14C",
"O. c #E9B54F",
"+. c #EEBC4F",
"@. c #E4A755",
"#. c #E7AE51",
"$. c #E9AB56",
"%. c #E7AB59",
"&. c #E8AD59",
"*. c #ECB751",
"=. c #EDBB53",
"-. c #EEB35C",
";. c #C48F65",
":. c #DD9861",
">. c #D3AD6E",
",. c #A4C263",
"<. c #BDCC6E",
"1. c #BED16F",
"2. c #BFD370",
"3. c #F0C347",
"4. c #FFD54E",
"5. c #F4C452",
"6. c #F9C751",
"7. c #FBCD52",
"8. c #F4C158",
"9. c #FED253",
"0. c #FFDA56",
"q. c #FFD35F",
"w. c #FFDA5A",
"e. c #FFE45E",
"r. c #FFEC5E",
"t. c #FFF15F",
"y. c #C0D26F",
"u. c #C0D470",
"i. c #FFD867",
"p. c #F6C073",
"a. c #FFE262",
"s. c #FFE564",
"d. c #FFEA62",
"f. c #FFED60",
"g. c #FFF060",
"h. c #FFF36D",
"j. c #FFEB77",
"k. c #FFF971",
"l. c #B1E0BE",
"z. c #FFF982",
"x. c #9BD4C3",
/* pixels */
"z z z z z z z z ,.,.,.,.,.,.,.,.,.,.,.,.u.u.u.u.u.u.u.u.u.u.u.u.u.u.u.u.u.u.u.u.u.u.u.u.u.u.u.u.",
"z z z z z z z z ,.,.,.,.,.,.,.,.,.,.,.,.u.u.u.u.u.u.u.u.u.u.u.u.u.u.u.u.u.u.u.u.u.u.u.u.u.u.u.u.",
"z z z z z z z z ,.,.,.,.,.,.,.,.,.,.,.,.u.u.u.u.u.u.u.u.u.u.u.u.u.u.u.u.u.u.u.u.u.u.u.u.u.u.u.u.",
"z z z z z z z z ,.,.,.,.,.,.,.,.,.,.,.,.u.u.u.u.u.u.u.u.u.u.u.u.u.u.u.u.u.u.u.u.u.u.u.u.u.u.u.u.",
"z z z z z z z z ,.,.,.,.,.,.,.,.u.u.u.u.u.u.u.u.u.u.u.u.u.u.u.u.,.,.,.,.u.u.u.u.u.u.u.u.u.u.u.u.",
"z z z z z z z z ,.,.,.,.,.,.,.,.u.u.u.u.u.u.u.u.u.u.u.u.u.u.u.u.,.,.,.,.u.u.u.u.u.u.u.u.u.u.u.u.",
"z z z z z z z z ,.,.,.,.,.,.,.,.u.u.u.u.u.u.u.u.u.u.u.u.u.u.u.u.,.,.,.,.u.u.u.u.u.u.u.u.u.u.u.u.",
"z z z z z z z z ,.,.,.,.,.,.,.,.u.2.u.u.u.u.u.u.u.u.u.u.u.u.2.u.,.,.,.,.u.u.u.u.u.u.u.u.u.u.u.u.",
"z z z z ,.,.,.,.,.,.,.,.,.,.,.! ! ,.,.,.u.u.u.u.u.u.u.u.u.u.1.1.1.1.u.u.u.u.u.u.u.u.u.u.u.u.u.u.",
"z z z z ,.,.,.,.,.,.,.,.,.! ,.,.,.,.! ! 2.1.1.1.1.1.1.2.1.1.u.u.u.u.1.u.u.u.u.u.u.u.u.u.u.u.u.u.",
"z z z z ,.,.,.,.,.,.,.,.,.,.,.! ! ,.,.,.u.u.u.u.u.u.u.u.u.u.1.<.<.1.u.u.2.u.u.u.u.u.u.u.u.u.u.u.",
"z z z z ,.,.,.,.,.,.,.! ,.,.G p p J ,.,.u.u.u.u.u.u.u.u.u.u.U a p I u.u.<.u.u.u.u.u.u.u.u.u.u.u.",
"z z z z ,.,.,.,.,.,.,.,.! G y | | y W R I W W W W W W I R W y | | s W 1.u.u.2.u.u.u.u.u.,.,.,.,.",
"z z z z ,.,.,.,.,.! ,.,.K = } 5.5.( = * - - - - - - - - * = ( 5.5.} = Q u.u.1.u.u.u.u.u.,.,.,.,.",
"z z z z ,.,.,.,.,.,.! D ;.p.i.4.9.8.%.%.&.&.&.-.-.-.&.&.%.%.8.0.0.q.-.' F 1.y.1.u.u.u.u.,.,.,.,.",
"z z z z ,.,.,.,.! ,.! * :.j.k.a.s.d.g.g.g.g.f.r.e.r.g.g.g.g.e.e.e.r.w.| > <.u.<.u.u.u.u.,.,.,.,.",
"z z z z z z z z ! ,.! 4 g A a.z.z.h.r.r.r.r.r.w.5.9.t.t.r.r.r.f.f.4.V g 4 <.u.1.u.u.u.u.u.u.u.u.",
"z z z z z z z z ! ,.! 5 u x ) >.>...{ { ] [ =.0.7. .[ [ { { { { { B x u 5 <.u.1.u.u.u.u.u.u.u.u.",
"z z z z z z z z ! ,.! 3 g M % . o + + @ . # P 6.6.P O   @ + + # . % M f 4 <.u.1.u.u.u.u.u.u.u.u.",
"z z z z z z z z ! ,.! 3 g M %     o . o . . & 2 2 & .   o . + .   % M f 4 <.u.1.u.u.u.u.u.u.u.u.",
"z z z z z z z z ! ,.! 3 f M % # @ & @ @ & @ +     + @ & @ @ & @ # % M f 4 <.u.1.u.u.u.u.u.u.u.u.",
"z z z z z z z z ! ,.! 3 f M % X + @ @ @ @ @ @ @ @ @ @ @ @ @ @ + X % M f 4 <.u.1.u.u.u.u.u.u.u.u.",
"z z z z z z z z ! ,.! 4 i m v % + . # # X X # # # # X X # # . + % v m i 5 <.u.1.u.u.u.u.u.u.u.u.",
"z z z z z z z z ! ,.! 4 i m C n $ @ & & & & & & & & & & & & @ $ n C m i 5 <.u.1.u.u.u.u.u.u.u.u.",
"x.x.x.x.z z z z ! ,.! 3 g V Z m v v v v v v v v v v v v v v v v m Z V g 3 ! ,.! u.u.u.u.u.u.u.u.",
"x.x.x.x.z z z z ! ,.! 1 ` o.S n c b b b b b b b b b b b b b b c n S o.` 1 ! ,.! u.u.u.u.u.u.u.u.",
"x.x.x.x.z z z z ! ,.! > ` =.3.N 9 : , , , , , , , , , , , , : 9 N 3.=.` > ! ,.! u.u.u.u.u.u.u.u.",
"x.x.x.x.z z z z ! ,.! 1 ` =.7. .u 9 e e e e e e e e e e e e 9 u  .7.=.` 1 ! ,.! u.u.u.u.u.u.u.u.",
"x.x.x.x.z z z z j z j > ` *.9.O.^ u f f f f f f f f f f f f u ^ O.9.*.` 1 <.u.1.u.u.u.u.u.u.u.u.",
"x.x.x.x.z z z z j z j > ` *.9.o.~ r d d d d d d d d d d d d r ~ o.9.*.` 1 <.u.1.u.u.u.u.u.u.u.u.",
"x.x.x.x.z z z z j z j ; | 5.9.X.u w e e e e e e e e e e e e w u X.9.5.| > <.u.<.u.u.u.u.u.u.u.u.",
"x.x.x.x.z z z z l z j < _ #.7.O./ f ^ ^ ^ ^ ^ ^ ^ ^ ^ ^ ^ ^ f / O.7.#._ 7 <.u.1.u.u.u.u.u.u.u.u.",
"x.x.x.x.z z z z z k z h F t $.7.5.O.+.+.+.+.+.+.+.+.+.+.+.+.O.5.7.$.t F E ,.! ,.,.,.,.,.u.u.u.u.",
"x.x.x.x.z z z z z z z z T 6 _ $.$.@.@.@.@.@.@.@.@.@.@.@.@.@.@.$.$._ 6 T ,.,.,.,.,.,.,.,.u.u.u.u.",
"x.x.x.x.z z z z z z z k ,.,.8 q 0 - - - - - - - - - - - - - - 0 q 8 ,.,.! ,.,.,.,.,.,.,.u.u.u.u.",
"x.x.x.x.z z z z z z z k ,.,.Y L J K H H H H H H H H H H H H K J L Y ,.,.! ,.,.,.,.,.,.,.u.u.u.u.",
"x.x.x.x.x.x.x.x.z z z z z k z z ,.,.,.,.,.,.,.,.,.,.,.,.,.,.,.,.,.,.! ,.,.,.,.,.,.,.,.,.,.,.,.,.",
"x.x.x.x.x.x.x.x.z z z z z z z z ,.,.,.,.,.,.,.,.,.,.,.,.,.,.,.,.,.,.,.,.,.,.,.,.,.,.,.,.,.,.,.,.",
"x.x.x.x.x.x.x.x.z z z z z z z k ! ! ! ! ! ! ! ! ! ! ! ! ! ! ! ! ! ,.,.,.,.,.,.,.,.,.,.,.,.,.,.,.",
"x.x.x.x.x.x.x.x.z z z z z z z z ,.,.,.,.,.,.,.,.,.,.,.,.,.,.,.,.,.,.,.,.,.,.,.,.,.,.,.,.,.,.,.,.",
"x.x.x.x.x.x.x.x.x.x.x.x.z z z z z z z z z z z z z z z z z z z z z z z z ,.,.,.,.z z z z z z z z ",
"x.x.x.x.x.x.x.x.x.x.x.x.z z z z z z z z z z z z z z z z z z z z z z z z ,.,.,.,.z z z z z z z z ",
"x.x.x.x.x.x.x.x.x.x.x.x.z z z z z z z z z z z z z z z z z z z z z z z z ,.,.,.,.z z z z z z z z ",
"x.x.x.x.x.x.x.x.x.x.x.x.z z z z z z z z z z z z z z z z z z z z z z z z ,.,.,.,.z z z z z z z z ",
"x.x.x.x.x.x.x.x.x.x.x.x.x.x.x.x.x.x.x.x.l.l.l.l.z z z z z z z z z z z z z z z z z z z z z z z z ",
"x.x.x.x.x.x.x.x.x.x.x.x.x.x.x.x.x.x.x.x.l.l.l.l.z z z z z z z z z z z z z z z z z z z z z z z z ",
"x.x.x.x.x.x.x.x.x.x.x.x.x.x.x.x.x.x.x.x.l.l.l.l.z z z z z z z z z z z z z z z z z z z z z z z z ",
"x.x.x.x.x.x.x.x.x.x.x.x.x.x.x.x.x.x.x.x.l.l.l.l.z z z z z z z z z z z z z z z z z z z z z z z z "
};
