/* XPM */
static char *a41cd9a5a5954bb395edc8a146ce40d3WdNdnFImxhITDhUc[] = {
/* columns rows colors chars-per-pixel */
"48 48 140 2 ",
"   c #673644",
".  c #6B3B43",
"X  c #6E3E48",
"o  c #703F43",
"O  c #6F4044",
"+  c #744444",
"@  c #7B4B45",
"#  c #704048",
"$  c #90603E",
"%  c #9A6A3B",
"&  c #855542",
"*  c #8F5243",
"=  c #975345",
"-  c #9A5746",
";  c #9E5C46",
":  c #93574A",
">  c #9B5649",
",  c #945B4B",
"<  c #A15E47",
"1  c #95624D",
"2  c #98644E",
"3  c #9F6E49",
"4  c #817049",
"5  c #966352",
"6  c #996652",
"7  c #966C50",
"8  c #9D6A54",
"9  c #8F7051",
"0  c #847D52",
"q  c #9B7253",
"w  c #9B7B53",
"e  c #AB6546",
"r  c #A5604A",
"t  c #AD644D",
"y  c #B16240",
"u  c #B66B44",
"i  c #BB6F42",
"p  c #B26D4B",
"a  c #A6744E",
"s  c #AC774F",
"d  c #BC7443",
"f  c #BE7949",
"g  c #A66555",
"h  c #AA6B57",
"j  c #AD7751",
"k  c #C07743",
"l  c #C37C44",
"z  c #C47D4A",
"x  c #7E9656",
"c  c #7A9D57",
"v  c #7A9F58",
"b  c #79A057",
"n  c #78A158",
"m  c #BB842B",
"M  c #BD8537",
"N  c #BE8C33",
"B  c #BD8339",
"V  c #C28E34",
"C  c #C69133",
"Z  c #CA9534",
"A  c #CB973F",
"S  c #C7983F",
"D  c #D39F3C",
"F  c #D5A42D",
"G  c #D2A233",
"H  c #D3A23E",
"J  c #DBAD3D",
"K  c #928354",
"L  c #9F8B58",
"P  c #939357",
"I  c #949759",
"U  c #9A945A",
"Y  c #969A5A",
"T  c #9E995D",
"R  c #B5844A",
"E  c #9BAD5E",
"W  c #9AB55E",
"Q  c #A1B45F",
"!  c #A3BE62",
"~  c #C78145",
"^  c #C98446",
"/  c #CF8D46",
"(  c #C88D4B",
")  c #CA9E48",
"_  c #C38252",
"`  c #C98452",
"'  c #C0895A",
"]  c #C49651",
"[  c #C69952",
"{  c #C99B52",
"}  c #D79652",
"|  c #DB9058",
" . c #DEAA4C",
".. c #CDA25C",
"X. c #E2AB4D",
"o. c #E4B14C",
"O. c #E9B54F",
"+. c #EEBC4F",
"@. c #E4A755",
"#. c #E7AE51",
"$. c #E9AB56",
"%. c #E7AB59",
"&. c #E8AD59",
"*. c #ECB751",
"=. c #EDBB53",
"-. c #EEB35C",
";. c #C48F65",
":. c #DD9861",
">. c #D3AD6E",
",. c #A4C263",
"<. c #BCCC6E",
"1. c #BED06E",
"2. c #F0C347",
"3. c #FFD54E",
"4. c #F4C452",
"5. c #F9C751",
"6. c #FBCD52",
"7. c #F4C158",
"8. c #FED253",
"9. c #FFDA56",
"0. c #FFD35F",
"q. c #FFDA5A",
"w. c #FFE45E",
"e. c #FFEC5E",
"r. c #FFF15F",
"t. c #C1D370",
"y. c #C0D470",
"u. c #FFD867",
"i. c #F6C073",
"p. c #FFE262",
"a. c #FFE564",
"s. c #FFEA62",
"d. c #FFEE60",
"f. c #FFF060",
"g. c #FFF36D",
"h. c #FFEB77",
"j. c #FFF971",
"k. c #B1E0BE",
"l. c #FFF982",
"z. c #9BD4C3",
/* pixels */
"z.z.z.z.z.z.z.z.z.z.z.z.z.z.z.z.z.z.z.z.k.k.k.k.n n n n n n n n n n n n n n n n n n n n n n n n ",
"z.z.z.z.z.z.z.z.z.z.z.z.z.z.z.z.z.z.z.z.k.k.k.k.n n n n n n n n n n n n n n n n n n n n n n n n ",
"z.z.z.z.z.z.z.z.z.z.z.z.z.z.z.z.z.z.z.z.k.k.k.k.n n n n n n n n n n n n n n n n n n n n n n n n ",
"z.z.z.z.z.z.z.z.z.z.z.z.z.z.z.z.z.z.z.z.k.k.k.k.n n n n n n n n n n n n n n n n n n n n n n n n ",
"z.z.z.z.z.z.z.z.z.z.z.z.n n n n n n n n n n n n n n n n n n n n n n n n ,.,.,.,.,.,.,.,.,.,.,.,.",
"z.z.z.z.z.z.z.z.z.z.z.z.n n n n n n n n n n n n n n n n n n n n n n n n ,.,.,.,.,.,.,.,.,.,.,.,.",
"z.z.z.z.z.z.z.z.z.z.z.z.n n n n n n n n n n n n n n n n n n n n n n n n ,.,.,.,.,.,.,.,.,.,.,.,.",
"z.z.z.z.z.z.z.z.z.z.z.z.n n n n n n n n n n n n n n n n n n n n n n n n ,.,.,.,.,.,.,.,.,.,.,.,.",
"z.z.z.z.z.z.z.z.n n n n n n c v ! ,.,.,.,.,.,.,.,.,.,.,.,.,.,.! ! ,.,.,.,.,.,.,.,.,.,.,.,.,.,.,.",
"z.z.z.z.z.z.z.z.n n n n n v n n ,.,.! ! ,.! ! ! ! ! ! ,.! ! ,.,.,.,.! ,.,.,.,.,.,.,.,.,.,.,.,.,.",
"z.z.z.z.z.z.z.z.n n n n n n c c ! ,.,.,.,.,.,.,.,.,.,.,.,.,.,.! ! ,.,.,.,.,.,.,.,.,.,.,.,.,.,.,.",
"z.z.z.z.z.z.z.z.n n n c n n 0 g h U ,.,.,.,.,.,.,.,.,.,.,.,.U h h P ,.,.! ,.,.,.,.,.,.,.,.,.,.,.",
"k.k.k.k.n n n n n n n n ! P s | | a I P P I I I I I I P P I a | | j I ! ,.,.,.,.y.y.y.y.y.y.y.y.",
"k.k.k.k.n n n n n v n n Y - } 4.4.( - = ; ; ; ; ; ; ; ; = - ( 4.4.} - Y ,.,.! ,.y.y.y.y.y.y.y.y.",
"k.k.k.k.n n n n b n c 4 ;.i.u.3.8.7.%.%.&.&.&.-.-.-.&.&.%.%.7.9.9.0.-.' K ! ,.,.t.y.y.y.y.y.y.y.",
"k.k.k.k.n n n n c n c * :.h.j.p.a.s.f.f.f.f.d.e.w.e.f.f.f.f.w.w.w.e.q.| : ! ,.! t.y.y.y.y.y.y.y.",
"n n n n n n n n ! ,.! 6 z H p.l.l.g.e.e.e.e.e.q.4.8.r.r.e.e.e.d.d.3.D z 6 <.y.1.t.y.y.y.,.,.,.,.",
"n n n n n n n n ! ,.! 8 d m ) >.>...{ { ] [ =.9.6. .[ [ { { { { { S m d 8 <.y.1.t.y.y.y.,.,.,.,.",
"n n n n n n n n ! ,.! 5 z Z % . o + + @ . # R 5.5.R O   @ + + # X % Z l 6 <.y.1.t.y.y.y.,.,.,.,.",
"n n n n n n n n ! ,.! 5 z Z %     o . o . . & 3 3 & .   o . + .   % Z l 6 <.y.1.t.y.y.y.,.,.,.,.",
"n n n n n n n n ! ,.! 5 l Z % # @ & @ @ & @ +     + @ & @ @ & @ # % Z l 6 <.y.1.t.y.y.y.y.y.y.y.",
"n n n n n n n n ! ,.! 5 l Z % X + @ @ @ @ @ @ @ @ @ @ @ @ @ @ + X % Z l 6 <.y.1.t.y.y.y.y.y.y.y.",
"n n n n n n n n ! ,.! 6 f C N % + . # # X X # # # # X X # # . + % N C f 6 <.y.1.t.y.y.y.y.y.y.y.",
"n n n n n n n n ! ,.! 6 f C F V $ @ & & & & & & & & & & & & @ $ V F C f 8 <.y.1.t.y.y.y.y.y.y.y.",
"n n n n n n n n ! ,.! 5 z D G C N N N N N N N N N N N N N N N N C G D z 6 <.y.1.t.y.y.y.y.y.y.y.",
"n n n n n n n n ! ,.! 1 ` o.J V M B B B B B B B B B B B B B B M V J o.` 2 <.y.1.t.y.y.y.y.y.y.y.",
"n n n n n n n n ! ,.! , ` =.2.A e > < < < < < < < < < < < < > e A 2.=.` 1 <.y.1.t.y.y.y.y.y.y.y.",
"n n n n n n n n ! ,.! 1 ` =.6. .d e u u u u u u u u u u u u e d  .6.=.` 2 <.y.1.t.y.y.y.y.y.y.y.",
"n n n n n n n n ! ,.! 1 ` *.8.O.^ d l l l l l l l l l l l l d ^ O.8.*.` 2 <.y.1.t.y.y.y.y.y.y.y.",
"n n n n n n n n ! ,.! 1 ` *.8.o.~ i k k k k k k k k k k k k i ~ o.8.*.` 2 <.y.1.t.y.y.y.y.y.y.y.",
"n n n n n n n n ! ,.! : | 4.8.X.d y u u u u u u u u u u u u y d X.8.4.| , <.y.<.t.y.y.y.y.y.y.y.",
"n n n n n n n n ! ,.! 7 _ #.6.O./ l ^ ^ ^ ^ ^ ^ ^ ^ ^ ^ ^ ^ l / O.6.#._ q <.t.1.t.y.y.y.y.y.y.y.",
"z.z.z.z.n n n n n v n x L p $.6.4.O.+.+.+.+.+.+.+.+.+.+.+.+.O.4.6.$.p L Q ,.! ,.,.,.,.,.y.y.y.y.",
"z.z.z.z.n n n n n n n n W 9 _ $.$.@.@.@.@.@.@.@.@.@.@.@.@.@.@.$.$._ 9 W ,.,.,.,.,.,.,.,.y.y.y.y.",
"z.z.z.z.n n n n n n n v ,.,.w t r ; ; ; ; ; ; ; ; ; ; ; ; ; ; r t w ,.,.! ,.,.,.,.,.,.,.y.y.y.y.",
"z.z.z.z.n n n n n n n v ,.,.E T U Y I I I I I I I I I I I I Y U T E ,.,.! ,.,.,.,.,.,.,.y.y.y.y.",
"z.z.z.z.z.z.z.z.n n n n n v n n ,.,.,.,.,.,.,.,.,.,.,.,.,.,.,.,.,.,.! ,.,.,.,.,.,.,.,.,.,.,.,.,.",
"z.z.z.z.z.z.z.z.n n n n n n n n ,.,.,.,.,.,.,.,.,.,.,.,.,.,.,.,.,.,.,.,.,.,.,.,.,.,.,.,.,.,.,.,.",
"z.z.z.z.z.z.z.z.n n n n n n n v ! ! ! ! ! ! ! ! ! ! ! ! ! ! ! ! ! ,.,.,.,.,.,.,.,.,.,.,.,.,.,.,.",
"z.z.z.z.z.z.z.z.n n n n n n n n ,.,.,.,.,.,.,.,.,.,.,.,.,.,.,.,.,.,.,.,.,.,.,.,.,.,.,.,.,.,.,.,.",
"z.z.z.z.z.z.z.z.z.z.z.z.n n n n n n n n n n n n n n n n n n n n n n n n ,.,.,.,.n n n n n n n n ",
"z.z.z.z.z.z.z.z.z.z.z.z.n n n n n n n n n n n n n n n n n n n n n n n n ,.,.,.,.n n n n n n n n ",
"z.z.z.z.z.z.z.z.z.z.z.z.n n n n n n n n n n n n n n n n n n n n n n n n ,.,.,.,.n n n n n n n n ",
"z.z.z.z.z.z.z.z.z.z.z.z.n n n n n n n n n n n n n n n n n n n n n n n n ,.,.,.,.n n n n n n n n ",
"z.z.z.z.z.z.z.z.z.z.z.z.z.z.z.z.z.z.z.z.k.k.k.k.n n n n n n n n n n n n n n n n n n n n n n n n ",
"z.z.z.z.z.z.z.z.z.z.z.z.z.z.z.z.z.z.z.z.k.k.k.k.n n n n n n n n n n n n n n n n n n n n n n n n ",
"z.z.z.z.z.z.z.z.z.z.z.z.z.z.z.z.z.z.z.z.k.k.k.k.n n n n n n n n n n n n n n n n n n n n n n n n ",
"z.z.z.z.z.z.z.z.z.z.z.z.z.z.z.z.z.z.z.z.k.k.k.k.n n n n n n n n n n n n n n n n n n n n n n n n "
};
