/* XPM */
static char *d48e12a5d3014a8cb19e3aa3dad08c31kHpd0EpYovqI72Yw[] = {
/* columns rows colors chars-per-pixel */
"48 48 133 2 ",
"   c #673644",
".  c #6B3B43",
"X  c #6E3E48",
"o  c #703F43",
"O  c #6F4044",
"+  c #744444",
"@  c #7B4B45",
"#  c #704048",
"$  c #90603E",
"%  c #9A6A3B",
"&  c #855542",
"*  c #955445",
"=  c #9A5746",
"-  c #9E5C46",
";  c #9B5649",
":  c #94594B",
">  c #A15E47",
",  c #96644E",
"<  c #98644E",
"1  c #9F6E49",
"2  c #966352",
"3  c #9A6752",
"4  c #9C6A54",
"5  c #9B7253",
"6  c #977854",
"7  c #AB6546",
"8  c #A5604A",
"9  c #AD644D",
"0  c #B16240",
"q  c #B66B44",
"w  c #BB6F42",
"e  c #B26D4B",
"r  c #A6744E",
"t  c #AC774F",
"y  c #BC7443",
"u  c #BE7949",
"i  c #AA6B57",
"p  c #AD7751",
"a  c #C07743",
"s  c #C37C44",
"d  c #C47D4A",
"f  c #78A158",
"g  c #BB842B",
"h  c #BD8537",
"j  c #BE8C33",
"k  c #BD8339",
"l  c #C28E34",
"z  c #C69133",
"x  c #CA9534",
"c  c #CB973F",
"v  c #C7983F",
"b  c #D39F3C",
"n  c #D5A42D",
"m  c #D2A233",
"M  c #D3A23E",
"N  c #DBAD3D",
"B  c #91834E",
"V  c #928354",
"C  c #949357",
"Z  c #939659",
"A  c #9B9258",
"S  c #969C5A",
"D  c #B5844A",
"F  c #A28257",
"G  c #AA955D",
"H  c #A59F5E",
"J  c #A6A461",
"K  c #AAA563",
"L  c #A3BE62",
"P  c #B2BD68",
"I  c #C78145",
"U  c #C98446",
"Y  c #CF8D46",
"T  c #C88D4B",
"R  c #CA9E48",
"E  c #C38353",
"W  c #C98452",
"Q  c #C0895A",
"!  c #C49651",
"~  c #C69952",
"^  c #C99B52",
"/  c #D79652",
"(  c #DB9058",
")  c #DEAA4C",
"_  c #CDA25C",
"`  c #E2AB4D",
"'  c #E4B14C",
"]  c #E9B54F",
"[  c #EEBC4F",
"{  c #E4A755",
"}  c #E7AE51",
"|  c #E9AB56",
" . c #E7AB59",
".. c #E8AD59",
"X. c #ECB751",
"o. c #EDBB53",
"O. c #EEB35C",
"+. c #C48F65",
"@. c #DD9861",
"#. c #D3AD6E",
"$. c #A4C263",
"%. c #B4C66A",
"&. c #B8C46A",
"*. c #BCCD6E",
"=. c #BED16F",
"-. c #BFD370",
";. c #F0C347",
":. c #FFD54E",
">. c #F4C452",
",. c #F9C751",
"<. c #FBCD52",
"1. c #F4C158",
"2. c #FED253",
"3. c #FFDA56",
"4. c #FFD35F",
"5. c #FFDA5A",
"6. c #FFE45E",
"7. c #FFEC5E",
"8. c #FFF15F",
"9. c #C0D26F",
"0. c #C1D370",
"q. c #C0D470",
"w. c #FFD867",
"e. c #F6C073",
"r. c #FFE262",
"t. c #FFE564",
"y. c #FFEA62",
"u. c #FFEE60",
"i. c #FFF060",
"p. c #FFF36D",
"a. c #FFEB77",
"s. c #FFF971",
"d. c #FFF981",
/* pixels */
"f f f f f f f f f f f f f f f f f f f f f f f f f f f f f f f f f f f f f f f f f f f f f f f f ",
"f f f f f f f f f f f f f f f f f f f f f f f f f f f f f f f f f f f f f f f f f f f f f f f f ",
"f f f f f f f f f f f f f f f f f f f f f f f f f f f f f f f f f f f f f f f f f f f f f f f f ",
"f f f f f f f f f f f f f f f f f f f f f f f f f f f f f f f f f f f f f f f f f f f f f f f f ",
"$.$.$.$.f f f f f f f f f f f f $.$.$.$.$.$.$.$.$.$.$.$.$.$.$.$.$.$.$.$.f f f f f f f f $.$.$.$.",
"$.$.$.$.f f f f f f f f f f f f $.$.$.$.$.$.$.$.$.$.$.$.$.$.$.$.$.$.$.$.f f f f f f f f $.$.$.$.",
"$.$.$.$.f f f f f f f f f f f f $.$.$.$.$.$.$.$.$.$.$.$.$.$.$.$.$.$.$.$.f f f f f f f f $.$.$.$.",
"$.$.$.$.f f f f f f f f f f f f $.$.$.$.$.$.$.$.$.$.$.$.$.$.$.$.$.$.$.$.f f f f f f f f $.$.$.$.",
"$.$.$.$.$.$.$.$.$.$.$.$.$.$.$.L L $.$.$.$.$.$.$.$.$.$.$.$.$.$.L L $.$.$.$.$.$.$.$.$.$.$.$.$.$.$.",
"$.$.$.$.$.$.$.$.$.$.$.$.$.L $.$.$.$.L L $.L L L L L L $.L L $.$.$.$.L $.$.$.$.$.$.$.$.$.$.$.$.$.",
"$.$.$.$.$.$.$.$.$.$.$.$.$.$.$.L L $.$.$.$.$.$.$.$.$.$.$.$.$.$.L L $.$.$.$.$.$.$.$.$.$.$.$.$.$.$.",
"$.$.$.$.$.$.$.$.$.$.$.L $.$.C i i A $.$.$.$.$.$.$.$.$.$.$.$.A i i C $.$.L $.$.$.$.$.$.$.$.$.$.$.",
"$.$.$.$.$.$.$.$.$.$.$.$.L Z t ( ( r Z Z C Z Z Z J J J H Z Z r ( ( p Z L $.$.$.$.$.$.$.$.$.$.$.$.",
"$.$.$.$.$.$.$.$.$.L $.$.S = / >.>.T = * - - - - - - - - * = T >.>./ = S $.$.L $.$.$.$.$.$.$.$.$.",
"$.$.$.$.$.$.$.$.$.$.L B +.e.w.:.2.1. . .......O.O.O..... . .1.3.3.4.O.Q V L $.$.$.$.$.$.$.$.$.$.",
"$.$.$.$.$.$.$.$.L $.L * @.a.s.r.t.y.i.i.i.i.u.7.6.7.i.i.i.i.6.6.6.7.5.( : L $.L $.$.$.$.$.$.$.$.",
"q.q.q.q.q.q.q.0.L $.L 3 d M r.d.d.p.7.7.7.7.7.5.>.2.8.8.7.7.7.u.u.:.b d 3 *.q.=.0.q.q.q.q.q.q.q.",
"q.q.q.q.q.q.q.0.L $.L 4 y g R #.#._ ^ ^ ! ~ o.3.<.) ~ ~ ^ ^ ^ ^ ^ v g y 4 *.q.=.0.q.q.q.q.q.q.q.",
"q.q.q.q.q.q.q.0.L $.L 2 d x % . o + + @ . # D ,.,.D O   @ + + # . % x s 3 *.q.=.0.q.q.q.q.q.q.q.",
"q.q.q.q.q.q.q.0.L $.L 2 d x %     o . o . . & 1 1 & .   o . + .   % x s 3 *.q.=.0.q.q.q.q.q.q.q.",
"$.$.$.$.q.q.q.0.=.q.*.3 s x % # @ & @ @ & @ +     + @ & @ @ & @ # % x s 3 *.q.=.0.q.q.q.$.$.$.$.",
"$.$.$.$.q.q.q.0.=.q.*.3 s x % X + @ @ @ @ @ @ @ @ @ @ @ @ @ @ + X % x s 3 *.q.=.0.q.q.q.$.$.$.$.",
"$.$.$.$.q.q.q.0.=.q.*.4 u z j % + . # # X X # # # # X X # # . + % j z u 4 *.q.=.0.q.q.q.$.$.$.$.",
"$.$.$.$.q.q.q.0.=.q.*.4 u z n l $ @ & & & & & & & & & & & & @ $ l n z u 4 *.q.=.0.q.q.q.$.$.$.$.",
"q.q.q.q.q.q.q.0.=.q.*.3 d b m z j j j j j j j j j j j j j j j j z m b d 3 *.q.=.0.q.q.q.q.q.q.q.",
"q.q.q.q.q.q.q.0.=.q.*.< W ' N l h k k k k k k k k k k k k k k h l N ' W < *.q.=.0.q.q.q.q.q.q.q.",
"q.q.q.q.q.q.q.0.=.q.*., W o.;.c 7 ; > > > > > > > > > > > > ; 7 c ;.o.W , *.q.=.0.q.q.q.q.q.q.q.",
"q.q.q.q.q.q.q.0.=.q.*., W o.<.) y 7 q q q q q q q q q q q q 7 y ) <.o.W , *.q.=.0.q.q.q.q.q.q.q.",
"q.q.q.q.q.q.q.0.=.q.*., W X.2.] U y s s s s s s s s s s s s y U ] 2.X.W , *.q.=.0.q.q.q.q.q.q.q.",
"q.q.q.q.q.q.q.0.=.q.*., W X.2.' I w a a a a a a a a a a a a w I ' 2.X.W , *.q.=.0.q.q.q.q.q.q.q.",
"q.q.q.q.q.q.q.0.*.q.*.: ( >.2.` y 0 q q q q q q q q q q q q 0 y ` 2.>.( : *.q.*.0.q.q.q.q.q.q.q.",
"q.q.q.q.q.q.q.0.=.0.*.5 E } <.] Y s U U U U U U U U U U U U s Y ] <.} E 5 *.0.=.0.q.q.q.q.q.q.q.",
"q.q.q.q.q.q.q.q.0.=.-.&.G e | <.>.] [ [ [ [ [ [ [ [ [ [ [ [ ] >.<.| e G &.-.=.0.q.q.q.q.q.q.q.q.",
"q.q.q.q.q.q.q.q.q.9.q.q.%.6 E | | { { { { { { { { { { { { { { | | E 6 %.q.q.9.q.q.q.q.q.q.q.q.q.",
"q.q.q.q.q.q.q.q.q.q.q.*.q.q.F 9 8 - - - - - - - - - - - - - - 8 9 F q.q.*.q.q.q.q.q.q.q.q.q.q.q.",
"q.q.q.q.q.q.q.q.q.q.q.=.q.q.P K K K J J J J J J J J J J J J K K K P q.q.=.q.q.q.q.q.q.q.q.q.q.q.",
"q.q.q.q.q.q.q.q.q.q.q.q.-.*.q.q.q.q.q.q.q.q.q.q.q.q.q.q.q.q.q.q.q.q.*.-.q.q.q.q.q.q.q.q.q.q.q.q.",
"q.q.q.q.q.q.q.q.q.q.q.q.q.q.q.q.q.q.q.q.q.q.q.q.q.q.q.q.q.q.q.q.q.q.q.q.q.q.q.q.q.q.q.q.q.q.q.q.",
"q.q.q.q.q.q.q.q.q.q.q.q.q.q.9.=.=.=.=.=.=.=.=.=.=.=.=.=.=.=.=.=.=.9.q.q.q.q.q.q.q.q.q.q.q.q.q.q.",
"q.q.q.q.q.q.q.q.q.q.q.q.q.q.q.q.q.q.q.q.q.q.q.q.q.q.q.q.q.q.q.q.q.q.q.q.q.q.q.q.q.q.q.q.q.q.q.q.",
"q.q.q.q.q.q.q.q.q.q.q.q.q.q.q.q.q.q.q.q.q.q.q.q.q.q.q.q.q.q.q.q.q.q.q.q.q.q.q.q.q.q.q.q.q.q.q.q.",
"q.q.q.q.q.q.q.q.q.q.q.q.q.q.q.q.q.q.q.q.q.q.q.q.q.q.q.q.q.q.q.q.q.q.q.q.q.q.q.q.q.q.q.q.q.q.q.q.",
"q.q.q.q.q.q.q.q.q.q.q.q.q.q.q.q.q.q.q.q.q.q.q.q.q.q.q.q.q.q.q.q.q.q.q.q.q.q.q.q.q.q.q.q.q.q.q.q.",
"q.q.q.q.q.q.q.q.q.q.q.q.q.q.q.q.q.q.q.q.q.q.q.q.q.q.q.q.q.q.q.q.q.q.q.q.q.q.q.q.q.q.q.q.q.q.q.q.",
"q.q.q.q.q.q.q.q.q.q.q.q.q.q.q.q.q.q.q.q.q.q.q.q.q.q.q.q.q.q.q.q.q.q.q.q.q.q.q.q.q.q.q.q.q.q.q.q.",
"q.q.q.q.q.q.q.q.q.q.q.q.q.q.q.q.q.q.q.q.q.q.q.q.q.q.q.q.q.q.q.q.q.q.q.q.q.q.q.q.q.q.q.q.q.q.q.q.",
"q.q.q.q.q.q.q.q.q.q.q.q.q.q.q.q.q.q.q.q.q.q.q.q.q.q.q.q.q.q.q.q.q.q.q.q.q.q.q.q.q.q.q.q.q.q.q.q.",
"q.q.q.q.q.q.q.q.q.q.q.q.q.q.q.q.q.q.q.q.q.q.q.q.q.q.q.q.q.q.q.q.q.q.q.q.q.q.q.q.q.q.q.q.q.q.q.q."
};
