/* XPM */
static char *_a1af4ddfb7642feb6dec9ff01160d2eLNvM7zQxOkwYkirt[] = {
/* columns rows colors chars-per-pixel */
"48 48 148 2 ",
"   c #673644",
".  c #6B3B43",
"X  c #6E3E48",
"o  c #703F43",
"O  c #6F4044",
"+  c #744444",
"@  c #7B4B45",
"#  c #704048",
"$  c #90603E",
"%  c #9A6A3B",
"&  c #855542",
"*  c #8F5243",
"=  c #975345",
"-  c #9A5746",
";  c #9E5C46",
":  c #93574A",
">  c #9B5649",
",  c #925A4B",
"<  c #945E51",
"1  c #A15E47",
"2  c #95634D",
"3  c #98644E",
"4  c #9F6E49",
"5  c #817049",
"6  c #966252",
"7  c #9A6652",
"8  c #966C50",
"9  c #9C6954",
"0  c #8F7051",
"q  c #847D52",
"w  c #9B7753",
"e  c #977854",
"r  c #AB6546",
"t  c #A5604A",
"y  c #AD644D",
"u  c #B16240",
"i  c #B66B44",
"p  c #BB6F42",
"a  c #B26D4B",
"s  c #A6744E",
"d  c #AC774F",
"f  c #BC7443",
"g  c #BE7949",
"h  c #A66555",
"j  c #AA6B57",
"k  c #AD7751",
"l  c #C07743",
"z  c #C37C44",
"x  c #C47D4A",
"c  c #7A9D57",
"v  c #7A9F58",
"b  c #79A057",
"n  c #78A158",
"m  c #BB842B",
"M  c #BD8537",
"N  c #BE8C33",
"B  c #BD8339",
"V  c #C28E34",
"C  c #C69133",
"Z  c #CA9534",
"A  c #CB973F",
"S  c #C7983F",
"D  c #D39F3C",
"F  c #D5A42D",
"G  c #D2A233",
"H  c #D3A23E",
"J  c #DBAD3D",
"K  c #928354",
"L  c #9F8B58",
"P  c #939357",
"I  c #949659",
"U  c #9A9359",
"Y  c #969B5A",
"T  c #9E995D",
"R  c #B5844A",
"E  c #A28257",
"W  c #AA955D",
"Q  c #9BAD5E",
"!  c #9AB55E",
"~  c #A1B45F",
"^  c #A6A461",
"/  c #AAA563",
"(  c #A3BE62",
")  c #B2BD68",
"_  c #C78145",
"`  c #C98446",
"'  c #CF8D46",
"]  c #C88D4B",
"[  c #CA9E48",
"{  c #C38252",
"}  c #C98452",
"|  c #C0895A",
" . c #C49651",
".. c #C69952",
"X. c #C99B52",
"o. c #D79652",
"O. c #DB9058",
"+. c #DEAA4C",
"@. c #CDA25C",
"#. c #E2AB4D",
"$. c #E4B14C",
"%. c #E9B54F",
"&. c #EEBC4F",
"*. c #E4A755",
"=. c #E7AE51",
"-. c #E9AB56",
";. c #E7AB59",
":. c #E8AD59",
">. c #ECB751",
",. c #EDBB53",
"<. c #EEB35C",
"1. c #C48F65",
"2. c #DD9861",
"3. c #D3AD6E",
"4. c #A4C263",
"5. c #B4C66A",
"6. c #B8C46A",
"7. c #BCCD6E",
"8. c #BFD16F",
"9. c #BFD370",
"0. c #F0C347",
"q. c #FFD54E",
"w. c #F4C452",
"e. c #F9C751",
"r. c #FBCD52",
"t. c #F4C158",
"y. c #FED253",
"u. c #FFDA56",
"i. c #FFD35F",
"p. c #FFDA5A",
"a. c #FFE45E",
"s. c #FFEC5E",
"d. c #FFF15F",
"f. c #C0D26F",
"g. c #C0D470",
"h. c #FFD867",
"j. c #F6C073",
"k. c #FFE262",
"l. c #FFE564",
"z. c #FFEA62",
"x. c #FFED60",
"c. c #FFF160",
"v. c #FFF36D",
"b. c #FFEB77",
"n. c #FFF971",
"m. c #B1E0BE",
"M. c #FFF982",
"N. c #9BD4C3",
/* pixels */
"N.N.N.N.N.N.N.N.N.N.N.N.N.N.N.N.N.N.N.N.N.N.N.N.n n n n n n n n n n n n n n n n n n n n n n n n ",
"N.N.N.N.N.N.N.N.N.N.N.N.N.N.N.N.N.N.N.N.N.N.N.N.n n n n n n n n n n n n n n n n n n n n n n n n ",
"N.N.N.N.N.N.N.N.N.N.N.N.N.N.N.N.N.N.N.N.N.N.N.N.n n n n n n n n n n n n n n n n n n n n n n n n ",
"N.N.N.N.N.N.N.N.N.N.N.N.N.N.N.N.N.N.N.N.N.N.N.N.n n n n n n n n n n n n n n n n n n n n n n n n ",
"N.N.N.N.N.N.N.N.N.N.N.N.n n n n n n n n n n n n n n n n n n n n n n n n 4.4.4.4.4.4.4.4.4.4.4.4.",
"N.N.N.N.N.N.N.N.N.N.N.N.n n n n n n n n n n n n n n n n n n n n n n n n 4.4.4.4.4.4.4.4.4.4.4.4.",
"N.N.N.N.N.N.N.N.N.N.N.N.n n n n n n n n n n n n n n n n n n n n n n n n 4.4.4.4.4.4.4.4.4.4.4.4.",
"N.N.N.N.N.N.N.N.N.N.N.N.n n n n n n n n n n n n n n n n n n n n n n n n 4.4.4.4.4.4.4.4.4.4.4.4.",
"m.m.m.m.m.m.m.m.n n n n n n c v ( 4.4.4.4.4.4.4.4.4.4.4.4.4.4.( ( 4.4.4.4.4.4.4.4.4.4.4.4.4.4.4.",
"m.m.m.m.m.m.m.m.n n n n n v n n 4.4.( ( 4.( ( ( ( ( ( 4.( ( 4.4.4.4.( 4.4.4.4.4.4.4.4.4.4.4.4.4.",
"m.m.m.m.m.m.m.m.n n n n n n c c ( 4.4.4.4.4.4.4.4.4.4.4.4.4.4.( ( 4.4.4.4.4.4.4.4.4.4.4.4.4.4.4.",
"m.m.m.m.m.m.m.m.n n n c n n q h j U 4.4.4.4.4.4.4.4.4.4.4.4.U j j P 4.4.( 4.4.4.4.4.4.4.4.4.4.4.",
"N.N.N.N.n n n n n n n n ( P d O.O.s I P P I I I I I I P P I s O.O.k I ( 4.4.4.4.4.4.4.4.4.4.4.4.",
"N.N.N.N.n n n n n v n n Y - o.w.w.] - = ; ; ; ; ; ; ; ; = - ] w.w.o.- Y 4.4.( 4.4.4.4.4.4.4.4.4.",
"N.N.N.N.n n n n b n c 5 1.j.h.q.y.t.;.;.:.:.:.<.<.<.:.:.;.;.t.u.u.i.<.| K ( 4.4.4.4.4.4.4.4.4.4.",
"N.N.N.N.n n n n c n c * 2.b.n.k.l.z.c.c.c.c.x.s.a.s.c.c.c.c.a.a.a.s.p.O., ( 4.( 4.4.4.4.4.4.4.4.",
"N.N.N.N.n n n n ( 4.( 7 x H k.M.M.v.s.s.s.s.s.p.w.y.d.d.s.s.s.x.x.q.D x 7 ( 4.( g.g.g.g.g.g.g.g.",
"N.N.N.N.n n n n ( 4.( 9 f m [ 3.3.@.X.X. ...,.u.r.+.....X.X.X.X.X.S m f 9 ( 4.( g.g.g.g.g.g.g.g.",
"N.N.N.N.n n n n ( 4.( 6 x Z % . o + + @ . # R e.e.R O   @ + + # . % Z z 6 ( 4.( g.g.g.g.g.g.g.g.",
"N.N.N.N.n n n n ( 4.( 6 x Z %     o . o . . & 4 4 & .   o . + .   % Z z 6 ( 4.( g.g.g.g.g.g.g.g.",
"N.N.N.N.n n n n c n c < z Z % # @ & @ @ & @ +     + @ & @ @ & @ # % Z z 7 7.g.8.g.g.g.g.4.4.4.4.",
"N.N.N.N.n n n n c n c < z Z % X + @ @ @ @ @ @ @ @ @ @ @ @ @ @ + X % Z z 7 7.g.8.g.g.g.g.4.4.4.4.",
"N.N.N.N.n n n n c n c < g C N % + . # # X X # # # # X X # # . + % N C g 9 7.g.8.g.g.g.g.4.4.4.4.",
"N.N.N.N.n n n n c n c 6 g C F V $ @ & & & & & & & & & & & & @ $ V F C g 9 7.g.8.g.g.g.g.4.4.4.4.",
"n n n n n n n n c n c , x D G C N N N N N N N N N N N N N N N N C G D x 7 7.g.8.g.g.g.g.g.g.g.g.",
"n n n n n n n n c n c , } $.J V M B B B B B B B B B B B B B B M V J $.} 3 7.g.8.g.g.g.g.g.g.g.g.",
"n n n n n n n n c n c , } ,.0.A r > 1 1 1 1 1 1 1 1 1 1 1 1 > r A 0.,.} 2 7.g.8.g.g.g.g.g.g.g.g.",
"n n n n n n n n c n c , } ,.r.+.f r i i i i i i i i i i i i r f +.r.,.} 3 7.g.8.g.g.g.g.g.g.g.g.",
"n n n n n n n n ( 4.( 2 } >.y.%.` f z z z z z z z z z z z z f ` %.y.>.} 3 7.g.8.g.g.g.g.g.g.g.g.",
"n n n n n n n n ( 4.( 2 } >.y.$._ p l l l l l l l l l l l l p _ $.y.>.} 3 7.g.8.g.g.g.g.g.g.g.g.",
"n n n n n n n n ( 4.( : O.w.y.#.f u i i i i i i i i i i i i u f #.y.w.O., 7.g.7.g.g.g.g.g.g.g.g.",
"n n n n n n n n ( 4.( 8 { =.r.%.' z ` ` ` ` ` ` ` ` ` ` ` ` z ' %.r.=.{ w 7.g.8.g.g.g.g.g.g.g.g.",
"n n n n n n n n 4.( 4.~ L a -.r.w.%.&.&.&.&.&.&.&.&.&.&.&.&.%.w.r.-.a W 6.9.8.g.g.g.g.g.g.g.g.g.",
"n n n n n n n n 4.4.4.4.! 0 { -.-.*.*.*.*.*.*.*.*.*.*.*.*.*.*.-.-.{ e 5.g.g.f.g.g.g.g.g.g.g.g.g.",
"n n n n n n n n 4.4.4.( 4.4.w y t ; ; ; ; ; ; ; ; ; ; ; ; ; ; t y E g.g.7.g.g.g.g.g.g.g.g.g.g.g.",
"n n n n n n n n 4.4.4.( 4.4.Q T U Y I I I I I I ^ ^ ^ ^ ^ ^ / / / ) g.g.8.g.g.g.g.g.g.g.g.g.g.g.",
"n n n n 4.4.4.4.4.4.4.4.4.( 4.4.g.g.g.g.g.g.g.g.g.g.g.g.g.g.g.g.g.g.7.9.g.g.g.g.g.g.g.g.g.g.g.g.",
"n n n n 4.4.4.4.4.4.4.4.4.4.4.4.g.g.g.g.g.g.g.g.g.g.g.g.g.g.g.g.g.g.g.g.g.g.g.g.g.g.g.g.g.g.g.g.",
"n n n n 4.4.4.4.4.4.4.4.4.4.4.( 8.8.8.8.8.8.8.8.8.8.8.8.8.8.8.8.8.f.g.g.g.g.g.g.g.g.g.g.g.g.g.g.",
"n n n n 4.4.4.4.4.4.4.4.4.4.4.4.g.g.g.g.g.g.g.g.g.g.g.g.g.g.g.g.g.g.g.g.g.g.g.g.g.g.g.g.g.g.g.g.",
"n n n n 4.4.4.4.4.4.4.4.4.4.4.4.g.g.g.g.g.g.g.g.g.g.g.g.g.g.g.g.g.g.g.g.g.g.g.g.g.g.g.g.4.4.4.4.",
"n n n n 4.4.4.4.4.4.4.4.4.4.4.4.g.g.g.g.g.g.g.g.g.g.g.g.g.g.g.g.g.g.g.g.g.g.g.g.g.g.g.g.4.4.4.4.",
"n n n n 4.4.4.4.4.4.4.4.4.4.4.4.g.g.g.g.g.g.g.g.g.g.g.g.g.g.g.g.g.g.g.g.g.g.g.g.g.g.g.g.4.4.4.4.",
"n n n n 4.4.4.4.4.4.4.4.4.4.4.4.g.g.g.g.g.g.g.g.g.g.g.g.g.g.g.g.g.g.g.g.g.g.g.g.g.g.g.g.4.4.4.4.",
"n n n n 4.4.4.4.4.4.4.4.4.4.4.4.g.g.g.g.4.4.4.4.g.g.g.g.g.g.g.g.g.g.g.g.g.g.g.g.g.g.g.g.g.g.g.g.",
"n n n n 4.4.4.4.4.4.4.4.4.4.4.4.g.g.g.g.4.4.4.4.g.g.g.g.g.g.g.g.g.g.g.g.g.g.g.g.g.g.g.g.g.g.g.g.",
"n n n n 4.4.4.4.4.4.4.4.4.4.4.4.g.g.g.g.4.4.4.4.g.g.g.g.g.g.g.g.g.g.g.g.g.g.g.g.g.g.g.g.g.g.g.g.",
"n n n n 4.4.4.4.4.4.4.4.4.4.4.4.g.g.g.g.4.4.4.4.g.g.g.g.g.g.g.g.g.g.g.g.g.g.g.g.g.g.g.g.g.g.g.g."
};
