/* XPM */
static char *c6ce1dc2a13b4df4c817a3b80b05faf4yCRPdnMlusmCFJP8[] = {
/* columns rows colors chars-per-pixel */
"48 48 138 2 ",
"   c #6E3E48",
".  c #744546",
"X  c #7A4A45",
"o  c #704048",
"O  c #92613C",
"+  c #9A6A3C",
"@  c #804D45",
"#  c #8F4D45",
"$  c #934E46",
"%  c #865741",
"&  c #8D5B43",
"*  c #965145",
"=  c #9A5746",
"-  c #9E5C46",
";  c #91564A",
":  c #9B5649",
">  c #925D4B",
",  c #A35F46",
"<  c #8F624E",
"1  c #93614D",
"2  c #99614F",
"3  c #966352",
"4  c #9A6451",
"5  c #8F7051",
"6  c #997454",
"7  c #9B7B53",
"8  c #A46146",
"9  c #AA6346",
"0  c #AA6A47",
"q  c #A5604A",
"w  c #AD644D",
"e  c #AE6A48",
"r  c #B16240",
"t  c #B56C44",
"y  c #BB6F42",
"u  c #B26D4B",
"i  c #B77144",
"p  c #BC7343",
"a  c #B5754D",
"s  c #B67849",
"d  c #BE7949",
"f  c #B67F54",
"g  c #C07743",
"h  c #C37B43",
"j  c #C87D42",
"k  c #C27D4D",
"l  c #7E9656",
"z  c #799D57",
"x  c #7A9E58",
"c  c #79A057",
"v  c #78A158",
"b  c #B88A2E",
"n  c #BD8537",
"m  c #BE8C33",
"M  c #BD8339",
"N  c #C28E34",
"B  c #C69133",
"V  c #C99433",
"C  c #CC9A35",
"Z  c #CB973F",
"A  c #D39F3E",
"S  c #D5A42D",
"D  c #D2A233",
"F  c #DCA833",
"G  c #DBAD3D",
"H  c #948454",
"J  c #948A54",
"K  c #9F8B58",
"L  c #959659",
"P  c #99975B",
"I  c #95995A",
"U  c #9E995D",
"Y  c #BD804E",
"T  c #AE8D5A",
"R  c #B88155",
"E  c #BE8A5B",
"W  c #A1955B",
"Q  c #99A05A",
"!  c #9BAD5E",
"~  c #9AB55E",
"^  c #A5A560",
"/  c #A6A962",
"(  c #A3BD62",
")  c #C78145",
"_  c #C98446",
"`  c #CF8D46",
"'  c #C2874B",
"]  c #C78D4B",
"[  c #C98F4B",
"{  c #C9904A",
"}  c #C38252",
"|  c #C98452",
" . c #CE8B53",
".. c #D28D55",
"X. c #CB9150",
"o. c #D79155",
"O. c #DC9F55",
"+. c #DC9459",
"@. c #DF9A5B",
"#. c #DDA84D",
"$. c #E2AB4D",
"%. c #E8AD4F",
"&. c #E5B24D",
"*. c #E9B54F",
"=. c #EEBD4F",
"-. c #E4A755",
";. c #E7AE51",
":. c #E9AB56",
">. c #E9AE5A",
",. c #EBB650",
"<. c #EEBA52",
"1. c #F0BE51",
"2. c #A4C263",
"3. c #BCCE6E",
"4. c #BED06E",
"5. c #BFD270",
"6. c #F0C347",
"7. c #F3C253",
"8. c #F4C151",
"9. c #F7C651",
"0. c #FBCF50",
"q. c #FACC53",
"w. c #FED353",
"e. c #FCD054",
"r. c #FFDC54",
"t. c #FFD45B",
"y. c #FFD05C",
"u. c #FFDA58",
"i. c #FFD85C",
"p. c #FFDD5D",
"a. c #FFE358",
"s. c #FFE459",
"d. c #FFE25D",
"f. c #FFE45E",
"g. c #C1D370",
"h. c #C0D470",
"j. c #B1E0BE",
"k. c #9BD4C3",
/* pixels */
"v v v v v v v v 2.2.2.2.h.h.4.3.3.3.3.3.3.3.3.3.3.3.3.3.3.3.3.3.( ( 2.2.2.2.2.2.2.2.2.2.v v v v ",
"v v v v v v v v 2.2.2.2.g.5.h.h.h.h.h.h.h.h.h.h.h.h.h.h.h.h.h.h.2.2.2.2.2.2.2.2.2.2.2.2.v v v v ",
"v v v v v v v v 2.2.2.2.h.h.4.3.3.3.3.3.3.3.3.3.3.3.3.3.3.3.3.3.( ( 2.2.2.2.2.2.2.2.2.2.v v v v ",
"v v v v v v v v 2.2.2.( h.h.W 4 2 1 > > > > > > > > > > > > 1 2 4 J 2.2.( 2.2.2.2.2.2.2.v v v v ",
"v v v v v v v v 2.2.2.2.4.^ R @.+. ......................... .+.@.f L ( 2.2.2.2.2.2.2.2.v v v v ",
"v v v v v v v v 2.( 2.2./ = >.f.p.t.i.i.i.i.i.i.i.i.i.i.i.i.t.p.f.>.= I 2.2.( 2.2.2.2.2.v v v v ",
"v v v v v v v v 2.2.( H E >.y.u.a.a.s.s.s.s.s.s.s.s.s.s.s.s.a.a.u.y.>.E H ( 2.2.2.2.2.2.v v v v ",
"v v v v v v v v ( 2.( ; +.d.r.&.#.#.#.#.#.#.#.#.#.#.#.#.#.#.#.#.&.r.d.+.; ( 2.( 2.2.2.2.v v v v ",
"v v v v 2.2.2.2.( 2.( > ..7.r.&.s 8 e 0 0 0 0 0 0 0 0 0 0 e 8 s &.r.7...> ( 2.( 2.2.2.2.v v v v ",
"v v v v 2.2.2.2.( 2.( 1 | *.,.' , $ = , 9 , , , , , , 9 , = $ , ' ,.*.| 1 ( 2.( 2.2.2.2.v v v v ",
"v v v v 2.2.2.2.( 2.( >  .1.[ * - 8 8 i h g g g g g g h i 8 8 - * [ 1. .> ( 2.( 2.2.2.2.v v v v ",
"v v v v 2.2.2.2.( 2.( >  .<.] * - 8 8 9 t h j h h j h t 9 8 8 - * ] <. .> ( 2.( 2.2.2.2.v v v v ",
"v v v v 2.2.2.2.( 2.( ; +.9.{ * - 8 , - 8 t i t t i t 8 - , 8 - * { 9.+.; ( 2.( v v v v v v v v ",
"v v v v 2.2.2.2.( 2.( > o.8.[ * - 8 , , , 8 8 8 8 8 8 , , , 8 - * [ 8.o.> ( 2.( v v v v v v v v ",
"v v v v 2.2.2.2.2.2.2.Q T Y O.X.e , 9 9 8 , , , , , , 8 9 9 , e X.O.Y T Q 2.2.2.v v v v v v v v ",
"v v v v 2.2.2.2.2.( 2.( L = %.=.e # - - - - - - - - - - - - # e =.%.= L ( 2.( 2.v v v v v v v v ",
"v v v v v v v v ( 2.( 6 a n F C & o @ @ @ @ @ @ @ @ @ @ @ @ o & C F n a 6 ( 2.( v v v v v v v v ",
"v v v v v v v v ( 2.( > ..C b O X o . . . . . . . . . . . . o X O b C ..> ( 2.( v v v v v v v v ",
"v v v v v v v v ( 2.( 3 h V +   . X X X X X X X X X X X X X X .   + V h 3 ( 2.( v v v v v v v v ",
"v v v v v v v v ( 2.( 3 h V +   . X X X X X X X X X X X X X X .   + V h 3 ( 2.( v v v v v v v v ",
"v v v v v v v v ( 2.( 3 h V +   . X X X X X X X X X X X X X X .   + V h 3 ( 2.( v v v v v v v v ",
"v v v v v v v v ( 2.( 3 h V +   . X X X X X X X X X X X X X X .   + V h 3 ( 2.( v v v v v v v v ",
"v v v v v v v v ( 2.( 4 d B m + .   o o                 o o   . + m B d 4 ( 2.( v v v v v v v v ",
"v v v v v v v v ( 2.( 4 d B S N O X % % % % % % % % % % % % X O N S B d 4 ( 2.( v v v v v v v v ",
"k.k.k.k.v v v v ( 2.( 4 k A D B m m m m m m m m m m m m m m m m B D A k > z v z v v v v k.k.k.k.",
"k.k.k.k.v v v v ( 2.( 1 | &.G N n M M M M M M M M M M M M M M n N G &.| > z v z v v v v k.k.k.k.",
"k.k.k.k.v v v v ( 2.( > | <.6.Z 9 : , , , , , , , , , , , , : 9 Z 6.<.| > z v z v v v v k.k.k.k.",
"k.k.k.k.v v v v ( 2.( 1 | <.q.#.p 9 t t t t t t t t t t t t 9 p #.q.<.| > z v z v v v v k.k.k.k.",
"k.k.k.k.v v v v z v z > | ,.e.*._ p h h h h h h h h h h h h p _ *.e.,.| > z v z v v v v k.k.k.k.",
"k.k.k.k.v v v v z v z > | ,.e.&.) y g g g g g g g g g g g g y ) &.e.,.| > z v z v v v v k.k.k.k.",
"k.k.k.k.v v v v z v z ; +.9.w.$.p r t t t t t t t t t t t t r p $.w.9.+.; z v z v v v v k.k.k.k.",
"k.k.k.k.v v v v c v z < } ;.q.*.` h _ _ _ _ _ _ _ _ _ _ _ _ h ` *.q.;.} < z v c v v v v k.k.k.k.",
"k.k.k.k.v v v v v x v l K u :.q.7.*.=.=.=.=.=.=.=.=.=.=.=.=.*.7.q.:.u K l v x v v v v v k.k.k.k.",
"k.k.k.k.v v v v v v v v ~ 5 } :.:.-.-.-.-.-.-.-.-.-.-.-.-.-.-.:.:.} 5 ~ v v v v v v v v k.k.k.k.",
"k.k.k.k.v v v v v v v x 2.2.7 w q - - - - - - - - - - - - - - q w 7 2.2.x v v v v v v v k.k.k.k.",
"k.k.k.k.v v v v v v v x 2.2.! U P I L L L L L L L L L L L L I P U ! 2.2.x v v v v v v v k.k.k.k.",
"k.k.k.k.k.k.k.k.v v v v v x v v 2.2.2.2.2.2.2.2.2.2.2.2.2.2.2.2.v v x v v v v v k.k.k.k.k.k.k.k.",
"k.k.k.k.k.k.k.k.v v v v v v v v 2.2.2.2.2.2.2.2.2.2.2.2.2.2.2.2.v v v v v v v v k.k.k.k.k.k.k.k.",
"k.k.k.k.k.k.k.k.v v v v v v v x ( ( ( ( ( ( ( ( ( ( ( ( ( ( ( ( x v v v v v v v k.k.k.k.k.k.k.k.",
"k.k.k.k.k.k.k.k.v v v v v v v v 2.2.2.2.2.2.2.2.2.2.2.2.2.2.2.2.v v v v v v v v k.k.k.k.k.k.k.k.",
"k.k.k.k.k.k.k.k.k.k.k.k.v v v v v v v v v v v v v v v v v v v v v v v v k.k.k.k.k.k.k.k.j.j.j.j.",
"k.k.k.k.k.k.k.k.k.k.k.k.v v v v v v v v v v v v v v v v v v v v v v v v k.k.k.k.k.k.k.k.j.j.j.j.",
"k.k.k.k.k.k.k.k.k.k.k.k.v v v v v v v v v v v v v v v v v v v v v v v v k.k.k.k.k.k.k.k.j.j.j.j.",
"k.k.k.k.k.k.k.k.k.k.k.k.v v v v v v v v v v v v v v v v v v v v v v v v k.k.k.k.k.k.k.k.j.j.j.j.",
"k.k.k.k.k.k.k.k.k.k.k.k.k.k.k.k.v v v v v v v v v v v v v v v v k.k.k.k.k.k.k.k.k.k.k.k.k.k.k.k.",
"k.k.k.k.k.k.k.k.k.k.k.k.k.k.k.k.v v v v v v v v v v v v v v v v k.k.k.k.k.k.k.k.k.k.k.k.k.k.k.k.",
"k.k.k.k.k.k.k.k.k.k.k.k.k.k.k.k.v v v v v v v v v v v v v v v v k.k.k.k.k.k.k.k.k.k.k.k.k.k.k.k.",
"k.k.k.k.k.k.k.k.k.k.k.k.k.k.k.k.v v v v v v v v v v v v v v v v k.k.k.k.k.k.k.k.k.k.k.k.k.k.k.k."
};
