/* XPM */
static char *fc05f682bbce488ad63fbc8985ed888b0XQYPzUexwdb9Qs7[] = {
/* columns rows colors chars-per-pixel */
"48 48 128 2 ",
"   c #6D3D49",
".  c #734446",
"X  c #774845",
"o  c #7A4A45",
"O  c #704048",
"+  c #8E5F3D",
"@  c #97643B",
"#  c #AF7D37",
"$  c #854C46",
"%  c #914B44",
"&  c #845542",
"*  c #8C5446",
"=  c #895941",
"-  c #9A5545",
";  c #9D5C46",
":  c #9E5D48",
">  c #A15E47",
",  c #A05D48",
"<  c #9E644C",
"1  c #9C7553",
"2  c #A46146",
"3  c #A96446",
"4  c #AA6947",
"5  c #A6644B",
"6  c #AC634C",
"7  c #AD694A",
"8  c #B36643",
"9  c #B56C44",
"0  c #B86D42",
"q  c #A77048",
"w  c #BE7443",
"e  c #B17148",
"r  c #B67A49",
"t  c #BB7F49",
"y  c #B16650",
"u  c #A27051",
"i  c #AE7054",
"p  c #AC7958",
"a  c #B07B52",
"s  c #C07743",
"d  c #C47B42",
"f  c #C87F42",
"g  c #C27554",
"h  c #C07B50",
"j  c #BE8C2E",
"k  c #BE8C33",
"l  c #BD8339",
"z  c #C5942F",
"x  c #CE9E2E",
"c  c #D29F2D",
"v  c #C18E30",
"b  c #C4883B",
"n  c #C09130",
"m  c #CC9A31",
"M  c #D09F38",
"N  c #D6A639",
"B  c #ECB73D",
"V  c #938E57",
"C  c #9E925B",
"Z  c #9F9F5E",
"A  c #BD8241",
"S  c #BB804A",
"D  c #A78F5B",
"F  c #A49E5F",
"G  c #A79360",
"H  c #A59E60",
"J  c #A6A461",
"K  c #AAA564",
"L  c #ADAC64",
"P  c #AFB466",
"I  c #B3B666",
"U  c #B7BE6B",
"Y  c #C68344",
"T  c #C98446",
"R  c #C88841",
"E  c #C1874B",
"W  c #C4884E",
"Q  c #CE8F4E",
"!  c #D08F40",
"~  c #D08F49",
"^  c #C69442",
"/  c #CF9349",
"(  c #D39142",
")  c #D2944A",
"_  c #D69F4E",
"`  c #D99D4A",
"'  c #D18B55",
"]  c #D29352",
"[  c #D19857",
"{  c #DC9C52",
"}  c #DBA34B",
"|  c #DEA354",
" . c #E4B542",
".. c #E6B845",
"X. c #EDBC4F",
"o. c #E3A755",
"O. c #E7AB54",
"+. c #EBAB56",
"@. c #E6A45C",
"#. c #EEAE58",
"$. c #E8B750",
"%. c #ECBA51",
"&. c #EDB45A",
"*. c #F2BE53",
"=. c #F1B35C",
"-. c #FBBB5B",
";. c #B6C36A",
":. c #B8C66B",
">. c #BECE6E",
",. c #BFD16F",
"<. c #BFD370",
"1. c #F4C54F",
"2. c #EFC250",
"3. c #F5C551",
"4. c #F7C951",
"5. c #FBCD51",
"6. c #F9C35D",
"7. c #FFD753",
"8. c #FFD95C",
"9. c #FFE759",
"0. c #FFE15C",
"q. c #FFEB5D",
"w. c #FFEC5D",
"e. c #FFF35D",
"r. c #C0D26F",
"t. c #C0D270",
"y. c #C0D470",
"u. c #FFD462",
/* pixels */
"y.y.y.y.y.y.y.y.y.y.y.y.y.y.,.r.y.y.y.y.y.y.y.y.y.y.y.y.y.y.y.y.r.,.y.y.y.y.y.y.y.y.y.y.y.y.y.y.",
"y.y.y.y.y.y.y.y.y.y.y.y.r.,.y.y.F G C C C C C C C C C C C C G F y.y.,.r.y.y.y.y.y.y.y.y.y.y.y.y.",
"y.y.y.y.y.y.y.y.y.y.y.y.t.y.,.I 5 g 7 7 7 7 7 7 7 7 7 7 7 7 g 5 I ,.y.t.y.y.y.y.y.y.y.y.y.y.y.y.",
"y.y.y.y.y.y.y.y.y.y.y.,.y.y.V i &.u.6.6.6.6.6.6.6.6.6.6.6.6.u.&.i V y.y.,.y.y.y.y.y.y.y.y.y.y.y.",
"y.y.y.y.y.y.y.y.y.y.y.,.:.L a @.8.e.q.w.w.w.w.w.w.w.w.w.w.q.e.8.@.a L :.,.y.y.y.y.y.y.y.y.y.y.y.",
"y.y.y.y.y.y.y.y.y.,.y.y.J ; &.0.4.X.3.3.3.3.3.3.3.3.3.3.3.3.X.4.0.&.; J y.y.,.y.y.y.y.y.y.y.y.y.",
"y.y.y.y.y.y.y.y.y.,.y.y.F 5 =.9.5.} t r S t t t t t t S r t } 5.9.=.5 F y.y.,.y.y.y.y.y.y.y.y.y.",
"y.y.y.y.y.y.y.y.y.,.y.y.K : { 3.%.E - - > , , , , , , > - - E %.3.{ : K y.y.,.y.y.y.y.y.y.y.y.y.",
"y.y.y.y.y.y.y.y.y.,.y.y.J ; o.%.t - , 9 w 0 0 0 0 0 0 w 9 , - t %.o.; J y.y.,.y.y.y.y.y.y.y.y.y.",
"y.y.y.y.y.y.y.y.y.,.y.y.J ; O.$.4 % 3 9 w f f f f f f w 9 3 % 4 $.O.; J y.y.,.y.y.y.y.y.y.y.y.y.",
"y.y.y.y.y.y.y.y.y.,.y.y.J ; +.%.e - 2 ; 3 w s w w s w 3 ; 2 - e %.+.; J y.y.,.y.y.y.y.y.y.y.y.y.",
"y.y.y.y.y.y.y.y.y.,.y.y.H 6 -.2.4 % 2 , , 3 3 3 3 3 3 , , 2 % 4 2.-.6 H y.y.,.y.y.y.y.y.y.y.y.y.",
"y.y.y.y.y.y.y.y.y.r.y.r.P 1 [ | W 4 2 2 2 , , , , , , 2 2 2 4 W | [ 1 P r.y.r.y.y.y.y.y.y.y.y.y.",
"y.y.y.y.y.y.y.y.y.y.y.>.y.<.1 h %._ , ; 2 2 , 2 2 , 2 2 ; , _ %.h 1 <.y.>.y.y.y.y.y.y.y.y.y.y.y.",
"y.y.y.y.y.y.y.y.y.<.y.t.U D q b B ^ $ $ * * * * * * * * $ $ ^ B b q D U t.y.<.y.y.y.y.y.y.y.y.y.",
"y.y.y.y.y.y.y.y.y.,.y.y.K 6 ( x j @ . O X X X X X X X X O . @ j x ( 6 K y.y.,.y.y.y.y.y.y.y.y.y.",
"y.y.y.y.y.y.y.y.y.,.y.y.K , ( n + X X X X X X X X X X X X X X + n ( , K y.y.,.y.y.y.y.y.y.y.y.y.",
"y.y.y.y.y.y.y.y.y.,.y.y.K : ! k o   X o X X X X X X X X o o   o k ! : K y.y.,.y.y.y.y.y.y.y.y.y.",
"y.y.y.y.y.y.y.y.y.,.y.y.K : ! k = O X X X X X X X X X X X X O = k ! : K y.y.,.y.y.y.y.y.y.y.y.y.",
"y.y.y.y.y.y.y.y.y.,.y.y.K : ! k = O X X X X X X X X X X X X O = k ! : K y.y.,.y.y.y.y.y.y.y.y.y.",
"y.y.y.y.y.y.y.y.y.,.y.y.K : ( k &   X X X X X X X X X X o X   & k ( : K y.y.,.y.y.y.y.y.y.y.y.y.",
"y.y.y.y.y.y.y.y.y.,.y.y.K : ( k &   X X X X X X X X X X o X   & k ( : K y.y.,.y.y.y.y.y.y.y.y.y.",
"y.y.y.y.y.y.y.y.y.,.y.y.K , R z # =     O             O     = # z R , K y.y.,.y.y.y.y.y.y.y.y.y.",
"y.y.y.y.y.y.y.y.y.,.y.y.K , Y x c # = & = = = = = = = = & = # c x Y , K y.y.,.y.y.y.y.y.y.y.y.y.",
"y.y.y.y.y.y.y.y.y.,.y.y.K ; ~ N m v k k k k k k k k k k k k v m N ~ ; K y.y.,.y.y.y.y.y.y.y.y.y.",
"y.y.y.y.y.y.y.y.y.,.y.y.K ; { ..M k l l l l l l l l l l l l k M ..{ ; K y.y.,.y.y.y.y.y.y.y.y.y.",
"y.y.y.y.y.y.y.y.y.,.y.y.K ; | 1. .A , ; , , , , , , , , ; , A  .1.| ; K y.y.,.y.y.y.y.y.y.y.y.y.",
"y.y.y.y.y.y.y.y.y.,.y.y.K ; { 5.1./ 8 8 9 9 9 9 9 9 9 9 8 8 / 1.5.{ ; K y.y.,.y.y.y.y.y.y.y.y.y.",
"y.y.y.y.y.y.y.y.y.,.y.y.K : { 4.3.} s s f d d d d d d f s s } 4.4.{ : K y.y.,.y.y.y.y.y.y.y.y.y.",
"y.y.y.y.y.y.y.y.y.,.y.y.K : { 4.4.` w w s s s s s s s s w w ` 4.4.{ : K y.y.,.y.y.y.y.y.y.y.y.y.",
"y.y.y.y.y.y.y.y.y.,.y.y.H 6 +.7.3.) 8 8 0 0 0 0 0 0 0 0 8 8 ) 3.7.+.6 H y.y.,.y.y.y.y.y.y.y.y.y.",
"y.y.y.y.y.y.y.y.y.t.y.<.L < ] *.4.} T Y T T T T T T T T Y T } 4.*.] < L <.y.t.y.y.y.y.y.y.y.y.y.",
"y.y.y.y.y.y.y.y.y.<.y.>.>.U u ' *.5.X.X.X.X.X.X.X.X.X.X.X.X.5.*.' u U >.>.y.<.y.y.y.y.y.y.y.y.y.",
"y.y.y.y.y.y.y.y.y.y.y.,.y.y.Z p Q #.o.o.o.o.o.o.o.o.o.o.o.o.#.Q p Z y.y.,.y.y.y.y.y.y.y.y.y.y.y.",
"y.y.y.y.y.y.y.y.y.y.y.y.,.r.y.;.< y ; ; ; ; ; ; ; ; ; ; ; ; y < ;.y.r.,.y.y.y.y.y.y.y.y.y.y.y.y.",
"y.y.y.y.y.y.y.y.y.y.y.y.<.,.y.y.L K J J J J J J J J J J J J K L y.y.,.<.y.y.y.y.y.y.y.y.y.y.y.y.",
"y.y.y.y.y.y.y.y.y.y.y.y.y.y.,.y.y.y.y.y.y.y.y.y.y.y.y.y.y.y.y.y.y.,.y.y.y.y.y.y.y.y.y.y.y.y.y.y.",
"y.y.y.y.y.y.y.y.y.y.y.y.y.y.y.y.y.y.y.y.y.y.y.y.y.y.y.y.y.y.y.y.y.y.y.y.y.y.y.y.y.y.y.y.y.y.y.y.",
"y.y.y.y.y.y.y.y.y.y.y.y.y.y.y.<.<.,.,.,.,.,.,.,.,.,.,.,.,.,.,.<.<.y.y.y.y.y.y.y.y.y.y.y.y.y.y.y.",
"y.y.y.y.y.y.y.y.y.y.y.y.y.y.y.y.y.y.y.y.y.y.y.y.y.y.y.y.y.y.y.y.y.y.y.y.y.y.y.y.y.y.y.y.y.y.y.y.",
"y.y.y.y.y.y.y.y.y.y.y.y.y.y.y.y.y.y.y.y.y.y.y.y.y.y.y.y.y.y.y.y.y.y.y.y.y.y.y.y.y.y.y.y.y.y.y.y.",
"y.y.y.y.y.y.y.y.y.y.y.y.y.y.y.y.y.y.y.y.y.y.y.y.y.y.y.y.y.y.y.y.y.y.y.y.y.y.y.y.y.y.y.y.y.y.y.y.",
"y.y.y.y.y.y.y.y.y.y.y.y.y.y.y.y.y.y.y.y.y.y.y.y.y.y.y.y.y.y.y.y.y.y.y.y.y.y.y.y.y.y.y.y.y.y.y.y.",
"y.y.y.y.y.y.y.y.y.y.y.y.y.y.y.y.y.y.y.y.y.y.y.y.y.y.y.y.y.y.y.y.y.y.y.y.y.y.y.y.y.y.y.y.y.y.y.y.",
"y.y.y.y.y.y.y.y.y.y.y.y.y.y.y.y.y.y.y.y.y.y.y.y.y.y.y.y.y.y.y.y.y.y.y.y.y.y.y.y.y.y.y.y.y.y.y.y.",
"y.y.y.y.y.y.y.y.y.y.y.y.y.y.y.y.y.y.y.y.y.y.y.y.y.y.y.y.y.y.y.y.y.y.y.y.y.y.y.y.y.y.y.y.y.y.y.y.",
"y.y.y.y.y.y.y.y.y.y.y.y.y.y.y.y.y.y.y.y.y.y.y.y.y.y.y.y.y.y.y.y.y.y.y.y.y.y.y.y.y.y.y.y.y.y.y.y.",
"y.y.y.y.y.y.y.y.y.y.y.y.y.y.y.y.y.y.y.y.y.y.y.y.y.y.y.y.y.y.y.y.y.y.y.y.y.y.y.y.y.y.y.y.y.y.y.y."
};
