/* XPM */
static char *xpm_[] = {
/* columns rows colors chars-per-pixel */
"48 48 5 1 ",
"  c #78A158",
". c #A4C263",
"X c #C0D470",
"o c #B1E0BE",
"O c #9BD4C3",
/* pixels */
"XXXXXXXXXXXX....XXXXXXXXXXXX................    ",
"XXXXXXXXXXXX....XXXXXXXXXXXX................    ",
"XXXXXXXXXXXX....XXXXXXXXXXXX................    ",
"XXXXXXXXXXXX....XXXXXXXXXXXX................    ",
"XXXXXXXXXXXXXXXXXXXXXXXXXXXXXXXX............    ",
"XXXXXXXXXXXXXXXXXXXXXXXXXXXXXXXX............    ",
"XXXXXXXXXXXXXXXXXXXXXXXXXXXXXXXX............    ",
"XXXXXXXXXXXXXXXXXXXXXXXXXXXXXXXX............    ",
"XXXXXXXXXXXXXXXXXXXXXXXXXXXX................    ",
"XXXXXXXXXXXXXXXXXXXXXXXXXXXX................    ",
"XXXXXXXXXXXXXXXXXXXXXXXXXXXX................    ",
"XXXXXXXXXXXXXXXXXXXXXXXXXXXX................    ",
"XXXXXXXXXXXXXXXXXXXXXXXXXXXXXXXX........        ",
"XXXXXXXXXXXXXXXXXXXXXXXXXXXXXXXX........        ",
"XXXXXXXXXXXXXXXXXXXXXXXXXXXXXXXX........        ",
"XXXXXXXXXXXXXXXXXXXXXXXXXXXXXXXX........        ",
"XXXXXXXXXXXXXXXXXXXXXXXXXXXXXXXX........        ",
"XXXXXXXXXXXXXXXXXXXXXXXXXXXXXXXX........        ",
"XXXXXXXXXXXXXXXXXXXXXXXXXXXXXXXX........        ",
"XXXXXXXXXXXXXXXXXXXXXXXXXXXXXXXX........        ",
"XXXX....XXXXXXXX....XXXXXXXX............        ",
"XXXX....XXXXXXXX....XXXXXXXX............        ",
"XXXX....XXXXXXXX....XXXXXXXX............        ",
"XXXX....XXXXXXXX....XXXXXXXX............        ",
"XXXXXXXXXXXXXXXXXXXXXXXXXXXX........        OOOO",
"XXXXXXXXXXXXXXXXXXXXXXXXXXXX........        OOOO",
"XXXXXXXXXXXXXXXXXXXXXXXXXXXX........        OOOO",
"XXXXXXXXXXXXXXXXXXXXXXXXXXXX........        OOOO",
"XXXXXXXXXXXXXXXXXXXXXXXX............        OOOO",
"XXXXXXXXXXXXXXXXXXXXXXXX............        OOOO",
"XXXXXXXXXXXXXXXXXXXXXXXX............        OOOO",
"XXXXXXXXXXXXXXXXXXXXXXXX............        OOOO",
"....XXXXXXXX........................        OOOO",
"....XXXXXXXX........................        OOOO",
"....XXXXXXXX........................        OOOO",
"....XXXXXXXX........................        OOOO",
"................................        OOOOOOOO",
"................................        OOOOOOOO",
"................................        OOOOOOOO",
"................................        OOOOOOOO",
"        ........                    OOOOOOOOoooo",
"        ........                    OOOOOOOOoooo",
"        ........                    OOOOOOOOoooo",
"        ........                    OOOOOOOOoooo",
"                        ooooooooOOOOOOOOOOOOOOOO",
"                        ooooooooOOOOOOOOOOOOOOOO",
"                        ooooooooOOOOOOOOOOOOOOOO",
"                        ooooooooOOOOOOOOOOOOOOOO"
};
