/* XPM */
static char *xpm_[] = {
/* columns rows colors chars-per-pixel */
"48 48 3 1 ",
"  c #78A158",
". c #A4C263",
"X c #C0D470",
/* pixels */
"    ........XXXXXXXXXXXXXXXXXXXXXXXX........    ",
"    ........XXXXXXXXXXXXXXXXXXXXXXXX........    ",
"    ........XXXXXXXXXXXXXXXXXXXXXXXX........    ",
"    ........XXXXXXXXXXXXXXXXXXXXXXXX........    ",
"    ........XXXXXXXXXXXXXXXXXXXXXXXX........    ",
"    ........XXXXXXXXXXXXXXXXXXXXXXXX........    ",
"    ........XXXXXXXXXXXXXXXXXXXXXXXX........    ",
"    ........XXXXXXXXXXXXXXXXXXXXXXXX........    ",
"    ........XXXXXXXXXXXXXXXXXXXX............    ",
"    ........XXXXXXXXXXXXXXXXXXXX............    ",
"    ........XXXXXXXXXXXXXXXXXXXX............    ",
"    ........XXXXXXXXXXXXXXXXXXXX............    ",
"        ........XXXXXXXXXXXXXXXX........        ",
"        ........XXXXXXXXXXXXXXXX........        ",
"        ........XXXXXXXXXXXXXXXX........        ",
"        ........XXXXXXXXXXXXXXXX........        ",
"        ........XXXXXXXXXXXX............        ",
"        ........XXXXXXXXXXXX............        ",
"        ........XXXXXXXXXXXX............        ",
"        ........XXXXXXXXXXXX............        ",
"        ........XXXXXXXXXXXXXXXX........        ",
"        ........XXXXXXXXXXXXXXXX........        ",
"        ........XXXXXXXXXXXXXXXX........        ",
"        ........XXXXXXXXXXXXXXXX........        ",
"    ............XXXXXXXXXXXXXXXX............    ",
"    ............XXXXXXXXXXXXXXXX............    ",
"    ............XXXXXXXXXXXXXXXX............    ",
"    ............XXXXXXXXXXXXXXXX............    ",
"    ........XXXXXXXXXXXXXXXXXXXXXXXX........    ",
"    ........XXXXXXXXXXXXXXXXXXXXXXXX........    ",
"    ........XXXXXXXXXXXXXXXXXXXXXXXX........    ",
"    ........XXXXXXXXXXXXXXXXXXXXXXXX........    ",
"    ........XXXXXXXXXXXX....XXXXXXXX........    ",
"    ........XXXXXXXXXXXX....XXXXXXXX........    ",
"    ........XXXXXXXXXXXX....XXXXXXXX........    ",
"    ........XXXXXXXXXXXX....XXXXXXXX........    ",
"    ............XXXXXXXXXXXXXXXXXXXX........    ",
"    ............XXXXXXXXXXXXXXXXXXXX........    ",
"    ............XXXXXXXXXXXXXXXXXXXX........    ",
"    ............XXXXXXXXXXXXXXXXXXXX........    ",
"        ........XXXXXXXXXXXXXXXX............    ",
"        ........XXXXXXXXXXXXXXXX............    ",
"        ........XXXXXXXXXXXXXXXX............    ",
"        ........XXXXXXXXXXXXXXXX............    ",
"        ............XXXXXXXXXXXX............    ",
"        ............XXXXXXXXXXXX............    ",
"        ............XXXXXXXXXXXX............    ",
"        ............XXXXXXXXXXXX............    "
};
