/* XPM */
static char *xpm_[] = {
/* columns rows colors chars-per-pixel */
"48 48 3 1 ",
"  c #78A158",
". c #A4C263",
"X c #C0D470",
/* pixels */
"    ........XXXXXXXXXXXXXXXXXXXXXXXXXXXXXXXXXXXX",
"    ........XXXXXXXXXXXXXXXXXXXXXXXXXXXXXXXXXXXX",
"    ........XXXXXXXXXXXXXXXXXXXXXXXXXXXXXXXXXXXX",
"    ........XXXXXXXXXXXXXXXXXXXXXXXXXXXXXXXXXXXX",
"        ........XXXXXXXXXXXXXXXXXXXX....XXXXXXXX",
"        ........XXXXXXXXXXXXXXXXXXXX....XXXXXXXX",
"        ........XXXXXXXXXXXXXXXXXXXX....XXXXXXXX",
"        ........XXXXXXXXXXXXXXXXXXXX....XXXXXXXX",
"        ............XXXXXXXXXXXXXXXXXXXXXXXXXXXX",
"        ............XXXXXXXXXXXXXXXXXXXXXXXXXXXX",
"        ............XXXXXXXXXXXXXXXXXXXXXXXXXXXX",
"        ............XXXXXXXXXXXXXXXXXXXXXXXXXXXX",
"        ........XXXXXXXXXXXXXXXXXXXXXXXXXXXXXXXX",
"        ........XXXXXXXXXXXXXXXXXXXXXXXXXXXXXXXX",
"        ........XXXXXXXXXXXXXXXXXXXXXXXXXXXXXXXX",
"        ........XXXXXXXXXXXXXXXXXXXXXXXXXXXXXXXX",
"    ............XXXXXXXX....XXXXXXXXXXXXXXXXXXXX",
"    ............XXXXXXXX....XXXXXXXXXXXXXXXXXXXX",
"    ............XXXXXXXX....XXXXXXXXXXXXXXXXXXXX",
"    ............XXXXXXXX....XXXXXXXXXXXXXXXXXXXX",
"    ........XXXXXXXXXXXXXXXXXXXXXXXXXXXXXXXXXXXX",
"    ........XXXXXXXXXXXXXXXXXXXXXXXXXXXXXXXXXXXX",
"    ........XXXXXXXXXXXXXXXXXXXXXXXXXXXXXXXXXXXX",
"    ........XXXXXXXXXXXXXXXXXXXXXXXXXXXXXXXXXXXX",
"    ........XXXXXXXXXXXXXXXXXXXXXXXXXXXXXXXXXXXX",
"    ........XXXXXXXXXXXXXXXXXXXXXXXXXXXXXXXXXXXX",
"    ........XXXXXXXXXXXXXXXXXXXXXXXXXXXXXXXXXXXX",
"    ........XXXXXXXXXXXXXXXXXXXXXXXXXXXXXXXXXXXX",
"    ............XXXXXXXXXXXXXXXXXXXXXXXXXXXXXXXX",
"    ............XXXXXXXXXXXXXXXXXXXXXXXXXXXXXXXX",
"    ............XXXXXXXXXXXXXXXXXXXXXXXXXXXXXXXX",
"    ............XXXXXXXXXXXXXXXXXXXXXXXXXXXXXXXX",
"        ........XXXXXXXXXXXXXXXXXXXXXXXXXXXXXXXX",
"        ........XXXXXXXXXXXXXXXXXXXXXXXXXXXXXXXX",
"        ........XXXXXXXXXXXXXXXXXXXXXXXXXXXXXXXX",
"        ........XXXXXXXXXXXXXXXXXXXXXXXXXXXXXXXX",
"        ........XXXXXXXXXXXXXXXXXXXXXXXXXXXXXXXX",
"        ........XXXXXXXXXXXXXXXXXXXXXXXXXXXXXXXX",
"        ........XXXXXXXXXXXXXXXXXXXXXXXXXXXXXXXX",
"        ........XXXXXXXXXXXXXXXXXXXXXXXXXXXXXXXX",
"    ................XXXXXXXX....XXXXXXXXXXXXXXXX",
"    ................XXXXXXXX....XXXXXXXXXXXXXXXX",
"    ................XXXXXXXX....XXXXXXXXXXXXXXXX",
"    ................XXXXXXXX....XXXXXXXXXXXXXXXX",
"    ............XXXXXXXXXXXXXXXXXXXXXXXXXXXXXXXX",
"    ............XXXXXXXXXXXXXXXXXXXXXXXXXXXXXXXX",
"    ............XXXXXXXXXXXXXXXXXXXXXXXXXXXXXXXX",
"    ............XXXXXXXXXXXXXXXXXXXXXXXXXXXXXXXX"
};
