/* XPM */
static char *xpm_[] = {
/* columns rows colors chars-per-pixel */
"48 48 5 1 ",
"  c #78A158",
". c #A4C263",
"X c #C0D470",
"o c #B1E0BE",
"O c #9BD4C3",
/* pixels */
"OOOOOOOOOOOOOOOO            ooooOOOOOOOOOOOOOOOO",
"OOOOOOOOOOOOOOOO            ooooOOOOOOOOOOOOOOOO",
"OOOOOOOOOOOOOOOO            ooooOOOOOOOOOOOOOOOO",
"OOOOOOOOOOOOOOOO            ooooOOOOOOOOOOOOOOOO",
"OOOOOOOOOOOO                        OOOOOOOOOOOO",
"OOOOOOOOOOOO                        OOOOOOOOOOOO",
"OOOOOOOOOOOO                        OOOOOOOOOOOO",
"OOOOOOOOOOOO                        OOOOOOOOOOOO",
"OOOOOOOO        ............            OOOOOOOO",
"OOOOOOOO        ............            OOOOOOOO",
"OOOOOOOO        ............            OOOOOOOO",
"OOOOOOOO        ............            OOOOOOOO",
"oooo        ........................        OOOO",
"oooo        ........................        OOOO",
"oooo        ........................        OOOO",
"oooo        ........................        OOOO",
"OOOO    ............................        OOOO",
"OOOO    ............................        OOOO",
"OOOO    ............................        OOOO",
"OOOO    ............................        OOOO",
"OOOO        ........................        OOOO",
"OOOO        ........................        OOOO",
"OOOO        ........................        OOOO",
"OOOO        ........................        OOOO",
"            ........XXXXXXXX............        ",
"            ........XXXXXXXX............        ",
"            ........XXXXXXXX............        ",
"            ........XXXXXXXX............        ",
"        ........XXXXXXXXXXXXXXXX........        ",
"        ........XXXXXXXXXXXXXXXX........        ",
"        ........XXXXXXXXXXXXXXXX........        ",
"        ........XXXXXXXXXXXXXXXX........        ",
"        ........XXXXXXXXXXXXXXXX............    ",
"        ........XXXXXXXXXXXXXXXX............    ",
"        ........XXXXXXXXXXXXXXXX............    ",
"        ........XXXXXXXXXXXXXXXX............    ",
"    ............XXXXXXXXXXXXXXXX............    ",
"    ............XXXXXXXXXXXXXXXX............    ",
"    ............XXXXXXXXXXXXXXXX............    ",
"    ............XXXXXXXXXXXXXXXX............    ",
"    ............XXXX....XXXXXXXXXXXX....        ",
"    ............XXXX....XXXXXXXXXXXX....        ",
"    ............XXXX....XXXXXXXXXXXX....        ",
"    ............XXXX....XXXXXXXXXXXX....        ",
"    ............XXXXXXXXXXXXXXXXXXXX....        ",
"    ............XXXXXXXXXXXXXXXXXXXX....        ",
"    ............XXXXXXXXXXXXXXXXXXXX....        ",
"    ............XXXXXXXXXXXXXXXXXXXX....        "
};
