/* XPM */
static char *xpm_[] = {
/* columns rows colors chars-per-pixel */
"48 48 5 1 ",
"  c #78A158",
". c #A4C263",
"X c #C0D470",
"o c #B1E0BE",
"O c #9BD4C3",
/* pixels */
"                        ooooooooOOOOOOOOOOOOOOOO",
"                        ooooooooOOOOOOOOOOOOOOOO",
"                        ooooooooOOOOOOOOOOOOOOOO",
"                        ooooooooOOOOOOOOOOOOOOOO",
"............                        OOOOOOOOOOOO",
"............                        OOOOOOOOOOOO",
"............                        OOOOOOOOOOOO",
"............                        OOOOOOOOOOOO",
"............................            OOOOOOOO",
"............................            OOOOOOOO",
"............................            OOOOOOOO",
"............................            OOOOOOOO",
"....................................        OOOO",
"....................................        OOOO",
"....................................        OOOO",
"....................................        OOOO",
"....XXXX............................        OOOO",
"....XXXX............................        OOOO",
"....XXXX............................        OOOO",
"....XXXX............................        OOOO",
"XXXXXXXXXXXXXXXX....XXXX............        OOOO",
"XXXXXXXXXXXXXXXX....XXXX............        OOOO",
"XXXXXXXXXXXXXXXX....XXXX............        OOOO",
"XXXXXXXXXXXXXXXX....XXXX............        OOOO",
"XXXXXXXXXXXXXXXXXXXXXXXXXXXX............        ",
"XXXXXXXXXXXXXXXXXXXXXXXXXXXX............        ",
"XXXXXXXXXXXXXXXXXXXXXXXXXXXX............        ",
"XXXXXXXXXXXXXXXXXXXXXXXXXXXX............        ",
"XXXXXXXXXXXXXXXXXXXXXXXXXXXXXXXX........        ",
"XXXXXXXXXXXXXXXXXXXXXXXXXXXXXXXX........        ",
"XXXXXXXXXXXXXXXXXXXXXXXXXXXXXXXX........        ",
"XXXXXXXXXXXXXXXXXXXXXXXXXXXXXXXX........        ",
"....XXXXXXXXXXXXXXXXXXXXXXXXXXXX............    ",
"....XXXXXXXXXXXXXXXXXXXXXXXXXXXX............    ",
"....XXXXXXXXXXXXXXXXXXXXXXXXXXXX............    ",
"....XXXXXXXXXXXXXXXXXXXXXXXXXXXX............    ",
"XXXXXXXXXXXXXXXXXXXX....XXXXXXXX............    ",
"XXXXXXXXXXXXXXXXXXXX....XXXXXXXX............    ",
"XXXXXXXXXXXXXXXXXXXX....XXXXXXXX............    ",
"XXXXXXXXXXXXXXXXXXXX....XXXXXXXX............    ",
"XXXXXXXXXXXXXXXXXXXXXXXXXXXXXXXXXXXX....        ",
"XXXXXXXXXXXXXXXXXXXXXXXXXXXXXXXXXXXX....        ",
"XXXXXXXXXXXXXXXXXXXXXXXXXXXXXXXXXXXX....        ",
"XXXXXXXXXXXXXXXXXXXXXXXXXXXXXXXXXXXX....        ",
"XXXXXXXXXXXXXXXXXXXXXXXXXXXXXXXX........        ",
"XXXXXXXXXXXXXXXXXXXXXXXXXXXXXXXX........        ",
"XXXXXXXXXXXXXXXXXXXXXXXXXXXXXXXX........        ",
"XXXXXXXXXXXXXXXXXXXXXXXXXXXXXXXX........        "
};
