/* XPM */
static char *_26c83cf6ece4c8dd2511645bf93a3516DzuMjDMhVxFD2wY[] = {
/* columns rows colors chars-per-pixel */
"48 48 8 1 ",
"  c #25131A",
". c #523B40",
"X c #895A45",
"o c #78A158",
"O c #A4C263",
"+ c #C0D470",
"@ c #90919E",
"# c #ADC1CF",
/* pixels */
"++++++++++++++++++++++++++++++++++++++++++++++++",
"++++++++++++++++++++++++++++++++++++++++++++++++",
"++++++++++++++++++++++++++++++++++++++++++++++++",
"++++++++++++++++++++++++++++++++++++++++++++++++",
"++++++++++++++++++++++++++++++++++++++++++++++++",
"++++++++++++++++++++++++++++++++++++++++++++++++",
"++++++++++++++++++++++++++++++++++++++++++++++++",
"++++++++++++++++++++++++++++++++++++++++++++++++",
"++++++++++                            ++++++++++",
"++++++++++                            ++++++++++",
"++++++++    @@@@@@@@@@@@@@@@@@@@@@@@    ++++++++",
"++++++++    @@@@@@@@@@@@@@@@@@@@@@@@    ++++++++",
"++++++++  @@##  @@##        ##@@  ##@@  ++++++++",
"++++++++  @@##  @@##        ##@@  ##@@  ++++++++",
"++++++++  @@    @@##..XXXX..##@@    @@  ++++++++",
"++++++++  @@    @@##..XXXX..##@@    @@  ++++++++",
"OOOO++++  ##  ..@@############@@..  ##  OOOO++++",
"OOOO++++  ##  ..@@############@@..  ##  OOOO++++",
"OOOO++++  ##  XX####        ####XX  ##  OOOO++++",
"OOOO++++  ##  XX####        ####XX  ##  OOOO++++",
"++++++++  ##  XX    ..XXXX..    XX  ##  ++++++++",
"++++++++  ##  XX    ..XXXX..    XX  ##  ++++++++",
"++++++++  ##  XX..XX..XXXX..XX..XX  ##  ++++++++",
"++++++++  ##  XX..XX..XXXX..XX..XX  ##  ++++++++",
"++++++++  ##  XX..XX..XXXX..XX..XX  ##  ++++++++",
"++++++++  ##  XX..XX..XXXX..XX..XX  ##  ++++++++",
"++++++++  ##  XX..XX..XXXX..XX..XX  ##  ++++++++",
"++++++++  ##  XX..XX..XXXX..XX..XX  ##  ++++++++",
"++++OOOO  @@  XX..XX..XXXX..XX..XX  @@  ++++OOOO",
"++++OOOO  @@  XX..XX..XXXX..XX..XX  @@  ++++OOOO",
"++++OOOO  ##  XX..XX..XXXX..XX..XX  ##  ++++OOOO",
"++++OOOO  ##  XX..XX..XXXX..XX..XX  ##  ++++OOOO",
"OOOOOOOO  @@  ....................  @@  OOOOOOOO",
"OOOOOOOO  @@  ....................  @@  OOOOOOOO",
"OOOOOOOO  @@##                    ##@@  OOOOOOOO",
"OOOOOOOO  @@##                    ##@@  OOOOOOOO",
"OOOOOOOO    @@@@@@@@@@@@@@@@@@@@@@@@    OOOOOOOO",
"OOOOOOOO    @@@@@@@@@@@@@@@@@@@@@@@@    OOOOOOOO",
"OOOOOOOOOO                            OOOOOOOOOO",
"OOOOOOOOOO                            OOOOOOOOOO",
"ooooooooooooOOOOOOOOOOOOOOOOOOOOooooooooooooOOOO",
"ooooooooooooOOOOOOOOOOOOOOOOOOOOooooooooooooOOOO",
"ooooooooooooOOOOOOOOOOOOOOOOOOOOooooooooooooOOOO",
"ooooooooooooOOOOOOOOOOOOOOOOOOOOooooooooooooOOOO",
"oooooooooooooooooooooooooooooooooooooooooooooooo",
"oooooooooooooooooooooooooooooooooooooooooooooooo",
"oooooooooooooooooooooooooooooooooooooooooooooooo",
"oooooooooooooooooooooooooooooooooooooooooooooooo"
};
