/* XPM */
static char *_5e4b017e02c44f8f6f16433abe9e51bF7acRDAfmEqlwbdy[] = {
/* columns rows colors chars-per-pixel */
"48 48 8 1 ",
"  c #25131A",
". c #523B40",
"X c #895A45",
"o c #78A158",
"O c #A4C263",
"+ c #C0D470",
"@ c #90919E",
"# c #ADC1CF",
/* pixels */
"ooooOOOOOOOO++++++++++++++++++++++++OOOOOOOOoooo",
"ooooOOOOOOOO++++++++++++++++++++++++OOOOOOOOoooo",
"ooooOOOOOOOO++++++++++++++++++++++++OOOOOOOOoooo",
"ooooOOOOOOOO++++++++++++++++++++++++OOOOOOOOoooo",
"ooooOOOOOOOO++++++++++++++++++++++++OOOOOOOOoooo",
"ooooOOOOOOOO++++++++++++++++++++++++OOOOOOOOoooo",
"ooooOOOOOOOO++++++++++++++++++++++++OOOOOOOOoooo",
"ooooOOOOOOOO++++++++++++++++++++++++OOOOOOOOoooo",
"ooooOOOOOO                            OOOOOOoooo",
"ooooOOOOOO                            OOOOOOoooo",
"ooooOOOO    @@@@@@@@@@@@@@@@@@@@@@@@    OOOOoooo",
"ooooOOOO    @@@@@@@@@@@@@@@@@@@@@@@@    OOOOoooo",
"oooooooo  @@##  @@##        ##@@  ##@@  oooooooo",
"oooooooo  @@##  @@##        ##@@  ##@@  oooooooo",
"oooooooo  @@    @@##..XXXX..##@@    @@  oooooooo",
"oooooooo  @@    @@##..XXXX..##@@    @@  oooooooo",
"oooooooo  ##  ..@@############@@..  ##  oooooooo",
"oooooooo  ##  ..@@############@@..  ##  oooooooo",
"oooooooo  ##  XX####        ####XX  ##  oooooooo",
"oooooooo  ##  XX####        ####XX  ##  oooooooo",
"oooooooo  ##  XX    ..XXXX..    XX  ##  oooooooo",
"oooooooo  ##  XX    ..XXXX..    XX  ##  oooooooo",
"oooooooo  ##  XX..XX..XXXX..XX..XX  ##  oooooooo",
"oooooooo  ##  XX..XX..XXXX..XX..XX  ##  oooooooo",
"ooooOOOO  ##  XX..XX..XXXX..XX..XX  ##  OOOOoooo",
"ooooOOOO  ##  XX..XX..XXXX..XX..XX  ##  OOOOoooo",
"ooooOOOO  ##  XX..XX..XXXX..XX..XX  ##  OOOOoooo",
"ooooOOOO  ##  XX..XX..XXXX..XX..XX  ##  OOOOoooo",
"ooooOOOO  @@  XX..XX..XXXX..XX..XX  @@  OOOOoooo",
"ooooOOOO  @@  XX..XX..XXXX..XX..XX  @@  OOOOoooo",
"ooooOOOO  ##  XX..XX..XXXX..XX..XX  ##  OOOOoooo",
"ooooOOOO  ##  XX..XX..XXXX..XX..XX  ##  OOOOoooo",
"ooooOOOO  @@  ....................  @@  OOOOoooo",
"ooooOOOO  @@  ....................  @@  OOOOoooo",
"ooooOOOO  @@##                    ##@@  OOOOoooo",
"ooooOOOO  @@##                    ##@@  OOOOoooo",
"ooooOOOO    @@@@@@@@@@@@@@@@@@@@@@@@    OOOOoooo",
"ooooOOOO    @@@@@@@@@@@@@@@@@@@@@@@@    OOOOoooo",
"ooooOOOOOO                            OOOOOOoooo",
"ooooOOOOOO                            OOOOOOoooo",
"ooooooooOOOOOOOO++++++++++++++++OOOOOOOOOOOOoooo",
"ooooooooOOOOOOOO++++++++++++++++OOOOOOOOOOOOoooo",
"ooooooooOOOOOOOO++++++++++++++++OOOOOOOOOOOOoooo",
"ooooooooOOOOOOOO++++++++++++++++OOOOOOOOOOOOoooo",
"ooooooooOOOOOOOOOOOO++++++++++++OOOOOOOOOOOOoooo",
"ooooooooOOOOOOOOOOOO++++++++++++OOOOOOOOOOOOoooo",
"ooooooooOOOOOOOOOOOO++++++++++++OOOOOOOOOOOOoooo",
"ooooooooOOOOOOOOOOOO++++++++++++OOOOOOOOOOOOoooo"
};
