/* XPM */
static char *_268226559ae4b9edc93d31b2d53bb31H6PzqDsscvqaZceU[] = {
/* columns rows colors chars-per-pixel */
"48 48 10 1 ",
"  c #25131A",
". c #523B40",
"X c #895A45",
"o c #78A158",
"O c #A4C263",
"+ c #C0D470",
"@ c #90919E",
"# c #B1E0BE",
"$ c #9BD4C3",
"% c #ADC1CF",
/* pixels */
"$$$$$$$$$$$$$$$$$$$$####oooooooooooooooooooooooo",
"$$$$$$$$$$$$$$$$$$$$####oooooooooooooooooooooooo",
"$$$$$$$$$$$$$$$$$$$$####oooooooooooooooooooooooo",
"$$$$$$$$$$$$$$$$$$$$####oooooooooooooooooooooooo",
"$$$$$$$$$$$$ooooooooooooooooooooooooOOOOOOOOOOOO",
"$$$$$$$$$$$$ooooooooooooooooooooooooOOOOOOOOOOOO",
"$$$$$$$$$$$$ooooooooooooooooooooooooOOOOOOOOOOOO",
"$$$$$$$$$$$$ooooooooooooooooooooooooOOOOOOOOOOOO",
"$$$$$$$$oo                            OOOOOOOOOO",
"$$$$$$$$oo                            OOOOOOOOOO",
"$$$$$$$$    @@@@@@@@@@@@@@@@@@@@@@@@    OOOOOOOO",
"$$$$$$$$    @@@@@@@@@@@@@@@@@@@@@@@@    OOOOOOOO",
"####oooo  @@%%  @@%%        %%@@  %%@@  ++++++++",
"####oooo  @@%%  @@%%        %%@@  %%@@  ++++++++",
"####oooo  @@    @@%%..XXXX..%%@@    @@  ++++++++",
"####oooo  @@    @@%%..XXXX..%%@@    @@  ++++++++",
"oooooooo  %%  ..@@%%%%%%%%%%%%@@..  %%  ++++OOOO",
"oooooooo  %%  ..@@%%%%%%%%%%%%@@..  %%  ++++OOOO",
"oooooooo  %%  XX%%%%        %%%%XX  %%  ++++OOOO",
"oooooooo  %%  XX%%%%        %%%%XX  %%  ++++OOOO",
"oooooooo  %%  XX    ..XXXX..    XX  %%  ++++++++",
"oooooooo  %%  XX    ..XXXX..    XX  %%  ++++++++",
"oooooooo  %%  XX..XX..XXXX..XX..XX  %%  ++++++++",
"oooooooo  %%  XX..XX..XXXX..XX..XX  %%  ++++++++",
"oooooooo  %%  XX..XX..XXXX..XX..XX  %%  ++++++++",
"oooooooo  %%  XX..XX..XXXX..XX..XX  %%  ++++++++",
"oooooooo  %%  XX..XX..XXXX..XX..XX  %%  ++++++++",
"oooooooo  %%  XX..XX..XXXX..XX..XX  %%  ++++++++",
"oooooooo  @@  XX..XX..XXXX..XX..XX  @@  ++++++++",
"oooooooo  @@  XX..XX..XXXX..XX..XX  @@  ++++++++",
"oooooooo  %%  XX..XX..XXXX..XX..XX  %%  ++++++++",
"oooooooo  %%  XX..XX..XXXX..XX..XX  %%  ++++++++",
"$$$$oooo  @@  ....................  @@  OOOO++++",
"$$$$oooo  @@  ....................  @@  OOOO++++",
"$$$$oooo  @@%%                    %%@@  OOOO++++",
"$$$$oooo  @@%%                    %%@@  OOOO++++",
"$$$$$$$$    @@@@@@@@@@@@@@@@@@@@@@@@    OOOOOOOO",
"$$$$$$$$    @@@@@@@@@@@@@@@@@@@@@@@@    OOOOOOOO",
"$$$$$$$$oo                            OOOOOOOOOO",
"$$$$$$$$oo                            OOOOOOOOOO",
"$$$$$$$$$$$$ooooooooooooooooooooooooOOOOoooooooo",
"$$$$$$$$$$$$ooooooooooooooooooooooooOOOOoooooooo",
"$$$$$$$$$$$$ooooooooooooooooooooooooOOOOoooooooo",
"$$$$$$$$$$$$ooooooooooooooooooooooooOOOOoooooooo",
"$$$$$$$$$$$$$$$$$$$$####oooooooooooooooooooooooo",
"$$$$$$$$$$$$$$$$$$$$####oooooooooooooooooooooooo",
"$$$$$$$$$$$$$$$$$$$$####oooooooooooooooooooooooo",
"$$$$$$$$$$$$$$$$$$$$####oooooooooooooooooooooooo"
};
