/* XPM */
static char *_7675c3706dd4c4da5b4354b1a767441kdIxYZ5Pr2bfoSm5[] = {
/* columns rows colors chars-per-pixel */
"48 48 6 1 ",
"  c #25131A",
". c #523B40",
"X c #895A45",
"o c #C0D470",
"O c #90919E",
"+ c #ADC1CF",
/* pixels */
"oooooooooooooooooooooooooooooooooooooooooooooooo",
"oooooooooooooooooooooooooooooooooooooooooooooooo",
"oooooooooooooooooooooooooooooooooooooooooooooooo",
"oooooooooooooooooooooooooooooooooooooooooooooooo",
"oooooooooooooooooooooooooooooooooooooooooooooooo",
"oooooooooooooooooooooooooooooooooooooooooooooooo",
"oooooooooooooooooooooooooooooooooooooooooooooooo",
"oooooooooooooooooooooooooooooooooooooooooooooooo",
"oooooooooo                            oooooooooo",
"oooooooooo                            oooooooooo",
"oooooooo    OOOOOOOOOOOOOOOOOOOOOOOO    oooooooo",
"oooooooo    OOOOOOOOOOOOOOOOOOOOOOOO    oooooooo",
"oooooooo  OO++  OO++        ++OO  ++OO  oooooooo",
"oooooooo  OO++  OO++        ++OO  ++OO  oooooooo",
"oooooooo  OO    OO++..XXXX..++OO    OO  oooooooo",
"oooooooo  OO    OO++..XXXX..++OO    OO  oooooooo",
"oooooooo  ++  ..OO++++++++++++OO..  ++  oooooooo",
"oooooooo  ++  ..OO++++++++++++OO..  ++  oooooooo",
"oooooooo  ++  XX++++        ++++XX  ++  oooooooo",
"oooooooo  ++  XX++++        ++++XX  ++  oooooooo",
"oooooooo  ++  XX    ..XXXX..    XX  ++  oooooooo",
"oooooooo  ++  XX    ..XXXX..    XX  ++  oooooooo",
"oooooooo  ++  XX..XX..XXXX..XX..XX  ++  oooooooo",
"oooooooo  ++  XX..XX..XXXX..XX..XX  ++  oooooooo",
"oooooooo  ++  XX..XX..XXXX..XX..XX  ++  oooooooo",
"oooooooo  ++  XX..XX..XXXX..XX..XX  ++  oooooooo",
"oooooooo  ++  XX..XX..XXXX..XX..XX  ++  oooooooo",
"oooooooo  ++  XX..XX..XXXX..XX..XX  ++  oooooooo",
"oooooooo  OO  XX..XX..XXXX..XX..XX  OO  oooooooo",
"oooooooo  OO  XX..XX..XXXX..XX..XX  OO  oooooooo",
"oooooooo  ++  XX..XX..XXXX..XX..XX  ++  oooooooo",
"oooooooo  ++  XX..XX..XXXX..XX..XX  ++  oooooooo",
"oooooooo  OO  ....................  OO  oooooooo",
"oooooooo  OO  ....................  OO  oooooooo",
"oooooooo  OO++                    ++OO  oooooooo",
"oooooooo  OO++                    ++OO  oooooooo",
"oooooooo    OOOOOOOOOOOOOOOOOOOOOOOO    oooooooo",
"oooooooo    OOOOOOOOOOOOOOOOOOOOOOOO    oooooooo",
"oooooooooo                            oooooooooo",
"oooooooooo                            oooooooooo",
"oooooooooooooooooooooooooooooooooooooooooooooooo",
"oooooooooooooooooooooooooooooooooooooooooooooooo",
"oooooooooooooooooooooooooooooooooooooooooooooooo",
"oooooooooooooooooooooooooooooooooooooooooooooooo",
"oooooooooooooooooooooooooooooooooooooooooooooooo",
"oooooooooooooooooooooooooooooooooooooooooooooooo",
"oooooooooooooooooooooooooooooooooooooooooooooooo",
"oooooooooooooooooooooooooooooooooooooooooooooooo"
};
