/* XPM */
static char *_d7552c4fd804113a3d3597ec6dab4496WVoOMyBcssWgC6W[] = {
/* columns rows colors chars-per-pixel */
"48 48 10 1 ",
"  c #25131A",
". c #523B40",
"X c #895A45",
"o c #78A158",
"O c #A4C263",
"+ c #C0D470",
"@ c #90919E",
"# c #B1E0BE",
"$ c #9BD4C3",
"% c #ADC1CF",
/* pixels */
"$$$$$$$$$$$$$$$$$$$$$$$$oooooooooooooooooooooooo",
"$$$$$$$$$$$$$$$$$$$$$$$$oooooooooooooooooooooooo",
"$$$$$$$$$$$$$$$$$$$$$$$$oooooooooooooooooooooooo",
"$$$$$$$$$$$$$$$$$$$$$$$$oooooooooooooooooooooooo",
"$$$$$$$$$$$$ooooooooooooooooooooooooOOOOOOOOOOOO",
"$$$$$$$$$$$$ooooooooooooooooooooooooOOOOOOOOOOOO",
"$$$$$$$$$$$$ooooooooooooooooooooooooOOOOOOOOOOOO",
"$$$$$$$$$$$$ooooooooooooooooooooooooOOOOOOOOOOOO",
"########oo                            OOOOOOOOOO",
"########oo                            OOOOOOOOOO",
"########    @@@@@@@@@@@@@@@@@@@@@@@@    OOOOOOOO",
"########    @@@@@@@@@@@@@@@@@@@@@@@@    OOOOOOOO",
"$$$$oooo  @@%%  @@%%        %%@@  %%@@  OOOOOOOO",
"$$$$oooo  @@%%  @@%%        %%@@  %%@@  OOOOOOOO",
"$$$$oooo  @@    @@%%..XXXX..%%@@    @@  OOOOOOOO",
"$$$$oooo  @@    @@%%..XXXX..%%@@    @@  OOOOOOOO",
"$$$$oooo  %%  ..@@%%%%%%%%%%%%@@..  %%  ++++++++",
"$$$$oooo  %%  ..@@%%%%%%%%%%%%@@..  %%  ++++++++",
"$$$$oooo  %%  XX%%%%        %%%%XX  %%  ++++++++",
"$$$$oooo  %%  XX%%%%        %%%%XX  %%  ++++++++",
"$$$$oooo  %%  XX    ..XXXX..    XX  %%  ++++OOOO",
"$$$$oooo  %%  XX    ..XXXX..    XX  %%  ++++OOOO",
"$$$$oooo  %%  XX..XX..XXXX..XX..XX  %%  ++++OOOO",
"$$$$oooo  %%  XX..XX..XXXX..XX..XX  %%  ++++OOOO",
"oooooooo  %%  XX..XX..XXXX..XX..XX  %%  ++++++++",
"oooooooo  %%  XX..XX..XXXX..XX..XX  %%  ++++++++",
"oooooooo  %%  XX..XX..XXXX..XX..XX  %%  ++++++++",
"oooooooo  %%  XX..XX..XXXX..XX..XX  %%  ++++++++",
"oooooooo  @@  XX..XX..XXXX..XX..XX  @@  ++++++++",
"oooooooo  @@  XX..XX..XXXX..XX..XX  @@  ++++++++",
"oooooooo  %%  XX..XX..XXXX..XX..XX  %%  ++++++++",
"oooooooo  %%  XX..XX..XXXX..XX..XX  %%  ++++++++",
"oooooooo  @@  ....................  @@  ++++++++",
"oooooooo  @@  ....................  @@  ++++++++",
"oooooooo  @@%%                    %%@@  ++++++++",
"oooooooo  @@%%                    %%@@  ++++++++",
"ooooOOOO    @@@@@@@@@@@@@@@@@@@@@@@@    ++++++++",
"ooooOOOO    @@@@@@@@@@@@@@@@@@@@@@@@    ++++++++",
"ooooOOOOOO                            ++++++++++",
"ooooOOOOOO                            ++++++++++",
"ooooOOOOOOOOOOOO++++++++++++++++++++++++++++OOOO",
"ooooOOOOOOOOOOOO++++++++++++++++++++++++++++OOOO",
"ooooOOOOOOOOOOOO++++++++++++++++++++++++++++OOOO",
"ooooOOOOOOOOOOOO++++++++++++++++++++++++++++OOOO",
"ooooOOOOOOOOOOOO++++OOOO++++++++++++++++++++++++",
"ooooOOOOOOOOOOOO++++OOOO++++++++++++++++++++++++",
"ooooOOOOOOOOOOOO++++OOOO++++++++++++++++++++++++",
"ooooOOOOOOOOOOOO++++OOOO++++++++++++++++++++++++"
};
