/* XPM */
static char *_d3d19963e1a4204aa3d63b71ad67d3acj7khOYzRsMm6RGd[] = {
/* columns rows colors chars-per-pixel */
"48 48 8 1 ",
"  c #25131A",
". c #523B40",
"X c #895A45",
"o c #78A158",
"O c #A4C263",
"+ c #C0D470",
"@ c #90919E",
"# c #ADC1CF",
/* pixels */
"oooooooooooooooooooooooooooooooooooooooooooooooo",
"oooooooooooooooooooooooooooooooooooooooooooooooo",
"oooooooooooooooooooooooooooooooooooooooooooooooo",
"oooooooooooooooooooooooooooooooooooooooooooooooo",
"OOOOooooooooooooOOOOOOOOOOOOOOOOOOOOooooooooOOOO",
"OOOOooooooooooooOOOOOOOOOOOOOOOOOOOOooooooooOOOO",
"OOOOooooooooooooOOOOOOOOOOOOOOOOOOOOooooooooOOOO",
"OOOOooooooooooooOOOOOOOOOOOOOOOOOOOOooooooooOOOO",
"OOOOOOOOOO                            OOOOOOOOOO",
"OOOOOOOOOO                            OOOOOOOOOO",
"OOOOOOOO    @@@@@@@@@@@@@@@@@@@@@@@@    OOOOOOOO",
"OOOOOOOO    @@@@@@@@@@@@@@@@@@@@@@@@    OOOOOOOO",
"OOOOOOOO  @@##  @@##        ##@@  ##@@  OOOOOOOO",
"OOOOOOOO  @@##  @@##        ##@@  ##@@  OOOOOOOO",
"OOOOOOOO  @@    @@##..XXXX..##@@    @@  OOOOOOOO",
"OOOOOOOO  @@    @@##..XXXX..##@@    @@  OOOOOOOO",
"++++++++  ##  ..@@############@@..  ##  ++++++++",
"++++++++  ##  ..@@############@@..  ##  ++++++++",
"++++++++  ##  XX####        ####XX  ##  ++++++++",
"++++++++  ##  XX####        ####XX  ##  ++++++++",
"OOOO++++  ##  XX    ..XXXX..    XX  ##  ++++OOOO",
"OOOO++++  ##  XX    ..XXXX..    XX  ##  ++++OOOO",
"OOOO++++  ##  XX..XX..XXXX..XX..XX  ##  ++++OOOO",
"OOOO++++  ##  XX..XX..XXXX..XX..XX  ##  ++++OOOO",
"++++++++  ##  XX..XX..XXXX..XX..XX  ##  ++++++++",
"++++++++  ##  XX..XX..XXXX..XX..XX  ##  ++++++++",
"++++++++  ##  XX..XX..XXXX..XX..XX  ##  ++++++++",
"++++++++  ##  XX..XX..XXXX..XX..XX  ##  ++++++++",
"++++++++  @@  XX..XX..XXXX..XX..XX  @@  ++++++++",
"++++++++  @@  XX..XX..XXXX..XX..XX  @@  ++++++++",
"++++++++  ##  XX..XX..XXXX..XX..XX  ##  ++++++++",
"++++++++  ##  XX..XX..XXXX..XX..XX  ##  ++++++++",
"++++++++  @@  ....................  @@  ++++++++",
"++++++++  @@  ....................  @@  ++++++++",
"++++++++  @@##                    ##@@  ++++++++",
"++++++++  @@##                    ##@@  ++++++++",
"++++++++    @@@@@@@@@@@@@@@@@@@@@@@@    ++++++++",
"++++++++    @@@@@@@@@@@@@@@@@@@@@@@@    ++++++++",
"++++++++++                            ++++++++++",
"++++++++++                            ++++++++++",
"++++++++++++++++++++++++++++++++++++++++++++++++",
"++++++++++++++++++++++++++++++++++++++++++++++++",
"++++++++++++++++++++++++++++++++++++++++++++++++",
"++++++++++++++++++++++++++++++++++++++++++++++++",
"++++++++++++++++++++++++++++++++++++++++++++++++",
"++++++++++++++++++++++++++++++++++++++++++++++++",
"++++++++++++++++++++++++++++++++++++++++++++++++",
"++++++++++++++++++++++++++++++++++++++++++++++++"
};
