/* XPM */
static char *_fab2ef107a9490dc63c79161617107fwx5ZGxt9CdDE44rf[] = {
/* columns rows colors chars-per-pixel */
"48 48 10 1 ",
"  c #25131A",
". c #523B40",
"X c #895A45",
"o c #78A158",
"O c #A4C263",
"+ c #C0D470",
"@ c #90919E",
"# c #B1E0BE",
"$ c #9BD4C3",
"% c #ADC1CF",
/* pixels */
"oooooooooooooooooooooooo########$$$$$$$$$$$$$$$$",
"oooooooooooooooooooooooo########$$$$$$$$$$$$$$$$",
"oooooooooooooooooooooooo########$$$$$$$$$$$$$$$$",
"oooooooooooooooooooooooo########$$$$$$$$$$$$$$$$",
"OOOOOOOOOOOOoooooooooooooooooooooooo$$$$$$$$$$$$",
"OOOOOOOOOOOOoooooooooooooooooooooooo$$$$$$$$$$$$",
"OOOOOOOOOOOOoooooooooooooooooooooooo$$$$$$$$$$$$",
"OOOOOOOOOOOOoooooooooooooooooooooooo$$$$$$$$$$$$",
"OOOOOOOOOO                            oo$$$$$$$$",
"OOOOOOOOOO                            oo$$$$$$$$",
"OOOOOOOO    @@@@@@@@@@@@@@@@@@@@@@@@    $$$$$$$$",
"OOOOOOOO    @@@@@@@@@@@@@@@@@@@@@@@@    $$$$$$$$",
"++++++++  @@%%  @@%%        %%@@  %%@@  oooo$$$$",
"++++++++  @@%%  @@%%        %%@@  %%@@  oooo$$$$",
"++++++++  @@    @@%%..XXXX..%%@@    @@  oooo$$$$",
"++++++++  @@    @@%%..XXXX..%%@@    @@  oooo$$$$",
"OOOO++++  %%  ..@@%%%%%%%%%%%%@@..  %%  oooooooo",
"OOOO++++  %%  ..@@%%%%%%%%%%%%@@..  %%  oooooooo",
"OOOO++++  %%  XX%%%%        %%%%XX  %%  oooooooo",
"OOOO++++  %%  XX%%%%        %%%%XX  %%  oooooooo",
"++++++++  %%  XX    ..XXXX..    XX  %%  oooooooo",
"++++++++  %%  XX    ..XXXX..    XX  %%  oooooooo",
"++++++++  %%  XX..XX..XXXX..XX..XX  %%  oooooooo",
"++++++++  %%  XX..XX..XXXX..XX..XX  %%  oooooooo",
"++++++++  %%  XX..XX..XXXX..XX..XX  %%  oooooooo",
"++++++++  %%  XX..XX..XXXX..XX..XX  %%  oooooooo",
"++++++++  %%  XX..XX..XXXX..XX..XX  %%  oooooooo",
"++++++++  %%  XX..XX..XXXX..XX..XX  %%  oooooooo",
"++++++++  @@  XX..XX..XXXX..XX..XX  @@  oooooooo",
"++++++++  @@  XX..XX..XXXX..XX..XX  @@  oooooooo",
"++++++++  %%  XX..XX..XXXX..XX..XX  %%  oooooooo",
"++++++++  %%  XX..XX..XXXX..XX..XX  %%  oooooooo",
"OOOO++++  @@  ....................  @@  oooo$$$$",
"OOOO++++  @@  ....................  @@  oooo$$$$",
"OOOO++++  @@%%                    %%@@  oooo$$$$",
"OOOO++++  @@%%                    %%@@  oooo$$$$",
"OOOOOOOO    @@@@@@@@@@@@@@@@@@@@@@@@    $$$$$$$$",
"OOOOOOOO    @@@@@@@@@@@@@@@@@@@@@@@@    $$$$$$$$",
"OOOOOOOOOO                            oo$$$$$$$$",
"OOOOOOOOOO                            oo$$$$$$$$",
"ooooooooOOOOOOOOoooooooooooooooooooo$$$$$$$$####",
"ooooooooOOOOOOOOoooooooooooooooooooo$$$$$$$$####",
"ooooooooOOOOOOOOoooooooooooooooooooo$$$$$$$$####",
"ooooooooOOOOOOOOoooooooooooooooooooo$$$$$$$$####",
"oooooooooooooooooooooooo########$$$$$$$$$$$$$$$$",
"oooooooooooooooooooooooo########$$$$$$$$$$$$$$$$",
"oooooooooooooooooooooooo########$$$$$$$$$$$$$$$$",
"oooooooooooooooooooooooo########$$$$$$$$$$$$$$$$"
};
