/* XPM */
static char *d086f0c8a19c4df4fcdf13903c445d29LAv4NzAR5Z88ACUK[] = {
/* columns rows colors chars-per-pixel */
"48 48 10 1 ",
"  c #25131A",
". c #523B40",
"X c #895A45",
"o c #78A158",
"O c #A4C263",
"+ c #C0D470",
"@ c #90919E",
"# c #B1E0BE",
"$ c #9BD4C3",
"% c #ADC1CF",
/* pixels */
"ooooooooOOOOOOOOOOOO++++++++++++++++++++++++++++",
"ooooooooOOOOOOOOOOOO++++++++++++++++++++++++++++",
"ooooooooOOOOOOOOOOOO++++++++++++++++++++++++++++",
"ooooooooOOOOOOOOOOOO++++++++++++++++++++++++++++",
"ooooooooOOOOOOOO++++++++++++++++OOOO++++++++++++",
"ooooooooOOOOOOOO++++++++++++++++OOOO++++++++++++",
"ooooooooOOOOOOOO++++++++++++++++OOOO++++++++++++",
"ooooooooOOOOOOOO++++++++++++++++OOOO++++++++++++",
"ooooOOOOOO                            ++++++++++",
"ooooOOOOOO                            ++++++++++",
"ooooOOOO    @@@@@@@@@@@@@@@@@@@@@@@@    ++++++++",
"ooooOOOO    @@@@@@@@@@@@@@@@@@@@@@@@    ++++++++",
"ooooOOOO  @@%%  @@%%        %%@@  %%@@  ++++OOOO",
"ooooOOOO  @@%%  @@%%        %%@@  %%@@  ++++OOOO",
"ooooOOOO  @@    @@%%..XXXX..%%@@    @@  ++++OOOO",
"ooooOOOO  @@    @@%%..XXXX..%%@@    @@  ++++OOOO",
"oooooooo  %%  ..@@%%%%%%%%%%%%@@..  %%  ++++++++",
"oooooooo  %%  ..@@%%%%%%%%%%%%@@..  %%  ++++++++",
"oooooooo  %%  XX%%%%        %%%%XX  %%  ++++++++",
"oooooooo  %%  XX%%%%        %%%%XX  %%  ++++++++",
"oooooooo  %%  XX    ..XXXX..    XX  %%  ++++++++",
"oooooooo  %%  XX    ..XXXX..    XX  %%  ++++++++",
"oooooooo  %%  XX..XX..XXXX..XX..XX  %%  ++++++++",
"oooooooo  %%  XX..XX..XXXX..XX..XX  %%  ++++++++",
"$$$$oooo  %%  XX..XX..XXXX..XX..XX  %%  ++++++++",
"$$$$oooo  %%  XX..XX..XXXX..XX..XX  %%  ++++++++",
"$$$$oooo  %%  XX..XX..XXXX..XX..XX  %%  ++++++++",
"$$$$oooo  %%  XX..XX..XXXX..XX..XX  %%  ++++++++",
"$$$$oooo  @@  XX..XX..XXXX..XX..XX  @@  ++++++++",
"$$$$oooo  @@  XX..XX..XXXX..XX..XX  @@  ++++++++",
"$$$$oooo  %%  XX..XX..XXXX..XX..XX  %%  ++++++++",
"$$$$oooo  %%  XX..XX..XXXX..XX..XX  %%  ++++++++",
"$$$$oooo  @@  ....................  @@  OOOO++++",
"$$$$oooo  @@  ....................  @@  OOOO++++",
"$$$$oooo  @@%%                    %%@@  OOOO++++",
"$$$$oooo  @@%%                    %%@@  OOOO++++",
"$$$$$$$$    @@@@@@@@@@@@@@@@@@@@@@@@    OOOOOOOO",
"$$$$$$$$    @@@@@@@@@@@@@@@@@@@@@@@@    OOOOOOOO",
"$$$$$$$$oo                            OOOOOOOOOO",
"$$$$$$$$oo                            OOOOOOOOOO",
"$$$$$$$$$$$$ooooooooooooooooooooooooOOOOoooooooo",
"$$$$$$$$$$$$ooooooooooooooooooooooooOOOOoooooooo",
"$$$$$$$$$$$$ooooooooooooooooooooooooOOOOoooooooo",
"$$$$$$$$$$$$ooooooooooooooooooooooooOOOOoooooooo",
"$$$$$$$$$$$$$$$$$$$$####oooooooooooooooooooooooo",
"$$$$$$$$$$$$$$$$$$$$####oooooooooooooooooooooooo",
"$$$$$$$$$$$$$$$$$$$$####oooooooooooooooooooooooo",
"$$$$$$$$$$$$$$$$$$$$####oooooooooooooooooooooooo"
};
