/* XPM */
static char *dbedc9ddaf5743ff84c17d18ecbbdc6dhs9aIORHtLFcErn8[] = {
/* columns rows colors chars-per-pixel */
"48 48 10 1 ",
"  c #25131A",
". c #523B40",
"X c #895A45",
"o c #78A158",
"O c #A4C263",
"+ c #C0D470",
"@ c #90919E",
"# c #B1E0BE",
"$ c #9BD4C3",
"% c #ADC1CF",
/* pixels */
"$$$$$$$$$$$$$$$$oooooooooooo####$$$$$$$$$$$$$$$$",
"$$$$$$$$$$$$$$$$oooooooooooo####$$$$$$$$$$$$$$$$",
"$$$$$$$$$$$$$$$$oooooooooooo####$$$$$$$$$$$$$$$$",
"$$$$$$$$$$$$$$$$oooooooooooo####$$$$$$$$$$$$$$$$",
"$$$$$$$$$$$$oooooooooooooooooooooooo$$$$$$$$$$$$",
"$$$$$$$$$$$$oooooooooooooooooooooooo$$$$$$$$$$$$",
"$$$$$$$$$$$$oooooooooooooooooooooooo$$$$$$$$$$$$",
"$$$$$$$$$$$$oooooooooooooooooooooooo$$$$$$$$$$$$",
"$$$$$$$$oo                            oo$$$$$$$$",
"$$$$$$$$oo                            oo$$$$$$$$",
"$$$$$$$$    @@@@@@@@@@@@@@@@@@@@@@@@    $$$$$$$$",
"$$$$$$$$    @@@@@@@@@@@@@@@@@@@@@@@@    $$$$$$$$",
"####oooo  @@%%  @@%%        %%@@  %%@@  oooo$$$$",
"####oooo  @@%%  @@%%        %%@@  %%@@  oooo$$$$",
"####oooo  @@    @@%%..XXXX..%%@@    @@  oooo$$$$",
"####oooo  @@    @@%%..XXXX..%%@@    @@  oooo$$$$",
"$$$$oooo  %%  ..@@%%%%%%%%%%%%@@..  %%  oooo$$$$",
"$$$$oooo  %%  ..@@%%%%%%%%%%%%@@..  %%  oooo$$$$",
"$$$$oooo  %%  XX%%%%        %%%%XX  %%  oooo$$$$",
"$$$$oooo  %%  XX%%%%        %%%%XX  %%  oooo$$$$",
"$$$$oooo  %%  XX    ..XXXX..    XX  %%  oooo$$$$",
"$$$$oooo  %%  XX    ..XXXX..    XX  %%  oooo$$$$",
"$$$$oooo  %%  XX..XX..XXXX..XX..XX  %%  oooo$$$$",
"$$$$oooo  %%  XX..XX..XXXX..XX..XX  %%  oooo$$$$",
"oooooooo  %%  XX..XX..XXXX..XX..XX  %%  oooooooo",
"oooooooo  %%  XX..XX..XXXX..XX..XX  %%  oooooooo",
"oooooooo  %%  XX..XX..XXXX..XX..XX  %%  oooooooo",
"oooooooo  %%  XX..XX..XXXX..XX..XX  %%  oooooooo",
"oooooooo  @@  XX..XX..XXXX..XX..XX  @@  oooooooo",
"oooooooo  @@  XX..XX..XXXX..XX..XX  @@  oooooooo",
"oooooooo  %%  XX..XX..XXXX..XX..XX  %%  oooooooo",
"oooooooo  %%  XX..XX..XXXX..XX..XX  %%  oooooooo",
"oooooooo  @@  ....................  @@  OOOOoooo",
"oooooooo  @@  ....................  @@  OOOOoooo",
"oooooooo  @@%%                    %%@@  OOOOoooo",
"oooooooo  @@%%                    %%@@  OOOOoooo",
"ooooOOOO    @@@@@@@@@@@@@@@@@@@@@@@@    OOOOoooo",
"ooooOOOO    @@@@@@@@@@@@@@@@@@@@@@@@    OOOOoooo",
"ooooOOOOOO                            OOOOOOoooo",
"ooooOOOOOO                            OOOOOOoooo",
"ooooOOOOOOOOOOOO++++OOOO++++++++++++OOOOoooooooo",
"ooooOOOOOOOOOOOO++++OOOO++++++++++++OOOOoooooooo",
"ooooOOOOOOOOOOOO++++OOOO++++++++++++OOOOoooooooo",
"ooooOOOOOOOOOOOO++++OOOO++++++++++++OOOOoooooooo",
"ooooOOOOOOOOOOOO++++++++++++++++++++OOOOoooooooo",
"ooooOOOOOOOOOOOO++++++++++++++++++++OOOOoooooooo",
"ooooOOOOOOOOOOOO++++++++++++++++++++OOOOoooooooo",
"ooooOOOOOOOOOOOO++++++++++++++++++++OOOOoooooooo"
};
