/* XPM */
static char *d598089396af4b24a4582babe226e382d5VElvqdP5AzvQRP[] = {
/* columns rows colors chars-per-pixel */
"48 48 8 1 ",
"  c #25131A",
". c #523B40",
"X c #895A45",
"o c #78A158",
"O c #A4C263",
"+ c #C0D470",
"@ c #90919E",
"# c #ADC1CF",
/* pixels */
"++++++++++++++++++++++++++++OOOOOOOOOOOOoooooooo",
"++++++++++++++++++++++++++++OOOOOOOOOOOOoooooooo",
"++++++++++++++++++++++++++++OOOOOOOOOOOOoooooooo",
"++++++++++++++++++++++++++++OOOOOOOOOOOOoooooooo",
"++++++++++++++++++++++++++++++++OOOOOOOOoooooooo",
"++++++++++++++++++++++++++++++++OOOOOOOOoooooooo",
"++++++++++++++++++++++++++++++++OOOOOOOOoooooooo",
"++++++++++++++++++++++++++++++++OOOOOOOOoooooooo",
"++++++++++                            OOoooooooo",
"++++++++++                            OOoooooooo",
"++++++++    @@@@@@@@@@@@@@@@@@@@@@@@    oooooooo",
"++++++++    @@@@@@@@@@@@@@@@@@@@@@@@    oooooooo",
"++++++++  @@##  @@##        ##@@  ##@@  OOOOoooo",
"++++++++  @@##  @@##        ##@@  ##@@  OOOOoooo",
"++++++++  @@    @@##..XXXX..##@@    @@  OOOOoooo",
"++++++++  @@    @@##..XXXX..##@@    @@  OOOOoooo",
"++++++++  ##  ..@@############@@..  ##  OOOOoooo",
"++++++++  ##  ..@@############@@..  ##  OOOOoooo",
"++++++++  ##  XX####        ####XX  ##  OOOOoooo",
"++++++++  ##  XX####        ####XX  ##  OOOOoooo",
"++++++++  ##  XX    ..XXXX..    XX  ##  OOOOoooo",
"++++++++  ##  XX    ..XXXX..    XX  ##  OOOOoooo",
"++++++++  ##  XX..XX..XXXX..XX..XX  ##  OOOOoooo",
"++++++++  ##  XX..XX..XXXX..XX..XX  ##  OOOOoooo",
"++++++++  ##  XX..XX..XXXX..XX..XX  ##  OOOOoooo",
"++++++++  ##  XX..XX..XXXX..XX..XX  ##  OOOOoooo",
"++++++++  ##  XX..XX..XXXX..XX..XX  ##  OOOOoooo",
"++++++++  ##  XX..XX..XXXX..XX..XX  ##  OOOOoooo",
"++++++++  @@  XX..XX..XXXX..XX..XX  @@  OOOOoooo",
"++++++++  @@  XX..XX..XXXX..XX..XX  @@  OOOOoooo",
"++++++++  ##  XX..XX..XXXX..XX..XX  ##  OOOOoooo",
"++++++++  ##  XX..XX..XXXX..XX..XX  ##  OOOOoooo",
"++++++++  @@  ....................  @@  OOOOoooo",
"++++++++  @@  ....................  @@  OOOOoooo",
"++++++++  @@##                    ##@@  OOOOoooo",
"++++++++  @@##                    ##@@  OOOOoooo",
"++++++++    @@@@@@@@@@@@@@@@@@@@@@@@    oooooooo",
"++++++++    @@@@@@@@@@@@@@@@@@@@@@@@    oooooooo",
"++++++++++                            OOoooooooo",
"++++++++++                            OOoooooooo",
"++++++++++++++++++++OOOO++++++++++++OOOOoooooooo",
"++++++++++++++++++++OOOO++++++++++++OOOOoooooooo",
"++++++++++++++++++++OOOO++++++++++++OOOOoooooooo",
"++++++++++++++++++++OOOO++++++++++++OOOOoooooooo",
"++++++++++++++++++++++++++++++++++++OOOOOOOOoooo",
"++++++++++++++++++++++++++++++++++++OOOOOOOOoooo",
"++++++++++++++++++++++++++++++++++++OOOOOOOOoooo",
"++++++++++++++++++++++++++++++++++++OOOOOOOOoooo"
};
