/* XPM */
static char *_a0de24583c849e8d18e591868d1bd56hffUk6YHqMoGPjsj[] = {
/* columns rows colors chars-per-pixel */
"48 48 10 1 ",
"  c #25131A",
". c #523B40",
"X c #895A45",
"o c #78A158",
"O c #A4C263",
"+ c #C0D470",
"@ c #90919E",
"# c #B1E0BE",
"$ c #9BD4C3",
"% c #ADC1CF",
/* pixels */
"++++++++++++OOOO++++++++++++OOOOOOOOOOOOOOOOoooo",
"++++++++++++OOOO++++++++++++OOOOOOOOOOOOOOOOoooo",
"++++++++++++OOOO++++++++++++OOOOOOOOOOOOOOOOoooo",
"++++++++++++OOOO++++++++++++OOOOOOOOOOOOOOOOoooo",
"++++++++++++++++++++++++++++++++OOOOOOOOOOOOoooo",
"++++++++++++++++++++++++++++++++OOOOOOOOOOOOoooo",
"++++++++++++++++++++++++++++++++OOOOOOOOOOOOoooo",
"++++++++++++++++++++++++++++++++OOOOOOOOOOOOoooo",
"++++++++++                            OOOOOOoooo",
"++++++++++                            OOOOOOoooo",
"++++++++    @@@@@@@@@@@@@@@@@@@@@@@@    OOOOoooo",
"++++++++    @@@@@@@@@@@@@@@@@@@@@@@@    OOOOoooo",
"++++++++  @@%%  @@%%        %%@@  %%@@  oooooooo",
"++++++++  @@%%  @@%%        %%@@  %%@@  oooooooo",
"++++++++  @@    @@%%..XXXX..%%@@    @@  oooooooo",
"++++++++  @@    @@%%..XXXX..%%@@    @@  oooooooo",
"++++++++  %%  ..@@%%%%%%%%%%%%@@..  %%  oooooooo",
"++++++++  %%  ..@@%%%%%%%%%%%%@@..  %%  oooooooo",
"++++++++  %%  XX%%%%        %%%%XX  %%  oooooooo",
"++++++++  %%  XX%%%%        %%%%XX  %%  oooooooo",
"++++OOOO  %%  XX    ..XXXX..    XX  %%  oooooooo",
"++++OOOO  %%  XX    ..XXXX..    XX  %%  oooooooo",
"++++OOOO  %%  XX..XX..XXXX..XX..XX  %%  oooooooo",
"++++OOOO  %%  XX..XX..XXXX..XX..XX  %%  oooooooo",
"++++++++  %%  XX..XX..XXXX..XX..XX  %%  oooo$$$$",
"++++++++  %%  XX..XX..XXXX..XX..XX  %%  oooo$$$$",
"++++++++  %%  XX..XX..XXXX..XX..XX  %%  oooo$$$$",
"++++++++  %%  XX..XX..XXXX..XX..XX  %%  oooo$$$$",
"++++++++  @@  XX..XX..XXXX..XX..XX  @@  oooo$$$$",
"++++++++  @@  XX..XX..XXXX..XX..XX  @@  oooo$$$$",
"++++++++  %%  XX..XX..XXXX..XX..XX  %%  oooo$$$$",
"++++++++  %%  XX..XX..XXXX..XX..XX  %%  oooo$$$$",
"OOOO++++  @@  ....................  @@  oooo$$$$",
"OOOO++++  @@  ....................  @@  oooo$$$$",
"OOOO++++  @@%%                    %%@@  oooo$$$$",
"OOOO++++  @@%%                    %%@@  oooo$$$$",
"OOOOOOOO    @@@@@@@@@@@@@@@@@@@@@@@@    $$$$$$$$",
"OOOOOOOO    @@@@@@@@@@@@@@@@@@@@@@@@    $$$$$$$$",
"OOOOOOOOOO                            oo$$$$$$$$",
"OOOOOOOOOO                            oo$$$$$$$$",
"ooooooooOOOOOOOOoooooooooooooooooooo$$$$$$$$####",
"ooooooooOOOOOOOOoooooooooooooooooooo$$$$$$$$####",
"ooooooooOOOOOOOOoooooooooooooooooooo$$$$$$$$####",
"ooooooooOOOOOOOOoooooooooooooooooooo$$$$$$$$####",
"oooooooooooooooooooooooo########$$$$$$$$$$$$$$$$",
"oooooooooooooooooooooooo########$$$$$$$$$$$$$$$$",
"oooooooooooooooooooooooo########$$$$$$$$$$$$$$$$",
"oooooooooooooooooooooooo########$$$$$$$$$$$$$$$$"
};
