/* XPM */
static char *_4a3b3e2c69248f6fbf39cab1a92052fOMbKT4Vc56SOmCwd[] = {
/* columns rows colors chars-per-pixel */
"48 48 10 1 ",
"  c #25131A",
". c #523B40",
"X c #895A45",
"o c #78A158",
"O c #A4C263",
"+ c #C0D470",
"@ c #90919E",
"# c #B1E0BE",
"$ c #9BD4C3",
"% c #ADC1CF",
/* pixels */
"ooooooooOOOO++++++++++++++++++++OOOOOOOOOOOOoooo",
"ooooooooOOOO++++++++++++++++++++OOOOOOOOOOOOoooo",
"ooooooooOOOO++++++++++++++++++++OOOOOOOOOOOOoooo",
"ooooooooOOOO++++++++++++++++++++OOOOOOOOOOOOoooo",
"ooooooooOOOO++++++++OOOO++++++++OOOOOOOOOOOOoooo",
"ooooooooOOOO++++++++OOOO++++++++OOOOOOOOOOOOoooo",
"ooooooooOOOO++++++++OOOO++++++++OOOOOOOOOOOOoooo",
"ooooooooOOOO++++++++OOOO++++++++OOOOOOOOOOOOoooo",
"ooooOOOOOO                            OOOOOOoooo",
"ooooOOOOOO                            OOOOOOoooo",
"ooooOOOO    @@@@@@@@@@@@@@@@@@@@@@@@    OOOOoooo",
"ooooOOOO    @@@@@@@@@@@@@@@@@@@@@@@@    OOOOoooo",
"ooooOOOO  @@%%  @@%%        %%@@  %%@@  oooooooo",
"ooooOOOO  @@%%  @@%%        %%@@  %%@@  oooooooo",
"ooooOOOO  @@    @@%%..XXXX..%%@@    @@  oooooooo",
"ooooOOOO  @@    @@%%..XXXX..%%@@    @@  oooooooo",
"oooooooo  %%  ..@@%%%%%%%%%%%%@@..  %%  oooooooo",
"oooooooo  %%  ..@@%%%%%%%%%%%%@@..  %%  oooooooo",
"oooooooo  %%  XX%%%%        %%%%XX  %%  oooooooo",
"oooooooo  %%  XX%%%%        %%%%XX  %%  oooooooo",
"oooooooo  %%  XX    ..XXXX..    XX  %%  oooooooo",
"oooooooo  %%  XX    ..XXXX..    XX  %%  oooooooo",
"oooooooo  %%  XX..XX..XXXX..XX..XX  %%  oooooooo",
"oooooooo  %%  XX..XX..XXXX..XX..XX  %%  oooooooo",
"$$$$oooo  %%  XX..XX..XXXX..XX..XX  %%  oooo$$$$",
"$$$$oooo  %%  XX..XX..XXXX..XX..XX  %%  oooo$$$$",
"$$$$oooo  %%  XX..XX..XXXX..XX..XX  %%  oooo$$$$",
"$$$$oooo  %%  XX..XX..XXXX..XX..XX  %%  oooo$$$$",
"$$$$oooo  @@  XX..XX..XXXX..XX..XX  @@  oooo$$$$",
"$$$$oooo  @@  XX..XX..XXXX..XX..XX  @@  oooo$$$$",
"$$$$oooo  %%  XX..XX..XXXX..XX..XX  %%  oooo$$$$",
"$$$$oooo  %%  XX..XX..XXXX..XX..XX  %%  oooo$$$$",
"$$$$oooo  @@  ....................  @@  oooo$$$$",
"$$$$oooo  @@  ....................  @@  oooo$$$$",
"$$$$oooo  @@%%                    %%@@  oooo$$$$",
"$$$$oooo  @@%%                    %%@@  oooo$$$$",
"$$$$$$$$    @@@@@@@@@@@@@@@@@@@@@@@@    $$$$$$$$",
"$$$$$$$$    @@@@@@@@@@@@@@@@@@@@@@@@    $$$$$$$$",
"$$$$$$$$oo                            oo$$$$$$$$",
"$$$$$$$$oo                            oo$$$$$$$$",
"$$$$$$$$$$$$oooooooooooooooooooooooo$$$$$$$$####",
"$$$$$$$$$$$$oooooooooooooooooooooooo$$$$$$$$####",
"$$$$$$$$$$$$oooooooooooooooooooooooo$$$$$$$$####",
"$$$$$$$$$$$$oooooooooooooooooooooooo$$$$$$$$####",
"$$$$$$$$$$$$$$$$oooooooooooooooo$$$$$$$$$$$$$$$$",
"$$$$$$$$$$$$$$$$oooooooooooooooo$$$$$$$$$$$$$$$$",
"$$$$$$$$$$$$$$$$oooooooooooooooo$$$$$$$$$$$$$$$$",
"$$$$$$$$$$$$$$$$oooooooooooooooo$$$$$$$$$$$$$$$$"
};
