/* XPM */
static char *_e056c4c0042472b93a091c82ae500a58whWj0h4JEYx8WYn[] = {
/* columns rows colors chars-per-pixel */
"48 48 8 1 ",
"  c #25131A",
". c #523B40",
"X c #895A45",
"o c #78A158",
"O c #A4C263",
"+ c #C0D470",
"@ c #90919E",
"# c #ADC1CF",
/* pixels */
"oooooooooooooooooooooooooooooooooooooooooooooooo",
"oooooooooooooooooooooooooooooooooooooooooooooooo",
"oooooooooooooooooooooooooooooooooooooooooooooooo",
"oooooooooooooooooooooooooooooooooooooooooooooooo",
"OOOOOOOOOOOOooooooooooooOOOOOOOOOOOOOOOOOOOOoooo",
"OOOOOOOOOOOOooooooooooooOOOOOOOOOOOOOOOOOOOOoooo",
"OOOOOOOOOOOOooooooooooooOOOOOOOOOOOOOOOOOOOOoooo",
"OOOOOOOOOOOOooooooooooooOOOOOOOOOOOOOOOOOOOOoooo",
"OOOOOOOOOO                            OOOOOOOOOO",
"OOOOOOOOOO                            OOOOOOOOOO",
"OOOOOOOO    @@@@@@@@@@@@@@@@@@@@@@@@    OOOOOOOO",
"OOOOOOOO    @@@@@@@@@@@@@@@@@@@@@@@@    OOOOOOOO",
"++++OOOO  @@##  @@##        ##@@  ##@@  ++++++++",
"++++OOOO  @@##  @@##        ##@@  ##@@  ++++++++",
"++++OOOO  @@    @@##..XXXX..##@@    @@  ++++++++",
"++++OOOO  @@    @@##..XXXX..##@@    @@  ++++++++",
"++++++++  ##  ..@@############@@..  ##  ++++++++",
"++++++++  ##  ..@@############@@..  ##  ++++++++",
"++++++++  ##  XX####        ####XX  ##  ++++++++",
"++++++++  ##  XX####        ####XX  ##  ++++++++",
"++++++++  ##  XX    ..XXXX..    XX  ##  ++++++++",
"++++++++  ##  XX    ..XXXX..    XX  ##  ++++++++",
"++++++++  ##  XX..XX..XXXX..XX..XX  ##  ++++++++",
"++++++++  ##  XX..XX..XXXX..XX..XX  ##  ++++++++",
"++++++++  ##  XX..XX..XXXX..XX..XX  ##  ++++++++",
"++++++++  ##  XX..XX..XXXX..XX..XX  ##  ++++++++",
"++++++++  ##  XX..XX..XXXX..XX..XX  ##  ++++++++",
"++++++++  ##  XX..XX..XXXX..XX..XX  ##  ++++++++",
"++++++++  @@  XX..XX..XXXX..XX..XX  @@  ++++++++",
"++++++++  @@  XX..XX..XXXX..XX..XX  @@  ++++++++",
"++++++++  ##  XX..XX..XXXX..XX..XX  ##  ++++++++",
"++++++++  ##  XX..XX..XXXX..XX..XX  ##  ++++++++",
"++++++++  @@  ....................  @@  OOOOOOOO",
"++++++++  @@  ....................  @@  OOOOOOOO",
"++++++++  @@##                    ##@@  OOOOOOOO",
"++++++++  @@##                    ##@@  OOOOOOOO",
"OOOOOOOO    @@@@@@@@@@@@@@@@@@@@@@@@    OOOOOOOO",
"OOOOOOOO    @@@@@@@@@@@@@@@@@@@@@@@@    OOOOOOOO",
"OOOOOOOOOO                            OOOOOOOOOO",
"OOOOOOOOOO                            OOOOOOOOOO",
"OOOOOOOOooooooooooooOOOOOOOOOOOOOOOOOOOOoooooooo",
"OOOOOOOOooooooooooooOOOOOOOOOOOOOOOOOOOOoooooooo",
"OOOOOOOOooooooooooooOOOOOOOOOOOOOOOOOOOOoooooooo",
"OOOOOOOOooooooooooooOOOOOOOOOOOOOOOOOOOOoooooooo",
"oooooooooooooooooooooooooooooooooooooooooooooooo",
"oooooooooooooooooooooooooooooooooooooooooooooooo",
"oooooooooooooooooooooooooooooooooooooooooooooooo",
"oooooooooooooooooooooooooooooooooooooooooooooooo"
};
