/* XPM */
static char *_69a3f588cea498cefaf54aeb7ef11b2o3PjZ67zA2VrWRiX[] = {
/* columns rows colors chars-per-pixel */
"48 48 9 1 ",
"  c #0A1700",
". c #523B40",
"X c #895A45",
"o c #BF704D",
"O c #78A158",
"+ c #A4C263",
"@ c #C0D470",
"# c #90919E",
"$ c #ADC1CF",
/* pixels */
"OOOO++++++++@@@@@@@@@@@@@@@@@@@@@@@@@@@@@@@@@@@@",
"OOOO++++++++@@@@@@@@@@@@@@@@@@@@@@@@@@@@@@@@@@@@",
"OOOO++++++++@@@@@@@@@@@@@@@@@@@@@@@@@@@@@@@@@@@@",
"OOOO++++++++@@@@@@@@@@@@@@@@@@@@@@@@@@@@@@@@@@@@",
"OOOOOOOO++++++++@@@@@@@@@@@@@@@@@@@@++++@@@@@@@@",
"OOOOOOOO++++++++@@@@@@@@@@@@@@@@@@@@++++@@@@@@@@",
"OOOOOOOO++++++++@@@@@@@@@@@@@@@@@@@@++++@@@@@@@@",
"OOOOOOOO++++++++@@@@@@@@@@@@@@@@@@@@++++@@@@@@@@",
"OOOOOOOO++++++oooo++@@@@@@@@@@oooo@@@@@@@@@@@@@@",
"OOOOOOOO++++++oooo++@@@@@@@@@@oooo@@@@@@@@@@@@@@",
"OOOOOOOO++++++XXXX++@@@@@@@@@@XXXX@@@@@@@@@@@@@@",
"OOOOOOOO++++++XXXX++@@@@@@@@@@XXXX@@@@@@@@@@@@@@",
"OOOOOOOO++++++XXXX@@@@@@@@@@@@XXXX@@@@@@@@@@@@@@",
"OOOOOOOO++++++XXXX@@@@@@@@@@@@XXXX@@@@@@@@@@@@@@",
"OOOOOOOO    oo##$$oooooooooooo$$##oo    @@@@@@@@",
"OOOOOOOO    oo##$$oooooooooooo$$##oo    @@@@@@@@",
"OOOO++++    XXXXXXXXXXXXXXXXXXXXXXXX    @@@@@@@@",
"OOOO++++    XXXXXXXXXXXXXXXXXXXXXXXX    @@@@@@@@",
"OOOO++++      ....            ....      @@@@@@@@",
"OOOO++++      ....            ....      @@@@@@@@",
"OOOO++++      XXXX            XXXX      @@@@@@@@",
"OOOO++++      XXXX            XXXX      @@@@@@@@",
"OOOO++++      XXXX            XXXX      @@@@@@@@",
"OOOO++++      XXXX            XXXX      @@@@@@@@",
"OOOO++++      XXXX            XXXX      @@@@@@@@",
"OOOO++++      XXXX            XXXX      @@@@@@@@",
"OOOO++++      XXXX            XXXX      @@@@@@@@",
"OOOO++++      XXXX            XXXX      @@@@@@@@",
"OOOO++++      XXXX            XXXX      @@@@@@@@",
"OOOO++++      XXXX            XXXX      @@@@@@@@",
"OOOO++++    oo##$$oooooooooooo$$##oo    @@@@@@@@",
"OOOO++++    oo##$$oooooooooooo$$##oo    @@@@@@@@",
"OOOOOOOO    XXXXXXXXXXXXXXXXXXXXXXXX    @@@@@@@@",
"OOOOOOOO    XXXXXXXXXXXXXXXXXXXXXXXX    @@@@@@@@",
"OOOOOOOO      ....            ....      @@@@@@@@",
"OOOOOOOO      ....            ....      @@@@@@@@",
"OOOOOOOO      XXXX            XXXX      @@@@@@@@",
"OOOOOOOO      XXXX            XXXX      @@@@@@@@",
"OOOOOOOO      XXXX            XXXX      @@@@@@@@",
"OOOOOOOO      XXXX            XXXX      @@@@@@@@",
"OOOO++++++++++++++++@@@@@@@@++++@@@@@@@@@@@@@@@@",
"OOOO++++++++++++++++@@@@@@@@++++@@@@@@@@@@@@@@@@",
"OOOO++++++++++++++++@@@@@@@@++++@@@@@@@@@@@@@@@@",
"OOOO++++++++++++++++@@@@@@@@++++@@@@@@@@@@@@@@@@",
"OOOO++++++++++++@@@@@@@@@@@@@@@@@@@@@@@@@@@@@@@@",
"OOOO++++++++++++@@@@@@@@@@@@@@@@@@@@@@@@@@@@@@@@",
"OOOO++++++++++++@@@@@@@@@@@@@@@@@@@@@@@@@@@@@@@@",
"OOOO++++++++++++@@@@@@@@@@@@@@@@@@@@@@@@@@@@@@@@"
};
