/* XPM */
static char *_6154334b1f44611f6d24be22606af7fufXEfnFBrWYnl6Af[] = {
/* columns rows colors chars-per-pixel */
"48 48 11 1 ",
"  c #0A1700",
". c #523B40",
"X c #895A45",
"o c #BF704D",
"O c #78A158",
"+ c #A4C263",
"@ c #C0D470",
"# c #90919E",
"$ c #B1E0BE",
"% c #9BD4C3",
"& c #ADC1CF",
/* pixels */
"OOOOOOOOOOOOOOOOOOOOOOOO$$$$$$$$%%%%%%%%%%%%%%%%",
"OOOOOOOOOOOOOOOOOOOOOOOO$$$$$$$$%%%%%%%%%%%%%%%%",
"OOOOOOOOOOOOOOOOOOOOOOOO$$$$$$$$%%%%%%%%%%%%%%%%",
"OOOOOOOOOOOOOOOOOOOOOOOO$$$$$$$$%%%%%%%%%%%%%%%%",
"++++++++++++OOOOOOOOOOOOOOOOOOOOOOOO%%%%%%%%%%%%",
"++++++++++++OOOOOOOOOOOOOOOOOOOOOOOO%%%%%%%%%%%%",
"++++++++++++OOOOOOOOOOOOOOOOOOOOOOOO%%%%%%%%%%%%",
"++++++++++++OOOOOOOOOOOOOOOOOOOOOOOO%%%%%%%%%%%%",
"++++++++++++++oooo++++++++++OOooooOOOOOO%%%%%%%%",
"++++++++++++++oooo++++++++++OOooooOOOOOO%%%%%%%%",
"++++++++++++++XXXX++++++++++OOXXXXOOOOOO%%%%%%%%",
"++++++++++++++XXXX++++++++++OOXXXXOOOOOO%%%%%%%%",
"@@@@@@@@@@@@++XXXX++++++++++++XXXX++OOOOOOOO%%%%",
"@@@@@@@@@@@@++XXXX++++++++++++XXXX++OOOOOOOO%%%%",
"@@@@@@@@    oo##&&oooooooooooo&&##oo    OOOO%%%%",
"@@@@@@@@    oo##&&oooooooooooo&&##oo    OOOO%%%%",
"++++@@@@    XXXXXXXXXXXXXXXXXXXXXXXX    OOOOOOOO",
"++++@@@@    XXXXXXXXXXXXXXXXXXXXXXXX    OOOOOOOO",
"++++@@@@      ....            ....      OOOOOOOO",
"++++@@@@      ....            ....      OOOOOOOO",
"@@@@@@@@      XXXX            XXXX      OOOOOOOO",
"@@@@@@@@      XXXX            XXXX      OOOOOOOO",
"@@@@@@@@      XXXX            XXXX      OOOOOOOO",
"@@@@@@@@      XXXX            XXXX      OOOOOOOO",
"@@@@@@@@      XXXX            XXXX      OOOOOOOO",
"@@@@@@@@      XXXX            XXXX      OOOOOOOO",
"@@@@@@@@      XXXX            XXXX      OOOOOOOO",
"@@@@@@@@      XXXX            XXXX      OOOOOOOO",
"@@@@@@@@      XXXX            XXXX      OOOOOOOO",
"@@@@@@@@      XXXX            XXXX      OOOOOOOO",
"@@@@@@@@    oo##&&oooooooooooo&&##oo    OOOOOOOO",
"@@@@@@@@    oo##&&oooooooooooo&&##oo    OOOOOOOO",
"++++@@@@    XXXXXXXXXXXXXXXXXXXXXXXX    OOOO%%%%",
"++++@@@@    XXXXXXXXXXXXXXXXXXXXXXXX    OOOO%%%%",
"++++@@@@      ....            ....      OOOO%%%%",
"++++@@@@      ....            ....      OOOO%%%%",
"++++++++      XXXX            XXXX      %%%%%%%%",
"++++++++      XXXX            XXXX      %%%%%%%%",
"++++++++      XXXX            XXXX      %%%%%%%%",
"++++++++      XXXX            XXXX      %%%%%%%%",
"OOOOOOOO++++++++OOOOOOOOOOOOOOOOOOOO%%%%%%%%$$$$",
"OOOOOOOO++++++++OOOOOOOOOOOOOOOOOOOO%%%%%%%%$$$$",
"OOOOOOOO++++++++OOOOOOOOOOOOOOOOOOOO%%%%%%%%$$$$",
"OOOOOOOO++++++++OOOOOOOOOOOOOOOOOOOO%%%%%%%%$$$$",
"OOOOOOOOOOOOOOOOOOOOOOOO$$$$$$$$%%%%%%%%%%%%%%%%",
"OOOOOOOOOOOOOOOOOOOOOOOO$$$$$$$$%%%%%%%%%%%%%%%%",
"OOOOOOOOOOOOOOOOOOOOOOOO$$$$$$$$%%%%%%%%%%%%%%%%",
"OOOOOOOOOOOOOOOOOOOOOOOO$$$$$$$$%%%%%%%%%%%%%%%%"
};
