/* XPM */
static char *da65e539578a488b8f7b98d56bde8994d5VsRGg73rCgMsSQ[] = {
/* columns rows colors chars-per-pixel */
"48 48 11 1 ",
"  c #0A1700",
". c #523B40",
"X c #895A45",
"o c #BF704D",
"O c #78A158",
"+ c #A4C263",
"@ c #C0D470",
"# c #90919E",
"$ c #B1E0BE",
"% c #9BD4C3",
"& c #ADC1CF",
/* pixels */
"OOOOOOOO++++@@@@@@@@@@@@@@@@@@@@++++++++++++OOOO",
"OOOOOOOO++++@@@@@@@@@@@@@@@@@@@@++++++++++++OOOO",
"OOOOOOOO++++@@@@@@@@@@@@@@@@@@@@++++++++++++OOOO",
"OOOOOOOO++++@@@@@@@@@@@@@@@@@@@@++++++++++++OOOO",
"OOOOOOOO++++@@@@@@@@++++@@@@@@@@++++++++++++OOOO",
"OOOOOOOO++++@@@@@@@@++++@@@@@@@@++++++++++++OOOO",
"OOOOOOOO++++@@@@@@@@++++@@@@@@@@++++++++++++OOOO",
"OOOOOOOO++++@@@@@@@@++++@@@@@@@@++++++++++++OOOO",
"OOOO++++++++++oooo@@@@@@@@@@++oooo++++++++++OOOO",
"OOOO++++++++++oooo@@@@@@@@@@++oooo++++++++++OOOO",
"OOOO++++++++++XXXX@@@@@@@@@@++XXXX++++++++++OOOO",
"OOOO++++++++++XXXX@@@@@@@@@@++XXXX++++++++++OOOO",
"OOOO++++++++++XXXX@@@@@@@@@@@@XXXX++++++OOOOOOOO",
"OOOO++++++++++XXXX@@@@@@@@@@@@XXXX++++++OOOOOOOO",
"OOOO++++    oo##&&oooooooooooo&&##oo    OOOOOOOO",
"OOOO++++    oo##&&oooooooooooo&&##oo    OOOOOOOO",
"OOOOOOOO    XXXXXXXXXXXXXXXXXXXXXXXX    OOOOOOOO",
"OOOOOOOO    XXXXXXXXXXXXXXXXXXXXXXXX    OOOOOOOO",
"OOOOOOOO      ....            ....      OOOOOOOO",
"OOOOOOOO      ....            ....      OOOOOOOO",
"OOOOOOOO      XXXX            XXXX      OOOOOOOO",
"OOOOOOOO      XXXX            XXXX      OOOOOOOO",
"OOOOOOOO      XXXX            XXXX      OOOOOOOO",
"OOOOOOOO      XXXX            XXXX      OOOOOOOO",
"%%%%OOOO      XXXX            XXXX      OOOO%%%%",
"%%%%OOOO      XXXX            XXXX      OOOO%%%%",
"%%%%OOOO      XXXX            XXXX      OOOO%%%%",
"%%%%OOOO      XXXX            XXXX      OOOO%%%%",
"%%%%OOOO      XXXX            XXXX      OOOO%%%%",
"%%%%OOOO      XXXX            XXXX      OOOO%%%%",
"%%%%OOOO    oo##&&oooooooooooo&&##oo    OOOO%%%%",
"%%%%OOOO    oo##&&oooooooooooo&&##oo    OOOO%%%%",
"%%%%OOOO    XXXXXXXXXXXXXXXXXXXXXXXX    OOOO%%%%",
"%%%%OOOO    XXXXXXXXXXXXXXXXXXXXXXXX    OOOO%%%%",
"%%%%OOOO      ....            ....      OOOO%%%%",
"%%%%OOOO      ....            ....      OOOO%%%%",
"%%%%%%%%      XXXX            XXXX      %%%%%%%%",
"%%%%%%%%      XXXX            XXXX      %%%%%%%%",
"%%%%%%%%      XXXX            XXXX      %%%%%%%%",
"%%%%%%%%      XXXX            XXXX      %%%%%%%%",
"%%%%%%%%%%%%OOOOOOOOOOOOOOOOOOOOOOOO%%%%%%%%$$$$",
"%%%%%%%%%%%%OOOOOOOOOOOOOOOOOOOOOOOO%%%%%%%%$$$$",
"%%%%%%%%%%%%OOOOOOOOOOOOOOOOOOOOOOOO%%%%%%%%$$$$",
"%%%%%%%%%%%%OOOOOOOOOOOOOOOOOOOOOOOO%%%%%%%%$$$$",
"%%%%%%%%%%%%%%%%OOOOOOOOOOOOOOOO%%%%%%%%%%%%%%%%",
"%%%%%%%%%%%%%%%%OOOOOOOOOOOOOOOO%%%%%%%%%%%%%%%%",
"%%%%%%%%%%%%%%%%OOOOOOOOOOOOOOOO%%%%%%%%%%%%%%%%",
"%%%%%%%%%%%%%%%%OOOOOOOOOOOOOOOO%%%%%%%%%%%%%%%%"
};
