/* XPM */
static char *_053ddd676554359d13a920521c9f83cVnh7eQOYp6TEZeIX[] = {
/* columns rows colors chars-per-pixel */
"48 48 11 1 ",
"  c #0A1700",
". c #523B40",
"X c #895A45",
"o c #BF704D",
"O c #78A158",
"+ c #A4C263",
"@ c #C0D470",
"# c #90919E",
"$ c #B1E0BE",
"% c #9BD4C3",
"& c #ADC1CF",
/* pixels */
"%%%%%%%%%%%%%%%%%%%%%%%%OOOOOOOOOOOOOOOOOOOOOOOO",
"%%%%%%%%%%%%%%%%%%%%%%%%OOOOOOOOOOOOOOOOOOOOOOOO",
"%%%%%%%%%%%%%%%%%%%%%%%%OOOOOOOOOOOOOOOOOOOOOOOO",
"%%%%%%%%%%%%%%%%%%%%%%%%OOOOOOOOOOOOOOOOOOOOOOOO",
"%%%%%%%%%%%%OOOOOOOOOOOOOOOOOOOOOOOO++++++++++++",
"%%%%%%%%%%%%OOOOOOOOOOOOOOOOOOOOOOOO++++++++++++",
"%%%%%%%%%%%%OOOOOOOOOOOOOOOOOOOOOOOO++++++++++++",
"%%%%%%%%%%%%OOOOOOOOOOOOOOOOOOOOOOOO++++++++++++",
"$$$$$$$$OOOOOOoooo++++++++++++oooo++++++++++++++",
"$$$$$$$$OOOOOOoooo++++++++++++oooo++++++++++++++",
"$$$$$$$$OOOOOOXXXX++++++++++++XXXX++++++++++++++",
"$$$$$$$$OOOOOOXXXX++++++++++++XXXX++++++++++++++",
"%%%%OOOOOOOO++XXXX++++++++++++XXXX++++++++++++++",
"%%%%OOOOOOOO++XXXX++++++++++++XXXX++++++++++++++",
"%%%%OOOO    oo##&&oooooooooooo&&##oo    ++++++++",
"%%%%OOOO    oo##&&oooooooooooo&&##oo    ++++++++",
"%%%%OOOO    XXXXXXXXXXXXXXXXXXXXXXXX    @@@@@@@@",
"%%%%OOOO    XXXXXXXXXXXXXXXXXXXXXXXX    @@@@@@@@",
"%%%%OOOO      ....            ....      @@@@@@@@",
"%%%%OOOO      ....            ....      @@@@@@@@",
"%%%%OOOO      XXXX            XXXX      @@@@++++",
"%%%%OOOO      XXXX            XXXX      @@@@++++",
"%%%%OOOO      XXXX            XXXX      @@@@++++",
"%%%%OOOO      XXXX            XXXX      @@@@++++",
"OOOOOOOO      XXXX            XXXX      @@@@@@@@",
"OOOOOOOO      XXXX            XXXX      @@@@@@@@",
"OOOOOOOO      XXXX            XXXX      @@@@@@@@",
"OOOOOOOO      XXXX            XXXX      @@@@@@@@",
"OOOOOOOO      XXXX            XXXX      @@@@@@@@",
"OOOOOOOO      XXXX            XXXX      @@@@@@@@",
"OOOOOOOO    oo##&&oooooooooooo&&##oo    @@@@@@@@",
"OOOOOOOO    oo##&&oooooooooooo&&##oo    @@@@@@@@",
"OOOOOOOO    XXXXXXXXXXXXXXXXXXXXXXXX    @@@@@@@@",
"OOOOOOOO    XXXXXXXXXXXXXXXXXXXXXXXX    @@@@@@@@",
"OOOOOOOO      ....            ....      @@@@@@@@",
"OOOOOOOO      ....            ....      @@@@@@@@",
"OOOO++++      XXXX            XXXX      @@@@@@@@",
"OOOO++++      XXXX            XXXX      @@@@@@@@",
"OOOO++++      XXXX            XXXX      @@@@@@@@",
"OOOO++++      XXXX            XXXX      @@@@@@@@",
"OOOO++++++++++++@@@@@@@@@@@@@@@@@@@@@@@@@@@@++++",
"OOOO++++++++++++@@@@@@@@@@@@@@@@@@@@@@@@@@@@++++",
"OOOO++++++++++++@@@@@@@@@@@@@@@@@@@@@@@@@@@@++++",
"OOOO++++++++++++@@@@@@@@@@@@@@@@@@@@@@@@@@@@++++",
"OOOO++++++++++++@@@@++++@@@@@@@@@@@@@@@@@@@@@@@@",
"OOOO++++++++++++@@@@++++@@@@@@@@@@@@@@@@@@@@@@@@",
"OOOO++++++++++++@@@@++++@@@@@@@@@@@@@@@@@@@@@@@@",
"OOOO++++++++++++@@@@++++@@@@@@@@@@@@@@@@@@@@@@@@"
};
